<svg id="Layer_1" data-name="Layer 1" xmlns="http://www.w3.org/2000/svg" xmlns:xlink="http://www.w3.org/1999/xlink" viewBox="0 0 2304 865"><defs><style>.cls-1{fill:none;}.cls-2,.cls-4{fill:#fff;}.cls-2,.cls-3{opacity:0.1;}.cls-5{fill:url(#Bugs_2);}</style><pattern id="Bugs_2" data-name="Bugs 2" width="960" height="960" patternTransform="translate(-512 -571.5) scale(2)" patternUnits="userSpaceOnUse" viewBox="0 0 960 960"><rect class="cls-1" width="960" height="960"/><path class="cls-2" d="M66,912.33l-1.51,1.51L58.83,912a1.55,1.55,0,0,0-1.92.88l-2.84,6.89H53.71l-1.39-1.39,1-6.89a1.55,1.55,0,0,0-.44-1.31l-2.73-2.73,0.44-3.06a1.55,1.55,0,0,0-3.06-.44L47,907.73A1.55,1.55,0,0,0,47.4,909l2.73,2.73-0.68,4.76a4.66,4.66,0,0,0-3,.36l-0.18-.2a4.62,4.62,0,0,0-3.51-1.35A9.28,9.28,0,0,1,43,902.48a1.55,1.55,0,1,0-2.19-2.19,12.39,12.39,0,0,0-1,16.34l-0.08.07-0.07.08a12.39,12.39,0,0,0-16.34,1A1.55,1.55,0,0,0,25.52,920a9.28,9.28,0,0,1,12.87-.23,4.62,4.62,0,0,0,1.35,3.51l0.2,0.18a4.66,4.66,0,0,0-.36,3l-4.76.68-2.73-2.73a1.55,1.55,0,0,0-1.31-.44l-3.83.55a1.55,1.55,0,0,0,.44,3.06l3.06-.44,2.73,2.73a1.55,1.55,0,0,0,1.31.44l6.89-1,1.39,1.39c0,0.12,0,.24,0,0.36l-6.89,2.84a1.55,1.55,0,0,0-.88,1.92l1.89,5.66L35.37,943a1.55,1.55,0,0,0,2.19,2.19L39.74,943a1.55,1.55,0,0,0,.37-1.58l-1.73-5.19,5.48-2.26,0.25,0.28,1.09,1.09c0.66,0.66,1.36,1.33,2.08,2l-1.36,4.08a1.55,1.55,0,0,0,.37,1.58l7,7-1.89,5.66a1.55,1.55,0,1,0,2.93,1L56.52,950a1.55,1.55,0,0,0-.37-1.58l-7-7,0.63-1.9c7.85,6.76,17.65,12.89,20.57,10a2.5,2.5,0,0,0,.71-1.48,2.5,2.5,0,0,0,1.48-.71c2.91-2.91-3.22-12.71-10-20.57l1.9-.63,7,7a1.55,1.55,0,0,0,1.4.42l5.47-1.09a1.55,1.55,0,0,0-.61-3l-4.66.93L66,923.26a1.55,1.55,0,0,0-1.58-.37l-4.08,1.36c-0.67-.72-1.34-1.42-2-2.08l-1.09-1.09L57,920.82l2.26-5.48,5.19,1.73A1.55,1.55,0,0,0,66,916.7l2.19-2.19A1.55,1.55,0,0,0,66,912.33Zm-24.06,6.56a1.55,1.55,0,0,1,2.19,0l-2.19,2.19A1.55,1.55,0,0,1,41.93,918.89ZM43,926.55a1.55,1.55,0,0,1,0-2.19L47.4,920a1.55,1.55,0,0,1,2.19,0l1.09,1.09-6.56,6.56Zm13.13-2.19c9.43,9.43,13.89,18.16,14.1,20.57l-0.46-.13a1.55,1.55,0,0,0-2,2,4.37,4.37,0,0,1,.13.46c-2.41-.21-11.14-4.68-20.57-14.1L46.31,932a1.55,1.55,0,0,1,0-2.19l6.56-6.56a1.55,1.55,0,0,1,2.19,0Z"/><path class="cls-2" d="M267,930.15a4.81,4.81,0,0,0-.44-2H272a1.54,1.54,0,0,0,1.09-.45l5-5h8.11a1.55,1.55,0,1,0,0-3.09h-8.75a1.54,1.54,0,0,0-1.09.45l-5,5h-4.79a8.67,8.67,0,0,0,.53-2.87,3.67,3.67,0,0,0,3.66-.92l0.14-.14a6.15,6.15,0,0,0,.95-7.51l1.24-1.24a1.55,1.55,0,0,0-2.19-2.19l-1.24,1.24a6.33,6.33,0,0,0-7.65,1.09,3.67,3.67,0,0,0-.92,3.67,8.65,8.65,0,0,0-2.87.53v-4.79l5-5a1.55,1.55,0,0,0,.45-1.09v-8.75a1.55,1.55,0,0,0-3.09,0v8.11l-5,5a1.55,1.55,0,0,0-.45,1.09v5.45a4.79,4.79,0,0,0-2-.44H236.92a11.76,11.76,0,0,0-8.37,3.47l-0.11.11a8,8,0,0,0,0,11.24l0.12,0.12a8.24,8.24,0,0,0,.89.76l-1.16,1.16a1.55,1.55,0,0,0,2.19,2.19l2-2a8.14,8.14,0,0,0,1.86.22h0.41a31.4,31.4,0,0,0,4.39-.31l-7.51,7.51a1.55,1.55,0,0,0,2.19,2.19l3.9-3.9a5.65,5.65,0,0,0,6.56,6.56l-3.9,3.9a1.55,1.55,0,1,0,2.19,2.19l7.51-7.51a31.46,31.46,0,0,0-.31,4.39V949a8.14,8.14,0,0,0,.22,1.86l-2,2a1.55,1.55,0,1,0,2.19,2.19l1.16-1.16a8.23,8.23,0,0,0,.76.89l0.12,0.12a8,8,0,0,0,11.24,0l0.11-.11a11.76,11.76,0,0,0,3.47-8.37V930.15Zm-23.78-1a27.89,27.89,0,0,1-7.93,1.32l4.55-4.55h8.31A17.83,17.83,0,0,0,243.25,929.19Zm-4-6.32a1.55,1.55,0,0,0-1.09.45l-6.46,6.46a5,5,0,0,1-.93-0.73l-0.12-.12a4.86,4.86,0,0,1,0-6.86l0.11-.11a8.69,8.69,0,0,1,6.18-2.56h16.26a1.71,1.71,0,0,1,.74.17,12,12,0,0,0-2.32,3.3H239.23Zm29.25-8.55a3.21,3.21,0,0,1,.29.26,3.06,3.06,0,0,1,.9,2,3.1,3.1,0,0,1-.9,2.37l-0.14.14a0.58,0.58,0,0,1-.82,0l-3.56-3.56a0.58,0.58,0,0,1,0-.82A3.24,3.24,0,0,1,268.47,914.32ZM263.29,920c1.48,1.48.73,4.74-1.64,7.11s-5.63,3.12-7.11,1.64-0.73-4.74,1.64-7.11S261.81,918.56,263.29,920Zm-21.88,21.88c-1.55-1.55-.59-6,3.28-9.84a13.86,13.86,0,0,1,6.18-3.77,5.52,5.52,0,0,0,4.16,4.16,13.86,13.86,0,0,1-3.77,6.18C247.39,942.51,243,943.47,241.41,941.92Zm11.41,6.1a27.89,27.89,0,0,1,1.32-7.93,17.83,17.83,0,0,0,3.23-4.93v8.31Zm8.43,4.69a4.86,4.86,0,0,1-6.86,0l-0.12-.12a5,5,0,0,1-.73-0.93L260,945.2a1.55,1.55,0,0,0,.45-1.09V931.74a12,12,0,0,0,3.3-2.32,1.71,1.71,0,0,1,.17.74v16.26a8.69,8.69,0,0,1-2.56,6.18Z"/><path class="cls-2" d="M178.3,853.16a1.55,1.55,0,0,0-1.24-.62h-6.68l7.26-3.23a1.54,1.54,0,0,0,.47-0.32l7.73-7.73a1.55,1.55,0,1,0-2.19-2.19l-7.53,7.53-9.19,4.08,6.76-11.27a1.55,1.55,0,0,0,.14-1.29l-3.09-9.28a1.55,1.55,0,0,0-2.93,1l2.87,8.61-5.79,9.66a6.87,6.87,0,0,0-2.43-2.57l3.46-5a1.55,1.55,0,0,0,.18-1.42L164.54,835a1.55,1.55,0,0,0-2.9,1.09l1.26,3.36-3,4.27-2.87-3.82,1.29-3.87a1.55,1.55,0,0,0-2.93-1l-1.55,4.64a1.55,1.55,0,0,0,.23,1.42l3.29,4.38a6.75,6.75,0,0,0-2.4,2.44l-5.69-9.48,2.87-8.61a1.55,1.55,0,0,0-2.93-1l-3.09,9.28a1.55,1.55,0,0,0,.14,1.29l6.76,11.27-9.19-4.08-7.53-7.53a1.55,1.55,0,1,0-2.19,2.19l7.73,7.73a1.55,1.55,0,0,0,.47.32l7.26,3.23H143a1.55,1.55,0,0,0-1.24.62l-9.26,12.38a1.55,1.55,0,0,0,2.48,1.85l8.79-11.76h7.35l-5.77,3.3a1.55,1.55,0,0,0-.72.92l-6.19,21.66a1.55,1.55,0,0,0,1.06,1.91,1.55,1.55,0,0,0,1.91-1.06l6-21.05,6.94-4a8.33,8.33,0,0,0,1.56,2.59c-3.18,2-5.38,6.24-5.38,11.18,0,6.82,4.21,12.38,9.38,12.38s9.38-5.55,9.38-12.37c0-4.94-2.21-9.19-5.38-11.18a8.36,8.36,0,0,0,1.59-2.66l7.12,4.12,6,21a1.55,1.55,0,0,0,3-.85l-6.19-21.57a1.55,1.55,0,0,0-.71-0.91l-5.84-3.38h7.43l8.77,11.75a1.55,1.55,0,1,0,2.48-1.85Zm-18.4-5.26c1.51,0,3.2,2.22,3.2,5.41s-1.68,5.41-3.2,5.41-3.2-2.22-3.2-5.41S158.39,847.9,159.9,847.9Zm6.29,23.2c0,5-2.88,9.28-6.29,9.28s-6.29-4.25-6.29-9.28,2.88-9.28,6.29-9.28S166.19,866.07,166.19,871.1Z"/><g class="cls-3"><path class="cls-4" d="M157.94,935l6.39,6.39-6.39,6.39-6.39-6.39,6.39-6.39m0-3.11-9.5,9.5,9.5,9.5,9.5-9.5-9.5-9.5h0Z"/></g><path class="cls-2" d="M498.3,959.83a1.55,1.55,0,0,0-1.24-.62h-6.68l7.26-3.23a1.54,1.54,0,0,0,.47-0.32l7.73-7.73a1.55,1.55,0,1,0-2.19-2.19l-7.53,7.53-9.19,4.08,6.76-11.27a1.55,1.55,0,0,0,.14-1.29l-3.09-9.28a1.55,1.55,0,0,0-2.93,1l2.87,8.61-5.79,9.66a6.87,6.87,0,0,0-2.43-2.57l3.46-5a1.55,1.55,0,0,0,.18-1.42l-1.55-4.12a1.55,1.55,0,0,0-2.9,1.09l1.26,3.36-3,4.27-2.87-3.82,1.29-3.87a1.55,1.55,0,0,0-2.93-1l-1.55,4.64a1.55,1.55,0,0,0,.23,1.42l3.29,4.38a6.75,6.75,0,0,0-2.4,2.44l-5.69-9.48,2.87-8.61a1.55,1.55,0,0,0-2.93-1l-3.09,9.28a1.55,1.55,0,0,0,.14,1.29l6.76,11.27-9.19-4.08-7.53-7.53a1.55,1.55,0,1,0-2.19,2.19l7.73,7.73a1.55,1.55,0,0,0,.47.32l7.26,3.23H463a1.55,1.55,0,0,0-1.24.62l-9.26,12.38a1.55,1.55,0,0,0,2.48,1.85l8.79-11.76h7.35l-5.77,3.3a1.55,1.55,0,0,0-.72.92l-6.19,21.66a1.55,1.55,0,0,0,1.06,1.91,1.55,1.55,0,0,0,1.91-1.06l6-21.05,6.94-4a8.33,8.33,0,0,0,1.56,2.59c-3.18,2-5.38,6.24-5.38,11.18,0,6.82,4.21,12.38,9.38,12.38s9.38-5.55,9.38-12.37c0-4.94-2.21-9.19-5.38-11.18a8.36,8.36,0,0,0,1.59-2.66l7.12,4.12,6,21a1.55,1.55,0,0,0,3-.85l-6.19-21.57a1.55,1.55,0,0,0-.71-0.91l-5.84-3.38h7.43l8.77,11.75a1.55,1.55,0,1,0,2.48-1.85Zm-18.4-5.26c1.51,0,3.2,2.22,3.2,5.41s-1.68,5.41-3.2,5.41-3.2-2.22-3.2-5.41S478.39,954.57,479.9,954.57Zm6.29,23.2c0,5-2.88,9.28-6.29,9.28s-6.29-4.25-6.29-9.28,2.88-9.28,6.29-9.28S486.19,972.74,486.19,977.77Z"/><path class="cls-2" d="M187.84,694a6.2,6.2,0,0,1-.32,2l-3.09,9.28a6.18,6.18,0,0,1-5.2,4.19,9.27,9.27,0,1,1-14.29,11.79l-3.4-4.53v3.61a1.55,1.55,0,0,1-3.09,0v-3.61l-3.4,4.53a9.28,9.28,0,1,1-14.29-11.79,6.18,6.18,0,0,1-5.2-4.19l-3.09-9.28a6.19,6.19,0,0,1,5.87-8.15c6.18,0,13.36,3.19,18.07,7.88a4.65,4.65,0,0,1,.38-0.4l-2.94-11.75a1.55,1.55,0,0,1,3-.75l2.8,11.22,0.33,0,0.34,0,2.8-11.22a1.55,1.55,0,0,1,3,.75l-2.94,11.75a4.65,4.65,0,0,1,.38.4c4.72-4.69,11.89-7.88,18.07-7.88A6.19,6.19,0,0,1,187.84,694Zm-46.41,12.38h15.39a21.34,21.34,0,0,1-1.46-7.34c-4-4.69-11.08-8.13-17-8.13a3.1,3.1,0,0,0-2.94,4.07l3.09,9.28A3.09,3.09,0,0,0,141.44,706.33Zm17,4.64a1.55,1.55,0,0,0-1.55-1.55h-9.28a6.19,6.19,0,1,0,5,9.9l5.57-7.42A1.53,1.53,0,0,0,158.45,711Zm3.09-12.37a1.55,1.55,0,0,0-3.09,0,18.21,18.21,0,0,0,1.55,7.32A18.21,18.21,0,0,0,161.55,698.59Zm17,17a6.19,6.19,0,0,0-6.19-6.19h-9.28a1.55,1.55,0,0,0-1.24,2.47l5.57,7.42A6.19,6.19,0,0,0,178.56,715.61ZM184.75,694a3.1,3.1,0,0,0-3.09-3.09c-5.94,0-13.05,3.44-17,8.13a21.31,21.31,0,0,1-1.46,7.34h15.39a3.09,3.09,0,0,0,2.94-2.11l3.09-9.28A3.1,3.1,0,0,0,184.75,694Z"/><path class="cls-2" d="M66,592.33l-1.51,1.51L58.83,592a1.55,1.55,0,0,0-1.92.88l-2.84,6.89H53.71l-1.39-1.39,1-6.89a1.55,1.55,0,0,0-.44-1.31l-2.73-2.73,0.44-3.06a1.55,1.55,0,0,0-3.06-.44L47,587.73A1.55,1.55,0,0,0,47.4,589l2.73,2.73-0.68,4.76a4.66,4.66,0,0,0-3,.36l-0.18-.2a4.62,4.62,0,0,0-3.51-1.35A9.28,9.28,0,0,1,43,582.48a1.55,1.55,0,1,0-2.19-2.19,12.39,12.39,0,0,0-1,16.34l-0.08.07-0.07.08a12.39,12.39,0,0,0-16.34,1A1.55,1.55,0,0,0,25.52,600a9.28,9.28,0,0,1,12.87-.23,4.62,4.62,0,0,0,1.35,3.51l0.2,0.18a4.66,4.66,0,0,0-.36,3l-4.76.68-2.73-2.73a1.55,1.55,0,0,0-1.31-.44l-3.83.55a1.55,1.55,0,0,0,.44,3.06l3.06-.44,2.73,2.73a1.55,1.55,0,0,0,1.31.44l6.89-1,1.39,1.39c0,0.12,0,.24,0,0.36l-6.89,2.84a1.55,1.55,0,0,0-.88,1.92l1.89,5.66L35.37,623a1.55,1.55,0,0,0,2.19,2.19L39.74,623a1.55,1.55,0,0,0,.37-1.58l-1.73-5.19,5.48-2.26,0.25,0.28,1.09,1.09c0.66,0.66,1.36,1.33,2.08,2l-1.36,4.08a1.55,1.55,0,0,0,.37,1.58l7,7-1.89,5.66a1.55,1.55,0,1,0,2.93,1L56.52,630a1.55,1.55,0,0,0-.37-1.58l-7-7,0.63-1.9c7.85,6.76,17.65,12.89,20.57,10a2.5,2.5,0,0,0,.71-1.48,2.5,2.5,0,0,0,1.48-.71c2.91-2.91-3.22-12.71-10-20.57l1.9-.63,7,7a1.55,1.55,0,0,0,1.4.42l5.47-1.09a1.55,1.55,0,0,0-.61-3l-4.66.93L66,603.26a1.55,1.55,0,0,0-1.58-.37l-4.08,1.36c-0.67-.72-1.34-1.42-2-2.08l-1.09-1.09L57,600.82l2.26-5.48,5.19,1.73A1.55,1.55,0,0,0,66,596.7l2.19-2.19A1.55,1.55,0,0,0,66,592.33Zm-24.06,6.56a1.55,1.55,0,0,1,2.19,0l-2.19,2.19A1.55,1.55,0,0,1,41.93,598.89ZM43,606.55a1.55,1.55,0,0,1,0-2.19L47.4,600a1.55,1.55,0,0,1,2.19,0l1.09,1.09-6.56,6.56Zm13.13-2.19c9.43,9.43,13.89,18.16,14.1,20.57l-0.46-.13a1.55,1.55,0,0,0-2,2,4.37,4.37,0,0,1,.13.46c-2.41-.21-11.14-4.68-20.57-14.1L46.31,612a1.55,1.55,0,0,1,0-2.19l6.56-6.56a1.55,1.55,0,0,1,2.19,0Z"/><path class="cls-2" d="M267,610.15a4.81,4.81,0,0,0-.44-2H272a1.54,1.54,0,0,0,1.09-.45l5-5h8.11a1.55,1.55,0,1,0,0-3.09h-8.75a1.54,1.54,0,0,0-1.09.45l-5,5h-4.79a8.67,8.67,0,0,0,.53-2.87,3.67,3.67,0,0,0,3.66-.92l0.14-.14a6.15,6.15,0,0,0,.95-7.51l1.24-1.24a1.55,1.55,0,0,0-2.19-2.19l-1.24,1.24a6.33,6.33,0,0,0-7.65,1.09,3.67,3.67,0,0,0-.92,3.67,8.65,8.65,0,0,0-2.87.53v-4.79l5-5a1.55,1.55,0,0,0,.45-1.09v-8.75a1.55,1.55,0,0,0-3.09,0v8.11l-5,5a1.55,1.55,0,0,0-.45,1.09v5.45a4.79,4.79,0,0,0-2-.44H236.92a11.76,11.76,0,0,0-8.37,3.47l-0.11.11a8,8,0,0,0,0,11.24l0.12,0.12a8.24,8.24,0,0,0,.89.76l-1.16,1.16a1.55,1.55,0,0,0,2.19,2.19l2-2a8.14,8.14,0,0,0,1.86.22h0.41a31.4,31.4,0,0,0,4.39-.31l-7.51,7.51a1.55,1.55,0,0,0,2.19,2.19l3.9-3.9a5.65,5.65,0,0,0,6.56,6.56l-3.9,3.9a1.55,1.55,0,1,0,2.19,2.19l7.51-7.51a31.46,31.46,0,0,0-.31,4.39V629a8.14,8.14,0,0,0,.22,1.86l-2,2a1.55,1.55,0,1,0,2.19,2.19l1.16-1.16a8.23,8.23,0,0,0,.76.89l0.12,0.12a8,8,0,0,0,11.24,0l0.11-.11a11.76,11.76,0,0,0,3.47-8.37V610.15Zm-23.78-1a27.89,27.89,0,0,1-7.93,1.32l4.55-4.55h8.31A17.83,17.83,0,0,0,243.25,609.19Zm-4-6.32a1.55,1.55,0,0,0-1.09.45l-6.46,6.46a5,5,0,0,1-.93-0.73l-0.12-.12a4.86,4.86,0,0,1,0-6.86l0.11-.11a8.69,8.69,0,0,1,6.18-2.56h16.26a1.71,1.71,0,0,1,.74.17,12,12,0,0,0-2.32,3.3H239.23Zm29.25-8.55a3.21,3.21,0,0,1,.29.26,3.06,3.06,0,0,1,.9,2,3.1,3.1,0,0,1-.9,2.37l-0.14.14a0.58,0.58,0,0,1-.82,0l-3.56-3.56a0.58,0.58,0,0,1,0-.82A3.24,3.24,0,0,1,268.47,594.32ZM263.29,600c1.48,1.48.73,4.74-1.64,7.11s-5.63,3.12-7.11,1.64-0.73-4.74,1.64-7.11S261.81,598.56,263.29,600Zm-21.88,21.88c-1.55-1.55-.59-6,3.28-9.84a13.86,13.86,0,0,1,6.18-3.77,5.52,5.52,0,0,0,4.16,4.16,13.86,13.86,0,0,1-3.77,6.18C247.39,622.51,243,623.47,241.41,621.92Zm11.41,6.1a27.89,27.89,0,0,1,1.32-7.93,17.83,17.83,0,0,0,3.23-4.93v8.31Zm8.43,4.69a4.86,4.86,0,0,1-6.86,0l-0.12-.12a5,5,0,0,1-.73-0.93L260,625.2a1.55,1.55,0,0,0,.45-1.09V611.74a12,12,0,0,0,3.3-2.32,1.71,1.71,0,0,1,.17.74v16.26a8.69,8.69,0,0,1-2.56,6.18Z"/><path class="cls-2" d="M242.49,810.54L244,809l5.66,1.89a1.55,1.55,0,0,0,1.92-.88l3.08-7.47a4.61,4.61,0,0,0,1,1.41l-1,6.89a1.55,1.55,0,0,0,.44,1.31l2.73,2.73L257.37,818a1.55,1.55,0,0,0,3.06.44l0.55-3.83a1.55,1.55,0,0,0-.44-1.31l-2.73-2.73,0.75-5.22a4.67,4.67,0,0,0,.74,0,6.15,6.15,0,0,0,1.8,4.13,9.22,9.22,0,0,0,4.19,2.23,7.1,7.1,0,0,1,1,5.3l-0.18.92a1.55,1.55,0,0,0,.19,1.1l3.28,5.47a1.55,1.55,0,0,0,2.65-1.59l-3-5,0.07-.33a10.19,10.19,0,0,0-.56-5.85,4.45,4.45,0,0,0,3.33-3.33A10.2,10.2,0,0,0,278,809l0.33-.07,5,3a1.55,1.55,0,0,0,1.59-2.65l-5.47-3.28a1.55,1.55,0,0,0-1.1-.19l-0.92.18a7.1,7.1,0,0,1-5.3-1,9.22,9.22,0,0,0-2.23-4.19,6.16,6.16,0,0,0-4.13-1.8,4.67,4.67,0,0,0,0-.74l5.22-.75,2.73,2.73a1.55,1.55,0,0,0,1.31.44l3.83-.55a1.55,1.55,0,1,0-.44-3.06l-3.06.44-2.73-2.73a1.55,1.55,0,0,0-1.31-.44l-6.89,1a4.61,4.61,0,0,0-1.41-1l7.47-3.08a1.55,1.55,0,0,0,.88-1.92l-1.89-5.66,1.51-1.51a1.55,1.55,0,0,0-2.19-2.19l-2.19,2.19a1.55,1.55,0,0,0-.37,1.58l1.73,5.19-5.68,2.34,1.42-4.25a1.55,1.55,0,0,0-.37-1.58l-7-7,1.89-5.66a1.55,1.55,0,1,0-2.93-1l-2.19,6.56a1.54,1.54,0,0,0,.37,1.58l7,7-1.13,3.38a4.64,4.64,0,0,0-3-.76,6.15,6.15,0,0,0-1.8-4.13l-1.09-1.09c-4-4-11.23-8.45-14.22-5.47s1.5,10.25,5.47,14.22l1.09,1.09a6.16,6.16,0,0,0,4.13,1.8,4.64,4.64,0,0,0,.76,3L247.29,800l-7-7a1.55,1.55,0,0,0-1.4-.42l-5.47,1.09a1.55,1.55,0,0,0,.61,3l4.66-.93,7.07,7.07a1.55,1.55,0,0,0,1.58.37l4.25-1.42-2.34,5.68-5.19-1.73a1.55,1.55,0,0,0-1.58.37l-2.19,2.19A1.55,1.55,0,1,0,242.49,810.54Zm4.38-19.69c-4.35-4.35-6.08-9.15-5.47-9.84s5.49,1.12,9.84,5.47l1.09,1.09a3.09,3.09,0,1,1-4.38,4.38Zm6.56,4.38,2.19-2.19a1.55,1.55,0,1,1,2.19,2.19l-2.19,2.19A1.55,1.55,0,1,1,253.43,795.23Zm4.38,4.38,2.19-2.19a1.55,1.55,0,1,1,2.19,2.19L260,801.79A1.55,1.55,0,0,1,257.81,799.6Zm5.47,3.28a3.1,3.1,0,0,1,4.38,0c1.36,1.36,2.15,4.41,1.09,5.47s-4.11.26-5.47-1.09A3.1,3.1,0,0,1,263.27,802.88Z"/><path class="cls-2" d="M48.17,779.46L49.68,781l-1.89,5.66a1.55,1.55,0,0,0,.88,1.92l5.17,2.13a8.68,8.68,0,0,0-.34,1l-1.23,1.23-5-.71a1.55,1.55,0,0,0-1.31.44l-2.73,2.73-3.06-.44a1.55,1.55,0,0,0-.44,3.06l3.83,0.55a1.55,1.55,0,0,0,1.31-.44l2.73-2.73,2.4,0.34a7.76,7.76,0,0,0-.1,6.77,4.6,4.6,0,0,0-1.76,1.1L46,801.34a1.55,1.55,0,0,0-1.89-.23l-5.47,3.28A1.55,1.55,0,0,0,40.21,807l0.33-.2,4.1-2.46,2.18,2.18a4.62,4.62,0,0,0,4.88,4.88l2.18,2.18-2.46,4.1-0.2.33a1.55,1.55,0,0,0,2.65,1.59l3.28-5.47a1.55,1.55,0,0,0-.23-1.89l-2.19-2.19a4.6,4.6,0,0,0,1.1-1.76,7.76,7.76,0,0,0,6.77-.1l0.34,2.4-2.73,2.73a1.55,1.55,0,0,0-.44,1.31l0.55,3.83a1.55,1.55,0,1,0,3.06-.44L62.94,815l2.73-2.73a1.55,1.55,0,0,0,.44-1.31l-0.71-5,1.23-1.23a8.62,8.62,0,0,0,1-.34l2.13,5.17a1.55,1.55,0,0,0,1.92.88l5.66-1.89,1.51,1.51A1.55,1.55,0,1,0,81,807.9l-2.19-2.19a1.55,1.55,0,0,0-1.58-.37L72,807.07l-1.75-4.26a42.91,42.91,0,0,0,4-3.54l4,1.34a1.55,1.55,0,0,0,1.58-.37l7-7,5.66,1.89a1.55,1.55,0,1,0,1-2.93L86.94,790a1.54,1.54,0,0,0-1.58.37l-7,7-1.66-.55a20.73,20.73,0,0,0,5-9.38c4.42-4.57,5.54-10.43,2.52-13.45s-8.88-1.9-13.45,2.52a20.71,20.71,0,0,0-9.38,5l-0.55-1.66,7-7a1.55,1.55,0,0,0,.42-1.4L67.19,766a1.55,1.55,0,0,0-3,.61l0.93,4.66L58,778.37a1.55,1.55,0,0,0-.37,1.58L59,784a42.91,42.91,0,0,0-3.54,4l-4.26-1.75L52.92,781a1.55,1.55,0,0,0-.37-1.58l-2.19-2.19A1.55,1.55,0,0,0,48.17,779.46Zm2.19,28.44a1.55,1.55,0,1,1,2.19,0A1.55,1.55,0,0,1,50.36,807.9Zm5.47-3.28-2.19-2.19a4.65,4.65,0,0,1,0-6.56A7.72,7.72,0,0,0,60.22,798a7.72,7.72,0,0,0,2.17,6.58A4.65,4.65,0,0,1,55.83,804.62Zm18-9.3c-5.06,5.06-7,6.66-9.68,6.68a4.65,4.65,0,0,1,.38-6.13l14-14C79.83,785,78.37,790.83,73.87,795.32Zm8.2-19.14c1.07,1.07,1,3.41-.23,5.91a7.06,7.06,0,0,0-5.68-5.68C78.67,775.13,81,775.11,82.08,776.18Zm-5.71,3.52-14,14a4.65,4.65,0,0,1-6.13.38c0-2.63,1.62-4.62,6.68-9.68C67.43,779.89,73.22,778.43,76.37,779.7Z"/><path class="cls-2" d="M178.3,533.16a1.55,1.55,0,0,0-1.24-.62h-6.68l7.26-3.23a1.54,1.54,0,0,0,.47-0.32l7.73-7.73a1.55,1.55,0,1,0-2.19-2.19l-7.53,7.53-9.19,4.08,6.76-11.27a1.55,1.55,0,0,0,.14-1.29l-3.09-9.28a1.55,1.55,0,0,0-2.93,1l2.87,8.61-5.79,9.66a6.87,6.87,0,0,0-2.43-2.57l3.46-5a1.55,1.55,0,0,0,.18-1.42L164.54,515a1.55,1.55,0,0,0-2.9,1.09l1.26,3.36-3,4.27-2.87-3.82,1.29-3.87a1.55,1.55,0,0,0-2.93-1l-1.55,4.64a1.55,1.55,0,0,0,.23,1.42l3.29,4.38a6.75,6.75,0,0,0-2.4,2.44l-5.69-9.48,2.87-8.61a1.55,1.55,0,0,0-2.93-1l-3.09,9.28a1.55,1.55,0,0,0,.14,1.29l6.76,11.27-9.19-4.08-7.53-7.53a1.55,1.55,0,1,0-2.19,2.19l7.73,7.73a1.55,1.55,0,0,0,.47.32l7.26,3.23H143a1.55,1.55,0,0,0-1.24.62l-9.26,12.38a1.55,1.55,0,0,0,2.48,1.85l8.79-11.76h7.35l-5.77,3.3a1.55,1.55,0,0,0-.72.92l-6.19,21.66a1.55,1.55,0,0,0,1.06,1.91,1.55,1.55,0,0,0,1.91-1.06l6-21.05,6.94-4a8.33,8.33,0,0,0,1.56,2.59c-3.18,2-5.38,6.24-5.38,11.18,0,6.82,4.21,12.38,9.38,12.38s9.38-5.55,9.38-12.37c0-4.94-2.21-9.19-5.38-11.18a8.36,8.36,0,0,0,1.59-2.66l7.12,4.12,6,21a1.55,1.55,0,0,0,3-.85l-6.19-21.57a1.55,1.55,0,0,0-.71-0.91l-5.84-3.38h7.43l8.77,11.75a1.55,1.55,0,1,0,2.48-1.85Zm-18.4-5.26c1.51,0,3.2,2.22,3.2,5.41s-1.68,5.41-3.2,5.41-3.2-2.22-3.2-5.41S158.39,527.9,159.9,527.9Zm6.29,23.2c0,5-2.88,9.28-6.29,9.28s-6.29-4.25-6.29-9.28,2.88-9.28,6.29-9.28S166.19,546.07,166.19,551.1Z"/><g class="cls-3"><path class="cls-4" d="M59.5,697.59A5.45,5.45,0,1,1,54,703a5.46,5.46,0,0,1,5.45-5.45m0-2.2A7.65,7.65,0,1,0,67.15,703a7.65,7.65,0,0,0-7.65-7.65h0Z"/></g><g class="cls-3"><path class="cls-4" d="M157.94,615l6.39,6.39-6.39,6.39-6.39-6.39,6.39-6.39m0-3.11-9.5,9.5,9.5,9.5,9.5-9.5-9.5-9.5h0Z"/></g><g class="cls-3"><path class="cls-4" d="M157.94,783l5.5,8.68h-11l5.5-8.68m0-4.11-9.5,15h19l-9.5-15h0Z"/></g><g class="cls-3"><path class="cls-4" d="M263.45,699.76v9h-9v-9h9m2.2-2.2H252.22V711h13.43V697.56h0Z"/></g><path class="cls-2" d="M507.84,800.62a6.2,6.2,0,0,1-.32,2l-3.09,9.28a6.18,6.18,0,0,1-5.2,4.19,9.27,9.27,0,1,1-14.29,11.79l-3.4-4.53v3.61a1.55,1.55,0,0,1-3.09,0v-3.61l-3.4,4.53A9.28,9.28,0,1,1,460.76,816a6.18,6.18,0,0,1-5.2-4.19l-3.09-9.28a6.19,6.19,0,0,1,5.87-8.15c6.18,0,13.36,3.19,18.07,7.88a4.65,4.65,0,0,1,.38-0.4l-2.94-11.75a1.55,1.55,0,0,1,3-.75l2.8,11.22,0.33,0,0.34,0,2.8-11.22a1.55,1.55,0,0,1,3,.75l-2.94,11.75a4.65,4.65,0,0,1,.38.4c4.72-4.69,11.89-7.88,18.07-7.88A6.19,6.19,0,0,1,507.84,800.62ZM461.44,813h15.39a21.34,21.34,0,0,1-1.46-7.34c-4-4.69-11.08-8.13-17-8.13a3.1,3.1,0,0,0-2.94,4.07l3.09,9.28A3.09,3.09,0,0,0,461.44,813Zm17,4.64a1.55,1.55,0,0,0-1.55-1.55h-9.28a6.19,6.19,0,1,0,5,9.9l5.57-7.42A1.53,1.53,0,0,0,478.45,817.63Zm3.09-12.37a1.55,1.55,0,0,0-3.09,0,18.21,18.21,0,0,0,1.55,7.32A18.21,18.21,0,0,0,481.55,805.26Zm17,17a6.19,6.19,0,0,0-6.19-6.19h-9.28a1.55,1.55,0,0,0-1.24,2.47l5.57,7.42A6.19,6.19,0,0,0,498.56,822.28Zm6.19-21.66a3.1,3.1,0,0,0-3.09-3.09c-5.94,0-13.05,3.44-17,8.13a21.31,21.31,0,0,1-1.46,7.34h15.39a3.09,3.09,0,0,0,2.94-2.11l3.09-9.28A3.1,3.1,0,0,0,504.75,800.62Z"/><path class="cls-2" d="M386,699l-1.51,1.51-5.66-1.89a1.55,1.55,0,0,0-1.92.88l-2.84,6.89h-0.36L372.32,705l1-6.89a1.55,1.55,0,0,0-.44-1.31l-2.73-2.73,0.44-3.06a1.55,1.55,0,1,0-3.06-.44L367,694.4a1.55,1.55,0,0,0,.44,1.31l2.73,2.73-0.68,4.76a4.66,4.66,0,0,0-3,.36l-0.18-.2A4.62,4.62,0,0,0,362.8,702a9.28,9.28,0,0,1,.23-12.87,1.55,1.55,0,1,0-2.19-2.19,12.39,12.39,0,0,0-1,16.34l-0.08.07-0.07.08a12.39,12.39,0,0,0-16.34,1,1.55,1.55,0,0,0,2.19,2.19,9.28,9.28,0,0,1,12.87-.23,4.62,4.62,0,0,0,1.35,3.51l0.2,0.18a4.66,4.66,0,0,0-.36,3l-4.76.68L352.09,711a1.55,1.55,0,0,0-1.31-.44l-3.83.55a1.55,1.55,0,1,0,.44,3.06l3.06-.44,2.73,2.73a1.55,1.55,0,0,0,1.31.44l6.89-1,1.39,1.39c0,0.12,0,.24,0,0.36l-6.89,2.84a1.55,1.55,0,0,0-.88,1.92l1.89,5.66-1.51,1.51a1.55,1.55,0,0,0,2.19,2.19l2.19-2.19a1.55,1.55,0,0,0,.37-1.58l-1.73-5.19,5.48-2.26,0.25,0.28,1.09,1.09c0.66,0.66,1.36,1.33,2.08,2L365.93,728a1.55,1.55,0,0,0,.37,1.58l7,7-1.89,5.66a1.55,1.55,0,1,0,2.93,1l2.19-6.56a1.55,1.55,0,0,0-.37-1.58l-7-7,0.63-1.9c7.85,6.76,17.65,12.89,20.57,10a2.47,2.47,0,0,1,2.19-2.19c2.91-2.91-3.22-12.71-10-20.57l1.9-.63,7,7a1.55,1.55,0,0,0,1.4.42l5.47-1.09a1.55,1.55,0,0,0-.61-3l-4.66.93L386,709.93a1.55,1.55,0,0,0-1.58-.37l-4.08,1.36c-0.67-.72-1.34-1.42-2-2.08l-1.09-1.09-0.28-.25,2.26-5.48,5.19,1.73a1.55,1.55,0,0,0,1.58-.37l2.19-2.19A1.55,1.55,0,0,0,386,699Zm-24.06,6.56a1.55,1.55,0,0,1,2.19,0l-2.19,2.19A1.55,1.55,0,0,1,361.93,705.56Zm1.09,7.66a1.55,1.55,0,0,1,0-2.19l4.38-4.38a1.55,1.55,0,0,1,2.19,0l1.09,1.09-6.56,6.56ZM376.15,711c9.43,9.43,13.89,18.16,14.1,20.57l-0.46-.13a1.55,1.55,0,0,0-2,2,4.37,4.37,0,0,1,.13.46c-2.41-.21-11.14-4.68-20.57-14.1l-1.09-1.09a1.55,1.55,0,0,1,0-2.19l6.56-6.56a1.55,1.55,0,0,1,2.19,0Z"/><path class="cls-2" d="M587,716.82a4.81,4.81,0,0,0-.44-2H592a1.54,1.54,0,0,0,1.09-.45l5-5h8.11a1.55,1.55,0,1,0,0-3.09h-8.75a1.54,1.54,0,0,0-1.09.45l-5,5h-4.79a8.67,8.67,0,0,0,.53-2.87,3.67,3.67,0,0,0,3.66-.92l0.14-.14a6.15,6.15,0,0,0,.95-7.51l1.24-1.24a1.55,1.55,0,0,0-2.19-2.19l-1.24,1.24a6.33,6.33,0,0,0-7.65,1.09,3.67,3.67,0,0,0-.92,3.67,8.65,8.65,0,0,0-2.87.53V698.6l5-5a1.55,1.55,0,0,0,.45-1.09v-8.75a1.55,1.55,0,0,0-3.09,0v8.11l-5,5a1.55,1.55,0,0,0-.45,1.09v5.45a4.79,4.79,0,0,0-2-.44H556.92a11.76,11.76,0,0,0-8.37,3.47l-0.11.11a8,8,0,0,0,0,11.24l0.12,0.12a8.24,8.24,0,0,0,.89.76l-1.16,1.16a1.55,1.55,0,0,0,2.19,2.19l2-2a8.14,8.14,0,0,0,1.86.22h0.41a31.4,31.4,0,0,0,4.39-.31l-7.51,7.51a1.55,1.55,0,0,0,2.19,2.19l3.9-3.9a5.65,5.65,0,0,0,6.56,6.56l-3.9,3.9a1.55,1.55,0,0,0,2.19,2.19l7.51-7.51a31.46,31.46,0,0,0-.31,4.39v0.41a8.14,8.14,0,0,0,.22,1.86l-2,2a1.55,1.55,0,0,0,2.19,2.19l1.16-1.16a8.23,8.23,0,0,0,.76.89l0.12,0.12a8,8,0,0,0,11.24,0l0.11-.11a11.76,11.76,0,0,0,3.47-8.37V716.82Zm-23.78-1a27.89,27.89,0,0,1-7.93,1.32l4.55-4.55h8.31A17.83,17.83,0,0,0,563.25,715.86Zm-4-6.32a1.55,1.55,0,0,0-1.09.45l-6.46,6.46a5,5,0,0,1-.93-0.73l-0.12-.12a4.86,4.86,0,0,1,0-6.86l0.11-.11a8.69,8.69,0,0,1,6.18-2.56h16.26a1.71,1.71,0,0,1,.74.17,12,12,0,0,0-2.32,3.3H559.23ZM588.47,701a3.21,3.21,0,0,1,.29.26,3.06,3.06,0,0,1,.9,2,3.1,3.1,0,0,1-.9,2.37l-0.14.14a0.58,0.58,0,0,1-.82,0l-3.56-3.56a0.58,0.58,0,0,1,0-.82A3.24,3.24,0,0,1,588.47,701Zm-5.18,5.72c1.48,1.48.73,4.74-1.64,7.11s-5.63,3.12-7.11,1.64-0.73-4.74,1.64-7.11S581.81,705.23,583.29,706.71Zm-21.88,21.88c-1.55-1.55-.59-6,3.28-9.84a13.86,13.86,0,0,1,6.18-3.77,5.52,5.52,0,0,0,4.16,4.16,13.86,13.86,0,0,1-3.77,6.18C567.39,729.17,563,730.14,561.41,728.59Zm11.41,6.1a27.89,27.89,0,0,1,1.32-7.93,17.83,17.83,0,0,0,3.23-4.93v8.31Zm8.43,4.69a4.86,4.86,0,0,1-6.86,0l-0.12-.12a5,5,0,0,1-.73-0.93l6.46-6.46a1.55,1.55,0,0,0,.45-1.09V718.4a12,12,0,0,0,3.3-2.32,1.71,1.71,0,0,1,.17.74v16.26a8.69,8.69,0,0,1-2.56,6.18Z"/><path class="cls-2" d="M562.49,917.21l1.51-1.51,5.66,1.89a1.55,1.55,0,0,0,1.92-.88l3.08-7.47a4.61,4.61,0,0,0,1,1.41l-1,6.89a1.55,1.55,0,0,0,.44,1.31l2.73,2.73-0.44,3.06a1.55,1.55,0,1,0,3.06.44l0.55-3.83a1.55,1.55,0,0,0-.44-1.31l-2.73-2.73,0.75-5.22a4.67,4.67,0,0,0,.74,0,6.15,6.15,0,0,0,1.8,4.13,9.22,9.22,0,0,0,4.19,2.23,7.1,7.1,0,0,1,1,5.3l-0.18.92a1.55,1.55,0,0,0,.19,1.1l3.28,5.47a1.55,1.55,0,0,0,2.65-1.59l-3-5,0.07-.33a10.19,10.19,0,0,0-.56-5.85,4.45,4.45,0,0,0,3.33-3.33,10.2,10.2,0,0,0,5.85.56l0.33-.07,5,3a1.55,1.55,0,0,0,1.59-2.65l-5.47-3.28a1.55,1.55,0,0,0-1.1-.19l-0.92.18a7.1,7.1,0,0,1-5.3-1,9.22,9.22,0,0,0-2.23-4.19,6.16,6.16,0,0,0-4.13-1.8,4.67,4.67,0,0,0,0-.74l5.22-.75,2.73,2.73a1.55,1.55,0,0,0,1.31.44l3.83-.55a1.55,1.55,0,1,0-.44-3.06l-3.06.44-2.73-2.73a1.55,1.55,0,0,0-1.31-.44l-6.89,1a4.61,4.61,0,0,0-1.41-1l7.47-3.08a1.55,1.55,0,0,0,.88-1.92l-1.89-5.66,1.51-1.51a1.55,1.55,0,0,0-2.19-2.19l-2.19,2.19a1.55,1.55,0,0,0-.37,1.58l1.73,5.19-5.68,2.34,1.42-4.25a1.55,1.55,0,0,0-.37-1.58l-7-7,1.89-5.66a1.55,1.55,0,1,0-2.93-1L573.06,885a1.54,1.54,0,0,0,.37,1.58l7,7-1.13,3.38a4.64,4.64,0,0,0-3-.76,6.15,6.15,0,0,0-1.8-4.13L573.43,891c-4-4-11.23-8.45-14.22-5.47s1.5,10.25,5.47,14.22l1.09,1.09a6.16,6.16,0,0,0,4.13,1.8,4.64,4.64,0,0,0,.76,3l-3.38,1.13-7-7a1.55,1.55,0,0,0-1.4-.42l-5.47,1.09a1.55,1.55,0,0,0,.61,3l4.66-.93,7.07,7.07a1.55,1.55,0,0,0,1.58.37l4.25-1.42-2.34,5.68-5.19-1.73a1.55,1.55,0,0,0-1.58.37L560.31,915A1.55,1.55,0,0,0,562.49,917.21Zm4.38-19.69c-4.35-4.35-6.08-9.15-5.47-9.84s5.49,1.12,9.84,5.47l1.09,1.09a3.09,3.09,0,0,1-4.38,4.38Zm6.56,4.38,2.19-2.19a1.55,1.55,0,0,1,2.19,2.19l-2.19,2.19A1.55,1.55,0,0,1,573.43,901.89Zm4.38,4.38,2.19-2.19a1.55,1.55,0,0,1,2.19,2.19L580,908.46A1.55,1.55,0,0,1,577.81,906.27Zm5.47,3.28a3.1,3.1,0,0,1,4.38,0c1.36,1.36,2.15,4.41,1.09,5.47s-4.11.26-5.47-1.09A3.1,3.1,0,0,1,583.27,909.55Z"/><path class="cls-2" d="M368.17,886.13l1.51,1.51-1.89,5.66a1.55,1.55,0,0,0,.88,1.92l5.17,2.13a8.68,8.68,0,0,0-.34,1l-1.23,1.23-5-.71a1.55,1.55,0,0,0-1.31.44L363.25,902l-3.06-.44a1.55,1.55,0,1,0-.44,3.06l3.83,0.55a1.55,1.55,0,0,0,1.31-.44l2.73-2.73,2.4,0.34a7.76,7.76,0,0,0-.1,6.77,4.6,4.6,0,0,0-1.76,1.1L366,908a1.55,1.55,0,0,0-1.89-.23l-5.47,3.28a1.55,1.55,0,0,0,1.59,2.65l0.33-.2,4.1-2.46,2.18,2.18a4.62,4.62,0,0,0,4.88,4.88l2.18,2.18-2.46,4.1-0.2.33a1.55,1.55,0,0,0,2.65,1.59l3.28-5.47a1.55,1.55,0,0,0-.23-1.89l-2.19-2.19a4.6,4.6,0,0,0,1.1-1.76,7.76,7.76,0,0,0,6.77-.1l0.34,2.4L380.2,920a1.55,1.55,0,0,0-.44,1.31l0.55,3.83a1.55,1.55,0,1,0,3.06-.44l-0.44-3.06,2.73-2.73a1.55,1.55,0,0,0,.44-1.31l-0.71-5,1.23-1.23a8.62,8.62,0,0,0,1-.34l2.13,5.17a1.55,1.55,0,0,0,1.92.88l5.66-1.89,1.51,1.51a1.55,1.55,0,0,0,2.19-2.19l-2.19-2.19a1.55,1.55,0,0,0-1.58-.37L392,913.74l-1.75-4.26a42.91,42.91,0,0,0,4-3.54l4,1.34a1.55,1.55,0,0,0,1.58-.37l7-7,5.66,1.89a1.55,1.55,0,1,0,1-2.93l-6.56-2.19a1.54,1.54,0,0,0-1.58.37l-7,7-1.66-.55a20.73,20.73,0,0,0,5-9.38c4.42-4.57,5.54-10.43,2.52-13.45s-8.88-1.9-13.45,2.52a20.71,20.71,0,0,0-9.38,5l-0.55-1.66,7-7a1.55,1.55,0,0,0,.42-1.4l-1.09-5.47a1.55,1.55,0,0,0-3,.61l0.93,4.66L378,885a1.55,1.55,0,0,0-.37,1.58l1.34,4a42.91,42.91,0,0,0-3.54,4l-4.26-1.75,1.73-5.19a1.55,1.55,0,0,0-.37-1.58l-2.19-2.19A1.55,1.55,0,0,0,368.17,886.13Zm2.19,28.44a1.55,1.55,0,1,1,2.19,0A1.55,1.55,0,0,1,370.36,914.57Zm5.47-3.28-2.19-2.19a4.65,4.65,0,0,1,0-6.56,7.72,7.72,0,0,0,6.58,2.17,7.72,7.72,0,0,0,2.17,6.58A4.65,4.65,0,0,1,375.83,911.29Zm18-9.3c-5.06,5.06-7,6.66-9.68,6.68a4.65,4.65,0,0,1,.38-6.13l14-14C399.83,891.71,398.37,897.5,393.87,902Zm8.2-19.14c1.07,1.07,1,3.41-.23,5.91a7.06,7.06,0,0,0-5.68-5.68C398.67,881.8,401,881.78,402.08,882.85Zm-5.71,3.52-14,14a4.65,4.65,0,0,1-6.13.38c0-2.63,1.62-4.62,6.68-9.68C387.43,886.56,393.22,885.1,396.37,886.37Z"/><path class="cls-2" d="M498.3,639.83a1.55,1.55,0,0,0-1.24-.62h-6.68l7.26-3.23a1.54,1.54,0,0,0,.47-0.32l7.73-7.73a1.55,1.55,0,1,0-2.19-2.19l-7.53,7.53-9.19,4.08,6.76-11.27a1.55,1.55,0,0,0,.14-1.29l-3.09-9.28a1.55,1.55,0,0,0-2.93,1l2.87,8.61-5.79,9.66a6.87,6.87,0,0,0-2.43-2.57l3.46-5a1.55,1.55,0,0,0,.18-1.42l-1.55-4.12a1.55,1.55,0,0,0-2.9,1.09l1.26,3.36-3,4.27-2.87-3.82,1.29-3.87a1.55,1.55,0,0,0-2.93-1l-1.55,4.64a1.55,1.55,0,0,0,.23,1.42l3.29,4.38a6.75,6.75,0,0,0-2.4,2.44l-5.69-9.48,2.87-8.61a1.55,1.55,0,0,0-2.93-1l-3.09,9.28a1.55,1.55,0,0,0,.14,1.29l6.76,11.27-9.19-4.08-7.53-7.53a1.55,1.55,0,1,0-2.19,2.19l7.73,7.73a1.55,1.55,0,0,0,.47.32l7.26,3.23H463a1.55,1.55,0,0,0-1.24.62l-9.26,12.38a1.55,1.55,0,0,0,2.48,1.85l8.79-11.76h7.35l-5.77,3.3a1.55,1.55,0,0,0-.72.92l-6.19,21.66a1.55,1.55,0,0,0,1.06,1.91,1.55,1.55,0,0,0,1.91-1.06l6-21.05,6.94-4a8.33,8.33,0,0,0,1.56,2.59c-3.18,2-5.38,6.24-5.38,11.18,0,6.82,4.21,12.38,9.38,12.38s9.38-5.55,9.38-12.37c0-4.94-2.21-9.19-5.38-11.18a8.36,8.36,0,0,0,1.59-2.66l7.12,4.12,6,21a1.55,1.55,0,0,0,3-.85l-6.19-21.57a1.55,1.55,0,0,0-.71-0.91l-5.84-3.38h7.43l8.77,11.75a1.55,1.55,0,1,0,2.48-1.85Zm-18.4-5.26c1.51,0,3.2,2.22,3.2,5.41s-1.68,5.41-3.2,5.41-3.2-2.22-3.2-5.41S478.39,634.57,479.9,634.57Zm6.29,23.2c0,5-2.88,9.28-6.29,9.28s-6.29-4.25-6.29-9.28,2.88-9.28,6.29-9.28S486.19,652.74,486.19,657.77Z"/><g class="cls-3"><path class="cls-4" d="M379.5,804.26a5.45,5.45,0,1,1-5.45,5.45,5.46,5.46,0,0,1,5.45-5.45m0-2.2a7.65,7.65,0,1,0,7.65,7.65,7.65,7.65,0,0,0-7.65-7.65h0Z"/></g><g class="cls-3"><path class="cls-4" d="M477.94,721.65l6.39,6.39-6.39,6.39L471.55,728l6.39-6.39m0-3.11-9.5,9.5,9.5,9.5,9.5-9.5-9.5-9.5h0Z"/></g><g class="cls-3"><path class="cls-4" d="M477.94,889.66l5.5,8.68h-11l5.5-8.68m0-4.11-9.5,15h19l-9.5-15h0Z"/></g><g class="cls-3"><path class="cls-4" d="M583.45,806.42v9h-9v-9h9m2.2-2.2H572.22v13.43h13.43V804.22h0Z"/></g><path class="cls-2" d="M827.84,907.29a6.2,6.2,0,0,1-.32,2l-3.09,9.28a6.18,6.18,0,0,1-5.2,4.19,9.27,9.27,0,1,1-14.29,11.79l-3.4-4.53v3.61a1.55,1.55,0,0,1-3.09,0V930l-3.4,4.53a9.28,9.28,0,1,1-14.29-11.79,6.18,6.18,0,0,1-5.2-4.19l-3.09-9.28a6.19,6.19,0,0,1,5.87-8.15c6.18,0,13.36,3.19,18.07,7.88a4.65,4.65,0,0,1,.38-0.4l-2.94-11.75a1.55,1.55,0,0,1,3-.75l2.8,11.22,0.33,0,0.34,0,2.8-11.22a1.55,1.55,0,0,1,3,.75l-2.94,11.75a4.65,4.65,0,0,1,.38.4c4.72-4.69,11.89-7.88,18.07-7.88A6.19,6.19,0,0,1,827.84,907.29Zm-46.41,12.38h15.39a21.34,21.34,0,0,1-1.46-7.34c-4-4.69-11.08-8.13-17-8.13a3.1,3.1,0,0,0-2.94,4.07l3.09,9.28A3.09,3.09,0,0,0,781.44,919.66Zm17,4.64a1.55,1.55,0,0,0-1.55-1.55h-9.28a6.19,6.19,0,1,0,5,9.9l5.57-7.42A1.53,1.53,0,0,0,798.45,924.3Zm3.09-12.37a1.55,1.55,0,0,0-3.09,0,18.21,18.21,0,0,0,1.55,7.32A18.21,18.21,0,0,0,801.55,911.93Zm17,17a6.19,6.19,0,0,0-6.19-6.19h-9.28a1.55,1.55,0,0,0-1.24,2.47l5.57,7.42A6.19,6.19,0,0,0,818.56,928.94Zm6.19-21.66a3.1,3.1,0,0,0-3.09-3.09c-5.94,0-13.05,3.44-17,8.13a21.31,21.31,0,0,1-1.46,7.34h15.39a3.09,3.09,0,0,0,2.94-2.11l3.09-9.28A3.1,3.1,0,0,0,824.75,907.29Z"/><path class="cls-2" d="M706,805.66l-1.51,1.51-5.66-1.89a1.55,1.55,0,0,0-1.92.88l-2.84,6.89h-0.36l-1.39-1.39,1-6.89a1.55,1.55,0,0,0-.44-1.31l-2.73-2.73,0.44-3.06a1.55,1.55,0,1,0-3.06-.44L687,801.07a1.55,1.55,0,0,0,.44,1.31l2.73,2.73-0.68,4.76a4.66,4.66,0,0,0-3,.36l-0.18-.2a4.62,4.62,0,0,0-3.51-1.35,9.28,9.28,0,0,1,.23-12.87,1.55,1.55,0,0,0-2.19-2.19,12.39,12.39,0,0,0-1,16.34l-0.08.07-0.07.08a12.39,12.39,0,0,0-16.34,1,1.55,1.55,0,1,0,2.19,2.19,9.28,9.28,0,0,1,12.87-.23,4.62,4.62,0,0,0,1.35,3.51l0.2,0.18a4.66,4.66,0,0,0-.36,3l-4.76.68-2.73-2.73a1.55,1.55,0,0,0-1.31-.44l-3.83.55a1.55,1.55,0,1,0,.44,3.06l3.06-.44,2.73,2.73a1.55,1.55,0,0,0,1.31.44l6.89-1,1.39,1.39c0,0.12,0,.24,0,0.36l-6.89,2.84a1.55,1.55,0,0,0-.88,1.92l1.89,5.66-1.51,1.51a1.55,1.55,0,0,0,2.19,2.19l2.19-2.19a1.55,1.55,0,0,0,.37-1.58l-1.73-5.19,5.48-2.26,0.25,0.28,1.09,1.09c0.66,0.66,1.36,1.33,2.08,2l-1.36,4.08a1.55,1.55,0,0,0,.37,1.58l7,7-1.89,5.66a1.55,1.55,0,1,0,2.93,1l2.19-6.56a1.55,1.55,0,0,0-.37-1.58l-7-7,0.63-1.9c7.85,6.76,17.65,12.89,20.57,10a2.47,2.47,0,0,1,2.19-2.19c2.91-2.91-3.22-12.71-10-20.57l1.9-.63,7,7a1.55,1.55,0,0,0,1.4.42l5.47-1.09a1.55,1.55,0,0,0-.61-3l-4.66.93L706,816.6a1.55,1.55,0,0,0-1.58-.37l-4.08,1.36c-0.67-.72-1.34-1.42-2-2.08l-1.09-1.09-0.28-.25,2.26-5.48,5.19,1.73A1.55,1.55,0,0,0,706,810l2.19-2.19A1.55,1.55,0,0,0,706,805.66Zm-24.06,6.56a1.55,1.55,0,0,1,2.19,0l-2.19,2.19A1.55,1.55,0,0,1,681.93,812.22Zm1.09,7.66a1.55,1.55,0,0,1,0-2.19l4.38-4.38a1.55,1.55,0,0,1,2.19,0l1.09,1.09L684.12,821Zm13.13-2.19c9.43,9.43,13.89,18.16,14.1,20.57l-0.46-.13a1.55,1.55,0,0,0-2,2,4.37,4.37,0,0,1,.13.46c-2.41-.21-11.14-4.68-20.57-14.1l-1.09-1.09a1.55,1.55,0,0,1,0-2.19l6.56-6.56a1.55,1.55,0,0,1,2.19,0Z"/><path class="cls-2" d="M907,823.48a4.81,4.81,0,0,0-.44-2H912a1.54,1.54,0,0,0,1.09-.45l5-5h8.11a1.55,1.55,0,1,0,0-3.09h-8.75a1.54,1.54,0,0,0-1.09.45l-5,5h-4.79a8.67,8.67,0,0,0,.53-2.87,3.67,3.67,0,0,0,3.66-.92l0.14-.14a6.15,6.15,0,0,0,.95-7.51l1.24-1.24a1.55,1.55,0,0,0-2.19-2.19l-1.24,1.24a6.33,6.33,0,0,0-7.65,1.09,3.67,3.67,0,0,0-.92,3.67,8.65,8.65,0,0,0-2.87.53v-4.79l5-5a1.55,1.55,0,0,0,.45-1.09v-8.75a1.55,1.55,0,1,0-3.09,0v8.11l-5,5a1.55,1.55,0,0,0-.45,1.09v5.45a4.79,4.79,0,0,0-2-.44H876.92a11.76,11.76,0,0,0-8.37,3.47l-0.11.11a8,8,0,0,0,0,11.24l0.12,0.12a8.24,8.24,0,0,0,.89.76l-1.16,1.16a1.55,1.55,0,0,0,2.19,2.19l2-2a8.14,8.14,0,0,0,1.86.22h0.41a31.4,31.4,0,0,0,4.39-.31l-7.51,7.51a1.55,1.55,0,0,0,2.19,2.19l3.9-3.9a5.65,5.65,0,0,0,6.56,6.56l-3.9,3.9a1.55,1.55,0,1,0,2.19,2.19l7.51-7.51a31.46,31.46,0,0,0-.31,4.39v0.41a8.14,8.14,0,0,0,.22,1.86l-2,2a1.55,1.55,0,1,0,2.19,2.19l1.16-1.16a8.23,8.23,0,0,0,.76.89l0.12,0.12a8,8,0,0,0,11.24,0l0.11-.11a11.76,11.76,0,0,0,3.47-8.37V823.48Zm-23.78-1a27.89,27.89,0,0,1-7.93,1.32l4.55-4.55h8.31A17.83,17.83,0,0,0,883.25,822.53Zm-4-6.32a1.55,1.55,0,0,0-1.09.45l-6.46,6.46a5,5,0,0,1-.93-0.73l-0.12-.12a4.86,4.86,0,0,1,0-6.86l0.11-.11a8.69,8.69,0,0,1,6.18-2.56h16.26a1.71,1.71,0,0,1,.74.17,12,12,0,0,0-2.32,3.3H879.23Zm29.25-8.55a3.21,3.21,0,0,1,.29.26,3.06,3.06,0,0,1,.9,2,3.1,3.1,0,0,1-.9,2.37l-0.14.14a0.58,0.58,0,0,1-.82,0l-3.56-3.56a0.58,0.58,0,0,1,0-.82A3.24,3.24,0,0,1,908.47,807.65Zm-5.18,5.72c1.48,1.48.73,4.74-1.64,7.11s-5.63,3.12-7.11,1.64-0.73-4.74,1.64-7.11S901.81,811.9,903.29,813.38Zm-21.88,21.88c-1.55-1.55-.59-6,3.28-9.84a13.86,13.86,0,0,1,6.18-3.77,5.52,5.52,0,0,0,4.16,4.16,13.86,13.86,0,0,1-3.77,6.18C887.39,835.84,883,836.81,881.41,835.25Zm11.41,6.1a27.89,27.89,0,0,1,1.32-7.93,17.83,17.83,0,0,0,3.23-4.93v8.31Zm8.43,4.69a4.86,4.86,0,0,1-6.86,0l-0.12-.12a5,5,0,0,1-.73-0.93l6.46-6.46a1.55,1.55,0,0,0,.45-1.09V825.07a12,12,0,0,0,3.3-2.32,1.71,1.71,0,0,1,.17.74v16.26a8.69,8.69,0,0,1-2.56,6.18Z"/><path class="cls-2" d="M818.3,746.49a1.55,1.55,0,0,0-1.24-.62h-6.68l7.26-3.23a1.54,1.54,0,0,0,.47-0.32l7.73-7.73a1.55,1.55,0,0,0-2.19-2.19l-7.53,7.53L806.94,744l6.76-11.27a1.55,1.55,0,0,0,.14-1.29l-3.09-9.28a1.55,1.55,0,0,0-2.93,1l2.87,8.61-5.79,9.66a6.87,6.87,0,0,0-2.43-2.57l3.46-5a1.55,1.55,0,0,0,.18-1.42l-1.55-4.12a1.55,1.55,0,0,0-2.9,1.09l1.26,3.36L800,737l-2.87-3.82,1.29-3.87a1.55,1.55,0,0,0-2.93-1L793.89,733a1.55,1.55,0,0,0,.23,1.42l3.29,4.38a6.75,6.75,0,0,0-2.4,2.44l-5.69-9.48,2.87-8.61a1.55,1.55,0,0,0-2.93-1l-3.09,9.28a1.55,1.55,0,0,0,.14,1.29L793.06,744l-9.19-4.08-7.53-7.53a1.55,1.55,0,0,0-2.19,2.19l7.73,7.73a1.55,1.55,0,0,0,.47.32l7.26,3.23H783a1.55,1.55,0,0,0-1.24.62l-9.26,12.38a1.55,1.55,0,0,0,2.48,1.85L783.73,749h7.35l-5.77,3.3a1.55,1.55,0,0,0-.72.92l-6.19,21.66a1.55,1.55,0,0,0,1.06,1.91,1.55,1.55,0,0,0,1.91-1.06l6-21.05,6.94-4a8.33,8.33,0,0,0,1.56,2.59c-3.18,2-5.38,6.24-5.38,11.18,0,6.82,4.21,12.38,9.38,12.38s9.38-5.55,9.38-12.37c0-4.94-2.21-9.19-5.38-11.18a8.36,8.36,0,0,0,1.59-2.66l7.12,4.12,6,21a1.55,1.55,0,0,0,3-.85l-6.19-21.57a1.55,1.55,0,0,0-.71-0.91L808.85,749h7.43l8.77,11.75a1.55,1.55,0,1,0,2.48-1.85Zm-18.4-5.26c1.51,0,3.2,2.22,3.2,5.41s-1.68,5.41-3.2,5.41-3.2-2.22-3.2-5.41S798.39,741.23,799.9,741.23Zm6.29,23.2c0,5-2.88,9.28-6.29,9.28s-6.29-4.25-6.29-9.28,2.88-9.28,6.29-9.28S806.19,759.4,806.19,764.44Z"/><g class="cls-3"><path class="cls-4" d="M699.5,910.93a5.45,5.45,0,1,1-5.45,5.45,5.46,5.46,0,0,1,5.45-5.45m0-2.2a7.65,7.65,0,1,0,7.65,7.65,7.65,7.65,0,0,0-7.65-7.65h0Z"/></g><g class="cls-3"><path class="cls-4" d="M797.94,828.32l6.39,6.39-6.39,6.39-6.39-6.39,6.39-6.39m0-3.11-9.5,9.5,9.5,9.5,9.5-9.5-9.5-9.5h0Z"/></g><g class="cls-3"><path class="cls-4" d="M903.45,913.09v9h-9v-9h9m2.2-2.2H892.22v13.43h13.43V910.89h0Z"/></g><path class="cls-2" d="M187.84,374a6.2,6.2,0,0,1-.32,2l-3.09,9.28a6.18,6.18,0,0,1-5.2,4.19,9.27,9.27,0,1,1-14.29,11.79l-3.4-4.53v3.61a1.55,1.55,0,0,1-3.09,0v-3.61l-3.4,4.53a9.28,9.28,0,1,1-14.29-11.79,6.18,6.18,0,0,1-5.2-4.19l-3.09-9.28a6.19,6.19,0,0,1,5.87-8.15c6.18,0,13.36,3.19,18.07,7.88a4.65,4.65,0,0,1,.38-0.4l-2.94-11.75a1.55,1.55,0,0,1,3-.75l2.8,11.22,0.33,0,0.34,0,2.8-11.22a1.55,1.55,0,0,1,3,.75l-2.94,11.75a4.65,4.65,0,0,1,.38.4c4.72-4.69,11.89-7.88,18.07-7.88A6.19,6.19,0,0,1,187.84,374Zm-46.41,12.38h15.39a21.34,21.34,0,0,1-1.46-7.34c-4-4.69-11.08-8.13-17-8.13a3.1,3.1,0,0,0-2.94,4.07l3.09,9.28A3.09,3.09,0,0,0,141.44,386.33Zm17,4.64a1.55,1.55,0,0,0-1.55-1.55h-9.28a6.19,6.19,0,1,0,5,9.9l5.57-7.42A1.53,1.53,0,0,0,158.45,391Zm3.09-12.37a1.55,1.55,0,0,0-3.09,0,18.21,18.21,0,0,0,1.55,7.32A18.21,18.21,0,0,0,161.55,378.59Zm17,17a6.19,6.19,0,0,0-6.19-6.19h-9.28a1.55,1.55,0,0,0-1.24,2.47l5.57,7.42A6.19,6.19,0,0,0,178.56,395.61ZM184.75,374a3.1,3.1,0,0,0-3.09-3.09c-5.94,0-13.05,3.44-17,8.13a21.31,21.31,0,0,1-1.46,7.34h15.39a3.09,3.09,0,0,0,2.94-2.11l3.09-9.28A3.1,3.1,0,0,0,184.75,374Z"/><path class="cls-2" d="M66,272.33l-1.51,1.51L58.83,272a1.55,1.55,0,0,0-1.92.88l-2.84,6.89H53.71l-1.39-1.39,1-6.89a1.55,1.55,0,0,0-.44-1.31l-2.73-2.73,0.44-3.06a1.55,1.55,0,0,0-3.06-.44L47,267.73A1.55,1.55,0,0,0,47.4,269l2.73,2.73-0.68,4.76a4.66,4.66,0,0,0-3,.36l-0.18-.2a4.62,4.62,0,0,0-3.51-1.35A9.28,9.28,0,0,1,43,262.48a1.55,1.55,0,1,0-2.19-2.19,12.39,12.39,0,0,0-1,16.34l-0.08.07-0.07.08a12.39,12.39,0,0,0-16.34,1A1.55,1.55,0,0,0,25.52,280a9.28,9.28,0,0,1,12.87-.23,4.62,4.62,0,0,0,1.35,3.51l0.2,0.18a4.66,4.66,0,0,0-.36,3l-4.76.68-2.73-2.73a1.55,1.55,0,0,0-1.31-.44l-3.83.55a1.55,1.55,0,0,0,.44,3.06l3.06-.44,2.73,2.73a1.55,1.55,0,0,0,1.31.44l6.89-1,1.39,1.39c0,0.12,0,.24,0,0.36l-6.89,2.84a1.55,1.55,0,0,0-.88,1.92l1.89,5.66L35.37,303a1.55,1.55,0,0,0,2.19,2.19L39.74,303a1.55,1.55,0,0,0,.37-1.58l-1.73-5.19,5.48-2.26,0.25,0.28,1.09,1.09c0.66,0.66,1.36,1.33,2.08,2l-1.36,4.08a1.55,1.55,0,0,0,.37,1.58l7,7-1.89,5.66a1.55,1.55,0,1,0,2.93,1L56.52,310a1.55,1.55,0,0,0-.37-1.58l-7-7,0.63-1.9c7.85,6.76,17.65,12.89,20.57,10a2.5,2.5,0,0,0,.71-1.48,2.5,2.5,0,0,0,1.48-.71c2.91-2.91-3.22-12.71-10-20.57l1.9-.63,7,7a1.55,1.55,0,0,0,1.4.42l5.47-1.09a1.55,1.55,0,0,0-.61-3l-4.66.93L66,283.26a1.55,1.55,0,0,0-1.58-.37l-4.08,1.36c-0.67-.72-1.34-1.42-2-2.08l-1.09-1.09L57,280.82l2.26-5.48,5.19,1.73A1.55,1.55,0,0,0,66,276.7l2.19-2.19A1.55,1.55,0,1,0,66,272.33Zm-24.06,6.56a1.55,1.55,0,0,1,2.19,0l-2.19,2.19A1.55,1.55,0,0,1,41.93,278.89ZM43,286.55a1.55,1.55,0,0,1,0-2.19L47.4,280a1.55,1.55,0,0,1,2.19,0l1.09,1.09-6.56,6.56Zm13.13-2.19c9.43,9.43,13.89,18.16,14.1,20.57l-0.46-.13a1.55,1.55,0,0,0-2,2,4.37,4.37,0,0,1,.13.46c-2.41-.21-11.14-4.68-20.57-14.1L46.31,292a1.55,1.55,0,0,1,0-2.19l6.56-6.56a1.55,1.55,0,0,1,2.19,0Z"/><path class="cls-2" d="M267,290.15a4.81,4.81,0,0,0-.44-2H272a1.54,1.54,0,0,0,1.09-.45l5-5h8.11a1.55,1.55,0,1,0,0-3.09h-8.75a1.54,1.54,0,0,0-1.09.45l-5,5h-4.79a8.67,8.67,0,0,0,.53-2.87,3.67,3.67,0,0,0,3.66-.92l0.14-.14a6.15,6.15,0,0,0,.95-7.51l1.24-1.24a1.55,1.55,0,0,0-2.19-2.19l-1.24,1.24a6.33,6.33,0,0,0-7.65,1.09,3.67,3.67,0,0,0-.92,3.67,8.65,8.65,0,0,0-2.87.53v-4.79l5-5a1.55,1.55,0,0,0,.45-1.09v-8.75a1.55,1.55,0,0,0-3.09,0v8.11l-5,5a1.55,1.55,0,0,0-.45,1.09v5.45a4.79,4.79,0,0,0-2-.44H236.92a11.76,11.76,0,0,0-8.37,3.47l-0.11.11a8,8,0,0,0,0,11.24l0.12,0.12a8.24,8.24,0,0,0,.89.76l-1.16,1.16a1.55,1.55,0,0,0,2.19,2.19l2-2a8.14,8.14,0,0,0,1.86.22h0.41a31.4,31.4,0,0,0,4.39-.31l-7.51,7.51a1.55,1.55,0,1,0,2.19,2.19l3.9-3.9a5.65,5.65,0,0,0,6.56,6.56l-3.9,3.9a1.55,1.55,0,1,0,2.19,2.19l7.51-7.51a31.46,31.46,0,0,0-.31,4.39V309a8.14,8.14,0,0,0,.22,1.86l-2,2a1.55,1.55,0,1,0,2.19,2.19l1.16-1.16a8.23,8.23,0,0,0,.76.89l0.12,0.12a8,8,0,0,0,11.24,0l0.11-.11a11.76,11.76,0,0,0,3.47-8.37V290.15Zm-23.78-1a27.89,27.89,0,0,1-7.93,1.32l4.55-4.55h8.31A17.83,17.83,0,0,0,243.25,289.19Zm-4-6.32a1.55,1.55,0,0,0-1.09.45l-6.46,6.46a5,5,0,0,1-.93-0.73l-0.12-.12a4.86,4.86,0,0,1,0-6.86l0.11-.11a8.69,8.69,0,0,1,6.18-2.56h16.26a1.71,1.71,0,0,1,.74.17,12,12,0,0,0-2.32,3.3H239.23Zm29.25-8.55a3.21,3.21,0,0,1,.29.26,3.06,3.06,0,0,1,.9,2,3.1,3.1,0,0,1-.9,2.37l-0.14.14a0.58,0.58,0,0,1-.82,0l-3.56-3.56a0.58,0.58,0,0,1,0-.82A3.24,3.24,0,0,1,268.47,274.32ZM263.29,280c1.48,1.48.73,4.74-1.64,7.11s-5.63,3.12-7.11,1.64-0.73-4.74,1.64-7.11S261.81,278.56,263.29,280Zm-21.88,21.88c-1.55-1.55-.59-6,3.28-9.84a13.86,13.86,0,0,1,6.18-3.77,5.52,5.52,0,0,0,4.16,4.16,13.86,13.86,0,0,1-3.77,6.18C247.39,302.51,243,303.47,241.41,301.92Zm11.41,6.1a27.89,27.89,0,0,1,1.32-7.93,17.83,17.83,0,0,0,3.23-4.93v8.31Zm8.43,4.69a4.86,4.86,0,0,1-6.86,0l-0.12-.12a5,5,0,0,1-.73-0.93L260,305.2a1.55,1.55,0,0,0,.45-1.09V291.74a12,12,0,0,0,3.3-2.32,1.71,1.71,0,0,1,.17.74v16.26a8.69,8.69,0,0,1-2.56,6.18Z"/><path class="cls-2" d="M242.49,490.54L244,489l5.66,1.89a1.55,1.55,0,0,0,1.92-.88l3.08-7.47a4.61,4.61,0,0,0,1,1.41l-1,6.89a1.55,1.55,0,0,0,.44,1.31l2.73,2.73L257.37,498a1.55,1.55,0,0,0,3.06.44l0.55-3.83a1.55,1.55,0,0,0-.44-1.31l-2.73-2.73,0.75-5.22a4.67,4.67,0,0,0,.74,0,6.15,6.15,0,0,0,1.8,4.13,9.22,9.22,0,0,0,4.19,2.23,7.1,7.1,0,0,1,1,5.3l-0.18.92a1.55,1.55,0,0,0,.19,1.1l3.28,5.47a1.55,1.55,0,0,0,2.65-1.59l-3-5,0.07-.33a10.19,10.19,0,0,0-.56-5.85,4.45,4.45,0,0,0,3.33-3.33A10.2,10.2,0,0,0,278,489l0.33-.07,5,3a1.55,1.55,0,0,0,1.59-2.65l-5.47-3.28a1.55,1.55,0,0,0-1.1-.19l-0.92.18a7.1,7.1,0,0,1-5.3-1,9.22,9.22,0,0,0-2.23-4.19,6.16,6.16,0,0,0-4.13-1.8,4.67,4.67,0,0,0,0-.74l5.22-.75,2.73,2.73a1.55,1.55,0,0,0,1.31.44l3.83-.55a1.55,1.55,0,1,0-.44-3.06l-3.06.44-2.73-2.73a1.55,1.55,0,0,0-1.31-.44l-6.89,1a4.61,4.61,0,0,0-1.41-1l7.47-3.08a1.55,1.55,0,0,0,.88-1.92l-1.89-5.66,1.51-1.51a1.55,1.55,0,1,0-2.19-2.19l-2.19,2.19a1.55,1.55,0,0,0-.37,1.58l1.73,5.19-5.68,2.34,1.42-4.25a1.55,1.55,0,0,0-.37-1.58l-7-7,1.89-5.66a1.55,1.55,0,1,0-2.93-1l-2.19,6.56a1.54,1.54,0,0,0,.37,1.58l7,7-1.13,3.38a4.64,4.64,0,0,0-3-.76,6.15,6.15,0,0,0-1.8-4.13l-1.09-1.09c-4-4-11.23-8.45-14.22-5.47s1.5,10.25,5.47,14.22l1.09,1.09a6.16,6.16,0,0,0,4.13,1.8,4.64,4.64,0,0,0,.76,3L247.29,480l-7-7a1.55,1.55,0,0,0-1.4-.42l-5.47,1.09a1.55,1.55,0,0,0,.61,3l4.66-.93,7.07,7.07a1.55,1.55,0,0,0,1.58.37l4.25-1.42-2.34,5.68-5.19-1.73a1.55,1.55,0,0,0-1.58.37l-2.19,2.19A1.55,1.55,0,0,0,242.49,490.54Zm4.38-19.69c-4.35-4.35-6.08-9.15-5.47-9.84s5.49,1.12,9.84,5.47l1.09,1.09a3.09,3.09,0,1,1-4.38,4.38Zm6.56,4.38,2.19-2.19a1.55,1.55,0,0,1,2.19,2.19l-2.19,2.19A1.55,1.55,0,0,1,253.43,475.23Zm4.38,4.38,2.19-2.19a1.55,1.55,0,0,1,2.19,2.19L260,481.79A1.55,1.55,0,0,1,257.81,479.6Zm5.47,3.28a3.1,3.1,0,0,1,4.38,0c1.36,1.36,2.15,4.41,1.09,5.47s-4.11.26-5.47-1.09A3.1,3.1,0,0,1,263.27,482.88Z"/><path class="cls-2" d="M48.17,459.46L49.68,461l-1.89,5.66a1.55,1.55,0,0,0,.88,1.92l5.17,2.13a8.68,8.68,0,0,0-.34,1l-1.23,1.23-5-.71a1.55,1.55,0,0,0-1.31.44l-2.73,2.73-3.06-.44a1.55,1.55,0,0,0-.44,3.06l3.83,0.55a1.55,1.55,0,0,0,1.31-.44l2.73-2.73,2.4,0.34a7.76,7.76,0,0,0-.1,6.77,4.6,4.6,0,0,0-1.76,1.1L46,481.34a1.55,1.55,0,0,0-1.89-.23l-5.47,3.28A1.55,1.55,0,0,0,40.21,487l0.33-.2,4.1-2.46,2.18,2.18a4.62,4.62,0,0,0,4.88,4.88l2.18,2.18-2.46,4.1-0.2.33a1.55,1.55,0,0,0,2.65,1.59l3.28-5.47a1.55,1.55,0,0,0-.23-1.89l-2.19-2.19a4.6,4.6,0,0,0,1.1-1.76,7.76,7.76,0,0,0,6.77-.1l0.34,2.4-2.73,2.73a1.55,1.55,0,0,0-.44,1.31l0.55,3.83a1.55,1.55,0,1,0,3.06-.44L62.94,495l2.73-2.73a1.55,1.55,0,0,0,.44-1.31l-0.71-5,1.23-1.23a8.62,8.62,0,0,0,1-.34l2.13,5.17a1.55,1.55,0,0,0,1.92.88l5.66-1.89,1.51,1.51A1.55,1.55,0,1,0,81,487.9l-2.19-2.19a1.55,1.55,0,0,0-1.58-.37L72,487.07l-1.75-4.26a42.91,42.91,0,0,0,4-3.54l4,1.34a1.55,1.55,0,0,0,1.58-.37l7-7,5.66,1.89a1.55,1.55,0,1,0,1-2.93L86.94,470a1.54,1.54,0,0,0-1.58.37l-7,7-1.66-.55a20.73,20.73,0,0,0,5-9.38c4.42-4.57,5.54-10.43,2.52-13.45s-8.88-1.9-13.45,2.52a20.71,20.71,0,0,0-9.38,5l-0.55-1.66,7-7a1.55,1.55,0,0,0,.42-1.4L67.19,446a1.55,1.55,0,0,0-3,.61l0.93,4.66L58,458.37a1.55,1.55,0,0,0-.37,1.58L59,464a42.91,42.91,0,0,0-3.54,4l-4.26-1.75L52.92,461a1.55,1.55,0,0,0-.37-1.58l-2.19-2.19A1.55,1.55,0,0,0,48.17,459.46Zm2.19,28.44a1.55,1.55,0,1,1,2.19,0A1.55,1.55,0,0,1,50.36,487.9Zm5.47-3.28-2.19-2.19a4.65,4.65,0,0,1,0-6.56A7.72,7.72,0,0,0,60.22,478a7.72,7.72,0,0,0,2.17,6.58A4.65,4.65,0,0,1,55.83,484.62Zm18-9.3c-5.06,5.06-7,6.66-9.68,6.68a4.65,4.65,0,0,1,.38-6.13l14-14C79.83,465,78.37,470.83,73.87,475.32Zm8.2-19.14c1.07,1.07,1,3.41-.23,5.91a7.06,7.06,0,0,0-5.68-5.68C78.67,455.13,81,455.11,82.08,456.18Zm-5.71,3.52-14,14a4.65,4.65,0,0,1-6.13.38c0-2.63,1.62-4.62,6.68-9.68C67.43,459.89,73.22,458.43,76.37,459.7Z"/><path class="cls-2" d="M178.3,213.16a1.55,1.55,0,0,0-1.24-.62h-6.68l7.26-3.23a1.54,1.54,0,0,0,.47-0.32l7.73-7.73a1.55,1.55,0,1,0-2.19-2.19l-7.53,7.53-9.19,4.08,6.76-11.27a1.55,1.55,0,0,0,.14-1.29l-3.09-9.28a1.55,1.55,0,0,0-2.93,1l2.87,8.61-5.79,9.66a6.87,6.87,0,0,0-2.43-2.57l3.46-5a1.55,1.55,0,0,0,.18-1.42L164.54,195a1.55,1.55,0,0,0-2.9,1.09l1.26,3.36-3,4.27-2.87-3.82,1.29-3.87a1.55,1.55,0,0,0-2.93-1l-1.55,4.64a1.55,1.55,0,0,0,.23,1.42l3.29,4.38a6.75,6.75,0,0,0-2.4,2.44l-5.69-9.48,2.87-8.61a1.55,1.55,0,0,0-2.93-1l-3.09,9.28a1.55,1.55,0,0,0,.14,1.29l6.76,11.27-9.19-4.08-7.53-7.53a1.55,1.55,0,1,0-2.19,2.19l7.73,7.73a1.55,1.55,0,0,0,.47.32l7.26,3.23H143a1.55,1.55,0,0,0-1.24.62l-9.26,12.38a1.55,1.55,0,0,0,2.48,1.85l8.79-11.76h7.35l-5.77,3.3a1.55,1.55,0,0,0-.72.92l-6.19,21.66a1.55,1.55,0,0,0,1.06,1.91,1.55,1.55,0,0,0,1.91-1.06l6-21.05,6.94-4a8.33,8.33,0,0,0,1.56,2.59c-3.18,2-5.38,6.24-5.38,11.18,0,6.82,4.21,12.38,9.38,12.38s9.38-5.55,9.38-12.37c0-4.94-2.21-9.19-5.38-11.18a8.36,8.36,0,0,0,1.59-2.66l7.12,4.12,6,21a1.55,1.55,0,0,0,3-.85l-6.19-21.57a1.55,1.55,0,0,0-.71-0.91l-5.84-3.38h7.43l8.77,11.75a1.55,1.55,0,1,0,2.48-1.85Zm-18.4-5.26c1.51,0,3.2,2.22,3.2,5.41s-1.68,5.41-3.2,5.41-3.2-2.22-3.2-5.41S158.39,207.9,159.9,207.9Zm6.29,23.2c0,5-2.88,9.28-6.29,9.28s-6.29-4.25-6.29-9.28,2.88-9.28,6.29-9.28S166.19,226.07,166.19,231.1Z"/><g class="cls-3"><path class="cls-4" d="M59.5,377.59A5.45,5.45,0,1,1,54,383a5.46,5.46,0,0,1,5.45-5.45m0-2.2A7.65,7.65,0,1,0,67.15,383a7.65,7.65,0,0,0-7.65-7.65h0Z"/></g><g class="cls-3"><path class="cls-4" d="M157.94,295l6.39,6.39-6.39,6.39-6.39-6.39,6.39-6.39m0-3.11-9.5,9.5,9.5,9.5,9.5-9.5-9.5-9.5h0Z"/></g><g class="cls-3"><path class="cls-4" d="M157.94,463l5.5,8.68h-11l5.5-8.68m0-4.11-9.5,15h19l-9.5-15h0Z"/></g><g class="cls-3"><path class="cls-4" d="M263.45,379.76v9h-9v-9h9m2.2-2.2H252.22V391h13.43V377.56h0Z"/></g><path class="cls-2" d="M507.84,480.62a6.2,6.2,0,0,1-.32,2l-3.09,9.28a6.18,6.18,0,0,1-5.2,4.19,9.27,9.27,0,1,1-14.29,11.79l-3.4-4.53v3.61a1.55,1.55,0,0,1-3.09,0v-3.61l-3.4,4.53A9.28,9.28,0,1,1,460.76,496a6.18,6.18,0,0,1-5.2-4.19l-3.09-9.28a6.19,6.19,0,0,1,5.87-8.15c6.18,0,13.36,3.19,18.07,7.88a4.65,4.65,0,0,1,.38-0.4l-2.94-11.75a1.55,1.55,0,0,1,3-.75l2.8,11.22,0.33,0,0.34,0,2.8-11.22a1.55,1.55,0,0,1,3,.75l-2.94,11.75a4.65,4.65,0,0,1,.38.4c4.72-4.69,11.89-7.88,18.07-7.88A6.19,6.19,0,0,1,507.84,480.62ZM461.44,493h15.39a21.34,21.34,0,0,1-1.46-7.34c-4-4.69-11.08-8.13-17-8.13a3.1,3.1,0,0,0-2.94,4.07l3.09,9.28A3.09,3.09,0,0,0,461.44,493Zm17,4.64a1.55,1.55,0,0,0-1.55-1.55h-9.28a6.19,6.19,0,1,0,5,9.9l5.57-7.42A1.53,1.53,0,0,0,478.45,497.63Zm3.09-12.37a1.55,1.55,0,0,0-3.09,0,18.21,18.21,0,0,0,1.55,7.32A18.21,18.21,0,0,0,481.55,485.26Zm17,17a6.19,6.19,0,0,0-6.19-6.19h-9.28a1.55,1.55,0,0,0-1.24,2.47l5.57,7.42A6.19,6.19,0,0,0,498.56,502.28Zm6.19-21.66a3.1,3.1,0,0,0-3.09-3.09c-5.94,0-13.05,3.44-17,8.13a21.31,21.31,0,0,1-1.46,7.34h15.39a3.09,3.09,0,0,0,2.94-2.11l3.09-9.28A3.1,3.1,0,0,0,504.75,480.62Z"/><path class="cls-2" d="M386,379l-1.51,1.51-5.66-1.89a1.55,1.55,0,0,0-1.92.88l-2.84,6.89h-0.36L372.32,385l1-6.89a1.55,1.55,0,0,0-.44-1.31l-2.73-2.73,0.44-3.06a1.55,1.55,0,1,0-3.06-.44L367,374.4a1.55,1.55,0,0,0,.44,1.31l2.73,2.73-0.68,4.76a4.66,4.66,0,0,0-3,.36l-0.18-.2A4.62,4.62,0,0,0,362.8,382a9.28,9.28,0,0,1,.23-12.87,1.55,1.55,0,0,0-2.19-2.19,12.39,12.39,0,0,0-1,16.34l-0.08.07-0.07.08a12.39,12.39,0,0,0-16.34,1,1.55,1.55,0,1,0,2.19,2.19,9.28,9.28,0,0,1,12.87-.23,4.62,4.62,0,0,0,1.35,3.51l0.2,0.18a4.66,4.66,0,0,0-.36,3l-4.76.68L352.09,391a1.55,1.55,0,0,0-1.31-.44l-3.83.55a1.55,1.55,0,1,0,.44,3.06l3.06-.44,2.73,2.73a1.55,1.55,0,0,0,1.31.44l6.89-1,1.39,1.39c0,0.12,0,.24,0,0.36l-6.89,2.84a1.55,1.55,0,0,0-.88,1.92l1.89,5.66-1.51,1.51a1.55,1.55,0,0,0,2.19,2.19l2.19-2.19a1.55,1.55,0,0,0,.37-1.58l-1.73-5.19,5.48-2.26,0.25,0.28,1.09,1.09c0.66,0.66,1.36,1.33,2.08,2L365.93,408a1.55,1.55,0,0,0,.37,1.58l7,7-1.89,5.66a1.55,1.55,0,1,0,2.93,1l2.19-6.56a1.55,1.55,0,0,0-.37-1.58l-7-7,0.63-1.9c7.85,6.76,17.65,12.89,20.57,10a2.47,2.47,0,0,1,2.19-2.19c2.91-2.91-3.22-12.71-10-20.57l1.9-.63,7,7a1.55,1.55,0,0,0,1.4.42l5.47-1.09a1.55,1.55,0,0,0-.61-3l-4.66.93L386,389.93a1.55,1.55,0,0,0-1.58-.37l-4.08,1.36c-0.67-.72-1.34-1.42-2-2.08l-1.09-1.09-0.28-.25,2.26-5.48,5.19,1.73a1.55,1.55,0,0,0,1.58-.37l2.19-2.19A1.55,1.55,0,1,0,386,379Zm-24.06,6.56a1.55,1.55,0,0,1,2.19,0l-2.19,2.19A1.55,1.55,0,0,1,361.93,385.56Zm1.09,7.66a1.55,1.55,0,0,1,0-2.19l4.38-4.38a1.55,1.55,0,0,1,2.19,0l1.09,1.09-6.56,6.56ZM376.15,391c9.43,9.43,13.89,18.16,14.1,20.57l-0.46-.13a1.55,1.55,0,0,0-2,2,4.37,4.37,0,0,1,.13.46c-2.41-.21-11.14-4.68-20.57-14.1l-1.09-1.09a1.55,1.55,0,0,1,0-2.19l6.56-6.56a1.55,1.55,0,0,1,2.19,0Z"/><path class="cls-2" d="M587,396.82a4.81,4.81,0,0,0-.44-2H592a1.54,1.54,0,0,0,1.09-.45l5-5h8.11a1.55,1.55,0,1,0,0-3.09h-8.75a1.54,1.54,0,0,0-1.09.45l-5,5h-4.79a8.67,8.67,0,0,0,.53-2.87,3.67,3.67,0,0,0,3.66-.92l0.14-.14a6.15,6.15,0,0,0,.95-7.51l1.24-1.24a1.55,1.55,0,1,0-2.19-2.19l-1.24,1.24a6.33,6.33,0,0,0-7.65,1.09,3.67,3.67,0,0,0-.92,3.67,8.65,8.65,0,0,0-2.87.53V378.6l5-5a1.55,1.55,0,0,0,.45-1.09v-8.75a1.55,1.55,0,0,0-3.09,0v8.11l-5,5a1.55,1.55,0,0,0-.45,1.09v5.45a4.79,4.79,0,0,0-2-.44H556.92a11.76,11.76,0,0,0-8.37,3.47l-0.11.11a8,8,0,0,0,0,11.24l0.12,0.12a8.24,8.24,0,0,0,.89.76l-1.16,1.16a1.55,1.55,0,0,0,2.19,2.19l2-2a8.14,8.14,0,0,0,1.86.22h0.41a31.4,31.4,0,0,0,4.39-.31l-7.51,7.51a1.55,1.55,0,0,0,2.19,2.19l3.9-3.9a5.65,5.65,0,0,0,6.56,6.56l-3.9,3.9a1.55,1.55,0,0,0,2.19,2.19l7.51-7.51a31.46,31.46,0,0,0-.31,4.39v0.41a8.14,8.14,0,0,0,.22,1.86l-2,2a1.55,1.55,0,1,0,2.19,2.19l1.16-1.16a8.23,8.23,0,0,0,.76.89l0.12,0.12a8,8,0,0,0,11.24,0l0.11-.11a11.76,11.76,0,0,0,3.47-8.37V396.82Zm-23.78-1a27.89,27.89,0,0,1-7.93,1.32l4.55-4.55h8.31A17.83,17.83,0,0,0,563.25,395.86Zm-4-6.32a1.55,1.55,0,0,0-1.09.45l-6.46,6.46a5,5,0,0,1-.93-0.73l-0.12-.12a4.86,4.86,0,0,1,0-6.86l0.11-.11a8.69,8.69,0,0,1,6.18-2.56h16.26a1.71,1.71,0,0,1,.74.17,12,12,0,0,0-2.32,3.3H559.23ZM588.47,381a3.21,3.21,0,0,1,.29.26,3.06,3.06,0,0,1,.9,2,3.1,3.1,0,0,1-.9,2.37l-0.14.14a0.58,0.58,0,0,1-.82,0l-3.56-3.56a0.58,0.58,0,0,1,0-.82A3.24,3.24,0,0,1,588.47,381Zm-5.18,5.72c1.48,1.48.73,4.74-1.64,7.11s-5.63,3.12-7.11,1.64-0.73-4.74,1.64-7.11S581.81,385.23,583.29,386.71Zm-21.88,21.88c-1.55-1.55-.59-6,3.28-9.84a13.86,13.86,0,0,1,6.18-3.77,5.52,5.52,0,0,0,4.16,4.16,13.86,13.86,0,0,1-3.77,6.18C567.39,409.17,563,410.14,561.41,408.59Zm11.41,6.1a27.89,27.89,0,0,1,1.32-7.93,17.83,17.83,0,0,0,3.23-4.93v8.31Zm8.43,4.69a4.86,4.86,0,0,1-6.86,0l-0.12-.12a5,5,0,0,1-.73-0.93l6.46-6.46a1.55,1.55,0,0,0,.45-1.09V398.4a12,12,0,0,0,3.3-2.32,1.71,1.71,0,0,1,.17.74v16.26a8.69,8.69,0,0,1-2.56,6.18Z"/><path class="cls-2" d="M562.49,597.21l1.51-1.51,5.66,1.89a1.55,1.55,0,0,0,1.92-.88l3.08-7.47a4.61,4.61,0,0,0,1,1.41l-1,6.89a1.55,1.55,0,0,0,.44,1.31l2.73,2.73-0.44,3.06a1.55,1.55,0,1,0,3.06.44l0.55-3.83a1.55,1.55,0,0,0-.44-1.31l-2.73-2.73,0.75-5.22a4.67,4.67,0,0,0,.74,0,6.15,6.15,0,0,0,1.8,4.13,9.22,9.22,0,0,0,4.19,2.23,7.1,7.1,0,0,1,1,5.3l-0.18.92a1.55,1.55,0,0,0,.19,1.1l3.28,5.47a1.55,1.55,0,0,0,2.65-1.59l-3-5,0.07-.33a10.19,10.19,0,0,0-.56-5.85,4.45,4.45,0,0,0,3.33-3.33,10.2,10.2,0,0,0,5.85.56l0.33-.07,5,3a1.55,1.55,0,0,0,1.59-2.65l-5.47-3.28a1.55,1.55,0,0,0-1.1-.19l-0.92.18a7.1,7.1,0,0,1-5.3-1,9.22,9.22,0,0,0-2.23-4.19,6.16,6.16,0,0,0-4.13-1.8,4.67,4.67,0,0,0,0-.74l5.22-.75,2.73,2.73a1.55,1.55,0,0,0,1.31.44l3.83-.55a1.55,1.55,0,0,0-.44-3.06l-3.06.44-2.73-2.73a1.55,1.55,0,0,0-1.31-.44l-6.89,1a4.61,4.61,0,0,0-1.41-1l7.47-3.08a1.55,1.55,0,0,0,.88-1.92l-1.89-5.66,1.51-1.51a1.55,1.55,0,0,0-2.19-2.19l-2.19,2.19a1.55,1.55,0,0,0-.37,1.58l1.73,5.19-5.68,2.34,1.42-4.25a1.55,1.55,0,0,0-.37-1.58l-7-7,1.89-5.66a1.55,1.55,0,1,0-2.93-1L573.06,565a1.54,1.54,0,0,0,.37,1.58l7,7-1.13,3.38a4.64,4.64,0,0,0-3-.76,6.15,6.15,0,0,0-1.8-4.13L573.43,571c-4-4-11.23-8.45-14.22-5.47s1.5,10.25,5.47,14.22l1.09,1.09a6.16,6.16,0,0,0,4.13,1.8,4.64,4.64,0,0,0,.76,3l-3.38,1.13-7-7a1.55,1.55,0,0,0-1.4-.42l-5.47,1.09a1.55,1.55,0,0,0,.61,3l4.66-.93,7.07,7.07a1.55,1.55,0,0,0,1.58.37l4.25-1.42-2.34,5.68-5.19-1.73a1.55,1.55,0,0,0-1.58.37L560.31,595A1.55,1.55,0,0,0,562.49,597.21Zm4.38-19.69c-4.35-4.35-6.08-9.15-5.47-9.84s5.49,1.12,9.84,5.47l1.09,1.09a3.09,3.09,0,0,1-4.38,4.38Zm6.56,4.38,2.19-2.19a1.55,1.55,0,0,1,2.19,2.19l-2.19,2.19A1.55,1.55,0,0,1,573.43,581.89Zm4.38,4.38,2.19-2.19a1.55,1.55,0,0,1,2.19,2.19L580,588.46A1.55,1.55,0,0,1,577.81,586.27Zm5.47,3.28a3.1,3.1,0,0,1,4.38,0c1.36,1.36,2.15,4.41,1.09,5.47s-4.11.26-5.47-1.09A3.1,3.1,0,0,1,583.27,589.55Z"/><path class="cls-2" d="M368.17,566.13l1.51,1.51-1.89,5.66a1.55,1.55,0,0,0,.88,1.92l5.17,2.13a8.68,8.68,0,0,0-.34,1l-1.23,1.23-5-.71a1.55,1.55,0,0,0-1.31.44L363.25,582l-3.06-.44a1.55,1.55,0,1,0-.44,3.06l3.83,0.55a1.55,1.55,0,0,0,1.31-.44l2.73-2.73,2.4,0.34a7.76,7.76,0,0,0-.1,6.77,4.6,4.6,0,0,0-1.76,1.1L366,588a1.55,1.55,0,0,0-1.89-.23l-5.47,3.28a1.55,1.55,0,0,0,1.59,2.65l0.33-.2,4.1-2.46,2.18,2.18a4.62,4.62,0,0,0,4.88,4.88l2.18,2.18-2.46,4.1-0.2.33a1.55,1.55,0,0,0,2.65,1.59l3.28-5.47a1.55,1.55,0,0,0-.23-1.89l-2.19-2.19a4.6,4.6,0,0,0,1.1-1.76,7.76,7.76,0,0,0,6.77-.1l0.34,2.4L380.2,600a1.55,1.55,0,0,0-.44,1.31l0.55,3.83a1.55,1.55,0,1,0,3.06-.44l-0.44-3.06,2.73-2.73a1.55,1.55,0,0,0,.44-1.31l-0.71-5,1.23-1.23a8.62,8.62,0,0,0,1-.34l2.13,5.17a1.55,1.55,0,0,0,1.92.88l5.66-1.89,1.51,1.51a1.55,1.55,0,0,0,2.19-2.19l-2.19-2.19a1.55,1.55,0,0,0-1.58-.37L392,593.74l-1.75-4.26a42.91,42.91,0,0,0,4-3.54l4,1.34a1.55,1.55,0,0,0,1.58-.37l7-7,5.66,1.89a1.55,1.55,0,1,0,1-2.93l-6.56-2.19a1.54,1.54,0,0,0-1.58.37l-7,7-1.66-.55a20.73,20.73,0,0,0,5-9.38c4.42-4.57,5.54-10.43,2.52-13.45s-8.88-1.9-13.45,2.52a20.71,20.71,0,0,0-9.38,5l-0.55-1.66,7-7a1.55,1.55,0,0,0,.42-1.4l-1.09-5.47a1.55,1.55,0,0,0-3,.61l0.93,4.66L378,565a1.55,1.55,0,0,0-.37,1.58l1.34,4a42.91,42.91,0,0,0-3.54,4l-4.26-1.75,1.73-5.19a1.55,1.55,0,0,0-.37-1.58l-2.19-2.19A1.55,1.55,0,0,0,368.17,566.13Zm2.19,28.44a1.55,1.55,0,1,1,2.19,0A1.55,1.55,0,0,1,370.36,594.57Zm5.47-3.28-2.19-2.19a4.65,4.65,0,0,1,0-6.56,7.72,7.72,0,0,0,6.58,2.17,7.72,7.72,0,0,0,2.17,6.58A4.65,4.65,0,0,1,375.83,591.29Zm18-9.3c-5.06,5.06-7,6.66-9.68,6.68a4.65,4.65,0,0,1,.38-6.13l14-14C399.83,571.71,398.37,577.5,393.87,582Zm8.2-19.14c1.07,1.07,1,3.41-.23,5.91a7.06,7.06,0,0,0-5.68-5.68C398.67,561.8,401,561.78,402.08,562.85Zm-5.71,3.52-14,14a4.65,4.65,0,0,1-6.13.38c0-2.63,1.62-4.62,6.68-9.68C387.43,566.56,393.22,565.1,396.37,566.37Z"/><path class="cls-2" d="M498.3,319.83a1.55,1.55,0,0,0-1.24-.62h-6.68l7.26-3.23a1.54,1.54,0,0,0,.47-0.32l7.73-7.73a1.55,1.55,0,0,0-2.19-2.19l-7.53,7.53-9.19,4.08,6.76-11.27a1.55,1.55,0,0,0,.14-1.29l-3.09-9.28a1.55,1.55,0,0,0-2.93,1l2.87,8.61-5.79,9.66a6.87,6.87,0,0,0-2.43-2.57l3.46-5a1.55,1.55,0,0,0,.18-1.42l-1.55-4.12a1.55,1.55,0,0,0-2.9,1.09l1.26,3.36-3,4.27-2.87-3.82,1.29-3.87a1.55,1.55,0,0,0-2.93-1l-1.55,4.64a1.55,1.55,0,0,0,.23,1.42l3.29,4.38a6.75,6.75,0,0,0-2.4,2.44l-5.69-9.48,2.87-8.61a1.55,1.55,0,0,0-2.93-1l-3.09,9.28a1.55,1.55,0,0,0,.14,1.29l6.76,11.27-9.19-4.08-7.53-7.53a1.55,1.55,0,0,0-2.19,2.19l7.73,7.73a1.55,1.55,0,0,0,.47.32l7.26,3.23H463a1.55,1.55,0,0,0-1.24.62l-9.26,12.38a1.55,1.55,0,0,0,2.48,1.85l8.79-11.76h7.35l-5.77,3.3a1.55,1.55,0,0,0-.72.92l-6.19,21.66a1.55,1.55,0,0,0,1.06,1.91,1.55,1.55,0,0,0,1.91-1.06l6-21.05,6.94-4a8.33,8.33,0,0,0,1.56,2.59c-3.18,2-5.38,6.24-5.38,11.18,0,6.82,4.21,12.38,9.38,12.38s9.38-5.55,9.38-12.37c0-4.94-2.21-9.19-5.38-11.18a8.36,8.36,0,0,0,1.59-2.66l7.12,4.12,6,21a1.55,1.55,0,0,0,3-.85l-6.19-21.57a1.55,1.55,0,0,0-.71-0.91l-5.84-3.38h7.43l8.77,11.75a1.55,1.55,0,1,0,2.48-1.85Zm-18.4-5.26c1.51,0,3.2,2.22,3.2,5.41s-1.68,5.41-3.2,5.41-3.2-2.22-3.2-5.41S478.39,314.57,479.9,314.57Zm6.29,23.2c0,5-2.88,9.28-6.29,9.28s-6.29-4.25-6.29-9.28,2.88-9.28,6.29-9.28S486.19,332.74,486.19,337.77Z"/><g class="cls-3"><path class="cls-4" d="M379.5,484.26a5.45,5.45,0,1,1-5.45,5.45,5.46,5.46,0,0,1,5.45-5.45m0-2.2a7.65,7.65,0,1,0,7.65,7.65,7.65,7.65,0,0,0-7.65-7.65h0Z"/></g><g class="cls-3"><path class="cls-4" d="M477.94,401.65l6.39,6.39-6.39,6.39L471.55,408l6.39-6.39m0-3.11-9.5,9.5,9.5,9.5,9.5-9.5-9.5-9.5h0Z"/></g><g class="cls-3"><path class="cls-4" d="M477.94,569.66l5.5,8.68h-11l5.5-8.68m0-4.11-9.5,15h19l-9.5-15h0Z"/></g><g class="cls-3"><path class="cls-4" d="M583.45,486.42v9h-9v-9h9m2.2-2.2H572.22v13.43h13.43V484.22h0Z"/></g><path class="cls-2" d="M827.84,587.29a6.2,6.2,0,0,1-.32,2l-3.09,9.28a6.18,6.18,0,0,1-5.2,4.19,9.27,9.27,0,1,1-14.29,11.79l-3.4-4.53v3.61a1.55,1.55,0,0,1-3.09,0V610l-3.4,4.53a9.28,9.28,0,1,1-14.29-11.79,6.18,6.18,0,0,1-5.2-4.19l-3.09-9.28a6.19,6.19,0,0,1,5.87-8.15c6.18,0,13.36,3.19,18.07,7.88a4.65,4.65,0,0,1,.38-0.4l-2.94-11.75a1.55,1.55,0,0,1,3-.75l2.8,11.22,0.33,0,0.34,0,2.8-11.22a1.55,1.55,0,0,1,3,.75l-2.94,11.75a4.65,4.65,0,0,1,.38.4c4.72-4.69,11.89-7.88,18.07-7.88A6.19,6.19,0,0,1,827.84,587.29Zm-46.41,12.38h15.39a21.34,21.34,0,0,1-1.46-7.34c-4-4.69-11.08-8.13-17-8.13a3.1,3.1,0,0,0-2.94,4.07l3.09,9.28A3.09,3.09,0,0,0,781.44,599.66Zm17,4.64a1.55,1.55,0,0,0-1.55-1.55h-9.28a6.19,6.19,0,1,0,5,9.9l5.57-7.42A1.53,1.53,0,0,0,798.45,604.3Zm3.09-12.37a1.55,1.55,0,0,0-3.09,0,18.21,18.21,0,0,0,1.55,7.32A18.21,18.21,0,0,0,801.55,591.93Zm17,17a6.19,6.19,0,0,0-6.19-6.19h-9.28a1.55,1.55,0,0,0-1.24,2.47l5.57,7.42A6.19,6.19,0,0,0,818.56,608.94Zm6.19-21.66a3.1,3.1,0,0,0-3.09-3.09c-5.94,0-13.05,3.44-17,8.13a21.31,21.31,0,0,1-1.46,7.34h15.39a3.09,3.09,0,0,0,2.94-2.11l3.09-9.28A3.1,3.1,0,0,0,824.75,587.29Z"/><path class="cls-2" d="M706,485.66l-1.51,1.51-5.66-1.89a1.55,1.55,0,0,0-1.92.88l-2.84,6.89h-0.36l-1.39-1.39,1-6.89a1.55,1.55,0,0,0-.44-1.31l-2.73-2.73,0.44-3.06a1.55,1.55,0,1,0-3.06-.44L687,481.07a1.55,1.55,0,0,0,.44,1.31l2.73,2.73-0.68,4.76a4.66,4.66,0,0,0-3,.36l-0.18-.2a4.62,4.62,0,0,0-3.51-1.35,9.28,9.28,0,0,1,.23-12.87,1.55,1.55,0,0,0-2.19-2.19,12.39,12.39,0,0,0-1,16.34l-0.08.07-0.07.08a12.39,12.39,0,0,0-16.34,1,1.55,1.55,0,0,0,2.19,2.19,9.28,9.28,0,0,1,12.87-.23,4.62,4.62,0,0,0,1.35,3.51l0.2,0.18a4.66,4.66,0,0,0-.36,3l-4.76.68-2.73-2.73a1.55,1.55,0,0,0-1.31-.44l-3.83.55a1.55,1.55,0,1,0,.44,3.06l3.06-.44,2.73,2.73a1.55,1.55,0,0,0,1.31.44l6.89-1,1.39,1.39c0,0.12,0,.24,0,0.36l-6.89,2.84a1.55,1.55,0,0,0-.88,1.92l1.89,5.66-1.51,1.51a1.55,1.55,0,0,0,2.19,2.19l2.19-2.19a1.55,1.55,0,0,0,.37-1.58l-1.73-5.19,5.48-2.26,0.25,0.28,1.09,1.09c0.66,0.66,1.36,1.33,2.08,2l-1.36,4.08a1.55,1.55,0,0,0,.37,1.58l7,7-1.89,5.66a1.55,1.55,0,1,0,2.93,1l2.19-6.56a1.55,1.55,0,0,0-.37-1.58l-7-7,0.63-1.9c7.85,6.76,17.65,12.89,20.57,10a2.47,2.47,0,0,1,2.19-2.19c2.91-2.91-3.22-12.71-10-20.57l1.9-.63,7,7a1.55,1.55,0,0,0,1.4.42l5.47-1.09a1.55,1.55,0,0,0-.61-3l-4.66.93L706,496.6a1.55,1.55,0,0,0-1.58-.37l-4.08,1.36c-0.67-.72-1.34-1.42-2-2.08l-1.09-1.09-0.28-.25,2.26-5.48,5.19,1.73A1.55,1.55,0,0,0,706,490l2.19-2.19A1.55,1.55,0,0,0,706,485.66Zm-24.06,6.56a1.55,1.55,0,0,1,2.19,0l-2.19,2.19A1.55,1.55,0,0,1,681.93,492.22Zm1.09,7.66a1.55,1.55,0,0,1,0-2.19l4.38-4.38a1.55,1.55,0,0,1,2.19,0l1.09,1.09L684.12,501Zm13.13-2.19c9.43,9.43,13.89,18.16,14.1,20.57l-0.46-.13a1.55,1.55,0,0,0-2,2,4.37,4.37,0,0,1,.13.46c-2.41-.21-11.14-4.68-20.57-14.1l-1.09-1.09a1.55,1.55,0,0,1,0-2.19l6.56-6.56a1.55,1.55,0,0,1,2.19,0Z"/><path class="cls-2" d="M907,503.48a4.81,4.81,0,0,0-.44-2H912a1.54,1.54,0,0,0,1.09-.45l5-5h8.11a1.55,1.55,0,0,0,0-3.09h-8.75a1.54,1.54,0,0,0-1.09.45l-5,5h-4.79a8.67,8.67,0,0,0,.53-2.87,3.67,3.67,0,0,0,3.66-.92l0.14-.14a6.15,6.15,0,0,0,.95-7.51l1.24-1.24a1.55,1.55,0,1,0-2.19-2.19l-1.24,1.24a6.33,6.33,0,0,0-7.65,1.09,3.67,3.67,0,0,0-.92,3.67,8.65,8.65,0,0,0-2.87.53v-4.79l5-5a1.55,1.55,0,0,0,.45-1.09v-8.75a1.55,1.55,0,1,0-3.09,0v8.11l-5,5a1.55,1.55,0,0,0-.45,1.09v5.45a4.79,4.79,0,0,0-2-.44H876.92a11.76,11.76,0,0,0-8.37,3.47l-0.11.11a8,8,0,0,0,0,11.24l0.12,0.12a8.24,8.24,0,0,0,.89.76l-1.16,1.16a1.55,1.55,0,0,0,2.19,2.19l2-2a8.14,8.14,0,0,0,1.86.22h0.41a31.4,31.4,0,0,0,4.39-.31l-7.51,7.51a1.55,1.55,0,0,0,2.19,2.19l3.9-3.9a5.65,5.65,0,0,0,6.56,6.56l-3.9,3.9a1.55,1.55,0,1,0,2.19,2.19l7.51-7.51a31.46,31.46,0,0,0-.31,4.39v0.41a8.14,8.14,0,0,0,.22,1.86l-2,2a1.55,1.55,0,1,0,2.19,2.19l1.16-1.16a8.23,8.23,0,0,0,.76.89l0.12,0.12a8,8,0,0,0,11.24,0l0.11-.11a11.76,11.76,0,0,0,3.47-8.37V503.48Zm-23.78-1a27.89,27.89,0,0,1-7.93,1.32l4.55-4.55h8.31A17.83,17.83,0,0,0,883.25,502.53Zm-4-6.32a1.55,1.55,0,0,0-1.09.45l-6.46,6.46a5,5,0,0,1-.93-0.73l-0.12-.12a4.86,4.86,0,0,1,0-6.86l0.11-.11a8.69,8.69,0,0,1,6.18-2.56h16.26a1.71,1.71,0,0,1,.74.17,12,12,0,0,0-2.32,3.3H879.23Zm29.25-8.55a3.21,3.21,0,0,1,.29.26,3.06,3.06,0,0,1,.9,2,3.1,3.1,0,0,1-.9,2.37l-0.14.14a0.58,0.58,0,0,1-.82,0l-3.56-3.56a0.58,0.58,0,0,1,0-.82A3.24,3.24,0,0,1,908.47,487.65Zm-5.18,5.72c1.48,1.48.73,4.74-1.64,7.11s-5.63,3.12-7.11,1.64-0.73-4.74,1.64-7.11S901.81,491.9,903.29,493.38Zm-21.88,21.88c-1.55-1.55-.59-6,3.28-9.84a13.86,13.86,0,0,1,6.18-3.77,5.52,5.52,0,0,0,4.16,4.16,13.86,13.86,0,0,1-3.77,6.18C887.39,515.84,883,516.81,881.41,515.25Zm11.41,6.1a27.89,27.89,0,0,1,1.32-7.93,17.83,17.83,0,0,0,3.23-4.93v8.31Zm8.43,4.69a4.86,4.86,0,0,1-6.86,0l-0.12-.12a5,5,0,0,1-.73-0.93l6.46-6.46a1.55,1.55,0,0,0,.45-1.09V505.07a12,12,0,0,0,3.3-2.32,1.71,1.71,0,0,1,.17.74v16.26a8.69,8.69,0,0,1-2.56,6.18Z"/><path class="cls-2" d="M882.49,703.87l1.51-1.51,5.66,1.89a1.55,1.55,0,0,0,1.92-.88l3.08-7.47a4.61,4.61,0,0,0,1,1.41l-1,6.89a1.55,1.55,0,0,0,.44,1.31l2.73,2.73-0.44,3.06a1.55,1.55,0,1,0,3.06.44l0.55-3.83a1.55,1.55,0,0,0-.44-1.31l-2.73-2.73,0.75-5.22a4.67,4.67,0,0,0,.74,0,6.15,6.15,0,0,0,1.8,4.13,9.22,9.22,0,0,0,4.19,2.23,7.1,7.1,0,0,1,1,5.3l-0.18.92a1.55,1.55,0,0,0,.19,1.1l3.28,5.47a1.55,1.55,0,0,0,2.65-1.59l-3-5,0.07-.33a10.19,10.19,0,0,0-.56-5.85,4.45,4.45,0,0,0,3.33-3.33,10.2,10.2,0,0,0,5.85.56l0.33-.07,5,3a1.55,1.55,0,0,0,1.59-2.65l-5.47-3.28a1.55,1.55,0,0,0-1.1-.19l-0.92.18a7.1,7.1,0,0,1-5.3-1,9.22,9.22,0,0,0-2.23-4.19,6.16,6.16,0,0,0-4.13-1.8,4.67,4.67,0,0,0,0-.74l5.22-.75,2.73,2.73a1.55,1.55,0,0,0,1.31.44l3.83-.55a1.55,1.55,0,1,0-.44-3.06l-3.06.44L912.57,688a1.55,1.55,0,0,0-1.31-.44l-6.89,1a4.61,4.61,0,0,0-1.41-1l7.47-3.08a1.55,1.55,0,0,0,.88-1.92l-1.89-5.66,1.51-1.51a1.55,1.55,0,0,0-2.19-2.19l-2.19,2.19a1.55,1.55,0,0,0-.37,1.58l1.73,5.19-5.68,2.34,1.42-4.25a1.55,1.55,0,0,0-.37-1.58l-7-7,1.89-5.66a1.55,1.55,0,1,0-2.93-1l-2.19,6.56a1.54,1.54,0,0,0,.37,1.58l7,7-1.13,3.38a4.64,4.64,0,0,0-3-.76,6.15,6.15,0,0,0-1.8-4.13l-1.09-1.09c-4-4-11.23-8.45-14.22-5.47s1.5,10.25,5.47,14.22l1.09,1.09a6.16,6.16,0,0,0,4.13,1.8,4.64,4.64,0,0,0,.76,3l-3.38,1.13-7-7a1.55,1.55,0,0,0-1.4-.42L873.44,687a1.55,1.55,0,0,0,.61,3l4.66-.93,7.07,7.07a1.55,1.55,0,0,0,1.58.37l4.25-1.42-2.34,5.68-5.19-1.73a1.55,1.55,0,0,0-1.58.37l-2.19,2.19A1.55,1.55,0,0,0,882.49,703.87Zm4.38-19.69c-4.35-4.35-6.08-9.15-5.47-9.84s5.49,1.12,9.84,5.47l1.09,1.09a3.09,3.09,0,0,1-4.38,4.38Zm6.56,4.38,2.19-2.19a1.55,1.55,0,0,1,2.19,2.19l-2.19,2.19A1.55,1.55,0,0,1,893.43,688.56Zm4.38,4.38,2.19-2.19a1.55,1.55,0,0,1,2.19,2.19L900,695.12A1.55,1.55,0,0,1,897.81,692.93Zm5.47,3.28a3.1,3.1,0,0,1,4.38,0c1.36,1.36,2.15,4.41,1.09,5.47s-4.11.26-5.47-1.09A3.1,3.1,0,0,1,903.27,696.22Z"/><path class="cls-2" d="M688.17,672.8l1.51,1.51L687.8,680a1.55,1.55,0,0,0,.88,1.92l5.17,2.13a8.68,8.68,0,0,0-.34,1l-1.23,1.23-5-.71a1.55,1.55,0,0,0-1.31.44l-2.73,2.73-3.06-.44a1.55,1.55,0,1,0-.44,3.06l3.83,0.55a1.55,1.55,0,0,0,1.31-.44l2.73-2.73L690,689a7.76,7.76,0,0,0-.1,6.77,4.6,4.6,0,0,0-1.76,1.1L686,694.67a1.55,1.55,0,0,0-1.89-.23l-5.47,3.28a1.55,1.55,0,0,0,1.59,2.65l0.33-.2,4.1-2.46,2.18,2.18a4.62,4.62,0,0,0,4.88,4.88l2.18,2.18-2.46,4.1-0.2.33a1.55,1.55,0,0,0,2.65,1.59l3.28-5.47a1.55,1.55,0,0,0-.23-1.89l-2.19-2.19a4.6,4.6,0,0,0,1.1-1.76,7.76,7.76,0,0,0,6.77-.1l0.34,2.4-2.73,2.73a1.55,1.55,0,0,0-.44,1.31l0.55,3.83a1.55,1.55,0,0,0,3.06-.44l-0.44-3.06,2.73-2.73a1.55,1.55,0,0,0,.44-1.31l-0.71-5,1.23-1.23a8.62,8.62,0,0,0,1-.34l2.13,5.17a1.55,1.55,0,0,0,1.92.88l5.66-1.89,1.51,1.51a1.55,1.55,0,0,0,2.19-2.19L718.8,699a1.55,1.55,0,0,0-1.58-.37L712,700.4l-1.75-4.26a42.91,42.91,0,0,0,4-3.54l4,1.34a1.55,1.55,0,0,0,1.58-.37l7-7,5.66,1.89a1.55,1.55,0,1,0,1-2.93l-6.56-2.19a1.54,1.54,0,0,0-1.58.37l-7,7-1.66-.55a20.73,20.73,0,0,0,5-9.38c4.42-4.57,5.54-10.43,2.52-13.45s-8.88-1.9-13.45,2.52a20.71,20.71,0,0,0-9.38,5l-0.55-1.66,7-7a1.55,1.55,0,0,0,.42-1.4l-1.09-5.47a1.55,1.55,0,0,0-3,.61l0.93,4.66L698,671.7a1.55,1.55,0,0,0-.37,1.58l1.34,4a42.91,42.91,0,0,0-3.54,4l-4.26-1.75,1.73-5.19a1.55,1.55,0,0,0-.37-1.58l-2.19-2.19A1.55,1.55,0,0,0,688.17,672.8Zm2.19,28.44a1.55,1.55,0,1,1,2.19,0A1.55,1.55,0,0,1,690.36,701.23Zm5.47-3.28-2.19-2.19a4.65,4.65,0,0,1,0-6.56,7.72,7.72,0,0,0,6.58,2.17,7.72,7.72,0,0,0,2.17,6.58A4.65,4.65,0,0,1,695.83,698Zm18-9.3c-5.06,5.06-7,6.66-9.68,6.68a4.65,4.65,0,0,1,.38-6.13l14-14C719.83,678.37,718.37,684.16,713.87,688.66Zm8.2-19.14c1.07,1.07,1,3.41-.23,5.91a7.06,7.06,0,0,0-5.68-5.68C718.67,668.47,721,668.44,722.08,669.51ZM716.37,673l-14,14a4.65,4.65,0,0,1-6.13.38c0-2.63,1.62-4.62,6.68-9.68C707.43,673.23,713.22,671.76,716.37,673Z"/><path class="cls-2" d="M818.3,426.49a1.55,1.55,0,0,0-1.24-.62h-6.68l7.26-3.23a1.54,1.54,0,0,0,.47-0.32l7.73-7.73a1.55,1.55,0,1,0-2.19-2.19l-7.53,7.53L806.94,424l6.76-11.27a1.55,1.55,0,0,0,.14-1.29l-3.09-9.28a1.55,1.55,0,0,0-2.93,1l2.87,8.61-5.79,9.66a6.87,6.87,0,0,0-2.43-2.57l3.46-5a1.55,1.55,0,0,0,.18-1.42l-1.55-4.12a1.55,1.55,0,0,0-2.9,1.09l1.26,3.36L800,417l-2.87-3.82,1.29-3.87a1.55,1.55,0,0,0-2.93-1L793.89,413a1.55,1.55,0,0,0,.23,1.42l3.29,4.38a6.75,6.75,0,0,0-2.4,2.44l-5.69-9.48,2.87-8.61a1.55,1.55,0,0,0-2.93-1l-3.09,9.28a1.55,1.55,0,0,0,.14,1.29L793.06,424l-9.19-4.08-7.53-7.53a1.55,1.55,0,0,0-2.19,2.19l7.73,7.73a1.55,1.55,0,0,0,.47.32l7.26,3.23H783a1.55,1.55,0,0,0-1.24.62l-9.26,12.38a1.55,1.55,0,0,0,2.48,1.85L783.73,429h7.35l-5.77,3.3a1.55,1.55,0,0,0-.72.92l-6.19,21.66a1.55,1.55,0,0,0,1.06,1.91,1.55,1.55,0,0,0,1.91-1.06l6-21.05,6.94-4a8.33,8.33,0,0,0,1.56,2.59c-3.18,2-5.38,6.24-5.38,11.18,0,6.82,4.21,12.38,9.38,12.38s9.38-5.55,9.38-12.37c0-4.94-2.21-9.19-5.38-11.18a8.36,8.36,0,0,0,1.59-2.66l7.12,4.12,6,21a1.55,1.55,0,0,0,3-.85l-6.19-21.57a1.55,1.55,0,0,0-.71-0.91L808.85,429h7.43l8.77,11.75a1.55,1.55,0,0,0,2.48-1.85Zm-18.4-5.26c1.51,0,3.2,2.22,3.2,5.41s-1.68,5.41-3.2,5.41-3.2-2.22-3.2-5.41S798.39,421.23,799.9,421.23Zm6.29,23.2c0,5-2.88,9.28-6.29,9.28s-6.29-4.25-6.29-9.28,2.88-9.28,6.29-9.28S806.19,439.4,806.19,444.44Z"/><g class="cls-3"><path class="cls-4" d="M699.5,590.93a5.45,5.45,0,1,1-5.45,5.45,5.46,5.46,0,0,1,5.45-5.45m0-2.2a7.65,7.65,0,1,0,7.65,7.65,7.65,7.65,0,0,0-7.65-7.65h0Z"/></g><g class="cls-3"><path class="cls-4" d="M797.94,508.32l6.39,6.39-6.39,6.39-6.39-6.39,6.39-6.39m0-3.11-9.5,9.5,9.5,9.5,9.5-9.5-9.5-9.5h0Z"/></g><g class="cls-3"><path class="cls-4" d="M797.94,676.32l5.5,8.68h-11l5.5-8.68m0-4.11-9.5,15h19l-9.5-15h0Z"/></g><g class="cls-3"><path class="cls-4" d="M903.45,593.09v9h-9v-9h9m2.2-2.2H892.22v13.43h13.43V590.89h0Z"/></g><path class="cls-2" d="M187.84,54a6.2,6.2,0,0,1-.32,2l-3.09,9.28a6.18,6.18,0,0,1-5.2,4.19,9.27,9.27,0,1,1-14.29,11.79l-3.4-4.53v3.61a1.55,1.55,0,1,1-3.09,0V76.64l-3.4,4.53a9.28,9.28,0,1,1-14.29-11.79,6.18,6.18,0,0,1-5.2-4.19l-3.09-9.28a6.19,6.19,0,0,1,5.87-8.15c6.18,0,13.36,3.19,18.07,7.88a4.65,4.65,0,0,1,.38-0.4L153.86,43.5a1.55,1.55,0,0,1,3-.75L159.67,54,160,54l0.34,0,2.8-11.22a1.55,1.55,0,0,1,3,.75l-2.94,11.75a4.65,4.65,0,0,1,.38.4c4.72-4.69,11.89-7.88,18.07-7.88A6.19,6.19,0,0,1,187.84,54ZM141.44,66.33h15.39A21.34,21.34,0,0,1,155.37,59c-4-4.69-11.08-8.13-17-8.13a3.1,3.1,0,0,0-2.94,4.07l3.09,9.28A3.09,3.09,0,0,0,141.44,66.33Zm17,4.64a1.55,1.55,0,0,0-1.55-1.55h-9.28a6.19,6.19,0,1,0,5,9.9l5.57-7.42A1.53,1.53,0,0,0,158.45,71Zm3.09-12.37a1.55,1.55,0,0,0-3.09,0A18.21,18.21,0,0,0,160,65.92,18.21,18.21,0,0,0,161.55,58.59Zm17,17a6.19,6.19,0,0,0-6.19-6.19h-9.28a1.55,1.55,0,0,0-1.24,2.47l5.57,7.42A6.19,6.19,0,0,0,178.56,75.61ZM184.75,54a3.1,3.1,0,0,0-3.09-3.09c-5.94,0-13.05,3.44-17,8.13a21.31,21.31,0,0,1-1.46,7.34h15.39a3.09,3.09,0,0,0,2.94-2.11l3.09-9.28A3.1,3.1,0,0,0,184.75,54Z"/><path class="cls-2" d="M242.49,170.54L244,169l5.66,1.89a1.55,1.55,0,0,0,1.92-.88l3.08-7.47a4.61,4.61,0,0,0,1,1.41l-1,6.89a1.55,1.55,0,0,0,.44,1.31l2.73,2.73L257.37,178a1.55,1.55,0,0,0,3.06.44l0.55-3.83a1.55,1.55,0,0,0-.44-1.31l-2.73-2.73,0.75-5.22a4.67,4.67,0,0,0,.74,0,6.15,6.15,0,0,0,1.8,4.13,9.22,9.22,0,0,0,4.19,2.23,7.1,7.1,0,0,1,1,5.3l-0.18.92a1.55,1.55,0,0,0,.19,1.1l3.28,5.47a1.55,1.55,0,0,0,2.65-1.59l-3-5,0.07-.33a10.19,10.19,0,0,0-.56-5.85,4.45,4.45,0,0,0,3.33-3.33A10.2,10.2,0,0,0,278,169l0.33-.07,5,3a1.55,1.55,0,0,0,1.59-2.65l-5.47-3.28a1.55,1.55,0,0,0-1.1-.19l-0.92.18a7.1,7.1,0,0,1-5.3-1,9.22,9.22,0,0,0-2.23-4.19,6.16,6.16,0,0,0-4.13-1.8,4.67,4.67,0,0,0,0-.74l5.22-.75,2.73,2.73a1.55,1.55,0,0,0,1.31.44l3.83-.55a1.55,1.55,0,1,0-.44-3.06l-3.06.44-2.73-2.73a1.55,1.55,0,0,0-1.31-.44l-6.89,1a4.61,4.61,0,0,0-1.41-1l7.47-3.08a1.55,1.55,0,0,0,.88-1.92l-1.89-5.66,1.51-1.51a1.55,1.55,0,1,0-2.19-2.19l-2.19,2.19a1.55,1.55,0,0,0-.37,1.58l1.73,5.19-5.68,2.34,1.42-4.25a1.55,1.55,0,0,0-.37-1.58l-7-7,1.89-5.66a1.55,1.55,0,1,0-2.93-1l-2.19,6.56a1.54,1.54,0,0,0,.37,1.58l7,7-1.13,3.38a4.64,4.64,0,0,0-3-.76,6.15,6.15,0,0,0-1.8-4.13l-1.09-1.09c-4-4-11.23-8.45-14.22-5.47s1.5,10.25,5.47,14.22l1.09,1.09a6.16,6.16,0,0,0,4.13,1.8,4.64,4.64,0,0,0,.76,3L247.29,160l-7-7a1.55,1.55,0,0,0-1.4-.42l-5.47,1.09a1.55,1.55,0,0,0,.61,3l4.66-.93,7.07,7.07a1.55,1.55,0,0,0,1.58.37l4.25-1.42-2.34,5.68-5.19-1.73a1.55,1.55,0,0,0-1.58.37l-2.19,2.19A1.55,1.55,0,0,0,242.49,170.54Zm4.38-19.69c-4.35-4.35-6.08-9.15-5.47-9.84s5.49,1.12,9.84,5.47l1.09,1.09a3.09,3.09,0,1,1-4.38,4.38Zm6.56,4.38,2.19-2.19a1.55,1.55,0,0,1,2.19,2.19l-2.19,2.19A1.55,1.55,0,0,1,253.43,155.23Zm4.38,4.38,2.19-2.19a1.55,1.55,0,1,1,2.19,2.19L260,161.79A1.55,1.55,0,0,1,257.81,159.6Zm5.47,3.28a3.1,3.1,0,0,1,4.38,0c1.36,1.36,2.15,4.41,1.09,5.47s-4.11.26-5.47-1.09A3.1,3.1,0,0,1,263.27,162.88Z"/><path class="cls-2" d="M48.17,139.46L49.68,141l-1.89,5.66a1.55,1.55,0,0,0,.88,1.92l5.17,2.13a8.68,8.68,0,0,0-.34,1l-1.23,1.23-5-.71a1.55,1.55,0,0,0-1.31.44l-2.73,2.73-3.06-.44a1.55,1.55,0,0,0-.44,3.06l3.83,0.55a1.55,1.55,0,0,0,1.31-.44l2.73-2.73,2.4,0.34a7.76,7.76,0,0,0-.1,6.77,4.6,4.6,0,0,0-1.76,1.1L46,161.34a1.55,1.55,0,0,0-1.89-.23l-5.47,3.28A1.55,1.55,0,0,0,40.21,167l0.33-.2,4.1-2.46,2.18,2.18a4.62,4.62,0,0,0,4.88,4.88l2.18,2.18-2.46,4.1-0.2.33a1.55,1.55,0,0,0,2.65,1.59l3.28-5.47a1.55,1.55,0,0,0-.23-1.89l-2.19-2.19a4.6,4.6,0,0,0,1.1-1.76,7.76,7.76,0,0,0,6.77-.1l0.34,2.4-2.73,2.73a1.55,1.55,0,0,0-.44,1.31l0.55,3.83a1.55,1.55,0,1,0,3.06-.44L62.94,175l2.73-2.73a1.55,1.55,0,0,0,.44-1.31l-0.71-5,1.23-1.23a8.62,8.62,0,0,0,1-.34l2.13,5.17a1.55,1.55,0,0,0,1.92.88l5.66-1.89,1.51,1.51A1.55,1.55,0,1,0,81,167.9l-2.19-2.19a1.55,1.55,0,0,0-1.58-.37L72,167.07l-1.75-4.26a42.91,42.91,0,0,0,4-3.54l4,1.34a1.55,1.55,0,0,0,1.58-.37l7-7,5.66,1.89a1.55,1.55,0,1,0,1-2.93L86.94,150a1.54,1.54,0,0,0-1.58.37l-7,7-1.66-.55a20.73,20.73,0,0,0,5-9.38c4.42-4.57,5.54-10.43,2.52-13.45s-8.88-1.9-13.45,2.52a20.71,20.71,0,0,0-9.38,5l-0.55-1.66,7-7a1.55,1.55,0,0,0,.42-1.4L67.19,126a1.55,1.55,0,0,0-3,.61l0.93,4.66L58,138.37a1.55,1.55,0,0,0-.37,1.58L59,144a42.91,42.91,0,0,0-3.54,4l-4.26-1.75L52.92,141a1.55,1.55,0,0,0-.37-1.58l-2.19-2.19A1.55,1.55,0,1,0,48.17,139.46Zm2.19,28.44a1.55,1.55,0,1,1,2.19,0A1.55,1.55,0,0,1,50.36,167.9Zm5.47-3.28-2.19-2.19a4.65,4.65,0,0,1,0-6.56A7.72,7.72,0,0,0,60.22,158a7.72,7.72,0,0,0,2.17,6.58A4.65,4.65,0,0,1,55.83,164.62Zm18-9.3c-5.06,5.06-7,6.66-9.68,6.68a4.65,4.65,0,0,1,.38-6.13l14-14C79.83,145,78.37,150.83,73.87,155.32Zm8.2-19.14c1.07,1.07,1,3.41-.23,5.91a7.06,7.06,0,0,0-5.68-5.68C78.67,135.13,81,135.11,82.08,136.18Zm-5.71,3.52-14,14a4.65,4.65,0,0,1-6.13.38c0-2.63,1.62-4.62,6.68-9.68C67.43,139.89,73.22,138.43,76.37,139.7Z"/><g class="cls-3"><path class="cls-4" d="M59.5,57.59A5.45,5.45,0,1,1,54,63a5.46,5.46,0,0,1,5.45-5.45m0-2.2A7.65,7.65,0,1,0,67.15,63a7.65,7.65,0,0,0-7.65-7.65h0Z"/></g><g class="cls-3"><path class="cls-4" d="M157.94,143l5.5,8.68h-11l5.5-8.68m0-4.11-9.5,15h19l-9.5-15h0Z"/></g><g class="cls-3"><path class="cls-4" d="M263.45,59.76v9h-9v-9h9m2.2-2.2H252.22V71h13.43V57.56h0Z"/></g><path class="cls-2" d="M507.84,160.62a6.2,6.2,0,0,1-.32,2l-3.09,9.28a6.18,6.18,0,0,1-5.2,4.19,9.27,9.27,0,1,1-14.29,11.79l-3.4-4.53v3.61a1.55,1.55,0,0,1-3.09,0v-3.61l-3.4,4.53A9.28,9.28,0,1,1,460.76,176a6.18,6.18,0,0,1-5.2-4.19l-3.09-9.28a6.19,6.19,0,0,1,5.87-8.15c6.18,0,13.36,3.19,18.07,7.88a4.65,4.65,0,0,1,.38-0.4l-2.94-11.75a1.55,1.55,0,0,1,3-.75l2.8,11.22,0.33,0,0.34,0,2.8-11.22a1.55,1.55,0,0,1,3,.75l-2.94,11.75a4.65,4.65,0,0,1,.38.4c4.72-4.69,11.89-7.88,18.07-7.88A6.19,6.19,0,0,1,507.84,160.62ZM461.44,173h15.39a21.34,21.34,0,0,1-1.46-7.34c-4-4.69-11.08-8.13-17-8.13a3.1,3.1,0,0,0-2.94,4.07l3.09,9.28A3.09,3.09,0,0,0,461.44,173Zm17,4.64a1.55,1.55,0,0,0-1.55-1.55h-9.28a6.19,6.19,0,1,0,5,9.9l5.57-7.42A1.53,1.53,0,0,0,478.45,177.63Zm3.09-12.37a1.55,1.55,0,0,0-3.09,0,18.21,18.21,0,0,0,1.55,7.32A18.21,18.21,0,0,0,481.55,165.26Zm17,17a6.19,6.19,0,0,0-6.19-6.19h-9.28a1.55,1.55,0,0,0-1.24,2.47l5.57,7.42A6.19,6.19,0,0,0,498.56,182.28Zm6.19-21.66a3.1,3.1,0,0,0-3.09-3.09c-5.94,0-13.05,3.44-17,8.13a21.31,21.31,0,0,1-1.46,7.34h15.39a3.09,3.09,0,0,0,2.94-2.11l3.09-9.28A3.1,3.1,0,0,0,504.75,160.62Z"/><path class="cls-2" d="M386,59l-1.51,1.51-5.66-1.89a1.55,1.55,0,0,0-1.92.88l-2.84,6.89h-0.36L372.32,65l1-6.89a1.55,1.55,0,0,0-.44-1.31l-2.73-2.73L370.57,51a1.55,1.55,0,1,0-3.06-.44L367,54.4a1.55,1.55,0,0,0,.44,1.31l2.73,2.73-0.68,4.76a4.66,4.66,0,0,0-3,.36l-0.18-.2A4.62,4.62,0,0,0,362.8,62,9.28,9.28,0,0,1,363,49.15,1.55,1.55,0,0,0,360.84,47a12.39,12.39,0,0,0-1,16.34l-0.08.07-0.07.08a12.39,12.39,0,0,0-16.34,1,1.55,1.55,0,1,0,2.19,2.19,9.28,9.28,0,0,1,12.87-.23,4.62,4.62,0,0,0,1.35,3.51l0.2,0.18a4.66,4.66,0,0,0-.36,3l-4.76.68L352.09,71a1.55,1.55,0,0,0-1.31-.44l-3.83.55a1.55,1.55,0,1,0,.44,3.06l3.06-.44,2.73,2.73a1.55,1.55,0,0,0,1.31.44l6.89-1,1.39,1.39c0,0.12,0,.24,0,0.36l-6.89,2.84a1.55,1.55,0,0,0-.88,1.92l1.89,5.66-1.51,1.51a1.55,1.55,0,0,0,2.19,2.19l2.19-2.19a1.55,1.55,0,0,0,.37-1.58l-1.73-5.19,5.48-2.26,0.25,0.28L365.21,82c0.66,0.66,1.36,1.33,2.08,2L365.93,88a1.55,1.55,0,0,0,.37,1.58l7,7-1.89,5.66a1.55,1.55,0,1,0,2.93,1l2.19-6.56a1.55,1.55,0,0,0-.37-1.58l-7-7,0.63-1.9c7.85,6.76,17.65,12.89,20.57,10a2.5,2.5,0,0,0,.71-1.48,2.5,2.5,0,0,0,1.48-.71c2.91-2.91-3.22-12.71-10-20.57l1.9-.63,7,7a1.55,1.55,0,0,0,1.4.42l5.47-1.09a1.55,1.55,0,0,0-.61-3l-4.66.93L386,69.93a1.55,1.55,0,0,0-1.58-.37l-4.08,1.36c-0.67-.72-1.34-1.42-2-2.08l-1.09-1.09L377,67.49,379.22,62l5.19,1.73a1.55,1.55,0,0,0,1.58-.37l2.19-2.19A1.55,1.55,0,1,0,386,59Zm-24.06,6.56a1.55,1.55,0,0,1,2.19,0l-2.19,2.19A1.55,1.55,0,0,1,361.93,65.56ZM363,73.21A1.55,1.55,0,0,1,363,71l4.38-4.38a1.55,1.55,0,0,1,2.19,0l1.09,1.09-6.56,6.56ZM376.15,71c9.43,9.43,13.89,18.16,14.1,20.57l-0.46-.13a1.55,1.55,0,0,0-2,2,4.37,4.37,0,0,1,.13.46c-2.41-.21-11.14-4.68-20.57-14.1l-1.09-1.09a1.55,1.55,0,0,1,0-2.19l6.56-6.56a1.55,1.55,0,0,1,2.19,0Z"/><path class="cls-2" d="M587,76.82a4.81,4.81,0,0,0-.44-2H592a1.54,1.54,0,0,0,1.09-.45l5-5h8.11a1.55,1.55,0,1,0,0-3.09h-8.75a1.54,1.54,0,0,0-1.09.45l-5,5h-4.79a8.67,8.67,0,0,0,.53-2.87,3.67,3.67,0,0,0,3.66-.92l0.14-.14a6.15,6.15,0,0,0,.95-7.51l1.24-1.24a1.55,1.55,0,1,0-2.19-2.19l-1.24,1.24a6.33,6.33,0,0,0-7.65,1.09,3.67,3.67,0,0,0-.92,3.67,8.65,8.65,0,0,0-2.87.53V58.6l5-5a1.55,1.55,0,0,0,.45-1.09V43.74a1.55,1.55,0,0,0-3.09,0v8.11l-5,5a1.55,1.55,0,0,0-.45,1.09v5.45a4.79,4.79,0,0,0-2-.44H556.92a11.76,11.76,0,0,0-8.37,3.47l-0.11.11a8,8,0,0,0,0,11.24l0.12,0.12a8.24,8.24,0,0,0,.89.76l-1.16,1.16A1.55,1.55,0,0,0,550.48,82l2-2a8.14,8.14,0,0,0,1.86.22h0.41a31.4,31.4,0,0,0,4.39-.31l-7.51,7.51a1.55,1.55,0,0,0,2.19,2.19l3.9-3.9a5.65,5.65,0,0,0,6.56,6.56l-3.9,3.9a1.55,1.55,0,0,0,2.19,2.19L570,90.92a31.46,31.46,0,0,0-.31,4.39v0.41a8.14,8.14,0,0,0,.22,1.86l-2,2a1.55,1.55,0,1,0,2.19,2.19l1.16-1.16a8.23,8.23,0,0,0,.76.89l0.12,0.12a8,8,0,0,0,11.24,0l0.11-.11A11.76,11.76,0,0,0,587,93.08V76.82Zm-23.78-1a27.89,27.89,0,0,1-7.93,1.32l4.55-4.55h8.31A17.83,17.83,0,0,0,563.25,75.86Zm-4-6.32a1.55,1.55,0,0,0-1.09.45l-6.46,6.46a5,5,0,0,1-.93-0.73l-0.12-.12a4.86,4.86,0,0,1,0-6.86l0.11-.11a8.69,8.69,0,0,1,6.18-2.56h16.26a1.71,1.71,0,0,1,.74.17,12,12,0,0,0-2.32,3.3H559.23ZM588.47,61a3.21,3.21,0,0,1,.29.26,3.06,3.06,0,0,1,.9,2,3.1,3.1,0,0,1-.9,2.37l-0.14.14a0.58,0.58,0,0,1-.82,0l-3.56-3.56a0.58,0.58,0,0,1,0-.82A3.24,3.24,0,0,1,588.47,61Zm-5.18,5.72c1.48,1.48.73,4.74-1.64,7.11s-5.63,3.12-7.11,1.64-0.73-4.74,1.64-7.11S581.81,65.23,583.29,66.71ZM561.41,88.59c-1.55-1.55-.59-6,3.28-9.84A13.86,13.86,0,0,1,570.87,75,5.52,5.52,0,0,0,575,79.13a13.86,13.86,0,0,1-3.77,6.18C567.39,89.17,563,90.14,561.41,88.59Zm11.41,6.1a27.89,27.89,0,0,1,1.32-7.93,17.83,17.83,0,0,0,3.23-4.93v8.31Zm8.43,4.69a4.86,4.86,0,0,1-6.86,0l-0.12-.12a5,5,0,0,1-.73-0.93L580,91.87a1.55,1.55,0,0,0,.45-1.09V78.4a12,12,0,0,0,3.3-2.32,1.71,1.71,0,0,1,.17.74V93.08a8.69,8.69,0,0,1-2.56,6.18Z"/><path class="cls-2" d="M562.49,277.21l1.51-1.51,5.66,1.89a1.55,1.55,0,0,0,1.92-.88l3.08-7.47a4.61,4.61,0,0,0,1,1.41l-1,6.89a1.55,1.55,0,0,0,.44,1.31l2.73,2.73-0.44,3.06a1.55,1.55,0,1,0,3.06.44l0.55-3.83a1.55,1.55,0,0,0-.44-1.31l-2.73-2.73,0.75-5.22a4.67,4.67,0,0,0,.74,0,6.15,6.15,0,0,0,1.8,4.13,9.22,9.22,0,0,0,4.19,2.23,7.1,7.1,0,0,1,1,5.3l-0.18.92a1.55,1.55,0,0,0,.19,1.1l3.28,5.47a1.55,1.55,0,0,0,2.65-1.59l-3-5,0.07-.33a10.19,10.19,0,0,0-.56-5.85,4.45,4.45,0,0,0,3.33-3.33,10.2,10.2,0,0,0,5.85.56l0.33-.07,5,3a1.55,1.55,0,0,0,1.59-2.65l-5.47-3.28a1.55,1.55,0,0,0-1.1-.19l-0.92.18a7.1,7.1,0,0,1-5.3-1,9.22,9.22,0,0,0-2.23-4.19,6.16,6.16,0,0,0-4.13-1.8,4.67,4.67,0,0,0,0-.74l5.22-.75,2.73,2.73a1.55,1.55,0,0,0,1.31.44l3.83-.55a1.55,1.55,0,0,0-.44-3.06l-3.06.44-2.73-2.73a1.55,1.55,0,0,0-1.31-.44l-6.89,1a4.61,4.61,0,0,0-1.41-1l7.47-3.08a1.55,1.55,0,0,0,.88-1.92l-1.89-5.66,1.51-1.51a1.55,1.55,0,0,0-2.19-2.19l-2.19,2.19a1.55,1.55,0,0,0-.37,1.58l1.73,5.19-5.68,2.34,1.42-4.25a1.55,1.55,0,0,0-.37-1.58l-7-7,1.89-5.66a1.55,1.55,0,1,0-2.93-1L573.06,245a1.54,1.54,0,0,0,.37,1.58l7,7-1.13,3.38a4.64,4.64,0,0,0-3-.76,6.15,6.15,0,0,0-1.8-4.13L573.43,251c-4-4-11.23-8.45-14.22-5.47s1.5,10.25,5.47,14.22l1.09,1.09a6.16,6.16,0,0,0,4.13,1.8,4.64,4.64,0,0,0,.76,3l-3.38,1.13-7-7a1.55,1.55,0,0,0-1.4-.42l-5.47,1.09a1.55,1.55,0,0,0,.61,3l4.66-.93,7.07,7.07a1.55,1.55,0,0,0,1.58.37l4.25-1.42-2.34,5.68-5.19-1.73a1.55,1.55,0,0,0-1.58.37L560.31,275A1.55,1.55,0,0,0,562.49,277.21Zm4.38-19.69c-4.35-4.35-6.08-9.15-5.47-9.84s5.49,1.12,9.84,5.47l1.09,1.09a3.09,3.09,0,0,1-4.38,4.38Zm6.56,4.38,2.19-2.19a1.55,1.55,0,0,1,2.19,2.19l-2.19,2.19A1.55,1.55,0,1,1,573.43,261.89Zm4.38,4.38,2.19-2.19a1.55,1.55,0,0,1,2.19,2.19L580,268.46A1.55,1.55,0,0,1,577.81,266.27Zm5.47,3.28a3.1,3.1,0,0,1,4.38,0c1.36,1.36,2.15,4.41,1.09,5.47s-4.11.26-5.47-1.09A3.1,3.1,0,0,1,583.27,269.55Z"/><path class="cls-2" d="M368.17,246.13l1.51,1.51-1.89,5.66a1.55,1.55,0,0,0,.88,1.92l5.17,2.13a8.68,8.68,0,0,0-.34,1l-1.23,1.23-5-.71a1.55,1.55,0,0,0-1.31.44L363.25,262l-3.06-.44a1.55,1.55,0,1,0-.44,3.06l3.83,0.55a1.55,1.55,0,0,0,1.31-.44l2.73-2.73,2.4,0.34a7.76,7.76,0,0,0-.1,6.77,4.6,4.6,0,0,0-1.76,1.1L366,268a1.55,1.55,0,0,0-1.89-.23l-5.47,3.28a1.55,1.55,0,0,0,1.59,2.65l0.33-.2,4.1-2.46,2.18,2.18a4.62,4.62,0,0,0,4.88,4.88l2.18,2.18-2.46,4.1-0.2.33a1.55,1.55,0,0,0,2.65,1.59l3.28-5.47a1.55,1.55,0,0,0-.23-1.89l-2.19-2.19a4.6,4.6,0,0,0,1.1-1.76,7.76,7.76,0,0,0,6.77-.1l0.34,2.4L380.2,280a1.55,1.55,0,0,0-.44,1.31l0.55,3.83a1.55,1.55,0,1,0,3.06-.44l-0.44-3.06,2.73-2.73a1.55,1.55,0,0,0,.44-1.31l-0.71-5,1.23-1.23a8.62,8.62,0,0,0,1-.34l2.13,5.17a1.55,1.55,0,0,0,1.92.88l5.66-1.89,1.51,1.51a1.55,1.55,0,0,0,2.19-2.19l-2.19-2.19a1.55,1.55,0,0,0-1.58-.37L392,273.74l-1.75-4.26a42.91,42.91,0,0,0,4-3.54l4,1.34a1.55,1.55,0,0,0,1.58-.37l7-7,5.66,1.89a1.55,1.55,0,1,0,1-2.93l-6.56-2.19a1.54,1.54,0,0,0-1.58.37l-7,7-1.66-.55a20.73,20.73,0,0,0,5-9.38c4.42-4.57,5.54-10.43,2.52-13.45s-8.88-1.9-13.45,2.52a20.71,20.71,0,0,0-9.38,5l-0.55-1.66,7-7a1.55,1.55,0,0,0,.42-1.4l-1.09-5.47a1.55,1.55,0,0,0-3,.61l0.93,4.66L378,245a1.55,1.55,0,0,0-.37,1.58l1.34,4a42.91,42.91,0,0,0-3.54,4l-4.26-1.75,1.73-5.19a1.55,1.55,0,0,0-.37-1.58l-2.19-2.19A1.55,1.55,0,1,0,368.17,246.13Zm2.19,28.44a1.55,1.55,0,1,1,2.19,0A1.55,1.55,0,0,1,370.36,274.57Zm5.47-3.28-2.19-2.19a4.65,4.65,0,0,1,0-6.56,7.72,7.72,0,0,0,6.58,2.17,7.72,7.72,0,0,0,2.17,6.58A4.65,4.65,0,0,1,375.83,271.29Zm18-9.3c-5.06,5.06-7,6.66-9.68,6.68a4.65,4.65,0,0,1,.38-6.13l14-14C399.83,251.71,398.37,257.5,393.87,262Zm8.2-19.14c1.07,1.07,1,3.41-.23,5.91a7.06,7.06,0,0,0-5.68-5.68C398.67,241.8,401,241.78,402.08,242.85Zm-5.71,3.52-14,14a4.65,4.65,0,0,1-6.13.38c0-2.63,1.62-4.62,6.68-9.68C387.43,246.56,393.22,245.1,396.37,246.37Z"/><path class="cls-2" d="M498.3-.17a1.55,1.55,0,0,0-1.24-.62h-6.68L497.64-4a1.54,1.54,0,0,0,.47-0.32l7.73-7.73a1.55,1.55,0,0,0,0-2.19,1.55,1.55,0,0,0-2.19,0l-7.53,7.53-9.19,4.08,6.76-11.27a1.55,1.55,0,0,0,.14-1.29l-3.09-9.28a1.55,1.55,0,0,0-2-1,1.55,1.55,0,0,0-1,2l2.87,8.61-5.79,9.66a6.87,6.87,0,0,0-2.43-2.57l3.46-5a1.55,1.55,0,0,0,.18-1.42l-1.55-4.12a1.55,1.55,0,0,0-2-.9,1.55,1.55,0,0,0-.9,2l1.26,3.36-3,4.27-2.87-3.82,1.29-3.87a1.55,1.55,0,0,0-1-2,1.55,1.55,0,0,0-2,1l-1.55,4.64a1.55,1.55,0,0,0,.23,1.42l3.29,4.38A6.75,6.75,0,0,0,475-5.42l-5.69-9.48,2.87-8.61a1.55,1.55,0,0,0-1-2,1.55,1.55,0,0,0-2,1l-3.09,9.28a1.55,1.55,0,0,0,.14,1.29l6.76,11.27-9.19-4.08-7.53-7.53a1.55,1.55,0,0,0-2.19,0,1.55,1.55,0,0,0,0,2.19l7.73,7.73a1.55,1.55,0,0,0,.47.32l7.26,3.23H463a1.55,1.55,0,0,0-1.24.62L452.46,12.2a1.55,1.55,0,0,0,2.48,1.85L463.73,2.3h7.35l-5.77,3.3a1.55,1.55,0,0,0-.72.92L458.4,28.17a1.55,1.55,0,0,0,1.06,1.91A1.55,1.55,0,0,0,461.38,29l6-21.05,6.94-4a8.33,8.33,0,0,0,1.56,2.59c-3.18,2-5.38,6.24-5.38,11.18,0,6.82,4.21,12.38,9.38,12.38s9.38-5.55,9.38-12.37c0-4.94-2.21-9.19-5.38-11.18a8.36,8.36,0,0,0,1.59-2.66L492.61,8l6,21a1.55,1.55,0,0,0,3-.85L495.41,6.6a1.55,1.55,0,0,0-.71-0.91L488.85,2.3h7.43l8.77,11.75a1.55,1.55,0,0,0,2.48-1.85ZM479.9-5.43c1.51,0,3.2,2.22,3.2,5.41s-1.68,5.41-3.2,5.41S476.7,3.17,476.7,0,478.39-5.43,479.9-5.43Zm6.29,23.2c0,5-2.88,9.28-6.29,9.28s-6.29-4.25-6.29-9.28,2.88-9.28,6.29-9.28S486.19,12.74,486.19,17.77Z"/><g class="cls-3"><path class="cls-4" d="M379.5,164.26a5.45,5.45,0,1,1-5.45,5.45,5.46,5.46,0,0,1,5.45-5.45m0-2.2a7.65,7.65,0,1,0,7.65,7.65,7.65,7.65,0,0,0-7.65-7.65h0Z"/></g><g class="cls-3"><path class="cls-4" d="M477.94,81.65L484.32,88l-6.39,6.39L471.55,88l6.39-6.39m0-3.11-9.5,9.5,9.5,9.5,9.5-9.5-9.5-9.5h0Z"/></g><g class="cls-3"><path class="cls-4" d="M477.94,249.66l5.5,8.68h-11l5.5-8.68m0-4.11-9.5,15h19l-9.5-15h0Z"/></g><g class="cls-3"><path class="cls-4" d="M583.45,166.42v9h-9v-9h9m2.2-2.2H572.22v13.43h13.43V164.22h0Z"/></g><path class="cls-2" d="M827.84,267.29a6.2,6.2,0,0,1-.32,2l-3.09,9.28a6.18,6.18,0,0,1-5.2,4.19,9.27,9.27,0,1,1-14.29,11.79l-3.4-4.53v3.61a1.55,1.55,0,0,1-3.09,0V290l-3.4,4.53a9.28,9.28,0,1,1-14.29-11.79,6.18,6.18,0,0,1-5.2-4.19l-3.09-9.28a6.19,6.19,0,0,1,5.87-8.15c6.18,0,13.36,3.19,18.07,7.88a4.65,4.65,0,0,1,.38-0.4l-2.94-11.75a1.55,1.55,0,0,1,3-.75l2.8,11.22,0.33,0,0.34,0,2.8-11.22a1.55,1.55,0,0,1,3,.75l-2.94,11.75a4.65,4.65,0,0,1,.38.4c4.72-4.69,11.89-7.88,18.07-7.88A6.19,6.19,0,0,1,827.84,267.29Zm-46.41,12.38h15.39a21.34,21.34,0,0,1-1.46-7.34c-4-4.69-11.08-8.13-17-8.13a3.1,3.1,0,0,0-2.94,4.07l3.09,9.28A3.09,3.09,0,0,0,781.44,279.66Zm17,4.64a1.55,1.55,0,0,0-1.55-1.55h-9.28a6.19,6.19,0,1,0,5,9.9l5.57-7.42A1.53,1.53,0,0,0,798.45,284.3Zm3.09-12.37a1.55,1.55,0,0,0-3.09,0,18.21,18.21,0,0,0,1.55,7.32A18.21,18.21,0,0,0,801.55,271.93Zm17,17a6.19,6.19,0,0,0-6.19-6.19h-9.28a1.55,1.55,0,0,0-1.24,2.47l5.57,7.42A6.19,6.19,0,0,0,818.56,288.94Zm6.19-21.66a3.1,3.1,0,0,0-3.09-3.09c-5.94,0-13.05,3.44-17,8.13a21.31,21.31,0,0,1-1.46,7.34h15.39a3.09,3.09,0,0,0,2.94-2.11l3.09-9.28A3.1,3.1,0,0,0,824.75,267.29Z"/><path class="cls-2" d="M706,165.66l-1.51,1.51-5.66-1.89a1.55,1.55,0,0,0-1.92.88l-2.84,6.89h-0.36l-1.39-1.39,1-6.89a1.55,1.55,0,0,0-.44-1.31l-2.73-2.73,0.44-3.06a1.55,1.55,0,1,0-3.06-.44L687,161.07a1.55,1.55,0,0,0,.44,1.31l2.73,2.73-0.68,4.76a4.66,4.66,0,0,0-3,.36l-0.18-.2a4.62,4.62,0,0,0-3.51-1.35,9.28,9.28,0,0,1,.23-12.87,1.55,1.55,0,1,0-2.19-2.19,12.39,12.39,0,0,0-1,16.34l-0.08.07-0.07.08a12.39,12.39,0,0,0-16.34,1,1.55,1.55,0,0,0,2.19,2.19,9.28,9.28,0,0,1,12.87-.23,4.62,4.62,0,0,0,1.35,3.51l0.2,0.18a4.66,4.66,0,0,0-.36,3l-4.76.68-2.73-2.73a1.55,1.55,0,0,0-1.31-.44l-3.83.55a1.55,1.55,0,1,0,.44,3.06l3.06-.44,2.73,2.73a1.55,1.55,0,0,0,1.31.44l6.89-1,1.39,1.39c0,0.12,0,.24,0,0.36l-6.89,2.84a1.55,1.55,0,0,0-.88,1.92l1.89,5.66-1.51,1.51a1.55,1.55,0,1,0,2.19,2.19l2.19-2.19a1.55,1.55,0,0,0,.37-1.58l-1.73-5.19,5.48-2.26,0.25,0.28,1.09,1.09c0.66,0.66,1.36,1.33,2.08,2l-1.36,4.08a1.55,1.55,0,0,0,.37,1.58l7,7-1.89,5.66a1.55,1.55,0,1,0,2.93,1l2.19-6.56a1.55,1.55,0,0,0-.37-1.58l-7-7,0.63-1.9c7.85,6.76,17.65,12.89,20.57,10a2.5,2.5,0,0,0,.71-1.48,2.5,2.5,0,0,0,1.48-.71c2.91-2.91-3.22-12.71-10-20.57l1.9-.63,7,7a1.55,1.55,0,0,0,1.4.42l5.47-1.09a1.55,1.55,0,0,0-.61-3l-4.66.93L706,176.6a1.55,1.55,0,0,0-1.58-.37l-4.08,1.36c-0.67-.72-1.34-1.42-2-2.08l-1.09-1.09-0.28-.25,2.26-5.48,5.19,1.73A1.55,1.55,0,0,0,706,170l2.19-2.19A1.55,1.55,0,0,0,706,165.66Zm-24.06,6.56a1.55,1.55,0,0,1,2.19,0l-2.19,2.19A1.55,1.55,0,0,1,681.93,172.22Zm1.09,7.66a1.55,1.55,0,0,1,0-2.19l4.38-4.38a1.55,1.55,0,0,1,2.19,0l1.09,1.09L684.12,181Zm13.13-2.19c9.43,9.43,13.89,18.16,14.1,20.57l-0.46-.13a1.55,1.55,0,0,0-2,2,4.37,4.37,0,0,1,.13.46c-2.41-.21-11.14-4.68-20.57-14.1l-1.09-1.09a1.55,1.55,0,0,1,0-2.19l6.56-6.56a1.55,1.55,0,0,1,2.19,0Z"/><path class="cls-2" d="M907,183.48a4.81,4.81,0,0,0-.44-2H912a1.54,1.54,0,0,0,1.09-.45l5-5h8.11a1.55,1.55,0,0,0,0-3.09h-8.75a1.54,1.54,0,0,0-1.09.45l-5,5h-4.79a8.67,8.67,0,0,0,.53-2.87,3.67,3.67,0,0,0,3.66-.92l0.14-.14a6.15,6.15,0,0,0,.95-7.51l1.24-1.24a1.55,1.55,0,1,0-2.19-2.19l-1.24,1.24a6.33,6.33,0,0,0-7.65,1.09,3.67,3.67,0,0,0-.92,3.67,8.65,8.65,0,0,0-2.87.53v-4.79l5-5a1.55,1.55,0,0,0,.45-1.09v-8.75a1.55,1.55,0,1,0-3.09,0v8.11l-5,5a1.55,1.55,0,0,0-.45,1.09v5.45a4.79,4.79,0,0,0-2-.44H876.92a11.76,11.76,0,0,0-8.37,3.47l-0.11.11a8,8,0,0,0,0,11.24l0.12,0.12a8.24,8.24,0,0,0,.89.76l-1.16,1.16a1.55,1.55,0,0,0,2.19,2.19l2-2a8.14,8.14,0,0,0,1.86.22h0.41a31.4,31.4,0,0,0,4.39-.31l-7.51,7.51a1.55,1.55,0,0,0,2.19,2.19l3.9-3.9a5.65,5.65,0,0,0,6.56,6.56l-3.9,3.9a1.55,1.55,0,1,0,2.19,2.19l7.51-7.51a31.46,31.46,0,0,0-.31,4.39v0.41a8.14,8.14,0,0,0,.22,1.86l-2,2a1.55,1.55,0,1,0,2.19,2.19l1.16-1.16a8.23,8.23,0,0,0,.76.89l0.12,0.12a8,8,0,0,0,11.24,0l0.11-.11a11.76,11.76,0,0,0,3.47-8.37V183.48Zm-23.78-1a27.89,27.89,0,0,1-7.93,1.32l4.55-4.55h8.31A17.83,17.83,0,0,0,883.25,182.53Zm-4-6.32a1.55,1.55,0,0,0-1.09.45l-6.46,6.46a5,5,0,0,1-.93-0.73l-0.12-.12a4.86,4.86,0,0,1,0-6.86l0.11-.11a8.69,8.69,0,0,1,6.18-2.56h16.26a1.71,1.71,0,0,1,.74.17,12,12,0,0,0-2.32,3.3H879.23Zm29.25-8.55a3.21,3.21,0,0,1,.29.26,3.06,3.06,0,0,1,.9,2,3.1,3.1,0,0,1-.9,2.37l-0.14.14a0.58,0.58,0,0,1-.82,0l-3.56-3.56a0.58,0.58,0,0,1,0-.82A3.24,3.24,0,0,1,908.47,167.65Zm-5.18,5.72c1.48,1.48.73,4.74-1.64,7.11s-5.63,3.12-7.11,1.64-0.73-4.74,1.64-7.11S901.81,171.9,903.29,173.38Zm-21.88,21.88c-1.55-1.55-.59-6,3.28-9.84a13.86,13.86,0,0,1,6.18-3.77,5.52,5.52,0,0,0,4.16,4.16,13.86,13.86,0,0,1-3.77,6.18C887.39,195.84,883,196.81,881.41,195.25Zm11.41,6.1a27.89,27.89,0,0,1,1.32-7.93,17.83,17.83,0,0,0,3.23-4.93v8.31Zm8.43,4.69a4.86,4.86,0,0,1-6.86,0l-0.12-.12a5,5,0,0,1-.73-0.93l6.46-6.46a1.55,1.55,0,0,0,.45-1.09V185.07a12,12,0,0,0,3.3-2.32,1.71,1.71,0,0,1,.17.74v16.26a8.69,8.69,0,0,1-2.56,6.18Z"/><path class="cls-2" d="M882.49,383.87l1.51-1.51,5.66,1.89a1.55,1.55,0,0,0,1.92-.88l3.08-7.47a4.61,4.61,0,0,0,1,1.41l-1,6.89a1.55,1.55,0,0,0,.44,1.31l2.73,2.73-0.44,3.06a1.55,1.55,0,1,0,3.06.44l0.55-3.83a1.55,1.55,0,0,0-.44-1.31l-2.73-2.73,0.75-5.22a4.67,4.67,0,0,0,.74,0,6.15,6.15,0,0,0,1.8,4.13,9.22,9.22,0,0,0,4.19,2.23,7.1,7.1,0,0,1,1,5.3l-0.18.92a1.55,1.55,0,0,0,.19,1.1l3.28,5.47a1.55,1.55,0,0,0,2.65-1.59l-3-5,0.07-.33a10.19,10.19,0,0,0-.56-5.85,4.45,4.45,0,0,0,3.33-3.33,10.2,10.2,0,0,0,5.85.56l0.33-.07,5,3a1.55,1.55,0,0,0,1.59-2.65l-5.47-3.28a1.55,1.55,0,0,0-1.1-.19l-0.92.18a7.1,7.1,0,0,1-5.3-1,9.22,9.22,0,0,0-2.23-4.19,6.16,6.16,0,0,0-4.13-1.8,4.67,4.67,0,0,0,0-.74l5.22-.75,2.73,2.73a1.55,1.55,0,0,0,1.31.44l3.83-.55a1.55,1.55,0,1,0-.44-3.06l-3.06.44L912.57,368a1.55,1.55,0,0,0-1.31-.44l-6.89,1a4.61,4.61,0,0,0-1.41-1l7.47-3.08a1.55,1.55,0,0,0,.88-1.92l-1.89-5.66,1.51-1.51a1.55,1.55,0,0,0-2.19-2.19l-2.19,2.19a1.55,1.55,0,0,0-.37,1.58l1.73,5.19-5.68,2.34,1.42-4.25a1.55,1.55,0,0,0-.37-1.58l-7-7,1.89-5.66a1.55,1.55,0,1,0-2.93-1l-2.19,6.56a1.54,1.54,0,0,0,.37,1.58l7,7-1.13,3.38a4.64,4.64,0,0,0-3-.76,6.15,6.15,0,0,0-1.8-4.13l-1.09-1.09c-4-4-11.23-8.45-14.22-5.47s1.5,10.25,5.47,14.22l1.09,1.09a6.16,6.16,0,0,0,4.13,1.8,4.64,4.64,0,0,0,.76,3l-3.38,1.13-7-7a1.55,1.55,0,0,0-1.4-.42L873.44,367a1.55,1.55,0,0,0,.61,3l4.66-.93,7.07,7.07a1.55,1.55,0,0,0,1.58.37l4.25-1.42-2.34,5.68-5.19-1.73a1.55,1.55,0,0,0-1.58.37l-2.19,2.19A1.55,1.55,0,0,0,882.49,383.87Zm4.38-19.69c-4.35-4.35-6.08-9.15-5.47-9.84s5.49,1.12,9.84,5.47l1.09,1.09a3.09,3.09,0,0,1-4.38,4.38Zm6.56,4.38,2.19-2.19a1.55,1.55,0,0,1,2.19,2.19l-2.19,2.19A1.55,1.55,0,0,1,893.43,368.56Zm4.38,4.38,2.19-2.19a1.55,1.55,0,0,1,2.19,2.19L900,375.12A1.55,1.55,0,0,1,897.81,372.93Zm5.47,3.28a3.1,3.1,0,0,1,4.38,0c1.36,1.36,2.15,4.41,1.09,5.47s-4.11.26-5.47-1.09A3.1,3.1,0,0,1,903.27,376.22Z"/><path class="cls-2" d="M688.17,352.8l1.51,1.51L687.8,360a1.55,1.55,0,0,0,.88,1.92l5.17,2.13a8.68,8.68,0,0,0-.34,1l-1.23,1.23-5-.71a1.55,1.55,0,0,0-1.31.44l-2.73,2.73-3.06-.44a1.55,1.55,0,1,0-.44,3.06l3.83,0.55a1.55,1.55,0,0,0,1.31-.44l2.73-2.73L690,369a7.76,7.76,0,0,0-.1,6.77,4.6,4.6,0,0,0-1.76,1.1L686,374.67a1.55,1.55,0,0,0-1.89-.23l-5.47,3.28a1.55,1.55,0,0,0,1.59,2.65l0.33-.2,4.1-2.46,2.18,2.18a4.62,4.62,0,0,0,4.88,4.88l2.18,2.18-2.46,4.1-0.2.33a1.55,1.55,0,0,0,2.65,1.59l3.28-5.47a1.55,1.55,0,0,0-.23-1.89l-2.19-2.19a4.6,4.6,0,0,0,1.1-1.76,7.76,7.76,0,0,0,6.77-.1l0.34,2.4-2.73,2.73a1.55,1.55,0,0,0-.44,1.31l0.55,3.83a1.55,1.55,0,0,0,3.06-.44l-0.44-3.06,2.73-2.73a1.55,1.55,0,0,0,.44-1.31l-0.71-5,1.23-1.23a8.62,8.62,0,0,0,1-.34l2.13,5.17a1.55,1.55,0,0,0,1.92.88l5.66-1.89,1.51,1.51a1.55,1.55,0,0,0,2.19-2.19L718.8,379a1.55,1.55,0,0,0-1.58-.37L712,380.4l-1.75-4.26a42.91,42.91,0,0,0,4-3.54l4,1.34a1.55,1.55,0,0,0,1.58-.37l7-7,5.66,1.89a1.55,1.55,0,1,0,1-2.93l-6.56-2.19a1.54,1.54,0,0,0-1.58.37l-7,7-1.66-.55a20.73,20.73,0,0,0,5-9.38c4.42-4.57,5.54-10.43,2.52-13.45s-8.88-1.9-13.45,2.52a20.71,20.71,0,0,0-9.38,5l-0.55-1.66,7-7a1.55,1.55,0,0,0,.42-1.4l-1.09-5.47a1.55,1.55,0,0,0-3,.61l0.93,4.66L698,351.7a1.55,1.55,0,0,0-.37,1.58l1.34,4a42.91,42.91,0,0,0-3.54,4l-4.26-1.75,1.73-5.19a1.55,1.55,0,0,0-.37-1.58l-2.19-2.19A1.55,1.55,0,1,0,688.17,352.8Zm2.19,28.44a1.55,1.55,0,1,1,2.19,0A1.55,1.55,0,0,1,690.36,381.23Zm5.47-3.28-2.19-2.19a4.65,4.65,0,0,1,0-6.56,7.72,7.72,0,0,0,6.58,2.17,7.72,7.72,0,0,0,2.17,6.58A4.65,4.65,0,0,1,695.83,378Zm18-9.3c-5.06,5.06-7,6.66-9.68,6.68a4.65,4.65,0,0,1,.38-6.13l14-14C719.83,358.37,718.37,364.16,713.87,368.66Zm8.2-19.14c1.07,1.07,1,3.41-.23,5.91a7.06,7.06,0,0,0-5.68-5.68C718.67,348.47,721,348.44,722.08,349.51ZM716.37,353l-14,14a4.65,4.65,0,0,1-6.13.38c0-2.63,1.62-4.62,6.68-9.68C707.43,353.23,713.22,351.76,716.37,353Z"/><path class="cls-2" d="M818.3,106.49a1.55,1.55,0,0,0-1.24-.62h-6.68l7.26-3.23a1.54,1.54,0,0,0,.47-0.32l7.73-7.73a1.55,1.55,0,1,0-2.19-2.19l-7.53,7.53L806.94,104l6.76-11.27a1.55,1.55,0,0,0,.14-1.29l-3.09-9.28a1.55,1.55,0,0,0-2.93,1l2.87,8.61-5.79,9.66a6.87,6.87,0,0,0-2.43-2.57l3.46-5a1.55,1.55,0,0,0,.18-1.42l-1.55-4.12a1.55,1.55,0,0,0-2.9,1.09l1.26,3.36L800,97l-2.87-3.82,1.29-3.87a1.55,1.55,0,0,0-2.93-1L793.89,93a1.55,1.55,0,0,0,.23,1.42l3.29,4.38a6.75,6.75,0,0,0-2.4,2.44l-5.69-9.48,2.87-8.61a1.55,1.55,0,0,0-2.93-1l-3.09,9.28a1.55,1.55,0,0,0,.14,1.29L793.06,104l-9.19-4.08-7.53-7.53a1.55,1.55,0,0,0-2.19,2.19l7.73,7.73a1.55,1.55,0,0,0,.47.32l7.26,3.23H783a1.55,1.55,0,0,0-1.24.62l-9.26,12.38a1.55,1.55,0,0,0,2.48,1.85L783.73,109h7.35l-5.77,3.3a1.55,1.55,0,0,0-.72.92l-6.19,21.66a1.55,1.55,0,0,0,1.06,1.91,1.55,1.55,0,0,0,1.91-1.06l6-21.05,6.94-4a8.33,8.33,0,0,0,1.56,2.59c-3.18,2-5.38,6.24-5.38,11.18,0,6.82,4.21,12.38,9.38,12.38s9.38-5.55,9.38-12.38c0-4.94-2.21-9.19-5.38-11.18a8.36,8.36,0,0,0,1.59-2.66l7.12,4.12,6,21a1.55,1.55,0,0,0,3-.85l-6.19-21.57a1.55,1.55,0,0,0-.71-0.91L808.85,109h7.43l8.77,11.75a1.55,1.55,0,1,0,2.48-1.85Zm-18.4-5.26c1.51,0,3.2,2.22,3.2,5.41s-1.68,5.41-3.2,5.41-3.2-2.22-3.2-5.41S798.39,101.23,799.9,101.23Zm6.29,23.2c0,5-2.88,9.28-6.29,9.28s-6.29-4.25-6.29-9.28,2.88-9.28,6.29-9.28S806.19,119.4,806.19,124.44Z"/><g class="cls-3"><path class="cls-4" d="M699.5,270.93a5.45,5.45,0,1,1-5.45,5.45,5.46,5.46,0,0,1,5.45-5.45m0-2.2a7.65,7.65,0,1,0,7.65,7.65,7.65,7.65,0,0,0-7.65-7.65h0Z"/></g><g class="cls-3"><path class="cls-4" d="M797.94,188.32l6.39,6.39-6.39,6.39-6.39-6.39,6.39-6.39m0-3.11-9.5,9.5,9.5,9.5,9.5-9.5-9.5-9.5h0Z"/></g><g class="cls-3"><path class="cls-4" d="M797.94,356.32l5.5,8.68h-11l5.5-8.68m0-4.11-9.5,15h19l-9.5-15h0Z"/></g><g class="cls-3"><path class="cls-4" d="M903.45,273.09v9h-9v-9h9m2.2-2.2H892.22v13.43h13.43V270.89h0Z"/></g><path class="cls-2" d="M882.49,63.87L884,62.36l5.66,1.89a1.55,1.55,0,0,0,1.92-.88l3.08-7.47a4.61,4.61,0,0,0,1,1.41l-1,6.89a1.55,1.55,0,0,0,.44,1.31l2.73,2.73-0.44,3.06a1.55,1.55,0,0,0,3.06.44L901,67.92a1.55,1.55,0,0,0-.44-1.31l-2.73-2.73,0.75-5.22a4.67,4.67,0,0,0,.74,0,6.15,6.15,0,0,0,1.8,4.13A9.22,9.22,0,0,0,905.28,65a7.1,7.1,0,0,1,1,5.3l-0.18.92a1.55,1.55,0,0,0,.19,1.1l3.28,5.47a1.55,1.55,0,0,0,2.65-1.59l-3-5,0.07-.33a10.19,10.19,0,0,0-.56-5.85,4.45,4.45,0,0,0,3.33-3.33,10.2,10.2,0,0,0,5.85.56l0.33-.07,5,3a1.55,1.55,0,0,0,1.59-2.65l-5.47-3.28a1.55,1.55,0,0,0-1.1-.19l-0.92.18a7.1,7.1,0,0,1-5.3-1A9.22,9.22,0,0,0,909.84,54a6.16,6.16,0,0,0-4.13-1.8,4.67,4.67,0,0,0,0-.74l5.22-.75,2.73,2.73a1.55,1.55,0,0,0,1.31.44l3.83-.55a1.55,1.55,0,1,0-.44-3.06l-3.06.44L912.57,48a1.55,1.55,0,0,0-1.31-.44l-6.89,1a4.61,4.61,0,0,0-1.41-1l7.47-3.08a1.55,1.55,0,0,0,.88-1.92l-1.89-5.66,1.51-1.51a1.55,1.55,0,0,0-2.19-2.19l-2.19,2.19a1.55,1.55,0,0,0-.37,1.58l1.73,5.19-5.68,2.34,1.42-4.25a1.55,1.55,0,0,0-.37-1.58l-7-7,1.89-5.66a1.55,1.55,0,1,0-2.93-1l-2.19,6.56a1.54,1.54,0,0,0,.37,1.58l7,7-1.13,3.38a4.64,4.64,0,0,0-3-.76,6.15,6.15,0,0,0-1.8-4.13l-1.09-1.09c-4-4-11.23-8.45-14.22-5.47s1.5,10.25,5.47,14.22l1.09,1.09a6.16,6.16,0,0,0,4.13,1.8,4.64,4.64,0,0,0,.76,3l-3.38,1.13-7-7a1.55,1.55,0,0,0-1.4-.42L873.44,47a1.55,1.55,0,0,0,.61,3l4.66-.93,7.07,7.07a1.55,1.55,0,0,0,1.58.37l4.25-1.42-2.34,5.68-5.19-1.73a1.55,1.55,0,0,0-1.58.37l-2.19,2.19A1.55,1.55,0,0,0,882.49,63.87Zm4.38-19.69c-4.35-4.35-6.08-9.15-5.47-9.84s5.49,1.12,9.84,5.47l1.09,1.09A3.09,3.09,0,0,1,888,45.28Zm6.56,4.38,2.19-2.19a1.55,1.55,0,0,1,2.19,2.19l-2.19,2.19A1.55,1.55,0,0,1,893.43,48.56Zm4.38,4.38L900,50.75a1.55,1.55,0,0,1,2.19,2.19L900,55.12A1.55,1.55,0,0,1,897.81,52.93Zm5.47,3.28a3.1,3.1,0,0,1,4.38,0c1.36,1.36,2.15,4.41,1.09,5.47s-4.11.26-5.47-1.09A3.1,3.1,0,0,1,903.27,56.22Z"/><path class="cls-2" d="M688.17,32.8l1.51,1.51L687.8,40a1.55,1.55,0,0,0,.88,1.92L693.84,44a8.68,8.68,0,0,0-.34,1l-1.23,1.23-5-.71a1.55,1.55,0,0,0-1.31.44l-2.73,2.73-3.06-.44a1.55,1.55,0,1,0-.44,3.06l3.83,0.55a1.55,1.55,0,0,0,1.31-.44l2.73-2.73L690,49a7.76,7.76,0,0,0-.1,6.77,4.6,4.6,0,0,0-1.76,1.1L686,54.67a1.55,1.55,0,0,0-1.89-.23l-5.47,3.28a1.55,1.55,0,0,0,1.59,2.65l0.33-.2,4.1-2.46,2.18,2.18a4.62,4.62,0,0,0,4.88,4.88l2.18,2.18L691.42,71l-0.2.33A1.55,1.55,0,0,0,693.87,73l3.28-5.47a1.55,1.55,0,0,0-.23-1.89l-2.19-2.19a4.6,4.6,0,0,0,1.1-1.76,7.76,7.76,0,0,0,6.77-.1l0.34,2.4L700.2,66.7a1.55,1.55,0,0,0-.44,1.31l0.55,3.83a1.55,1.55,0,1,0,3.06-.44l-0.44-3.06,2.73-2.73a1.55,1.55,0,0,0,.44-1.31l-0.71-5,1.23-1.23a8.62,8.62,0,0,0,1-.34l2.13,5.17a1.55,1.55,0,0,0,1.92.88l5.66-1.89,1.51,1.51A1.55,1.55,0,0,0,721,61.23L718.8,59a1.55,1.55,0,0,0-1.58-.37L712,60.4l-1.75-4.26a42.91,42.91,0,0,0,4-3.54l4,1.34a1.55,1.55,0,0,0,1.58-.37l7-7,5.66,1.89a1.55,1.55,0,1,0,1-2.93l-6.56-2.19a1.54,1.54,0,0,0-1.58.37l-7,7-1.66-.55a20.73,20.73,0,0,0,5-9.38c4.42-4.57,5.54-10.43,2.52-13.45s-8.88-1.9-13.45,2.52a20.71,20.71,0,0,0-9.38,5l-0.55-1.66,7-7a1.55,1.55,0,0,0,.42-1.4l-1.09-5.47a1.55,1.55,0,0,0-3,.61l0.93,4.66L698,31.7a1.55,1.55,0,0,0-.37,1.58l1.34,4a42.91,42.91,0,0,0-3.54,4l-4.26-1.75,1.73-5.19a1.55,1.55,0,0,0-.37-1.58l-2.19-2.19A1.55,1.55,0,0,0,688.17,32.8Zm2.19,28.44a1.55,1.55,0,1,1,2.19,0A1.55,1.55,0,0,1,690.36,61.23ZM695.83,58l-2.19-2.19a4.65,4.65,0,0,1,0-6.56,7.72,7.72,0,0,0,6.58,2.17A7.72,7.72,0,0,0,702.39,58,4.65,4.65,0,0,1,695.83,58Zm18-9.3c-5.06,5.06-7,6.66-9.68,6.68a4.65,4.65,0,0,1,.38-6.13l14-14C719.83,38.37,718.37,44.16,713.87,48.66Zm8.2-19.14c1.07,1.07,1,3.41-.23,5.91a7.06,7.06,0,0,0-5.68-5.68C718.67,28.47,721,28.44,722.08,29.51ZM716.37,33l-14,14a4.65,4.65,0,0,1-6.13.38c0-2.63,1.62-4.62,6.68-9.68C707.43,33.23,713.22,31.76,716.37,33Z"/><g class="cls-3"><path class="cls-4" d="M797.94,36.32l5.5,8.68h-11l5.5-8.68m0-4.11-9.5,15h19l-9.5-15h0Z"/></g></pattern></defs><title>confetti [Recovered]</title><rect class="cls-1" x="-88" y="-82" width="2480" height="3050"/><rect class="cls-5" width="2304" height="865"/></svg>