<svg id="Layer_1" data-name="Layer 1" xmlns="http://www.w3.org/2000/svg" xmlns:xlink="http://www.w3.org/1999/xlink" viewBox="0 0 2209.3 829.44"><defs><style>.cls-1{fill:none;}.cls-2,.cls-4{opacity:0.1;}.cls-3,.cls-4{fill:#fff;}.cls-4{isolation:isolate;}.cls-5{fill:url(#Bugs_2);}</style><pattern id="Bugs_2" data-name="Bugs 2" width="850" height="860" patternTransform="matrix(1.92, 0, 0, -1.92, -868.97, 1780.77)" patternUnits="userSpaceOnUse" viewBox="0 0 850 860"><rect class="cls-1" width="850" height="860"/><polygon class="cls-1" points="834.18 1724.44 1720.82 1722.27 1720.82 847.81 834.18 847.81 834.18 1724.44"/><g class="cls-2"><path class="cls-3" d="M130.05,870.9L136,865l-5.9-5.9-5.9,5.9,5.9,5.9m0,2.87L121.28,865l8.77-8.77,8.77,8.77-8.77,8.77h0Z"/></g><polygon class="cls-1" points="-15.82 1724.44 870.82 1722.27 870.82 847.81 -15.82 847.81 -15.82 1724.44"/><polygon class="cls-1" points="-865.82 1724.44 20.82 1722.27 20.82 847.81 -865.82 847.81 -865.82 1724.44"/><polygon class="cls-1" points="834.18 864.44 1720.82 862.27 1720.82 -12.19 834.18 -12.19 834.18 864.44"/><path class="cls-4" d="M54.58,53.43L53.18,52,48,53.74a1.43,1.43,0,0,1-1.77-.81l-2.62-6.36H43.22l-1.28,1.28,0.92,6.36a1.43,1.43,0,0,1-.41,1.21l-2.52,2.52,0.41,2.83a1.43,1.43,0,0,1-2.83.41L37,57.68a1.43,1.43,0,0,1,.37-1.17L39.92,54l-0.63-4.4a4.3,4.3,0,0,1-2.77-.33l-0.17.18a4.27,4.27,0,0,1-3.24,1.25,8.57,8.57,0,0,0,.22,11.84,1.43,1.43,0,1,1-1.94,2.11l-0.09-.09a11.44,11.44,0,0,1-.92-15.09l-0.07-.06-0.06-.07a11.44,11.44,0,0,1-15.09-.92,1.44,1.44,0,0,1,2-2.05,8.57,8.57,0,0,0,11.89.21,4.27,4.27,0,0,1,1.25-3.24l0.18-.17a4.3,4.3,0,0,1-.33-2.77l-4.4-.63-2.52,2.52a1.43,1.43,0,0,1-1.21.41l-3.54-.51a1.43,1.43,0,0,1,.41-2.83l2.83,0.41,2.52-2.52a1.43,1.43,0,0,1,1.21-.41l6.36,0.92,1.28-1.28V36.13l-6.36-2.62a1.43,1.43,0,0,1-.81-1.77l1.75-5.23-1.4-1.4a1.43,1.43,0,0,1,2-2l2,2a1.43,1.43,0,0,1,.34,1.46l-1.6,4.79,5.06,2.09,0.23-.26,1-1c0.61-.61,1.26-1.23,1.92-1.85L36,26.56a1.43,1.43,0,0,1,.34-1.46l6.47-6.47-1.75-5.23a1.43,1.43,0,1,1,2.66-1.06l0,0.14,2,6.15a1.43,1.43,0,0,1-.34,1.46L39,26.56l0.58,1.75c7.25-6.24,16.3-11.9,19-9.24a2.31,2.31,0,0,1,.66,1.37,2.31,2.31,0,0,1,1.37.66c2.69,2.69-3,11.74-9.24,19l1.75,0.58,6.47-6.47a1.43,1.43,0,0,1,1.29-.39l5.05,1a1.43,1.43,0,0,1-.56,2.77l-4.3-.86-6.5,6.58a1.43,1.43,0,0,1-1.46.34l-3.77-1.26c-0.62.66-1.24,1.31-1.85,1.92l-1,1-0.23.24,2.09,5.06,4.79-1.6a1.43,1.43,0,0,1,1.43.34l2,2A1.43,1.43,0,0,1,54.58,53.43ZM32.35,47.37a1.43,1.43,0,0,0,2,0l-2-2a1.43,1.43,0,0,0,0,2h0Zm1-7.07a1.43,1.43,0,0,0,0,2l4.06,4a1.43,1.43,0,0,0,2,0l1-1-6.06-6.06Zm12.13,2c8.71-8.71,12.83-16.77,13-19l-0.42.12a1.43,1.43,0,0,1-1.85-1.85,4,4,0,0,0,.12-0.42c-2.23.19-10.29,4.32-19,13l-0.94,1.07a1.43,1.43,0,0,0,0,2l6.06,6.06a1.43,1.43,0,0,0,2,0Z"/><path class="cls-4" d="M230.78,42.43a4.44,4.44,0,0,1-.41,1.85h5a1.42,1.42,0,0,1,1,.42L241,49.31h7.49a1.43,1.43,0,0,1,.23,2.85h-8.31a1.42,1.42,0,0,1-1-.42l-4.62-4.62h-4.42a8,8,0,0,1,.49,2.65,3.39,3.39,0,0,1,3.38.85l0.13,0.13a5.68,5.68,0,0,1,.88,6.94l1.15,1.15a1.43,1.43,0,0,1-2,2l-1.15-1.15a5.85,5.85,0,0,1-7.07-1,3.39,3.39,0,0,1-.85-3.39,8,8,0,0,1-2.65-.49v4.42l4.62,4.62a1.43,1.43,0,0,1,.42,1V73a1.43,1.43,0,0,1-2.85,0V65.48l-4.62-4.62a1.43,1.43,0,0,1-.42-1v-5a4.42,4.42,0,0,1-1.85.41H203a10.86,10.86,0,0,1-7.73-3.2l-0.1-.1a7.39,7.39,0,0,1,0-10.38l0.11-.11a7.61,7.61,0,0,1,.82-0.7L195,39.65a1.43,1.43,0,0,1,2-2l1.85,1.85a7.52,7.52,0,0,1,1.72-.2H201a29,29,0,0,1,4.05.29l-6.94-6.94a1.43,1.43,0,0,1,2-2l3.6,3.6a5.22,5.22,0,0,1,6.06-6.06l-3.6-3.6a1.43,1.43,0,0,1,1.94-2.11l0.09,0.09,6.94,6.94a29.06,29.06,0,0,1-.29-4.05V25a7.52,7.52,0,0,1,.2-1.72l-1.85-1.85a1.43,1.43,0,0,1,1.94-2.11l0.09,0.09,1.07,1.07a7.6,7.6,0,0,1,.7-0.82l0.11-.11a7.39,7.39,0,0,1,10.38,0l0.1,0.1a10.86,10.86,0,0,1,3.2,7.73v15h0Zm-22,.92a25.76,25.76,0,0,0-7.32-1.22l4.2,4.2h7.67a16.47,16.47,0,0,1-4.53-3Zm-3.69,5.84a1.43,1.43,0,0,1-1-.42l-6-6a4.62,4.62,0,0,0-.86.67l-0.11.11a4.49,4.49,0,0,0,0,6.34l0.1,0.1A8,8,0,0,0,203,52.4h15a1.58,1.58,0,0,0,.68-0.16,11.08,11.08,0,0,1-2.14-3H205.12Zm27,7.9,0.27-.24a2.83,2.83,0,0,0,.83-1.85,2.86,2.86,0,0,0-.83-2.19l-0.13-.13a0.54,0.54,0,0,0-.76,0L228.23,56a0.54,0.54,0,0,0,0,.76,3,3,0,0,0,3.91.32v0Zm-4.78-5.28c1.37-1.37.67-4.38-1.51-6.57s-5.2-2.88-6.57-1.51-0.67,4.38,1.51,6.57S226,53.14,227.35,51.81ZM207.14,31.6c-1.43,1.43-.54,5.54,3,9.09a12.8,12.8,0,0,0,5.71,3.48,5.1,5.1,0,0,1,3.84-3.84,12.8,12.8,0,0,0-3.48-5.71c-3.57-3.6-7.63-4.49-9.1-3.06v0ZM217.68,26a25.76,25.76,0,0,0,1.22,7.32,16.47,16.47,0,0,1,3,4.55V30.17Zm7.79-4.33a4.49,4.49,0,0,0-6.34,0l-0.11.11a4.62,4.62,0,0,0-.67.86l6,5.93a1.43,1.43,0,0,1,.42,1V41a11.08,11.08,0,0,1,3,2.14,1.58,1.58,0,0,0,.16-0.68v-15a8,8,0,0,0-2.36-5.71Z"/><path class="cls-4" d="M148.86,86.49a1.43,1.43,0,0,1-1.15.57h-6.17l6.71,3a1.42,1.42,0,0,1,.43.3l7.14,7.14a1.43,1.43,0,0,1-1.94,2.11l-0.09-.09-7-7-8.49-3.77,6.24,10.41a1.43,1.43,0,0,1,.13,1.19l-2.85,8.57a1.43,1.43,0,0,1-2.71-.92l2.65-8-5.35-8.92a6.34,6.34,0,0,1-2.24,2.37l3.2,4.62a1.43,1.43,0,0,1,.17,1.31l-1.44,3.81a1.43,1.43,0,0,1-2.68-1l1.16-3.1-2.77-3.94-2.65,3.53,1.19,3.57a1.43,1.43,0,0,1-2.71.92l-1.43-4.29a1.43,1.43,0,0,1,.21-1.31l3-4a6.23,6.23,0,0,1-2.22-2.25L122,100.09l2.65,8A1.43,1.43,0,0,1,122,109l-2.85-8.57a1.43,1.43,0,0,1,.13-1.19l6.24-10.41L117,92.56l-7,7A1.43,1.43,0,1,1,108,97.58L108,97.5l7.14-7.14a1.43,1.43,0,0,1,.43-0.3l6.71-3h-6.07a1.43,1.43,0,0,1-1.15-.57l-8.55-11.43a1.43,1.43,0,0,1,2.29-1.71L117,84.22h6.79l-5.33-3a1.43,1.43,0,0,1-.66-0.85l-5.72-20a1.43,1.43,0,0,1,2.74-.79L120.33,79l6.41,3.69a7.69,7.69,0,0,1,1.44-2.39c-2.94-1.85-5-5.76-5-10.33,0-6.3,3.89-11.43,8.66-11.43s8.66,5.13,8.66,11.42c0,4.56-2,8.49-5,10.33A7.72,7.72,0,0,1,137,82.73l6.58-3.81,5.54-19.4a1.44,1.44,0,0,1,2.77.79h0l-5.72,19.92a1.43,1.43,0,0,1-.66.84l-5.39,3.12H147l8.1-10.85a1.43,1.43,0,1,1,2.4,1.57l-0.11.14Zm-17,4.86c1.39,0,3-2.05,3-5s-1.55-5-3-5-3,2.05-3,5,1.56,5,3,5h0Zm5.81-21.43c0-4.62-2.66-8.57-5.81-8.57s-5.81,3.93-5.81,8.57,2.66,8.57,5.81,8.57S137.67,74.56,137.67,69.92Z"/><g class="cls-2"><path class="cls-3" d="M130.05,10.9L136,5l-5.9-5.9L124.15,5l5.9,5.9m0,2.87L121.28,5l8.77-8.77L138.83,5l-8.77,8.77h0Z"/></g><path class="cls-4" d="M157.67,233.48a5.73,5.73,0,0,0-.3-1.85l-2.85-8.57a5.71,5.71,0,0,0-4.8-3.87,8.56,8.56,0,0,0-12.77-11.4q-0.22.25-.43,0.52l-3.14,4.18v-3.33a1.43,1.43,0,0,0-2.85,0v3.33l-3.14-4.18a8.57,8.57,0,1,0-13.2,10.89,5.71,5.71,0,0,0-4.8,3.87l-2.85,8.57a5.72,5.72,0,0,0,5.42,7.53c5.71,0,12.34-2.95,16.69-7.28a4.3,4.3,0,0,0,.35.37l-2.72,10.85a1.43,1.43,0,0,0,2.77.69l2.59-10.36h0.62l2.59,10.36a1.43,1.43,0,0,0,2.77-.69l-2.72-10.85a4.3,4.3,0,0,0,.35-0.37c4.36,4.33,11,7.28,16.69,7.28A5.72,5.72,0,0,0,157.67,233.48ZM114.8,222H129a19.71,19.71,0,0,0-1.35,6.78c-3.69,4.33-10.23,7.51-15.7,7.51a2.86,2.86,0,0,1-2.72-3.76l2.85-8.57a2.85,2.85,0,0,1,2.71-1.91v0Zm15.7-4.29a1.43,1.43,0,0,1-1.43,1.43H120.5a5.72,5.72,0,1,1,4.62-9.14l5.14,6.85a1.41,1.41,0,0,1,.26.88Zm2.85,11.42a1.43,1.43,0,0,1-2.85,0,16.82,16.82,0,0,1,1.43-6.76,16.82,16.82,0,0,1,1.45,6.82Zm15.7-15.7a5.72,5.72,0,0,1-5.72,5.72h-8.57a1.43,1.43,0,0,1-1.15-2.28l5.14-6.85a5.72,5.72,0,0,1,10.33,3.45Zm5.75,20a2.86,2.86,0,0,1-2.85,2.85c-5.49,0-12.05-3.18-15.7-7.51a19.68,19.68,0,0,0-1.35-6.78h14.21a2.85,2.85,0,0,1,2.72,1.95l2.85,8.57A2.86,2.86,0,0,1,154.81,233.48Z"/><path class="cls-4" d="M45.14,327.38L43.74,326l-5.23,1.7a1.43,1.43,0,0,1-1.77-.81l-2.62-6.36H33.79l-1.28,1.28,0.92,6.36a1.43,1.43,0,0,1-.41,1.21l-2.52,2.52,0.41,2.83a1.43,1.43,0,0,1-2.83.41l-0.49-3.49a1.43,1.43,0,0,1,.37-1.17l2.52-2.52-0.63-4.4a4.3,4.3,0,0,1-2.77-.33l-0.17.18a4.27,4.27,0,0,1-3.24,1.25,8.57,8.57,0,0,0,.22,11.84A1.43,1.43,0,1,1,22,338.59l-0.09-.09A11.44,11.44,0,0,1,21,323.41l-0.07-.06-0.06-.07a11.44,11.44,0,0,1-15.09-.92,1.44,1.44,0,0,1,2-2.05,8.57,8.57,0,0,0,11.89.21,4.27,4.27,0,0,1,1.25-3.24l0.18-.17a4.3,4.3,0,0,1-.33-2.77l-4.4-.63-2.52,2.52a1.43,1.43,0,0,1-1.21.41l-3.54-.51a1.43,1.43,0,0,1,.41-2.83l2.83,0.41,2.52-2.52a1.43,1.43,0,0,1,1.21-.41l6.36,0.92,1.28-1.28v-0.33l-6.36-2.62a1.43,1.43,0,0,1-.81-1.77l1.75-5.23-1.4-1.4a1.43,1.43,0,0,1,2-2l2,2a1.43,1.43,0,0,1,.34,1.46l-1.6,4.79,5.06,2.09,0.23-.26,1-1c0.61-.61,1.26-1.23,1.92-1.85l-1.26-3.77a1.43,1.43,0,0,1,.34-1.46l6.47-6.47-1.75-5.23a1.43,1.43,0,1,1,2.66-1.06l0,0.14,2,6.15a1.43,1.43,0,0,1-.34,1.46l-6.47,6.47,0.58,1.75c7.25-6.24,16.3-11.9,19-9.24a2.31,2.31,0,0,1,.66,1.37,2.31,2.31,0,0,1,1.37.66c2.69,2.69-3,11.74-9.24,19l1.75,0.58,6.47-6.47a1.43,1.43,0,0,1,1.29-.39l5.05,1a1.43,1.43,0,0,1-.56,2.77l-4.3-.86-6.5,6.58a1.43,1.43,0,0,1-1.46.34l-3.77-1.26c-0.62.66-1.24,1.31-1.85,1.92l-1,1-0.23.24,2.09,5.06,4.79-1.6a1.43,1.43,0,0,1,1.43.34l2,2A1.43,1.43,0,0,1,45.14,327.38Zm-22.22-6.06a1.43,1.43,0,0,0,2,0l-2-2a1.43,1.43,0,0,0,0,2h0Zm1-7.07a1.43,1.43,0,0,0,0,2l4.06,4a1.43,1.43,0,0,0,2,0l1-1-6.06-6.06Zm12.13,2c8.71-8.71,12.83-16.77,13-19l-0.42.12a1.43,1.43,0,0,1-1.85-1.85,4,4,0,0,0,.12-0.42c-2.23.19-10.29,4.32-19,13L27,309.22a1.43,1.43,0,0,0,0,2L33,317.3a1.43,1.43,0,0,0,2,0Z"/><path class="cls-4" d="M230.78,310.92a4.44,4.44,0,0,1-.41,1.85h5a1.42,1.42,0,0,1,1,.42L241,317.8h7.49a1.43,1.43,0,0,1,.23,2.85h-8.31a1.42,1.42,0,0,1-1-.42l-4.62-4.62h-4.42a8,8,0,0,1,.49,2.65,3.39,3.39,0,0,1,3.38.85l0.13,0.13a5.68,5.68,0,0,1,.88,6.94l1.15,1.15a1.43,1.43,0,0,1-2,2l-1.15-1.15a5.85,5.85,0,0,1-7.07-1,3.39,3.39,0,0,1-.85-3.39,8,8,0,0,1-2.65-.49v4.42l4.62,4.62a1.43,1.43,0,0,1,.42,1v8.08a1.43,1.43,0,0,1-2.85,0V334l-4.62-4.62a1.43,1.43,0,0,1-.42-1v-5a4.42,4.42,0,0,1-1.85.41H203a10.86,10.86,0,0,1-7.73-3.2l-0.1-.1a7.39,7.39,0,0,1,0-10.38l0.11-.11a7.61,7.61,0,0,1,.82-0.7L195,308.14a1.43,1.43,0,0,1,2-2L198.9,308a7.52,7.52,0,0,1,1.72-.2H201a29,29,0,0,1,4.05.29l-6.94-6.94a1.43,1.43,0,0,1,2-2l3.6,3.6a5.22,5.22,0,0,1,6.06-6.06l-3.6-3.6a1.43,1.43,0,0,1,1.94-2.11l0.09,0.09,6.94,6.94a29.06,29.06,0,0,1-.29-4.05v-0.38a7.52,7.52,0,0,1,.2-1.72l-1.85-1.85a1.43,1.43,0,0,1,1.94-2.11l0.09,0.09,1.07,1.07a7.6,7.6,0,0,1,.7-0.82l0.11-.11a7.39,7.39,0,0,1,10.38,0l0.1,0.1a10.86,10.86,0,0,1,3.2,7.73v15h0Zm-22,.92a25.76,25.76,0,0,0-7.32-1.22l4.2,4.2h7.67a16.47,16.47,0,0,1-4.53-3Zm-3.69,5.84a1.43,1.43,0,0,1-1-.42l-6-6a4.62,4.62,0,0,0-.86.67l-0.11.11a4.49,4.49,0,0,0,0,6.34l0.1,0.1a8,8,0,0,0,5.71,2.36h15a1.58,1.58,0,0,0,.68-0.16,11.08,11.08,0,0,1-2.14-3H205.12Zm27,7.9,0.27-.24a2.83,2.83,0,0,0,.83-1.85,2.86,2.86,0,0,0-.83-2.19l-0.13-.13a0.54,0.54,0,0,0-.76,0l-3.29,3.29a0.54,0.54,0,0,0,0,.76,3,3,0,0,0,3.91.32v0Zm-4.78-5.28c1.37-1.37.67-4.38-1.51-6.57s-5.2-2.88-6.57-1.51-0.67,4.38,1.51,6.57S226,321.63,227.35,320.3Zm-20.21-20.21c-1.43,1.43-.54,5.54,3,9.09a12.8,12.8,0,0,0,5.71,3.48,5.1,5.1,0,0,1,3.84-3.84,12.8,12.8,0,0,0-3.48-5.71c-3.57-3.6-7.63-4.49-9.1-3.06v0Zm10.54-5.63a25.76,25.76,0,0,0,1.22,7.32,16.47,16.47,0,0,1,3,4.55v-7.67Zm7.79-4.33a4.49,4.49,0,0,0-6.34,0l-0.11.11a4.62,4.62,0,0,0-.67.86l6,5.93a1.43,1.43,0,0,1,.42,1v11.42a11.08,11.08,0,0,1,3,2.14,1.58,1.58,0,0,0,.16-0.68v-15a8,8,0,0,0-2.36-5.71Z"/><path class="cls-4" d="M208.14,125.85l1.39,1.42,5.23-1.75a1.43,1.43,0,0,1,1.77.81l2.84,6.9a4.26,4.26,0,0,1,.92-1.3l-0.92-6.36a1.43,1.43,0,0,1,.41-1.21l2.52-2.52L221.88,119a1.43,1.43,0,0,1,2.83-.41l0.51,3.54a1.43,1.43,0,0,1-.41,1.21l-2.52,2.52,0.69,4.82a4.31,4.31,0,0,1,.68,0,5.68,5.68,0,0,1,1.66-3.81,8.52,8.52,0,0,1,3.87-2.06,6.56,6.56,0,0,0,.92-4.89L230,119a1.43,1.43,0,0,1,.18-1l3-5.05a1.43,1.43,0,0,1,2.45,1.47L232.84,119l0.06,0.3a9.41,9.41,0,0,1-.52,5.4,4.11,4.11,0,0,1,3.08,3.08,9.42,9.42,0,0,1,5.48-.55l0.3,0.06,4.62-2.77a1.43,1.43,0,0,1,1.47,2.45l-5.05,3a1.43,1.43,0,0,1-1,.18l-0.85-.17a6.56,6.56,0,0,0-4.89.92,8.52,8.52,0,0,1-2.06,3.87,5.69,5.69,0,0,1-3.81,1.66,4.32,4.32,0,0,1,0,.68l4.82,0.69,2.52-2.52a1.43,1.43,0,0,1,1.21-.41l3.54,0.51a1.43,1.43,0,1,1-.2,2.86l-0.21,0-2.83-.41L236,140.4a1.43,1.43,0,0,1-1.21.41l-6.36-.92a4.26,4.26,0,0,1-1.3.92l6.9,2.84a1.43,1.43,0,0,1,.81,1.77l-1.75,5.23,1.39,1.39a1.43,1.43,0,0,1-2,2l-2-2a1.43,1.43,0,0,1-.34-1.46l1.6-4.79-5.25-2.16,1.31,3.93a1.43,1.43,0,0,1-.34,1.46l-6.47,6.47,1.75,5.23a1.43,1.43,0,0,1-2.66,1.06l0-.14-2-6.06a1.42,1.42,0,0,1,.34-1.46l6.47-6.47-1-3.12a4.29,4.29,0,0,1-2.77.7,5.68,5.68,0,0,1-1.66,3.81l-1,1c-3.69,3.69-10.37,7.8-13.13,5.05s1.39-9.47,5.05-13.13l1-1a5.69,5.69,0,0,1,3.81-1.66,4.29,4.29,0,0,1,.7-2.77l-3.14-1L206.11,142a1.43,1.43,0,0,1-1.29.39l-5.05-1a1.43,1.43,0,0,1,.56-2.77l4.3,0.86,6.53-6.53a1.43,1.43,0,0,1,1.46-.34l3.93,1.31-2.16-5.25-4.79,1.6a1.43,1.43,0,0,1-1.46-.34l-2-2a1.46,1.46,0,0,1,2-2.1h0Zm4,18.19c-4,4-5.62,8.45-5.05,9.09s5.07-1,9.09-5.05l1-1a2.86,2.86,0,1,0-4-4Zm6.06-4,2,2a1.43,1.43,0,0,0,2.11-1.94l-0.09-.09-2-2a1.43,1.43,0,1,0-2.11,1.94l0.09,0.09h0Zm4-4,2,2a1.43,1.43,0,1,0,2.11-1.94l-0.09-.09-2-2a1.43,1.43,0,0,0-2,2h0Zm5.05-3a2.86,2.86,0,0,0,4,0c1.26-1.26,2-4.07,1-5.05s-3.8-.24-5.05,1a2.86,2.86,0,0,0,0,4h0Z"/><path class="cls-4" d="M28.67,154.55l1.39-1.42-1.75-5.23a1.43,1.43,0,0,1,.81-1.77l4.77-2a8,8,0,0,1-.31-0.92l-1.14-1.14-4.62.66a1.43,1.43,0,0,1-1.21-.41l-2.52-2.52-2.83.41a1.43,1.43,0,0,1-.41-2.83l3.54-.51a1.43,1.43,0,0,1,1.21.41l2.52,2.52,2.22-.31a7.17,7.17,0,0,1-.09-6.25,4.25,4.25,0,0,1-1.63-1l-2,2.1a1.43,1.43,0,0,1-1.75.21l-5.05-3a1.43,1.43,0,0,1,1.45-2.41l0.3,0.18,3.79,2.27,2-2a4.27,4.27,0,0,1,4-4.51h0.49l2-2-2.27-3.79-0.18-.3a1.43,1.43,0,0,1,2.45-1.47l3,5.05a1.43,1.43,0,0,1-.21,1.75l-2,2a4.25,4.25,0,0,1,1,1.63A7.17,7.17,0,0,1,42,128l0.31-2.22-2.52-2.52a1.43,1.43,0,0,1-.41-1.21l0.51-3.54a1.43,1.43,0,1,1,2.83.41l-0.41,2.79,2.52,2.52a1.43,1.43,0,0,1,.41,1.21l-0.66,4.62,1.14,1.14a8,8,0,0,1,.92.31l2-4.77a1.43,1.43,0,0,1,1.77-.81l5.23,1.75L57,126.29a1.43,1.43,0,1,1,2,2l-2,2a1.43,1.43,0,0,1-1.46.34l-4.83-1.6L49.06,133a39.63,39.63,0,0,1,3.69,3.27L56.45,135a1.43,1.43,0,0,1,1.46.34l6.47,6.47,5.23-1.75a1.43,1.43,0,0,1,1.06,2.66l-0.14,0-6,2a1.42,1.42,0,0,1-1.46-.34L56.55,138l-1.53.51a19.15,19.15,0,0,1,4.62,8.66c4.08,4.22,5.12,9.63,2.33,12.42s-8.2,1.75-12.42-2.33a19.13,19.13,0,0,1-8.66-4.62l-0.51,1.53,6.47,6.47a1.43,1.43,0,0,1,.39,1.29l-1,5a1.43,1.43,0,0,1-2.77-.56l0.86-4.3-6.58-6.56a1.43,1.43,0,0,1-.34-1.46l1.27-3.74a39.63,39.63,0,0,1-3.27-3.69l-3.93,1.62,1.59,4.85a1.43,1.43,0,0,1-.34,1.46l-2,2a1.44,1.44,0,1,1-2-2.06h0Zm2-26.27a1.43,1.43,0,1,0,2,0h0A1.43,1.43,0,0,0,30.69,128.29Zm5.05,3-2,2a4.29,4.29,0,0,0,0,6.06,7.13,7.13,0,0,1,6.08-2,7.13,7.13,0,0,1,2-6.08A4.29,4.29,0,0,0,35.75,131.32Zm16.62,8.59c-4.67-4.67-6.47-6.15-8.94-6.17a4.29,4.29,0,0,0,.35,5.66l12.93,12.93c1.2-2.89-.15-8.28-4.3-12.42h0Zm7.57,17.68c1-1,.92-3.15-0.21-5.46a6.52,6.52,0,0,1-5.25,5.25c2.36,1.18,4.51,1.2,5.5.21h0Zm-5.27-3.25L41.74,141.4a4.29,4.29,0,0,0-5.66-.35c0,2.43,1.5,4.27,6.17,8.94,4.21,4.17,9.56,5.51,12.47,4.34h0Z"/><path class="cls-4" d="M148.86,382a1.43,1.43,0,0,1-1.15.57h-6.17l6.71,3a1.42,1.42,0,0,1,.43.3l7.14,7.14a1.43,1.43,0,0,1-1.94,2.11L153.8,395l-7-7-8.49-3.77,6.24,10.41a1.43,1.43,0,0,1,.13,1.19l-2.85,8.57a1.43,1.43,0,0,1-2.71-.92l2.65-8-5.35-8.92a6.34,6.34,0,0,1-2.24,2.37l3.2,4.62a1.43,1.43,0,0,1,.17,1.31l-1.44,3.81a1.43,1.43,0,0,1-2.68-1l1.16-3.1-2.77-3.94-2.65,3.53,1.19,3.57a1.43,1.43,0,0,1-2.71.92l-1.43-4.29a1.43,1.43,0,0,1,.21-1.31l3-4a6.23,6.23,0,0,1-2.22-2.25L122,395.63l2.65,8a1.43,1.43,0,0,1-2.71.92l-2.85-8.57a1.43,1.43,0,0,1,.13-1.19l6.24-10.41L117,388.11l-7,7a1.43,1.43,0,1,1-2.11-1.94L108,393l7.14-7.14a1.43,1.43,0,0,1,.43-0.3l6.71-3h-6.07a1.43,1.43,0,0,1-1.15-.57l-8.55-11.43a1.43,1.43,0,0,1,2.29-1.71L117,379.77h6.79l-5.33-3a1.43,1.43,0,0,1-.66-0.85l-5.72-20a1.43,1.43,0,0,1,2.74-.79l5.54,19.44,6.41,3.69a7.69,7.69,0,0,1,1.44-2.39c-2.94-1.85-5-5.76-5-10.33,0-6.3,3.89-11.43,8.66-11.43s8.66,5.13,8.66,11.42c0,4.56-2,8.49-5,10.33a7.72,7.72,0,0,1,1.47,2.46l6.58-3.81,5.54-19.4a1.44,1.44,0,0,1,2.77.79l-5.72,19.92a1.43,1.43,0,0,1-.66.84l-5.39,3.12H147l8.1-10.85a1.43,1.43,0,1,1,2.4,1.57l-0.11.14Zm-17,4.86c1.39,0,3-2.05,3-5s-1.55-5-3-5-3,2.05-3,5,1.56,5,3,5h0Zm5.81-21.43c0-4.62-2.66-8.57-5.81-8.57s-5.81,3.93-5.81,8.57,2.66,8.57,5.81,8.57S137.67,370.11,137.67,365.46Z"/><g class="cls-2"><path class="cls-3" d="M39.14,230.17a5,5,0,1,0-5.08-5,5,5,0,0,0,5.08,5m0,2a7.07,7.07,0,1,1,7.11-7.07,7.07,7.07,0,0,1-7.11,7.07h0Z"/></g><g class="cls-2"><path class="cls-3" d="M130.05,306.44l5.9-5.9-5.9-5.9-5.9,5.9,5.9,5.9m0,2.87-8.77-8.77,8.77-8.77,8.77,8.77-8.77,8.77h0Z"/></g><g class="cls-2"><path class="cls-3" d="M130.05,151.28l5.08-8H125l5.08,8m0,3.8-8.77-13.85h17.55l-8.77,13.85h0Z"/></g><g class="cls-2"><path class="cls-3" d="M227.5,228.16v-8.31h-8.31v8.31h8.31m2,2h-12.4V217.78h12.4v12.41h0Z"/></g><path class="cls-4" d="M453.21,135a5.73,5.73,0,0,0-.3-1.85l-2.85-8.57a5.71,5.71,0,0,0-4.8-3.87,8.56,8.56,0,0,0-12.77-11.4q-0.22.25-.43,0.52L428.92,114v-3.33a1.43,1.43,0,0,0-2.85,0V114l-3.14-4.18a8.58,8.58,0,0,0-13.2,11,5.71,5.71,0,0,0-4.8,3.87l-2.85,8.57a5.72,5.72,0,0,0,5.42,7.53c5.71,0,12.34-2.95,16.69-7.28a4.3,4.3,0,0,0,.35.37l-2.72,10.85a1.43,1.43,0,0,0,2.77.69L427.18,135h0.62l2.59,10.36a1.43,1.43,0,0,0,2.77-.69l-2.72-10.85a4.3,4.3,0,0,0,.35-0.37c4.36,4.33,11,7.28,16.69,7.28a5.72,5.72,0,0,0,5.74-5.7S453.21,135,453.21,135Zm-42.85-11.43h14.21a19.71,19.71,0,0,0-1.35,6.78c-3.69,4.33-10.23,7.51-15.7,7.51a2.86,2.86,0,0,1-2.72-3.76l2.85-8.57A2.85,2.85,0,0,1,410.36,123.58Zm15.7-4.29a1.43,1.43,0,0,1-1.43,1.43h-8.57a5.72,5.72,0,1,1,4.62-9.14l5.14,6.85a1.41,1.41,0,0,1,.25.87h0Zm2.85,11.42a1.43,1.43,0,0,1-2.85,0,16.82,16.82,0,0,1,1.43-6.76,16.82,16.82,0,0,1,1.44,6.77h0Zm15.7-15.7a5.72,5.72,0,0,1-5.72,5.72h-8.57a1.43,1.43,0,0,1-1.15-2.28l5.14-6.85A5.72,5.72,0,0,1,444.64,115h0Zm5.72,20a2.86,2.86,0,0,1-2.85,2.85c-5.49,0-12.05-3.18-15.7-7.51a19.68,19.68,0,0,0-1.35-6.78h14.21a2.85,2.85,0,0,1,2.72,1.95l2.85,8.57a2.86,2.86,0,0,1,.15.91h0Z"/><path class="cls-4" d="M340.68,228.86l-1.39-1.39-5.23,1.75a1.43,1.43,0,0,1-1.77-.81L329.66,222h-0.33L328,223.32l0.92,6.36a1.43,1.43,0,0,1-.41,1.21L326,233.42l0.41,2.83a1.43,1.43,0,1,1-2.83.41l-0.49-3.54a1.43,1.43,0,0,1,.41-1.21l2.52-2.52-0.63-4.4a4.3,4.3,0,0,1-2.77-.33l-0.17.18a4.27,4.27,0,0,1-3.24,1.26,8.57,8.57,0,0,0,.21,11.89,1.43,1.43,0,0,1-1.94,2.11l-0.09-.09a11.44,11.44,0,0,1-.92-15.09l-0.07-.06-0.06-.07a11.44,11.44,0,0,1-15.09-.92,1.43,1.43,0,0,1,2-2,8.57,8.57,0,0,0,11.89.21,4.27,4.27,0,0,1,1.25-3.24l0.18-.17a4.3,4.3,0,0,1-.33-2.77l-4.4-.63-2.54,2.55a1.43,1.43,0,0,1-1.21.41l-3.54-.51a1.43,1.43,0,1,1,.2-2.86l0.21,0,2.83,0.41,2.52-2.52a1.43,1.43,0,0,1,1.21-.41l6.36,0.92,1.28-1.28v-0.33L312.87,209a1.43,1.43,0,0,1-.81-1.77L313.8,202l-1.39-1.39a1.43,1.43,0,0,1,2-2l2,2a1.43,1.43,0,0,1,.34,1.46l-1.6,4.79,5.06,2.09,0.23-.26,1-1c0.61-.61,1.26-1.23,1.92-1.85l-1.27-3.77a1.43,1.43,0,0,1,.34-1.46l6.47-6.47-1.75-5.23a1.43,1.43,0,0,1,2.66-1.06l0,0.14,2,6.06a1.43,1.43,0,0,1-.34,1.46L325.13,202l0.58,1.75c7.25-6.24,16.3-11.9,19-9.24a2.28,2.28,0,0,0,2,2c2.69,2.69-3,11.74-9.24,19l1.75,0.58,6.47-6.47a1.43,1.43,0,0,1,1.29-.39l5.05,1a1.43,1.43,0,0,1-.56,2.77l-4.3-.86-6.51,6.59a1.43,1.43,0,0,1-1.46.34l-3.77-1.26c-0.62.66-1.24,1.31-1.85,1.92l-1,1-0.26.23,2.09,5.06,4.79-1.6a1.43,1.43,0,0,1,1.46.34l2,2A1.43,1.43,0,0,1,340.68,228.86Zm-22.22-6.06a1.43,1.43,0,0,0,2,0l-2-2a1.43,1.43,0,0,0,0,2h0Zm1-7.07a1.43,1.43,0,0,0,0,2l4,4a1.43,1.43,0,0,0,2,0l1-1-6.06-6.06Zm12.12,2.05c8.71-8.71,12.83-16.77,13-19l-0.42.12a1.43,1.43,0,0,1-1.85-1.85,4,4,0,0,0,.12-0.42c-2.23.19-10.29,4.32-19,13l-1,1a1.43,1.43,0,0,0,0,2l6.06,6.06a1.43,1.43,0,0,0,2,0Z"/><path class="cls-4" d="M526.32,212.41a4.44,4.44,0,0,1-.41,1.85h5a1.42,1.42,0,0,1,1,.42l4.62,4.62h7.49a1.43,1.43,0,0,1,.23,2.85H536a1.42,1.42,0,0,1-1-.42l-4.62-4.62h-4.42a8,8,0,0,1,.49,2.65,3.39,3.39,0,0,1,3.38.85l0.13,0.13a5.68,5.68,0,0,1,.88,6.94l1.15,1.15a1.43,1.43,0,0,1-2,2l-1.15-1.15a5.85,5.85,0,0,1-7.07-1,3.39,3.39,0,0,1-.85-3.39,8,8,0,0,1-2.65-.49v4.42l4.62,4.62a1.43,1.43,0,0,1,.42,1v8.08a1.43,1.43,0,0,1-2.85,0v-7.49l-4.62-4.62a1.43,1.43,0,0,1-.42-1v-5a4.42,4.42,0,0,1-1.85.41h-15a10.86,10.86,0,0,1-7.73-3.2l-0.1-.1a7.39,7.39,0,0,1,0-10.38l0.11-.11a7.61,7.61,0,0,1,.82-0.7l-1.07-1.07a1.43,1.43,0,0,1,2-2l1.85,1.85a7.52,7.52,0,0,1,1.72-.2h0.38a29,29,0,0,1,4.05.29l-6.94-6.94a1.43,1.43,0,0,1,2-2l3.6,3.6a5.22,5.22,0,0,1,6.06-6.06l-3.6-3.6a1.43,1.43,0,0,1,2-2l6.94,6.94a29.06,29.06,0,0,1-.29-4.05V195a7.52,7.52,0,0,1,.2-1.72l-1.85-1.85a1.43,1.43,0,0,1,2-2l1.07,1.07a7.6,7.6,0,0,1,.7-0.82l0.11-.11a7.39,7.39,0,0,1,10.38,0l0.1,0.1a10.86,10.86,0,0,1,3.2,7.73v15h0Zm-22,.92a25.76,25.76,0,0,0-7.32-1.22l4.2,4.2h7.67a16.47,16.47,0,0,1-4.53-3Zm-3.69,5.84a1.43,1.43,0,0,1-1-.42l-6-6a4.62,4.62,0,0,0-.86.67l-0.11.11a4.49,4.49,0,0,0,0,6.34l0.1,0.1a8,8,0,0,0,5.71,2.36h15a1.58,1.58,0,0,0,.68-0.16,11.08,11.08,0,0,1-2.14-3H500.66Zm27,7.85,0.27-.24a2.83,2.83,0,0,0,.83-1.85,2.86,2.86,0,0,0-.83-2.19l-0.13-.13a0.54,0.54,0,0,0-.76,0l-3.29,3.29a0.54,0.54,0,0,0,0,.76A3,3,0,0,0,527.68,227Zm-4.78-5.28c1.37-1.37.67-4.38-1.51-6.57s-5.2-2.88-6.57-1.51-0.67,4.38,1.51,6.57,5.2,2.89,6.57,1.52h0Zm-20.21-20.21c-1.43,1.43-.54,5.54,3,9.09a12.8,12.8,0,0,0,5.71,3.48,5.1,5.1,0,0,1,3.84-3.84,12.8,12.8,0,0,0-3.48-5.71c-3.57-3.55-7.63-4.44-9.1-3h0Zm10.54-5.63a25.76,25.76,0,0,0,1.22,7.32,16.47,16.47,0,0,1,3,4.55V200.1Zm7.79-4.33a4.49,4.49,0,0,0-6.34,0l-0.11.11a4.62,4.62,0,0,0-.67.86l6,6a1.43,1.43,0,0,1,.42,1v11.44a11.08,11.08,0,0,1,3,2.14,1.58,1.58,0,0,0,.16-0.68v-15a8,8,0,0,0-2.36-5.71Z"/><path class="cls-4" d="M503.69,30.33l1.39,1.39L510.31,30a1.43,1.43,0,0,1,1.77.81l2.84,6.9a4.26,4.26,0,0,1,.92-1.3L514.92,30a1.43,1.43,0,0,1,.41-1.21l2.52-2.52-0.41-2.83a1.43,1.43,0,1,1,2.83-.41l0.51,3.54a1.43,1.43,0,0,1-.41,1.21l-2.52,2.52,0.69,4.82a4.31,4.31,0,0,1,.68,0,5.68,5.68,0,0,1,1.66-3.81,8.52,8.52,0,0,1,3.87-2.06,6.56,6.56,0,0,0,.92-4.89l-0.17-.85a1.43,1.43,0,0,1,.18-1l3-5.05a1.43,1.43,0,0,1,2.45,1.47l-2.77,4.62,0.06,0.3a9.41,9.41,0,0,1-.52,5.4A4.11,4.11,0,0,1,531,32.34a9.42,9.42,0,0,1,5.4-.52l0.3,0.06,4.62-2.77a1.43,1.43,0,0,1,1.47,2.45l-5.05,3a1.43,1.43,0,0,1-1,.18l-0.85-.17a6.56,6.56,0,0,0-4.89.92,8.52,8.52,0,0,1-2.06,3.87,5.69,5.69,0,0,1-3.81,1.66,4.31,4.31,0,0,1,0,.68L530,42.43l2.52-2.52a1.43,1.43,0,0,1,1.21-.41L537.22,40a1.43,1.43,0,0,1-.2,2.86l-0.21,0L534,42.43,531.47,45a1.43,1.43,0,0,1-1.21.41l-6.36-.92a4.26,4.26,0,0,1-1.3.92l6.9,2.84A1.43,1.43,0,0,1,530.3,50l-1.75,5.23L530,56.6a1.43,1.43,0,0,1-2,2l-2-2a1.43,1.43,0,0,1-.34-1.46l1.6-4.79-5.25-2.16,1.31,3.93a1.43,1.43,0,0,1-.34,1.46L516.42,60l1.75,5.23a1.43,1.43,0,0,1-2.66,1.06l0-.14-2-6.1a1.42,1.42,0,0,1,.34-1.46l6.47-6.47-1-3.12a4.29,4.29,0,0,1-2.77.7,5.68,5.68,0,0,1-1.66,3.81l-1,1c-3.69,3.69-10.37,7.8-13.13,5.05s1.39-9.47,5.05-13.13l1-1a5.69,5.69,0,0,1,3.81-1.66,4.29,4.29,0,0,1,.7-2.77l-3.12-1-6.47,6.47a1.43,1.43,0,0,1-1.29.39l-5.05-1a1.43,1.43,0,0,1,.56-2.77l4.3,0.86,6.53-6.53a1.43,1.43,0,0,1,1.46-.34l3.93,1.31-2.16-5.25-4.79,1.6a1.43,1.43,0,0,1-1.46-.34l-2-2A1.43,1.43,0,1,1,503.69,30.33Zm4,18.19c-4,4-5.62,8.45-5.05,9.09s5.07-1,9.09-5.05l1-1a2.86,2.86,0,0,0-4-4Zm6.06-4,2,2a1.43,1.43,0,0,0,2-2l-2-2a1.43,1.43,0,1,0-2,2h0Zm4-4,2,2a1.43,1.43,0,0,0,2-2l-2-2a1.43,1.43,0,0,0-2,2h0Zm5.05-3a2.86,2.86,0,0,0,4,0c1.26-1.26,2-4.07,1-5.05s-3.8-.24-5.05,1a2.86,2.86,0,0,0,0,4h0Z"/><path class="cls-4" d="M324.22,56l1.39-1.39-1.75-5.23a1.43,1.43,0,0,1,.81-1.77l4.77-2a8,8,0,0,1-.31-0.92L328,43.61l-4.62.66a1.43,1.43,0,0,1-1.21-.41l-2.5-2.48-2.83.41a1.43,1.43,0,0,1-.62-2.8l0.21,0,3.54-.51a1.43,1.43,0,0,1,1.21.41l2.52,2.52,2.22-.31a7.17,7.17,0,0,1-.09-6.25,4.25,4.25,0,0,1-1.63-1l-2,2a1.43,1.43,0,0,1-1.75.21l-5.05-3a1.43,1.43,0,0,1,1.47-2.45l0.3,0.18L321,33l2-2a4.27,4.27,0,0,1,4-4.51h0.49l2-2-2.27-3.79-0.18-.3a1.43,1.43,0,0,1,2.45-1.47l3,5.05a1.43,1.43,0,0,1-.21,1.75l-2,2a4.25,4.25,0,0,1,1,1.63,7.17,7.17,0,0,1,6.25.09l0.31-2.22-2.55-2.5a1.43,1.43,0,0,1-.41-1.21L335.43,20a1.43,1.43,0,1,1,2.83.41l-0.41,2.83,2.52,2.52a1.43,1.43,0,0,1,.41,1.21l-0.66,4.62,1.14,1.14a8,8,0,0,1,.92.31l2-4.77a1.43,1.43,0,0,1,1.77-.81l5.23,1.75,1.39-1.39a1.43,1.43,0,0,1,2,2l-2,2a1.43,1.43,0,0,1-1.46.34l-4.86-1.65-1.62,3.93a39.63,39.63,0,0,1,3.69,3.27L352,36.5a1.43,1.43,0,0,1,1.46.34l6.47,6.47,5.23-1.75a1.43,1.43,0,1,1,1.06,2.66l-0.14,0-6.06,2a1.42,1.42,0,0,1-1.46-.34l-6.47-6.47-1.53.51a19.15,19.15,0,0,1,4.62,8.66c4.08,4.22,5.12,9.63,2.33,12.42s-8.2,1.75-12.42-2.33a19.13,19.13,0,0,1-8.66-4.62l-0.51,1.53,6.47,6.47a1.43,1.43,0,0,1,.39,1.29l-1,5.05a1.43,1.43,0,0,1-2.77-.56l0.86-4.3-6.55-6.53a1.43,1.43,0,0,1-.34-1.46l1.24-3.69a39.63,39.63,0,0,1-3.27-3.69L327,49.85l1.6,4.79a1.43,1.43,0,0,1-.34,1.46l-2,2a1.45,1.45,0,0,1-2-2.09h0Zm2-26.27a1.43,1.43,0,1,0,2,0h0a1.43,1.43,0,0,0-2,0h0Zm5.05,3-2,2a4.29,4.29,0,0,0,0,6.06,7.13,7.13,0,0,1,6.08-2,7.13,7.13,0,0,1,2-6.08,4.29,4.29,0,0,0-6.06,0h0Zm16.62,8.59c-4.67-4.67-6.47-6.15-8.94-6.17a4.29,4.29,0,0,0,.35,5.66l12.93,12.93c1.2-2.93-.15-8.28-4.3-12.43h0Zm7.57,17.68c1-1,.92-3.15-0.21-5.46A6.52,6.52,0,0,1,350,58.85c2.36,1.18,4.51,1.2,5.5.21h0Zm-5.27-3.25L337.28,42.88a4.29,4.29,0,0,0-5.66-.35c0,2.43,1.5,4.27,6.17,8.94,4.21,4.17,9.56,5.51,12.47,4.34h0Z"/><path class="cls-4" d="M444.4,283.51a1.43,1.43,0,0,1-1.15.57h-6.17l6.71,3a1.42,1.42,0,0,1,.43.3l7.14,7.14a1.43,1.43,0,0,1-1.94,2.11l-0.09-.09-7-7-8.49-3.77,6.24,10.41a1.43,1.43,0,0,1,.13,1.19L437.42,306a1.43,1.43,0,0,1-2.71-.92l2.65-8L432,288.18a6.34,6.34,0,0,1-2.24,2.37l3.2,4.62a1.43,1.43,0,0,1,.17,1.31l-1.43,3.81a1.43,1.43,0,0,1-2.68-1l1.16-3.1-2.77-3.94-2.65,3.53,1.19,3.57a1.43,1.43,0,0,1-2.71.92L421.82,296a1.43,1.43,0,0,1,.21-1.31l3-4a6.23,6.23,0,0,1-2.22-2.25l-5.26,8.76,2.65,8a1.43,1.43,0,0,1-2.71.92l-2.85-8.57a1.43,1.43,0,0,1,.13-1.19l6.24-10.41-8.49,3.77-7,7a1.43,1.43,0,1,1-2.11-1.94l0.09-.09,7.14-7.14a1.43,1.43,0,0,1,.43-0.3l6.71-3H411.8a1.43,1.43,0,0,1-1.15-.57L402.1,272.1a1.43,1.43,0,0,1,2.29-1.71l8.12,10.86h6.79l-5.33-3a1.43,1.43,0,0,1-.66-0.85l-5.72-20a1.43,1.43,0,0,1,2.74-.79L415.87,276l6.41,3.69a7.69,7.69,0,0,1,1.44-2.39c-2.94-1.85-5-5.76-5-10.33,0-6.3,3.89-11.43,8.66-11.43s8.66,5.13,8.66,11.42c0,4.56-2,8.49-5,10.33a7.72,7.72,0,0,1,1.47,2.46l6.58-3.81,5.54-19.4a1.44,1.44,0,0,1,2.77.79l-5.72,19.92a1.43,1.43,0,0,1-.66.84l-5.39,3.12h6.86l8.1-10.85a1.43,1.43,0,1,1,2.4,1.57l-0.11.14Zm-17,4.86c1.39,0,3-2.05,3-5s-1.55-5-3-5-3,2.05-3,5S426,288.37,427.41,288.37Zm5.81-21.43c0-4.62-2.66-8.57-5.81-8.57s-5.81,3.93-5.81,8.57,2.66,8.57,5.81,8.57S433.22,271.59,433.22,266.94Z"/><g class="cls-2"><path class="cls-3" d="M334.68,131.65a5,5,0,1,0-5-5,5,5,0,0,0,5,5m0,2a7.07,7.07,0,1,1,7.07-7.07,7.07,7.07,0,0,1-7.07,7.07h0Z"/></g><g class="cls-2"><path class="cls-3" d="M425.6,207.95l5.9-5.9-5.9-5.9-5.9,5.94,5.9,5.9m0,2.87-8.77-8.77,8.77-8.77,8.77,8.77-8.77,8.77h0Z"/></g><g class="cls-2"><path class="cls-3" d="M425.6,52.78l5.08-8H420.52l5.08,8m0,3.8-8.77-13.85h17.55L425.6,56.57h0Z"/></g><g class="cls-2"><path class="cls-3" d="M523,129.65v-8.31h-8.31v8.31H523m2,2h-12.4v-12.4h12.4v12.4h0Z"/></g><path class="cls-4" d="M748.76,36.49a5.73,5.73,0,0,0-.3-1.85l-2.85-8.57a5.71,5.71,0,0,0-4.8-3.87A8.56,8.56,0,1,0,728,10.8q-0.22.25-.43,0.52l-3.14,4.18V12.17a1.43,1.43,0,0,0-2.85,0v3.35l-3.14-4.18a8.57,8.57,0,1,0-13.2,10.89,5.71,5.71,0,0,0-4.8,3.87l-2.85,8.57A5.72,5.72,0,0,0,703,42.19c5.71,0,12.34-2.95,16.69-7.28a4.3,4.3,0,0,0,.35.37l-2.72,10.85a1.43,1.43,0,0,0,2.77.69l2.59-10.36h0.62l2.59,10.36a1.43,1.43,0,0,0,2.77-.69L726,35.28a4.3,4.3,0,0,0,.35-0.37c4.36,4.33,11,7.28,16.69,7.28a5.72,5.72,0,0,0,5.74-5.7h0ZM705.89,25.06h14.21a19.71,19.71,0,0,0-1.35,6.78c-3.69,4.33-10.23,7.51-15.7,7.51a2.86,2.86,0,0,1-2.72-3.76L703.2,27a2.85,2.85,0,0,1,2.71-1.95h0Zm15.7-4.29a1.43,1.43,0,0,1-1.43,1.43h-8.57a5.72,5.72,0,1,1,4.62-9.14l5.14,6.85a1.41,1.41,0,0,1,.26.87h0Zm2.85,11.42a1.43,1.43,0,0,1-2.85,0A16.82,16.82,0,0,1,723,25.44a16.82,16.82,0,0,1,1.45,6.77h0Zm15.7-15.7a5.72,5.72,0,0,1-5.72,5.72h-8.57a1.43,1.43,0,0,1-1.15-2.28l5.14-6.85a5.72,5.72,0,0,1,10.33,3.42h0Zm5.72,20A2.86,2.86,0,0,1,743,39.36c-5.49,0-12.05-3.18-15.7-7.51A19.68,19.68,0,0,0,726,25.07h14.21A2.85,2.85,0,0,1,742.89,27l2.85,8.57a2.86,2.86,0,0,1,.16.91h0Z"/><path class="cls-4" d="M636.23,130.36L634.83,129l-5.23,1.75a1.43,1.43,0,0,1-1.77-.81l-2.62-6.36h-0.33l-1.28,1.28,0.92,6.36a1.43,1.43,0,0,1-.41,1.21l-2.52,2.52,0.41,2.83a1.43,1.43,0,1,1-2.83.41l-0.49-3.55a1.43,1.43,0,0,1,.41-1.21l2.52-2.52-0.63-4.4a4.3,4.3,0,0,1-2.77-.33l-0.17.18a4.27,4.27,0,0,1-3.24,1.25,8.57,8.57,0,0,0,.21,11.89,1.43,1.43,0,0,1-2,2,11.44,11.44,0,0,1-.92-15.09l-0.07-.06-0.06-.07a11.44,11.44,0,0,1-15.09-.92,1.43,1.43,0,1,1,1.94-2.11l0.09,0.09a8.57,8.57,0,0,0,11.89.21,4.27,4.27,0,0,1,1.25-3.24l0.18-.17a4.3,4.3,0,0,1-.33-2.77l-4.4-.63-2.52,2.52a1.43,1.43,0,0,1-1.21.41l-3.54-.51a1.43,1.43,0,0,1,.2-2.86l0.21,0,2.83,0.41,2.52-2.52a1.43,1.43,0,0,1,1.21-.41l6.36,0.92,1.28-1.28v-0.33l-6.36-2.62a1.43,1.43,0,0,1-.81-1.77l1.75-5.23L608,102.07a1.43,1.43,0,0,1,2-2l2,2a1.43,1.43,0,0,1,.34,1.46l-1.6,4.79,5.06,2.09,0.23-.26,1-1c0.61-.61,1.26-1.23,1.92-1.85l-1.26-3.77a1.43,1.43,0,0,1,.34-1.46l6.47-6.47-1.75-5.23a1.43,1.43,0,0,1,2.66-1.06l0,0.14,2,6.06a1.43,1.43,0,0,1-.34,1.46l-6.47,6.47,0.58,1.75c7.25-6.24,16.3-11.9,19-9.24a2.28,2.28,0,0,0,2,2c2.69,2.69-3,11.74-9.24,19l1.75,0.58,6.47-6.47a1.43,1.43,0,0,1,1.29-.39l5.05,1a1.43,1.43,0,0,1-.56,2.77l-4.3-.86-6.54,6.63a1.43,1.43,0,0,1-1.46.34L631,119.34c-0.62.66-1.24,1.31-1.85,1.92l-1,1-0.26.23,2.09,5.06,4.79-1.6a1.43,1.43,0,0,1,1.46.39l2,2A1.43,1.43,0,0,1,636.23,130.36ZM614,124.3a1.43,1.43,0,0,0,2,0l-2-2a1.43,1.43,0,0,0,0,2h0Zm1-7.07a1.43,1.43,0,0,0,0,2l4,4a1.43,1.43,0,0,0,2,0l1-1-6.07-6.1Zm12.13,2c8.71-8.71,12.83-16.77,13-19l-0.42.12a1.43,1.43,0,0,1-1.85-1.85A4,4,0,0,0,638,98.1c-2.23.19-10.29,4.32-19,13l-1,1a1.43,1.43,0,0,0,0,2l6.06,6.06a1.43,1.43,0,0,0,2,0Z"/><path class="cls-4" d="M821.87,113.9a4.44,4.44,0,0,1-.41,1.85h5a1.42,1.42,0,0,1,1,.42l4.62,4.62h7.49a1.43,1.43,0,1,1,.23,2.85h-8.31a1.42,1.42,0,0,1-1-.42l-4.62-4.62h-4.42a8,8,0,0,1,.49,2.65,3.39,3.39,0,0,1,3.38.85l0.13,0.13a5.68,5.68,0,0,1,.88,6.94l1.15,1.15a1.43,1.43,0,0,1-2,2l-1.15-1.15a5.85,5.85,0,0,1-7.07-1,3.39,3.39,0,0,1-.85-3.39,8,8,0,0,1-2.65-.49v4.42l4.62,4.62a1.43,1.43,0,0,1,.42,1v8.08a1.43,1.43,0,1,1-2.85,0v-7.49l-4.62-4.62a1.43,1.43,0,0,1-.42-1v-5a4.42,4.42,0,0,1-1.85.41h-15a10.86,10.86,0,0,1-7.73-3.2l-0.1-.1a7.39,7.39,0,0,1,0-10.38l0.11-.11a7.61,7.61,0,0,1,.82-0.7l-1.07-1.07a1.43,1.43,0,0,1,2-2l1.85,1.85a7.52,7.52,0,0,1,1.72-.2h0.38a29,29,0,0,1,4.05.29l-6.94-6.94a1.43,1.43,0,0,1,2-2l3.6,3.6a5.22,5.22,0,0,1,6.06-6.06l-3.6-3.6a1.43,1.43,0,0,1,1.94-2.11L799.3,94l6.94,6.94a29.06,29.06,0,0,1-.29-4.05V96.49a7.52,7.52,0,0,1,.2-1.72l-1.85-1.85a1.43,1.43,0,0,1,1.94-2.11l0.09,0.09L807.4,92a7.6,7.6,0,0,1,.7-0.82l0.11-.11a7.39,7.39,0,0,1,10.38,0l0.1,0.1a10.86,10.86,0,0,1,3.2,7.73v15h0Zm-22,.92a25.76,25.76,0,0,0-7.32-1.22l4.2,4.2h7.67a16.47,16.47,0,0,1-4.53-3Zm-3.69,5.84a1.43,1.43,0,0,1-1-.42l-6-6a4.62,4.62,0,0,0-.86.67l-0.11.11a4.49,4.49,0,0,0,0,6.34l0.1,0.1a8,8,0,0,0,5.71,2.36h15a1.58,1.58,0,0,0,.68-0.16,11.08,11.08,0,0,1-2.14-3H796.21Zm27,7.9,0.27-.24a2.83,2.83,0,0,0,.83-1.85,2.86,2.86,0,0,0-.83-2.19l-0.13-.13a0.54,0.54,0,0,0-.76,0l-3.29,3.29a0.54,0.54,0,0,0,0,.76,3,3,0,0,0,3.91.32v0Zm-4.78-5.28c1.37-1.37.67-4.38-1.51-6.57s-5.2-2.88-6.57-1.51-0.67,4.38,1.51,6.57,5.2,2.84,6.57,1.47v0Zm-20.21-20.21c-1.43,1.43-.54,5.54,3,9.09a12.8,12.8,0,0,0,5.71,3.48,5.1,5.1,0,0,1,3.84-3.84,12.8,12.8,0,0,0-3.48-5.71c-3.57-3.6-7.63-4.5-9.1-3.06v0Zm10.54-5.63a25.76,25.76,0,0,0,1.22,7.32,16.47,16.47,0,0,1,3,4.55v-7.67Zm7.79-4.33a4.49,4.49,0,0,0-6.34,0l-0.11.11a4.62,4.62,0,0,0-.67.86l6,6a1.43,1.43,0,0,1,.42,1v11.39a11.08,11.08,0,0,1,3,2.14,1.58,1.58,0,0,0,.16-0.68v-15a8,8,0,0,0-2.36-5.71Z"/><path class="cls-4" d="M739.94,185a1.43,1.43,0,0,1-1.15.57h-6.17l6.71,3a1.42,1.42,0,0,1,.43.3l7.14,7.14a1.43,1.43,0,0,1-2,2l-7-7-8.48-3.76,6.24,10.41a1.43,1.43,0,0,1,.13,1.19L733,207.47a1.43,1.43,0,0,1-2.71-.92l2.65-8-5.35-8.92a6.34,6.34,0,0,1-2.24,2.37l3.2,4.62a1.43,1.43,0,0,1,.17,1.31l-1.43,3.81a1.43,1.43,0,0,1-2.68-1l1.16-3.1-2.7-3.91-2.65,3.53,1.19,3.57a1.43,1.43,0,0,1-2.71.92l-1.48-4.33a1.43,1.43,0,0,1,.21-1.31l3-4a6.23,6.23,0,0,1-2.22-2.25l-5.26,8.76,2.65,8a1.43,1.43,0,0,1-2.71.92l-2.85-8.57a1.43,1.43,0,0,1,.13-1.19l6.23-10.42-8.49,3.77-7,7a1.43,1.43,0,0,1-2-2l7.14-7.14a1.43,1.43,0,0,1,.43-0.3l6.71-3h-6.1a1.43,1.43,0,0,1-1.15-.57l-8.55-11.43a1.43,1.43,0,0,1,2.29-1.71L708,182.69h6.79l-5.33-3a1.43,1.43,0,0,1-.66-0.85l-5.72-20a1.43,1.43,0,0,1,2.74-.79l5.54,19.44,6.41,3.69a7.69,7.69,0,0,1,1.44-2.39c-2.94-1.85-5-5.76-5-10.33,0-6.3,3.89-11.43,8.66-11.43s8.66,5.13,8.66,11.42c0,4.56-2,8.49-5,10.33a7.72,7.72,0,0,1,1.47,2.46l6.58-3.81L740.2,158a1.44,1.44,0,1,1,2.77.79h0l-5.72,19.92a1.43,1.43,0,0,1-.66.84l-5.38,3.15h6.86l8.1-10.85a1.43,1.43,0,1,1,2.4,1.57l-0.11.14Zm-17,4.86c1.39,0,3-2.05,3-5s-1.55-5-3-5-3,2.05-3,5,1.56,5,3,5h0Zm5.81-21.43c0-4.62-2.66-8.57-5.81-8.57s-5.81,3.93-5.81,8.57S719.8,177,723,177s5.81-3.93,5.81-8.58h0Z"/><g class="cls-2"><path class="cls-3" d="M630.22,33.13a5,5,0,1,0-5-5,5,5,0,0,0,5,5m0,2a7.07,7.07,0,1,1,7.07-7.07,7.07,7.07,0,0,1-7.07,7.07h0Z"/></g><g class="cls-2"><path class="cls-3" d="M721.14,109.43l5.9-5.9-5.9-5.9-5.9,5.9,5.9,5.9m0,2.87-8.77-8.77,8.77-8.77,8.77,8.77-8.77,8.77h0Z"/></g><g class="cls-2"><path class="cls-3" d="M818.59,31.14V22.82h-8.31v8.31h8.31m2,2h-12.4V20.76h12.4v12.4h0Z"/></g><path class="cls-4" d="M157.67,529a5.73,5.73,0,0,0-.3-1.85l-2.85-8.57a5.71,5.71,0,0,0-4.8-3.87,8.56,8.56,0,0,0-12.77-11.4q-0.22.25-.43,0.52L133.38,508V504.7a1.43,1.43,0,0,0-2.85,0V508l-3.14-4.18a8.57,8.57,0,1,0-13.2,10.89,5.71,5.71,0,0,0-4.8,3.87l-2.85,8.57a5.72,5.72,0,0,0,5.42,7.53c5.71,0,12.34-2.95,16.69-7.28a4.29,4.29,0,0,0,.35.37l-2.72,10.85a1.43,1.43,0,0,0,2.77.69L131.63,529h0.62l2.59,10.36a1.43,1.43,0,0,0,2.77-.69l-2.72-10.85a4.29,4.29,0,0,0,.35-0.37c4.36,4.33,11,7.28,16.69,7.28A5.72,5.72,0,0,0,157.67,529ZM114.8,517.59H129a19.71,19.71,0,0,0-1.35,6.78c-3.69,4.33-10.23,7.51-15.7,7.51a2.86,2.86,0,0,1-2.72-3.76l2.85-8.57a2.85,2.85,0,0,1,2.71-1.91v0Zm15.7-4.29a1.43,1.43,0,0,1-1.43,1.43H120.5a5.72,5.72,0,1,1,4.62-9.14l5.14,6.85a1.41,1.41,0,0,1,.26.88Zm2.85,11.42a1.43,1.43,0,0,1-2.85,0,16.82,16.82,0,0,1,1.43-6.76,16.82,16.82,0,0,1,1.45,6.82Zm15.7-15.7a5.72,5.72,0,0,1-5.72,5.72h-8.57a1.43,1.43,0,0,1-1.15-2.28l5.14-6.85a5.72,5.72,0,0,1,10.33,3.45Zm5.75,20a2.86,2.86,0,0,1-2.85,2.85c-5.49,0-12.05-3.18-15.7-7.51a19.68,19.68,0,0,0-1.35-6.78h14.21a2.85,2.85,0,0,1,2.72,1.95l2.85,8.57A2.86,2.86,0,0,1,154.81,529Z"/><path class="cls-4" d="M45.14,622.93l-1.39-1.39-5.23,1.7a1.43,1.43,0,0,1-1.77-.81l-2.62-6.36H33.79l-1.28,1.28,0.92,6.36a1.43,1.43,0,0,1-.41,1.21l-2.52,2.52,0.41,2.83a1.43,1.43,0,0,1-2.83.41l-0.49-3.49A1.43,1.43,0,0,1,28,626l2.52-2.52-0.63-4.4a4.3,4.3,0,0,1-2.77-.33l-0.17.18a4.27,4.27,0,0,1-3.24,1.25A8.57,8.57,0,0,0,23.9,632,1.43,1.43,0,0,1,22,634.13L21.87,634A11.44,11.44,0,0,1,21,619l-0.07-.06-0.06-.07a11.44,11.44,0,0,1-15.09-.92,1.44,1.44,0,0,1,2-2.05,8.57,8.57,0,0,0,11.89.21,4.27,4.27,0,0,1,1.25-3.24l0.18-.17a4.3,4.3,0,0,1-.33-2.77l-4.4-.63-2.52,2.52a1.43,1.43,0,0,1-1.21.41l-3.54-.51a1.43,1.43,0,0,1,.41-2.83l2.83,0.41,2.52-2.52a1.43,1.43,0,0,1,1.21-.41l6.36,0.92L23.68,606v-0.33L17.32,603a1.43,1.43,0,0,1-.81-1.77L18.25,596l-1.4-1.4a1.43,1.43,0,0,1,2-2l2,2a1.43,1.43,0,0,1,.34,1.46l-1.6,4.79,5.06,2.09,0.23-.26,1-1c0.61-.61,1.26-1.23,1.92-1.85l-1.26-3.77a1.43,1.43,0,0,1,.34-1.46l6.47-6.47-1.75-5.23a1.43,1.43,0,0,1,2.66-1.06l0,0.14,2,6.15a1.43,1.43,0,0,1-.34,1.46l-6.47,6.47,0.58,1.75c7.25-6.24,16.3-11.9,19-9.24a2.31,2.31,0,0,1,.66,1.37,2.31,2.31,0,0,1,1.37.66c2.69,2.69-3,11.74-9.24,19l1.75,0.58,6.47-6.47a1.43,1.43,0,0,1,1.29-.39l5.05,1a1.43,1.43,0,0,1-.56,2.77l-4.3-.86-6.5,6.59a1.43,1.43,0,0,1-1.46.34l-3.77-1.26c-0.62.66-1.24,1.31-1.85,1.92l-1,1-0.23.24,2.09,5.06,4.79-1.6a1.43,1.43,0,0,1,1.43.34l2,2a1.43,1.43,0,1,1-1.86,2.18Zm-22.22-6.06a1.43,1.43,0,0,0,2,0l-2-2a1.43,1.43,0,0,0,0,2h0Zm1-7.07a1.43,1.43,0,0,0,0,2l4.06,4a1.43,1.43,0,0,0,2,0l1-1-6.06-6.06Zm12.13,2c8.71-8.71,12.83-16.77,13-19l-0.42.12a1.43,1.43,0,0,1-1.85-1.85,4,4,0,0,0,.12-0.42c-2.23.19-10.29,4.32-19,13L27,604.76a1.43,1.43,0,0,0,0,2L33,612.84a1.43,1.43,0,0,0,2,0Z"/><path class="cls-4" d="M230.78,606.47a4.44,4.44,0,0,1-.41,1.85h5a1.42,1.42,0,0,1,1,.42l4.62,4.62h7.49a1.43,1.43,0,1,1,.23,2.85h-8.31a1.42,1.42,0,0,1-1-.42l-4.62-4.62h-4.42a8,8,0,0,1,.49,2.65,3.39,3.39,0,0,1,3.38.85l0.13,0.13a5.68,5.68,0,0,1,.88,6.94l1.15,1.15a1.43,1.43,0,0,1-2,2l-1.15-1.15a5.85,5.85,0,0,1-7.07-1,3.39,3.39,0,0,1-.85-3.39,8,8,0,0,1-2.65-.49v4.42l4.62,4.62a1.43,1.43,0,0,1,.42,1V637a1.43,1.43,0,0,1-2.85,0v-7.49l-4.62-4.62a1.43,1.43,0,0,1-.42-1v-5a4.42,4.42,0,0,1-1.85.41H203a10.86,10.86,0,0,1-7.73-3.2l-0.1-.1a7.39,7.39,0,0,1,0-10.38l0.11-.11a7.61,7.61,0,0,1,.82-0.7L195,603.69a1.43,1.43,0,0,1,2-2l1.85,1.85a7.52,7.52,0,0,1,1.72-.2H201a29,29,0,0,1,4.05.29l-6.94-6.94a1.43,1.43,0,1,1,1.94-2.11l0.09,0.09,3.6,3.6a5.22,5.22,0,0,1,6.06-6.06l-3.6-3.6a1.43,1.43,0,1,1,1.94-2.11l0.09,0.09,6.94,6.94a29.06,29.06,0,0,1-.29-4.05v-0.38a7.52,7.52,0,0,1,.2-1.72l-1.85-1.85a1.43,1.43,0,1,1,1.94-2.11l0.09,0.09,1.07,1.07a7.6,7.6,0,0,1,.7-0.82l0.11-.11a7.39,7.39,0,0,1,10.38,0l0.1,0.1a10.86,10.86,0,0,1,3.2,7.73v15h0Zm-22,.92a25.76,25.76,0,0,0-7.32-1.22l4.2,4.2h7.67a16.47,16.47,0,0,1-4.53-3Zm-3.69,5.84a1.43,1.43,0,0,1-1-.42l-6-6a4.62,4.62,0,0,0-.86.67l-0.11.11a4.49,4.49,0,0,0,0,6.34l0.1,0.1a8,8,0,0,0,5.71,2.36h15a1.58,1.58,0,0,0,.68-0.16,11.08,11.08,0,0,1-2.14-3H205.12Zm27,7.9,0.27-.24a2.83,2.83,0,0,0,.83-1.85,2.86,2.86,0,0,0-.83-2.19l-0.13-.13a0.54,0.54,0,0,0-.76,0L228.23,620a0.54,0.54,0,0,0,0,.76,3,3,0,0,0,3.91.32v0Zm-4.78-5.28c1.37-1.37.67-4.38-1.51-6.57s-5.2-2.88-6.57-1.51-0.67,4.38,1.51,6.57S226,617.17,227.35,615.84Zm-20.21-20.21c-1.43,1.43-.54,5.54,3,9.09a12.8,12.8,0,0,0,5.71,3.48,5.1,5.1,0,0,1,3.84-3.84,12.8,12.8,0,0,0-3.48-5.71c-3.57-3.6-7.63-4.49-9.1-3.06v0ZM217.68,590a25.76,25.76,0,0,0,1.22,7.32,16.47,16.47,0,0,1,3,4.55V594.2Zm7.79-4.33a4.49,4.49,0,0,0-6.34,0l-0.11.11a4.62,4.62,0,0,0-.67.86l6,5.93a1.43,1.43,0,0,1,.42,1V605a11.08,11.08,0,0,1,3,2.14,1.58,1.58,0,0,0,.16-0.68v-15a8,8,0,0,0-2.36-5.71Z"/><path class="cls-4" d="M208.14,421.39l1.39,1.42,5.23-1.75a1.43,1.43,0,0,1,1.77.81l2.84,6.9a4.26,4.26,0,0,1,.92-1.3l-0.92-6.36a1.43,1.43,0,0,1,.41-1.21l2.52-2.52-0.42-2.88a1.43,1.43,0,0,1,2.83-.41l0.51,3.54a1.43,1.43,0,0,1-.41,1.21l-2.52,2.52,0.69,4.82a4.32,4.32,0,0,1,.68,0,5.68,5.68,0,0,1,1.66-3.81,8.52,8.52,0,0,1,3.87-2.06,6.56,6.56,0,0,0,.92-4.89l-0.17-.85a1.43,1.43,0,0,1,.18-1l3-5.05a1.43,1.43,0,0,1,2.45,1.47l-2.77,4.62,0.06,0.3a9.41,9.41,0,0,1-.52,5.4,4.11,4.11,0,0,1,3.08,3.08,9.42,9.42,0,0,1,5.48-.55l0.3,0.06,4.62-2.77a1.43,1.43,0,0,1,1.47,2.45l-5.05,3a1.43,1.43,0,0,1-1,.18l-0.85-.17a6.56,6.56,0,0,0-4.89.92,8.52,8.52,0,0,1-2.06,3.87,5.69,5.69,0,0,1-3.81,1.66,4.32,4.32,0,0,1,0,.68l4.82,0.69,2.52-2.52a1.43,1.43,0,0,1,1.21-.41l3.54,0.51a1.43,1.43,0,1,1-.2,2.86l-0.21,0-2.83-.41L236,435.95a1.43,1.43,0,0,1-1.21.41l-6.36-.92a4.26,4.26,0,0,1-1.3.92l6.9,2.84a1.43,1.43,0,0,1,.81,1.77l-1.75,5.23,1.39,1.39a1.43,1.43,0,0,1-1.94,2.11l-0.09-.09-2-2a1.43,1.43,0,0,1-.34-1.46l1.6-4.79-5.25-2.16,1.31,3.93a1.43,1.43,0,0,1-.34,1.46L220.93,451l1.75,5.23a1.43,1.43,0,1,1-2.66,1.06l0-.14-2-6.06a1.42,1.42,0,0,1,.34-1.46l6.47-6.47-1-3.12a4.29,4.29,0,0,1-2.77.7,5.68,5.68,0,0,1-1.66,3.81l-1,1c-3.69,3.69-10.37,7.8-13.13,5.05s1.39-9.47,5.05-13.13l1-1a5.69,5.69,0,0,1,3.81-1.66,4.29,4.29,0,0,1,.7-2.77l-3.14-1-6.47,6.47a1.43,1.43,0,0,1-1.29.39l-5.05-1a1.43,1.43,0,0,1,.56-2.77l4.3,0.86,6.53-6.53a1.43,1.43,0,0,1,1.46-.34l3.93,1.31-2.16-5.25-4.79,1.6a1.43,1.43,0,0,1-1.46-.34l-2-2A1.46,1.46,0,0,1,208.14,421.39Zm4,18.19c-4,4-5.62,8.45-5.05,9.09s5.07-1,9.09-5.05l1-1a2.86,2.86,0,1,0-4-4h0Zm6.06-4,2,2a1.43,1.43,0,0,0,2-2l-2-2a1.43,1.43,0,0,0-2,2h0Zm4-4,2,2a1.43,1.43,0,0,0,2-2l-2-2a1.43,1.43,0,0,0-2,2h0Zm5.05-3a2.86,2.86,0,0,0,4,0c1.26-1.26,2-4.07,1-5.05s-3.8-.24-5.05,1a2.86,2.86,0,0,0,0,4h0Z"/><path class="cls-4" d="M28.67,450.1l1.39-1.42-1.75-5.23a1.43,1.43,0,0,1,.81-1.77l4.77-2a8,8,0,0,1-.31-0.92l-1.14-1.14-4.62.66a1.43,1.43,0,0,1-1.21-.41l-2.52-2.52-2.83.41a1.43,1.43,0,0,1-.41-2.83l3.54-.51a1.43,1.43,0,0,1,1.21.41l2.52,2.52,2.22-.31a7.17,7.17,0,0,1-.09-6.25,4.25,4.25,0,0,1-1.63-1l-2,2.1a1.43,1.43,0,0,1-1.75.21l-5.05-3a1.43,1.43,0,0,1,1.45-2.41l0.3,0.18,3.79,2.27,2-2a4.27,4.27,0,0,1,4-4.51h0.49l2-2-2.27-3.79-0.18-.3A1.43,1.43,0,0,1,33.94,413l3,5.05a1.43,1.43,0,0,1-.21,1.75l-2,2a4.25,4.25,0,0,1,1,1.63,7.17,7.17,0,0,1,6.25.09l0.31-2.22-2.52-2.52a1.43,1.43,0,0,1-.41-1.21l0.51-3.54a1.43,1.43,0,1,1,2.83.41l-0.41,2.79,2.52,2.52a1.43,1.43,0,0,1,.41,1.21l-0.66,4.62,1.14,1.14a8,8,0,0,1,.92.31l2-4.77a1.43,1.43,0,0,1,1.77-.81l5.23,1.75L57,421.84a1.43,1.43,0,1,1,2,2l-2,2a1.43,1.43,0,0,1-1.46.34l-4.83-1.6-1.62,3.93a39.63,39.63,0,0,1,3.69,3.27l3.69-1.24a1.43,1.43,0,0,1,1.46.34l6.47,6.47,5.23-1.75a1.43,1.43,0,1,1,1.06,2.66l-0.14,0-6,2A1.42,1.42,0,0,1,63,440l-6.47-6.47-1.53.51a19.15,19.15,0,0,1,4.62,8.66c4.08,4.22,5.12,9.63,2.33,12.42s-8.2,1.75-12.42-2.33a19.13,19.13,0,0,1-8.66-4.62l-0.51,1.53,6.47,6.47a1.43,1.43,0,0,1,.39,1.29l-1,5a1.43,1.43,0,0,1-2.77-.56l0.86-4.3-6.58-6.56a1.43,1.43,0,0,1-.34-1.46l1.27-3.74a39.63,39.63,0,0,1-3.27-3.69l-3.93,1.62,1.59,4.85a1.43,1.43,0,0,1-.34,1.46l-2,2A1.44,1.44,0,1,1,28.67,450.1Zm2-26.27a1.43,1.43,0,1,0,2,0h0A1.43,1.43,0,0,0,30.69,423.83Zm5.05,3-2,2a4.29,4.29,0,0,0,0,6.06,7.13,7.13,0,0,1,6.08-2,7.13,7.13,0,0,1,2-6.08A4.29,4.29,0,0,0,35.75,426.86Zm16.62,8.59c-4.67-4.67-6.47-6.15-8.94-6.17a4.29,4.29,0,0,0,.35,5.66l12.93,12.93c1.2-2.89-.15-8.28-4.3-12.42h0Zm7.57,17.68c1-1,.92-3.15-0.21-5.46a6.52,6.52,0,0,1-5.25,5.25c2.36,1.18,4.51,1.2,5.5.21h0Zm-5.27-3.25L41.74,436.95a4.29,4.29,0,0,0-5.66-.35c0,2.43,1.5,4.27,6.17,8.94,4.21,4.17,9.56,5.51,12.47,4.34h0Z"/><path class="cls-4" d="M148.86,677.57a1.43,1.43,0,0,1-1.15.57h-6.17l6.71,3a1.42,1.42,0,0,1,.43.3l7.14,7.14a1.43,1.43,0,0,1-1.94,2.11l-0.09-.09-7-7-8.49-3.77,6.24,10.41a1.43,1.43,0,0,1,.13,1.19L141.87,700a1.43,1.43,0,0,1-2.71-.92l2.65-8-5.35-8.92a6.35,6.35,0,0,1-2.24,2.37l3.2,4.62a1.43,1.43,0,0,1,.17,1.31l-1.44,3.81a1.43,1.43,0,0,1-2.68-1l1.16-3.1-2.77-3.94-2.65,3.53,1.19,3.57a1.43,1.43,0,0,1-2.71.92L126.27,690a1.43,1.43,0,0,1,.21-1.31l3-4a6.23,6.23,0,0,1-2.22-2.25L122,691.18l2.65,8a1.43,1.43,0,0,1-2.71.92l-2.85-8.57a1.43,1.43,0,0,1,.13-1.19l6.24-10.41L117,683.65l-7,7a1.43,1.43,0,0,1-2.11-1.94l0.09-.09,7.14-7.14a1.43,1.43,0,0,1,.43-0.3l6.71-3h-6.07a1.43,1.43,0,0,1-1.15-.57l-8.55-11.43a1.43,1.43,0,0,1,2.29-1.71L117,675.31h6.79l-5.33-3a1.43,1.43,0,0,1-.66-0.85l-5.72-20a1.43,1.43,0,0,1,2.74-.79l5.54,19.44,6.41,3.69a7.69,7.69,0,0,1,1.44-2.39c-2.94-1.85-5-5.76-5-10.33,0-6.3,3.89-11.43,8.66-11.43s8.66,5.13,8.66,11.42c0,4.56-2,8.49-5,10.33a7.72,7.72,0,0,1,1.47,2.46l6.58-3.81,5.54-19.4a1.44,1.44,0,1,1,2.77.79h0l-5.72,19.92a1.43,1.43,0,0,1-.66.84l-5.39,3.12H147l8.1-10.85a1.43,1.43,0,0,1,2.4,1.57l-0.11.14Zm-17,4.86c1.39,0,3-2.05,3-5s-1.55-5-3-5-3,2.05-3,5,1.56,5,3,5h0ZM137.67,661c0-4.62-2.66-8.57-5.81-8.57s-5.81,3.93-5.81,8.57,2.66,8.57,5.81,8.57S137.67,665.65,137.67,661Z"/><g class="cls-2"><path class="cls-3" d="M39.14,525.71a5,5,0,1,0-5.08-5,5,5,0,0,0,5.08,5m0,2a7.07,7.07,0,1,1,7.11-7.07,7.07,7.07,0,0,1-7.11,7.07h0Z"/></g><g class="cls-2"><path class="cls-3" d="M130.05,602l5.9-5.9-5.9-5.9-5.9,5.9,5.9,5.9m0,2.87-8.77-8.77,8.77-8.77,8.77,8.77-8.77,8.77h0Z"/></g><g class="cls-2"><path class="cls-3" d="M130.05,446.83l5.08-8H125l5.08,8m0,3.8-8.77-13.85h17.55l-8.77,13.85h0Z"/></g><g class="cls-2"><path class="cls-3" d="M227.5,523.71v-8.31h-8.31v8.31h8.31m2,2h-12.4V513.33h12.4v12.41h0Z"/></g><path class="cls-4" d="M453.21,430.55a5.73,5.73,0,0,0-.3-1.85l-2.85-8.57a5.71,5.71,0,0,0-4.8-3.87,8.56,8.56,0,1,0-12.77-11.4q-0.22.25-.43,0.52l-3.14,4.18v-3.33a1.43,1.43,0,0,0-2.85,0v3.33l-3.14-4.18a8.58,8.58,0,0,0-13.2,11,5.71,5.71,0,0,0-4.8,3.87l-2.85,8.57a5.72,5.72,0,0,0,5.42,7.53c5.71,0,12.34-2.95,16.69-7.28a4.3,4.3,0,0,0,.35.37l-2.72,10.85a1.43,1.43,0,0,0,2.77.69l2.59-10.36h0.62L430.38,441a1.43,1.43,0,0,0,2.77-.69l-2.72-10.85a4.3,4.3,0,0,0,.35-0.37c4.36,4.33,11,7.28,16.69,7.28a5.72,5.72,0,0,0,5.74-5.7S453.21,430.58,453.21,430.55Zm-42.85-11.43h14.21a19.71,19.71,0,0,0-1.35,6.78c-3.69,4.33-10.23,7.51-15.7,7.51a2.86,2.86,0,0,1-2.72-3.76l2.85-8.57A2.85,2.85,0,0,1,410.36,419.12Zm15.7-4.29a1.43,1.43,0,0,1-1.43,1.43h-8.57a5.72,5.72,0,1,1,4.62-9.14l5.14,6.85a1.41,1.41,0,0,1,.25.87h0Zm2.85,11.42a1.43,1.43,0,0,1-2.85,0,16.82,16.82,0,0,1,1.43-6.76,16.82,16.82,0,0,1,1.44,6.77h0Zm15.7-15.7a5.72,5.72,0,0,1-5.72,5.72h-8.57a1.43,1.43,0,0,1-1.15-2.28l5.14-6.85a5.72,5.72,0,0,1,10.32,3.41h0Zm5.72,20a2.86,2.86,0,0,1-2.85,2.85c-5.49,0-12.05-3.18-15.7-7.51a19.68,19.68,0,0,0-1.35-6.78h14.21a2.85,2.85,0,0,1,2.72,1.95l2.85,8.57a2.86,2.86,0,0,1,.15.91h0Z"/><path class="cls-4" d="M340.68,524.41L339.29,523l-5.23,1.75a1.43,1.43,0,0,1-1.77-.81l-2.62-6.36h-0.33L328,518.87l0.92,6.36a1.43,1.43,0,0,1-.41,1.21L326,529l0.41,2.83a1.43,1.43,0,1,1-2.83.41l-0.49-3.54a1.43,1.43,0,0,1,.41-1.21l2.52-2.52-0.63-4.4a4.3,4.3,0,0,1-2.77-.33l-0.17.18a4.27,4.27,0,0,1-3.24,1.26,8.57,8.57,0,0,0,.21,11.89,1.43,1.43,0,0,1-2,2,11.44,11.44,0,0,1-.92-15.09l-0.07-.06-0.06-.07a11.44,11.44,0,0,1-15.09-.92,1.43,1.43,0,1,1,1.94-2.11l0.09,0.09a8.57,8.57,0,0,0,11.89.21,4.27,4.27,0,0,1,1.25-3.24l0.18-.17a4.3,4.3,0,0,1-.33-2.77l-4.4-.63-2.54,2.55a1.43,1.43,0,0,1-1.21.41l-3.54-.51a1.43,1.43,0,1,1,.2-2.86l0.21,0,2.83,0.41,2.52-2.52a1.43,1.43,0,0,1,1.21-.41l6.36,0.92,1.28-1.28v-0.33l-6.36-2.62a1.43,1.43,0,0,1-.81-1.77l1.75-5.23-1.39-1.39a1.43,1.43,0,0,1,2-2l2,2a1.43,1.43,0,0,1,.34,1.46l-1.6,4.79,5.06,2.09,0.23-.26,1-1c0.61-.61,1.26-1.23,1.92-1.85l-1.27-3.77a1.43,1.43,0,0,1,.34-1.46L329,489.7l-1.75-5.23a1.43,1.43,0,1,1,2.66-1.06l0,0.14,2,6.06a1.43,1.43,0,0,1-.34,1.46l-6.47,6.47,0.58,1.75c7.25-6.24,16.3-11.9,19-9.24a2.28,2.28,0,0,0,2,2c2.69,2.69-3,11.74-9.24,19l1.75,0.58,6.47-6.47a1.43,1.43,0,0,1,1.29-.39l5.05,1a1.43,1.43,0,0,1-.56,2.77l-4.3-.86-6.51,6.59a1.43,1.43,0,0,1-1.46.34l-3.77-1.26c-0.62.66-1.24,1.31-1.85,1.92l-1,1-0.26.23,2.09,5.06,4.79-1.6a1.43,1.43,0,0,1,1.46.34l2,2a1.43,1.43,0,0,1-1.94,2.11Zm-22.22-6.06a1.43,1.43,0,0,0,2,0l-2-2a1.43,1.43,0,0,0,0,2h0Zm1-7.07a1.43,1.43,0,0,0,0,2l4,4a1.43,1.43,0,0,0,2,0l1-1-6.06-6.06Zm12.12,2.05c8.71-8.71,12.83-16.77,13-19l-0.42.12a1.43,1.43,0,0,1-1.85-1.85,4,4,0,0,0,.12-0.42c-2.23.19-10.29,4.32-19,13l-1,1a1.43,1.43,0,0,0,0,2l6.06,6.06a1.43,1.43,0,0,0,2,0Z"/><path class="cls-4" d="M526.32,508a4.44,4.44,0,0,1-.41,1.85h5a1.42,1.42,0,0,1,1,.42l4.62,4.62h7.49a1.43,1.43,0,1,1,.23,2.85H536a1.42,1.42,0,0,1-1-.42l-4.62-4.62h-4.42a8,8,0,0,1,.49,2.65,3.39,3.39,0,0,1,3.38.85l0.13,0.13a5.68,5.68,0,0,1,.88,6.94l1.15,1.15a1.43,1.43,0,1,1-1.94,2.11l-0.09-.09-1.15-1.15a5.85,5.85,0,0,1-7.07-1,3.39,3.39,0,0,1-.85-3.39,8,8,0,0,1-2.65-.49v4.42l4.62,4.62a1.43,1.43,0,0,1,.42,1v8.08a1.43,1.43,0,0,1-2.85,0V531l-4.62-4.62a1.43,1.43,0,0,1-.42-1v-5a4.42,4.42,0,0,1-1.85.41h-15a10.86,10.86,0,0,1-7.73-3.2l-0.1-.1a7.39,7.39,0,0,1,0-10.38l0.11-.11a7.61,7.61,0,0,1,.82-0.7l-1.07-1.07a1.43,1.43,0,0,1,2-2l1.85,1.85a7.52,7.52,0,0,1,1.72-.2h0.38a29,29,0,0,1,4.05.29l-6.94-6.94a1.43,1.43,0,0,1,2-2l3.6,3.6a5.22,5.22,0,0,1,6.06-6.06l-3.6-3.6a1.43,1.43,0,0,1,2-2l6.94,6.94a29.06,29.06,0,0,1-.29-4.05v-0.38a7.52,7.52,0,0,1,.2-1.72L508.76,487a1.43,1.43,0,1,1,1.94-2.11l0.09,0.09,1.07,1.07a7.6,7.6,0,0,1,.7-0.82l0.11-.11a7.39,7.39,0,0,1,10.38,0l0.1,0.1a10.86,10.86,0,0,1,3.2,7.73v15h0Zm-22,.92a25.76,25.76,0,0,0-7.32-1.22l4.2,4.2h7.67a16.47,16.47,0,0,1-4.53-3Zm-3.69,5.84a1.43,1.43,0,0,1-1-.42l-6-6a4.62,4.62,0,0,0-.86.67l-0.11.11a4.49,4.49,0,0,0,0,6.34l0.1,0.1a8,8,0,0,0,5.71,2.36h15a1.58,1.58,0,0,0,.68-0.16,11.08,11.08,0,0,1-2.14-3H500.66Zm27,7.85,0.27-.24a2.83,2.83,0,0,0,.83-1.85,2.86,2.86,0,0,0-.83-2.19l-0.13-.13a0.54,0.54,0,0,0-.76,0l-3.29,3.29a0.54,0.54,0,0,0,0,.76A3,3,0,0,0,527.68,522.56Zm-4.78-5.28c1.37-1.37.67-4.38-1.51-6.57s-5.2-2.88-6.57-1.51-0.67,4.38,1.51,6.57,5.2,2.89,6.57,1.52h0Zm-20.21-20.21c-1.43,1.43-.54,5.54,3,9.09a12.8,12.8,0,0,0,5.71,3.48,5.1,5.1,0,0,1,3.84-3.84,12.8,12.8,0,0,0-3.48-5.71c-3.57-3.55-7.63-4.44-9.1-3h0Zm10.54-5.63a25.76,25.76,0,0,0,1.22,7.32,16.47,16.47,0,0,1,3,4.55v-7.67Zm7.79-4.33a4.49,4.49,0,0,0-6.34,0l-0.11.11a4.62,4.62,0,0,0-.67.86l6,6a1.43,1.43,0,0,1,.42,1v11.44a11.08,11.08,0,0,1,3,2.14,1.58,1.58,0,0,0,.16-0.68v-15a8,8,0,0,0-2.36-5.71Z"/><path class="cls-4" d="M503.69,322.88l1.39,1.39,5.23-1.75a1.43,1.43,0,0,1,1.77.81l2.84,6.9a4.26,4.26,0,0,1,.92-1.3l-0.92-6.36a1.43,1.43,0,0,1,.41-1.21l2.52-2.52L517.45,316a1.43,1.43,0,1,1,2.83-.41l0.51,3.54a1.43,1.43,0,0,1-.41,1.21l-2.52,2.52,0.69,4.82a4.31,4.31,0,0,1,.68,0,5.68,5.68,0,0,1,1.66-3.81,8.52,8.52,0,0,1,3.87-2.06,6.56,6.56,0,0,0,.92-4.89l-0.17-.85a1.43,1.43,0,0,1,.18-1l3-5.05a1.43,1.43,0,0,1,2.45,1.47l-2.77,4.62,0.06,0.3a9.41,9.41,0,0,1-.52,5.4,4.11,4.11,0,0,1,3.08,3.08,9.42,9.42,0,0,1,5.4-.52l0.3,0.06,4.62-2.77a1.43,1.43,0,0,1,1.47,2.45l-5.05,3a1.43,1.43,0,0,1-1,.18l-0.85-.17a6.56,6.56,0,0,0-4.89.92,8.52,8.52,0,0,1-2.06,3.87,5.69,5.69,0,0,1-3.81,1.66,4.31,4.31,0,0,1,0,.68L530,335l2.52-2.52a1.43,1.43,0,0,1,1.21-.41l3.54,0.51a1.43,1.43,0,0,1-.41,2.83L534,335l-2.52,2.52a1.43,1.43,0,0,1-1.21.41l-6.36-.92a4.26,4.26,0,0,1-1.3.92l6.9,2.84a1.43,1.43,0,0,1,.81,1.77l-1.75,5.23,1.39,1.39a1.43,1.43,0,0,1-2,2l-2-2a1.43,1.43,0,0,1-.34-1.46l1.6-4.79-5.25-2.16,1.31,3.93a1.43,1.43,0,0,1-.34,1.46l-6.47,6.47,1.75,5.23a1.43,1.43,0,0,1-2.66,1.06l0-.14-2-6.1a1.42,1.42,0,0,1,.34-1.46l6.47-6.47-1-3.12a4.29,4.29,0,0,1-2.77.7,5.68,5.68,0,0,1-1.66,3.81l-1,1c-3.69,3.69-10.37,7.8-13.13,5.05s1.39-9.47,5.05-13.13l1-1a5.69,5.69,0,0,1,3.81-1.66,4.29,4.29,0,0,1,.7-2.77l-3.12-1L501.64,339a1.43,1.43,0,0,1-1.29.39l-5.05-1a1.43,1.43,0,0,1,.56-2.77l4.3,0.86,6.53-6.53a1.43,1.43,0,0,1,1.46-.34l3.93,1.31-2.16-5.25-4.79,1.6a1.43,1.43,0,0,1-1.46-.34l-2-2a1.43,1.43,0,1,1,2-2h0Zm4,18.19c-4,4-5.62,8.45-5.05,9.09s5.07-1,9.09-5.05l1-1a2.86,2.86,0,0,0-4-4Zm6.06-4,2,2a1.43,1.43,0,0,0,2-2l-2-2a1.43,1.43,0,1,0-2,2h0Zm4-4,2,2a1.43,1.43,0,0,0,2-2l-2-2a1.43,1.43,0,0,0-2,2h0Zm5.05-3a2.86,2.86,0,0,0,4,0c1.26-1.26,2-4.07,1-5.05s-3.8-.24-5.05,1a2.86,2.86,0,0,0,0,4h0Z"/><path class="cls-4" d="M324.22,351.58l1.39-1.39L323.86,345a1.43,1.43,0,0,1,.81-1.77l4.77-2a8,8,0,0,1-.31-0.92L328,339.16l-4.62.66a1.43,1.43,0,0,1-1.21-.41l-2.5-2.48-2.83.41a1.43,1.43,0,0,1-.62-2.8l0.21,0L320,334a1.43,1.43,0,0,1,1.21.41l2.52,2.52,2.22-.31a7.17,7.17,0,0,1-.09-6.25,4.25,4.25,0,0,1-1.63-1l-2,2a1.43,1.43,0,0,1-1.75.21l-5.05-3a1.43,1.43,0,0,1,1.47-2.45l0.3,0.18,3.79,2.27,2-2a4.27,4.27,0,0,1,4-4.51h0.49l2-2-2.27-3.79-0.18-.3a1.43,1.43,0,0,1,2.45-1.47l3,5.05a1.43,1.43,0,0,1-.21,1.75l-2,2a4.25,4.25,0,0,1,1,1.63,7.17,7.17,0,0,1,6.25.09l0.31-2.22-2.55-2.5a1.43,1.43,0,0,1-.41-1.21l0.51-3.54a1.43,1.43,0,1,1,2.83.41l-0.41,2.83,2.52,2.52a1.43,1.43,0,0,1,.41,1.21l-0.66,4.62,1.14,1.14a8,8,0,0,1,.92.31l2-4.77a1.43,1.43,0,0,1,1.77-.81l5.23,1.75,1.39-1.39a1.43,1.43,0,0,1,2,2l-2,2a1.43,1.43,0,0,1-1.46.34l-4.86-1.65L344.61,330a39.63,39.63,0,0,1,3.69,3.27L352,332a1.43,1.43,0,0,1,1.46.34l6.47,6.47,5.23-1.75a1.43,1.43,0,1,1,1.06,2.66l-0.14,0-6.06,2a1.42,1.42,0,0,1-1.46-.34L352.09,335l-1.53.51a19.15,19.15,0,0,1,4.62,8.66c4.08,4.22,5.12,9.63,2.33,12.42s-8.2,1.75-12.42-2.33a19.13,19.13,0,0,1-8.66-4.62l-0.51,1.53,6.47,6.47a1.43,1.43,0,0,1,.39,1.29l-1,5.05a1.43,1.43,0,0,1-2.77-.56l0.86-4.3-6.55-6.53a1.43,1.43,0,0,1-.34-1.46l1.24-3.69a39.63,39.63,0,0,1-3.27-3.69L327,345.39l1.6,4.79a1.43,1.43,0,0,1-.34,1.46l-2,2A1.45,1.45,0,0,1,324.22,351.58Zm2-26.27a1.43,1.43,0,1,0,2,0h0a1.43,1.43,0,0,0-2,0h0Zm5.05,3-2,2a4.29,4.29,0,0,0,0,6.06,7.13,7.13,0,0,1,6.08-2,7.13,7.13,0,0,1,2-6.08,4.29,4.29,0,0,0-6.06,0h0Zm16.62,8.59c-4.67-4.67-6.47-6.15-8.94-6.17a4.29,4.29,0,0,0,.35,5.66l12.93,12.93c1.2-2.93-.15-8.28-4.3-12.43h0Zm7.57,17.68c1-1,.92-3.15-0.21-5.46A6.52,6.52,0,0,1,350,354.4c2.36,1.18,4.51,1.2,5.5.21h0Zm-5.27-3.25-12.93-12.93a4.29,4.29,0,0,0-5.66-.35c0,2.43,1.5,4.27,6.17,8.94,4.21,4.17,9.56,5.51,12.47,4.34h0Z"/><path class="cls-4" d="M444.4,579.06a1.43,1.43,0,0,1-1.15.57h-6.17l6.71,3a1.42,1.42,0,0,1,.43.3l7.14,7.14a1.43,1.43,0,0,1-2,2l-7-7-8.49-3.77,6.24,10.41a1.43,1.43,0,0,1,.13,1.19l-2.85,8.57a1.43,1.43,0,0,1-2.71-.92l2.65-8L432,583.72a6.34,6.34,0,0,1-2.24,2.37l3.2,4.62a1.43,1.43,0,0,1,.17,1.31l-1.43,3.81a1.43,1.43,0,0,1-2.68-1l1.16-3.1-2.77-3.94-2.65,3.53,1.19,3.57a1.43,1.43,0,0,1-2.71.92l-1.43-4.29a1.43,1.43,0,0,1,.21-1.31l3-4a6.23,6.23,0,0,1-2.22-2.25l-5.26,8.76,2.65,8a1.43,1.43,0,0,1-2.71.92L414.69,593a1.43,1.43,0,0,1,.13-1.19l6.24-10.41-8.49,3.77-7,7a1.43,1.43,0,0,1-2-2l7.14-7.14a1.43,1.43,0,0,1,.43-0.3l6.71-3H411.8a1.43,1.43,0,0,1-1.15-.57l-8.55-11.43a1.43,1.43,0,0,1,2.29-1.71l8.12,10.86h6.79l-5.33-3a1.43,1.43,0,0,1-.66-0.85l-5.72-20a1.43,1.43,0,0,1,2.74-.79l5.54,19.44,6.41,3.69a7.69,7.69,0,0,1,1.44-2.39c-2.94-1.85-5-5.76-5-10.33,0-6.3,3.89-11.43,8.66-11.43s8.66,5.13,8.66,11.42c0,4.56-2,8.49-5,10.33a7.72,7.72,0,0,1,1.47,2.46l6.58-3.81,5.54-19.4a1.44,1.44,0,0,1,2.77.79h0l-5.72,19.92a1.43,1.43,0,0,1-.66.84l-5.39,3.12h6.86l8.1-10.85a1.43,1.43,0,0,1,2.4,1.57l-0.11.14Zm-17,4.86c1.39,0,3-2.05,3-5s-1.55-5-3-5-3,2.05-3,5,1.56,5,3,5h0Zm5.81-21.43c0-4.62-2.66-8.57-5.81-8.57s-5.81,3.93-5.81,8.57,2.66,8.57,5.81,8.57S433.22,567.13,433.22,562.49Z"/><g class="cls-2"><path class="cls-3" d="M334.68,427.19a5,5,0,1,0-5-5,5,5,0,0,0,5,5m0,2a7.07,7.07,0,1,1,7.07-7.07h0a7.07,7.07,0,0,1-7.07,7.07h0Z"/></g><g class="cls-2"><path class="cls-3" d="M425.6,503.49l5.9-5.9-5.9-5.9-5.9,5.94,5.9,5.9m0,2.87-8.77-8.77,8.77-8.77,8.77,8.77-8.77,8.77h0Z"/></g><g class="cls-2"><path class="cls-3" d="M425.6,348.32l5.08-8H420.52l5.08,8m0,3.8-8.77-13.85h17.55l-8.77,13.85h0Z"/></g><g class="cls-2"><path class="cls-3" d="M523,425.2v-8.31h-8.31v8.31H523m2,2h-12.4v-12.4h12.4v12.4h0Z"/></g><path class="cls-4" d="M748.76,332a5.73,5.73,0,0,0-.3-1.85l-2.85-8.57a5.71,5.71,0,0,0-4.8-3.87A8.56,8.56,0,1,0,728,306.34q-0.22.25-.43,0.52L724.47,311v-3.33a1.43,1.43,0,0,0-2.85,0v3.35l-3.14-4.18a8.57,8.57,0,1,0-13.2,10.89,5.71,5.71,0,0,0-4.8,3.87l-2.85,8.57a5.72,5.72,0,0,0,5.42,7.53c5.71,0,12.34-2.95,16.69-7.28a4.3,4.3,0,0,0,.35.37l-2.72,10.85a1.43,1.43,0,0,0,2.77.69L722.72,332h0.62l2.59,10.36a1.43,1.43,0,0,0,2.77-.69L726,330.83a4.3,4.3,0,0,0,.35-0.37c4.36,4.33,11,7.28,16.69,7.28a5.72,5.72,0,0,0,5.74-5.7h0ZM705.89,320.6h14.21a19.71,19.71,0,0,0-1.35,6.78c-3.69,4.33-10.23,7.51-15.7,7.51a2.86,2.86,0,0,1-2.72-3.76l2.85-8.57a2.85,2.85,0,0,1,2.71-1.95h0Zm15.7-4.29a1.43,1.43,0,0,1-1.43,1.43h-8.57a5.72,5.72,0,1,1,4.62-9.14l5.14,6.85a1.41,1.41,0,0,1,.26.87h0Zm2.85,11.42a1.43,1.43,0,0,1-2.85,0A16.82,16.82,0,0,1,723,321a16.82,16.82,0,0,1,1.45,6.77h0Zm15.7-15.7a5.72,5.72,0,0,1-5.72,5.72h-8.57a1.43,1.43,0,0,1-1.15-2.28l5.14-6.85A5.72,5.72,0,0,1,740.18,312h0Zm5.72,20A2.86,2.86,0,0,1,743,334.9c-5.49,0-12.05-3.18-15.7-7.51a19.68,19.68,0,0,0-1.35-6.78h14.21a2.85,2.85,0,0,1,2.72,1.95l2.85,8.57a2.86,2.86,0,0,1,.16.91h0Z"/><path class="cls-4" d="M636.23,425.9l-1.39-1.39-5.23,1.75a1.43,1.43,0,0,1-1.77-.81l-2.62-6.36h-0.33l-1.28,1.28,0.92,6.36a1.43,1.43,0,0,1-.41,1.21l-2.52,2.52,0.41,2.83a1.43,1.43,0,1,1-2.83.41l-0.49-3.55a1.43,1.43,0,0,1,.41-1.21l2.52-2.52L621,422a4.3,4.3,0,0,1-2.77-.33l-0.17.18a4.27,4.27,0,0,1-3.24,1.25A8.57,8.57,0,0,0,615,435a1.43,1.43,0,0,1-2,2,11.44,11.44,0,0,1-.92-15.09l-0.07-.06-0.06-.07a11.44,11.44,0,0,1-15.09-.92,1.43,1.43,0,0,1,2-2,8.57,8.57,0,0,0,11.89.21,4.27,4.27,0,0,1,1.25-3.24l0.18-.17a4.3,4.3,0,0,1-.33-2.77l-4.4-.63-2.52,2.52a1.43,1.43,0,0,1-1.21.41l-3.54-.51a1.43,1.43,0,0,1,.2-2.86l0.21,0,2.83,0.41,2.52-2.52a1.43,1.43,0,0,1,1.21-.41l6.36,0.92,1.28-1.28v-0.33L608.43,406a1.43,1.43,0,0,1-.81-1.77l1.75-5.23L608,397.61a1.43,1.43,0,0,1,2-2l2,2a1.43,1.43,0,0,1,.34,1.46l-1.6,4.79,5.06,2.09,0.23-.26,1-1c0.61-.61,1.26-1.23,1.92-1.85l-1.26-3.77a1.43,1.43,0,0,1,.34-1.46l6.47-6.47-1.75-5.23a1.43,1.43,0,0,1,2.66-1.06l0,0.14,2,6.06a1.43,1.43,0,0,1-.34,1.46L620.7,399l0.58,1.75c7.25-6.24,16.3-11.9,19-9.24a2.28,2.28,0,0,0,2,2c2.69,2.69-3,11.74-9.24,19l1.75,0.58,6.47-6.47a1.43,1.43,0,0,1,1.29-.39l5.05,1a1.43,1.43,0,0,1-.56,2.77l-4.3-.86-6.54,6.63a1.43,1.43,0,0,1-1.46.34L631,414.88c-0.62.66-1.24,1.31-1.85,1.92l-1,1-0.26.23L630,423.1l4.79-1.6a1.43,1.43,0,0,1,1.46.39l2,2A1.43,1.43,0,0,1,636.23,425.9ZM614,419.84a1.43,1.43,0,0,0,2,0l-2-2a1.43,1.43,0,0,0,0,2h0Zm1-7.07a1.43,1.43,0,0,0,0,2l4,4a1.43,1.43,0,0,0,2,0l1-1-6.07-6.1Zm12.13,2c8.71-8.71,12.83-16.77,13-19l-0.42.12a1.43,1.43,0,0,1-1.85-1.85,4,4,0,0,0,.12-0.42c-2.23.19-10.29,4.32-19,13l-1,1a1.43,1.43,0,0,0,0,2l6.06,6.06a1.43,1.43,0,0,0,2,0Z"/><path class="cls-4" d="M821.87,409.44a4.44,4.44,0,0,1-.41,1.85h5a1.42,1.42,0,0,1,1,.42l4.62,4.62h7.49a1.43,1.43,0,0,1,0,2.85h-8.08a1.42,1.42,0,0,1-1-.42l-4.62-4.62h-4.42a8,8,0,0,1,.49,2.65,3.39,3.39,0,0,1,3.38.85l0.13,0.13a5.68,5.68,0,0,1,.88,6.94l1.15,1.15a1.43,1.43,0,1,1-1.94,2.11l-0.09-.09-1.15-1.15a5.85,5.85,0,0,1-7.07-1,3.39,3.39,0,0,1-.85-3.39,8,8,0,0,1-2.65-.49v4.42l4.62,4.62a1.43,1.43,0,0,1,.42,1V440a1.43,1.43,0,1,1-2.85,0v-7.49l-4.62-4.62a1.43,1.43,0,0,1-.42-1v-5a4.42,4.42,0,0,1-1.85.41h-15a10.86,10.86,0,0,1-7.73-3.2l-0.1-.1a7.39,7.39,0,0,1,0-10.38l0.11-.11a7.61,7.61,0,0,1,.82-0.7l-1.07-1.07a1.43,1.43,0,0,1,2-2l1.85,1.85a7.52,7.52,0,0,1,1.72-.2h0.38a29,29,0,0,1,4.05.29l-6.94-6.94a1.43,1.43,0,0,1,2-2l3.6,3.6a5.22,5.22,0,0,1,6.06-6.06l-3.6-3.6a1.43,1.43,0,1,1,1.94-2.11l0.09,0.09,6.94,6.94a29.06,29.06,0,0,1-.29-4.05V392a7.52,7.52,0,0,1,.2-1.72l-1.85-1.85a1.43,1.43,0,0,1,1.94-2.11l0.09,0.09,1.07,1.07a7.6,7.6,0,0,1,.7-0.82l0.11-.11a7.39,7.39,0,0,1,10.38,0l0.1,0.1a10.86,10.86,0,0,1,3.2,7.73v15h0Zm-22,.92a25.76,25.76,0,0,0-7.32-1.22l4.2,4.2h7.67a16.47,16.47,0,0,1-4.53-3Zm-3.69,5.84a1.43,1.43,0,0,1-1-.42l-6-6a4.62,4.62,0,0,0-.86.67l-0.11.11a4.49,4.49,0,0,0,0,6.34l0.1,0.1a8,8,0,0,0,5.71,2.36h15a1.58,1.58,0,0,0,.68-0.16,11.08,11.08,0,0,1-2.14-3H796.21Zm27,7.9,0.27-.24a2.83,2.83,0,0,0,.83-1.85,2.86,2.86,0,0,0-.83-2.19l-0.13-.13a0.54,0.54,0,0,0-.76,0L819.32,423a0.54,0.54,0,0,0,0,.76,3,3,0,0,0,3.91.32v0Zm-4.78-5.28c1.37-1.37.67-4.38-1.51-6.57s-5.2-2.88-6.57-1.51-0.67,4.38,1.51,6.57,5.2,2.84,6.57,1.47v0Zm-20.21-20.21c-1.43,1.43-.54,5.54,3,9.09a12.8,12.8,0,0,0,5.71,3.48,5.1,5.1,0,0,1,3.84-3.84,12.8,12.8,0,0,0-3.48-5.71c-3.57-3.6-7.63-4.5-9.1-3.06v0ZM808.77,393A25.76,25.76,0,0,0,810,400.3a16.47,16.47,0,0,1,3,4.55v-7.67Zm7.79-4.33a4.49,4.49,0,0,0-6.34,0l-0.11.11a4.62,4.62,0,0,0-.67.86l6,6a1.43,1.43,0,0,1,.42,1V408a11.08,11.08,0,0,1,3,2.14,1.58,1.58,0,0,0,.16-0.68v-15a8,8,0,0,0-2.36-5.71Z"/><path class="cls-4" d="M799.23,224.37l1.39,1.39,5.23-1.75a1.43,1.43,0,0,1,1.77.81l2.84,6.9a4.26,4.26,0,0,1,.92-1.3l-0.92-6.36a1.43,1.43,0,0,1,.41-1.21l2.52-2.52L813,217.5a1.43,1.43,0,1,1,2.83-.41l0.51,3.54a1.43,1.43,0,0,1-.41,1.21l-2.52,2.52,0.69,4.82a4.31,4.31,0,0,1,.68,0,5.68,5.68,0,0,1,1.66-3.81,8.52,8.52,0,0,1,3.87-2.06,6.56,6.56,0,0,0,.92-4.89l-0.17-.85a1.43,1.43,0,0,1,.18-1l3-5.05a1.43,1.43,0,0,1,2.45,1.47l-2.77,4.62,0.06,0.3a9.41,9.41,0,0,1-.52,5.4,4.11,4.11,0,0,1,3.08,3.08,9.42,9.42,0,0,1,5.4-.52l0.3,0.06,4.62-2.77a1.43,1.43,0,0,1,1.47,2.45l-5.05,3a1.43,1.43,0,0,1-1,.18l-0.85-.17a6.56,6.56,0,0,0-4.89.92,8.52,8.52,0,0,1-2.06,3.87,5.69,5.69,0,0,1-3.81,1.66,4.31,4.31,0,0,1,0,.68l4.82,0.69,2.52-2.52a1.43,1.43,0,0,1,1.21-.41l3.54,0.51a1.43,1.43,0,0,1-.2,2.86l-0.21,0-2.83-.41L827,239a1.43,1.43,0,0,1-1.21.41l-6.36-.92a4.26,4.26,0,0,1-1.3.92l6.9,2.84a1.43,1.43,0,0,1,.81,1.77l-1.75,5.23,1.39,1.39a1.43,1.43,0,0,1-2,2l-2-2a1.43,1.43,0,0,1-.34-1.46l1.6-4.79-5.25-2.16,1.31,3.93a1.43,1.43,0,0,1-.34,1.46L812,254.11l1.75,5.23a1.43,1.43,0,0,1-2.66,1.06l0-.14-2-6.06a1.42,1.42,0,0,1,.34-1.46l6.47-6.47-1-3.12a4.29,4.29,0,0,1-2.77.7,5.68,5.68,0,0,1-1.66,3.81l-1,1c-3.69,3.69-10.37,7.8-13.13,5.05s1.39-9.47,5.05-13.13l1-1a5.69,5.69,0,0,1,3.81-1.66,4.29,4.29,0,0,1,.7-2.77l-3.12-1-6.47,6.47a1.43,1.43,0,0,1-1.29.39l-5-1a1.43,1.43,0,0,1,.56-2.77l4.3,0.86,6.53-6.53a1.43,1.43,0,0,1,1.46-.34l3.93,1.31-2.16-5.25-4.79,1.6a1.43,1.43,0,0,1-1.46-.34l-2-2A1.45,1.45,0,0,1,799.23,224.37Zm4,18.19c-4,4-5.62,8.45-5.05,9.09s5.07-1,9.09-5.05l1-1a2.86,2.86,0,0,0-4-4h0Zm6.06-4,2,2a1.43,1.43,0,0,0,2-2l-2-2A1.43,1.43,0,0,0,809.33,238.51Zm4-4,2,2a1.43,1.43,0,0,0,2-2l-2-2a1.43,1.43,0,0,0-2,2h0Zm5.05-3a2.86,2.86,0,0,0,4,0c1.26-1.26,2-4.07,1-5.05s-3.8-.24-5.05,1a2.86,2.86,0,0,0,0,4h0Z"/><path class="cls-4" d="M609.76,253.06l1.39-1.39-1.74-5.26a1.43,1.43,0,0,1,.81-1.77l4.77-2a8,8,0,0,1-.31-0.92l-1.14-1.14-4.62.66a1.43,1.43,0,0,1-1.21-.41l-2.52-2.52-2.83.41a1.43,1.43,0,0,1-.62-2.8l0.21,0,3.54-.51a1.43,1.43,0,0,1,1.21.41l2.52,2.52,2.21-.24a7.17,7.17,0,0,1-.09-6.25,4.25,4.25,0,0,1-1.63-1l-2,2a1.43,1.43,0,0,1-1.75.21L601,230a1.43,1.43,0,0,1,1.47-2.45l0.3,0.18,3.79,2.27,2-2a4.27,4.27,0,0,1,4-4.51H613l2-2-2.27-3.79-0.18-.3A1.43,1.43,0,0,1,615,216l3,5.05a1.43,1.43,0,0,1-.21,1.75l-2,2a4.25,4.25,0,0,1,1,1.63,7.17,7.17,0,0,1,6.25.09l0.31-2.22-2.52-2.52a1.43,1.43,0,0,1-.41-1.21L621,217a1.43,1.43,0,0,1,2.83.41l-0.41,2.83,2.52,2.52a1.43,1.43,0,0,1,.41,1.21l-0.66,4.62,1.14,1.14a8,8,0,0,1,.92.31l2-4.77a1.43,1.43,0,0,1,1.77-.81l5.23,1.75,1.39-1.39a1.43,1.43,0,0,1,2,2l-2.09,2a1.43,1.43,0,0,1-1.46.34l-4.82-1.63-1.62,3.93a39.63,39.63,0,0,1,3.69,3.27l3.69-1.24a1.43,1.43,0,0,1,1.46.34l6.47,6.47,5.23-1.75a1.43,1.43,0,0,1,1.06,2.66l-0.14,0-6.06,2a1.42,1.42,0,0,1-1.46-.34l-6.47-6.47-1.53.51a19.15,19.15,0,0,1,4.62,8.66c4.08,4.22,5.12,9.63,2.33,12.42s-8.2,1.75-12.42-2.33a19.13,19.13,0,0,1-8.66-4.62l-0.51,1.53,6.47,6.47a1.43,1.43,0,0,1,.39,1.29l-1,5.05a1.43,1.43,0,0,1-2.77-.56l0.86-4.3-6.55-6.57a1.43,1.43,0,0,1-.34-1.46l1.24-3.69a39.63,39.63,0,0,1-3.27-3.69l-3.93,1.62,1.6,4.79a1.43,1.43,0,0,1-.34,1.46l-2,2a1.44,1.44,0,1,1-2-2.06h0Zm2-26.27a1.43,1.43,0,1,0,2,0h0a1.43,1.43,0,0,0-2,0h0Zm5.05,3-2,2a4.29,4.29,0,0,0,0,6.06,7.13,7.13,0,0,1,6.08-2,7.13,7.13,0,0,1,2-6.08,4.29,4.29,0,0,0-6.06,0v0Zm16.62,8.59c-4.67-4.67-6.47-6.15-8.94-6.17a4.29,4.29,0,0,0,.35,5.66l12.93,12.93c1.2-2.92-.15-8.27-4.3-12.42h0ZM641,256.09c1-1,.92-3.15-0.21-5.46a6.52,6.52,0,0,1-5.25,5.25c2.36,1.18,4.51,1.21,5.5.22h0Zm-5.23-3.21-12.93-12.93a4.29,4.29,0,0,0-5.66-.35c0,2.43,1.5,4.27,6.17,8.94C627.55,252.67,632.9,254,635.8,252.88Z"/><path class="cls-4" d="M739.94,480.55a1.43,1.43,0,0,1-1.15.57h-6.17l6.71,3a1.42,1.42,0,0,1,.43.3l7.14,7.14a1.43,1.43,0,1,1-1.94,2.11l-0.09-.09-7-7-8.48-3.76,6.24,10.41a1.43,1.43,0,0,1,.13,1.19L733,503a1.43,1.43,0,0,1-2.71-.92l2.65-8-5.35-8.92a6.34,6.34,0,0,1-2.24,2.37l3.2,4.62a1.43,1.43,0,0,1,.17,1.31l-1.43,3.81a1.43,1.43,0,0,1-2.68-1l1.16-3.1-2.7-3.91-2.65,3.53,1.19,3.57a1.43,1.43,0,0,1-2.71.92L717.4,493a1.43,1.43,0,0,1,.21-1.31l3-4a6.23,6.23,0,0,1-2.22-2.25l-5.26,8.76,2.65,8a1.43,1.43,0,0,1-2.71.92l-2.85-8.57a1.43,1.43,0,0,1,.13-1.19l6.23-10.42-8.49,3.77-7,7a1.43,1.43,0,0,1-2-2l7.14-7.14a1.43,1.43,0,0,1,.43-0.3l6.71-3h-6.1a1.43,1.43,0,0,1-1.15-.57l-8.55-11.43a1.43,1.43,0,0,1,2.29-1.71L708,478.23h6.79l-5.33-3a1.43,1.43,0,0,1-.66-0.85l-5.72-20a1.43,1.43,0,1,1,2.74-.79L711.38,473l6.41,3.69a7.69,7.69,0,0,1,1.44-2.39c-2.94-1.85-5-5.76-5-10.33,0-6.3,3.89-11.43,8.66-11.43s8.66,5.13,8.66,11.42c0,4.56-2,8.49-5,10.33a7.72,7.72,0,0,1,1.47,2.46l6.58-3.81,5.54-19.4a1.44,1.44,0,0,1,2.77.79h0l-5.72,19.92a1.43,1.43,0,0,1-.66.84l-5.38,3.15h6.86l8.1-10.85a1.43,1.43,0,0,1,2.29,1.71Zm-17,4.86c1.39,0,3-2.05,3-5s-1.55-5-3-5-3,2.05-3,5,1.56,5,3,5h0ZM728.76,464c0-4.62-2.66-8.57-5.81-8.57s-5.81,3.93-5.81,8.57,2.66,8.57,5.81,8.57,5.81-3.93,5.81-8.58h0Z"/><g class="cls-2"><path class="cls-3" d="M630.22,328.68a5,5,0,1,0-5-5,5,5,0,0,0,5,5m0,2a7.07,7.07,0,1,1,7.07-7.07,7.07,7.07,0,0,1-7.07,7.07h0Z"/></g><g class="cls-2"><path class="cls-3" d="M721.14,405l5.9-5.9-5.9-5.9-5.9,5.9,5.9,5.9m0,2.87-8.77-8.77,8.77-8.77,8.77,8.77-8.77,8.77h0Z"/></g><g class="cls-2"><path class="cls-3" d="M721.14,249.81l5.08-8H716.06l5.08,8m0,3.8-8.77-13.85h17.55l-8.77,13.85h0Z"/></g><g class="cls-2"><path class="cls-3" d="M818.59,326.68v-8.31h-8.31v8.31h8.31m2,2h-12.4v-12.4h12.4v12.4h0Z"/></g><path class="cls-4" d="M157.67,824.57a5.73,5.73,0,0,0-.3-1.85l-2.85-8.57a5.71,5.71,0,0,0-4.8-3.87,8.56,8.56,0,1,0-12.77-11.4q-0.22.25-.43,0.52l-3.14,4.18v-3.33a1.43,1.43,0,1,0-2.85,0v3.42l-3.14-4.18a8.57,8.57,0,1,0-13.2,10.89,5.71,5.71,0,0,0-4.8,3.87l-2.85,8.57a5.72,5.72,0,0,0,5.42,7.53c5.71,0,12.34-2.95,16.69-7.28a4.29,4.29,0,0,0,.35.37l-2.71,10.84a1.43,1.43,0,0,0,2.77.69l2.6-10.39h0.62l2.59,10.36a1.43,1.43,0,0,0,2.77-.69l-2.72-10.85a4.29,4.29,0,0,0,.35-0.37c4.36,4.33,11,7.28,16.69,7.28a5.72,5.72,0,0,0,5.72-5.72h0Zm-42.85-11.39H129a19.71,19.71,0,0,0-1.35,6.77c-3.69,4.33-10.23,7.51-15.7,7.51a2.86,2.86,0,0,1-2.72-3.76l2.85-8.57A2.85,2.85,0,0,1,114.81,813.18Zm15.7-4.29a1.43,1.43,0,0,1-1.43,1.43h-8.57a5.72,5.72,0,1,1,4.62-9.14l5.14,6.85a1.41,1.41,0,0,1,.25.83v0Zm2.85,11.42a1.43,1.43,0,0,1-2.85,0,16.82,16.82,0,0,1,1.44-6.76,16.82,16.82,0,0,1,1.43,6.77h0Zm15.7-15.7a5.72,5.72,0,0,1-5.72,5.72h-8.57a1.43,1.43,0,0,1-1.15-2.28l5.14-6.85a5.72,5.72,0,0,1,10.32,3.41h0Zm5.74,19.95a2.86,2.86,0,0,1-2.85,2.85c-5.49,0-12.05-3.18-15.7-7.51a19.68,19.68,0,0,0-1.35-6.78h14.21a2.85,2.85,0,0,1,2.72,1.95l2.85,8.57A2.86,2.86,0,0,1,154.81,824.57Z"/><path class="cls-4" d="M208.14,716.94l1.39,1.42,5.23-1.75a1.43,1.43,0,0,1,1.77.81l2.84,6.9a4.26,4.26,0,0,1,.92-1.3l-0.92-6.36a1.43,1.43,0,0,1,.41-1.21l2.52-2.52L221.88,710a1.43,1.43,0,0,1,2.83-.41l0.51,3.54a1.43,1.43,0,0,1-.41,1.21l-2.52,2.52,0.69,4.82a4.31,4.31,0,0,1,.68,0,5.68,5.68,0,0,1,1.66-3.81,8.52,8.52,0,0,1,3.87-2.06,6.56,6.56,0,0,0,.92-4.89l-0.17-.85a1.43,1.43,0,0,1,.18-1l3-5.05a1.43,1.43,0,0,1,2.45,1.47l-2.77,4.62,0.06,0.3a9.41,9.41,0,0,1-.52,5.4,4.11,4.11,0,0,1,3.08,3.08,9.42,9.42,0,0,1,5.48-.55l0.3,0.06,4.62-2.77a1.43,1.43,0,0,1,1.47,2.45l-5.05,3a1.43,1.43,0,0,1-1,.18l-0.85-.17a6.56,6.56,0,0,0-4.89.92,8.52,8.52,0,0,1-2.06,3.87,5.69,5.69,0,0,1-3.81,1.66,4.32,4.32,0,0,1,0,.68l4.82,0.69,2.52-2.52a1.43,1.43,0,0,1,1.21-.41l3.54,0.51a1.43,1.43,0,0,1-.2,2.86l-0.21,0L238.5,729,236,731.49a1.43,1.43,0,0,1-1.21.41L228.4,731a4.26,4.26,0,0,1-1.3.92l6.9,2.84a1.43,1.43,0,0,1,.81,1.77l-1.75,5.23,1.39,1.39a1.43,1.43,0,0,1-1.94,2.11l-0.09-.09-2-2a1.43,1.43,0,0,1-.34-1.46l1.6-4.79-5.25-2.16,1.31,3.93a1.43,1.43,0,0,1-.34,1.46l-6.47,6.47,1.75,5.23a1.43,1.43,0,1,1-2.66,1.06l0-.14-2-6.06a1.42,1.42,0,0,1,.34-1.46l6.47-6.47-1-3.12a4.29,4.29,0,0,1-2.77.7,5.68,5.68,0,0,1-1.66,3.81l-1,1c-3.69,3.69-10.37,7.8-13.13,5.05s1.39-9.47,5.05-13.13l1-1a5.69,5.69,0,0,1,3.81-1.66,4.29,4.29,0,0,1,.7-2.77l-3.14-1-6.47,6.47a1.43,1.43,0,0,1-1.29.39l-5.05-1a1.43,1.43,0,0,1,.56-2.77l4.3,0.86,6.53-6.53a1.43,1.43,0,0,1,1.46-.34l3.93,1.31-2.16-5.25-4.79,1.6a1.43,1.43,0,0,1-1.46-.34l-2-2a1.46,1.46,0,0,1,2-2.1h0Zm4,18.19c-4,4-5.62,8.45-5.05,9.09s5.07-1,9.09-5.05l1-1a2.86,2.86,0,1,0-4-4Zm6.06-4,2,2a1.43,1.43,0,0,0,2-2l-2-2a1.43,1.43,0,0,0-2,2h0Zm4-4,2,2a1.43,1.43,0,1,0,2.11-1.94l-0.09-.09-2-2a1.43,1.43,0,0,0-2,2h0Zm5.05-3a2.86,2.86,0,0,0,4,0c1.26-1.26,2-4.07,1-5.05s-3.8-.24-5.05,1a2.86,2.86,0,0,0,0,4h0Z"/><path class="cls-4" d="M28.67,745.64l1.39-1.42L28.32,739a1.43,1.43,0,0,1,.81-1.77l4.77-2a8,8,0,0,1-.31-0.92l-1.14-1.14-4.62.66a1.43,1.43,0,0,1-1.21-.41l-2.52-2.52-2.83.41a1.43,1.43,0,0,1-.41-2.83l3.54-.51a1.43,1.43,0,0,1,1.21.41l2.52,2.52,2.22-.31a7.17,7.17,0,0,1-.09-6.25,4.25,4.25,0,0,1-1.63-1l-2,2.1a1.43,1.43,0,0,1-1.75.21l-5.05-3a1.43,1.43,0,0,1,1.45-2.41l0.3,0.18,3.79,2.27,2-2a4.27,4.27,0,0,1,4-4.51h0.49l2-2-2.27-3.79-0.18-.3a1.43,1.43,0,0,1,2.45-1.47l3,5.05a1.43,1.43,0,0,1-.21,1.75l-2,2a4.25,4.25,0,0,1,1,1.63,7.17,7.17,0,0,1,6.25.09l0.31-2.22-2.52-2.52a1.43,1.43,0,0,1-.41-1.21l0.51-3.54a1.43,1.43,0,1,1,2.83.41l-0.41,2.79,2.52,2.52a1.43,1.43,0,0,1,.41,1.21l-0.66,4.62,1.14,1.14a8,8,0,0,1,.92.31l2-4.77a1.43,1.43,0,0,1,1.77-.81l5.23,1.75L57,717.38a1.43,1.43,0,1,1,2,2l-2,2a1.43,1.43,0,0,1-1.46.34l-4.83-1.6-1.62,3.93a39.63,39.63,0,0,1,3.69,3.27l3.69-1.24a1.43,1.43,0,0,1,1.46.34l6.47,6.47,5.23-1.75a1.43,1.43,0,1,1,1.06,2.66l-0.14,0-6,2a1.42,1.42,0,0,1-1.46-.34l-6.47-6.47-1.53.51a19.15,19.15,0,0,1,4.62,8.66c4.08,4.22,5.12,9.63,2.33,12.42s-8.2,1.75-12.42-2.33a19.13,19.13,0,0,1-8.66-4.62l-0.51,1.53,6.47,6.47a1.43,1.43,0,0,1,.39,1.29l-1,5a1.43,1.43,0,0,1-2.77-.56l0.86-4.3-6.58-6.56a1.43,1.43,0,0,1-.34-1.46l1.27-3.74a39.63,39.63,0,0,1-3.27-3.69l-3.93,1.62,1.59,4.85a1.43,1.43,0,0,1-.34,1.46l-2,2A1.44,1.44,0,0,1,28.67,745.64Zm2-26.27a1.43,1.43,0,1,0,2,0h0a1.43,1.43,0,0,0-2,0h0Zm5.05,3-2,2a4.29,4.29,0,0,0,0,6.06,7.13,7.13,0,0,1,6.08-2,7.13,7.13,0,0,1,2-6.08,4.29,4.29,0,0,0-6.06,0h0ZM52.37,731c-4.67-4.67-6.47-6.15-8.94-6.17a4.29,4.29,0,0,0,.35,5.66l12.93,12.93c1.2-2.89-.15-8.28-4.3-12.42h0Zm7.57,17.68c1-1,.92-3.15-0.21-5.46a6.52,6.52,0,0,1-5.25,5.25c2.36,1.18,4.51,1.2,5.5.21h0Zm-5.27-3.25L41.74,732.49a4.29,4.29,0,0,0-5.66-.35c0,2.43,1.5,4.27,6.17,8.94,4.21,4.17,9.56,5.51,12.47,4.34h0Z"/><g class="cls-2"><path class="cls-3" d="M39.14,821.26a5,5,0,1,0-5.08-5,5,5,0,0,0,5.08,5m0,2a7.07,7.07,0,1,1,7.11-7.07,7.07,7.07,0,0,1-7.11,7.07h0Z"/></g><g class="cls-2"><path class="cls-3" d="M130.05,742.37l5.08-8H125l5.08,8m0,3.8-8.77-13.85h17.55l-8.77,13.85h0Z"/></g><g class="cls-2"><path class="cls-3" d="M227.5,819.25v-8.31h-8.31v8.31h8.31m2,2h-12.4V808.87h12.4v12.41h0Z"/></g><path class="cls-4" d="M453.21,726.1a5.73,5.73,0,0,0-.3-1.85l-2.85-8.57a5.71,5.71,0,0,0-4.8-3.87,8.56,8.56,0,0,0-12.77-11.4q-0.22.25-.43,0.52l-3.14,4.18v-3.33a1.43,1.43,0,0,0-2.85,0v3.33l-3.14-4.18a8.58,8.58,0,0,0-13.2,11,5.71,5.71,0,0,0-4.8,3.87l-2.85,8.57a5.72,5.72,0,0,0,5.42,7.53c5.71,0,12.34-2.95,16.69-7.28a4.3,4.3,0,0,0,.35.37l-2.72,10.85a1.43,1.43,0,0,0,2.77.69l2.59-10.36h0.62l2.59,10.36a1.43,1.43,0,0,0,2.77-.69L430.44,725a4.3,4.3,0,0,0,.35-0.37c4.36,4.33,11,7.28,16.69,7.28a5.72,5.72,0,0,0,5.74-5.7S453.21,726.12,453.21,726.1Zm-42.85-11.43h14.21a19.71,19.71,0,0,0-1.35,6.78c-3.69,4.33-10.23,7.51-15.7,7.51a2.86,2.86,0,0,1-2.72-3.76l2.85-8.57A2.85,2.85,0,0,1,410.36,714.67Zm15.7-4.29a1.43,1.43,0,0,1-1.43,1.43h-8.57a5.72,5.72,0,1,1,4.62-9.14l5.14,6.85a1.41,1.41,0,0,1,.25.87h0Zm2.85,11.42a1.43,1.43,0,0,1-2.85,0,16.82,16.82,0,0,1,1.43-6.76,16.82,16.82,0,0,1,1.44,6.77h0Zm15.7-15.7a5.72,5.72,0,0,1-5.72,5.72h-8.57a1.43,1.43,0,0,1-1.15-2.28l5.14-6.85a5.72,5.72,0,0,1,10.32,3.41h0Zm5.72,20a2.86,2.86,0,0,1-2.85,2.85c-5.49,0-12.05-3.18-15.7-7.51a19.68,19.68,0,0,0-1.35-6.78h14.21a2.85,2.85,0,0,1,2.72,1.95l2.85,8.57a2.86,2.86,0,0,1,.15.91h0Z"/><path class="cls-4" d="M340.68,830l-1.39-1.39-5.23,1.75a1.43,1.43,0,0,1-1.77-.81l-2.62-6.36h-0.33L328,824.41l0.92,6.36a1.43,1.43,0,0,1-.41,1.21L326,834.51l0.39,2.84a1.43,1.43,0,1,1-2.83.41l-0.47-3.55a1.43,1.43,0,0,1,.41-1.21l2.52-2.52-0.63-4.4a4.3,4.3,0,0,1-2.77-.33l-0.17.18a4.27,4.27,0,0,1-3.24,1.26,8.57,8.57,0,0,0,.18,11.87,1.43,1.43,0,0,1-2,2,11.44,11.44,0,0,1-.92-15.09l-0.07-.06-0.06-.07a11.44,11.44,0,0,1-15.09-.92,1.43,1.43,0,0,1,1.94-2.11l0.09,0.09a8.57,8.57,0,0,0,11.89.21,4.27,4.27,0,0,1,1.25-3.24l0.18-.17a4.3,4.3,0,0,1-.33-2.77l-4.4-.63-2.54,2.6a1.43,1.43,0,0,1-1.21.41l-3.54-.51a1.43,1.43,0,1,1,.2-2.86l0.21,0,2.83,0.41,2.52-2.52a1.43,1.43,0,0,1,1.21-.41l6.36,0.92,1.28-1.28v-0.33l-6.36-2.62a1.43,1.43,0,0,1-.81-1.77l1.75-5.23-1.39-1.39a1.43,1.43,0,0,1,2-2l2,2a1.43,1.43,0,0,1,.34,1.46l-1.6,4.79,5.06,2.09,0.23-.26,1-1.08c0.61-.61,1.26-1.23,1.92-1.85l-1.26-3.69a1.43,1.43,0,0,1,.34-1.46l6.47-6.47L327.21,790a1.43,1.43,0,1,1,2.66-1.06l0,0.14,2,6.06a1.43,1.43,0,0,1-.34,1.46l-6.47,6.47,0.58,1.75c7.25-6.24,16.3-11.9,19-9.24a2.29,2.29,0,0,0,2,2c2.69,2.69-3,11.74-9.24,19l1.75,0.58,6.47-6.47a1.43,1.43,0,0,1,1.29-.39l5.05,1a1.43,1.43,0,0,1-.56,2.77l-4.3-.86-6.51,6.59a1.43,1.43,0,0,1-1.46.34l-3.77-1.26c-0.62.66-1.24,1.31-1.85,1.92l-1,1-0.23.24,2.05,5.07,4.79-1.6a1.43,1.43,0,0,1,1.46.34l2,2A1.43,1.43,0,1,1,340.68,830Zm-22.22-6.06a1.43,1.43,0,0,0,2,0l-2-2a1.43,1.43,0,0,0,0,2h0Zm1-7.07a1.43,1.43,0,0,0,0,2l0,0,4,4a1.43,1.43,0,0,0,2,0l1-1-6.06-6.06Zm12.15,2c8.71-8.71,12.83-16.77,13-19l-0.42.12a1.43,1.43,0,0,1-1.85-1.85,4,4,0,0,0,.12-0.42c-2.23.19-10.29,4.32-19,13l-1,1a1.43,1.43,0,0,0,0,2l6.06,6.06a1.43,1.43,0,0,0,2,0Z"/><path class="cls-4" d="M526.32,813.49a4.44,4.44,0,0,1-.41,1.85h5a1.42,1.42,0,0,1,1,.42l4.62,4.62h7.49a1.43,1.43,0,1,1,.23,2.85H536a1.42,1.42,0,0,1-1-.42l-4.62-4.62h-4.42a8,8,0,0,1,.49,2.65,3.39,3.39,0,0,1,3.38.85l0.13,0.13a5.68,5.68,0,0,1,.88,6.94l1.15,1.15A1.43,1.43,0,0,1,530,832l-0.09-.09-1.15-1.15a5.85,5.85,0,0,1-7.07-1,3.39,3.39,0,0,1-.85-3.39,8,8,0,0,1-2.65-.49v4.42l4.62,4.62a1.43,1.43,0,0,1,.42,1V844a1.43,1.43,0,0,1-2.85,0v-7.49l-4.62-4.62a1.43,1.43,0,0,1-.42-1v-5a4.42,4.42,0,0,1-1.85.41h-15a10.86,10.86,0,0,1-7.73-3.2l-0.1-.1a7.39,7.39,0,0,1,0-10.38l0.11-.11a7.61,7.61,0,0,1,.82-0.7l-1.07-1.07a1.43,1.43,0,0,1,2-2l1.85,1.85a7.52,7.52,0,0,1,1.72-.2h0.38a29,29,0,0,1,4.05.29l-6.94-6.94a1.43,1.43,0,0,1,2-2l3.6,3.6a5.22,5.22,0,0,1,6.06-6.06l-3.6-3.6a1.43,1.43,0,0,1,2-2l6.86,6.87a29.06,29.06,0,0,1-.29-4.05V796a7.52,7.52,0,0,1,.2-1.72l-1.85-1.85a1.43,1.43,0,1,1,1.94-2.11l0.09,0.09,1.07,1.07a7.6,7.6,0,0,1,.7-0.82l0.11-.11a7.39,7.39,0,0,1,10.38,0l0.1,0.1a10.86,10.86,0,0,1,3.24,7.79v15Zm-22,.92A25.76,25.76,0,0,0,497,813.2l4.2,4.2h7.67a16.47,16.47,0,0,1-4.53-3Zm-3.69,5.84a1.43,1.43,0,0,1-1-.42l-6-6a4.62,4.62,0,0,0-.86.67l-0.11.11a4.49,4.49,0,0,0,0,6.34l0.1,0.1a8,8,0,0,0,5.71,2.36h15a1.58,1.58,0,0,0,.68-0.16,11.08,11.08,0,0,1-2.14-3H500.66Zm27,7.85,0.27-.24a2.83,2.83,0,0,0,.83-1.85,2.86,2.86,0,0,0-.83-2.19l-0.13-.13a0.54,0.54,0,0,0-.76,0L523.77,827a0.54,0.54,0,0,0,0,.76A3,3,0,0,0,527.68,828.11Zm-4.78-5.28c1.37-1.37.67-4.38-1.51-6.57s-5.2-2.88-6.57-1.51-0.67,4.38,1.51,6.57,5.2,2.89,6.57,1.52h0Zm-20.21-20.2c-1.43,1.43-.54,5.54,3,9.09a12.8,12.8,0,0,0,5.71,3.46,5.1,5.1,0,0,1,3.81-3.81,12.8,12.8,0,0,0-3.48-5.71C508.21,802.09,504.16,801.19,502.69,802.62ZM513.23,797a25.76,25.76,0,0,0,1.22,7.32,16.47,16.47,0,0,1,3,4.55v-7.67Zm7.79-4.33a4.49,4.49,0,0,0-6.34,0l-0.11.11a4.62,4.62,0,0,0-.67.86l6,6a1.43,1.43,0,0,1,.42,1V812a11.08,11.08,0,0,1,3,2.14,1.58,1.58,0,0,0,.16-0.68v-15a8,8,0,0,0-2.36-5.71Z"/><path class="cls-4" d="M503.69,618.42l1.39,1.39,5.23-1.75a1.43,1.43,0,0,1,1.77.81l2.84,6.9a4.26,4.26,0,0,1,.92-1.3l-0.92-6.36a1.43,1.43,0,0,1,.41-1.21l2.52-2.52-0.41-2.83a1.43,1.43,0,1,1,2.83-.41l0.51,3.54a1.43,1.43,0,0,1-.41,1.21l-2.52,2.52,0.69,4.82a4.32,4.32,0,0,1,.68,0,5.68,5.68,0,0,1,1.66-3.81,8.52,8.52,0,0,1,3.87-2.06,6.56,6.56,0,0,0,.92-4.89l-0.17-.85a1.43,1.43,0,0,1,.18-1l3-5.05a1.43,1.43,0,0,1,2.45,1.47l-2.77,4.62,0.06,0.3a9.41,9.41,0,0,1-.52,5.4,4.11,4.11,0,0,1,3.08,3.08,9.42,9.42,0,0,1,5.4-.52l0.3,0.06,4.62-2.77a1.43,1.43,0,0,1,1.47,2.45l-5.05,3a1.43,1.43,0,0,1-1,.18l-0.85-.17a6.56,6.56,0,0,0-4.89.92,8.52,8.52,0,0,1-2.06,3.87,5.69,5.69,0,0,1-3.81,1.66,4.31,4.31,0,0,1,0,.68l4.82,0.69,2.52-2.52a1.43,1.43,0,0,1,1.21-.41l3.54,0.51a1.43,1.43,0,0,1-.41,2.83l-2.83-.41L531.47,633a1.43,1.43,0,0,1-1.21.41l-6.36-.92a4.26,4.26,0,0,1-1.3.92l6.9,2.84a1.43,1.43,0,0,1,.81,1.77l-1.75,5.23,1.39,1.39a1.43,1.43,0,0,1-2,2l-2-2a1.43,1.43,0,0,1-.34-1.46l1.6-4.79-5.25-2.16,1.31,3.93a1.43,1.43,0,0,1-.34,1.46l-6.47,6.47,1.75,5.23a1.43,1.43,0,0,1-2.66,1.06l0-.14-2-6.1a1.42,1.42,0,0,1,.34-1.46l6.47-6.47-1-3.12a4.29,4.29,0,0,1-2.77.7,5.68,5.68,0,0,1-1.66,3.81l-1,1c-3.69,3.69-10.37,7.8-13.13,5.05s1.39-9.47,5.05-13.13l1-1a5.69,5.69,0,0,1,3.81-1.66,4.29,4.29,0,0,1,.7-2.77l-3.12-1-6.47,6.47a1.43,1.43,0,0,1-1.29.39l-5.05-1a1.43,1.43,0,0,1,.56-2.77l4.3,0.86,6.53-6.53a1.43,1.43,0,0,1,1.46-.34l3.93,1.31-2.16-5.25-4.79,1.6a1.43,1.43,0,0,1-1.46-.34l-2-2A1.43,1.43,0,1,1,503.69,618.42Zm4,18.19c-4,4-5.62,8.45-5.05,9.09s5.07-1,9.09-5.05l1-1a2.86,2.86,0,0,0-4-4Zm6.06-4,2,2a1.43,1.43,0,0,0,2-2l-2-2a1.43,1.43,0,1,0-2,2h0Zm4-4,2,2a1.43,1.43,0,0,0,2-2l-2-2a1.43,1.43,0,0,0-2,2h0Zm5.05-3a2.86,2.86,0,0,0,4,0c1.26-1.26,2-4.07,1-5.05s-3.8-.24-5.05,1a2.86,2.86,0,0,0,0,4h0Z"/><path class="cls-4" d="M324.22,647.12l1.39-1.39-1.75-5.23a1.43,1.43,0,0,1,.81-1.77l4.77-2a8,8,0,0,1-.31-0.92L328,634.7l-4.62.66a1.43,1.43,0,0,1-1.21-.41l-2.5-2.48-2.83.41a1.43,1.43,0,1,1-.62-2.8l0.21,0,3.54-.51a1.43,1.43,0,0,1,1.21.41l2.52,2.52,2.22-.31a7.17,7.17,0,0,1-.09-6.25,4.25,4.25,0,0,1-1.63-1l-2,2a1.43,1.43,0,0,1-1.75.21l-5.05-3a1.43,1.43,0,0,1,1.47-2.45l0.3,0.18,3.79,2.27,2-2a4.27,4.27,0,0,1,4-4.51h0.49l2-2-2.27-3.79-0.18-.3A1.43,1.43,0,0,1,329.5,610l3,5.05a1.43,1.43,0,0,1-.21,1.75l-2,2a4.25,4.25,0,0,1,1,1.63,7.17,7.17,0,0,1,6.25.09l0.31-2.22-2.55-2.5a1.43,1.43,0,0,1-.41-1.21l0.51-3.54a1.43,1.43,0,1,1,2.83.41l-0.41,2.83,2.52,2.52a1.43,1.43,0,0,1,.41,1.21l-0.66,4.62,1.14,1.14a8,8,0,0,1,.92.31l2-4.77a1.43,1.43,0,0,1,1.77-.81l5.23,1.75,1.39-1.39a1.43,1.43,0,0,1,2,2l-2,2a1.43,1.43,0,0,1-1.46.34l-4.86-1.65-1.62,3.93a39.63,39.63,0,0,1,3.69,3.27l3.69-1.24a1.43,1.43,0,0,1,1.46.34l6.47,6.47,5.23-1.75a1.43,1.43,0,1,1,1.06,2.66l-0.14,0-6.06,2a1.42,1.42,0,0,1-1.46-.34l-6.47-6.47-1.53.51a19.15,19.15,0,0,1,4.62,8.66c4.08,4.22,5.12,9.63,2.33,12.42s-8.2,1.75-12.42-2.33a19.13,19.13,0,0,1-8.66-4.62l-0.51,1.53,6.47,6.47a1.43,1.43,0,0,1,.39,1.29l-1,5.05A1.43,1.43,0,0,1,339,659l0.86-4.3-6.55-6.53a1.43,1.43,0,0,1-.34-1.46l1.24-3.69a39.63,39.63,0,0,1-3.27-3.69L327,640.94l1.6,4.79a1.43,1.43,0,0,1-.34,1.46l-2,2A1.45,1.45,0,0,1,324.22,647.12Zm2-26.27a1.43,1.43,0,1,0,2,0h0a1.43,1.43,0,0,0-2,0h0Zm5.05,3-2,2a4.29,4.29,0,0,0,0,6.06,7.13,7.13,0,0,1,6.08-2,7.13,7.13,0,0,1,2-6.08,4.29,4.29,0,0,0-6.06,0h0Zm16.62,8.59c-4.67-4.67-6.47-6.15-8.94-6.17a4.29,4.29,0,0,0,.35,5.66l12.93,12.93c1.2-2.93-.15-8.28-4.3-12.43h0Zm7.57,17.68c1-1,.92-3.15-0.21-5.46a6.52,6.52,0,0,1-5.25,5.25c2.36,1.18,4.51,1.2,5.5.21h0Zm-5.27-3.25L337.28,634a4.29,4.29,0,0,0-5.66-.35c0,2.43,1.5,4.27,6.17,8.94,4.21,4.17,9.56,5.51,12.47,4.34h0Z"/><g class="cls-2"><path class="cls-3" d="M334.68,722.74a5,5,0,1,0-5-5,5,5,0,0,0,5,5m0,2a7.07,7.07,0,1,1,7.07-7.07h0a7.07,7.07,0,0,1-7.07,7.07h0Z"/></g><g class="cls-2"><path class="cls-3" d="M425.6,799l5.89-5.86-5.9-5.9-5.89,5.9,5.9,5.9m0,2.87-8.77-8.77,8.77-8.77,8.77,8.77-8.77,8.77h0Z"/></g><g class="cls-2"><path class="cls-3" d="M425.6,643.86l5.08-8H420.52l5.08,8m0,3.8-8.77-13.85h17.55l-8.77,13.85h0Z"/></g><g class="cls-2"><path class="cls-3" d="M523,720.74v-8.31h-8.31v8.31H523m2,2h-12.4v-12.4h12.4v12.4h0Z"/></g><path class="cls-4" d="M748.76,627.58a5.73,5.73,0,0,0-.3-1.85l-2.85-8.57a5.71,5.71,0,0,0-4.8-3.87A8.56,8.56,0,1,0,728,601.89q-0.22.25-.43,0.52l-3.14,4.18v-3.33a1.43,1.43,0,0,0-2.85,0v3.35l-3.14-4.18a8.57,8.57,0,1,0-13.2,10.89,5.71,5.71,0,0,0-4.8,3.87l-2.85,8.57a5.72,5.72,0,0,0,5.42,7.53c5.71,0,12.34-2.95,16.69-7.28a4.3,4.3,0,0,0,.35.37l-2.72,10.85a1.43,1.43,0,0,0,2.77.69l2.59-10.36h0.62l2.59,10.36a1.43,1.43,0,0,0,2.77-.69L726,626.37a4.3,4.3,0,0,0,.35-0.37c4.36,4.33,11,7.28,16.69,7.28a5.72,5.72,0,0,0,5.74-5.7h0Zm-42.86-11.43h14.21a19.71,19.71,0,0,0-1.35,6.78c-3.69,4.33-10.23,7.51-15.7,7.51a2.86,2.86,0,0,1-2.72-3.76l2.85-8.57a2.85,2.85,0,0,1,2.71-1.95h0Zm15.7-4.29a1.43,1.43,0,0,1-1.43,1.43h-8.57a5.72,5.72,0,1,1,4.62-9.14l5.14,6.85a1.41,1.41,0,0,1,.26.87h0Zm2.85,11.42a1.43,1.43,0,0,1-2.85,0,16.82,16.82,0,0,1,1.43-6.76,16.82,16.82,0,0,1,1.45,6.77h0Zm15.7-15.7a5.72,5.72,0,0,1-5.72,5.72h-8.57a1.43,1.43,0,0,1-1.15-2.28l5.14-6.85a5.72,5.72,0,0,1,10.33,3.42h0Zm5.72,20a2.86,2.86,0,0,1-2.85,2.85c-5.49,0-12.05-3.18-15.7-7.51a19.68,19.68,0,0,0-1.35-6.78h14.21a2.85,2.85,0,0,1,2.72,1.95l2.85,8.57a2.86,2.86,0,0,1,.16.91h0Z"/><path class="cls-4" d="M636.23,721.44L634.83,720l-5.23,1.75a1.43,1.43,0,0,1-1.77-.81l-2.62-6.36h-0.33l-1.28,1.28,0.92,6.36a1.43,1.43,0,0,1-.41,1.21L621.59,726l0.41,2.83a1.43,1.43,0,1,1-2.83.41l-0.49-3.55a1.43,1.43,0,0,1,.41-1.21l2.52-2.52-0.63-4.4a4.3,4.3,0,0,1-2.77-.33l-0.17.18a4.27,4.27,0,0,1-3.24,1.25,8.57,8.57,0,0,0,.21,11.89,1.43,1.43,0,1,1-1.94,2.11l-0.09-.09a11.44,11.44,0,0,1-.92-15.09l-0.07-.06-0.06-.07a11.44,11.44,0,0,1-15.09-.92,1.43,1.43,0,0,1,2-2,8.57,8.57,0,0,0,11.89.21,4.27,4.27,0,0,1,1.25-3.24l0.18-.17a4.3,4.3,0,0,1-.33-2.77l-4.4-.63-2.52,2.52a1.43,1.43,0,0,1-1.21.41l-3.54-.51a1.43,1.43,0,0,1,.2-2.86l0.21,0,2.83,0.41,2.52-2.52a1.43,1.43,0,0,1,1.21-.41l6.36,0.92,1.28-1.28v-0.33l-6.36-2.62a1.43,1.43,0,0,1-.81-1.77l1.75-5.23L608,693.16A1.43,1.43,0,1,1,609.9,691l0.09,0.09,2,2a1.43,1.43,0,0,1,.34,1.46l-1.6,4.79,5.06,2.09,0.23-.26,1-1c0.61-.61,1.26-1.23,1.92-1.85l-1.26-3.77a1.43,1.43,0,0,1,.34-1.46l6.47-6.47-1.75-5.23a1.43,1.43,0,0,1,2.66-1.06l0,0.14,2,6.06a1.43,1.43,0,0,1-.34,1.46l-6.47,6.47,0.58,1.75c7.25-6.24,16.3-11.9,19-9.24a2.29,2.29,0,0,0,2,2c2.69,2.69-3,11.74-9.24,19l1.75,0.58,6.47-6.47a1.43,1.43,0,0,1,1.29-.39l5.05,1a1.43,1.43,0,0,1-.56,2.77l-4.3-.86-6.54,6.63a1.43,1.43,0,0,1-1.46.34L631,710.43c-0.62.66-1.24,1.31-1.85,1.92l-1,1-0.26.23,2.09,5.06,4.79-1.6a1.43,1.43,0,0,1,1.46.39l2,2A1.43,1.43,0,0,1,636.23,721.44ZM614,715.39a1.43,1.43,0,0,0,2,0l-2-2a1.43,1.43,0,0,0,0,2h0Zm1-7.07a1.43,1.43,0,0,0,0,2l4,4a1.43,1.43,0,0,0,2,0l1-1-6.07-6.1Zm12.13,2c8.71-8.71,12.83-16.77,13-19l-0.42.12a1.43,1.43,0,0,1-1.85-1.85,4,4,0,0,0,.12-0.42c-2.23.19-10.29,4.32-19,13l-1,1a1.43,1.43,0,0,0,0,2l6.06,6.06a1.43,1.43,0,0,0,2,0Z"/><path class="cls-4" d="M821.87,705a4.44,4.44,0,0,1-.41,1.85h5a1.42,1.42,0,0,1,1,.42l4.62,4.62h7.49a1.43,1.43,0,0,1,0,2.85h-8.08a1.42,1.42,0,0,1-1-.42l-4.62-4.62h-4.42a8,8,0,0,1,.49,2.65,3.39,3.39,0,0,1,3.38.85l0.13,0.13a5.68,5.68,0,0,1,.88,6.94l1.15,1.15a1.43,1.43,0,1,1-1.94,2.11l-0.09-.09-1.15-1.15a5.85,5.85,0,0,1-7.07-1,3.39,3.39,0,0,1-.85-3.39,8,8,0,0,1-2.65-.49v4.42l4.62,4.62a1.43,1.43,0,0,1,.42,1v8.08a1.43,1.43,0,1,1-2.85,0V728l-4.62-4.62a1.43,1.43,0,0,1-.42-1v-5a4.42,4.42,0,0,1-1.85.41h-15a10.86,10.86,0,0,1-7.73-3.2l-0.1-.1a7.39,7.39,0,0,1,0-10.38l0.11-.11a7.61,7.61,0,0,1,.82-0.7l-1.07-1.07a1.43,1.43,0,0,1,2-2L790,702a7.52,7.52,0,0,1,1.72-.2h0.38a29,29,0,0,1,4.05.29l-6.94-6.94a1.43,1.43,0,0,1,2-2l3.6,3.6a5.22,5.22,0,0,1,6.06-6.06l-3.6-3.6a1.43,1.43,0,1,1,1.94-2.11l0.09,0.09,6.94,6.94A29.06,29.06,0,0,1,806,688v-0.38a7.52,7.52,0,0,1,.2-1.72L804.31,684a1.43,1.43,0,1,1,1.94-2.11l0.09,0.09,1.07,1.07a7.6,7.6,0,0,1,.7-0.82l0.11-.11a7.39,7.39,0,0,1,10.38,0l0.1,0.1a10.86,10.86,0,0,1,3.2,7.73v15h0Zm-22,.92a25.76,25.76,0,0,0-7.32-1.22l4.2,4.2h7.67a16.47,16.47,0,0,1-4.53-3Zm-3.69,5.84a1.43,1.43,0,0,1-1-.42l-6-6a4.62,4.62,0,0,0-.86.67l-0.11.11a4.49,4.49,0,0,0,0,6.34l0.1,0.1a8,8,0,0,0,5.71,2.36h15a1.58,1.58,0,0,0,.68-0.16,11.08,11.08,0,0,1-2.14-3H796.21Zm27,7.9,0.27-.24a2.83,2.83,0,0,0,.83-1.85,2.86,2.86,0,0,0-.83-2.19l-0.13-.13a0.54,0.54,0,0,0-.76,0l-3.29,3.29a0.54,0.54,0,0,0,0,.76,3,3,0,0,0,3.91.32v0Zm-4.78-5.28c1.37-1.37.67-4.38-1.51-6.57s-5.2-2.88-6.57-1.51-0.67,4.38,1.51,6.57,5.2,2.84,6.57,1.47v0Zm-20.21-20.21c-1.43,1.43-.54,5.54,3,9.09a12.8,12.8,0,0,0,5.71,3.48,5.1,5.1,0,0,1,3.84-3.84,12.8,12.8,0,0,0-3.48-5.71c-3.57-3.6-7.63-4.5-9.1-3.06v0Zm10.54-5.63a25.76,25.76,0,0,0,1.22,7.32,16.47,16.47,0,0,1,3,4.55v-7.67Zm7.79-4.33a4.49,4.49,0,0,0-6.34,0l-0.11.11a4.62,4.62,0,0,0-.67.86l6,6a1.43,1.43,0,0,1,.42,1v11.39a11.08,11.08,0,0,1,3,2.14A1.58,1.58,0,0,0,819,705V690a8,8,0,0,0-2.36-5.71Z"/><path class="cls-4" d="M799.23,519.91l1.39,1.39,5.23-1.75a1.43,1.43,0,0,1,1.77.81l2.84,6.9a4.26,4.26,0,0,1,.92-1.3l-0.92-6.36a1.43,1.43,0,0,1,.41-1.21l2.52-2.52L813,513a1.43,1.43,0,1,1,2.83-.41l0.51,3.54a1.43,1.43,0,0,1-.41,1.21l-2.52,2.52,0.69,4.82a4.32,4.32,0,0,1,.68,0,5.68,5.68,0,0,1,1.66-3.81,8.52,8.52,0,0,1,3.87-2.06,6.56,6.56,0,0,0,.92-4.89l-0.17-.85a1.43,1.43,0,0,1,.18-1l3-5.05a1.43,1.43,0,0,1,2.45,1.47l-2.77,4.62,0.06,0.3a9.41,9.41,0,0,1-.52,5.4,4.11,4.11,0,0,1,3.08,3.08,9.42,9.42,0,0,1,5.4-.52l0.3,0.06,4.62-2.77a1.43,1.43,0,0,1,1.47,2.45l-5.05,3a1.43,1.43,0,0,1-1,.18l-0.85-.17a6.56,6.56,0,0,0-4.89.92,8.52,8.52,0,0,1-2.06,3.87,5.69,5.69,0,0,1-3.81,1.66,4.31,4.31,0,0,1,0,.68L825.5,532l2.52-2.52a1.43,1.43,0,0,1,1.21-.41l3.54,0.51a1.43,1.43,0,0,1-.2,2.86l-0.21,0-2.83-.41L827,534.57a1.43,1.43,0,0,1-1.21.41l-6.36-.92a4.26,4.26,0,0,1-1.3.92l6.9,2.84a1.43,1.43,0,0,1,.81,1.77l-1.75,5.23,1.39,1.39a1.43,1.43,0,0,1-2,2l-2-2a1.43,1.43,0,0,1-.34-1.46l1.6-4.79-5.25-2.16,1.31,3.93a1.43,1.43,0,0,1-.34,1.46L812,549.65l1.75,5.23a1.43,1.43,0,1,1-2.66,1.06l0-.14-2-6.06a1.42,1.42,0,0,1,.34-1.46l6.47-6.47-1-3.12a4.29,4.29,0,0,1-2.77.7,5.68,5.68,0,0,1-1.66,3.81l-1,1c-3.69,3.69-10.37,7.8-13.13,5.05s1.39-9.47,5.05-13.13l1-1a5.69,5.69,0,0,1,3.81-1.66,4.29,4.29,0,0,1,.7-2.77l-3.12-1-6.47,6.47a1.43,1.43,0,0,1-1.29.39l-5-1a1.43,1.43,0,0,1,.56-2.77l4.3,0.86,6.53-6.53a1.43,1.43,0,0,1,1.46-.34l3.93,1.31-2.16-5.25-4.79,1.6a1.43,1.43,0,0,1-1.46-.34l-2-2A1.45,1.45,0,1,1,799.23,519.91Zm4,18.19c-4,4-5.62,8.45-5.05,9.09s5.07-1,9.09-5.05l1-1a2.86,2.86,0,0,0-4-4Zm6.06-4,2,2a1.43,1.43,0,0,0,2-2l-2-2A1.43,1.43,0,0,0,809.33,534.05Zm4-4,2,2a1.43,1.43,0,0,0,2-2l-2-2a1.43,1.43,0,0,0-2,2h0Zm5.05-3a2.86,2.86,0,0,0,4,0c1.26-1.26,2-4.07,1-5.05s-3.8-.24-5.05,1a2.86,2.86,0,0,0,0,4h0Z"/><path class="cls-4" d="M619.76,548.61l1.39-1.39L619.42,542a1.43,1.43,0,0,1,.81-1.77l4.77-2a8,8,0,0,1-.31-0.92l-1.14-1.14-4.62.66a1.43,1.43,0,0,1-1.21-.41l-2.52-2.52-2.83.41a1.43,1.43,0,0,1-.62-2.8l0.21,0,3.54-.51a1.43,1.43,0,0,1,1.21.41l2.52,2.52,2.21-.24a7.17,7.17,0,0,1-.09-6.25,4.25,4.25,0,0,1-1.63-1l-2,2a1.43,1.43,0,0,1-1.75.21l-5.05-3a1.43,1.43,0,0,1,1.47-2.45l0.3,0.18,3.79,2.27,2-2a4.27,4.27,0,0,1,4-4.51H623l2-2-2.27-3.79-0.18-.3a1.43,1.43,0,0,1,2.45-1.47l3,5.05a1.43,1.43,0,0,1-.21,1.75l-2,2a4.25,4.25,0,0,1,1,1.63,7.17,7.17,0,0,1,6.25.09l0.31-2.22-2.52-2.52a1.43,1.43,0,0,1-.41-1.21l0.51-3.54a1.43,1.43,0,0,1,2.83.41l-0.41,2.83,2.52,2.52a1.43,1.43,0,0,1,.41,1.21l-0.66,4.62,1.14,1.14a8,8,0,0,1,.92.31l2-4.77a1.43,1.43,0,0,1,1.77-.81l5.23,1.75,1.39-1.39a1.43,1.43,0,0,1,2,2l-2.09,2a1.43,1.43,0,0,1-1.46.34l-4.82-1.63-1.62,3.93a39.63,39.63,0,0,1,3.69,3.27l3.69-1.24a1.43,1.43,0,0,1,1.46.34l6.47,6.47,5.23-1.75a1.43,1.43,0,0,1,1.06,2.66l-0.14,0-6.06,2a1.42,1.42,0,0,1-1.46-.34l-6.47-6.47-1.53.51a19.15,19.15,0,0,1,4.62,8.66c4.08,4.22,5.12,9.63,2.33,12.42s-8.2,1.75-12.42-2.33a19.13,19.13,0,0,1-8.66-4.62l-0.51,1.53,6.47,6.47a1.43,1.43,0,0,1,.39,1.29l-1,5.05a1.43,1.43,0,0,1-2.77-.56l0.86-4.3-6.55-6.57a1.43,1.43,0,0,1-.34-1.46l1.24-3.69a39.63,39.63,0,0,1-3.27-3.69l-3.93,1.62,1.6,4.79a1.43,1.43,0,0,1-.34,1.46l-2,2A1.44,1.44,0,1,1,619.76,548.61Zm2-26.27a1.43,1.43,0,1,0,2,0h0a1.43,1.43,0,0,0-2,0h0Zm5.05,3-2,2a4.29,4.29,0,0,0,0,6.06,7.13,7.13,0,0,1,6.08-2,7.13,7.13,0,0,1,2-6.08,4.29,4.29,0,0,0-6.06,0v0ZM643.46,534c-4.67-4.67-6.47-6.15-8.94-6.17a4.29,4.29,0,0,0,.35,5.66l12.93,12.93c1.2-2.92-.15-8.27-4.3-12.42h0ZM651,551.64c1-1,.92-3.15-0.21-5.46a6.52,6.52,0,0,1-5.25,5.25c2.36,1.18,4.51,1.21,5.5.22h0Zm-5.23-3.21-12.93-12.93a4.29,4.29,0,0,0-5.66-.35c0,2.43,1.5,4.27,6.17,8.94C637.55,548.21,642.9,549.57,645.8,548.42Z"/><path class="cls-4" d="M739.94,776.09a1.43,1.43,0,0,1-1.15.57h-6.17l6.71,3a1.42,1.42,0,0,1,.43.3l7.14,7.14a1.43,1.43,0,1,1-1.94,2.11l-0.09-.09-7-7-8.48-3.76,6.24,10.41a1.43,1.43,0,0,1,.13,1.19L733,798.56a1.43,1.43,0,0,1-2.71-.92l2.65-8-5.35-8.92a6.35,6.35,0,0,1-2.24,2.37l3.2,4.62a1.43,1.43,0,0,1,.17,1.31l-1.43,3.81a1.43,1.43,0,0,1-2.68-1l1.16-3.1-2.7-3.91-2.65,3.53,1.19,3.57a1.43,1.43,0,0,1-2.71.92l-1.48-4.33a1.43,1.43,0,0,1,.21-1.31l3-4a6.23,6.23,0,0,1-2.22-2.25l-5.26,8.76,2.65,8a1.43,1.43,0,0,1-2.71.92L710.27,790a1.43,1.43,0,0,1,.13-1.19l6.23-10.42-8.49,3.77-7,7a1.43,1.43,0,0,1-2-2l7.14-7.14a1.43,1.43,0,0,1,.43-0.3l6.71-3h-6.1a1.43,1.43,0,0,1-1.15-.57l-8.55-11.43a1.43,1.43,0,0,1,2.29-1.71L708,773.77h6.79l-5.33-3a1.43,1.43,0,0,1-.66-0.85l-5.72-20a1.43,1.43,0,1,1,2.74-.79l5.54,19.44,6.41,3.69a7.69,7.69,0,0,1,1.44-2.39c-2.94-1.85-5-5.76-5-10.33,0-6.3,3.89-11.43,8.66-11.43s8.66,5.13,8.66,11.43c0,4.56-2,8.49-5,10.33a7.72,7.72,0,0,1,1.47,2.46l6.58-3.81,5.54-19.4a1.44,1.44,0,0,1,2.77.79h0l-5.72,19.92a1.43,1.43,0,0,1-.66.84l-5.38,3.14h6.86l8.1-10.85a1.43,1.43,0,0,1,2.4,1.57l-0.11.14ZM723,781c1.39,0,3-2.05,3-5s-1.55-5-3-5-3,2.05-3,5,1.56,5,3,5h0Zm5.81-21.43c0-4.62-2.66-8.57-5.81-8.57s-5.81,3.93-5.81,8.57,2.66,8.57,5.81,8.57,5.81-3.93,5.81-8.58h0Z"/><g class="cls-2"><path class="cls-3" d="M630.22,624.22a5,5,0,1,0-5-5,5,5,0,0,0,5,5m0,2a7.07,7.07,0,1,1,7.07-7.07,7.07,7.07,0,0,1-7.07,7.07h0Z"/></g><g class="cls-2"><path class="cls-3" d="M721.14,700.52l5.9-5.9-5.9-5.9-5.9,5.9,5.9,5.9m0,2.87-8.77-8.77,8.77-8.77,8.77,8.77-8.77,8.77h0Z"/></g><g class="cls-2"><path class="cls-3" d="M721.14,545.36l5.08-8H716.06l5.08,8m0,3.8-8.77-13.85h17.55l-8.77,13.85h0Z"/></g><g class="cls-2"><path class="cls-3" d="M818.59,622.22v-8.31h-8.31v8.31h8.31m2,2h-12.4v-12.4h12.4v12.4h0Z"/></g><path class="cls-4" d="M799.23,803.28l1.39,1.39,5.23-1.75a1.43,1.43,0,0,1,1.77.81l2.84,6.9a4.26,4.26,0,0,1,.92-1.3L810.47,803a1.43,1.43,0,0,1,.41-1.21l2.52-2.52L813,796.42a1.43,1.43,0,0,1,2.83-.41l0.51,3.53a1.43,1.43,0,0,1-.41,1.21l-2.52,2.52,0.69,4.82a4.31,4.31,0,0,1,.68,0,5.68,5.68,0,0,1,1.66-3.81,8.52,8.52,0,0,1,3.84-2,6.56,6.56,0,0,0,.92-4.89L821,796.5a1.43,1.43,0,0,1,.18-1l3-5.05a1.43,1.43,0,0,1,2.45,1.47l-2.77,4.62,0.06,0.3a9.41,9.41,0,0,1-.52,5.4,4.11,4.11,0,0,1,3.08,3.08,9.42,9.42,0,0,1,5.4-.52l0.3,0.06,4.62-2.77a1.43,1.43,0,0,1,1.47,2.45l-5.05,3a1.43,1.43,0,0,1-1,.18l-0.85-.17a6.56,6.56,0,0,0-4.89.92,8.52,8.52,0,0,1-2,3.92,5.69,5.69,0,0,1-3.81,1.66,4.31,4.31,0,0,1,0,.68l4.82,0.69,2.52-2.52a1.43,1.43,0,0,1,1.21-.41l3.54,0.51a1.43,1.43,0,1,1-.2,2.86l-0.21,0-2.83-.41-2.52,2.5a1.43,1.43,0,0,1-1.21.41l-6.36-.92a4.26,4.26,0,0,1-1.3.92l6.9,2.84a1.43,1.43,0,0,1,.81,1.77l-1.75,5.23,1.39,1.39a1.43,1.43,0,0,1-2,2l-2-2a1.43,1.43,0,0,1-.34-1.46l1.6-4.79-5.25-2.16,1.31,3.93a1.43,1.43,0,0,1-.34,1.46L812,833l1.75,5.23a1.43,1.43,0,0,1-2.66,1.06l0-.14-2-6.06a1.42,1.42,0,0,1,.34-1.46l6.47-6.47-1-3.12a4.29,4.29,0,0,1-2.77.7,5.68,5.68,0,0,1-1.66,3.81l-1,1c-3.69,3.69-10.37,7.8-13.13,5.05s1.39-9.47,5.05-13.13l1-1a5.69,5.69,0,0,1,3.81-1.66,4.29,4.29,0,0,1,.7-2.77l-3.12-1-6.47,6.47a1.43,1.43,0,0,1-1.29.39l-5-1a1.43,1.43,0,0,1,.56-2.77l4.3,0.86,6.53-6.53a1.43,1.43,0,0,1,1.46-.34l3.93,1.31-2.16-5.25-4.79,1.6a1.43,1.43,0,0,1-1.46-.34l-2-2A1.45,1.45,0,1,1,799.23,803.28Zm4,18.19c-4,4-5.62,8.45-5.05,9.09s5.07-1,9.09-5.05l1-1a2.85,2.85,0,0,0-4-4Zm6.06-4,2,2a1.43,1.43,0,0,0,2-2l-2-2A1.43,1.43,0,0,0,809.33,817.42Zm4-4,2,2a1.43,1.43,0,0,0,2-2l-2-2a1.43,1.43,0,0,0-2,2h0Zm5.05-3a2.86,2.86,0,0,0,4,0c1.26-1.26,2-4.07,1-5.05s-3.8-.24-5.05,1a2.86,2.86,0,0,0,0,4h0Z"/><path class="cls-4" d="M619.76,834.15l1.39-1.39-1.74-5.26a1.43,1.43,0,0,1,.81-1.77l4.77-1.92a8,8,0,0,1-.31-0.92l-1.14-1.14-4.62.66a1.43,1.43,0,0,1-1.21-.41l-2.52-2.52-2.83.41a1.43,1.43,0,0,1-.62-2.8l0.21,0,3.54-.51a1.43,1.43,0,0,1,1.21.41l2.52,2.52,2.22-.29a7.17,7.17,0,0,1-.09-6.25,4.25,4.25,0,0,1-1.63-1l-2,2a1.43,1.43,0,0,1-1.75.21l-5.05-3a1.43,1.43,0,0,1,1.47-2.45l0.3,0.18,3.79,2.27,2-2a4.27,4.27,0,0,1,4-4.51H623l2-2-2.29-3.74-0.18-.3A1.45,1.45,0,1,1,625,797l3,5.05a1.43,1.43,0,0,1-.21,1.75l-2,2a4.25,4.25,0,0,1,1,1.63,7.17,7.17,0,0,1,6.25.09l0.31-2.22-2.53-2.5a1.43,1.43,0,0,1-.41-1.21l0.51-3.54a1.43,1.43,0,1,1,2.83.41l-0.41,2.83,2.52,2.52a1.43,1.43,0,0,1,.41,1.21l-0.66,4.62,1.14,1.14a8,8,0,0,1,.92.31l2-4.77a1.43,1.43,0,0,1,1.77-.81l5.23,1.75,1.39-1.39a1.43,1.43,0,0,1,2,2L648,810a1.43,1.43,0,0,1-1.46.34l-4.82-1.63-1.62,3.93a39.63,39.63,0,0,1,3.69,3.27l3.69-1.24A1.43,1.43,0,0,1,649,815l6.47,6.47,5.23-1.75a1.43,1.43,0,1,1,1.06,2.66l-0.14,0-6.06,2a1.42,1.42,0,0,1-1.46-.34l-6.47-6.47-1.53.51a19.15,19.15,0,0,1,4.62,8.66c4.08,4.22,5.12,9.63,2.33,12.42s-8.2,1.75-12.42-2.33a19.13,19.13,0,0,1-8.66-4.62l-0.51,1.53,6.47,6.47a1.43,1.43,0,0,1,.39,1.29l-1,5.05a1.43,1.43,0,0,1-2.77-.56l0.86-4.3-6.55-6.57a1.43,1.43,0,0,1-.34-1.46l1.24-3.69a39.63,39.63,0,0,1-3.27-3.69l-3.93,1.62,1.6,4.79a1.43,1.43,0,0,1-.34,1.46l-2,2a1.44,1.44,0,0,1-2-2.06h0Zm2-26.27a1.43,1.43,0,1,0,2,0h0a1.43,1.43,0,0,0-2,0h0Zm5.05,3-2,2a4.29,4.29,0,0,0,0,6.06,7.13,7.13,0,0,1,6.08-2,7.13,7.13,0,0,1,2-6.08A4.29,4.29,0,0,0,626.83,810.88Zm16.62,8.59c-4.67-4.67-6.47-6.15-8.94-6.17a4.29,4.29,0,0,0,.35,5.66l12.93,12.93c1.2-2.88-.15-8.23-4.3-12.39ZM651,837.14c1-1,.92-3.15-0.21-5.46a6.52,6.52,0,0,1-5.25,5.25c2.36,1.22,4.51,1.25,5.5.26ZM645.8,834L632.87,821a4.29,4.29,0,0,0-5.66-.35c0,2.43,1.5,4.27,6.17,8.94C637.55,833.75,642.9,835.11,645.8,834Z"/><g class="cls-2"><path class="cls-3" d="M721.14,840.9l5.08-8H716.06l5.08,8m0,3.8-8.77-13.85h17.55l-8.77,13.85h0Z"/></g><polygon class="cls-1" points="-15.82 864.44 870.82 862.27 870.82 -12.19 -15.82 -12.19 -15.82 864.44"/><polygon class="cls-1" points="-865.82 864.44 20.82 862.27 20.82 -12.19 -865.82 -12.19 -865.82 864.44"/><polygon class="cls-1" points="834.18 4.44 1720.82 2.27 1720.82 -872.19 834.18 -872.19 834.18 4.44"/><polygon class="cls-1" points="-15.82 4.44 870.82 2.27 870.82 -872.19 -15.82 -872.19 -15.82 4.44"/><polygon class="cls-1" points="-865.82 4.44 20.82 2.27 20.82 -872.19 -865.82 -872.19 -865.82 4.44"/></pattern></defs><title>confetti</title><polygon class="cls-5" points="1515.06 0 1515.06 37.4 1350.13 37.4 1350.13 0 68.36 0 27.48 117.01 0 144.01 0 381.04 62.36 450.05 0 525.05 0 606.06 47.36 636.06 182.38 829.45 398.4 829.45 482.4 750.08 482.4 771.08 542.41 723.07 1265.48 769.99 1515.06 769.99 1853.54 786.08 2063.56 829.45 2063.56 781.5 2186.28 781.5 2186.28 829.45 2209.3 829.45 2209.3 0 1515.06 0"/></svg>