<?xml version="1.0" encoding="utf-8"?>
<!-- Generator: Adobe Illustrator 19.2.1, SVG Export Plug-In . SVG Version: 6.00 Build 0)  -->
<svg version="1.1" id="Layer_1" xmlns="http://www.w3.org/2000/svg" xmlns:xlink="http://www.w3.org/1999/xlink" x="0px" y="0px"
	 viewBox="0 0 36 36" style="enable-background:new 0 0 36 36;" xml:space="preserve">
<style type="text/css">
	.st0{fill:#007BB6;}
</style>
<title>Logo-2C-CMYK-0p5in-R</title>
<path class="st0" d="M36,36c0-2.7,0-36,0-36L0,0c0,0,0,1.1,0,2.6c0,0,0,0,0,0c0,0,0,30.6,0,33.4 M10.7,30.7H5.3V13.5h5.3L10.7,30.7
	L10.7,30.7z M8,11.1c-1.7,0-3.1-1.4-3.1-3.1S6.3,5,8,5s3.1,1.4,3.1,3.1c0,0,0,0,0,0C11.1,9.8,9.7,11.1,8,11.1z M30.7,30.7h-5.3v-8.4
	c0-2,0-4.6-2.8-4.6s-3.2,2.2-3.2,4.4v8.5H14V13.5h5.1v2.4h0.1c1-1.8,3-2.8,5-2.8c5.4,0,6.4,3.6,6.4,8.2L30.7,30.7L30.7,30.7z"/>
</svg>
