<svg id="Layer_1" data-name="Layer 1" xmlns="http://www.w3.org/2000/svg" xmlns:xlink="http://www.w3.org/1999/xlink" viewBox="0 0 346 131.11"><defs><style>.cls-1{fill:#e4daef;}.cls-2,.cls-9{fill:#a47cce;}.cls-10,.cls-11,.cls-12,.cls-14,.cls-2{stroke:#52306c;stroke-miterlimit:10;}.cls-3{fill:#52306c;}.cls-4{fill:url(#linear-gradient);}.cls-5{fill:#aaa;}.cls-11,.cls-6{fill:#fff;}.cls-7{fill:#4b2870;}.cls-8{fill:url(#linear-gradient-2);}.cls-10{fill:none;}.cls-12,.cls-13{fill:#bf977b;}.cls-14{fill:#fff9eb;}.cls-15{fill:#0e1530;}</style><linearGradient id="linear-gradient" x1="88.5" y1="94" x2="88.5" y2="79" gradientUnits="userSpaceOnUse"><stop offset="0" stop-color="#834fab"/><stop offset="1" stop-color="#834fab"/></linearGradient><linearGradient id="linear-gradient-2" x1="686" y1="812.89" x2="760.67" y2="812.89" xlink:href="#linear-gradient"/></defs><title>code-reviews-runnable</title><path class="cls-1" d="M15.06,4.17H20.5a0,0,0,0,1,0,0V130.61a0,0,0,0,1,0,0H0.5a0,0,0,0,1,0,0V18.72A14.56,14.56,0,0,1,15.06,4.17Z"/><path class="cls-2" d="M7,0.61H155a6,6,0,0,1,6,6V20.7a0,0,0,0,1,0,0H1a0,0,0,0,1,0,0V6.65A6,6,0,0,1,7,.61Z"/><path class="cls-3" d="M461.67,752.26h6.8v4.32h-6.8v-4.32Z" transform="translate(-454 -716.39)"/><path class="cls-3" d="M461.67,768.33h6.8v4.32h-6.8v-4.32Z" transform="translate(-454 -716.39)"/><path class="cls-3" d="M461.67,784.41h6.8v4.32h-6.8v-4.32Z" transform="translate(-454 -716.39)"/><path class="cls-3" d="M461.67,800.48h6.8v4.32h-6.8v-4.32Z" transform="translate(-454 -716.39)"/><path class="cls-3" d="M461.67,816.56h6.8v4.32h-6.8v-4.32Z" transform="translate(-454 -716.39)"/><path class="cls-3" d="M461.67,832.64h6.8V837h-6.8v-4.32Z" transform="translate(-454 -716.39)"/><rect class="cls-4" x="40" y="79" width="97" height="15" rx="3.57" ry="3.57"/><path class="cls-5" d="M485.67,752.26h6.45v4.32h-6.45v-4.32Z" transform="translate(-454 -716.39)"/><path class="cls-5" d="M491.92,752.26h6.45v4.32h-6.45v-4.32Z" transform="translate(-454 -716.39)"/><path class="cls-5" d="M498.17,752.26h6.45v4.32h-6.45v-4.32Z" transform="translate(-454 -716.39)"/><path class="cls-5" d="M504.42,752.26h6.45v4.32h-6.45v-4.32Z" transform="translate(-454 -716.39)"/><path class="cls-5" d="M510.67,752.26h6.45v4.32h-6.45v-4.32Z" transform="translate(-454 -716.39)"/><path class="cls-5" d="M516.92,752.26h6.45v4.32h-6.45v-4.32Z" transform="translate(-454 -716.39)"/><path class="cls-5" d="M523.17,752.26h6.45v4.32h-6.45v-4.32Z" transform="translate(-454 -716.39)"/><path class="cls-5" d="M529.42,752.26h6.45v4.32h-6.45v-4.32Z" transform="translate(-454 -716.39)"/><path class="cls-5" d="M535.67,752.26h6.45v4.32h-6.45v-4.32Z" transform="translate(-454 -716.39)"/><path class="cls-5" d="M554.46,752.26h6.45v4.32h-6.45v-4.32Z" transform="translate(-454 -716.39)"/><path class="cls-5" d="M560.71,752.26h6.45v4.32h-6.45v-4.32Z" transform="translate(-454 -716.39)"/><path class="cls-5" d="M567,752.26h6.45v4.32H567v-4.32Z" transform="translate(-454 -716.39)"/><path class="cls-5" d="M573.21,752.26h6.45v4.32h-6.45v-4.32Z" transform="translate(-454 -716.39)"/><path class="cls-5" d="M579.46,752.26h6.45v4.32h-6.45v-4.32Z" transform="translate(-454 -716.39)"/><path class="cls-5" d="M485.67,768.33h6.45v4.32h-6.45v-4.32Z" transform="translate(-454 -716.39)"/><path class="cls-5" d="M491.92,768.33h6.45v4.32h-6.45v-4.32Z" transform="translate(-454 -716.39)"/><path class="cls-5" d="M498.17,768.33h6.45v4.32h-6.45v-4.32Z" transform="translate(-454 -716.39)"/><path class="cls-5" d="M504.42,768.33h6.45v4.32h-6.45v-4.32Z" transform="translate(-454 -716.39)"/><path class="cls-5" d="M510.67,768.33h6.45v4.32h-6.45v-4.32Z" transform="translate(-454 -716.39)"/><path class="cls-5" d="M516.92,768.33h6.45v4.32h-6.45v-4.32Z" transform="translate(-454 -716.39)"/><path class="cls-5" d="M498.21,784.41h6.45v4.32h-6.45v-4.32Z" transform="translate(-454 -716.39)"/><path class="cls-5" d="M504.46,784.41h6.45v4.32h-6.45v-4.32Z" transform="translate(-454 -716.39)"/><path class="cls-5" d="M510.71,784.41h6.45v4.32h-6.45v-4.32Z" transform="translate(-454 -716.39)"/><path class="cls-5" d="M517,784.41h6.45v4.32H517v-4.32Z" transform="translate(-454 -716.39)"/><path class="cls-5" d="M523.21,784.41h6.45v4.32h-6.45v-4.32Z" transform="translate(-454 -716.39)"/><path class="cls-5" d="M529.46,784.41h6.45v4.32h-6.45v-4.32Z" transform="translate(-454 -716.39)"/><path class="cls-6" d="M498.21,800.48h6.45v4.32h-6.45v-4.32Z" transform="translate(-454 -716.39)"/><path class="cls-6" d="M504.46,800.48h6.45v4.32h-6.45v-4.32Z" transform="translate(-454 -716.39)"/><path class="cls-6" d="M510.71,800.48h6.45v4.32h-6.45v-4.32Z" transform="translate(-454 -716.39)"/><path class="cls-6" d="M517,800.48h6.45v4.32H517v-4.32Z" transform="translate(-454 -716.39)"/><path class="cls-6" d="M523.21,800.48h6.45v4.32h-6.45v-4.32Z" transform="translate(-454 -716.39)"/><path class="cls-6" d="M529.46,800.48h6.45v4.32h-6.45v-4.32Z" transform="translate(-454 -716.39)"/><path class="cls-6" d="M548.24,800.48h6.45v4.32h-6.45v-4.32Z" transform="translate(-454 -716.39)"/><path class="cls-6" d="M567,800.48h6.45v4.32H567v-4.32Z" transform="translate(-454 -716.39)"/><path class="cls-6" d="M573.28,800.48h6.45v4.32h-6.45v-4.32Z" transform="translate(-454 -716.39)"/><path class="cls-5" d="M498.21,816.56h6.45v4.32h-6.45v-4.32Z" transform="translate(-454 -716.39)"/><path class="cls-5" d="M504.46,816.56h6.45v4.32h-6.45v-4.32Z" transform="translate(-454 -716.39)"/><path class="cls-5" d="M510.71,816.56h6.45v4.32h-6.45v-4.32Z" transform="translate(-454 -716.39)"/><path class="cls-5" d="M517,816.56h6.45v4.32H517v-4.32Z" transform="translate(-454 -716.39)"/><path class="cls-5" d="M523.21,816.56h6.45v4.32h-6.45v-4.32Z" transform="translate(-454 -716.39)"/><path class="cls-5" d="M529.46,816.56h6.45v4.32h-6.45v-4.32Z" transform="translate(-454 -716.39)"/><path class="cls-5" d="M535.71,816.56h6.45v4.32h-6.45v-4.32Z" transform="translate(-454 -716.39)"/><path class="cls-5" d="M542,816.56h6.45v4.32H542v-4.32Z" transform="translate(-454 -716.39)"/><path class="cls-5" d="M485.67,832.64h6.45V837h-6.45v-4.32Z" transform="translate(-454 -716.39)"/><path class="cls-5" d="M491.92,832.64h6.45V837h-6.45v-4.32Z" transform="translate(-454 -716.39)"/><path class="cls-5" d="M498.17,832.64h6.45V837h-6.45v-4.32Z" transform="translate(-454 -716.39)"/><path class="cls-5" d="M504.42,832.64h6.45V837h-6.45v-4.32Z" transform="translate(-454 -716.39)"/><path class="cls-5" d="M510.67,832.64h6.45V837h-6.45v-4.32Z" transform="translate(-454 -716.39)"/><path class="cls-5" d="M516.92,832.64h6.45V837h-6.45v-4.32Z" transform="translate(-454 -716.39)"/><path class="cls-5" d="M535.71,832.64h6.45V837h-6.45v-4.32Z" transform="translate(-454 -716.39)"/><path class="cls-5" d="M542,832.64h6.45V837H542v-4.32Z" transform="translate(-454 -716.39)"/><path class="cls-5" d="M548.21,832.64h6.45V837h-6.45v-4.32Z" transform="translate(-454 -716.39)"/><path class="cls-5" d="M554.46,832.64h6.45V837h-6.45v-4.32Z" transform="translate(-454 -716.39)"/><path class="cls-5" d="M560.71,832.64h6.45V837h-6.45v-4.32Z" transform="translate(-454 -716.39)"/><path class="cls-5" d="M567,832.64h6.45V837H567v-4.32Z" transform="translate(-454 -716.39)"/><path class="cls-5" d="M573.21,832.64h6.45V837h-6.45v-4.32Z" transform="translate(-454 -716.39)"/><path class="cls-5" d="M579.46,832.64h6.45V837h-6.45v-4.32Z" transform="translate(-454 -716.39)"/><ellipse class="cls-7" cx="11.67" cy="11.05" rx="3" ry="3.01"/><ellipse class="cls-7" cx="25.67" cy="11.05" rx="3" ry="3.01"/><ellipse class="cls-7" cx="39.67" cy="11.05" rx="3" ry="3.01"/><path class="cls-8" d="M689.3,846.39c-1.54,0-3.3-1.26-3.3-2.8V782c0-1.54,1.76-2.56,3.3-2.56h59.87A2.64,2.64,0,0,1,752,782v50a13.69,13.69,0,0,0,4,9.76l4.65,4.66H689.3Z" transform="translate(-454 -716.39)"/><path class="cls-3" d="M749.17,779.39c1.27,0,1.83,1.3,1.83,2.56v50a15,15,0,0,0,4.42,10.36l4,4.06H689.3c-1.27,0-2.3-1.53-2.3-2.8V782a2.54,2.54,0,0,1,2.3-2.56H749m0.17-1H689.3A3.54,3.54,0,0,0,686,782v61.64c0,1.82,1.48,3.8,3.3,3.8h72.58l-5.75-5.77A14.12,14.12,0,0,1,752,832V782c0-1.82-1-3.56-2.83-3.56h0Z" transform="translate(-454 -716.39)"/><path class="cls-9" d="M735.32,754.39l4.65-4.61a13.57,13.57,0,0,0,4-9.7v-10a2.72,2.72,0,0,1,2.83-2.67H796.7c1.54,0,2.3,1.13,2.3,2.67V751.7c0,1.54-.76,2.69-2.3,2.69H735.32Z" transform="translate(-454 -716.39)"/><path class="cls-3" d="M796.7,727.39a2.65,2.65,0,0,1,2.3,2.67V751.7a2.67,2.67,0,0,1-2.3,2.69H736.53l4-4a14.89,14.89,0,0,0,4.42-10.3v-10c0-1.27.56-2.67,1.83-2.67H797m-0.3-1H746.83c-1.82,0-2.83,1.85-2.83,3.67v10a14,14,0,0,1-4.13,9.6l-5.75,5.71H796.7a3.66,3.66,0,0,0,3.3-3.69V730.06a3.64,3.64,0,0,0-3.3-3.67h0Z" transform="translate(-454 -716.39)"/><path class="cls-10" d="M773.19,837.91c-0.47,2.34,3.11,4.62,7.6,4.62s8-2.37,7.61-4.68" transform="translate(-454 -716.39)"/><path class="cls-11" d="M780.68,837.18c-6,0-11.29,1-14.31,3.21a18.79,18.79,0,0,0,28.62,0C792,838.2,786.69,837.18,780.68,837.18Z" transform="translate(-454 -716.39)"/><path class="cls-10" d="M775.58,837.18v2.46c0,2,2.28,3.32,5.09,3.32h0c2.81,0,5.09-1.32,5.09-3.32v-2.46" transform="translate(-454 -716.39)"/><path class="cls-12" d="M783.5,835.89h-6v2.48c0,1.6,1.69,1.52,3.29,1.52h0.16c1.6,0,2.56.08,2.56-1.52v-2.48Z" transform="translate(-454 -716.39)"/><path class="cls-13" d="M780.68,837.68c-4.67,0-8.43-3.91-9.86-7.9h-0.13a2.61,2.61,0,0,1-2.43-2.47,2.58,2.58,0,0,1,2.05-3h0.05a10.49,10.49,0,0,1,20.65,0,2.79,2.79,0,0,1-.47,5.45C789.1,833.77,785.34,837.68,780.68,837.68Z" transform="translate(-454 -716.39)"/><path class="cls-3" d="M780.68,816.18a10,10,0,0,1,9.9,8.64h0.28a2.08,2.08,0,0,1,1.61,2.44,2.13,2.13,0,0,1-1.94,2h-0.18l-0.16,0c-1.29,4-5.06,7.94-9.52,7.94s-8.25-3.93-9.53-8a1.58,1.58,0,0,1-.29.07h-0.18a2.13,2.13,0,0,1-1.94-2,2.08,2.08,0,0,1,1.61-2.44h0.16l0.27,0a10,10,0,0,1,9.9-8.66m0-1a11,11,0,0,0-10.75,8.7,2.78,2.78,0,0,0-1.65,1.19,3.46,3.46,0,0,0-.53,2.3,3.14,3.14,0,0,0,2.71,2.9c1.58,4,5.44,7.91,10.21,7.91s8.64-3.88,10.22-7.92a3.34,3.34,0,0,0,.54-6.33,11,11,0,0,0-10.76-8.75h0Z" transform="translate(-454 -716.39)"/><g id="a"><path class="cls-3" d="M778.09,831.29q-0.84-.44-0.6.25a5.2,5.2,0,0,0,1.71,1.84,2.59,2.59,0,0,0,3-.23,4.3,4.3,0,0,0,1.4-1.84q0.13-.59-0.6-0.09a3.92,3.92,0,0,1-2.66.7,5,5,0,0,1-2.2-.64m1.23-4.59a1,1,0,0,0-.78-0.89,9.19,9.19,0,0,0-2.71.08,1,1,0,0,0-.82.79q0.06,0.79,1,.53a2.18,2.18,0,0,1,1.17-.16,12,12,0,0,0,1.6.26,0.52,0.52,0,0,0,.52-0.6m3.51-.89a1,1,0,0,0-.78.89,0.52,0.52,0,0,0,.52.6,12,12,0,0,0,1.6-.26,2.18,2.18,0,0,1,1.17.16q1,0.26,1-.53a1,1,0,0,0-.82-0.79A9.19,9.19,0,0,0,782.83,825.81Z" transform="translate(-454 -716.39)"/></g><path class="cls-3" d="M788.47,824.65a0.52,0.52,0,0,0,.42.32l1.78,0.45c-0.41-5.15-4.72-9.64-10-9.64s-9.62,4.48-10,9.65l2-.55a0.45,0.45,0,0,0,.43-0.24l1.5-3.26H787Z" transform="translate(-454 -716.39)"/><path class="cls-10" d="M697.34,745.43c-0.47,2.34,3.11,4.62,7.6,4.62s8-2.37,7.61-4.68" transform="translate(-454 -716.39)"/><path class="cls-11" d="M704.82,744.7c-6,0-11.29,1-14.31,3.21a18.79,18.79,0,0,0,28.62,0C716.11,745.73,710.84,744.7,704.82,744.7Z" transform="translate(-454 -716.39)"/><path class="cls-10" d="M699.73,744.7v2.46c0,2,2.28,3.32,5.09,3.32h0c2.81,0,5.09-1.32,5.09-3.32V744.7" transform="translate(-454 -716.39)"/><path class="cls-14" d="M707.72,743h-5.79v2.9c0,1.6,1.3,1.9,2.9,1.9h0c1.6,0,2.9-.3,2.9-1.9V743Z" transform="translate(-454 -716.39)"/><path class="cls-14" d="M715,732.35a1.57,1.57,0,0,0-.28,0A10,10,0,0,0,709.8,725c1.08-.52,2.07-1,2.07-1l-3.52.35h0a7.32,7.32,0,0,0,.77-1.78,13.35,13.35,0,0,1-3.53,1.18c-0.24,0-.48,0-0.73,0a10,10,0,0,0-9.9,8.66,1.58,1.58,0,0,0-.42,0,2.28,2.28,0,0,0,.5,4.45,1.58,1.58,0,0,0,.29-0.07c1.28,4,5.06,8,9.53,8s8.23-3.92,9.52-7.94l0.16,0A2.28,2.28,0,0,0,715,732.35Z" transform="translate(-454 -716.39)"/><path class="cls-15" d="M712.59,732a0.62,0.62,0,0,0,.42.41l1.78,0.5a10,10,0,0,0-19.92,0l2-.54a0.62,0.62,0,0,0,.43-0.41l1.5-3.43h12.3Z" transform="translate(-454 -716.39)"/><g id="a-2" data-name="a"><path class="cls-3" d="M702.48,739.41a2.2,2.2,0,0,0,.68,1.63,2.32,2.32,0,0,0,1.67.67,2.28,2.28,0,0,0,1.66-.67,2.26,2.26,0,0,0,0-3.26,2.28,2.28,0,0,0-1.66-.67,2.32,2.32,0,0,0-1.67.67,2.2,2.2,0,0,0-.68,1.63m0.09-5.63a1.52,1.52,0,0,0,.34-1,1.57,1.57,0,0,0-.34-1,1,1,0,0,0-1.64,0,1.57,1.57,0,0,0-.34,1,1.52,1.52,0,0,0,.34,1,1,1,0,0,0,1.64,0" transform="translate(-454 -716.39)"/></g><path class="cls-3" d="M708.74,733.78a1.52,1.52,0,0,0,.34-1,1.57,1.57,0,0,0-.34-1,1,1,0,0,0-1.64,0,1.57,1.57,0,0,0-.34,1,1.52,1.52,0,0,0,.34,1,1,1,0,0,0,1.64,0" transform="translate(-454 -716.39)"/><path class="cls-15" d="M705.42,723.77a14.65,14.65,0,0,0,3.66-1.21,7.9,7.9,0,0,1-1.54,2.88Z" transform="translate(-454 -716.39)"/><path class="cls-15" d="M707.92,724.39l4-.4a28.78,28.78,0,0,1-4.63,2.06C706.25,726.18,707.92,724.39,707.92,724.39Z" transform="translate(-454 -716.39)"/><path class="cls-9" d="M692.17,788.42h7.73v5.16h-7.73v-5.16Z" transform="translate(-454 -716.39)"/><path class="cls-9" d="M699.67,788.42h7.73v5.16h-7.73v-5.16Z" transform="translate(-454 -716.39)"/><path class="cls-9" d="M707.17,788.42h7.73v5.16h-7.73v-5.16Z" transform="translate(-454 -716.39)"/><path class="cls-9" d="M729.71,788.42h7.73v5.16h-7.73v-5.16Z" transform="translate(-454 -716.39)"/><path class="cls-9" d="M692.17,802.82h7.73V808h-7.73v-5.16Z" transform="translate(-454 -716.39)"/><path class="cls-9" d="M699.67,802.82h7.73V808h-7.73v-5.16Z" transform="translate(-454 -716.39)"/><path class="cls-9" d="M707.17,802.82h7.73V808h-7.73v-5.16Z" transform="translate(-454 -716.39)"/><path class="cls-9" d="M714.67,802.82h7.73V808h-7.73v-5.16Z" transform="translate(-454 -716.39)"/><path class="cls-9" d="M692.17,817.22h7.73v5.16h-7.73v-5.16Z" transform="translate(-454 -716.39)"/><path class="cls-9" d="M699.67,817.22h7.73v5.16h-7.73v-5.16Z" transform="translate(-454 -716.39)"/><path class="cls-9" d="M722.21,817.22h7.73v5.16h-7.73v-5.16Z" transform="translate(-454 -716.39)"/><path class="cls-9" d="M729.71,817.22h7.73v5.16h-7.73v-5.16Z" transform="translate(-454 -716.39)"/><path class="cls-9" d="M737.21,817.22h7.73v5.16h-7.73v-5.16Z" transform="translate(-454 -716.39)"/><path class="cls-9" d="M692.17,831.62h7.73v5.16h-7.73v-5.16Z" transform="translate(-454 -716.39)"/><path class="cls-9" d="M699.67,831.62h7.73v5.16h-7.73v-5.16Z" transform="translate(-454 -716.39)"/><path class="cls-9" d="M707.17,831.62h7.73v5.16h-7.73v-5.16Z" transform="translate(-454 -716.39)"/><path class="cls-9" d="M714.67,831.62h7.73v5.16h-7.73v-5.16Z" transform="translate(-454 -716.39)"/><path class="cls-9" d="M722.17,831.62h7.73v5.16h-7.73v-5.16Z" transform="translate(-454 -716.39)"/><path class="cls-3" d="M753.67,738.53h7.73v5.16h-7.73v-5.16Z" transform="translate(-454 -716.39)"/><path class="cls-3" d="M761.17,738.53h7.73v5.16h-7.73v-5.16Z" transform="translate(-454 -716.39)"/><path class="cls-3" d="M768.67,738.53h7.73v5.16h-7.73v-5.16Z" transform="translate(-454 -716.39)"/><path class="cls-3" d="M776.17,738.53h7.73v5.16h-7.73v-5.16Z" transform="translate(-454 -716.39)"/></svg>