<svg id="Layer_1" data-name="Layer 1" xmlns="http://www.w3.org/2000/svg" viewBox="0 0 144.63 139.13"><defs><style>.cls-1{fill:#3ccb5a;stroke-width:2px;}.cls-1,.cls-10,.cls-14,.cls-15{stroke:#52306c;stroke-miterlimit:10;}.cls-10,.cls-2{fill:#ffed43;}.cls-3{fill:#52306c;}.cls-12,.cls-4{fill:none;}.cls-4{stroke:#fff;stroke-linecap:round;stroke-linejoin:round;stroke-width:3px;opacity:0.4;isolation:isolate;}.cls-5,.cls-9{fill:#105b1c;}.cls-6{fill:#7dd376;}.cls-7,.cls-9{opacity:0.4;}.cls-14,.cls-8{fill:#ea4444;}.cls-11{fill:#ff9f9f;}.cls-11,.cls-17{opacity:0.5;}.cls-13{fill:#ffef92;opacity:0.75;}.cls-15,.cls-16{fill:#97cdf2;}.cls-17{fill:#ccedff;}</style></defs><title>dont-rush-perfection</title><rect class="cls-1" x="9.12" y="8.04" width="116.99" height="116.99" rx="12" ry="12"/><path class="cls-2" d="M603.53,4285.39a2.62,2.62,0,0,1-1.38-.34c-3.92-2.44-6-6.35-7.11-8.5-0.24-.47-0.44-0.81-0.61-1.08a23.09,23.09,0,0,1-3-15.07l0-.19,0.16-.12c0.37-.28,9-6.77,14.34-8.32l0.61-.18,0,0.63a41.31,41.31,0,0,0,10.21,25.22l0.51,0.58-0.74.23c-2.86.89-7.54,3.85-10.34,5.72-2.09,1.4-2.36,1.4-2.63,1.4h-0.07Z" transform="translate(-537.55 -4147.26)"/><path class="cls-3" d="M606.08,4252.26a42.26,42.26,0,0,0,10.33,25.62c-4.28,1.33-12.33,7.51-12.85,7.51h0a2.35,2.35,0,0,1-1.12-.52c-4.65-2.9-6.61-8.06-7.56-9.59a22.88,22.88,0,0,1-3-14.76s8.87-6.72,14.18-8.26m0.94-1.31-1.22.35c-5.43,1.58-14.14,8.12-14.51,8.4l-0.32.24-0.06.4a23.68,23.68,0,0,0,3.09,15.43c0.15,0.25.36,0.64,0.59,1.09,1.14,2.19,3.25,6.34,7.28,8.86a3.13,3.13,0,0,0,1.64.67h0l0.06-.09c0.43,0,.72-0.24,2.89-1.69,2.78-1.85,7.42-5,10.22-5.84l1.47-.47-1-1.16a40.81,40.81,0,0,1-10.09-24.92l-0.06-1.27h0Z" transform="translate(-537.55 -4147.26)"/><path class="cls-4" d="M555.38,4202.36v-3.9" transform="translate(-537.55 -4147.26)"/><path class="cls-5" d="M577.2,4218.89a1.24,1.24,0,0,0-1,2.06L595.85,4244a1.27,1.27,0,0,0,.91.45H597a1.26,1.26,0,0,0,.82-0.46l44-56.44a1.27,1.27,0,0,0-.12-1.69,1.38,1.38,0,0,0-1.71,0l-42.48,39.32a2,2,0,0,1-2,.4L577.59,4219A1.17,1.17,0,0,0,577.2,4218.89Z" transform="translate(-537.55 -4147.26)"/><path class="cls-6" d="M601,4217.39" transform="translate(-537.55 -4147.26)"/><g class="cls-7"><path class="cls-5" d="M626.16,4227.65A36.94,36.94,0,0,0,645,4217.43l-8.4-7.48c-5.46,3.14-10.88,2.07-16.4,4.35a4.39,4.39,0,0,0-1.71,1.17Z" transform="translate(-537.55 -4147.26)"/></g><path class="cls-8" d="M618.9,4211.42l0.24-.28a4.92,4.92,0,0,1,1.9-1.3,30.05,30.05,0,0,1,7.4-1.75c3.08-.45,6-0.87,8.94-2.57l0.31-.18,9.06,8.07-0.37.37a37.57,37.57,0,0,1-19.12,10.36l-0.34.07Z" transform="translate(-537.55 -4147.26)"/><path class="cls-3" d="M637.63,4205.95l8.4,7.48a37,37,0,0,1-18.87,10.22l-7.63-12.18a4.38,4.38,0,0,1,1.71-1.17c5.52-2.28,10.94-1.21,16.4-4.35m0.13-1.23-0.63.36c-2.88,1.66-5.74,2.07-8.77,2.51a30.42,30.42,0,0,0-7.52,1.78,5.41,5.41,0,0,0-2.09,1.44l-0.48.56,0.39,0.62,7.63,12.18,0.37,0.59,0.68-.14a38.07,38.07,0,0,0,19.38-10.5l0.74-.75-0.78-.7-8.4-7.48-0.54-.48h0Z" transform="translate(-537.55 -4147.26)"/><path class="cls-4" d="M555.38,4190.36v-17.9a8.48,8.48,0,0,1,8.45-8.45h29.9" transform="translate(-537.55 -4147.26)"/><path class="cls-9" d="M566.68,4193a41.06,41.06,0,0,0,19.64,5.76l-2.85-9.8c-5.77-1.55-9.45-5.62-14.85-7.73a4.58,4.58,0,0,0-1.9-.37Z" transform="translate(-537.55 -4147.26)"/><path class="cls-10" d="M566.54,4189.08a41.06,41.06,0,0,0,18.94,7.74l-1.84-10c-5.58-2.14-8.83-6.56-14-9.21a4.58,4.58,0,0,0-1.85-.57Z" transform="translate(-537.55 -4147.26)"/><path class="cls-11" d="M638.55,4219.23l-11.79-10.38-1.1.19,12.05,10.68Z" transform="translate(-537.55 -4147.26)"/><path class="cls-11" d="M630.69,4208.25l9.86,9.71c0.39-.26.78-0.52,1.16-0.8l-9-9.31C632,4208,631.35,4208.13,630.69,4208.25Z" transform="translate(-537.55 -4147.26)"/><path class="cls-12" d="M629.78,4174.79a12.45,12.45,0,0,1,1.81,4.52c2.74-1.25,7.16-.55,9.78-0.21,0.28-1.94-1.6-3.94-3.24-5a10.84,10.84,0,0,1-1.78-1.42l-0.43.07A17.43,17.43,0,0,0,629.78,4174.79Z" transform="translate(-537.55 -4147.26)"/><path class="cls-12" d="M650.27,4149.67c-2,.42-5.69.06-7.31-0.12-1.26-.13-2,1.74-3.13,2.42a6.11,6.11,0,0,0-2.91,5.3,6.72,6.72,0,0,0,3.21,5.5c-1.87,1.25-6.34.93-9.08,2.61a5.92,5.92,0,0,0-2.74,5.1c1.62-.61,3.23-1.26,4.81-2a32.33,32.33,0,0,1,3.59-1.19,15.51,15.51,0,0,1,7.54-4.12c0.11-.7-0.92-1.48-1.41-2-1.18-1.25-.42-3.07.75-4.33s2.81-2,4.22-2.95S650.48,4151.38,650.27,4149.67Z" transform="translate(-537.55 -4147.26)"/><g class="cls-7"><path class="cls-5" d="M597.15,4172.65a23.79,23.79,0,0,1,3.85-16.26H589.17a2.19,2.19,0,0,0-.58,1c-2.17,4.57-4.12,9.75-2.95,14.68Z" transform="translate(-537.55 -4147.26)"/></g><path class="cls-13" d="M600.56,4257.6c1.79-1.53,3.8-2.85,5.59-4.38,0-.32-0.05-0.64-0.07-1-5.31,1.54-14.18,8.24-14.18,8.24a20.6,20.6,0,0,0-.08,5.64A93.5,93.5,0,0,1,600.56,4257.6Z" transform="translate(-537.55 -4147.26)"/><path class="cls-13" d="M596.2,4277.75c0.27,0.5.58,1,.93,1.58q6.26-6.18,12.35-12.54-0.43-1-.81-2Z" transform="translate(-537.55 -4147.26)"/><path class="cls-14" d="M584.91,4169c3.79,0.66,6.58.32,10.37,1a25.17,25.17,0,0,1,9.05-18.83c-2.66-1.28-6.92-2.14-9.59-3.42,0,0-3.25.67-6,4.77-3,4.48-5.56,10.87-5.12,16.26Z" transform="translate(-537.55 -4147.26)"/><path class="cls-11" d="M588.61,4152.72c-0.54.8-1.06,1.63-1.55,2.48a82.61,82.61,0,0,1,8.88.9c1.16,0.2,2.34.43,3.52,0.56,0.18-.27.36-0.53,0.54-0.8C596.75,4154.93,592.17,4153.3,588.61,4152.72Z" transform="translate(-537.55 -4147.26)"/><path class="cls-9" d="M551.32,4228.71c3.83,3,8,6.28,8.81,11.09-1.11.61-3.21,1.59-4.32,2.19a10.05,10.05,0,0,0-4.46-7.37c-2.6-1.68-5.53-2.88-7.92-4.85a25.62,25.62,0,0,1-5.07-6.12,1,1,0,0,1,.05-1.53c0.55-.71,2.66-4.32,3.52-4.29,1.26,0,1.71,2.65,2.26,3.59C545.9,4224.39,548.68,4226.62,551.32,4228.71Z" transform="translate(-537.55 -4147.26)"/><path class="cls-15" d="M551.32,4226.71c3.83,3,8,6.46,8.81,11.27l-3.33,1.82c-0.42-3.07-2.85-5.49-5.45-7.18s-5.53-2.88-7.92-4.85a25.62,25.62,0,0,1-5.07-6.12,1,1,0,0,1,.05-1.53c0.55-.71,2.66-4.32,3.52-4.29,1.26,0,1.71,2.65,2.26,3.59C545.9,4222.39,548.68,4224.62,551.32,4226.71Z" transform="translate(-537.55 -4147.26)"/><polygon class="cls-9" points="119.95 61.03 116.23 61.48 122.68 69.64 125.1 69.38 125.1 61.13 119.95 61.03"/><path class="cls-10" d="M661.5,4215.49c5-.18,14.94-5.1,19.85-10.9L671,4200.53a28.9,28.9,0,0,1-15.28,7.36l-0.36.08Z" transform="translate(-537.55 -4147.26)"/><path class="cls-9" d="M648.33,4156.39s-3.57,1.45-4.07,2.94,1.85,2,1.83,3.5-3.15,2.52-5.52,4.16c-1.68,1.16-2.69,2.16-1.83,3.5,1.33,2.06,3.89,1.72,4.73,4.32s0,7.43,0,7.43-6.79-2.25-9.36-1.31c-1.45-1.6-3.32-6.72-3.43-9s6-6.09,8.82-7.46-0.66-3.4,0-4.35a37.28,37.28,0,0,0,1.89-3.68h6.93Z" transform="translate(-537.55 -4147.26)"/><path class="cls-9" d="M565.67,4206.1a19.59,19.59,0,0,0,2.34,11.23l-3.47.64a3,3,0,0,1-2.17-.15,2.75,2.75,0,0,1-.94-1.39,18,18,0,0,1-.92-9.7C561.14,4206.82,564.48,4206.08,565.67,4206.1Z" transform="translate(-537.55 -4147.26)"/><path class="cls-16" d="M631.1,4179.36a11,11,0,0,0-1.58-4,12.09,12.09,0,0,1-1.69-4.3,6.38,6.38,0,0,1,3-6.11,15.31,15.31,0,0,1,5.38-1.59,17.82,17.82,0,0,0,3-.66,7.42,7.42,0,0,1-2.7-5.42,6.58,6.58,0,0,1,3.16-5.74,5.07,5.07,0,0,0,1.07-1,3.13,3.13,0,0,1,2.19-1.46H643c0.88,0.09,2.93.31,4.78,0.31h0a12,12,0,0,0,2.38-.19l0.53-.11,0.07,0.54c0.28,2.35-1.78,4.08-2.69,4.71-0.48.34-1,.65-1.5,1a11.52,11.52,0,0,0-2.64,1.93c-1,1-1.73,2.61-.75,3.65a3.33,3.33,0,0,0,.44.35,2.69,2.69,0,0,1,1.12,1.26,1.08,1.08,0,0,1-.7,1.32c-3.46,1.17-5.75,2.5-7.42,4.31a3.79,3.79,0,0,0-1,1.5c-0.43,1.6,1.26,3.11,2.75,4.08,1.79,1.17,3.77,3.32,3.46,5.51l-0.07.49-1.11-.14a38.41,38.41,0,0,0-4.92-.42,9.61,9.61,0,0,0-4,.67l-0.63.29Z" transform="translate(-537.55 -4147.26)"/><path class="cls-3" d="M642.83,4149.54H643a48.4,48.4,0,0,0,4.83.31,12.67,12.67,0,0,0,2.48-.2c0.21,1.71-1.07,3.25-2.48,4.24s-3,1.69-4.22,2.95-1.93,3.08-.75,4.33c0.38,0.4,1.26.79,1.44,1.41a0.58,0.58,0,0,1-.39.7,18,18,0,0,0-7.63,4.44,4.2,4.2,0,0,0-1.08,1.71c-0.5,1.9,1.32,3.55,3,4.63s3.52,3.07,3.24,5a44.48,44.48,0,0,0-5.6-.5,10.28,10.28,0,0,0-4.18.71c-0.32-3-2.91-5.34-3.27-8.31a5.92,5.92,0,0,1,2.72-5.62c2.74-1.68,7.21-1.36,9.08-2.61a6.72,6.72,0,0,1-3.21-5.5,6.11,6.11,0,0,1,2.91-5.3c1.09-.65,1.83-2.42,3-2.42m8.3-1.08-1.07.23a11.62,11.62,0,0,1-2.27.18c-1.82,0-3.86-.22-4.73-0.31h-0.23a3.6,3.6,0,0,0-2.57,1.63,4.81,4.81,0,0,1-.95.93,7.08,7.08,0,0,0-3.4,6.19,8,8,0,0,0,2.21,5.18c-0.61.15-1.32,0.27-2,.39a15.69,15.69,0,0,0-5.56,1.66,6.89,6.89,0,0,0-3.19,6.59,12.47,12.47,0,0,0,1.75,4.48,10.6,10.6,0,0,1,1.52,3.82l0.15,1.38,1.26-.58a9.28,9.28,0,0,1,3.77-.62,38.06,38.06,0,0,1,4.86.41l0.62,0.08,1,0.12,0.14-1c0.35-2.42-1.77-4.74-3.68-6-1.11-.73-2.91-2.15-2.54-3.54a3.38,3.38,0,0,1,.85-1.28c1.62-1.74,3.85-3,7.22-4.17a1.59,1.59,0,0,0,1-1.94,3.12,3.12,0,0,0-1.31-1.52,3.62,3.62,0,0,1-.37-0.29c-1-1,.58-2.77.76-3a11.17,11.17,0,0,1,2.53-1.84c0.51-.3,1-0.62,1.53-1,2.06-1.45,3.12-3.33,2.9-5.18l-0.13-1.08h0Z" transform="translate(-537.55 -4147.26)"/><path class="cls-17" d="M628.3,4170.48c0,0.17,0,.35,0,0.52a10.74,10.74,0,0,0,1.46,3.8,17.43,17.43,0,0,1,6.15-2.07l0.43-.07a3.38,3.38,0,0,1-1.19-3.21,4.2,4.2,0,0,1,1.08-1.71c0.14-.15.29-0.29,0.44-0.44a32.33,32.33,0,0,0-3.59,1.19C631.53,4169.22,629.93,4169.87,628.3,4170.48Z" transform="translate(-537.55 -4147.26)"/><path class="cls-9" d="M638.85,4244c-2.27,3.64,1.77,7.31,2.08,7.27l4.1-.55a7.66,7.66,0,0,1-2.82-5.6A28.16,28.16,0,0,0,638.85,4244Z" transform="translate(-537.55 -4147.26)"/><path class="cls-15" d="M639.85,4242c-2.27,3.64,1.77,7.31,2.08,7.27l4.1-.55a7.66,7.66,0,0,1-2.82-5.6A28.16,28.16,0,0,0,639.85,4242Z" transform="translate(-537.55 -4147.26)"/><path class="cls-15" d="M566.67,4205.1a19.59,19.59,0,0,0,2.34,11.23l-3.47.64a3,3,0,0,1-2.17-.15,2.75,2.75,0,0,1-.94-1.39,18,18,0,0,1-.92-9.7C562.14,4205.82,565.48,4205.08,566.67,4205.1Z" transform="translate(-537.55 -4147.26)"/></svg>