<?xml version="1.0" encoding="utf-8"?>
<!-- Generator: Adobe Illustrator 19.2.1, SVG Export Plug-In . SVG Version: 6.00 Build 0)  -->
<svg version="1.1" id="Layer_1" xmlns="http://www.w3.org/2000/svg" xmlns:xlink="http://www.w3.org/1999/xlink" x="0px" y="0px"
	 viewBox="0 0 154 140" style="enable-background:new 0 0 154 140;" xml:space="preserve">
<style type="text/css">
	.st0{fill:#3CCB5A;stroke:#52306C;stroke-width:2;stroke-miterlimit:10;}
	.st1{opacity:0.4;fill:none;stroke:#FFFFFF;stroke-width:2;stroke-linecap:round;stroke-linejoin:round;enable-background:new    ;}
	.st2{fill:#105B1C;}
	.st3{fill:#7DD376;}
	.st4{fill:none;}
	.st5{fill:#FFED43;stroke:#52306C;stroke-miterlimit:10;}
	.st6{fill:#97CDF2;stroke:#52306C;stroke-miterlimit:10;}
	.st7{fill:#EA4444;stroke:#52306C;stroke-miterlimit:10;}
</style>
<title>dont-rush-perfection</title>
<path class="st0" d="M30.5,11.5h93c6.6,0,12,5.4,12,12v93c0,6.6-5.4,12-12,12h-93c-6.6,0-12-5.4-12-12v-93
	C18.5,16.9,23.9,11.5,30.5,11.5z"/>
<path class="st1" d="M27.2,58.6v-3.9"/>
<path class="st2" d="M49,75.1c-0.7,0-1.3,0.5-1.3,1.2c0,0.3,0.1,0.6,0.3,0.9l19.6,23c0.2,0.3,0.6,0.4,0.9,0.5h0.2
	c0.3,0,0.6-0.2,0.8-0.5l44-56.4c0.4-0.5,0.3-1.2-0.1-1.7c-0.5-0.4-1.2-0.4-1.7,0L69.3,81.4c-0.5,0.5-1.3,0.6-2,0.4l-17.9-6.6
	C49.3,75.1,49.2,75.1,49,75.1z"/>
<path class="st3" d="M72.8,73.6"/>
<path class="st1" d="M27.2,46.6V28.7c0-4.7,3.8-8.4,8.5-8.5h29.9"/>
<path class="st4" d="M101.6,31c0.9,1.4,1.5,2.9,1.8,4.5c2.7-1.2,7.2-0.5,9.8-0.2c0.3-1.9-1.6-3.9-3.2-5c-0.6-0.4-1.2-0.9-1.8-1.4
	l-0.4,0.1C105.6,29.2,103.5,29.9,101.6,31z"/>
<polygon class="st5" points="59.3,39.6 61.1,54.7 47.1,48.7 "/>
<rect x="96.3" y="107.5" transform="matrix(0.4675 -0.884 0.884 0.4675 -44.3548 149.6039)" class="st6" width="11.4" height="8.2"/>
<rect x="17.5" y="92.2" transform="matrix(0.7142 -0.7 0.7 0.7142 -64.4111 43.5165)" class="st5" width="7.1" height="16.8"/>
<polygon class="st5" points="151.1,90.2 147,110.1 124.2,104.2 128.3,84.3 "/>
<polygon class="st6" points="108.9,27.7 90.3,35.8 82.1,13.6 100.7,5.6 "/>
<polygon class="st6" points="72.5,122.5 75.3,137.6 64,128.5 61.3,113.4 "/>
<polygon class="st7" points="107.9,59.6 100.1,72.8 120.8,71.8 "/>
<polygon class="st7" points="32.3,32 34.8,45.3 15.2,37 12.6,23.6 "/>
</svg>
