<svg id="Layer_1" data-name="Layer 1" xmlns="http://www.w3.org/2000/svg" viewBox="0 0 143.94 166.79"><defs><style>.cls-1{fill:#ffed43;stroke:#52306c;stroke-miterlimit:10;}.cls-2{fill:#3ccb5a;}.cls-3{fill:#ea4444;}.cls-4{fill:#52306c;}.cls-5{fill:#fff;}</style></defs><title>one-click-containers</title><polyline class="cls-1" points="71.02 82.54 71.02 82.54 71.02 82.54 141.78 42.13 71.97 0.58 1 42.13"/><polygon class="cls-2" points="143.65 124.24 71.97 165.91 71.65 84.13 143.65 42.58 143.65 124.24"/><polygon class="cls-3" points="0.65 125.58 71.43 165.91 72.65 84.13 0.65 42.58 0.65 125.58"/><path class="cls-4" d="M637.32,1777.89l-72,41.55v83.1l72,41.56,72-41.55v-83.11Zm-0.21,164h0.41l-0.21.12Zm70.33-40.37-69.2,40v-80.61h-1.85v80.61l-69.2-40v-80l70.1,40,0.92-1.6-70-39.93L637.32,1780l69.09,39.89-70,39.93,0.92,1.6,70.15-40v80Z" transform="translate(-565.35 -1777.31)"/><rect class="cls-4" x="108.65" y="92.08" width="4" height="9"/><rect class="cls-4" x="123.65" y="112.08" width="9" height="4"/><rect class="cls-4" x="88.65" y="112.08" width="9" height="4"/><rect class="cls-4" x="662.9" y="1873.27" width="4" height="8.99" transform="translate(-1698.57 -756.79) rotate(-45.01)"/><rect class="cls-4" x="685.06" y="1875.77" width="8.99" height="4" transform="translate(-1690.81 -740.51) rotate(-44.98)"/><rect class="cls-4" x="660.41" y="1900.42" width="8.99" height="4" transform="translate(-1715.63 -750.34) rotate(-44.99)"/><polygon class="cls-5" points="120.77 144.94 109.2 155.69 109.03 109.5 141.5 142.34 125.88 142.88 133.28 159.89 128.23 162.08 120.77 144.94"/><path class="cls-4" d="M675.39,1889.26l29.14,29.48-14.81.51,7.58,17.44-3.22,1.4-7.62-17.53-10.93,10.16-0.15-41.46m-2-4.89,0,4.89,0.15,41.46,0,4.57,3.35-3.11,8.86-8.24,6.5,14.94,0.8,1.83,1.83-.8,3.22-1.4,1.83-.8-0.8-1.83-6.41-14.74,11.87-.41,4.57-.16-3.21-3.25-29.14-29.48-3.44-3.48h0Z" transform="translate(-565.35 -1777.31)"/></svg>