<svg id="Layer_1" data-name="Layer 1" xmlns="http://www.w3.org/2000/svg" viewBox="0 0 350.66 126"><defs><style>.cls-1{fill:#e4daef;}.cls-2{fill:#b82bed;}.cls-10,.cls-11,.cls-2,.cls-3,.cls-4,.cls-7,.cls-8{stroke:#52306c;}.cls-10,.cls-11,.cls-12,.cls-2,.cls-3,.cls-4,.cls-7,.cls-8{stroke-miterlimit:10;}.cls-12,.cls-3{fill:none;}.cls-4,.cls-5{fill:#bf977b;}.cls-6{fill:#52306c;}.cls-7{fill:#fff;}.cls-8{fill:#fff9eb;}.cls-9{fill:#0e1530;}.cls-10{fill:#ea4444;}.cls-11{fill:#ffed43;}.cls-12{stroke:#fff;stroke-linecap:round;}.cls-13{fill:#aaa;}</style></defs><title>reviewing-together</title><path class="cls-1" d="M91.1,0.15h16.45a0,0,0,0,1,0,0V126a0,0,0,0,1,0,0h-31a0,0,0,0,1,0,0V14.71A14.56,14.56,0,0,1,91.1.15Z"/><path class="cls-2" d="M488.29,3621.26c-8.73,0-16.38,1.49-20.77,4.65a27.26,27.26,0,0,0,41.54,0C504.68,3622.75,497,3621.26,488.29,3621.26Z" transform="translate(-448.95 -3576.39)"/><path class="cls-3" d="M480.9,3621.26v3.56c0,2.9,3.31,4.82,7.39,4.82h0c4.08,0,7.39-1.91,7.39-4.82v-3.56" transform="translate(-448.95 -3576.39)"/><path class="cls-4" d="M492.5,3618.79h-8.41v4.2c0,2.32,1.88,2.75,4.2,2.75h0c2.32,0,4.2-.43,4.2-2.75v-4.2Z" transform="translate(-448.95 -3576.39)"/><path class="cls-5" d="M488.29,3621.31c-6.82,0-12.22-5.48-14.16-11h0l-0.32,0a3.57,3.57,0,0,1-3.31-3.38,4.07,4.07,0,0,1,.61-2.71,3,3,0,0,1,2.17-1.38l0.24,0a15,15,0,0,1,29.58,0h0a3,3,0,0,1,2.16,1.38,4.07,4.07,0,0,1,.61,2.71,3.57,3.57,0,0,1-3.31,3.38h-0.15C500.5,3615.84,495.1,3621.31,488.29,3621.31Z" transform="translate(-448.95 -3576.39)"/><path class="cls-6" d="M488.29,3590.79a14.5,14.5,0,0,1,14.36,12.54h0.41a3,3,0,0,1,2.34,3.54,3.09,3.09,0,0,1-2.81,2.94h-0.26l-0.23-.05c-1.87,5.84-7.35,11.08-13.81,11.08s-12-5.25-13.83-11.12a2.28,2.28,0,0,1-.42.1h-0.26a3.09,3.09,0,0,1-2.81-2.94,3,3,0,0,1,2.34-3.54h0.23a2.52,2.52,0,0,1,.39,0,14.5,14.5,0,0,1,14.36-12.56m0-1a15.55,15.55,0,0,0-15.21,12.56,3.82,3.82,0,0,0-3.1,4.42,3.87,3.87,0,0,0,3.8,3.62h0c2.11,6,7.59,11.21,14.5,11.21s12.4-5.32,14.5-10.91a4.31,4.31,0,0,0,.72-8.33,15.53,15.53,0,0,0-15.22-12.58h0Z" transform="translate(-448.95 -3576.39)"/><path class="cls-6" d="M497.39,3597.87l2.17,5a0.89,0.89,0,0,0,.61.59l2.58,0.72a14.5,14.5,0,0,0-28.91.06l2.9-.79a0.89,0.89,0,0,0,.62-0.59l2.17-5,0.47-.81,4-2.17,5.37,1.69Z" transform="translate(-448.95 -3576.39)"/><path class="cls-6" d="M485.24,3597.31a10.1,10.1,0,0,1,2.07.81,9,9,0,0,0,5.15.57,6.43,6.43,0,0,1,2.28-.24c1.31,0.23,2.23,1.52,3.53,1.8a3.39,3.39,0,0,0,3.45-1.87,16.83,16.83,0,0,0,1.88-5.11c-1.73.83-4.51-.79-6.1-1.87-2.3-1.57-5.12-1-7.88-1.4a15,15,0,0,0-4.55-.18,5.06,5.06,0,0,0-3.71,2.38,4.92,4.92,0,0,1,0-2,1.36,1.36,0,0,0-1.36,2.31,4.36,4.36,0,0,0-2.09-.11,1.52,1.52,0,0,0-1.19,1.53,1.08,1.08,0,0,1,1.45.2,4.28,4.28,0,0,0-3.23,2.51,12.61,12.61,0,0,0-1,4.14c-0.12,1-.24,1.3-0.36,2.28-0.13-.38,1.06,0,1.47,0s-0.1.12-.15,0.52c1.32-.06,2.12-1.49,2.5-2.76s0.71-2.73,1.85-3.4,1.86,0.06,3,.17S484.18,3597.12,485.24,3597.31Z" transform="translate(-448.95 -3576.39)"/><g id="a"><path class="cls-6" d="M481.79,3612.18a6.78,6.78,0,0,0,1.17,1.35,8,8,0,0,0,2.43,1.49,6.57,6.57,0,0,0,5.8,0,8.2,8.2,0,0,0,2.44-1.49,6.78,6.78,0,0,0,1.17-1.35q0.1-.53-0.43-0.31a13.55,13.55,0,0,1-3.66,1.83,13.72,13.72,0,0,1-2.41.32,13.44,13.44,0,0,1-2.41-.32,13.78,13.78,0,0,1-3.68-1.83q-0.53-.22-0.42.31m4.93-5.4a5.26,5.26,0,0,0-.61-2.73,1.93,1.93,0,0,0-1.57-1.11h0a1.94,1.94,0,0,0-1.59,1.11,5.26,5.26,0,0,0-.61,2.73q0,1.21.48,0.61l0.58-.84a1.13,1.13,0,0,1,1.14-.64h0a1.12,1.12,0,0,1,1.12.64l0.58,0.84q0.48,0.59.48-.61m3.62,0.61,0.58-.84a1.15,1.15,0,0,1,1.14-.64h0a1.15,1.15,0,0,1,1.14.64l0.56,0.84q0.48,0.59.48-.61a5.26,5.26,0,0,0-.61-2.73,1.91,1.91,0,0,0-1.57-1.11h0a1.91,1.91,0,0,0-1.57,1.11,5.26,5.26,0,0,0-.61,2.73Q489.87,3608,490.34,3607.39Z" transform="translate(-448.95 -3576.39)"/></g><path class="cls-3" d="M739.46,3670.95c-0.71,3.53,4.69,7,11.46,7s12.06-3.57,11.48-7.05" transform="translate(-448.95 -3576.39)"/><path class="cls-7" d="M750.75,3669.85c-9.07,0-17,1.54-21.58,4.84a28.33,28.33,0,0,0,43.17,0C767.78,3671.39,759.82,3669.85,750.75,3669.85Z" transform="translate(-448.95 -3576.39)"/><path class="cls-3" d="M743.07,3669.85v3.7c0,3,3.44,5,7.68,5h0c4.24,0,7.68-2,7.68-5v-3.7" transform="translate(-448.95 -3576.39)"/><path class="cls-8" d="M755.12,3667.28h-8.74v4.37c0,2.41,2,2.86,4.37,2.86h0c2.41,0,4.37-.45,4.37-2.86v-4.37Z" transform="translate(-448.95 -3576.39)"/><path class="cls-8" d="M766.1,3651.21a2.36,2.36,0,0,0-.43,0,15.09,15.09,0,0,0-7.41-11c1.64-.79,3.12-1.58,3.12-1.58l-5.31.53-0.06,0a11,11,0,0,0,1.16-2.68c-0.94.77-4.45,1.58-5.32,1.78-0.36,0-.73-0.05-1.09-0.05a15.07,15.07,0,0,0-14.93,13.05,2.38,2.38,0,0,0-.64,0,3.43,3.43,0,0,0,.76,6.71,2.38,2.38,0,0,0,.43-0.1c1.93,6.1,7.64,11.52,14.37,11.52s12.41-5.4,14.36-11.47a2.31,2.31,0,0,0,.24.06A3.43,3.43,0,0,0,766.1,3651.21Z" transform="translate(-448.95 -3576.39)"/><path class="cls-9" d="M762.46,3650.71a0.93,0.93,0,0,0,.64.61l2.68,0.75a15.07,15.07,0,0,0-30,.07l3-.82a0.93,0.93,0,0,0,.64-0.62l2.26-5.17H760.2Z" transform="translate(-448.95 -3576.39)"/><g id="a-2" data-name="a"><path class="cls-6" d="M747.21,3661.86a3.32,3.32,0,0,0,1,2.46,3.5,3.5,0,0,0,2.52,1,3.43,3.43,0,0,0,2.5-1,3.4,3.4,0,0,0,0-4.92,3.43,3.43,0,0,0-2.5-1,3.5,3.5,0,0,0-2.52,1,3.32,3.32,0,0,0-1,2.46m0.13-8.49a2.3,2.3,0,0,0,.51-1.5,2.37,2.37,0,0,0-.51-1.52,1.55,1.55,0,0,0-2.48,0,2.37,2.37,0,0,0-.51,1.52,2.3,2.3,0,0,0,.51,1.5,1.52,1.52,0,0,0,2.48,0" transform="translate(-448.95 -3576.39)"/></g><path class="cls-6" d="M756.66,3653.38a2.3,2.3,0,0,0,.51-1.5,2.37,2.37,0,0,0-.51-1.52,1.55,1.55,0,0,0-2.48,0,2.37,2.37,0,0,0-.51,1.52,2.3,2.3,0,0,0,.51,1.5,1.52,1.52,0,0,0,2.48,0" transform="translate(-448.95 -3576.39)"/><path class="cls-9" d="M751.64,3638.27s4.45-.94,5.52-1.82a11.91,11.91,0,0,1-2.32,4.34Z" transform="translate(-448.95 -3576.39)"/><path class="cls-9" d="M755.42,3639.22l6-.6s-5.47,2.92-7,3.11S755.42,3639.22,755.42,3639.22Z" transform="translate(-448.95 -3576.39)"/><path class="cls-10" d="M460.77,3599.18l-0.26-.05a19.12,19.12,0,0,1-5.14-1.94c-3.55-2-5.58-4.81-5.89-8.19-0.38-4.14,2.32-6.57,5.18-6.83a5.33,5.33,0,0,1,4.74,2,5.34,5.34,0,0,1,4.3-2.83c2.86-.26,6,1.64,6.33,5.78,0.31,3.38-1.18,6.53-4.31,9.12a19.11,19.11,0,0,1-4.7,2.84Z" transform="translate(-448.95 -3576.39)"/><path class="cls-10" d="M513.56,3587.65l-0.12-.06a9.56,9.56,0,0,1-2.22-1.62,5.23,5.23,0,0,1-1.75-4.73,2.93,2.93,0,0,1,3.4-2.6,1.4,1.4,0,0,0,2.47,1.22,2.69,2.69,0,0,1,2-.41,2.93,2.93,0,0,1,2.28,3.63,5.23,5.23,0,0,1-3.29,3.82,9.56,9.56,0,0,1-2.64.74h-0.13Z" transform="translate(-448.95 -3576.39)"/><path class="cls-10" d="M503.67,3640l-0.16,0a12.13,12.13,0,0,1-3.13-1.52,6.64,6.64,0,0,1-3.25-5.51,3.72,3.72,0,0,1,3.66-4,3.38,3.38,0,0,1,2.88,1.54,3.38,3.38,0,0,1,2.88-1.54,3.72,3.72,0,0,1,3.66,4,6.64,6.64,0,0,1-3.25,5.51,12.12,12.12,0,0,1-3.13,1.52Z" transform="translate(-448.95 -3576.39)"/><path class="cls-11" d="M782.37,3615.75a16.73,16.73,0,1,0,16.73,16.73A16.73,16.73,0,0,0,782.37,3615.75Z" transform="translate(-448.95 -3576.39)"/><circle class="cls-6" cx="333.42" cy="63.93" r="2.26"/><path class="cls-6" d="M784.63,3634.07a2.26,2.26,0,1,1-4.52,0v-9.42a2.26,2.26,0,1,1,4.52,0v9.42Z" transform="translate(-448.95 -3576.39)"/><path class="cls-12" d="M782.3,3618.56a13.92,13.92,0,0,0-12.06,7m-1.53,3.91a14,14,0,0,0-.34,3.05" transform="translate(-448.95 -3576.39)"/><path class="cls-6" d="M543.17,3606.2H550v4.3h-6.8v-4.3Z" transform="translate(-448.95 -3576.39)"/><path class="cls-6" d="M543.17,3622.2H550v4.3h-6.8v-4.3Z" transform="translate(-448.95 -3576.39)"/><path class="cls-6" d="M543.17,3638.2H550v4.3h-6.8v-4.3Z" transform="translate(-448.95 -3576.39)"/><path class="cls-6" d="M543.17,3654.2H550v4.3h-6.8v-4.3Z" transform="translate(-448.95 -3576.39)"/><path class="cls-6" d="M543.17,3670.2H550v4.3h-6.8v-4.3Z" transform="translate(-448.95 -3576.39)"/><path class="cls-13" d="M567.17,3606.2h6.45v4.3h-6.45v-4.3Z" transform="translate(-448.95 -3576.39)"/><path class="cls-13" d="M573.42,3606.2h6.45v4.3h-6.45v-4.3Z" transform="translate(-448.95 -3576.39)"/><path class="cls-13" d="M579.67,3606.2h6.45v4.3h-6.45v-4.3Z" transform="translate(-448.95 -3576.39)"/><path class="cls-13" d="M585.92,3606.2h6.45v4.3h-6.45v-4.3Z" transform="translate(-448.95 -3576.39)"/><path class="cls-13" d="M592.17,3606.2h6.45v4.3h-6.45v-4.3Z" transform="translate(-448.95 -3576.39)"/><path class="cls-13" d="M598.42,3606.2h6.45v4.3h-6.45v-4.3Z" transform="translate(-448.95 -3576.39)"/><path class="cls-13" d="M604.67,3606.2h6.45v4.3h-6.45v-4.3Z" transform="translate(-448.95 -3576.39)"/><path class="cls-13" d="M610.92,3606.2h6.45v4.3h-6.45v-4.3Z" transform="translate(-448.95 -3576.39)"/><path class="cls-13" d="M617.17,3606.2h6.45v4.3h-6.45v-4.3Z" transform="translate(-448.95 -3576.39)"/><path class="cls-13" d="M636,3606.2h6.45v4.3H636v-4.3Z" transform="translate(-448.95 -3576.39)"/><path class="cls-13" d="M642.21,3606.2h6.45v4.3h-6.45v-4.3Z" transform="translate(-448.95 -3576.39)"/><path class="cls-13" d="M648.46,3606.2h6.45v4.3h-6.45v-4.3Z" transform="translate(-448.95 -3576.39)"/><path class="cls-13" d="M654.71,3606.2h6.45v4.3h-6.45v-4.3Z" transform="translate(-448.95 -3576.39)"/><path class="cls-13" d="M661,3606.2h6.45v4.3H661v-4.3Z" transform="translate(-448.95 -3576.39)"/><path class="cls-13" d="M567.17,3622.2h6.45v4.3h-6.45v-4.3Z" transform="translate(-448.95 -3576.39)"/><path class="cls-13" d="M573.42,3622.2h6.45v4.3h-6.45v-4.3Z" transform="translate(-448.95 -3576.39)"/><path class="cls-13" d="M579.67,3622.2h6.45v4.3h-6.45v-4.3Z" transform="translate(-448.95 -3576.39)"/><path class="cls-13" d="M585.92,3622.2h6.45v4.3h-6.45v-4.3Z" transform="translate(-448.95 -3576.39)"/><path class="cls-13" d="M592.17,3622.2h6.45v4.3h-6.45v-4.3Z" transform="translate(-448.95 -3576.39)"/><path class="cls-13" d="M598.42,3622.2h6.45v4.3h-6.45v-4.3Z" transform="translate(-448.95 -3576.39)"/><path class="cls-13" d="M579.71,3638.2h6.45v4.3h-6.45v-4.3Z" transform="translate(-448.95 -3576.39)"/><path class="cls-13" d="M586,3638.2h6.45v4.3H586v-4.3Z" transform="translate(-448.95 -3576.39)"/><path class="cls-13" d="M592.21,3638.2h6.45v4.3h-6.45v-4.3Z" transform="translate(-448.95 -3576.39)"/><path class="cls-13" d="M598.46,3638.2h6.45v4.3h-6.45v-4.3Z" transform="translate(-448.95 -3576.39)"/><path class="cls-13" d="M604.71,3638.2h6.45v4.3h-6.45v-4.3Z" transform="translate(-448.95 -3576.39)"/><path class="cls-13" d="M611,3638.2h6.45v4.3H611v-4.3Z" transform="translate(-448.95 -3576.39)"/><path class="cls-13" d="M579.71,3654.2h6.45v4.3h-6.45v-4.3Z" transform="translate(-448.95 -3576.39)"/><path class="cls-13" d="M586,3654.2h6.45v4.3H586v-4.3Z" transform="translate(-448.95 -3576.39)"/><path class="cls-13" d="M592.21,3654.2h6.45v4.3h-6.45v-4.3Z" transform="translate(-448.95 -3576.39)"/><path class="cls-13" d="M598.46,3654.2h6.45v4.3h-6.45v-4.3Z" transform="translate(-448.95 -3576.39)"/><path class="cls-13" d="M604.71,3654.2h6.45v4.3h-6.45v-4.3Z" transform="translate(-448.95 -3576.39)"/><path class="cls-13" d="M611,3654.2h6.45v4.3H611v-4.3Z" transform="translate(-448.95 -3576.39)"/><path class="cls-13" d="M617.21,3654.2h6.45v4.3h-6.45v-4.3Z" transform="translate(-448.95 -3576.39)"/><path class="cls-13" d="M623.46,3654.2h6.45v4.3h-6.45v-4.3Z" transform="translate(-448.95 -3576.39)"/><path class="cls-13" d="M567.17,3670.2h6.45v4.3h-6.45v-4.3Z" transform="translate(-448.95 -3576.39)"/><path class="cls-13" d="M573.42,3670.2h6.45v4.3h-6.45v-4.3Z" transform="translate(-448.95 -3576.39)"/><path class="cls-13" d="M579.67,3670.2h6.45v4.3h-6.45v-4.3Z" transform="translate(-448.95 -3576.39)"/><path class="cls-13" d="M585.92,3670.2h6.45v4.3h-6.45v-4.3Z" transform="translate(-448.95 -3576.39)"/><path class="cls-13" d="M592.17,3670.2h6.45v4.3h-6.45v-4.3Z" transform="translate(-448.95 -3576.39)"/><path class="cls-13" d="M598.42,3670.2h6.45v4.3h-6.45v-4.3Z" transform="translate(-448.95 -3576.39)"/><path class="cls-13" d="M617.21,3670.2h6.45v4.3h-6.45v-4.3Z" transform="translate(-448.95 -3576.39)"/><path class="cls-13" d="M623.46,3670.2h6.45v4.3h-6.45v-4.3Z" transform="translate(-448.95 -3576.39)"/><path class="cls-13" d="M629.71,3670.2h6.45v4.3h-6.45v-4.3Z" transform="translate(-448.95 -3576.39)"/><path class="cls-13" d="M636,3670.2h6.45v4.3H636v-4.3Z" transform="translate(-448.95 -3576.39)"/><path class="cls-13" d="M642.21,3670.2h6.45v4.3h-6.45v-4.3Z" transform="translate(-448.95 -3576.39)"/><path class="cls-13" d="M648.46,3670.2h6.45v4.3h-6.45v-4.3Z" transform="translate(-448.95 -3576.39)"/><path class="cls-13" d="M654.71,3670.2h6.45v4.3h-6.45v-4.3Z" transform="translate(-448.95 -3576.39)"/><path class="cls-13" d="M661,3670.2h6.45v4.3H661v-4.3Z" transform="translate(-448.95 -3576.39)"/></svg>