<svg id="Layer_1" data-name="Layer 1" xmlns="http://www.w3.org/2000/svg" viewBox="0 0 207.51 217.35"><defs><style>.cls-1{fill:#a47cce;}.cls-10,.cls-2,.cls-4{fill:none;}.cls-2,.cls-4,.cls-5,.cls-6,.cls-9{stroke:#52306c;}.cls-10,.cls-2,.cls-4,.cls-5,.cls-6,.cls-9{stroke-miterlimit:10;}.cls-2{stroke-width:2px;}.cls-3{fill:#97cdf2;}.cls-11,.cls-5{fill:#fff;}.cls-6,.cls-7{fill:#bf977b;}.cls-8{fill:#52306c;}.cls-9{fill:#b82bed;}.cls-10{stroke:#a47cce;stroke-linecap:round;opacity:0.5;}</style></defs><title>working-together</title><path class="cls-1" d="M734,2739.35v78.36a21.34,21.34,0,0,0,6.26,14.88l8.8,8.8H635.34a5.58,5.58,0,0,1-5.34-5.47v-96.57a5.14,5.14,0,0,1,5.34-5h93.8A4.74,4.74,0,0,1,734,2739.35Z" transform="translate(-543.96 -2639.05)"/><path class="cls-2" d="M734,2739.35v78.36a21.34,21.34,0,0,0,6.26,14.88l8.8,8.8H635.34a5.58,5.58,0,0,1-5.34-5.47v-96.57a5.14,5.14,0,0,1,5.34-5h93.8A4.74,4.74,0,0,1,734,2739.35Z" transform="translate(-543.96 -2639.05)"/><path class="cls-3" d="M561,2681v55.69a21.15,21.15,0,0,1-6.06,14.89l-8.6,8.8h98a5.84,5.84,0,0,0,5.61-5.48V2681a6,6,0,0,0-5.61-5.62H566.25C563.4,2675.39,561,2678.16,561,2681Z" transform="translate(-543.96 -2639.05)"/><path class="cls-2" d="M561,2681v55.69a21.15,21.15,0,0,1-6.06,14.89l-8.6,8.8h98a5.84,5.84,0,0,0,5.61-5.48V2681a6,6,0,0,0-5.61-5.62H566.25C563.4,2675.39,561,2678.16,561,2681Z" transform="translate(-543.96 -2639.05)"/><path class="cls-4" d="M667.85,2805.36c-0.91,4.52,6,8.92,14.66,8.92s15.43-4.57,14.69-9" transform="translate(-543.96 -2639.05)"/><path class="cls-5" d="M682.29,2804c-11.61,0-21.78,2-27.61,6.19a36.25,36.25,0,0,0,55.22,0C704.08,2805.93,693.9,2804,682.29,2804Z" transform="translate(-543.96 -2639.05)"/><path class="cls-4" d="M672.47,2804v4.74c0,3.86,4.4,6.4,9.83,6.4h0c5.43,0,9.83-2.54,9.83-6.4V2804" transform="translate(-543.96 -2639.05)"/><path class="cls-6" d="M687.88,2800.67H676.71v5.59c0,3.09,2.5,3.66,5.59,3.66h0c3.09,0,5.59-.57,5.59-3.66v-5.59Z" transform="translate(-543.96 -2639.05)"/><path class="cls-7" d="M682.29,2803.53c-9.11,0-16.24-7.15-18.72-14.35l-0.17,0-0.4,0a4.58,4.58,0,0,1-4.23-4.35c-0.3-2.64,1.29-5.1,3.55-5.36,0.12,0,.24-0.12.36-0.12h0.09a20.25,20.25,0,0,1,19.52-16.55,19.89,19.89,0,0,1,19.52,16.72c0.06,0,.12,0,0.17,0,2.26,0.26,3.69,2.63,3.39,5.27a4.83,4.83,0,0,1-4.39,4.36h-0.16C698.35,2796.39,691.38,2803.53,682.29,2803.53Z" transform="translate(-543.96 -2639.05)"/><path class="cls-8" d="M682.29,2763.44a19.28,19.28,0,0,1,19.09,16.68h0.55c2,0.23,3.38,2.33,3.11,4.7a4.1,4.1,0,0,1-3.73,3.91l-0.35,0a3,3,0,0,1-.3-0.07c-2.49,7.77-9.77,14.4-18.37,14.4s-15.91-6.65-18.39-14.45a3.06,3.06,0,0,1-.55.13l-0.35,0a4.1,4.1,0,0,1-3.73-3.91c-0.27-2.37,1.12-4.48,3.11-4.7l0.3,0a3.35,3.35,0,0,1,.51,0,19.28,19.28,0,0,1,19.1-16.7m0-1a20.34,20.34,0,0,0-19.95,16.67h-0.08a4.31,4.31,0,0,0-3.12,2,5.75,5.75,0,0,0-.87,3.82,5.08,5.08,0,0,0,4.73,4.79h0.23c3,8.34,10.9,14.31,19.06,14.31s16-6,19.05-14.3a5.08,5.08,0,0,0,4.69-4.79,5.75,5.75,0,0,0-.87-3.82,4.33,4.33,0,0,0-2.92-2,20.35,20.35,0,0,0-20-16.71h0Z" transform="translate(-543.96 -2639.05)"/><path class="cls-8" d="M694.38,2772.85l2.89,6.62a1.19,1.19,0,0,0,.81.79l3.43,1a19.27,19.27,0,0,0-38.43.08l3.86-1a1.19,1.19,0,0,0,.82-0.79l2.89-6.61" transform="translate(-543.96 -2639.05)"/><g id="a"><path class="cls-8" d="M688,2786.27a3.72,3.72,0,0,1,2,.28q1.65,0.45,1.76-.9a1.63,1.63,0,0,0-1.4-1.35,15.7,15.7,0,0,0-4.64-.13,1.75,1.75,0,0,0-1.33,1.52,0.89,0.89,0,0,0,.88,1,20.42,20.42,0,0,0,2.73-.45m-10.22,6.56q-1.44-.75-1,0.43a8.88,8.88,0,0,0,2.92,3.13,4.42,4.42,0,0,0,5.07-.39,7.35,7.35,0,0,0,2.38-3.13q0.21-1-1-.15a6.69,6.69,0,0,1-4.55,1.2,8.58,8.58,0,0,1-3.76-1.09m-1-11.13a1.8,1.8,0,0,0-1.48.86,3.63,3.63,0,0,0-.58,2.08,3.6,3.6,0,0,0,.58,2.06,1.8,1.8,0,0,0,1.48.86,1.7,1.7,0,0,0,1.44-.86,3.42,3.42,0,0,0,.62-2.06,3.45,3.45,0,0,0-.62-2.08,1.7,1.7,0,0,0-1.44-.86m-0.39-5.35q0.45-.6-0.52-1a1.23,1.23,0,0,0-.9,0,1.19,1.19,0,0,0-.24.11,8,8,0,0,0-5,5.15,1.37,1.37,0,0,0,0,.75q0.26,0.84,1,.09a12.5,12.5,0,0,1,2.53-3.11,8.06,8.06,0,0,1,2.3-1.55l0.17-.06a1.34,1.34,0,0,0,.73-0.41m17.13,6.23q2,0.77.71-.92a7.07,7.07,0,0,0-4.27-2.19,6.2,6.2,0,0,0-3.74.79q-1.14,1.29.6,1.18a9.05,9.05,0,0,1,5,.32Z" transform="translate(-543.96 -2639.05)"/></g><path class="cls-9" d="M605.29,2730.65c-8.73,0-16.38,1.49-20.77,4.65a27.26,27.26,0,0,0,41.54,0C621.68,2732.14,614,2730.65,605.29,2730.65Z" transform="translate(-543.96 -2639.05)"/><path class="cls-6" d="M609.5,2728.18h-8.41v4.2c0,2.32,1.88,2.75,4.2,2.75h0c2.32,0,4.2-.43,4.2-2.75v-4.2Z" transform="translate(-543.96 -2639.05)"/><path class="cls-7" d="M605.29,2730.7c-6.82,0-12.22-5.48-14.16-11h0l-0.31,0a3.57,3.57,0,0,1-3.31-3.38,3.52,3.52,0,0,1,2.78-4.09h0.25a15,15,0,0,1,29.58,0h0a3.52,3.52,0,0,1,2.78,4.09,3.57,3.57,0,0,1-3.31,3.38h-0.15C617.5,2725.23,612.1,2730.7,605.29,2730.7Z" transform="translate(-543.96 -2639.05)"/><path class="cls-8" d="M605.29,2700.18a14.5,14.5,0,0,1,14.36,12.54h0.41a3,3,0,0,1,2.34,3.54,3.09,3.09,0,0,1-2.81,2.94h-0.26l-0.23-.05c-1.87,5.84-7.35,11.08-13.81,11.08s-12-5.25-13.83-11.12a2.3,2.3,0,0,1-.42.1h-0.26a3.09,3.09,0,0,1-2.81-2.94,3,3,0,0,1,2.34-3.54h0.23a2.52,2.52,0,0,1,.39,0,14.5,14.5,0,0,1,14.36-12.56m0-1a15.55,15.55,0,0,0-15.21,12.56,3.5,3.5,0,0,0-2.4,1.59,4.85,4.85,0,0,0-.69,3.13,4.16,4.16,0,0,0,3.8,3.92h0c2.11,5,7.59,10.91,14.5,10.91s12.4-5.47,14.5-11.06a4.13,4.13,0,0,0,3.6-3.84,4.61,4.61,0,0,0-.69-3,3.53,3.53,0,0,0-2.19-1.56,15.56,15.56,0,0,0-15.22-12.61h0Z" transform="translate(-543.96 -2639.05)"/><path class="cls-8" d="M614.39,2707.26l2.17,5a0.89,0.89,0,0,0,.61.59l2.58,0.72a14.5,14.5,0,0,0-28.91.06l2.9-.79a0.89,0.89,0,0,0,.62-0.59l2.17-5,0.47-.81,4-2.17,5.37,1.69Z" transform="translate(-543.96 -2639.05)"/><path class="cls-8" d="M602.24,2706.7a10.1,10.1,0,0,1,2.07.81,9,9,0,0,0,5.15.57,6.43,6.43,0,0,1,2.28-.24c1.31,0.23,2.23,1.52,3.53,1.8a3.39,3.39,0,0,0,3.45-1.87,16.83,16.83,0,0,0,1.88-5.11c-1.73.83-4.51-.79-6.1-1.87-2.3-1.57-5.12-1-7.88-1.4a15,15,0,0,0-4.55-.18,5.06,5.06,0,0,0-3.71,2.38,4.92,4.92,0,0,1,0-2,1.36,1.36,0,0,0-1.36,2.31,4.36,4.36,0,0,0-2.09-.11,1.52,1.52,0,0,0-1.19,1.53,1.08,1.08,0,0,1,1.45.2,4.28,4.28,0,0,0-3.23,2.51,12.61,12.61,0,0,0-1,4.14c-0.12,1-.24,1.3-0.36,2.28-0.13-.38,1.06,0,1.47,0s-0.1.12-.15,0.52c1.32-.06,2.12-1.49,2.5-2.76s0.71-2.73,1.85-3.4,1.86,0.06,3,.17S601.18,2706.51,602.24,2706.7Z" transform="translate(-543.96 -2639.05)"/><g id="a-2" data-name="a"><path class="cls-8" d="M598.79,2721.57a6.78,6.78,0,0,0,1.17,1.35,8,8,0,0,0,2.43,1.49,6.57,6.57,0,0,0,5.8,0,8.2,8.2,0,0,0,2.44-1.49,6.78,6.78,0,0,0,1.17-1.35q0.1-.53-0.43-0.31a13.55,13.55,0,0,1-3.66,1.83,13.72,13.72,0,0,1-2.41.32,13.44,13.44,0,0,1-2.41-.32,13.78,13.78,0,0,1-3.68-1.83q-0.53-.22-0.42.31m4.93-5.4a5.26,5.26,0,0,0-.61-2.73,1.93,1.93,0,0,0-1.57-1.11h0a1.94,1.94,0,0,0-1.59,1.11,5.26,5.26,0,0,0-.61,2.73q0,1.21.48,0.61l0.58-.84a1.13,1.13,0,0,1,1.14-.64h0a1.12,1.12,0,0,1,1.12.64l0.58,0.84q0.48,0.59.48-.61m3.62,0.61,0.58-.84a1.15,1.15,0,0,1,1.14-.64h0a1.15,1.15,0,0,1,1.14.64l0.56,0.84q0.48,0.59.48-.61a5.26,5.26,0,0,0-.61-2.73,1.91,1.91,0,0,0-1.57-1.11h0a1.91,1.91,0,0,0-1.57,1.11,5.26,5.26,0,0,0-.61,2.73Q606.87,2717.38,607.34,2716.78Z" transform="translate(-543.96 -2639.05)"/></g><polygon class="cls-8" points="107.11 27.23 111.81 32.04 136.16 14.23 128.44 5.23 107.11 27.23"/><polygon class="cls-8" points="114.18 37.23 135.81 25.23 140.54 34.04 116.64 41.85 114.18 37.23"/><polygon class="cls-8" points="102.02 26.23 96.04 23.23 107.11 0 117.18 5.23 102.02 26.23"/><polyline class="cls-4" points="61.04 96.09 54.04 96.09 54.04 101.73 54.04 104.87"/><circle class="cls-8" cx="58.33" cy="100.48" r="1.41"/><line class="cls-4" x1="117.04" y1="167.73" x2="117.04" y2="176.73"/><line class="cls-4" x1="160.04" y1="167.73" x2="160.04" y2="176.73"/><path class="cls-10" d="M668.24,2772.05q-0.5.62-1,1.32" transform="translate(-543.96 -2639.05)"/><path class="cls-10" d="M679.54,2765.24a17.86,17.86,0,0,0-10.34,5.71" transform="translate(-543.96 -2639.05)"/><path class="cls-11" d="M600.85,2855.39a4.86,4.86,0,0,1-4.85-4.85v-54.3a4.86,4.86,0,0,1,4.85-4.85h28.31a3.47,3.47,0,0,1,2.43,1l15.4,15.4a3.42,3.42,0,0,1,1,2.43v40.31a4.86,4.86,0,0,1-4.85,4.85H600.85Z" transform="translate(-543.96 -2639.05)"/><path class="cls-8" d="M629.16,2792.39a2.43,2.43,0,0,1,1.73.72l15.4,15.4a2.43,2.43,0,0,1,.72,1.73v40.31a3.86,3.86,0,0,1-3.85,3.85H600.85a3.86,3.86,0,0,1-3.85-3.85v-54.3a3.86,3.86,0,0,1,3.85-3.85h28.31m0-2H600.85a5.85,5.85,0,0,0-5.85,5.85v54.3a5.85,5.85,0,0,0,5.85,5.85h42.29a5.85,5.85,0,0,0,5.85-5.85v-40.31a4.44,4.44,0,0,0-1.3-3.14l-15.4-15.4a4.44,4.44,0,0,0-3.14-1.3h0Z" transform="translate(-543.96 -2639.05)"/><path class="cls-8" d="M629.5,2791.47v16.16a2.26,2.26,0,0,0,2.26,2.26h16.55" transform="translate(-543.96 -2639.05)"/></svg>