<svg id="Layer_1" data-name="Layer 1" xmlns="http://www.w3.org/2000/svg" xmlns:xlink="http://www.w3.org/1999/xlink" viewBox="0 0 350.24 125.9"><defs><style>.cls-1,.cls-17,.cls-5{fill:none;}.cls-12,.cls-2{fill:#fff;}.cls-3{clip-path:url(#clip-path);}.cls-4{fill:#e4daef;}.cls-12,.cls-13,.cls-15,.cls-16,.cls-5,.cls-7,.cls-8{stroke:#52306c;}.cls-12,.cls-13,.cls-15,.cls-16,.cls-17,.cls-5,.cls-7,.cls-8{stroke-miterlimit:10;}.cls-6{fill:#738ee5;}.cls-7{fill:#b82bed;}.cls-8,.cls-9{fill:#bf977b;}.cls-10{fill:#52306c;}.cls-11{fill:#a47cce;}.cls-13{fill:#fff9eb;}.cls-14{fill:#0e1530;}.cls-15{fill:#ea4444;}.cls-16{fill:#ffed43;}.cls-17{stroke:#fff;stroke-linecap:round;}.cls-18{fill:#aaa;}</style><clipPath id="clip-path" transform="translate(-0.06 0.1)"><path class="cls-1" d="M265.3,100a15.58,15.58,0,0,1-4.8-11.3v-65a4.23,4.23,0,0,0-4.1-4.3H92.2a4.33,4.33,0,0,0-3.7,2.2,4.59,4.59,0,0,0-1,2.5V36.5a15.62,15.62,0,0,1-4.6,11.4l-6.6,6.5H87.6V103c0,2.3,2.5,3.4,4.7,3.4H272.2Z"/></clipPath></defs><title>reviewing-together</title><path id="SVGID" class="cls-2" d="M265.3,100a15.58,15.58,0,0,1-4.8-11.3v-65a4.23,4.23,0,0,0-4.1-4.3H92.2a4.33,4.33,0,0,0-3.7,2.2,4.59,4.59,0,0,0-1,2.5V36.5a15.62,15.62,0,0,1-4.6,11.4l-6.6,6.5H87.6V103c0,2.3,2.5,3.4,4.7,3.4H272.2Z" transform="translate(-0.06 0.1)"/><g class="cls-3"><path class="cls-4" d="M107.2,125.8h-31V14.5A14.62,14.62,0,0,1,90.8-.1h16.4V125.8Z" transform="translate(-0.06 0.1)"/></g><path id="SVGID-2" data-name="SVGID" class="cls-5" d="M265.3,100a15.58,15.58,0,0,1-4.8-11.3v-65a4.23,4.23,0,0,0-4.1-4.3H92.2a4.33,4.33,0,0,0-3.7,2.2,4.59,4.59,0,0,0-1,2.5V36.5a15.62,15.62,0,0,1-4.6,11.4l-6.6,6.5H87.6V103c0,2.3,2.5,3.4,4.7,3.4H272.2Z" transform="translate(-0.06 0.1)"/><circle id="SVGID-3" data-name="SVGID" class="cls-6" cx="38.94" cy="31.7" r="27.3"/><circle id="SVGID-4" data-name="SVGID" class="cls-5" cx="38.94" cy="31.7" r="27.3"/><path class="cls-7" d="M39,44.6c-8.7,0-16.4,1.5-20.8,4.7a27.33,27.33,0,0,0,41.6,0C55.4,46.1,47.7,44.6,39,44.6Z" transform="translate(-0.06 0.1)"/><path class="cls-5" d="M31.6,44.6v3.6c0,2.9,3.3,4.8,7.4,4.8h0c4.1,0,7.4-1.9,7.4-4.8V44.6" transform="translate(-0.06 0.1)"/><path class="cls-8" d="M43.2,42.2H34.8v4.2c0,2.3,1.9,2.8,4.2,2.8h0c2.3,0,4.2-.4,4.2-2.8V42.2Z" transform="translate(-0.06 0.1)"/><path class="cls-9" d="M39,44.7c-6.8,0-12.2-5.5-14.2-11H24.5a3.56,3.56,0,0,1-3.3-3.4c-0.2-2.1,1-3.9,2.8-4.1h0.2a15,15,0,0,1,29.6,0h0A3.15,3.15,0,0,1,56,27.6a4.17,4.17,0,0,1,.6,2.7,3.56,3.56,0,0,1-3.3,3.4H53.1C51.2,39.2,45.8,44.7,39,44.7Z" transform="translate(-0.06 0.1)"/><path class="cls-10" d="M39,14.2A14.64,14.64,0,0,1,53.4,26.7h0.5a3,3,0,0,1,2.3,3.5,3,3,0,0,1-2.8,2.9H53.1c-0.1,0-.2,0-0.2-0.1C51,39,45.5,44.2,39,44.2S27,38.9,25.2,33.1c-0.1,0-.3.1-0.4,0.1H24.5a3.11,3.11,0,0,1-2.8-2.9c-0.2-1.8.8-3.4,2.3-3.5h0.6A14.55,14.55,0,0,1,39,14.2m0-1A15.52,15.52,0,0,0,23.8,25.8a3.29,3.29,0,0,0-2.4,1.6,4.35,4.35,0,0,0-.7,2.9A3.91,3.91,0,0,0,24.5,34h0c2.1,6,7.6,11.1,14.5,11.1s12.4-5.4,14.5-11a4.07,4.07,0,0,0,3.6-3.8,4.11,4.11,0,0,0-2.9-4.6A15.37,15.37,0,0,0,39,13.2h0Z" transform="translate(-0.06 0.1)"/><path class="cls-10" d="M48.1,21.2l2.2,5a0.9,0.9,0,0,0,.6.6l2.6,0.7a14.55,14.55,0,0,0-29,.1l2.9-.8a0.9,0.9,0,0,0,.6-0.6l2.2-5,0.5-.8,4-2.2,5.4,1.7Z" transform="translate(-0.06 0.1)"/><path class="cls-10" d="M36,20.7a9,9,0,0,1,2.1.8,8.94,8.94,0,0,0,5.1.6,6,6,0,0,1,2.3-.2c1.3,0.2,2.2,1.5,3.5,1.8a3.16,3.16,0,0,0,3.4-1.9c0.6-1.3,1.8-3.7,1.9-5.1-1.7.8-4.5-.8-6.1-1.9-2.3-1.6-5.1-1-7.9-1.4a17,17,0,0,0-4.5-.2,4.77,4.77,0,0,0-3.7,2.4,6.7,6.7,0,0,1,0-2,1.47,1.47,0,0,0-1.7.6,1.38,1.38,0,0,0,.3,1.7,3.76,3.76,0,0,0-2.1-.1,1.49,1.49,0,0,0-1.2,1.5,1.23,1.23,0,0,1,1.5.2A4.09,4.09,0,0,0,25.7,20a14.48,14.48,0,0,0-1,4.1,18.46,18.46,0,0,1-.4,2.3c-0.1-.4,1.1,0,1.5,0s-0.1.1-.1,0.5c1.3-.1,2.1-1.5,2.5-2.8s0.7-2.7,1.8-3.4,1.9,0.1,3,.2S34.9,20.5,36,20.7Z" transform="translate(-0.06 0.1)"/><g id="a"><path class="cls-10" d="M32.5,35.6a4.56,4.56,0,0,0,1.2,1.3,10,10,0,0,0,2.4,1.5,8.17,8.17,0,0,0,2.9.7,6.48,6.48,0,0,0,2.9-.7,8.31,8.31,0,0,0,2.4-1.5,6.42,6.42,0,0,0,1.2-1.3c0.1-.4-0.1-0.5-0.4-0.3a12.49,12.49,0,0,1-3.7,1.8,8.75,8.75,0,0,1-2.4.3q-1.5-.15-2.4-0.3a13.77,13.77,0,0,1-3.7-1.8c-0.3-.2-0.5-0.1-0.4.3m4.9-5.4a5.4,5.4,0,0,0-.6-2.7,2.08,2.08,0,0,0-1.6-1.1h0a2.08,2.08,0,0,0-1.6,1.1,4.91,4.91,0,0,0-.6,2.7c0,0.8.2,1,.5,0.6l0.6-.8a1,1,0,0,1,1.1-.6h0a1.08,1.08,0,0,1,1.1.6l0.6,0.8c0.4,0.4.5,0.2,0.5-.6m3.7,0.6,0.6-.8a1,1,0,0,1,1.1-.6h0a1.08,1.08,0,0,1,1.1.6l0.6,0.8c0.3,0.4.5,0.2,0.5-.6a5.4,5.4,0,0,0-.6-2.7,2.08,2.08,0,0,0-1.6-1.1h0a2.08,2.08,0,0,0-1.6,1.1,5.4,5.4,0,0,0-.6,2.7C40.6,31,40.7,31.2,41.1,30.8Z" transform="translate(-0.06 0.1)"/></g><circle id="SVGID-5" data-name="SVGID" class="cls-11" cx="301.44" cy="79.7" r="28.4"/><circle id="SVGID-6" data-name="SVGID" class="cls-5" cx="301.44" cy="79.7" r="28.4"/><path class="cls-5" d="M290.2,94.3c-0.7,3.5,4.7,7,11.5,7s12.1-3.6,11.5-7.1" transform="translate(-0.06 0.1)"/><path class="cls-12" d="M301.5,93.2c-9.1,0-17,1.5-21.6,4.8a28.33,28.33,0,0,0,43.2,0C318.5,94.8,310.5,93.2,301.5,93.2Z" transform="translate(-0.06 0.1)"/><path class="cls-5" d="M293.8,93.2v3.7c0,3,3.4,5,7.7,5h0c4.2,0,7.7-2,7.7-5V93.2" transform="translate(-0.06 0.1)"/><path class="cls-13" d="M305.8,90.7h-8.7V95c0,2.4,2,2.9,4.4,2.9h0c2.4,0,4.4-.4,4.4-2.9V90.7h-0.1Z" transform="translate(-0.06 0.1)"/><path class="cls-13" d="M316.8,74.6h-0.4a15.13,15.13,0,0,0-7.4-11c1.6-.8,3.1-1.6,3.1-1.6l-5.3.5h-0.1a11.44,11.44,0,0,0,1.2-2.7c-0.9.8-4.4,1.6-5.3,1.8-0.4,0-.7-0.1-1.1-0.1a15.09,15.09,0,0,0-14.9,13.1H286c-1.6.2-2.6,1.8-2.4,3.7a3,3,0,0,0,3.2,3c0.1,0,.3-0.1.4-0.1,1.9,6.1,7.6,11.5,14.4,11.5S314,87.3,316,81.2c0.1,0,.2,0,0.2.1a3.1,3.1,0,0,0,3.2-3A3.31,3.31,0,0,0,316.8,74.6Z" transform="translate(-0.06 0.1)"/><path class="cls-14" d="M313.2,74.1a0.9,0.9,0,0,0,.6.6l2.7,0.7a15,15,0,0,0-30,.1l3-.8a0.9,0.9,0,0,0,.6-0.6l2.3-5.2H311Z" transform="translate(-0.06 0.1)"/><g id="a-2" data-name="a"><path class="cls-10" d="M297.9,85.2a3.54,3.54,0,0,0,6,2.5,3.39,3.39,0,0,0,0-5,3.62,3.62,0,0,0-5,0,4.17,4.17,0,0,0-1,2.5m0.2-8.5a2.5,2.5,0,0,0,0-3,1.5,1.5,0,0,0-2.4,0,2.5,2.5,0,0,0,0,3,1.56,1.56,0,0,0,1.2.6,1.41,1.41,0,0,0,1.2-.6" transform="translate(-0.06 0.1)"/></g><path class="cls-10" d="M307.4,76.7a2.5,2.5,0,0,0,0-3,1.5,1.5,0,0,0-2.4,0,2.5,2.5,0,0,0,0,3,1.56,1.56,0,0,0,1.2.6,1.41,1.41,0,0,0,1.2-.6" transform="translate(-0.06 0.1)"/><path class="cls-14" d="M302.4,61.6s4.4-.9,5.5-1.8a12.11,12.11,0,0,1-2.3,4.3Z" transform="translate(-0.06 0.1)"/><path class="cls-14" d="M306.1,62.6l6-.6s-5.5,2.9-7,3.1S306.1,62.6,306.1,62.6Z" transform="translate(-0.06 0.1)"/><path class="cls-15" d="M11.9,22.6l-0.3-.1a18,18,0,0,1-5.1-1.9C3,18.6.9,15.8,0.6,12.4,0.2,8.2,2.9,5.8,5.8,5.5A5.51,5.51,0,0,1,9.7,6.7a3.45,3.45,0,0,1,.8.9,3.59,3.59,0,0,1,.7-1,5.56,5.56,0,0,1,3.6-1.9c2.9-.3,6,1.6,6.3,5.8,0.3,3.4-1.2,6.5-4.3,9.1a16.8,16.8,0,0,1-4.7,2.8Z" transform="translate(-0.06 0.1)"/><path class="cls-15" d="M64.3,11H64.2A9.58,9.58,0,0,1,62,9.4a5.38,5.38,0,0,1-1.8-4.7,3,3,0,0,1,3.4-2.6,2.45,2.45,0,0,1,1.7,1.1c0.1,0.2.2,0.3,0.3,0.5a2.18,2.18,0,0,1,.5-0.4,2.82,2.82,0,0,1,2-.4,3,3,0,0,1,2.3,3.6,5,5,0,0,1-3.3,3.8,8.53,8.53,0,0,1-2.6.7H64.3Z" transform="translate(-0.06 0.1)"/><path class="cls-15" d="M54.4,63.4H54.2a11.83,11.83,0,0,1-3.1-1.5,6.75,6.75,0,0,1-3.2-5.5,3.71,3.71,0,0,1,3.7-4,3.1,3.1,0,0,1,2.4,1c0.2,0.2.3,0.4,0.5,0.6a2.65,2.65,0,0,1,.5-0.6,3.49,3.49,0,0,1,2.4-1,3.77,3.77,0,0,1,3.7,4,6.49,6.49,0,0,1-3.2,5.5,10,10,0,0,1-3.1,1.5H54.4Z" transform="translate(-0.06 0.1)"/><path class="cls-16" d="M333.1,39.1a16.7,16.7,0,1,0,16.7,16.7A16.73,16.73,0,0,0,333.1,39.1Z" transform="translate(-0.06 0.1)"/><circle class="cls-10" cx="333.04" cy="63.8" r="2.3"/><path class="cls-10" d="M335.4,57.4a2.33,2.33,0,0,1-2.3,2.3,2.26,2.26,0,0,1-2.3-2.3V48a2.33,2.33,0,0,1,2.3-2.3,2.26,2.26,0,0,1,2.3,2.3v9.4Z" transform="translate(-0.06 0.1)"/><path class="cls-17" d="M333,41.9a13.87,13.87,0,0,0-12.1,7m-1.5,3.9a15.53,15.53,0,0,0-.3,3.1" transform="translate(-0.06 0.1)"/><path class="cls-10" d="M93.9,29.6h6.8v4.3H93.9V29.6Z" transform="translate(-0.06 0.1)"/><path class="cls-10" d="M93.9,45.6h6.8v4.3H93.9V45.6Z" transform="translate(-0.06 0.1)"/><path class="cls-10" d="M93.9,61.6h6.8v4.3H93.9V61.6Z" transform="translate(-0.06 0.1)"/><path class="cls-10" d="M93.9,77.6h6.8v4.3H93.9V77.6Z" transform="translate(-0.06 0.1)"/><path class="cls-10" d="M93.9,93.6h6.8v4.3H93.9V93.6Z" transform="translate(-0.06 0.1)"/><path class="cls-18" d="M117.9,29.6h6.4v4.3h-6.4V29.6Z" transform="translate(-0.06 0.1)"/><path class="cls-18" d="M124.1,29.6h6.4v4.3h-6.4V29.6Z" transform="translate(-0.06 0.1)"/><path class="cls-18" d="M130.4,29.6h6.4v4.3h-6.4V29.6Z" transform="translate(-0.06 0.1)"/><path class="cls-18" d="M136.6,29.6H143v4.3h-6.4V29.6Z" transform="translate(-0.06 0.1)"/><path class="cls-18" d="M142.9,29.6h6.4v4.3h-6.4V29.6Z" transform="translate(-0.06 0.1)"/><path class="cls-18" d="M149.1,29.6h6.4v4.3h-6.4V29.6Z" transform="translate(-0.06 0.1)"/><path class="cls-18" d="M155.4,29.6h6.4v4.3h-6.4V29.6Z" transform="translate(-0.06 0.1)"/><path class="cls-18" d="M161.6,29.6H168v4.3h-6.4V29.6Z" transform="translate(-0.06 0.1)"/><path class="cls-18" d="M167.9,29.6h6.4v4.3h-6.4V29.6Z" transform="translate(-0.06 0.1)"/><path class="cls-18" d="M186.7,29.6h6.4v4.3h-6.4V29.6Z" transform="translate(-0.06 0.1)"/><path class="cls-18" d="M192.9,29.6h6.4v4.3h-6.4V29.6Z" transform="translate(-0.06 0.1)"/><path class="cls-18" d="M199.2,29.6h6.4v4.3h-6.4V29.6Z" transform="translate(-0.06 0.1)"/><path class="cls-18" d="M205.4,29.6h6.4v4.3h-6.4V29.6Z" transform="translate(-0.06 0.1)"/><path class="cls-18" d="M211.7,29.6h6.4v4.3h-6.4V29.6Z" transform="translate(-0.06 0.1)"/><path class="cls-18" d="M117.9,45.6h6.4v4.3h-6.4V45.6Z" transform="translate(-0.06 0.1)"/><path class="cls-18" d="M124.1,45.6h6.4v4.3h-6.4V45.6Z" transform="translate(-0.06 0.1)"/><path class="cls-18" d="M130.4,45.6h6.4v4.3h-6.4V45.6Z" transform="translate(-0.06 0.1)"/><path class="cls-18" d="M136.6,45.6H143v4.3h-6.4V45.6Z" transform="translate(-0.06 0.1)"/><path class="cls-18" d="M142.9,45.6h6.4v4.3h-6.4V45.6Z" transform="translate(-0.06 0.1)"/><path class="cls-18" d="M149.1,45.6h6.4v4.3h-6.4V45.6Z" transform="translate(-0.06 0.1)"/><path class="cls-18" d="M130.4,61.6h6.4v4.3h-6.4V61.6Z" transform="translate(-0.06 0.1)"/><path class="cls-18" d="M136.7,61.6h6.4v4.3h-6.4V61.6Z" transform="translate(-0.06 0.1)"/><path class="cls-18" d="M142.9,61.6h6.4v4.3h-6.4V61.6Z" transform="translate(-0.06 0.1)"/><path class="cls-18" d="M149.2,61.6h6.4v4.3h-6.4V61.6Z" transform="translate(-0.06 0.1)"/><path class="cls-18" d="M155.4,61.6h6.4v4.3h-6.4V61.6Z" transform="translate(-0.06 0.1)"/><path class="cls-18" d="M161.7,61.6h6.4v4.3h-6.4V61.6Z" transform="translate(-0.06 0.1)"/><path class="cls-18" d="M130.4,77.6h6.4v4.3h-6.4V77.6Z" transform="translate(-0.06 0.1)"/><path class="cls-18" d="M136.7,77.6h6.4v4.3h-6.4V77.6Z" transform="translate(-0.06 0.1)"/><path class="cls-18" d="M142.9,77.6h6.4v4.3h-6.4V77.6Z" transform="translate(-0.06 0.1)"/><path class="cls-18" d="M149.2,77.6h6.4v4.3h-6.4V77.6Z" transform="translate(-0.06 0.1)"/><path class="cls-18" d="M155.4,77.6h6.4v4.3h-6.4V77.6Z" transform="translate(-0.06 0.1)"/><path class="cls-18" d="M161.7,77.6h6.4v4.3h-6.4V77.6Z" transform="translate(-0.06 0.1)"/><path class="cls-18" d="M167.9,77.6h6.4v4.3h-6.4V77.6Z" transform="translate(-0.06 0.1)"/><path class="cls-18" d="M174.2,77.6h6.4v4.3h-6.4V77.6Z" transform="translate(-0.06 0.1)"/><path class="cls-18" d="M117.9,93.6h6.4v4.3h-6.4V93.6Z" transform="translate(-0.06 0.1)"/><path class="cls-18" d="M124.1,93.6h6.4v4.3h-6.4V93.6Z" transform="translate(-0.06 0.1)"/><path class="cls-18" d="M130.4,93.6h6.4v4.3h-6.4V93.6Z" transform="translate(-0.06 0.1)"/><path class="cls-18" d="M136.6,93.6H143v4.3h-6.4V93.6Z" transform="translate(-0.06 0.1)"/><path class="cls-18" d="M142.9,93.6h6.4v4.3h-6.4V93.6Z" transform="translate(-0.06 0.1)"/><path class="cls-18" d="M149.1,93.6h6.4v4.3h-6.4V93.6Z" transform="translate(-0.06 0.1)"/><path class="cls-18" d="M167.9,93.6h6.4v4.3h-6.4V93.6Z" transform="translate(-0.06 0.1)"/><path class="cls-18" d="M174.2,93.6h6.4v4.3h-6.4V93.6Z" transform="translate(-0.06 0.1)"/><path class="cls-18" d="M180.4,93.6h6.4v4.3h-6.4V93.6Z" transform="translate(-0.06 0.1)"/><path class="cls-18" d="M186.7,93.6h6.4v4.3h-6.4V93.6Z" transform="translate(-0.06 0.1)"/><path class="cls-18" d="M192.9,93.6h6.4v4.3h-6.4V93.6Z" transform="translate(-0.06 0.1)"/><path class="cls-18" d="M199.2,93.6h6.4v4.3h-6.4V93.6Z" transform="translate(-0.06 0.1)"/><path class="cls-18" d="M205.4,93.6h6.4v4.3h-6.4V93.6Z" transform="translate(-0.06 0.1)"/><path class="cls-18" d="M211.7,93.6h6.4v4.3h-6.4V93.6Z" transform="translate(-0.06 0.1)"/></svg>