<svg id="Layer_1" data-name="Layer 1" xmlns="http://www.w3.org/2000/svg" xmlns:xlink="http://www.w3.org/1999/xlink" viewBox="0 0 199.5 151"><defs><style>.cls-1,.cls-5{fill:none;}.cls-11,.cls-2{fill:#fff;}.cls-3{clip-path:url(#clip-path);}.cls-4{fill:#e4daef;}.cls-11,.cls-12,.cls-14,.cls-5{stroke:#52306c;stroke-miterlimit:10;}.cls-6{fill:#52306c;}.cls-7{fill:url(#linear-gradient);}.cls-8{fill:#a47cce;}.cls-9{fill:#aaa;}.cls-10{fill:url(#linear-gradient-2);}.cls-12,.cls-13{fill:#bf977b;}.cls-14{fill:#fff9eb;}.cls-15{fill:#0e1530;}</style><clipPath id="clip-path" transform="translate(0.1 -0.1)"><path class="cls-1" d="M114.8,124.3H4.9a4.48,4.48,0,0,1-4.5-4.5V31.6a4.48,4.48,0,0,1,4.5-4.5H119.4v92.7A4.57,4.57,0,0,1,114.8,124.3Z"/></clipPath><linearGradient id="linear-gradient" x1="64.6" y1="504.17" x2="64.6" y2="492.61" gradientTransform="translate(0 -408)" gradientUnits="userSpaceOnUse"><stop offset="0" stop-color="#834fab"/><stop offset="1" stop-color="#834fab"/></linearGradient><linearGradient id="linear-gradient-2" x1="95.4" y1="524.65" x2="160.07" y2="524.65" xlink:href="#linear-gradient"/></defs><title>code-reviews-runnable</title><path id="SVGID" class="cls-2" d="M114.8,124.3H4.9a4.48,4.48,0,0,1-4.5-4.5V31.6a4.48,4.48,0,0,1,4.5-4.5H119.4v92.7A4.57,4.57,0,0,1,114.8,124.3Z" transform="translate(0.1 -0.1)"/><g class="cls-3"><path class="cls-4" d="M15,124.3H0v-80A14.62,14.62,0,0,1,14.6,29.7H15v94.6Z" transform="translate(0.1 -0.1)"/></g><path id="SVGID-2" data-name="SVGID" class="cls-5" d="M114.8,124.3H4.9a4.48,4.48,0,0,1-4.5-4.5V31.6a4.48,4.48,0,0,1,4.5-4.5H119.4v92.7A4.57,4.57,0,0,1,114.8,124.3Z" transform="translate(0.1 -0.1)"/><path class="cls-6" d="M119.4,41.2H0.4V30.6a4.48,4.48,0,0,1,4.5-4.5H119.4V41.2Z" transform="translate(0.1 -0.1)"/><path class="cls-6" d="M5.6,52.3h4.5V56H5.6V52.3Z" transform="translate(0.1 -0.1)"/><path class="cls-6" d="M5.6,64.3h4.5V68H5.6V64.3Z" transform="translate(0.1 -0.1)"/><path class="cls-6" d="M5.6,76.3h4.5V80H5.6V76.3Z" transform="translate(0.1 -0.1)"/><path class="cls-6" d="M5.6,88.3h4.5V92H5.6V88.3Z" transform="translate(0.1 -0.1)"/><path class="cls-6" d="M5.6,101h4.5v3H5.6v-3Z" transform="translate(0.1 -0.1)"/><path class="cls-6" d="M5.6,113h4.5v3H5.6v-3Z" transform="translate(0.1 -0.1)"/><path class="cls-7" d="M97.3,96.2H31.9a3.59,3.59,0,0,1-3.6-3.6V88.2a3.59,3.59,0,0,1,3.6-3.6H97.3a3.59,3.59,0,0,1,3.6,3.6v4.4A3.59,3.59,0,0,1,97.3,96.2Z" transform="translate(0.1 -0.1)"/><path class="cls-2" d="M54.1,88.3h5.2V92H54.1V88.3Z" transform="translate(0.1 -0.1)"/><path class="cls-2" d="M53.4,88.3h4.5V92H53.4V88.3Z" transform="translate(0.1 -0.1)"/><path class="cls-2" d="M57.9,88.3H93.1V92H57.9V88.3Z" transform="translate(0.1 -0.1)"/><ellipse class="cls-8" cx="8.5" cy="34.8" rx="2.2" ry="2.3"/><ellipse class="cls-8" cx="19" cy="34.8" rx="2.2" ry="2.3"/><ellipse class="cls-8" cx="29.5" cy="34.8" rx="2.2" ry="2.3"/><path class="cls-9" d="M22.6,52.3h27V56h-27V52.3Z" transform="translate(0.1 -0.1)"/><path class="cls-9" d="M59,52.3H97.6V56H59V52.3Z" transform="translate(0.1 -0.1)"/><path class="cls-9" d="M22.4,64.3H35.5V68H22.4V64.3Z" transform="translate(0.1 -0.1)"/><path class="cls-9" d="M31.8,76.3H44.9V80H31.8V76.3Z" transform="translate(0.1 -0.1)"/><path class="cls-2" d="M31.6,88.3H45.1V92H31.6V88.3Z" transform="translate(0.1 -0.1)"/><path class="cls-9" d="M31.6,101H53.7v3H31.6v-3Z" transform="translate(0.1 -0.1)"/><path class="cls-9" d="M22.6,113H35.4v3H22.6v-3Z" transform="translate(0.1 -0.1)"/><path class="cls-9" d="M45.1,113H97.6v3H45.1v-3Z" transform="translate(0.1 -0.1)"/><path class="cls-10" d="M98.7,150.1c-1.5,0-3.3-.9-3.3-2.4V86.1c0-1.5,1.8-3,3.3-3h49.9a3,3,0,0,1,2.8,3v50a13.47,13.47,0,0,0,4,9.6l4.6,4.5H98.7v-0.1Z" transform="translate(0.1 -0.1)"/><path class="cls-6" d="M148.5,84.1c1.3,0,1.8.7,1.8,2v50a14.66,14.66,0,0,0,4.4,10.2l4,3.9h-60a2.35,2.35,0,0,1-2.3-2.4V86.1a2,2,0,0,1,2.3-2h49.7m0.1-1H98.7a3,3,0,0,0-3.3,3v61.6a3.42,3.42,0,0,0,3.3,3.4h62.6l-5.8-5.6a13.58,13.58,0,0,1-4.1-9.5V86a2.68,2.68,0,0,0-2.9-2.9h0Z" transform="translate(0.1 -0.1)"/><path class="cls-8" d="M134.7,37.2l4.7-4.7a13.76,13.76,0,0,0,4-9.8v-10a2.86,2.86,0,0,1,2.8-2.8h49.9a2.86,2.86,0,0,1,2.8,2.8V34.3a2.86,2.86,0,0,1-2.8,2.8l-61.4.1h0Z" transform="translate(0.1 -0.1)"/><path class="cls-6" d="M196.1,10.4a2.26,2.26,0,0,1,2.3,2.3V34.3a2.26,2.26,0,0,1-2.3,2.3H135.9l3.8-3.8a14.23,14.23,0,0,0,4.2-10.1v-10a2.26,2.26,0,0,1,2.3-2.3h49.9m0-1H146.2a3.33,3.33,0,0,0-3.3,3.3v10a13.33,13.33,0,0,1-3.9,9.4l-5.5,5.5h62.6a3.33,3.33,0,0,0,3.3-3.3V12.7a3.33,3.33,0,0,0-3.3-3.3h0Z" transform="translate(0.1 -0.1)"/><circle id="SVGID-3" data-name="SVGID" class="cls-8" cx="180.2" cy="131.7" r="18.8"/><circle id="SVGID-4" data-name="SVGID" class="cls-5" cx="180.2" cy="131.7" r="18.8"/><path class="cls-5" d="M172.6,141.6c-0.5,2.3,3.1,4.6,7.6,4.6s8-2.4,7.6-4.7" transform="translate(0.1 -0.1)"/><path class="cls-11" d="M180.1,140.8c-6,0-11.3,1-14.3,3.2a18.79,18.79,0,0,0,28.6,0C191.3,141.9,186.1,140.8,180.1,140.8Z" transform="translate(0.1 -0.1)"/><path class="cls-5" d="M175,140.8v2.5c0,2,2.3,3.3,5.1,3.3h0c2.8,0,5.1-1.3,5.1-3.3v-2.5" transform="translate(0.1 -0.1)"/><path class="cls-12" d="M182.9,139.1h-6V142c0,1.6,1.7,1.1,3.3,1.1h0.2c1.6,0,2.6.5,2.6-1.1v-2.9h-0.1Z" transform="translate(0.1 -0.1)"/><path class="cls-13" d="M180.1,141.3c-4.7,0-8.4-3.9-9.9-7.9h-0.1a2.6,2.6,0,0,1-2.4-2.5,3.44,3.44,0,0,1,.4-2,2.34,2.34,0,0,1,1.6-1h0.1a10.46,10.46,0,0,1,20.6.1,2.64,2.64,0,0,1,2,3,2.68,2.68,0,0,1-2.4,2.5C188.5,137.4,184.7,141.3,180.1,141.3Z" transform="translate(0.1 -0.1)"/><path class="cls-6" d="M180.1,119.8a10,10,0,0,1,9.9,8.6h0.3a2,2,0,0,1,1.6,2.4,2.06,2.06,0,0,1-1.9,2h-0.4c-1.3,4-5.1,7.9-9.5,7.9s-8.2-3.9-9.5-8c-0.1,0-.2.1-0.3,0.1h-0.2a2.06,2.06,0,0,1-1.9-2,2.1,2.1,0,0,1,1.6-2.4h0.5a9.78,9.78,0,0,1,9.8-8.6m0-1a10.93,10.93,0,0,0-10.7,8.7,3,3,0,0,0-1.7,1.2,3.72,3.72,0,0,0-.5,2.3,3.1,3.1,0,0,0,2.7,2.9c1.6,4,5.4,7.9,10.2,7.9s8.6-3.9,10.2-7.9a3.31,3.31,0,0,0,2.6-2.9,3.08,3.08,0,0,0-2-3.4,11.11,11.11,0,0,0-10.8-8.8h0Z" transform="translate(0.1 -0.1)"/><g id="a"><path class="cls-6" d="M177.5,134.9q-0.9-.45-0.6.3a4.85,4.85,0,0,0,1.7,1.8,2.57,2.57,0,0,0,3-.2A4.42,4.42,0,0,0,183,135c0.1-.4-0.1-0.4-0.6-0.1a4.15,4.15,0,0,1-2.7.7,4.39,4.39,0,0,1-2.2-.7m1.2-4.5a1,1,0,0,0-.8-0.9,8.17,8.17,0,0,0-2.7.1,0.94,0.94,0,0,0-.8.8c0,0.5.4,0.7,1,.5a2.17,2.17,0,0,1,1.2-.2,15.4,15.4,0,0,0,1.6.3,0.55,0.55,0,0,0,.5-0.6m3.5-.9a1.08,1.08,0,0,0-.8.9,0.55,0.55,0,0,0,.5.6,15.4,15.4,0,0,0,1.6-.3,2.17,2.17,0,0,1,1.2.2c0.6,0.2,1,0,1-.5a0.94,0.94,0,0,0-.8-0.8A8.17,8.17,0,0,0,182.2,129.5Z" transform="translate(0.1 -0.1)"/></g><path class="cls-6" d="M187.8,128.1a0.54,0.54,0,0,0,.4.4L190,129a10.3,10.3,0,0,0-10-9.6c-5.3,0-9.6,4.5-10,9.7l2-.5a0.54,0.54,0,0,0,.4-0.4l1.5-3.4h12.4Z" transform="translate(0.1 -0.1)"/><circle id="SVGID-5" data-name="SVGID" class="cls-8" cx="114.3" cy="19.3" r="18.8"/><circle id="SVGID-6" data-name="SVGID" class="cls-5" cx="114.3" cy="19.3" r="18.8"/><path class="cls-5" d="M106.7,29.2c-0.5,2.3,3.1,4.6,7.6,4.6s8-2.4,7.6-4.7" transform="translate(0.1 -0.1)"/><path class="cls-11" d="M114.2,28.4c-6,0-11.3,1-14.3,3.2a18.79,18.79,0,0,0,28.6,0C125.5,29.4,120.2,28.4,114.2,28.4Z" transform="translate(0.1 -0.1)"/><path class="cls-5" d="M109.1,28.4v2.5c0,2,2.3,3.3,5.1,3.3h0c2.8,0,5.1-1.3,5.1-3.3V28.4" transform="translate(0.1 -0.1)"/><path class="cls-14" d="M117.1,26.7h-5.8v2.9c0,1.6,1.3,1.9,2.9,1.9h0c1.6,0,2.9-.3,2.9-1.9V26.7Z" transform="translate(0.1 -0.1)"/><path class="cls-14" d="M124.4,16.1h-0.3a10,10,0,0,0-4.9-7.3c1.1-.5,2.1-1,2.1-1l-3.5.4h0c0.2-.6.5-1.2,0.7-1.9A16.13,16.13,0,0,1,115,7.5h-0.7a10,10,0,0,0-9.9,8.7H104a2,2,0,0,0-1.6,2.4,2.15,2.15,0,0,0,2.1,2,0.37,0.37,0,0,0,.3-0.1c1.3,4,5.1,8,9.5,8s8.2-3.9,9.5-7.9H124a2.08,2.08,0,0,0,2.1-2A2.27,2.27,0,0,0,124.4,16.1Z" transform="translate(0.1 -0.1)"/><path class="cls-15" d="M122,15.7a0.54,0.54,0,0,0,.4.4l1.8,0.5a10,10,0,0,0-20,.1l2-.5a0.54,0.54,0,0,0,.4-0.4l1.5-3.4h12.3Z" transform="translate(0.1 -0.1)"/><g id="a-2" data-name="a"><path class="cls-6" d="M111.9,23.1a2,2,0,0,0,.7,1.6,2.61,2.61,0,0,0,1.7.7,2.19,2.19,0,0,0,1.7-.7,2.18,2.18,0,0,0,0-3.2,2.61,2.61,0,0,0-1.7-.7,2.41,2.41,0,0,0-1.8.7,2.27,2.27,0,0,0-.6,1.6m0-5.6a1.82,1.82,0,0,0,0-2,1,1,0,0,0-1.6,0,1.82,1.82,0,0,0,0,2,1,1,0,0,0,1.6,0" transform="translate(0.1 -0.1)"/></g><path class="cls-6" d="M118.1,17.5a1.82,1.82,0,0,0,0-2,1,1,0,0,0-1.6,0,1.82,1.82,0,0,0,0,2,1,1,0,0,0,1.6,0" transform="translate(0.1 -0.1)"/><path class="cls-15" d="M114.8,7.5a15.12,15.12,0,0,0,3.7-1.2A9,9,0,0,1,117,9.2Z" transform="translate(0.1 -0.1)"/><path class="cls-15" d="M117.3,8.1l4-.4a35.78,35.78,0,0,1-4.6,2.1C115.6,9.9,117.3,8.1,117.3,8.1Z" transform="translate(0.1 -0.1)"/><path class="cls-8" d="M129.1,92.5h7.7v5.2h-7.7V92.5Z" transform="translate(0.1 -0.1)"/><path class="cls-8" d="M101.5,92.5h13.8v5.2H101.5V92.5Z" transform="translate(0.1 -0.1)"/><path class="cls-8" d="M101.5,106.9h19.9v5.2H101.5v-5.2Z" transform="translate(0.1 -0.1)"/><path class="cls-8" d="M101.5,121.3h16v5.2h-16v-5.2Z" transform="translate(0.1 -0.1)"/><path class="cls-8" d="M121.6,121.3h22.7v5.2H121.6v-5.2Z" transform="translate(0.1 -0.1)"/><path class="cls-8" d="M101.5,135.7H129v5.2H101.5v-5.2Z" transform="translate(0.1 -0.1)"/><path class="cls-6" d="M153.4,21.6h30v5h-30v-5Z" transform="translate(0.1 -0.1)"/></svg>