<?xml version="1.0" encoding="utf-8"?>
<!-- Generator: Adobe Illustrator 19.2.1, SVG Export Plug-In . SVG Version: 6.00 Build 0)  -->
<svg version="1.1" id="Layer_1" xmlns="http://www.w3.org/2000/svg" xmlns:xlink="http://www.w3.org/1999/xlink" x="0px" y="0px"
	 viewBox="0 0 199.4 151" style="enable-background:new 0 0 199.4 151;" xml:space="preserve">
<style type="text/css">
	.st0{fill:#FFFFFF;}
	.st1{clip-path:url(#SVGID_8_);fill:#E4DAEF;}
	.st2{fill:none;stroke:#52306C;stroke-miterlimit:10;}
	.st3{fill:#52306C;}
	.st4{fill:url(#SVGID_9_);}
	.st5{fill:#A47CCE;}
	.st6{fill:#AAAAAA;}
	.st7{fill:url(#SVGID_10_);}
	.st8{fill:#FFFFFF;stroke:#52306C;stroke-miterlimit:10;}
	.st9{fill:#BF977B;stroke:#52306C;stroke-miterlimit:10;}
	.st10{fill:#BF977B;}
	.st11{fill:#FFF9EB;stroke:#52306C;stroke-miterlimit:10;}
	.st12{fill:#0E1530;}
</style>
<title>code-reviews-runnable</title>
<g>
	<g>
		<g>
			<g>
				<g>
					<path id="SVGID_1_" class="st0" d="M114.8,124.3H4.9c-2.5,0-4.5-2-4.5-4.5V31.6c0-2.5,2-4.5,4.5-4.5h114.5v92.7
						C119.4,122.3,117.3,124.3,114.8,124.3z"/>
				</g>
				<g>
					<defs>
						<path id="SVGID_6_" d="M114.8,124.3H4.9c-2.5,0-4.5-2-4.5-4.5V31.6c0-2.5,2-4.5,4.5-4.5h114.5v92.7
							C119.4,122.3,117.3,124.3,114.8,124.3z"/>
					</defs>
					<clipPath id="SVGID_8_">
						<use xlink:href="#SVGID_6_"  style="overflow:visible;"/>
					</clipPath>
					<path class="st1" d="M15,124.3H0v-80c0-8,6.5-14.6,14.6-14.6H15V124.3z"/>
				</g>
				<g>
					<path id="SVGID_2_" class="st2" d="M114.8,124.3H4.9c-2.5,0-4.5-2-4.5-4.5V31.6c0-2.5,2-4.5,4.5-4.5h114.5v92.7
						C119.4,122.3,117.3,124.3,114.8,124.3z"/>
				</g>
			</g>
			<path class="st3" d="M119.4,41.2H0.4V30.6c0-2.5,2-4.5,4.5-4.5h114.5V41.2z"/>
			<g>
				<g>
					<path class="st3" d="M5.6,52.3h4.5V56H5.6V52.3z"/>
					<path class="st3" d="M5.6,64.3h4.5V68H5.6V64.3z"/>
					<path class="st3" d="M5.6,76.3h4.5V80H5.6V76.3z"/>
					<path class="st3" d="M5.6,88.3h4.5V92H5.6V88.3z"/>
					<path class="st3" d="M5.6,101h4.5v3H5.6V101z"/>
					<path class="st3" d="M5.6,113h4.5v3H5.6V113z"/>
				</g>
			</g>
		</g>
		<g>
			
				<linearGradient id="SVGID_9_" gradientUnits="userSpaceOnUse" x1="64.6" y1="55.8336" x2="64.6" y2="67.3877" gradientTransform="matrix(1 0 0 -1 0 152)">
				<stop  offset="0" style="stop-color:#834FAB"/>
				<stop  offset="1" style="stop-color:#834FAB"/>
			</linearGradient>
			<path class="st4" d="M97.3,96.2H31.9c-2,0-3.6-1.6-3.6-3.6v-4.4c0-2,1.6-3.6,3.6-3.6h65.4c2,0,3.6,1.6,3.6,3.6v4.4
				C100.9,94.6,99.3,96.2,97.3,96.2z"/>
		</g>
		<g>
			<path class="st0" d="M54.1,88.3h5.2V92h-5.2V88.3z"/>
			<path class="st0" d="M53.4,88.3h4.5V92h-4.5V88.3z"/>
			<path class="st0" d="M57.9,88.3h35.2V92H57.9C57.9,92,57.9,88.3,57.9,88.3z"/>
		</g>
		<ellipse class="st5" cx="8.4" cy="34.9" rx="2.2" ry="2.3"/>
		<ellipse class="st5" cx="18.9" cy="34.9" rx="2.2" ry="2.3"/>
		<ellipse class="st5" cx="29.4" cy="34.9" rx="2.2" ry="2.3"/>
	</g>
</g>
<path class="st6" d="M22.6,52.3h27V56h-27C22.6,56,22.6,52.3,22.6,52.3z"/>
<path class="st6" d="M59,52.3h38.6V56H59V52.3z"/>
<path class="st6" d="M22.4,64.3h13.1V68H22.4V64.3z"/>
<path class="st6" d="M31.8,76.3h13.1V80H31.8V76.3z"/>
<path class="st0" d="M31.6,88.3h13.5V92H31.6V88.3z"/>
<path class="st6" d="M31.6,101h22.1v3H31.6V101z"/>
<path class="st6" d="M22.6,113h12.8v3H22.6V113z"/>
<path class="st6" d="M45.1,113h52.5v3H45.1V113z"/>
<g>
	<g>
		<g>
			
				<linearGradient id="SVGID_10_" gradientUnits="userSpaceOnUse" x1="95.4" y1="35.35" x2="160.0748" y2="35.35" gradientTransform="matrix(1 0 0 -1 0 152)">
				<stop  offset="0" style="stop-color:#834FAB"/>
				<stop  offset="1" style="stop-color:#834FAB"/>
			</linearGradient>
			<path class="st7" d="M98.7,150.1c-1.5,0-3.3-0.9-3.3-2.4V86.1c0-1.5,1.8-3,3.3-3h49.9c1.5,0,2.8,1.4,2.8,3v50
				c0,3.7,1.4,6.9,4,9.6l4.6,4.5H98.7V150.1z"/>
			<path class="st3" d="M148.5,84.1c1.3,0,1.8,0.7,1.8,2v50c0,3.8,1.7,7.5,4.4,10.2l4,3.9h-7H147H98.7c-1.3,0-2.3-1.1-2.3-2.4V86.1
				c0-1.3,1-2,2.3-2h49.7 M148.5,83.1H98.7c-1.8,0-3.3,1.1-3.3,3v61.6c0,1.8,1.5,3.4,3.3,3.4h48.5h4.7h9.4l-5.8-5.6
				c-2.5-2.5-4.1-5.9-4.1-9.5V86C151.4,84.3,150.4,83.1,148.5,83.1L148.5,83.1z"/>
		</g>
	</g>
</g>
<g>
	<g>
		<path class="st5" d="M134.7,37.2l4.7-4.7c2.6-2.6,4-6.1,4-9.8v-10c0-1.5,1.3-2.8,2.8-2.8h49.9c1.5,0,2.8,1.3,2.8,2.8v21.6
			c0,1.5-1.3,2.8-2.8,2.8L134.7,37.2L134.7,37.2z"/>
		<path class="st3" d="M196.1,10.4c1.3,0,2.3,1,2.3,2.3v21.6c0,1.3-1,2.3-2.3,2.3h-48.5h-4.7h-7l3.8-3.8c2.7-2.7,4.2-6.3,4.2-10.1
			v-10c0-1.3,1-2.3,2.3-2.3L196.1,10.4 M196.1,9.4h-49.9c-1.8,0-3.3,1.5-3.3,3.3v10c0,3.5-1.4,6.9-3.9,9.4l-5.5,5.5h9.4h4.7h48.5
			c1.8,0,3.3-1.5,3.3-3.3V12.7C199.4,10.9,197.9,9.4,196.1,9.4L196.1,9.4z"/>
	</g>
</g>
<g>
	<g>
		<g>
			<g>
				<circle id="SVGID_5_" class="st5" cx="180.1" cy="131.8" r="18.8"/>
			</g>
			<g>
				<circle id="SVGID_3_" class="st2" cx="180.1" cy="131.8" r="18.8"/>
			</g>
		</g>
	</g>
	<path class="st2" d="M172.6,141.6c-0.5,2.3,3.1,4.6,7.6,4.6c4.4,0,8-2.4,7.6-4.7"/>
	<path class="st8" d="M180.1,140.8c-6,0-11.3,1-14.3,3.2c3.5,4,8.6,6.6,14.3,6.6s10.9-2.6,14.3-6.6
		C191.3,141.9,186.1,140.8,180.1,140.8z"/>
	<path class="st2" d="M175,140.8v2.5c0,2,2.3,3.3,5.1,3.3l0,0c2.8,0,5.1-1.3,5.1-3.3v-2.5"/>
	<path class="st9" d="M182.9,139.1h-6v2.9c0,1.6,1.7,1.1,3.3,1.1h0.2c1.6,0,2.6,0.5,2.6-1.1v-2.9H182.9z"/>
	<g>
		<path class="st10" d="M180.1,141.3c-4.7,0-8.4-3.9-9.9-7.9h-0.1c-1.2,0-2.3-1.1-2.4-2.5c-0.1-0.7,0.1-1.4,0.4-2
			c0.4-0.6,1-0.9,1.6-1c0,0,0,0,0.1,0c0.9-5,5.2-8.6,10.3-8.6s9.4,3.7,10.3,8.7c1.3,0.2,2.1,1.5,2,3c-0.2,1.4-1.2,2.5-2.4,2.5
			C188.5,137.4,184.7,141.3,180.1,141.3z"/>
		<path class="st3" d="M180.1,119.8c5.1,0,9.2,3.8,9.9,8.6c0.1,0,0.1,0,0.2,0h0.1c1,0.1,1.8,1.2,1.6,2.4c-0.1,1.2-1,2-1.9,2
			c-0.1,0-0.1,0-0.2,0c-0.1,0-0.1,0-0.2,0c-1.3,4-5.1,7.9-9.5,7.9c-4.5,0-8.2-3.9-9.5-8c-0.1,0-0.2,0.1-0.3,0.1s-0.1,0-0.2,0
			c-1,0-1.8-0.9-1.9-2c-0.1-1.2,0.6-2.3,1.6-2.4c0.1,0,0.1,0,0.2,0c0.1,0,0.2,0,0.3,0C170.8,123.6,175,119.8,180.1,119.8
			 M180.1,118.8c-5.2,0-9.7,3.7-10.7,8.7c-0.7,0.2-1.3,0.6-1.7,1.2c-0.4,0.7-0.6,1.5-0.5,2.3c0.2,1.6,1.3,2.8,2.7,2.9
			c1.6,4,5.4,7.9,10.2,7.9s8.6-3.9,10.2-7.9c1.3-0.2,2.4-1.4,2.6-2.9c0.2-1.6-0.7-3-2-3.4C189.8,122.5,185.3,118.8,180.1,118.8
			L180.1,118.8z"/>
	</g>
	<g transform="matrix( 1, 0, 0, 1, 0,0) ">
		<g>
			<g id="a_2_">
				<path class="st3" d="M177.5,134.9c-0.6-0.3-0.8-0.2-0.6,0.3c0.4,0.7,0.9,1.3,1.7,1.8c1,0.6,2,0.5,3-0.2c0.7-0.6,1.2-1.2,1.4-1.8
					c0.1-0.4-0.1-0.4-0.6-0.1c-0.6,0.5-1.5,0.7-2.7,0.7C178.9,135.6,178.2,135.3,177.5,134.9 M178.7,130.4c-0.1-0.5-0.3-0.8-0.8-0.9
					c-0.9-0.1-1.8-0.1-2.7,0.1c-0.5,0.2-0.8,0.4-0.8,0.8c0,0.5,0.4,0.7,1,0.5c0.3-0.2,0.7-0.2,1.2-0.2c0.9,0.2,1.5,0.3,1.6,0.3
					C178.6,130.9,178.7,130.7,178.7,130.4 M182.2,129.5c-0.4,0.1-0.7,0.4-0.8,0.9c0,0.3,0.1,0.5,0.5,0.6c0.1,0,0.7-0.1,1.6-0.3
					c0.5,0,0.9,0,1.2,0.2c0.6,0.2,1,0,1-0.5c0-0.4-0.3-0.6-0.8-0.8C184,129.4,183.1,129.4,182.2,129.5z"/>
			</g>
		</g>
	</g>
	<g>
		<path class="st3" d="M187.8,128.1c0.1,0.2,0.2,0.4,0.4,0.4l1.8,0.5c-0.4-5.2-4.7-9.6-10-9.6s-9.6,4.5-10,9.7l2-0.5
			c0.2-0.1,0.4-0.2,0.4-0.4l1.5-3.4h12.4L187.8,128.1z"/>
	</g>
</g>
<g>
	<g>
		<g>
			<circle id="SVGID_7_" class="st5" cx="114.2" cy="19.4" r="18.8"/>
		</g>
		<g>
			<circle id="SVGID_4_" class="st2" cx="114.2" cy="19.4" r="18.8"/>
		</g>
	</g>
</g>
<path class="st2" d="M106.7,29.2c-0.5,2.3,3.1,4.6,7.6,4.6c4.4,0,8-2.4,7.6-4.7"/>
<path class="st8" d="M114.2,28.4c-6,0-11.3,1-14.3,3.2c3.5,4,8.6,6.6,14.3,6.6s10.9-2.6,14.3-6.6C125.5,29.4,120.2,28.4,114.2,28.4z
	"/>
<path class="st2" d="M109.1,28.4v2.5c0,2,2.3,3.3,5.1,3.3l0,0c2.8,0,5.1-1.3,5.1-3.3v-2.5"/>
<path class="st11" d="M117.1,26.7h-5.8v2.9c0,1.6,1.3,1.9,2.9,1.9l0,0c1.6,0,2.9-0.3,2.9-1.9V26.7z"/>
<path class="st11" d="M124.4,16.1c-0.1,0-0.2,0-0.3,0c-0.4-3.1-2.3-5.8-4.9-7.3c1.1-0.5,2.1-1,2.1-1l-3.5,0.4l0,0
	c0.2-0.6,0.5-1.2,0.7-1.9c-0.6,0.5-2.9,1-3.5,1.2c-0.2,0-0.5,0-0.7,0c-5.1,0-9.2,3.8-9.9,8.7c-0.1,0-0.3,0-0.4,0
	c-1,0.1-1.8,1.2-1.6,2.4s1.1,2.1,2.1,2c0.1,0,0.2,0,0.3-0.1c1.3,4,5.1,8,9.5,8c4.5,0,8.2-3.9,9.5-7.9c0.1,0,0.1,0,0.2,0
	c1,0.1,2-0.8,2.1-2S125.4,16.2,124.4,16.1z"/>
<g>
	<path class="st12" d="M122,15.7c0.1,0.2,0.2,0.4,0.4,0.4l1.8,0.5c-0.4-5.2-4.7-9.2-10-9.2s-9.6,4.1-10,9.3l2-0.5
		c0.2-0.1,0.4-0.2,0.4-0.4l1.5-3.4h12.3L122,15.7z"/>
</g>
<g transform="matrix( 1, 0, 0, 1, 0,0) ">
	<g>
		<g id="a_1_">
			<path class="st3" d="M111.9,23.1c0,0.6,0.2,1.2,0.7,1.6s1,0.7,1.7,0.7s1.2-0.2,1.7-0.7c0.5-0.4,0.7-1,0.7-1.6s-0.2-1.2-0.7-1.6
				s-1-0.7-1.7-0.7s-1.3,0.2-1.8,0.7C112.1,21.9,111.9,22.5,111.9,23.1 M111.9,17.5c0.2-0.3,0.3-0.6,0.3-1s-0.1-0.7-0.3-1
				c-0.2-0.3-0.5-0.4-0.8-0.4s-0.6,0.1-0.8,0.4c-0.2,0.3-0.3,0.6-0.3,1s0.1,0.7,0.3,1c0.2,0.3,0.5,0.4,0.8,0.4
				S111.7,17.8,111.9,17.5"/>
		</g>
	</g>
	<path class="st3" d="M118.1,17.5c0.2-0.3,0.3-0.6,0.3-1s-0.1-0.7-0.3-1c-0.2-0.3-0.5-0.4-0.8-0.4s-0.6,0.1-0.8,0.4
		c-0.2,0.3-0.3,0.6-0.3,1s0.1,0.7,0.3,1c0.2,0.3,0.5,0.4,0.8,0.4S117.9,17.8,118.1,17.5"/>
</g>
<path class="st12" d="M114.8,7.5c0,0,2.9-0.6,3.7-1.2C118,8,117,9.2,117,9.2L114.8,7.5z"/>
<path class="st12" d="M117.3,8.1l4-0.4c0,0-3.6,1.9-4.6,2.1C115.6,9.9,117.3,8.1,117.3,8.1z"/>
<g>
	<g>
		<path class="st5" d="M129.1,92.5h7.7v5.2h-7.7V92.5z"/>
	</g>
</g>
<path class="st5" d="M101.5,92.5h13.8v5.2h-13.8V92.5z"/>
<path class="st5" d="M101.5,106.9h19.9v5.2h-19.9V106.9z"/>
<path class="st5" d="M101.5,121.3h16v5.2h-16V121.3z"/>
<path class="st5" d="M121.6,121.3h22.7v5.2h-22.7V121.3z"/>
<path class="st5" d="M101.5,135.7H129v5.2h-27.5V135.7z"/>
<path class="st3" d="M153.4,21.6h30v5h-30C153.4,26.6,153.4,21.6,153.4,21.6z"/>
</svg>
