<?xml version="1.0" encoding="utf-8"?>
<!-- Generator: Adobe Illustrator 19.2.1, SVG Export Plug-In . SVG Version: 6.00 Build 0)  -->
<svg version="1.1" id="Layer_1" xmlns="http://www.w3.org/2000/svg" xmlns:xlink="http://www.w3.org/1999/xlink" x="0px" y="0px"
	 viewBox="0 0 346 131.1" style="enable-background:new 0 0 346 131.1;" xml:space="preserve">
<style type="text/css">
	.st0{clip-path:url(#SVGID_2_);fill:#E4DAEF;}
	.st1{fill:#A47CCE;stroke:#52306C;stroke-miterlimit:10;}
	.st2{fill:#52306C;}
	.st3{fill:url(#SVGID_3_);}
	.st4{fill:#AAAAAA;}
	.st5{fill:#FFFFFF;}
	.st6{fill:#4B2870;}
	.st7{fill:url(#SVGID_4_);}
	.st8{fill:#A47CCE;}
	.st9{fill:none;stroke:#52306C;stroke-miterlimit:10;}
	.st10{fill:#FFFFFF;stroke:#52306C;stroke-miterlimit:10;}
	.st11{fill:#BF977B;stroke:#52306C;stroke-miterlimit:10;}
	.st12{fill:#BF977B;}
	.st13{fill:#FFF9EB;stroke:#52306C;stroke-miterlimit:10;}
	.st14{fill:#0E1530;}
</style>
<title>code-reviews-runnable</title>
<g>
	<g>
		<g>
			<g>
				<defs>
					<path id="SVGID_1_" d="M155,130.7H7c-3.3,0-6-2.7-6-6V7c0-3.3,2.7-6,6-6H155c3.3,0,6,2.7,6,6v117.6
						C161,128,158.3,130.7,155,130.7z"/>
				</defs>
				<use xlink:href="#SVGID_1_"  style="overflow:visible;fill:#FFFFFF;"/>
				<clipPath id="SVGID_2_">
					<use xlink:href="#SVGID_1_"  style="overflow:visible;"/>
				</clipPath>
				<path class="st0" d="M20.5,130.7h-20V19.1c0-8,6.5-14.6,14.6-14.6h5.4V130.7z"/>
				<use xlink:href="#SVGID_1_"  style="overflow:visible;fill:none;stroke:#52306C;stroke-miterlimit:10;"/>
			</g>
			<path class="st1" d="M161,21.1H1V7c0-3.3,2.7-6,6-6H155c3.3,0,6,2.7,6,6V21.1z"/>
			<g>
				<g>
					<path class="st2" d="M8,34.6h6v5H8V34.6z"/>
					<path class="st2" d="M8,50.6h6v5H8V50.6z"/>
					<path class="st2" d="M8,66.6h6v5H8V66.6z"/>
					<path class="st2" d="M8,82.6h6v5H8V82.6z"/>
					<path class="st2" d="M8,99.6h6v4H8V99.6z"/>
					<path class="st2" d="M8,115.6h6v4H8V115.6z"/>
				</g>
			</g>
		</g>
		<g>
			<linearGradient id="SVGID_3_" gradientUnits="userSpaceOnUse" x1="88" y1="93.1514" x2="88" y2="77.7458">
				<stop  offset="0" style="stop-color:#834FAB"/>
				<stop  offset="1" style="stop-color:#834FAB"/>
			</linearGradient>
			<path class="st3" d="M132.8,93.2H43.2c-2,0-3.6-1.6-3.6-3.6v-8.3c0-2,1.6-3.6,3.6-3.6h89.5c2,0,3.6,1.6,3.6,3.6v8.3
				C136.3,91.5,134.7,93.2,132.8,93.2z"/>
		</g>
		<g>
			<path class="st4" d="M32,34.6h6v5h-6V34.6z"/>
			<path class="st4" d="M38,34.6h6v5h-6V34.6z"/>
			<path class="st4" d="M44,34.6h7v5h-7V34.6z"/>
			<path class="st4" d="M50,34.6h7v5h-7V34.6z"/>
			<path class="st4" d="M57,34.6h6v5h-6V34.6z"/>
			<path class="st4" d="M63,34.6h6v5h-6V34.6z"/>
			<path class="st4" d="M69,34.6h7v5h-7V34.6z"/>
			<path class="st4" d="M75,34.6h7v5h-7V34.6z"/>
			<path class="st4" d="M82,34.6h6v5h-6V34.6z"/>
			<path class="st4" d="M100,34.6h7v5h-7V34.6z"/>
			<path class="st4" d="M107,34.6h6v5h-6V34.6z"/>
			<path class="st4" d="M113,34.6h6v5h-6V34.6z"/>
			<path class="st4" d="M119,34.6h7v5h-7V34.6z"/>
			<path class="st4" d="M125,34.6h7v5h-7V34.6z"/>
			<path class="st4" d="M32,50.6h6v5h-6V50.6z"/>
			<path class="st4" d="M38,50.6h6v5h-6V50.6z"/>
			<path class="st4" d="M44,50.6h7v5h-7V50.6z"/>
			<path class="st4" d="M50,50.6h7v5h-7V50.6z"/>
			<path class="st4" d="M57,50.6h6v5h-6V50.6z"/>
			<path class="st4" d="M63,50.6h6v5h-6V50.6z"/>
			<path class="st4" d="M44,66.6h7v5h-7V66.6z"/>
			<path class="st4" d="M50,66.6h7v5h-7V66.6z"/>
			<path class="st4" d="M57,66.6h6v5h-6V66.6z"/>
			<path class="st4" d="M63,66.6h6v5h-6V66.6z"/>
			<path class="st4" d="M69,66.6h7v5h-7V66.6z"/>
			<path class="st4" d="M75,66.6h7v5h-7V66.6z"/>
			<path class="st5" d="M44,82.6h7v5h-7V82.6z"/>
			<path class="st5" d="M50,82.6h7v5h-7V82.6z"/>
			<path class="st5" d="M57,82.6h6v5h-6V82.6z"/>
			<path class="st5" d="M63,82.6h6v5h-6V82.6z"/>
			<path class="st5" d="M69,82.6h7v5h-7V82.6z"/>
			<path class="st5" d="M75,82.6h7v5h-7V82.6z"/>
			<path class="st5" d="M94,82.6h7v5h-7V82.6z"/>
			<path class="st5" d="M113,82.6h6v5h-6V82.6z"/>
			<path class="st5" d="M119,82.6h7v5h-7V82.6z"/>
			<path class="st4" d="M44,99.6h7v4h-7V99.6z"/>
			<path class="st4" d="M50,99.6h7v4h-7V99.6z"/>
			<path class="st4" d="M57,99.6h6v4h-6V99.6z"/>
			<path class="st4" d="M63,99.6h6v4h-6V99.6z"/>
			<path class="st4" d="M69,99.6h7v4h-7V99.6z"/>
			<path class="st4" d="M75,99.6h7v4h-7V99.6z"/>
			<path class="st4" d="M82,99.6h6v4h-6V99.6z"/>
			<path class="st4" d="M88,99.6h6v4h-6V99.6z"/>
			<path class="st4" d="M32,115.6h6v4h-6V115.6z"/>
			<path class="st4" d="M38,115.6h6v4h-6V115.6z"/>
			<path class="st4" d="M44,115.6h7v4h-7V115.6z"/>
			<path class="st4" d="M50,115.6h7v4h-7V115.6z"/>
			<path class="st4" d="M57,115.6h6v4h-6V115.6z"/>
			<path class="st4" d="M63,115.6h6v4h-6V115.6z"/>
			<path class="st4" d="M82,115.6h6v4h-6V115.6z"/>
			<path class="st4" d="M88,115.6h6v4h-6V115.6z"/>
			<path class="st4" d="M94,115.6h7v4h-7V115.6z"/>
			<path class="st4" d="M100,115.6h7v4h-7V115.6z"/>
			<path class="st4" d="M107,115.6h6v4h-6V115.6z"/>
			<path class="st4" d="M113,115.6h6v4h-6V115.6z"/>
			<path class="st4" d="M119,115.6h7v4h-7V115.6z"/>
			<path class="st4" d="M125,115.6h7v4h-7V115.6z"/>
		</g>
		<ellipse class="st6" cx="11.7" cy="11.4" rx="3" ry="3"/>
		<ellipse class="st6" cx="25.7" cy="11.4" rx="3" ry="3"/>
		<ellipse class="st6" cx="39.7" cy="11.4" rx="3" ry="3"/>
	</g>
	<g>
		<g>
			<g>
				<linearGradient id="SVGID_4_" gradientUnits="userSpaceOnUse" x1="232" y1="96.61" x2="306.6748" y2="96.61">
					<stop  offset="0" style="stop-color:#834FAB"/>
					<stop  offset="1" style="stop-color:#834FAB"/>
				</linearGradient>
				<path class="st7" d="M235.3,130.1c-1.5,0-3.3-0.9-3.3-2.4V66.1c0-1.5,1.8-3,3.3-3h59.9c1.5,0,2.8,1.4,2.8,3v50
					c0,3.7,1.4,6.9,4,9.6l4.6,4.5H235.3z"/>
				<path class="st2" d="M295.2,64.1c1.3,0,1.8,0.7,1.8,2v50c0,3.8,1.7,7.5,4.4,10.2l4,3.9h-7h-4.7h-58.5c-1.3,0-2.3-1.1-2.3-2.4
					V66.1c0-1.3,1-2,2.3-2H295 M295.2,63.1h-59.9c-1.8,0-3.3,1.1-3.3,3v61.6c0,1.8,1.5,3.4,3.3,3.4h58.5h4.7h9.4l-5.8-5.6
					c-2.5-2.5-4.1-5.9-4.1-9.5v-50C298,64.3,297,63.1,295.2,63.1L295.2,63.1z"/>
			</g>
		</g>
	</g>
	<g>
		<g>
			<path class="st8" d="M281.3,37.2l4.7-4.7c2.6-2.6,4-6.1,4-9.8v-10c0-1.5,1.3-2.8,2.8-2.8h49.9c1.5,0,2.8,1.3,2.8,2.8v21.6
				c0,1.5-1.3,2.8-2.8,2.8H281.3z"/>
			<path class="st2" d="M342.7,10.4c1.3,0,2.3,1,2.3,2.3v21.6c0,1.3-1,2.3-2.3,2.3h-48.5h-4.7h-7l3.8-3.8c2.7-2.7,4.2-6.3,4.2-10.1
				v-10c0-1.3,1-2.3,2.3-2.3H342.7 M342.7,9.4h-49.9c-1.8,0-3.3,1.5-3.3,3.3v10c0,3.5-1.4,6.9-3.9,9.4l-5.5,5.5h9.4h4.7h48.5
				c1.8,0,3.3-1.5,3.3-3.3V12.7C346,10.9,344.5,9.4,342.7,9.4L342.7,9.4z"/>
		</g>
	</g>
	<g>
		<g>
			<g>
				<defs>
					<circle id="SVGID_5_" cx="326.7" cy="111.8" r="18.8"/>
				</defs>
				<use xlink:href="#SVGID_5_"  style="overflow:visible;fill:#A47CCE;"/>
				<clipPath id="SVGID_6_">
					<use xlink:href="#SVGID_5_"  style="overflow:visible;"/>
				</clipPath>
				<use xlink:href="#SVGID_5_"  style="overflow:visible;fill:none;stroke:#52306C;stroke-miterlimit:10;"/>
			</g>
		</g>
		<path class="st9" d="M319.2,121.6c-0.5,2.3,3.1,4.6,7.6,4.6c4.4,0,8-2.4,7.6-4.7"/>
		<path class="st10" d="M326.7,120.8c-6,0-11.3,1-14.3,3.2c3.5,4,8.6,6.6,14.3,6.6s10.9-2.6,14.3-6.6
			C338,121.9,332.7,120.8,326.7,120.8z"/>
		<path class="st9" d="M321.6,120.8v2.5c0,2,2.3,3.3,5.1,3.3l0,0c2.8,0,5.1-1.3,5.1-3.3v-2.5"/>
		<path class="st11" d="M329.5,119.1h-6v2.9c0,1.6,1.7,1.1,3.3,1.1h0.2c1.6,0,2.6,0.5,2.6-1.1V119.1z"/>
		<g>
			<path class="st12" d="M326.7,121.3c-4.7,0-8.4-3.9-9.9-7.9c0,0-0.1,0-0.1,0c-1.2,0-2.3-1.1-2.4-2.5c-0.1-0.7,0.1-1.4,0.4-2
				c0.4-0.6,1-0.9,1.6-1c0,0,0,0,0.1,0c0.9-5,5.2-8.6,10.3-8.6c5.1,0,9.4,3.7,10.3,8.7c1.3,0.2,2.1,1.5,2,3
				c-0.2,1.4-1.2,2.5-2.4,2.5C335.1,117.4,331.3,121.3,326.7,121.3z"/>
			<path class="st2" d="M326.7,99.8c5.1,0,9.2,3.8,9.9,8.6c0.1,0,0.1,0,0.2,0c0,0,0.1,0,0.1,0c1,0.1,1.8,1.2,1.6,2.4
				c-0.1,1.2-1,2-1.9,2c-0.1,0-0.1,0-0.2,0c-0.1,0-0.1,0-0.2,0c-1.3,4-5.1,7.9-9.5,7.9c-4.5,0-8.2-3.9-9.5-8c-0.1,0-0.2,0.1-0.3,0.1
				c-0.1,0-0.1,0-0.2,0c-1,0-1.8-0.9-1.9-2c-0.1-1.2,0.6-2.3,1.6-2.4c0.1,0,0.1,0,0.2,0c0.1,0,0.2,0,0.3,0
				C317.4,103.6,321.6,99.8,326.7,99.8 M326.7,98.8c-5.2,0-9.7,3.7-10.7,8.7c-0.7,0.2-1.3,0.6-1.7,1.2c-0.4,0.7-0.6,1.5-0.5,2.3
				c0.2,1.6,1.3,2.8,2.7,2.9c1.6,4,5.4,7.9,10.2,7.9c4.8,0,8.6-3.9,10.2-7.9c1.3-0.2,2.4-1.4,2.6-2.9c0.2-1.6-0.7-3-2-3.4
				C336.4,102.5,331.9,98.8,326.7,98.8L326.7,98.8z"/>
		</g>
		<g transform="matrix( 1, 0, 0, 1, 0,0) ">
			<g>
				<g id="a_2_">
					<path class="st2" d="M324.1,114.9c-0.6-0.3-0.8-0.2-0.6,0.3c0.4,0.7,0.9,1.3,1.7,1.8c1,0.6,2,0.5,3-0.2
						c0.7-0.6,1.2-1.2,1.4-1.8c0.1-0.4-0.1-0.4-0.6-0.1c-0.6,0.5-1.5,0.7-2.7,0.7C325.5,115.6,324.8,115.3,324.1,114.9 M325.3,110.4
						c-0.1-0.5-0.3-0.8-0.8-0.9c-0.9-0.1-1.8-0.1-2.7,0.1c-0.5,0.2-0.8,0.4-0.8,0.8c0,0.5,0.4,0.7,1,0.5c0.3-0.2,0.7-0.2,1.2-0.2
						c0.9,0.2,1.5,0.3,1.6,0.3C325.2,110.9,325.4,110.7,325.3,110.4 M328.8,109.5c-0.4,0.1-0.7,0.4-0.8,0.9c0,0.3,0.1,0.5,0.5,0.6
						c0.1,0,0.7-0.1,1.6-0.3c0.5,0,0.9,0,1.2,0.2c0.6,0.2,1,0,1-0.5c0-0.4-0.3-0.6-0.8-0.8C330.7,109.4,329.7,109.4,328.8,109.5z"/>
				</g>
			</g>
		</g>
		<g>
			<path class="st2" d="M334.5,108.1c0.1,0.2,0.2,0.4,0.4,0.4l1.8,0.5c-0.4-5.2-4.7-9.6-10-9.6c-5.3,0-9.6,4.5-10,9.7l2-0.5
				c0.2-0.1,0.4-0.2,0.4-0.4l1.5-3.4H333L334.5,108.1z"/>
		</g>
	</g>
	<g>
		<g>
			<defs>
				<circle id="SVGID_7_" cx="250.8" cy="19.4" r="18.8"/>
			</defs>
			<use xlink:href="#SVGID_7_"  style="overflow:visible;fill:#A47CCE;"/>
			<clipPath id="SVGID_8_">
				<use xlink:href="#SVGID_7_"  style="overflow:visible;"/>
			</clipPath>
			<use xlink:href="#SVGID_7_"  style="overflow:visible;fill:none;stroke:#52306C;stroke-miterlimit:10;"/>
		</g>
	</g>
	<path class="st9" d="M243.3,29.2c-0.5,2.3,3.1,4.6,7.6,4.6c4.4,0,8-2.4,7.6-4.7"/>
	<path class="st10" d="M250.8,28.4c-6,0-11.3,1-14.3,3.2c3.5,4,8.6,6.6,14.3,6.6s10.9-2.6,14.3-6.6
		C262.1,29.4,256.8,28.4,250.8,28.4z"/>
	<path class="st9" d="M245.7,28.4v2.5c0,2,2.3,3.3,5.1,3.3h0c2.8,0,5.1-1.3,5.1-3.3v-2.5"/>
	<path class="st13" d="M253.7,26.7h-5.8v2.9c0,1.6,1.3,1.9,2.9,1.9l0,0c1.6,0,2.9-0.3,2.9-1.9V26.7z"/>
	<path class="st13" d="M261,16.1c-0.1,0-0.2,0-0.3,0c-0.4-3.1-2.3-5.8-4.9-7.3c1.1-0.5,2.1-1,2.1-1l-3.5,0.4c0,0,0,0,0,0
		c0.3-0.5,0.6-1.1,0.8-1.8c-0.6,0.5-2.9,1-3.5,1.2c-0.2,0-0.5,0-0.7,0c-5.1,0-9.2,3.8-9.9,8.7c-0.1,0-0.3,0-0.4,0
		c-1,0.1-1.8,1.2-1.6,2.4s1.1,2.1,2.1,2c0.1,0,0.2,0,0.3-0.1c1.3,4,5.1,8,9.5,8c4.5,0,8.2-3.9,9.5-7.9c0.1,0,0.1,0,0.2,0
		c1,0.1,2-0.8,2.1-2S262,16.2,261,16.1z"/>
	<g>
		<path class="st14" d="M258.6,15.7c0.1,0.2,0.2,0.4,0.4,0.4l1.8,0.5c-0.4-5.2-4.7-9.2-10-9.2c-5.3,0-9.6,4.1-10,9.3l2-0.5
			c0.2-0.1,0.4-0.2,0.4-0.4l1.5-3.4h12.3L258.6,15.7z"/>
	</g>
	<g transform="matrix( 1, 0, 0, 1, 0,0) ">
		<g>
			<g id="a_1_">
				<path class="st2" d="M248.5,23.1c0,0.6,0.2,1.2,0.7,1.6c0.5,0.4,1,0.7,1.7,0.7c0.6,0,1.2-0.2,1.7-0.7c0.5-0.4,0.7-1,0.7-1.6
					s-0.2-1.2-0.7-1.6c-0.5-0.4-1-0.7-1.7-0.7c-0.6,0-1.2,0.2-1.7,0.7C248.7,21.9,248.5,22.5,248.5,23.1 M248.6,17.5
					c0.2-0.3,0.3-0.6,0.3-1c0-0.4-0.1-0.7-0.3-1c-0.2-0.3-0.5-0.4-0.8-0.4s-0.6,0.1-0.8,0.4c-0.2,0.3-0.3,0.6-0.3,1
					c0,0.4,0.1,0.7,0.3,1c0.2,0.3,0.5,0.4,0.8,0.4C248.1,17.9,248.3,17.8,248.6,17.5"/>
			</g>
		</g>
		<path class="st2" d="M254.7,17.5c0.2-0.3,0.3-0.6,0.3-1c0-0.4-0.1-0.7-0.3-1c-0.2-0.3-0.5-0.4-0.8-0.4c-0.3,0-0.6,0.1-0.8,0.4
			c-0.2,0.3-0.3,0.6-0.3,1c0,0.4,0.1,0.7,0.3,1c0.2,0.3,0.5,0.4,0.8,0.4C254.2,17.9,254.5,17.8,254.7,17.5"/>
	</g>
	<path class="st14" d="M251.4,7.5c0,0,2.9-0.6,3.7-1.2c-0.5,1.7-1.5,2.9-1.5,2.9L251.4,7.5z"/>
	<path class="st14" d="M253.9,8.1l4-0.4c0,0-3.6,1.9-4.6,2.1S253.9,8.1,253.9,8.1z"/>
	<g>
		<g>
			<path class="st8" d="M238.2,72.5h7.7v5.2h-7.7V72.5z"/>
			<path class="st8" d="M245.7,72.5h7.7v5.2h-7.7V72.5z"/>
			<path class="st8" d="M253.2,72.5h7.7v5.2h-7.7V72.5z"/>
			<path class="st8" d="M275.7,72.5h7.7v5.2h-7.7V72.5z"/>
			<path class="st8" d="M238.2,86.9h7.7v5.2h-7.7V86.9z"/>
			<path class="st8" d="M245.7,86.9h7.7v5.2h-7.7V86.9z"/>
			<path class="st8" d="M253.2,86.9h7.7v5.2h-7.7V86.9z"/>
			<path class="st8" d="M260.7,86.9h7.7v5.2h-7.7V86.9z"/>
			<path class="st8" d="M238.2,101.3h7.7v5.2h-7.7V101.3z"/>
			<path class="st8" d="M245.7,101.3h7.7v5.2h-7.7V101.3z"/>
			<path class="st8" d="M268.2,101.3h7.7v5.2h-7.7V101.3z"/>
			<path class="st8" d="M275.7,101.3h7.7v5.2h-7.7V101.3z"/>
			<path class="st8" d="M283.2,101.3h7.7v5.2h-7.7V101.3z"/>
			<path class="st8" d="M238.2,115.7h7.7v5.2h-7.7V115.7z"/>
			<path class="st8" d="M245.7,115.7h7.7v5.2h-7.7V115.7z"/>
			<path class="st8" d="M253.2,115.7h7.7v5.2h-7.7V115.7z"/>
			<path class="st8" d="M260.7,115.7h7.7v5.2h-7.7V115.7z"/>
			<path class="st8" d="M268.2,115.7h7.7v5.2h-7.7V115.7z"/>
		</g>
	</g>
	<g>
		<g>
			<path class="st2" d="M300,21.6h7v5h-7V21.6z"/>
			<path class="st2" d="M307,21.6h8v5h-8V21.6z"/>
			<path class="st2" d="M315,21.6h7v5h-7V21.6z"/>
			<path class="st2" d="M322,21.6h8v5h-8V21.6z"/>
		</g>
	</g>
</g>
</svg>
