<svg id="Layer_1" data-name="Layer 1" xmlns="http://www.w3.org/2000/svg" xmlns:xlink="http://www.w3.org/1999/xlink" viewBox="0 0 380 200"><defs><style>.cls-1,.cls-11{fill:none;}.cls-2{fill:#fafafa;}.cls-3{fill:#fff;}.cls-4{clip-path:url(#clip-path);}.cls-5{fill:#e4daef;}.cls-6{fill:#52306c;}.cls-7{fill:url(#linear-gradient);}.cls-8{fill:#a47cce;}.cls-9{fill:#aaa;}.cls-10{fill:url(#linear-gradient-2);}.cls-11,.cls-12,.cls-14{stroke:#52306c;stroke-miterlimit:10;}.cls-12,.cls-13{fill:#bf977b;}.cls-14{fill:#fff9eb;}.cls-15{fill:#0e1530;}</style><clipPath id="clip-path" transform="translate(-0.5)"><path class="cls-1" d="M205.4,148.7H95.5a4.48,4.48,0,0,1-4.5-4.46s0,0,0,0V56a4.48,4.48,0,0,1,4.46-4.5H210v92.7A4.57,4.57,0,0,1,205.4,148.7Z"/></clipPath><linearGradient id="linear-gradient" x1="155.1" y1="-327.67" x2="155.1" y2="-316.11" gradientTransform="matrix(1, 0, 0, -1, 0.1, -207.1)" gradientUnits="userSpaceOnUse"><stop offset="0" stop-color="#834fab"/><stop offset="1" stop-color="#834fab"/></linearGradient><linearGradient id="linear-gradient-2" x1="184.9" y1="-348.15" x2="253.03" y2="-348.15" xlink:href="#linear-gradient"/></defs><title>code-reviews-runnable</title><rect class="cls-2" width="380" height="200"/><path id="SVGID" class="cls-3" d="M205.4,148.7H95.5a4.48,4.48,0,0,1-4.5-4.46s0,0,0,0V56a4.48,4.48,0,0,1,4.46-4.5H210v92.7A4.57,4.57,0,0,1,205.4,148.7Z" transform="translate(-0.5)"/><g class="cls-4"><path class="cls-5" d="M105.6,148.7h-15v-80a14.62,14.62,0,0,1,14.6-14.6h0.4v94.6Z" transform="translate(-0.5)"/></g><g id="SVGID-2"><path class="cls-6" d="M95.48,51.5v2H208v90.67a2.59,2.59,0,0,1-2.6,2.53H95.48A2.49,2.49,0,0,1,93,144.2V56a2.48,2.48,0,0,1,2.47-2.49v-2m0,0h0A4.48,4.48,0,0,0,91,56v88.2s0,0,0,0a4.48,4.48,0,0,0,4.48,4.46h110a4.57,4.57,0,0,0,4.57-4.5V51.5H95.48Z" transform="translate(-0.5)"/></g><path class="cls-6" d="M97.2,76.7h4.5v3.7H97.2V76.7Z" transform="translate(-0.5)"/><path class="cls-6" d="M97.2,88.7h4.5v3.7H97.2V88.7Z" transform="translate(-0.5)"/><path class="cls-6" d="M97.2,100.7h4.5v3.7H97.2v-3.7Z" transform="translate(-0.5)"/><path class="cls-6" d="M97.2,112.7h4.5v3.7H97.2v-3.7Z" transform="translate(-0.5)"/><path class="cls-6" d="M97.2,125.4h4.5v3H97.2v-3Z" transform="translate(-0.5)"/><path class="cls-6" d="M97.2,137.4h4.5v3H97.2v-3Z" transform="translate(-0.5)"/><path class="cls-7" d="M187.9,120.6H122.5a3.59,3.59,0,0,1-3.6-3.58s0,0,0,0v-4.4a3.59,3.59,0,0,1,3.58-3.6H187.9a3.59,3.59,0,0,1,3.6,3.58s0,0,0,0V117a3.59,3.59,0,0,1-3.58,3.6h0Z" transform="translate(-0.5)"/><path class="cls-3" d="M144.7,112.7h5.2v3.7h-5.2v-3.7Z" transform="translate(-0.5)"/><path class="cls-3" d="M144,112.7h4.5v3.7H144v-3.7Z" transform="translate(-0.5)"/><path class="cls-3" d="M148.5,112.7h35.2v3.7H148.5v-3.7Z" transform="translate(-0.5)"/><path class="cls-6" d="M96.5,51h107a6,6,0,0,1,6,6v9a0,0,0,0,1,0,0H90.5a0,0,0,0,1,0,0V57A6,6,0,0,1,96.5,51Z"/><ellipse class="cls-8" cx="98.5" cy="59.3" rx="2.2" ry="2.3"/><ellipse class="cls-8" cx="109" cy="59.3" rx="2.2" ry="2.3"/><ellipse class="cls-8" cx="119.5" cy="59.3" rx="2.2" ry="2.3"/><path class="cls-9" d="M113.2,76.7h27v3.7h-27V76.7Z" transform="translate(-0.5)"/><path class="cls-9" d="M149.6,76.7h38.6v3.7H149.6V76.7Z" transform="translate(-0.5)"/><path class="cls-9" d="M113,88.7h13.1v3.7H113V88.7Z" transform="translate(-0.5)"/><path class="cls-9" d="M122.4,100.7h13.1v3.7H122.4v-3.7Z" transform="translate(-0.5)"/><path class="cls-3" d="M122.2,112.7h13.5v3.7H122.2v-3.7Z" transform="translate(-0.5)"/><path class="cls-9" d="M122.2,125.4h22.1v3H122.2v-3Z" transform="translate(-0.5)"/><path class="cls-9" d="M113.2,137.4H126v3H113.2v-3Z" transform="translate(-0.5)"/><path class="cls-9" d="M135.7,137.4h52.5v3H135.7v-3Z" transform="translate(-0.5)"/><path class="cls-10" d="M188.3,175.6v-0.2c-1.73-.34-3.3-1.54-3.3-3.3V110.5c0-2.15,2.36-4,4.3-4h49.9a4,4,0,0,1,3.8,4v50a12.55,12.55,0,0,0,3.7,8.89l6.35,6.21H188.3Z" transform="translate(-0.5)"/><path class="cls-6" d="M239.2,107.5a3,3,0,0,1,2.8,3v50a13.47,13.47,0,0,0,4,9.6l4.6,4.5H189.3v-0.1c-1.5,0-3.3-.9-3.3-2.4V110.5c0-1.5,1.8-3,3.3-3h49.9m0.07-2h-50c-2.4,0-5.3,2.23-5.3,5v61.6a4.44,4.44,0,0,0,3.3,4.06v0.44h68.2L252,173.17l-4.6-4.5a11.54,11.54,0,0,1-3.4-8.17v-50a5,5,0,0,0-4.67-5h-0.07Z" transform="translate(-0.5)"/><path class="cls-8" d="M229.29,56.19A12.84,12.84,0,0,0,233,47.11v-10a3.86,3.86,0,0,1,3.78-3.8H286.7a3.86,3.86,0,0,1,3.8,3.78V58.7a3.86,3.86,0,0,1-3.78,3.8l-63.84.1Z" transform="translate(-0.5)"/><path class="cls-6" d="M286.7,34.3a2.86,2.86,0,0,1,2.8,2.8V58.7a2.86,2.86,0,0,1-2.8,2.8l-61.4.1h0l4.7-4.7a13.76,13.76,0,0,0,4-9.8v-10a2.86,2.86,0,0,1,2.8-2.8h49.9m0-2H236.8a4.86,4.86,0,0,0-4.8,4.76v10a11.85,11.85,0,0,1-3.42,8.39l-4.7,4.7-3.42,3.42h4.84l61.4-.1a4.86,4.86,0,0,0,4.8-4.76V37.1a4.86,4.86,0,0,0-4.76-4.8h0Z" transform="translate(-0.5)"/><circle id="SVGID-3" class="cls-8" cx="270.2" cy="156.2" r="18.8"/><g id="SVGID-4"><path class="cls-6" d="M270.7,137.4a18.8,18.8,0,1,1-18.8,18.8,18.8,18.8,0,0,1,18.8-18.8m0-2a20.8,20.8,0,1,0,20.8,20.8,20.82,20.82,0,0,0-20.8-20.8h0Z" transform="translate(-0.5)"/></g><path class="cls-11" d="M263.2,166c-0.5,2.3,3.1,4.6,7.6,4.6s8-2.4,7.6-4.7" transform="translate(-0.5)"/><path class="cls-3" d="M270.71,175.5A19.28,19.28,0,0,1,256,168.72l-0.35-.41,0.43-.32c2.9-2.13,8.08-3.3,14.6-3.3,6.28,0,11.45,1.17,14.58,3.29l0.46,0.31-0.36.42a19.3,19.3,0,0,1-14.67,6.78h0Z" transform="translate(-0.5)"/><path class="cls-6" d="M270.7,165.2c6,0,11.2,1.1,14.3,3.2a18.79,18.79,0,0,1-28.6,0c3-2.2,8.3-3.2,14.3-3.2m0-1c-6.62,0-11.91,1.21-14.89,3.39l-0.87.64,0.7,0.82a19.79,19.79,0,0,0,30.12,0l0.72-.85-0.92-.63c-3.21-2.17-8.49-3.37-14.86-3.37h0Z" transform="translate(-0.5)"/><path class="cls-11" d="M265.6,165.2v2.5c0,2,2.3,3.3,5.1,3.3h0c2.8,0,5.1-1.3,5.1-3.3v-2.5" transform="translate(-0.5)"/><path class="cls-12" d="M273.5,163.5h-6v2.9c0,1.6,1.7,1.1,3.3,1.1H271c1.6,0,2.6.5,2.6-1.1v-2.9h-0.1Z" transform="translate(-0.5)"/><path class="cls-13" d="M270.7,165.7c-4.7,0-8.4-3.9-9.9-7.9h-0.1a2.6,2.6,0,0,1-2.4-2.5,3.44,3.44,0,0,1,.4-2,2.34,2.34,0,0,1,1.6-1h0.1a10.46,10.46,0,0,1,20.6.1,2.64,2.64,0,0,1,2,3,2.68,2.68,0,0,1-2.4,2.5C279.1,161.8,275.3,165.7,270.7,165.7Z" transform="translate(-0.5)"/><path class="cls-6" d="M270.7,144.2a10,10,0,0,1,9.9,8.6h0.3a2,2,0,0,1,1.62,2.32l0,0.08a2.06,2.06,0,0,1-1.9,2h-0.4c-1.3,4-5.1,7.9-9.5,7.9s-8.2-3.9-9.5-8c-0.1,0-.2.1-0.3,0.1h-0.2a2.06,2.06,0,0,1-1.9-2,2.1,2.1,0,0,1,1.6-2.4h0.5a9.78,9.78,0,0,1,9.8-8.6m0-1a10.93,10.93,0,0,0-10.7,8.7,3,3,0,0,0-1.7,1.2,3.72,3.72,0,0,0-.5,2.3,3.1,3.1,0,0,0,2.7,2.9c1.6,4,5.4,7.9,10.2,7.9s8.6-3.9,10.2-7.9a3.31,3.31,0,0,0,2.6-2.9,3.08,3.08,0,0,0-2-3.4,11.11,11.11,0,0,0-10.8-8.8h0Z" transform="translate(-0.5)"/><g id="a"><path class="cls-6" d="M268.1,159.3q-0.9-.45-0.6.3a4.85,4.85,0,0,0,1.7,1.8,2.57,2.57,0,0,0,3-.2,4.42,4.42,0,0,0,1.4-1.8c0.1-.4-0.1-0.4-0.6-0.1a4.15,4.15,0,0,1-2.7.7,4.39,4.39,0,0,1-2.2-.7m1.2-4.5a1,1,0,0,0-.8-0.9,8.17,8.17,0,0,0-2.7.1,0.94,0.94,0,0,0-.8.8c0,0.5.4,0.7,1,.5a2.17,2.17,0,0,1,1.2-.2,15.4,15.4,0,0,0,1.6.3,0.55,0.55,0,0,0,.5-0.6h0m3.5-.9a1.08,1.08,0,0,0-.8.9,0.55,0.55,0,0,0,.5.6h0a15.4,15.4,0,0,0,1.6-.3,2.17,2.17,0,0,1,1.2.2c0.6,0.2,1,0,1-.5a0.94,0.94,0,0,0-.8-0.8,8.17,8.17,0,0,0-2.7-.1h0Z" transform="translate(-0.5)"/></g><path class="cls-6" d="M278.4,152.5a0.54,0.54,0,0,0,.4.4l1.8,0.5a10.3,10.3,0,0,0-10-9.6c-5.3,0-9.6,4.5-10,9.7l2-.5a0.54,0.54,0,0,0,.4-0.4l1.5-3.4h12.4Z" transform="translate(-0.5)"/><circle id="SVGID-5" class="cls-8" cx="204.3" cy="43.8" r="18.8"/><g id="SVGID-6"><path class="cls-6" d="M204.8,25A18.8,18.8,0,1,1,186,43.8,18.8,18.8,0,0,1,204.8,25m0-2a20.8,20.8,0,1,0,20.8,20.8A20.82,20.82,0,0,0,204.8,23h0Z" transform="translate(-0.5)"/></g><path class="cls-11" d="M197.3,53.6c-0.5,2.3,3.1,4.6,7.6,4.6s8-2.4,7.6-4.7" transform="translate(-0.5)"/><path class="cls-3" d="M204.81,63.1a19.27,19.27,0,0,1-14.69-6.78l-0.35-.41,0.43-.32c2.9-2.13,8.08-3.3,14.6-3.3s11.7,1.17,14.6,3.3l0.43,0.32-0.35.41a19.29,19.29,0,0,1-14.67,6.78h0Z" transform="translate(-0.5)"/><path class="cls-6" d="M204.8,52.8c6,0,11.3,1,14.3,3.2a18.79,18.79,0,0,1-28.6,0c3-2.2,8.3-3.2,14.3-3.2m0-1c-6.62,0-11.91,1.21-14.89,3.39l-0.87.64,0.7,0.82a19.79,19.79,0,0,0,30.12,0l0.7-.82-0.87-.64c-3-2.19-8.27-3.39-14.89-3.39h0Z" transform="translate(-0.5)"/><path class="cls-11" d="M199.7,52.8v2.5c0,2,2.3,3.3,5.1,3.3h0c2.8,0,5.1-1.3,5.1-3.3V52.8" transform="translate(-0.5)"/><path class="cls-14" d="M207.7,51.1h-5.8V54c0,1.6,1.3,1.9,2.9,1.9h0c1.6,0,2.9-.3,2.9-1.9V51.1Z" transform="translate(-0.5)"/><path class="cls-14" d="M215,40.5h-0.3a10,10,0,0,0-4.9-7.3c1.1-.5,2.1-1,2.1-1l-3.5.4h0c0.2-.6.5-1.2,0.7-1.9a16.13,16.13,0,0,1-3.5,1.2h-0.7a10,10,0,0,0-9.9,8.7h-0.4A2,2,0,0,0,193,42.92L193,43a2.15,2.15,0,0,0,2.1,2,0.37,0.37,0,0,0,.3-0.1c1.3,4,5.1,8,9.5,8s8.2-3.9,9.5-7.9h0.2a2.08,2.08,0,0,0,2.1-2A2.27,2.27,0,0,0,215,40.5Z" transform="translate(-0.5)"/><path class="cls-15" d="M212.6,40.1a0.54,0.54,0,0,0,.4.4l1.8,0.5a10,10,0,1,0-20,.1l2-.5a0.54,0.54,0,0,0,.4-0.4l1.5-3.4H211Z" transform="translate(-0.5)"/><g id="a-2"><path class="cls-6" d="M202.5,47.5a2,2,0,0,0,.7,1.6,2.61,2.61,0,0,0,1.7.7A2.31,2.31,0,0,0,206.72,46l-0.12-.12a2.61,2.61,0,0,0-1.7-.7,2.41,2.41,0,0,0-1.8.7,2.27,2.27,0,0,0-.6,1.6m0-5.6a1.82,1.82,0,0,0,0-2,1,1,0,0,0-1.6,0,1.82,1.82,0,0,0,0,2,1,1,0,0,0,1.6,0" transform="translate(-0.5)"/></g><path class="cls-6" d="M208.7,41.9a1.82,1.82,0,0,0,0-2,1,1,0,0,0-1.6,0,1.82,1.82,0,0,0,0,2,1,1,0,0,0,1.6,0" transform="translate(-0.5)"/><path class="cls-15" d="M205.4,31.9a15.12,15.12,0,0,0,3.7-1.2,9,9,0,0,1-1.5,2.9Z" transform="translate(-0.5)"/><path class="cls-15" d="M207.9,32.5l4-.4a35.78,35.78,0,0,1-4.6,2.1C206.2,34.3,207.9,32.5,207.9,32.5Z" transform="translate(-0.5)"/><path class="cls-8" d="M219.7,116.9h7.7v5.2h-7.7v-5.2Z" transform="translate(-0.5)"/><path class="cls-8" d="M192.1,116.9h13.8v5.2H192.1v-5.2Z" transform="translate(-0.5)"/><path class="cls-8" d="M192.1,131.3H212v5.2H192.1v-5.2Z" transform="translate(-0.5)"/><path class="cls-8" d="M192.1,145.7h16v5.2h-16v-5.2Z" transform="translate(-0.5)"/><path class="cls-8" d="M212.2,145.7h22.7v5.2H212.2v-5.2Z" transform="translate(-0.5)"/><path class="cls-8" d="M192.1,160.1h27.5v5.2H192.1v-5.2Z" transform="translate(-0.5)"/><path class="cls-6" d="M244,46h30v5H244V46Z" transform="translate(-0.5)"/></svg>