<?xml version="1.0" encoding="utf-8"?>
<!-- Generator: Adobe Illustrator 19.2.1, SVG Export Plug-In . SVG Version: 6.00 Build 0)  -->
<svg version="1.1" id="Layer_1" xmlns="http://www.w3.org/2000/svg" xmlns:xlink="http://www.w3.org/1999/xlink" x="0px" y="0px"
	 viewBox="0 0 215.5 151" style="enable-background:new 0 0 215.5 151;" xml:space="preserve">
<style type="text/css">
	.st0{clip-path:url(#SVGID_2_);fill:#E4DAEF;}
	.st1{fill:#52306C;}
	.st2{fill:url(#SVGID_3_);}
	.st3{fill:#FFFFFF;}
	.st4{fill:#A47CCE;}
	.st5{fill:#AAAAAA;}
	.st6{fill:url(#SVGID_4_);}
	.st7{fill:none;stroke:#52306C;stroke-miterlimit:10;}
	.st8{fill:#FFFFFF;stroke:#52306C;stroke-miterlimit:10;}
	.st9{fill:#BF977B;stroke:#52306C;stroke-miterlimit:10;}
	.st10{fill:#BF977B;}
	.st11{fill:#FFF9EB;stroke:#52306C;stroke-miterlimit:10;}
	.st12{fill:#0E1530;}
</style>
<title>code-reviews-runnable</title>
<g>
	<g>
		<g>
			<g>
				<defs>
					<path id="SVGID_1_" d="M114.5,130.7H6.5c-3.3,0-6-2.7-6-6V7c0-3.3,2.7-6,6-6h114v123.6C120.5,128,117.8,130.7,114.5,130.7z"/>
				</defs>
				<use xlink:href="#SVGID_1_"  style="overflow:visible;fill:#FFFFFF;"/>
				<clipPath id="SVGID_2_">
					<use xlink:href="#SVGID_1_"  style="overflow:visible;"/>
				</clipPath>
				<path class="st0" d="M20,130.7H0V19.1c0-8,6.5-14.6,14.6-14.6H20V130.7z"/>
				<use xlink:href="#SVGID_1_"  style="overflow:visible;fill:none;stroke:#52306C;stroke-miterlimit:10;"/>
			</g>
			<path class="st1" d="M120.5,19.8H0.5V5.8c0-3.3,2.7-6,6-6h114V19.8z"/>
			<g>
				<g>
					<path class="st1" d="M7.5,34.6h6v5h-6V34.6z"/>
					<path class="st1" d="M7.5,50.6h6v5h-6V50.6z"/>
					<path class="st1" d="M7.5,66.6h6v5h-6V66.6z"/>
					<path class="st1" d="M7.5,82.6h6v5h-6V82.6z"/>
					<path class="st1" d="M7.5,99.6h6v4h-6V99.6z"/>
					<path class="st1" d="M7.5,115.6h6v4h-6V115.6z"/>
				</g>
			</g>
		</g>
		<g>
			<linearGradient id="SVGID_3_" gradientUnits="userSpaceOnUse" x1="67.5" y1="93.1514" x2="67.5" y2="77.7458">
				<stop  offset="0" style="stop-color:#834FAB"/>
				<stop  offset="1" style="stop-color:#834FAB"/>
			</linearGradient>
			<path class="st2" d="M92.3,93.2H42.7c-2,0-3.6-1.6-3.6-3.6v-8.3c0-2,1.6-3.6,3.6-3.6h49.5c2,0,3.6,1.6,3.6,3.6v8.3
				C95.8,91.5,94.2,93.2,92.3,93.2z"/>
		</g>
		<g>
			<path class="st3" d="M73.5,82.6h7v5h-7V82.6z"/>
			<path class="st3" d="M72.5,82.6h6v5h-6V82.6z"/>
			<path class="st3" d="M78.5,82.6h7v5h-7V82.6z"/>
		</g>
		<ellipse class="st4" cx="11.2" cy="11.4" rx="3" ry="3"/>
		<ellipse class="st4" cx="25.2" cy="11.4" rx="3" ry="3"/>
		<ellipse class="st4" cx="39.2" cy="11.4" rx="3" ry="3"/>
	</g>
</g>
<path class="st5" d="M31.5,34.6h36v5h-36V34.6z"/>
<path class="st5" d="M80,34.6h11.5v5H80V34.6z"/>
<path class="st5" d="M31.2,50.6h17.5v5H31.2V50.6z"/>
<path class="st5" d="M43.8,66.6h17.5v5H43.8V66.6z"/>
<path class="st3" d="M43.5,82.6h18v5h-18V82.6z"/>
<path class="st5" d="M43.5,99.6H73v4H43.5V99.6z"/>
<path class="st5" d="M31.5,115.6h17v4h-17V115.6z"/>
<path class="st5" d="M61.5,115.6h30v4h-30V115.6z"/>
<g>
	<g>
		<g>
			<linearGradient id="SVGID_4_" gradientUnits="userSpaceOnUse" x1="101.5" y1="116.61" x2="176.1748" y2="116.61">
				<stop  offset="0" style="stop-color:#834FAB"/>
				<stop  offset="1" style="stop-color:#834FAB"/>
			</linearGradient>
			<path class="st6" d="M104.8,150.1c-1.5,0-3.3-0.9-3.3-2.4V86.1c0-1.5,1.8-3,3.3-3h59.9c1.5,0,2.8,1.4,2.8,3v50
				c0,3.7,1.4,6.9,4,9.6l4.6,4.5H104.8z"/>
			<path class="st1" d="M164.7,84.1c1.3,0,1.8,0.7,1.8,2v50c0,3.8,1.7,7.5,4.4,10.2l4,3.9h-7h-4.7h-58.5c-1.3,0-2.3-1.1-2.3-2.4
				V86.1c0-1.3,1-2,2.3-2h59.7 M164.7,83.1h-59.9c-1.8,0-3.3,1.1-3.3,3v61.6c0,1.8,1.5,3.4,3.3,3.4h58.5h4.7h9.4l-5.8-5.6
				c-2.5-2.5-4.1-5.9-4.1-9.5v-50C167.5,84.3,166.5,83.1,164.7,83.1L164.7,83.1z"/>
		</g>
	</g>
</g>
<g>
	<g>
		<path class="st4" d="M140.8,37.2l4.7-4.7c2.6-2.6,4-6.1,4-9.8v-10c0-1.5,1.3-2.8,2.8-2.8h59.9c1.5,0,2.8,1.3,2.8,2.8v21.6
			c0,1.5-1.3,2.8-2.8,2.8H140.8z"/>
		<path class="st1" d="M212.2,10.4c1.3,0,2.3,1,2.3,2.3v21.6c0,1.3-1,2.3-2.3,2.3h-58.5H149h-7l3.8-3.8c2.7-2.7,4.2-6.3,4.2-10.1
			v-10c0-1.3,1-2.3,2.3-2.3H212.2 M212.2,9.4h-59.9c-1.8,0-3.3,1.5-3.3,3.3v10c0,3.5-1.4,6.9-3.9,9.4l-5.5,5.5h9.4h4.7h58.5
			c1.8,0,3.3-1.5,3.3-3.3V12.7C215.5,10.9,214,9.4,212.2,9.4L212.2,9.4z"/>
	</g>
</g>
<g>
	<g>
		<g>
			<defs>
				<circle id="SVGID_5_" cx="196.2" cy="131.8" r="18.8"/>
			</defs>
			<use xlink:href="#SVGID_5_"  style="overflow:visible;fill:#A47CCE;"/>
			<clipPath id="SVGID_6_">
				<use xlink:href="#SVGID_5_"  style="overflow:visible;"/>
			</clipPath>
			<use xlink:href="#SVGID_5_"  style="overflow:visible;fill:none;stroke:#52306C;stroke-miterlimit:10;"/>
		</g>
	</g>
	<path class="st7" d="M188.7,141.6c-0.5,2.3,3.1,4.6,7.6,4.6c4.4,0,8-2.4,7.6-4.7"/>
	<path class="st8" d="M196.2,140.8c-6,0-11.3,1-14.3,3.2c3.5,4,8.6,6.6,14.3,6.6s10.9-2.6,14.3-6.6
		C207.5,141.9,202.2,140.8,196.2,140.8z"/>
	<path class="st7" d="M191.1,140.8v2.5c0,2,2.3,3.3,5.1,3.3h0c2.8,0,5.1-1.3,5.1-3.3v-2.5"/>
	<path class="st9" d="M199,139.1h-6v2.9c0,1.6,1.7,1.1,3.3,1.1h0.2c1.6,0,2.6,0.5,2.6-1.1V139.1z"/>
	<g>
		<path class="st10" d="M196.2,141.3c-4.7,0-8.4-3.9-9.9-7.9c0,0-0.1,0-0.1,0c-1.2,0-2.3-1.1-2.4-2.5c-0.1-0.7,0.1-1.4,0.4-2
			c0.4-0.6,1-0.9,1.6-1c0,0,0,0,0.1,0c0.9-5,5.2-8.6,10.3-8.6c5.1,0,9.4,3.7,10.3,8.7c1.3,0.2,2.1,1.5,2,3c-0.2,1.4-1.2,2.5-2.4,2.5
			C204.6,137.4,200.8,141.3,196.2,141.3z"/>
		<path class="st1" d="M196.2,119.8c5.1,0,9.2,3.8,9.9,8.6c0.1,0,0.1,0,0.2,0c0,0,0.1,0,0.1,0c1,0.1,1.8,1.2,1.6,2.4
			c-0.1,1.2-1,2-1.9,2c-0.1,0-0.1,0-0.2,0c-0.1,0-0.1,0-0.2,0c-1.3,4-5.1,7.9-9.5,7.9c-4.5,0-8.2-3.9-9.5-8c-0.1,0-0.2,0.1-0.3,0.1
			c-0.1,0-0.1,0-0.2,0c-1,0-1.8-0.9-1.9-2c-0.1-1.2,0.6-2.3,1.6-2.4c0.1,0,0.1,0,0.2,0c0.1,0,0.2,0,0.3,0
			C186.9,123.6,191.1,119.8,196.2,119.8 M196.2,118.8c-5.2,0-9.7,3.7-10.7,8.7c-0.7,0.2-1.3,0.6-1.7,1.2c-0.4,0.7-0.6,1.5-0.5,2.3
			c0.2,1.6,1.3,2.8,2.7,2.9c1.6,4,5.4,7.9,10.2,7.9c4.8,0,8.6-3.9,10.2-7.9c1.3-0.2,2.4-1.4,2.6-2.9c0.2-1.6-0.7-3-2-3.4
			C205.9,122.5,201.4,118.8,196.2,118.8L196.2,118.8z"/>
	</g>
	<g transform="matrix( 1, 0, 0, 1, 0,0) ">
		<g>
			<g id="a_2_">
				<path class="st1" d="M193.6,134.9c-0.6-0.3-0.8-0.2-0.6,0.3c0.4,0.7,0.9,1.3,1.7,1.8c1,0.6,2,0.5,3-0.2c0.7-0.6,1.2-1.2,1.4-1.8
					c0.1-0.4-0.1-0.4-0.6-0.1c-0.6,0.5-1.5,0.7-2.7,0.7C195,135.6,194.3,135.3,193.6,134.9 M194.8,130.4c-0.1-0.5-0.3-0.8-0.8-0.9
					c-0.9-0.1-1.8-0.1-2.7,0.1c-0.5,0.2-0.8,0.4-0.8,0.8c0,0.5,0.4,0.7,1,0.5c0.3-0.2,0.7-0.2,1.2-0.2c0.9,0.2,1.5,0.3,1.6,0.3
					C194.7,130.9,194.9,130.7,194.8,130.4 M198.3,129.5c-0.4,0.1-0.7,0.4-0.8,0.9c0,0.3,0.1,0.5,0.5,0.6c0.1,0,0.7-0.1,1.6-0.3
					c0.5,0,0.9,0,1.2,0.2c0.6,0.2,1,0,1-0.5c0-0.4-0.3-0.6-0.8-0.8C200.2,129.4,199.2,129.4,198.3,129.5z"/>
			</g>
		</g>
	</g>
	<g>
		<path class="st1" d="M204,128.1c0.1,0.2,0.2,0.4,0.4,0.4l1.8,0.5c-0.4-5.2-4.7-9.6-10-9.6c-5.3,0-9.6,4.5-10,9.7l2-0.5
			c0.2-0.1,0.4-0.2,0.4-0.4l1.5-3.4h12.4L204,128.1z"/>
	</g>
</g>
<g>
	<g>
		<defs>
			<circle id="SVGID_7_" cx="120.3" cy="19.4" r="18.8"/>
		</defs>
		<use xlink:href="#SVGID_7_"  style="overflow:visible;fill:#A47CCE;"/>
		<clipPath id="SVGID_8_">
			<use xlink:href="#SVGID_7_"  style="overflow:visible;"/>
		</clipPath>
		<use xlink:href="#SVGID_7_"  style="overflow:visible;fill:none;stroke:#52306C;stroke-miterlimit:10;"/>
	</g>
</g>
<path class="st7" d="M112.8,29.2c-0.5,2.3,3.1,4.6,7.6,4.6c4.4,0,8-2.4,7.6-4.7"/>
<path class="st8" d="M120.3,28.4c-6,0-11.3,1-14.3,3.2c3.5,4,8.6,6.6,14.3,6.6s10.9-2.6,14.3-6.6C131.6,29.4,126.3,28.4,120.3,28.4z
	"/>
<path class="st7" d="M115.2,28.4v2.5c0,2,2.3,3.3,5.1,3.3h0c2.8,0,5.1-1.3,5.1-3.3v-2.5"/>
<path class="st11" d="M123.2,26.7h-5.8v2.9c0,1.6,1.3,1.9,2.9,1.9h0c1.6,0,2.9-0.3,2.9-1.9V26.7z"/>
<path class="st11" d="M130.5,16.1c-0.1,0-0.2,0-0.3,0c-0.4-3.1-2.3-5.8-4.9-7.3c1.1-0.5,2.1-1,2.1-1l-3.5,0.4c0,0,0,0,0,0
	c0.3-0.5,0.6-1.1,0.8-1.8c-0.6,0.5-2.9,1-3.5,1.2c-0.2,0-0.5,0-0.7,0c-5.1,0-9.2,3.8-9.9,8.7c-0.1,0-0.3,0-0.4,0
	c-1,0.1-1.8,1.2-1.6,2.4s1.1,2.1,2.1,2c0.1,0,0.2,0,0.3-0.1c1.3,4,5.1,8,9.5,8c4.5,0,8.2-3.9,9.5-7.9c0.1,0,0.1,0,0.2,0
	c1,0.1,2-0.8,2.1-2S131.5,16.2,130.5,16.1z"/>
<g>
	<path class="st12" d="M128.1,15.7c0.1,0.2,0.2,0.4,0.4,0.4l1.8,0.5c-0.4-5.2-4.7-9.2-10-9.2c-5.3,0-9.6,4.1-10,9.3l2-0.5
		c0.2-0.1,0.4-0.2,0.4-0.4l1.5-3.4h12.3L128.1,15.7z"/>
</g>
<g transform="matrix( 1, 0, 0, 1, 0,0) ">
	<g>
		<g id="a_1_">
			<path class="st1" d="M118,23.1c0,0.6,0.2,1.2,0.7,1.6c0.5,0.4,1,0.7,1.7,0.7s1.2-0.2,1.7-0.7c0.5-0.4,0.7-1,0.7-1.6
				s-0.2-1.2-0.7-1.6c-0.5-0.4-1-0.7-1.7-0.7s-1.2,0.2-1.7,0.7C118.2,21.9,118,22.5,118,23.1 M118.1,17.5c0.2-0.3,0.3-0.6,0.3-1
				c0-0.4-0.1-0.7-0.3-1c-0.2-0.3-0.5-0.4-0.8-0.4s-0.6,0.1-0.8,0.4c-0.2,0.3-0.3,0.6-0.3,1c0,0.4,0.1,0.7,0.3,1
				c0.2,0.3,0.5,0.4,0.8,0.4C117.6,17.9,117.8,17.8,118.1,17.5"/>
		</g>
	</g>
	<path class="st1" d="M124.2,17.5c0.2-0.3,0.3-0.6,0.3-1c0-0.4-0.1-0.7-0.3-1c-0.2-0.3-0.5-0.4-0.8-0.4s-0.6,0.1-0.8,0.4
		c-0.2,0.3-0.3,0.6-0.3,1c0,0.4,0.1,0.7,0.3,1c0.2,0.3,0.5,0.4,0.8,0.4C123.7,17.9,124,17.8,124.2,17.5"/>
</g>
<path class="st12" d="M120.9,7.5c0,0,2.9-0.6,3.7-1.2c-0.5,1.7-1.5,2.9-1.5,2.9L120.9,7.5z"/>
<path class="st12" d="M123.4,8.1l4-0.4c0,0-3.6,1.9-4.6,2.1C121.8,9.9,123.4,8.1,123.4,8.1z"/>
<g>
	<g>
		<path class="st4" d="M145.2,92.5h7.7v5.2h-7.7V92.5z"/>
	</g>
</g>
<path class="st4" d="M107.7,92.5h23.8v5.2h-23.8V92.5z"/>
<path class="st4" d="M107.7,106.9h29.9v5.2h-29.9V106.9z"/>
<path class="st4" d="M107.7,121.3h16v5.2h-16V121.3z"/>
<path class="st4" d="M137.7,121.3h22.7v5.2h-22.7V121.3z"/>
<path class="st4" d="M107.7,135.7h37.5v5.2h-37.5V135.7z"/>
<path class="st1" d="M159.5,21.6h40v5h-40V21.6z"/>
</svg>
