<svg id="Layer_1" data-name="Layer 1" xmlns="http://www.w3.org/2000/svg" viewBox="0 0 380 200"><defs><style>.cls-1{fill:#fafafa;}.cls-2{fill:#dbdbdd;}.cls-10,.cls-3{fill:#52306c;}.cls-4{fill:#efedf2;}.cls-5,.cls-6{fill:#fff;}.cls-12,.cls-6{opacity:0.5;}.cls-7{fill:none;stroke:#52306c;}.cls-10,.cls-7,.cls-8{stroke-miterlimit:10;stroke-width:2px;}.cls-8,.cls-9{fill:#33174c;}.cls-10,.cls-8{stroke:#33174c;}.cls-11,.cls-12,.cls-13,.cls-14,.cls-15,.cls-16{fill:#a47cce;}.cls-13{opacity:0.8;}.cls-14{opacity:0.6;}.cls-15{opacity:0.4;}.cls-16{opacity:0.2;}</style></defs><title>Runnable New Illustrations</title><rect class="cls-1" width="380" height="200"/><rect class="cls-2" x="119" y="39" width="82" height="122"/><path class="cls-3" d="M200,40V160H120V40h80m2-2H118V162h84V38h0Z"/><rect class="cls-4" x="127.67" y="40" width="64.67" height="120"/><rect class="cls-5" x="160" y="40" width="20" height="120"/><rect class="cls-6" x="120" y="71" width="80" height="2"/><line class="cls-7" x1="120" y1="100.5" x2="200" y2="100.5"/><rect class="cls-6" x="119.75" y="101.5" width="80" height="2"/><path class="cls-3" d="M120,125H100.44a9,9,0,1,1,0-18h59.16a18.2,18.2,0,0,0,13-5.37l20-20,2.83,2.83-20,20A22.17,22.17,0,0,1,159.59,111H100.44a5,5,0,1,0,0,10H120v4Z"/><line class="cls-7" x1="120" y1="70" x2="200" y2="70"/><rect class="cls-6" x="120" y="131" width="80" height="2"/><line class="cls-7" x1="120" y1="130" x2="200" y2="130"/><rect class="cls-5" x="120" y="40" width="80" height="2"/><rect class="cls-8" x="190" y="54" width="100" height="70.32" rx="3.75" ry="3.75"/><path class="cls-9" d="M192.6,80.18l-20.75,20.75A17.21,17.21,0,0,1,159.61,106H100.45a10,10,0,0,0,0,20H118v-2H100.45a8,8,0,0,1,0-16h59.16a19.19,19.19,0,0,0,13.66-5.66L192.6,83,194,84.42l-19.33,19.33A21.18,21.18,0,0,1,159.61,110H100.45a6,6,0,0,0,0,12H118v-2H100.45a4,4,0,0,1,0-8h59.16a23.17,23.17,0,0,0,16.49-6.83l20.75-20.75Z"/><path class="cls-10" d="M190,64H290a0,0,0,0,1,0,0v66a4,4,0,0,1-4,4H194a4,4,0,0,1-4-4V64A0,0,0,0,1,190,64Z"/><path class="cls-11" d="M197.75,110.72h3.87v2.58h-3.87v-2.58Z"/><path class="cls-11" d="M201,110.72h3.87v2.58H201v-2.58Z"/><path class="cls-11" d="M204.17,110.72H208v2.58h-3.87v-2.58Z"/><path class="cls-11" d="M207.38,110.72h3.87v2.58h-3.87v-2.58Z"/><path class="cls-11" d="M210.59,110.72h3.87v2.58h-3.87v-2.58Z"/><path class="cls-11" d="M213.8,110.72h3.87v2.58H213.8v-2.58Z"/><path class="cls-11" d="M217,110.72h3.87v2.58H217v-2.58Z"/><path class="cls-11" d="M220.22,110.72h3.87v2.58h-3.87v-2.58Z"/><path class="cls-11" d="M230.41,110.72h3.87v2.58h-3.87v-2.58Z"/><path class="cls-11" d="M233.62,110.72h3.87v2.58h-3.87v-2.58Z"/><path class="cls-11" d="M236.83,110.72h3.87v2.58h-3.87v-2.58Z"/><path class="cls-11" d="M240,110.72h3.87v2.58H240v-2.58Z"/><path class="cls-11" d="M243.25,110.72h3.87v2.58h-3.87v-2.58Z"/><path class="cls-11" d="M246.46,110.72h3.87v2.58h-3.87v-2.58Z"/><path class="cls-11" d="M249.67,110.72h3.87v2.58h-3.87v-2.58Z"/><path class="cls-11" d="M252.88,110.72h3.87v2.58h-3.87v-2.58Z"/><path class="cls-11" d="M256.09,110.72H260v2.58h-3.87v-2.58Z"/><path class="cls-11" d="M259.3,110.72h3.87v2.58H259.3v-2.58Z"/><path class="cls-11" d="M262.51,110.72h3.87v2.58h-3.87v-2.58Z"/><path class="cls-11" d="M265.72,110.72h3.87v2.58h-3.87v-2.58Z"/><path class="cls-11" d="M275.92,110.72h3.87v2.58h-3.87v-2.58Z"/><path class="cls-11" d="M279.13,110.72H283v2.58h-3.87v-2.58Z"/><path class="cls-11" d="M197.75,117.92h3.87v2.58h-3.87v-2.58Z"/><path class="cls-11" d="M201,117.92h3.87v2.58H201v-2.58Z"/><path class="cls-11" d="M204.17,117.92H208v2.58h-3.87v-2.58Z"/><path class="cls-11" d="M207.38,117.92h3.87v2.58h-3.87v-2.58Z"/><path class="cls-11" d="M210.59,117.92h3.87v2.58h-3.87v-2.58Z"/><path class="cls-11" d="M213.8,117.92h3.87v2.58H213.8v-2.58Z"/><path class="cls-11" d="M224,117.92h3.87v2.58H224v-2.58Z"/><path class="cls-11" d="M227.2,117.92h3.87v2.58H227.2v-2.58Z"/><path class="cls-11" d="M197.75,125.12h3.87v2.58h-3.87v-2.58Z"/><path class="cls-11" d="M201,125.12h3.87v2.58H201v-2.58Z"/><path class="cls-11" d="M204.17,125.12H208v2.58h-3.87v-2.58Z"/><path class="cls-11" d="M207.38,125.12h3.87v2.58h-3.87v-2.58Z"/><path class="cls-11" d="M217.57,125.12h3.87v2.58h-3.87v-2.58Z"/><path class="cls-11" d="M220.78,125.12h3.87v2.58h-3.87v-2.58Z"/><path class="cls-11" d="M224,125.12h3.87v2.58H224v-2.58Z"/><path class="cls-11" d="M234.19,125.12h3.87v2.58h-3.87v-2.58Z"/><path class="cls-11" d="M237.4,125.12h3.87v2.58H237.4v-2.58Z"/><path class="cls-11" d="M240.61,125.12h3.87v2.58h-3.87v-2.58Z"/><path class="cls-11" d="M243.82,125.12h3.87v2.58h-3.87v-2.58Z"/><path class="cls-11" d="M254,125.12h3.87v2.58H254v-2.58Z"/><path class="cls-11" d="M257.22,125.12h3.87v2.58h-3.87v-2.58Z"/><path class="cls-11" d="M260.43,125.12h3.87v2.58h-3.87v-2.58Z"/><path class="cls-11" d="M263.64,125.12h3.87v2.58h-3.87v-2.58Z"/><path class="cls-11" d="M266.85,125.12h3.87v2.58h-3.87v-2.58Z"/><path class="cls-11" d="M270.06,125.12h3.87v2.58h-3.87v-2.58Z"/><path class="cls-11" d="M273.27,125.12h3.87v2.58h-3.87v-2.58Z"/><rect class="cls-11" x="198.5" y="71.5" width="24" height="24"/><rect class="cls-12" x="258.5" y="71.5" width="24" height="24"/><rect class="cls-11" x="258.5" y="80.13" width="24" height="15.37"/><rect class="cls-3" x="275.5" y="88.5" width="5" height="5"/><rect class="cls-3" x="215.5" y="88.5" width="5" height="5" rx="2.5" ry="2.5"/><rect class="cls-11" x="253.5" y="82.5" width="5" height="2"/><rect class="cls-13" x="248.5" y="82.5" width="5" height="2"/><rect class="cls-14" x="243.5" y="82.5" width="5" height="2"/><rect class="cls-15" x="238.5" y="82.5" width="5" height="2"/><rect class="cls-16" x="233.5" y="82.5" width="5" height="2"/><path class="cls-12" d="M279.67,82.5H233.53a3.42,3.42,0,0,0-6.56,0H200.33v2H227a3.42,3.42,0,0,0,6.56,0h46.13v-2Z"/></svg>