<svg id="Layer_1" data-name="Layer 1" xmlns="http://www.w3.org/2000/svg" viewBox="0 0 380 200"><defs><style>.cls-1{fill:#fafafa;}.cls-12,.cls-2{fill:#52306c;}.cls-3{fill:#a47cce;}.cls-10,.cls-11,.cls-4,.cls-5,.cls-6,.cls-7,.cls-8,.cls-9{fill:#fff;fill-opacity:0.7;stroke:#52306c;stroke-miterlimit:10;}.cls-5{opacity:0.5;}.cls-6{opacity:0.85;}.cls-7{opacity:0.15;}.cls-8{opacity:0.95;}.cls-9{opacity:0.3;}.cls-10{opacity:0.7;}.cls-11{opacity:0.07;}.cls-12{opacity:0.25;}.cls-13{fill:#738ee5;}.cls-14{fill:#ffed43;}.cls-15{fill:#e4daef;}</style></defs><title>woah</title><rect class="cls-1" width="380" height="200"/><rect class="cls-2" x="40" y="160.9" width="30" height="8" rx="4" ry="4"/><rect class="cls-3" x="51" y="32" width="118" height="118" rx="11" ry="11"/><path class="cls-2" d="M158,33a10,10,0,0,1,10,10v96a10,10,0,0,1-10,10H62a10,10,0,0,1-10-10V43A10,10,0,0,1,62,33h96m0-2H62A12,12,0,0,0,50,43v96a12,12,0,0,0,12,12h96a12,12,0,0,0,12-12V43a12,12,0,0,0-12-12h0Z"/><circle class="cls-4" cx="110" cy="61" r="8.44"/><circle class="cls-5" cx="110" cy="121" r="7.09"/><circle class="cls-6" cx="140" cy="91" r="7.76"/><circle class="cls-7" cx="80" cy="91" r="6.75"/><circle class="cls-8" cx="131.21" cy="69.79" r="8.1" transform="translate(-10.92 113.22) rotate(-45)"/><circle class="cls-9" cx="88.79" cy="112.21" r="6.75" transform="translate(-53.34 95.65) rotate(-45)"/><circle class="cls-10" cx="131.21" cy="112.21" r="7.42" transform="translate(-40.92 125.65) rotate(-45)"/><circle class="cls-11" cx="88.79" cy="69.79" r="6.75" transform="translate(-23.34 83.22) rotate(-45)"/><rect class="cls-12" x="50" y="161" width="120" height="8" rx="4" ry="4"/><rect class="cls-3" x="181" y="32" width="22" height="22" rx="3" ry="3"/><path class="cls-2" d="M200,33a2,2,0,0,1,2,2V51a2,2,0,0,1-2,2H184a2,2,0,0,1-2-2V35a2,2,0,0,1,2-2h16m0-2H184a4,4,0,0,0-4,4V51a4,4,0,0,0,4,4h16a4,4,0,0,0,4-4V35a4,4,0,0,0-4-4h0Z"/><rect class="cls-12" x="210" y="41" width="120" height="4" rx="2" ry="2"/><rect class="cls-2" x="210" y="41" width="36.41" height="4" rx="2" ry="2"/><rect class="cls-13" x="181" y="64" width="22" height="22" rx="3" ry="3"/><path class="cls-2" d="M200,65a2,2,0,0,1,2,2V83a2,2,0,0,1-2,2H184a2,2,0,0,1-2-2V67a2,2,0,0,1,2-2h16m0-2H184a4,4,0,0,0-4,4V83a4,4,0,0,0,4,4h16a4,4,0,0,0,4-4V67a4,4,0,0,0-4-4h0Z"/><rect class="cls-12" x="210" y="73" width="120" height="4" rx="2" ry="2"/><rect class="cls-2" x="210" y="73" width="29" height="4" rx="2" ry="2"/><rect class="cls-14" x="181" y="96" width="22" height="22" rx="3" ry="3"/><path class="cls-2" d="M200,97a2,2,0,0,1,2,2v16a2,2,0,0,1-2,2H184a2,2,0,0,1-2-2V99a2,2,0,0,1,2-2h16m0-2H184a4,4,0,0,0-4,4v16a4,4,0,0,0,4,4h16a4,4,0,0,0,4-4V99a4,4,0,0,0-4-4h0Z"/><rect class="cls-12" x="210" y="105" width="120" height="4" rx="2" ry="2"/><rect class="cls-2" x="210" y="105" width="14.5" height="4" rx="2" ry="2"/><rect class="cls-15" x="181" y="128" width="22" height="22" rx="3" ry="3"/><path class="cls-2" d="M200,129a2,2,0,0,1,2,2v16a2,2,0,0,1-2,2H184a2,2,0,0,1-2-2V131a2,2,0,0,1,2-2h16m0-2H184a4,4,0,0,0-4,4v16a4,4,0,0,0,4,4h16a4,4,0,0,0,4-4V131a4,4,0,0,0-4-4h0Z"/><rect class="cls-12" x="210" y="137" width="120" height="4" rx="2" ry="2"/><rect class="cls-2" x="210" y="137" width="29" height="4" rx="2" ry="2"/><path class="cls-2" d="M192,47.17c-0.08.66,0,.69,0.26,0.69h0.36c0.22,0,.22,0,0.37-0.68l0.45-2.09-1.19,0Zm-2.87-1.8-1.27.49,0.38,1.28c0.21,0.71.07,0.71,0.43,0.71H189c0.31,0,.31,0,0.27-0.71Zm0.27-6.8c-2,0-3.43.69-3.43,1.86h1c0.21,1.9-1.22,3-1.28,4.14l-0.16,2.57c0,0.72,0,.71.37,0.71h0.22c0.32,0,.3,0,0.46-0.71l0.53-1.67a8,8,0,0,0,2.23-1.1,23,23,0,0,0,4.75.06l0.59,2.75c0.14,0.66.21,0.68,0.45,0.68h0.37c0.25,0,.22,0,0.22-0.69V43.94c1.68-1.2,1.39-3.44,1.39-4.45l1.92-.8a0.86,0.86,0,0,0,.4-0.84C198,37,197,36.34,195.65,37.44a4.36,4.36,0,0,1-2,1.14h-4.17Z"/><path class="cls-2" d="M200,70.51a13.9,13.9,0,0,0-1.23-1.36l0.39-.48h-1.25c-1.81,0-2.28,2.19-3.28,3.16-0.26.24-.76,0.51-2.72,0.1-3.3-.71-4.17.92-4.17,2.12,0,1.54.54,1.84-.52,3.44a1.2,1.2,0,0,0-.24.6l-0.14,3.38h0.49l0.42-3.13,2.74-2.39a12.07,12.07,0,0,0,3.61.56,2.69,2.69,0,0,0,1.82-.61l1.47,1L197,80.12h0.44l0.7-3.2a0.89,0.89,0,0,0-.13-0.7l-1.2-1.8a10,10,0,0,0,.38-1.22l0.41-1.64h2C200.29,71.55,200.43,71.08,200,70.51Zm-12.63,3.94c0-.74,0-1.9.89-2.29-2-.8-2.45.66-2.66,1.4a4.09,4.09,0,0,1-.81,2.37C186.21,77.18,187.33,76.81,187.33,74.45Zm3.17,1.91-0.91,1.56a1,1,0,0,0-.1.79l0.8,2.75h0.49l-0.55-3,1.53-1.72Zm4,5.1H195l0.58-4.7-1.23.24Z"/><path class="cls-2" d="M196.17,106.22l0.9-.35a7.8,7.8,0,0,0-3.45-5.12A8.6,8.6,0,0,0,196.17,106.22Zm1.33-5.47a4.77,4.77,0,0,0,0,4.49A4.88,4.88,0,0,0,197.5,100.75Zm-1.06,5-1.67,1.36a6.06,6.06,0,0,0-3.45-1.21,3.92,3.92,0,0,0-3.58,5.81,1.29,1.29,0,0,0-2.34.86,2.36,2.36,0,0,0,.09.64h8.44c0-1-.8-0.94-2.94-0.94a3.82,3.82,0,0,0,1.67-3.18,5,5,0,0,1,.06,2.33,4.57,4.57,0,0,1,3,1.72,0.23,0.23,0,0,0,.16.07h0.88c0.47,0,.45-0.06.23-0.47L196.07,111l1.3-2.38c0.88,0,1.88-.11,1.88-0.8A2.47,2.47,0,0,0,196.44,105.77Z"/><path class="cls-2" d="M198.69,135.37v-1.49a0.14,0.14,0,0,0-.25-0.09L197.39,135a3.63,3.63,0,0,0-2,0l-1.05-1.18a0.14,0.14,0,0,0-.25.08v3.2h-5c-2.69,0-2.72-3.53-.3-3.53a1.93,1.93,0,0,1,1.31.56c0.63,0.6,1.29-.07.77-0.66a2.71,2.71,0,0,0-2.1-1c-3.68,0-4,5-.5,6v0c0,2.36-1.22,2.59-1.28,3.59l-0.16,2.54c0,0.72,0,.71.37,0.71h0.22c0.31,0,.29,0,0.46-0.71l0.52-1.93a10.45,10.45,0,0,0,3-1.67,18.77,18.77,0,0,0,3.89,0l0.59,3.63c0.1,0.66.21,0.67,0.44,0.67h0.37c0.25,0,.22,0,0.22-0.68V140C197,139,198.69,138.56,198.69,135.37Zm-3.17,1.71a0.46,0.46,0,0,1-.46-0.46A0.46,0.46,0,1,1,195.52,137.08Zm1.29-.46a0.49,0.49,0,0,1,.46-0.46,0.47,0.47,0,0,1,.47.46,0.46,0.46,0,0,1-.47.46A0.47,0.47,0,0,1,196.81,136.63Zm-3.54,8c-0.06.72,0,.68,0.26,0.68h0.36c0.22,0,.25,0,0.37-0.67l0.53-3.07-1.27.12Zm-2.83-2.15-1.26.39,0.38,1.72c0.16,0.71.07,0.71,0.42,0.71h0.28c0.29,0,.29,0,0.27-0.71Z"/></svg>