<svg id="Layer_1" data-name="Layer 1" xmlns="http://www.w3.org/2000/svg" xmlns:xlink="http://www.w3.org/1999/xlink" viewBox="0 0 380 200"><defs><style>.cls-1{fill:#fafafa;}.cls-2,.cls-5{fill:#52306c;}.cls-3{fill:#a47cce;}.cls-4{fill:url(#linear-gradient);}.cls-5{stroke:#52306c;stroke-miterlimit:10;}.cls-6{fill:#3ccb5a;}.cls-7{fill:#105b1c;}</style><linearGradient id="linear-gradient" x1="126.51" y1="1283" x2="180.51" y2="1283" gradientTransform="translate(0 -1172)" gradientUnits="userSpaceOnUse"><stop offset="0" stop-color="#834fab"/><stop offset="1" stop-color="#834fab"/></linearGradient></defs><title>data-check</title><rect class="cls-1" width="380" height="200"/><polygon class="cls-2" points="180.3 95.17 232.65 64.42 180.3 33.23 127.05 64.42 180.3 95.17"/><polygon class="cls-3" points="233.7 125.93 180 157.28 179.7 95.92 233.7 64.72 233.7 125.93"/><polygon class="cls-4" points="126.45 126.97 179.55 157.28 180.45 95.92 126.45 64.72 126.45 126.97"/><path class="cls-5" d="M180,33.23l-54,31.2v62.25l54,31.2,54-31.2V64.42Zm-0.15,123h0Zm52.8-30.3-51.9,30V95.48H179.4v60.45l-51.9-30v-60l52.5,30,0.75-1.2-52.5-30L180,34.88l51.75,29.85-52.5,30,0.75,1.2,52.65-30v60h0Z"/><path class="cls-6" d="M231.5,166.13a27.88,27.88,0,1,1,27.88-27.89,27.88,27.88,0,0,1-27.88,27.89h0Z"/><path class="cls-2" d="M231.5,111.36a26.88,26.88,0,1,1-26.89,26.88,26.88,26.88,0,0,1,26.89-26.88h0m0-2a28.88,28.88,0,1,0,28.89,28.88,28.88,28.88,0,0,0-28.89-28.88h0Z"/><path class="cls-7" d="M216.55,140.24a0.58,0.58,0,0,0-.61.55h0a0.76,0.76,0,0,0,.14.42L225.3,152a0.76,0.76,0,0,0,.42.24h0.09a0.47,0.47,0,0,0,.38-0.24l20.7-26.53a0.58,0.58,0,0,0-.85-0.8h0L226.1,143.24a0.94,0.94,0,0,1-.94.19l-8.42-3.19A0.23,0.23,0,0,0,216.55,140.24Z"/></svg>