<svg id="Layer_1" data-name="Layer 1" xmlns="http://www.w3.org/2000/svg" viewBox="0 0 380 200"><defs><style>.cls-1{fill:#fafafa;}.cls-2{fill:#f3f2ee;}.cls-14,.cls-15,.cls-3{fill:#52306c;}.cls-4{fill:#a47cce;}.cls-5{fill:#b8acc6;}.cls-6{opacity:0.1;}.cls-10,.cls-7{fill:#bbbdc4;}.cls-8{fill:#738ee5;}.cls-9{fill:#f7eeff;}.cls-14,.cls-9{opacity:0.25;}.cls-14,.cls-15,.cls-9{isolation:isolate;}.cls-10,.cls-13,.cls-17,.cls-18,.cls-19{stroke:#52306c;stroke-miterlimit:10;}.cls-11,.cls-13{fill:#ffed43;}.cls-12{fill:#ccadd2;}.cls-13,.cls-17{stroke-width:2px;}.cls-15{font-size:6px;font-family:BLOKK Neue;}.cls-16{fill:#5f3b7f;}.cls-17,.cls-19{fill:none;}.cls-18{fill:#e6e8ef;}</style></defs><title>data-migration</title><rect class="cls-1" width="380" height="200"/><path class="cls-2" d="M69.59,204.5V64.12a3.06,3.06,0,0,1,3-3.12h232a3.06,3.06,0,0,1,3,3.12V204.5h-238Z"/><path class="cls-3" d="M304.59,62a2,2,0,0,1,2,2V203h-236V64a2,2,0,0,1,2-2h232m0-2h-232a4,4,0,0,0-4,4V205h240V64a4,4,0,0,0-4-4h0Z"/><path class="cls-4" d="M90.44,61V46a3,3,0,0,1,3-3h192a3,3,0,0,1,3,3V61h-198Z"/><path class="cls-3" d="M285.44,44a2,2,0,0,1,2,2V60h-196V46a2,2,0,0,1,2-2h192m0-2h-192a4,4,0,0,0-4,4V62h200V46a4,4,0,0,0-4-4h0Z"/><path class="cls-2" d="M132.33,61V16.93a3,3,0,0,1,3-3H243a3,3,0,0,1,3,3V61H132.33Z"/><path class="cls-3" d="M243,14.93a2,2,0,0,1,2,2V60H133.33V16.93a2,2,0,0,1,2-2H243m0-2H135.33a4,4,0,0,0-4,4V62H247V16.93a4,4,0,0,0-4-4h0Z"/><path class="cls-2" d="M69.59,129V64a3,3,0,0,1,3-3h232a3,3,0,0,1,3,3v65h-238Z"/><path class="cls-3" d="M304.59,62a2,2,0,0,1,2,2v64h-236V64a2,2,0,0,1,2-2h232m0-2h-232a4,4,0,0,0-4,4v66h240V64a4,4,0,0,0-4-4h0Z"/><path class="cls-5" d="M86,159a3,3,0,0,1-3-3V61H293v95a3,3,0,0,1-3,3H86Z"/><path class="cls-3" d="M292,62v94a2,2,0,0,1-2,2H86a2,2,0,0,1-2-2V62H292m2-2H82v96a4,4,0,0,0,4,4H290a4,4,0,0,0,4-4V60h0Z"/><g class="cls-6"><polygon class="cls-3" points="294.01 159.95 284.01 143.8 92.01 143.8 82.01 159.95 294.01 159.95"/></g><rect class="cls-7" x="131.88" y="120.43" width="2.93" height="15.03"/><path class="cls-3" d="M134.31,120.93v14h-1.93v-14h1.93m1-1h-3.93v16h3.93v-16h0Z"/><path class="cls-7" d="M140.35,138.25v-3h1.52l4.27-7.77a1.09,1.09,0,0,0-.31-1.4L141,122.51a1.08,1.08,0,0,0-.65-0.21h-0.5v-3h0.5a4.06,4.06,0,0,1,2.43.8l4.84,3.57a4.1,4.1,0,0,1,1.16,5.26l-4.7,8.55a1.51,1.51,0,0,1-1.32.78h-2.41Z"/><path class="cls-3" d="M140.35,119.79a3.59,3.59,0,0,1,2.13.7l4.84,3.57a3.59,3.59,0,0,1,1,4.62l-4.7,8.55a1,1,0,0,1-.89.52h-1.9v-2h1.32l4.42-8a1.6,1.6,0,0,0-.45-2l-4.84-3.57a1.58,1.58,0,0,0-.94-0.31v-2m0-1h-1v4h1a0.58,0.58,0,0,1,.35.12l4.84,3.57a0.59,0.59,0,0,1,.17.76l-4.13,7.51h-1.73v4h2.9a2,2,0,0,0,1.76-1l4.7-8.55a4.6,4.6,0,0,0-1.3-5.91l-4.84-3.57a4.56,4.56,0,0,0-2.72-.89h0v0Z"/><path class="cls-7" d="M123.94,138.25a1.51,1.51,0,0,1-1.32-.78l-4.7-8.55a4.1,4.1,0,0,1,1.16-5.26l4.84-3.57a4.07,4.07,0,0,1,2.43-.8h0.5v3h-0.5a1.09,1.09,0,0,0-.65.21l-4.84,3.57a1.09,1.09,0,0,0-.31,1.4l4.27,7.77h1.52v3h-2.4Z"/><path class="cls-3" d="M126.35,119.79v2a1.58,1.58,0,0,0-.94.31l-4.84,3.57a1.6,1.6,0,0,0-.45,2l4.42,8h1.32v2H124a1,1,0,0,1-.89-0.52l-4.7-8.55a3.59,3.59,0,0,1,1-4.62l4.84-3.57a3.59,3.59,0,0,1,2.13-.7m1-1h-1a4.56,4.56,0,0,0-2.72.89l-4.84,3.57a4.6,4.6,0,0,0-1.3,5.91l4.7,8.55a2,2,0,0,0,1.76,1h2.9v-4h-1.73L121,127.24a0.59,0.59,0,0,1,.17-0.76l4.84-3.57a0.58,0.58,0,0,1,.35-0.12h1v-4h0Z"/><rect class="cls-8" x="126.35" y="128" width="14" height="14"/><path class="cls-3" d="M139.35,129v12h-12V129h12m2-2h-16v16h16V127h0Z"/><polygon class="cls-9" points="172 158.87 157.33 158.87 129 81.13 143.67 81.13 172 158.87"/><polygon class="cls-9" points="206.17 158.87 177.33 158.87 149 81.13 177.83 81.13 206.17 158.87"/><g class="cls-6"><rect class="cls-3" x="286.08" y="60" width="7.99" height="100"/></g><circle class="cls-3" cx="133.35" cy="135" r="1"/><circle class="cls-3" cx="136.35" cy="135" r="1"/><g class="cls-6"><rect class="cls-3" x="82.01" y="60" width="7.99" height="100"/></g><circle class="cls-3" cx="130.35" cy="135" r="1"/><rect class="cls-10" x="131.33" y="88.13" width="4.03" height="32.79"/><rect class="cls-4" x="83.01" y="61" width="210" height="30"/><path class="cls-3" d="M292,62V90H84V62H292m2-2H82V92H294V60h0Z"/><rect class="cls-11" x="95.01" y="61" width="6" height="6"/><path class="cls-3" d="M100,62v4H96V62h4m2-2H94v8h8V60h0Z"/><rect class="cls-11" x="101.01" y="61" width="6" height="6"/><path class="cls-3" d="M106,62v4h-4V62h4m2-2h-8v8h8V60h0Z"/><rect class="cls-11" x="107.01" y="61" width="6" height="6"/><path class="cls-3" d="M112,62v4h-4V62h4m2-2h-8v8h8V60h0Z"/><rect class="cls-11" x="113.01" y="61" width="6" height="6"/><path class="cls-3" d="M118,62v4h-4V62h4m2-2h-8v8h8V60h0Z"/><rect class="cls-11" x="119.01" y="61" width="6" height="6"/><path class="cls-3" d="M124,62v4h-4V62h4m2-2h-8v8h8V60h0Z"/><rect class="cls-11" x="125.01" y="61" width="6" height="6"/><path class="cls-3" d="M130,62v4h-4V62h4m2-2h-8v8h8V60h0Z"/><rect class="cls-11" x="83.01" y="67" width="6" height="6"/><path class="cls-3" d="M88,68v4H84V68h4m2-2H82v8h8V66h0Z"/><rect class="cls-11" x="89.01" y="67" width="6" height="6"/><path class="cls-3" d="M94,68v4H90V68h4m2-2H88v8h8V66h0Z"/><rect class="cls-11" x="95.01" y="67" width="6" height="6"/><path class="cls-3" d="M100,68v4H96V68h4m2-2H94v8h8V66h0Z"/><rect class="cls-11" x="101.01" y="67" width="6" height="6"/><path class="cls-3" d="M106,68v4h-4V68h4m2-2h-8v8h8V66h0Z"/><rect class="cls-11" x="113.01" y="67" width="6" height="6"/><path class="cls-3" d="M118,68v4h-4V68h4m2-2h-8v8h8V66h0Z"/><rect class="cls-11" x="125.01" y="67" width="6" height="6"/><path class="cls-3" d="M130,68v4h-4V68h4m2-2h-8v8h8V66h0Z"/><rect class="cls-11" x="83.01" y="73" width="6" height="6"/><path class="cls-3" d="M88,74v4H84V74h4m2-2H82v8h8V72h0Z"/><rect class="cls-11" x="95.01" y="73" width="6" height="6"/><path class="cls-3" d="M100,74v4H96V74h4m2-2H94v8h8V72h0Z"/><rect class="cls-11" x="107.01" y="73" width="6" height="6"/><path class="cls-3" d="M112,74v4h-4V74h4m2-2h-8v8h8V72h0Z"/><rect class="cls-11" x="113.01" y="73" width="6" height="6"/><path class="cls-3" d="M118,74v4h-4V74h4m2-2h-8v8h8V72h0Z"/><rect class="cls-11" x="119.01" y="73" width="6" height="6"/><path class="cls-3" d="M124,74v4h-4V74h4m2-2h-8v8h8V72h0Z"/><rect class="cls-11" x="125.01" y="73" width="6" height="6"/><path class="cls-3" d="M130,74v4h-4V74h4m2-2h-8v8h8V72h0Z"/><rect class="cls-11" x="83.01" y="79" width="6" height="6"/><path class="cls-3" d="M88,80v4H84V80h4m2-2H82v8h8V78h0Z"/><rect class="cls-11" x="89.01" y="79" width="6" height="6"/><path class="cls-3" d="M94,80v4H90V80h4m2-2H88v8h8V78h0Z"/><rect class="cls-11" x="95.01" y="79" width="6" height="6"/><path class="cls-3" d="M100,80v4H96V80h4m2-2H94v8h8V78h0Z"/><rect class="cls-11" x="101.01" y="79" width="6" height="6"/><path class="cls-3" d="M106,80v4h-4V80h4m2-2h-8v8h8V78h0Z"/><rect class="cls-12" x="107.01" y="79" width="6" height="6"/><path class="cls-3" d="M112,80v4h-4V80h4m2-2h-8v8h8V78h0Z"/><rect class="cls-11" x="113.01" y="79" width="6" height="6"/><path class="cls-3" d="M118,80v4h-4V80h4m2-2h-8v8h8V78h0Z"/><rect class="cls-11" x="119.01" y="79" width="6" height="6"/><path class="cls-3" d="M124,80v4h-4V80h4m2-2h-8v8h8V78h0Z"/><rect class="cls-11" x="125.01" y="79" width="6" height="6"/><path class="cls-3" d="M130,80v4h-4V80h4m2-2h-8v8h8V78h0Z"/><rect class="cls-11" x="83.01" y="85" width="6" height="6"/><path class="cls-3" d="M88,86v4H84V86h4m2-2H82v8h8V84h0Z"/><rect class="cls-11" x="89.01" y="85" width="6" height="6"/><path class="cls-3" d="M94,86v4H90V86h4m2-2H88v8h8V84h0Z"/><rect class="cls-11" x="101.01" y="85" width="6" height="6"/><path class="cls-3" d="M106,86v4h-4V86h4m2-2h-8v8h8V84h0Z"/><rect class="cls-11" x="107.01" y="85" width="6" height="6"/><path class="cls-3" d="M112,86v4h-4V86h4m2-2h-8v8h8V84h0Z"/><rect class="cls-11" x="113.01" y="85" width="6" height="6"/><path class="cls-3" d="M118,86v4h-4V86h4m2-2h-8v8h8V84h0Z"/><rect class="cls-11" x="119.01" y="85" width="6" height="6"/><path class="cls-3" d="M124,86v4h-4V86h4m2-2h-8v8h8V84h0Z"/><rect class="cls-11" x="125.01" y="85" width="6" height="6"/><path class="cls-3" d="M130,86v4h-4V86h4m2-2h-8v8h8V84h0Z"/><rect class="cls-11" x="131.01" y="61" width="6" height="6"/><path class="cls-3" d="M136,62v4h-4V62h4m2-2h-8v8h8V60h0Z"/><rect class="cls-11" x="143.01" y="61" width="6" height="6"/><path class="cls-3" d="M148,62v4h-4V62h4m2-2h-8v8h8V60h0Z"/><rect class="cls-11" x="149.01" y="61" width="6" height="6"/><path class="cls-3" d="M154,62v4h-4V62h4m2-2h-8v8h8V60h0Z"/><rect class="cls-11" x="155.01" y="61" width="6" height="6"/><path class="cls-3" d="M160,62v4h-4V62h4m2-2h-8v8h8V60h0Z"/><rect class="cls-11" x="161.01" y="61" width="6" height="6"/><path class="cls-3" d="M166,62v4h-4V62h4m2-2h-8v8h8V60h0Z"/><rect class="cls-11" x="167.01" y="61" width="6" height="6"/><path class="cls-3" d="M172,62v4h-4V62h4m2-2h-8v8h8V60h0Z"/><rect class="cls-11" x="173.01" y="61" width="6" height="6"/><path class="cls-3" d="M178,62v4h-4V62h4m2-2h-8v8h8V60h0Z"/><rect class="cls-11" x="131.01" y="67" width="6" height="6"/><path class="cls-3" d="M136,68v4h-4V68h4m2-2h-8v8h8V66h0Z"/><rect class="cls-8" x="137.01" y="67" width="6" height="6"/><path class="cls-3" d="M142,68v4h-4V68h4m2-2h-8v8h8V66h0Z"/><rect class="cls-11" x="143.01" y="67" width="6" height="6"/><path class="cls-3" d="M148,68v4h-4V68h4m2-2h-8v8h8V66h0Z"/><rect class="cls-11" x="161.01" y="67" width="6" height="6"/><path class="cls-3" d="M166,68v4h-4V68h4m2-2h-8v8h8V66h0Z"/><rect class="cls-11" x="167.01" y="67" width="6" height="6"/><path class="cls-3" d="M172,68v4h-4V68h4m2-2h-8v8h8V66h0Z"/><rect class="cls-11" x="173.01" y="67" width="6" height="6"/><path class="cls-3" d="M178,68v4h-4V68h4m2-2h-8v8h8V66h0Z"/><rect class="cls-11" x="131.01" y="73" width="6" height="6"/><path class="cls-3" d="M136,74v4h-4V74h4m2-2h-8v8h8V72h0Z"/><rect class="cls-11" x="137.01" y="73" width="6" height="6"/><path class="cls-3" d="M142,74v4h-4V74h4m2-2h-8v8h8V72h0Z"/><rect class="cls-11" x="143.01" y="73" width="6" height="6"/><path class="cls-3" d="M148,74v4h-4V74h4m2-2h-8v8h8V72h0Z"/><rect class="cls-11" x="149.01" y="73" width="6" height="6"/><path class="cls-3" d="M154,74v4h-4V74h4m2-2h-8v8h8V72h0Z"/><rect class="cls-11" x="155.01" y="73" width="6" height="6"/><path class="cls-3" d="M160,74v4h-4V74h4m2-2h-8v8h8V72h0Z"/><rect class="cls-11" x="161.01" y="73" width="6" height="6"/><path class="cls-3" d="M166,74v4h-4V74h4m2-2h-8v8h8V72h0Z"/><rect class="cls-11" x="173.01" y="73" width="6" height="6"/><path class="cls-3" d="M178,74v4h-4V74h4m2-2h-8v8h8V72h0Z"/><rect class="cls-11" x="131.01" y="79" width="6" height="6"/><path class="cls-3" d="M136,80v4h-4V80h4m2-2h-8v8h8V78h0Z"/><rect class="cls-11" x="137.01" y="79" width="6" height="6"/><path class="cls-3" d="M142,80v4h-4V80h4m2-2h-8v8h8V78h0Z"/><rect class="cls-11" x="149.01" y="79" width="6" height="6"/><path class="cls-3" d="M154,80v4h-4V80h4m2-2h-8v8h8V78h0Z"/><rect class="cls-11" x="155.01" y="79" width="6" height="6"/><path class="cls-3" d="M160,80v4h-4V80h4m2-2h-8v8h8V78h0Z"/><rect class="cls-11" x="161.01" y="79" width="6" height="6"/><path class="cls-3" d="M166,80v4h-4V80h4m2-2h-8v8h8V78h0Z"/><rect class="cls-11" x="167.01" y="79" width="6" height="6"/><path class="cls-3" d="M172,80v4h-4V80h4m2-2h-8v8h8V78h0Z"/><rect class="cls-11" x="173.01" y="79" width="6" height="6"/><path class="cls-3" d="M178,80v4h-4V80h4m2-2h-8v8h8V78h0Z"/><rect class="cls-12" x="131.01" y="85" width="6" height="6"/><path class="cls-3" d="M136,86v4h-4V86h4m2-2h-8v8h8V84h0Z"/><rect class="cls-11" x="137.01" y="85" width="6" height="6"/><path class="cls-3" d="M142,86v4h-4V86h4m2-2h-8v8h8V84h0Z"/><rect class="cls-11" x="143.01" y="85" width="6" height="6"/><path class="cls-3" d="M148,86v4h-4V86h4m2-2h-8v8h8V84h0Z"/><rect class="cls-11" x="149.01" y="85" width="6" height="6"/><path class="cls-3" d="M154,86v4h-4V86h4m2-2h-8v8h8V84h0Z"/><rect class="cls-11" x="155.01" y="85" width="6" height="6"/><path class="cls-3" d="M160,86v4h-4V86h4m2-2h-8v8h8V84h0Z"/><rect class="cls-11" x="161.01" y="85" width="6" height="6"/><path class="cls-3" d="M166,86v4h-4V86h4m2-2h-8v8h8V84h0Z"/><rect class="cls-11" x="167.01" y="85" width="6" height="6"/><path class="cls-3" d="M172,86v4h-4V86h4m2-2h-8v8h8V84h0Z"/><rect class="cls-11" x="173.01" y="85" width="6" height="6"/><path class="cls-3" d="M178,86v4h-4V86h4m2-2h-8v8h8V84h0Z"/><rect class="cls-11" x="179.01" y="61" width="6" height="6"/><path class="cls-3" d="M184,62v4h-4V62h4m2-2h-8v8h8V60h0Z"/><rect class="cls-11" x="185.01" y="61" width="6" height="6"/><path class="cls-3" d="M190,62v4h-4V62h4m2-2h-8v8h8V60h0Z"/><rect class="cls-11" x="191.01" y="61" width="6" height="6"/><path class="cls-3" d="M196,62v4h-4V62h4m2-2h-8v8h8V60h0Z"/><rect class="cls-11" x="197.01" y="61" width="6" height="6"/><path class="cls-3" d="M202,62v4h-4V62h4m2-2h-8v8h8V60h0Z"/><rect class="cls-11" x="203.01" y="61" width="6" height="6"/><path class="cls-3" d="M208,62v4h-4V62h4m2-2h-8v8h8V60h0Z"/><rect class="cls-11" x="209.01" y="61" width="6" height="6"/><path class="cls-3" d="M214,62v4h-4V62h4m2-2h-8v8h8V60h0Z"/><rect class="cls-11" x="215.01" y="61" width="6" height="6"/><path class="cls-3" d="M220,62v4h-4V62h4m2-2h-8v8h8V60h0Z"/><rect class="cls-11" x="221.01" y="61" width="6" height="6"/><path class="cls-3" d="M226,62v4h-4V62h4m2-2h-8v8h8V60h0Z"/><rect class="cls-8" x="179.01" y="67" width="6" height="6"/><path class="cls-3" d="M184,68v4h-4V68h4m2-2h-8v8h8V66h0Z"/><rect class="cls-11" x="185.01" y="67" width="6" height="6"/><path class="cls-3" d="M190,68v4h-4V68h4m2-2h-8v8h8V66h0Z"/><rect class="cls-11" x="191.01" y="67" width="6" height="6"/><path class="cls-3" d="M196,68v4h-4V68h4m2-2h-8v8h8V66h0Z"/><rect class="cls-11" x="197.01" y="67" width="6" height="6"/><path class="cls-3" d="M202,68v4h-4V68h4m2-2h-8v8h8V66h0Z"/><rect class="cls-11" x="209.01" y="67" width="6" height="6"/><path class="cls-3" d="M214,68v4h-4V68h4m2-2h-8v8h8V66h0Z"/><rect class="cls-11" x="215.01" y="67" width="6" height="6"/><path class="cls-3" d="M220,68v4h-4V68h4m2-2h-8v8h8V66h0Z"/><rect class="cls-11" x="221.01" y="67" width="6" height="6"/><path class="cls-3" d="M226,68v4h-4V68h4m2-2h-8v8h8V66h0Z"/><rect class="cls-11" x="179.01" y="73" width="6" height="6"/><path class="cls-3" d="M184,74v4h-4V74h4m2-2h-8v8h8V72h0Z"/><rect class="cls-11" x="185.01" y="73" width="6" height="6"/><path class="cls-3" d="M190,74v4h-4V74h4m2-2h-8v8h8V72h0Z"/><rect class="cls-11" x="191.01" y="73" width="6" height="6"/><path class="cls-3" d="M196,74v4h-4V74h4m2-2h-8v8h8V72h0Z"/><rect class="cls-11" x="197.01" y="73" width="6" height="6"/><path class="cls-3" d="M202,74v4h-4V74h4m2-2h-8v8h8V72h0Z"/><rect class="cls-11" x="209.01" y="73" width="6" height="6"/><path class="cls-3" d="M214,74v4h-4V74h4m2-2h-8v8h8V72h0Z"/><rect class="cls-11" x="215.01" y="73" width="6" height="6"/><path class="cls-3" d="M220,74v4h-4V74h4m2-2h-8v8h8V72h0Z"/><rect class="cls-11" x="221.01" y="73" width="6" height="6"/><path class="cls-3" d="M226,74v4h-4V74h4m2-2h-8v8h8V72h0Z"/><rect class="cls-11" x="179.01" y="79" width="6" height="6"/><path class="cls-3" d="M184,80v4h-4V80h4m2-2h-8v8h8V78h0Z"/><rect class="cls-11" x="185.01" y="79" width="6" height="6"/><path class="cls-3" d="M190,80v4h-4V80h4m2-2h-8v8h8V78h0Z"/><rect class="cls-11" x="191.01" y="79" width="6" height="6"/><path class="cls-3" d="M196,80v4h-4V80h4m2-2h-8v8h8V78h0Z"/><rect class="cls-11" x="197.01" y="79" width="6" height="6"/><path class="cls-3" d="M202,80v4h-4V80h4m2-2h-8v8h8V78h0Z"/><rect class="cls-11" x="203.01" y="79" width="6" height="6"/><path class="cls-3" d="M208,80v4h-4V80h4m2-2h-8v8h8V78h0Z"/><rect class="cls-11" x="209.01" y="79" width="6" height="6"/><path class="cls-3" d="M214,80v4h-4V80h4m2-2h-8v8h8V78h0Z"/><rect class="cls-11" x="221.01" y="79" width="6" height="6"/><path class="cls-3" d="M226,80v4h-4V80h4m2-2h-8v8h8V78h0Z"/><rect class="cls-11" x="185.01" y="85" width="6" height="6"/><path class="cls-3" d="M190,86v4h-4V86h4m2-2h-8v8h8V84h0Z"/><rect class="cls-11" x="191.01" y="85" width="6" height="6"/><path class="cls-3" d="M196,86v4h-4V86h4m2-2h-8v8h8V84h0Z"/><rect class="cls-12" x="197.01" y="85" width="6" height="6"/><path class="cls-3" d="M202,86v4h-4V86h4m2-2h-8v8h8V84h0Z"/><rect class="cls-11" x="203.01" y="85" width="6" height="6"/><path class="cls-3" d="M208,86v4h-4V86h4m2-2h-8v8h8V84h0Z"/><rect class="cls-11" x="209.01" y="85" width="6" height="6"/><path class="cls-3" d="M214,86v4h-4V86h4m2-2h-8v8h8V84h0Z"/><rect class="cls-11" x="215.01" y="85" width="6" height="6"/><path class="cls-3" d="M220,86v4h-4V86h4m2-2h-8v8h8V84h0Z"/><rect class="cls-11" x="221.01" y="85" width="6" height="6"/><path class="cls-3" d="M226,86v4h-4V86h4m2-2h-8v8h8V84h0Z"/><rect class="cls-11" x="227.01" y="61" width="6" height="6"/><path class="cls-3" d="M232,62v4h-4V62h4m2-2h-8v8h8V60h0Z"/><rect class="cls-11" x="233.01" y="61" width="6" height="6"/><path class="cls-3" d="M238,62v4h-4V62h4m2-2h-8v8h8V60h0Z"/><rect class="cls-11" x="245.01" y="61" width="6" height="6"/><path class="cls-3" d="M250,62v4h-4V62h4m2-2h-8v8h8V60h0Z"/><rect class="cls-11" x="251.01" y="61" width="6" height="6"/><path class="cls-3" d="M256,62v4h-4V62h4m2-2h-8v8h8V60h0Z"/><rect class="cls-11" x="257.01" y="61" width="6" height="6"/><path class="cls-3" d="M262,62v4h-4V62h4m2-2h-8v8h8V60h0Z"/><rect class="cls-11" x="263.01" y="61" width="6" height="6"/><path class="cls-3" d="M268,62v4h-4V62h4m2-2h-8v8h8V60h0Z"/><rect class="cls-11" x="269.01" y="61" width="6" height="6"/><path class="cls-3" d="M274,62v4h-4V62h4m2-2h-8v8h8V60h0Z"/><rect class="cls-11" x="227.01" y="67" width="6" height="6"/><path class="cls-3" d="M232,68v4h-4V68h4m2-2h-8v8h8V66h0Z"/><rect class="cls-11" x="233.01" y="67" width="6" height="6"/><path class="cls-3" d="M238,68v4h-4V68h4m2-2h-8v8h8V66h0Z"/><rect class="cls-11" x="239.01" y="67" width="6" height="6"/><path class="cls-3" d="M244,68v4h-4V68h4m2-2h-8v8h8V66h0Z"/><rect class="cls-11" x="245.01" y="67" width="6" height="6"/><path class="cls-3" d="M250,68v4h-4V68h4m2-2h-8v8h8V66h0Z"/><rect class="cls-11" x="251.01" y="67" width="6" height="6"/><path class="cls-3" d="M256,68v4h-4V68h4m2-2h-8v8h8V66h0Z"/><rect class="cls-11" x="257.01" y="67" width="6" height="6"/><path class="cls-3" d="M262,68v4h-4V68h4m2-2h-8v8h8V66h0Z"/><rect class="cls-11" x="263.01" y="67" width="6" height="6"/><path class="cls-3" d="M268,68v4h-4V68h4m2-2h-8v8h8V66h0Z"/><rect class="cls-11" x="227.01" y="73" width="6" height="6"/><path class="cls-3" d="M232,74v4h-4V74h4m2-2h-8v8h8V72h0Z"/><rect class="cls-11" x="233.01" y="73" width="6" height="6"/><path class="cls-3" d="M238,74v4h-4V74h4m2-2h-8v8h8V72h0Z"/><rect class="cls-11" x="239.01" y="73" width="6" height="6"/><path class="cls-3" d="M244,74v4h-4V74h4m2-2h-8v8h8V72h0Z"/><rect class="cls-11" x="245.01" y="73" width="6" height="6"/><path class="cls-3" d="M250,74v4h-4V74h4m2-2h-8v8h8V72h0Z"/><rect class="cls-11" x="251.01" y="73" width="6" height="6"/><path class="cls-3" d="M256,74v4h-4V74h4m2-2h-8v8h8V72h0Z"/><rect class="cls-11" x="257.01" y="73" width="6" height="6"/><path class="cls-3" d="M262,74v4h-4V74h4m2-2h-8v8h8V72h0Z"/><rect class="cls-11" x="263.01" y="73" width="6" height="6"/><path class="cls-3" d="M268,74v4h-4V74h4m2-2h-8v8h8V72h0Z"/><rect class="cls-12" x="227.01" y="79" width="6" height="6"/><path class="cls-3" d="M232,80v4h-4V80h4m2-2h-8v8h8V78h0Z"/><rect class="cls-11" x="233.01" y="79" width="6" height="6"/><path class="cls-3" d="M238,80v4h-4V80h4m2-2h-8v8h8V78h0Z"/><rect class="cls-11" x="239.01" y="79" width="6" height="6"/><path class="cls-3" d="M244,80v4h-4V80h4m2-2h-8v8h8V78h0Z"/><rect class="cls-11" x="245.01" y="79" width="6" height="6"/><path class="cls-3" d="M250,80v4h-4V80h4m2-2h-8v8h8V78h0Z"/><rect class="cls-11" x="257.01" y="79" width="6" height="6"/><path class="cls-3" d="M262,80v4h-4V80h4m2-2h-8v8h8V78h0Z"/><rect class="cls-11" x="263.01" y="79" width="6" height="6"/><path class="cls-3" d="M268,80v4h-4V80h4m2-2h-8v8h8V78h0Z"/><rect class="cls-11" x="269.01" y="79" width="6" height="6"/><path class="cls-3" d="M274,80v4h-4V80h4m2-2h-8v8h8V78h0Z"/><rect class="cls-11" x="227.01" y="85" width="6" height="6"/><path class="cls-3" d="M232,86v4h-4V86h4m2-2h-8v8h8V84h0Z"/><rect class="cls-11" x="233.01" y="85" width="6" height="6"/><path class="cls-3" d="M238,86v4h-4V86h4m2-2h-8v8h8V84h0Z"/><rect class="cls-11" x="239.01" y="85" width="6" height="6"/><path class="cls-3" d="M244,86v4h-4V86h4m2-2h-8v8h8V84h0Z"/><rect class="cls-11" x="245.01" y="85" width="6" height="6"/><path class="cls-3" d="M250,86v4h-4V86h4m2-2h-8v8h8V84h0Z"/><rect class="cls-11" x="251.01" y="85" width="6" height="6"/><path class="cls-3" d="M256,86v4h-4V86h4m2-2h-8v8h8V84h0Z"/><rect class="cls-11" x="257.01" y="85" width="6" height="6"/><path class="cls-3" d="M262,86v4h-4V86h4m2-2h-8v8h8V84h0Z"/><rect class="cls-11" x="263.01" y="85" width="6" height="6"/><path class="cls-3" d="M268,86v4h-4V86h4m2-2h-8v8h8V84h0Z"/><rect class="cls-11" x="269.01" y="85" width="6" height="6"/><path class="cls-3" d="M274,86v4h-4V86h4m2-2h-8v8h8V84h0Z"/><rect class="cls-11" x="275.01" y="61" width="6" height="6"/><path class="cls-3" d="M280,62v4h-4V62h4m2-2h-8v8h8V60h0Z"/><rect class="cls-11" x="275.01" y="67" width="6" height="6"/><path class="cls-3" d="M280,68v4h-4V68h4m2-2h-8v8h8V66h0Z"/><rect class="cls-11" x="275.01" y="73" width="6" height="6"/><path class="cls-3" d="M280,74v4h-4V74h4m2-2h-8v8h8V72h0Z"/><rect class="cls-8" x="275.01" y="79" width="6" height="6"/><path class="cls-3" d="M280,80v4h-4V80h4m2-2h-8v8h8V78h0Z"/><rect class="cls-11" x="275.01" y="85" width="6" height="6"/><path class="cls-3" d="M280,86v4h-4V86h4m2-2h-8v8h8V84h0Z"/><rect class="cls-11" x="281.01" y="61" width="6" height="6"/><path class="cls-3" d="M286,62v4h-4V62h4m2-2h-8v8h8V60h0Z"/><rect class="cls-11" x="281.01" y="67" width="6" height="6"/><path class="cls-3" d="M286,68v4h-4V68h4m2-2h-8v8h8V66h0Z"/><rect class="cls-11" x="281.01" y="73" width="6" height="6"/><path class="cls-3" d="M286,74v4h-4V74h4m2-2h-8v8h8V72h0Z"/><rect class="cls-11" x="281.01" y="79" width="6" height="6"/><path class="cls-3" d="M286,80v4h-4V80h4m2-2h-8v8h8V78h0Z"/><rect class="cls-11" x="281.01" y="85" width="6" height="6"/><path class="cls-3" d="M286,86v4h-4V86h4m2-2h-8v8h8V84h0Z"/><rect class="cls-11" x="287.01" y="61" width="6" height="6"/><path class="cls-3" d="M292,62v4h-4V62h4m2-2h-8v8h8V60h0Z"/><rect class="cls-11" x="287.01" y="67" width="6" height="6"/><path class="cls-3" d="M292,68v4h-4V68h4m2-2h-8v8h8V66h0Z"/><rect class="cls-11" x="287.01" y="79" width="6" height="6"/><path class="cls-3" d="M292,80v4h-4V80h4m2-2h-8v8h8V78h0Z"/><rect class="cls-11" x="287.01" y="85" width="6" height="6"/><path class="cls-3" d="M292,86v4h-4V86h4m2-2h-8v8h8V84h0Z"/><rect class="cls-8" x="83.01" y="61" width="6" height="6"/><path class="cls-3" d="M88,62v4H84V62h4m2-2H82v8h8V60h0Z"/><rect class="cls-11" x="89.01" y="61" width="6" height="6"/><path class="cls-3" d="M94,62v4H90V62h4m2-2H88v8h8V60h0Z"/><rect class="cls-11" x="83.01" y="144.78" width="14" height="14"/><path class="cls-3" d="M96,145.78v12H84v-12H96m2-2H82v16H98v-16h0Z"/><polyline class="cls-13" points="93.97 149.78 89.01 154.75 86.05 151.78"/><rect class="cls-11" x="97.01" y="144.78" width="14" height="14"/><path class="cls-3" d="M110,145.78v12H98v-12h12m2-2H96v16h16v-16h0Z"/><polyline class="cls-13" points="107.97 149.78 103.01 154.75 100.05 151.78"/><rect class="cls-4" x="137.56" y="179.43" width="78.9" height="14"/><path class="cls-3" d="M215.46,180.43v12h-76.9v-12h76.9m2-2h-80.9v16h80.9v-16h0Z"/><polygon class="cls-14" points="136.56 164.43 136.56 178.43 136.56 194.43 241.43 194.43 241.43 178.43 241.43 164.43 136.56 164.43"/><rect class="cls-11" x="137.56" y="165.43" width="30" height="14"/><path class="cls-3" d="M166.56,166.43v12h-28v-12h28m2-2h-32v16h32v-16h0Z"/><polyline class="cls-13" points="148.52 170.43 143.56 175.4 140.6 172.43"/><polygon class="cls-3" points="143.4 189.94 144.81 188.53 143.72 187.43 148.63 187.43 148.63 185.43 143.72 185.43 144.81 184.34 143.4 182.92 139.89 186.43 143.4 189.94"/><path class="cls-12" d="M178.17,37.63a2.48,2.48,0,0,1-1.56-.57l-7.39-5.85a2.89,2.89,0,0,1,0-4.58l7.19-5.74a2.47,2.47,0,0,1,1.54-.56,2.51,2.51,0,0,1,2.48,2.42v3h5.68a3.39,3.39,0,0,1,0,6.78h-5.53V35.1a2.51,2.51,0,0,1-2.41,2.51h0v0Z"/><path class="cls-3" d="M178,21.34a1.5,1.5,0,0,1,1.47,1.45l0.05,4h6.67a2.39,2.39,0,0,1,0,4.77h-6.53v3.57a1.47,1.47,0,0,1-.43,1.06,1.51,1.51,0,0,1-1,.45,1.47,1.47,0,0,1-.93-0.34l-7.41-5.86a1.89,1.89,0,0,1-.75-1.5,1.93,1.93,0,0,1,.75-1.51l7.2-5.75a1.47,1.47,0,0,1,.93-0.34m0-2h0a3.48,3.48,0,0,0-2.19.8l-7.17,5.72a3.89,3.89,0,0,0,0,6.16L176,37.85a3.48,3.48,0,0,0,2.17.78h0.1a3.51,3.51,0,0,0,3.38-3.54V33.54h4.53a4.39,4.39,0,0,0,0-8.77h-4.7v-2A3.51,3.51,0,0,0,178,19.34h0Z"/><path class="cls-8" d="M198.71,50.57a2.49,2.49,0,0,1-2-2.41v-3H191a3.39,3.39,0,0,1,0-6.78h5.58V35.8a2.49,2.49,0,0,1,.71-1.77,2.52,2.52,0,0,1,1.78-.75,2.49,2.49,0,0,1,1.58.57L208,39.74a2.88,2.88,0,0,1,0,4.57l-7.22,5.76a2.46,2.46,0,0,1-1.54.56h-0.42Z"/><path class="cls-3" d="M199,34.28h0a1.47,1.47,0,0,1,.93.34l7.39,5.89a1.89,1.89,0,0,1,.75,1.49,1.93,1.93,0,0,1-.75,1.51l-7.23,5.77a1.47,1.47,0,0,1-.93.34h0a1.5,1.5,0,0,1-1.5-1.47l-0.06-4H191a2.39,2.39,0,0,1,0-4.77h6.59V35.79a1.48,1.48,0,0,1,.42-1.06,1.51,1.51,0,0,1,1.07-.45m0-2a3.49,3.49,0,0,0-3.5,3.48s0,0,0,.06v1.56H191a4.39,4.39,0,0,0,0,8.77h4.68v2a3.49,3.49,0,0,0,2.54,3.31l0.14,0.14h0.85a3.48,3.48,0,0,0,2.19-.8l7.2-5.74a3.88,3.88,0,0,0,0-6.15L201.24,33a3.45,3.45,0,0,0-2.16-.78h0v0Z"/><text class="cls-15" transform="translate(167.83 57.39)">pure skill</text><circle class="cls-16" cx="101.51" cy="52.25" r="6"/><path class="cls-3" d="M101.51,47.25a5,5,0,1,1-5,5,5,5,0,0,1,5-5m0-2a7,7,0,1,0,7,7,7,7,0,0,0-7-7h0Z"/><circle class="cls-16" cx="276.51" cy="52.25" r="6"/><path class="cls-3" d="M276.51,47.25a5,5,0,1,1-5,5,5,5,0,0,1,5-5m0-2a7,7,0,1,0,7,7,7,7,0,0,0-7-7h0Z"/><circle class="cls-16" cx="119.51" cy="52.25" r="6"/><path class="cls-3" d="M119.51,47.25a5,5,0,1,1-5,5,5,5,0,0,1,5-5m0-2a7,7,0,1,0,7,7,7,7,0,0,0-7-7h0Z"/><circle class="cls-16" cx="258.51" cy="52.25" r="6"/><path class="cls-3" d="M258.51,47.25a5,5,0,1,1-5,5,5,5,0,0,1,5-5m0-2a7,7,0,1,0,7,7,7,7,0,0,0-7-7h0Z"/><circle class="cls-3" cx="101.51" cy="52.25" r="2.5"/><circle class="cls-3" cx="119.51" cy="52.25" r="2.5"/><circle class="cls-3" cx="258.51" cy="52.25" r="2.5"/><circle class="cls-3" cx="276.51" cy="52.25" r="2.5"/><rect class="cls-4" x="243" y="130.91" width="14" height="14"/><path class="cls-3" d="M256,131.91v12H244v-12h12m2-2H242v16h16v-16h0Z"/><polygon class="cls-3" points="248.84 141.41 250.25 140 249.16 138.91 254.07 138.91 254.07 136.91 249.16 136.91 250.25 135.81 248.84 134.4 245.33 137.91 248.84 141.41"/><rect class="cls-4" x="257" y="130.91" width="14" height="14"/><path class="cls-3" d="M270,131.91v12H258v-12h12m2-2H256v16h16v-16h0Z"/><polygon class="cls-3" points="262.84 141.41 264.25 140 263.15 138.91 268.07 138.91 268.07 136.91 263.15 136.91 264.25 135.81 262.84 134.4 259.33 137.91 262.84 141.41"/><rect class="cls-4" x="257" y="116.96" width="14" height="14"/><path class="cls-3" d="M270,118v12H258V118h12m2-2H256v16h16V116h0Z"/><polygon class="cls-3" points="262.84 127.47 264.25 126.06 263.15 124.96 268.07 124.96 268.07 122.96 263.15 122.96 264.25 121.87 262.84 120.45 259.33 123.96 262.84 127.47"/><rect class="cls-4" x="271" y="130.91" width="14" height="14"/><path class="cls-3" d="M284,131.91v12H272v-12h12m2-2H270v16h16v-16h0Z"/><polygon class="cls-3" points="276.84 141.41 278.25 140 277.15 138.91 282.07 138.91 282.07 136.91 277.15 136.91 278.25 135.81 276.84 134.4 273.33 137.91 276.84 141.41"/><rect class="cls-4" x="279" y="145" width="14" height="14"/><path class="cls-3" d="M292,146v12H280V146h12m2-2H278v16h16V144h0Z"/><polygon class="cls-3" points="284.84 155.51 286.25 154.1 285.15 153 290.07 153 290.07 151 285.15 151 286.25 149.9 284.84 148.49 281.33 152 284.84 155.51"/><rect class="cls-4" x="265" y="145" width="14" height="14"/><path class="cls-3" d="M278,146v12H266V146h12m2-2H264v16h16V144h0Z"/><polygon class="cls-3" points="270.84 155.51 272.25 154.1 271.15 153 276.07 153 276.07 151 271.15 151 272.25 149.9 270.84 148.49 267.33 152 270.84 155.51"/><rect class="cls-4" x="251" y="145" width="14" height="14"/><path class="cls-3" d="M264,146v12H252V146h12m2-2H250v16h16V144h0Z"/><polygon class="cls-3" points="256.84 155.51 258.25 154.1 257.15 153 262.07 153 262.07 151 257.15 151 258.25 149.9 256.84 148.49 253.33 152 256.84 155.51"/><rect class="cls-4" x="237" y="145" width="14" height="14"/><path class="cls-3" d="M250,146v12H238V146h12m2-2H236v16h16V144h0Z"/><polygon class="cls-3" points="242.84 155.51 244.25 154.1 243.16 153 248.07 153 248.07 151 243.16 151 244.25 149.9 242.84 148.49 239.33 152 242.84 155.51"/><line class="cls-17" x1="294" y1="159" x2="82.01" y2="158.78"/><ellipse class="cls-18" cx="133.5" cy="116.93" rx="14.09" ry="8.05"/><path class="cls-4" d="M133.5,121.52c-4.3,0-7.67-2-7.67-4.59s3.37-4.6,7.67-4.6,7.67,2,7.67,4.6S137.8,121.52,133.5,121.52Z"/><path class="cls-3" d="M133.5,112.83c4,0,7.17,1.83,7.17,4.09S137.46,121,133.5,121s-7.17-1.83-7.17-4.09,3.21-4.09,7.17-4.09m0-1c-4.58,0-8.17,2.24-8.17,5.09s3.59,5.09,8.17,5.09,8.17-2.24,8.17-5.09-3.59-5.09-8.17-5.09h0Z"/><polyline class="cls-19" points="126.33 116.92 130 116.92 131.34 114.5 132.01 118.8 133.5 116.92 134.31 118.88 136.01 116.25 137.56 117.15 140.67 117.15"/></svg>