<svg id="Layer_1" data-name="Layer 1" xmlns="http://www.w3.org/2000/svg" viewBox="0 0 139.77 133.9"><defs><style>.cls-1{fill:#3ccb5a;}.cls-1,.cls-6,.cls-7,.cls-8{stroke:#52306c;stroke-miterlimit:10;}.cls-1,.cls-2{stroke-width:2px;}.cls-2,.cls-5{fill:none;}.cls-2{stroke:#fff;stroke-linecap:round;stroke-linejoin:round;opacity:0.4;isolation:isolate;}.cls-3{fill:#105b1c;}.cls-4{fill:#7dd376;}.cls-6{fill:#ffed43;}.cls-7{fill:#97cdf2;}.cls-8{fill:#ea4444;}</style></defs><title>dont-rush-perfection</title><path class="cls-1" d="M18.58,6.57h93a12,12,0,0,1,12,12v93a12,12,0,0,1-12,12h-93a12,12,0,0,1-12-12v-93A12,12,0,0,1,18.58,6.57Z" transform="translate(0 0)"/><path class="cls-2" d="M15.28,53.67v-3.9" transform="translate(0 0)"/><path class="cls-3" d="M37.08,70.17a1.24,1.24,0,0,0-1.3,1.18v0a1.61,1.61,0,0,0,.3.9l19.6,23a1.62,1.62,0,0,0,.9.5h0.2a1,1,0,0,0,.8-0.5l44-56.4a1.24,1.24,0,0,0-1.8-1.7l-42.4,39.3a2,2,0,0,1-2,.4l-17.9-6.6A0.48,0.48,0,0,0,37.08,70.17Z" transform="translate(0 0)"/><path class="cls-4" d="M60.88,68.67" transform="translate(0 0)"/><path class="cls-2" d="M15.28,41.67V23.77a8.56,8.56,0,0,1,8.5-8.5h29.9" transform="translate(0 0)"/><path class="cls-5" d="M89.68,26.07a12.52,12.52,0,0,1,1.8,4.5c2.7-1.2,7.2-.5,9.8-0.2,0.3-1.9-1.6-3.9-3.2-5a22,22,0,0,1-1.8-1.4l-0.4.1A15.09,15.09,0,0,0,89.68,26.07Z" transform="translate(0 0)"/><polygon class="cls-6" points="47.38 34.67 49.18 49.77 35.18 43.77 47.38 34.67"/><rect class="cls-7" x="84.37" y="102.57" width="11.4" height="8.2" transform="translate(-46.33 136.42) rotate(-62.13)"/><rect class="cls-6" x="5.57" y="87.31" width="7.1" height="16.8" transform="translate(-64.38 33.73) rotate(-44.42)"/><polygon class="cls-6" points="139.18 85.27 135.08 105.17 112.28 99.27 116.38 79.37 139.18 85.27"/><polygon class="cls-7" points="96.98 22.77 78.38 30.87 70.18 8.67 88.78 0.67 96.98 22.77"/><polygon class="cls-7" points="60.58 117.57 63.38 132.67 52.08 123.57 49.38 108.47 60.58 117.57"/><polygon class="cls-8" points="95.98 54.67 88.18 67.87 108.88 66.87 95.98 54.67"/><polygon class="cls-8" points="20.38 27.07 22.88 40.37 3.28 32.07 0.68 18.67 20.38 27.07"/></svg>