<?xml version="1.0" encoding="utf-8"?>
<!-- Generator: Adobe Illustrator 19.2.1, SVG Export Plug-In . SVG Version: 6.00 Build 0)  -->
<svg version="1.1" id="Layer_1" xmlns="http://www.w3.org/2000/svg" xmlns:xlink="http://www.w3.org/1999/xlink" x="0px" y="0px"
	 viewBox="0 0 380 200" style="enable-background:new 0 0 380 200;" xml:space="preserve">
<style type="text/css">
	.st0{fill:#FAFAFA;}
	.st1{fill:#3CCB5A;stroke:#52306C;stroke-width:2;stroke-miterlimit:10;}
	.st2{opacity:0.4;fill:none;stroke:#FFFFFF;stroke-width:2;stroke-linecap:round;stroke-linejoin:round;enable-background:new    ;}
	.st3{fill:#105B1C;}
	.st4{fill:#7DD376;}
	.st5{fill:none;}
	.st6{fill:#FFED43;stroke:#52306C;stroke-miterlimit:10;}
	.st7{fill:#97CDF2;stroke:#52306C;stroke-miterlimit:10;}
	.st8{fill:#EA4444;stroke:#52306C;stroke-miterlimit:10;}
	.st9{fill:none;stroke:#EA4444;stroke-miterlimit:10;}
	.st10{fill:none;stroke:#52306C;stroke-miterlimit:10;}
	.st11{fill:none;stroke:#97CDF2;stroke-miterlimit:10;}
</style>
<rect class="st0" width="380" height="200"/>
<title>dont-rush-perfection</title>
<path class="st1" d="M151,50.5h76.3c5.4,0,9.8,4.4,9.8,9.8v76.3c0,5.4-4.4,9.8-9.8,9.8H151c-5.4,0-9.8-4.4-9.8-9.8V60.3
	C141.2,54.9,145.6,50.5,151,50.5z"/>
<path class="st2" d="M148.3,89.1v-3.2"/>
<path class="st3" d="M166.2,102.7c-0.6,0-1,0.4-1.1,1c0,0,0,0,0,0l0,0c0,0.3,0.1,0.5,0.2,0.7l16.1,18.9c0.2,0.2,0.5,0.4,0.7,0.4h0.2
	c0.3,0,0.5-0.2,0.7-0.4L219.1,77c0.4-0.4,0.3-1.1-0.1-1.4c-0.4-0.3-1-0.3-1.4,0l-34.8,32.2c-0.4,0.4-1.1,0.5-1.6,0.3l-14.7-5.4
	C166.4,102.7,166.3,102.7,166.2,102.7z"/>
<path class="st4" d="M185,102.1"/>
<path class="st2" d="M148.3,79.3V64.6c0-3.8,3.1-6.9,7-7h24.5"/>
<path class="st5" d="M213.8,59.5c0.9,1.4,1.5,2.9,1.8,4.5c2.7-1.2,7.2-0.5,9.8-0.2c0.3-1.9-1.6-3.9-3.2-5c-0.6-0.4-1.2-0.9-1.8-1.4
	l-0.4,0.1C217.8,57.7,215.6,58.4,213.8,59.5z"/>
<polygon class="st6" points="171.5,68.1 173.2,83.2 159.2,77.2 "/>
<rect x="208.4" y="158" transform="matrix(0.4675 -0.884 0.884 0.4675 -29.2532 275.6232)" class="st7" width="11.4" height="8.2"/>
<rect x="135.6" y="115.7" transform="matrix(0.7142 -0.6999 0.6999 0.7142 -47.1068 132.897)" class="st6" width="7.1" height="16.8"/>
<polygon class="st6" points="255.2,118.7 251.2,138.6 228.4,132.7 232.4,112.8 "/>
<polygon class="st7" points="221.1,56.2 202.4,64.3 194.2,42.1 212.9,34.1 "/>
<polygon class="st7" points="184.7,140 187.5,155.1 176.2,146 173.5,130.9 "/>
<polygon class="st8" points="220.1,88.1 212.2,101.3 232.9,100.3 "/>
<polygon class="st8" points="144.4,60.5 146.9,73.8 127.4,65.5 124.8,52.1 "/>
<circle class="st9" cx="246" cy="84.8" r="4.3"/>
<circle class="st10" cx="127.8" cy="146" r="3"/>
<circle class="st10" cx="227.4" cy="38.2" r="4.8"/>
<rect x="151.5" y="33" transform="matrix(0.9152 0.4031 -0.4031 0.9152 28.6062 -59.8691)" class="st11" width="10" height="10"/>
<rect x="256.6" y="101.3" class="st10" width="5.9" height="5.9"/>
<rect x="139.2" y="162.1" class="st10" width="3.4" height="3.4"/>
</svg>
