<svg id="Layer_1" data-name="Layer 1" xmlns="http://www.w3.org/2000/svg" viewBox="0 0 139.77 133.9"><defs><style>.cls-1{fill:#3ccb5a;}.cls-1,.cls-6,.cls-7,.cls-8{stroke:#52306c;stroke-miterlimit:10;}.cls-1,.cls-2{stroke-width:2px;}.cls-2,.cls-5{fill:none;}.cls-2{stroke:#fff;stroke-linecap:round;stroke-linejoin:round;opacity:0.4;isolation:isolate;}.cls-3{fill:#105b1c;}.cls-4{fill:#7dd376;}.cls-6{fill:#ffed43;}.cls-7{fill:#97cdf2;}.cls-8{fill:#ea4444;}</style></defs><title>dont-rush-perfection</title><path class="cls-1" d="M30.5,11.5h93a12,12,0,0,1,12,12v93a12,12,0,0,1-12,12h-93a12,12,0,0,1-12-12v-93A12,12,0,0,1,30.5,11.5Z" transform="translate(-11.92 -4.93)"/><path class="cls-2" d="M27.2,58.6V54.7" transform="translate(-11.92 -4.93)"/><path class="cls-3" d="M49,75.1a1.24,1.24,0,0,0-1.3,1.2,1.61,1.61,0,0,0,.3.9l19.6,23a1.62,1.62,0,0,0,.9.5h0.2a1,1,0,0,0,.8-0.5l44-56.4a1.24,1.24,0,0,0-1.8-1.7L69.3,81.4a2,2,0,0,1-2,.4L49.4,75.2A0.48,0.48,0,0,0,49,75.1Z" transform="translate(-11.92 -4.93)"/><path class="cls-4" d="M72.8,73.6" transform="translate(-11.92 -4.93)"/><path class="cls-2" d="M27.2,46.6V28.7a8.56,8.56,0,0,1,8.5-8.5H65.6" transform="translate(-11.92 -4.93)"/><path class="cls-5" d="M101.6,31a12.52,12.52,0,0,1,1.8,4.5c2.7-1.2,7.2-.5,9.8-0.2,0.3-1.9-1.6-3.9-3.2-5a22,22,0,0,1-1.8-1.4l-0.4.1A15.09,15.09,0,0,0,101.6,31Z" transform="translate(-11.92 -4.93)"/><polygon class="cls-6" points="47.38 34.67 49.18 49.77 35.18 43.77 47.38 34.67"/><rect class="cls-7" x="96.28" y="107.51" width="11.4" height="8.2" transform="translate(-56.27 144.65) rotate(-62.13)"/><rect class="cls-6" x="17.49" y="92.23" width="7.1" height="16.8" transform="translate(-76.34 38.56) rotate(-44.42)"/><polygon class="cls-6" points="139.18 85.27 135.08 105.17 112.28 99.27 116.38 79.37 139.18 85.27"/><polygon class="cls-7" points="96.98 22.77 78.38 30.87 70.18 8.67 88.78 0.67 96.98 22.77"/><polygon class="cls-7" points="60.58 117.57 63.38 132.67 52.08 123.57 49.38 108.47 60.58 117.57"/><polygon class="cls-8" points="95.98 54.67 88.18 67.87 108.88 66.87 95.98 54.67"/><polygon class="cls-8" points="20.38 27.07 22.88 40.37 3.28 32.07 0.68 18.67 20.38 27.07"/></svg>