<svg id="Layer_1" data-name="Layer 1" xmlns="http://www.w3.org/2000/svg" viewBox="0 0 380 200"><defs><style>.cls-1{fill:#fafafa;}.cls-2{fill:#3ccb5a;}.cls-11,.cls-2,.cls-7,.cls-8,.cls-9{stroke:#52306c;}.cls-10,.cls-11,.cls-12,.cls-2,.cls-7,.cls-8,.cls-9{stroke-miterlimit:10;}.cls-2,.cls-3{stroke-width:2px;}.cls-10,.cls-11,.cls-12,.cls-3,.cls-6{fill:none;}.cls-3{stroke:#fff;stroke-linecap:round;stroke-linejoin:round;opacity:0.4;isolation:isolate;}.cls-4{fill:#105b1c;}.cls-5{fill:#7dd376;}.cls-7{fill:#ffed43;}.cls-8{fill:#97cdf2;}.cls-9{fill:#ea4444;}.cls-10{stroke:#ea4444;}.cls-12{stroke:#97cdf2;}</style></defs><title>dont-rush-perfection</title><rect class="cls-1" width="380" height="200"/><path class="cls-2" d="M151,50.5h76.3a9.82,9.82,0,0,1,9.8,9.8v76.3a9.82,9.82,0,0,1-9.8,9.8H151a9.82,9.82,0,0,1-9.8-9.8V60.3A9.82,9.82,0,0,1,151,50.5Z"/><path class="cls-3" d="M148.3,89.1V85.9"/><path class="cls-4" d="M166.2,102.7a1.09,1.09,0,0,0-1.1,1h0a1.45,1.45,0,0,0,.2.7l16.1,18.9a1.27,1.27,0,0,0,.7.4h0.2a1,1,0,0,0,.7-0.4L219.1,77a1,1,0,0,0-.1-1.4,1.2,1.2,0,0,0-1.4,0l-34.8,32.2a1.57,1.57,0,0,1-1.6.3l-14.7-5.4h-0.3Z"/><path class="cls-5" d="M185,102.1"/><path class="cls-3" d="M148.3,79.3V64.6a7.09,7.09,0,0,1,7-7h24.5"/><path class="cls-6" d="M213.8,59.5a12.52,12.52,0,0,1,1.8,4.5c2.7-1.2,7.2-.5,9.8-0.2,0.3-1.9-1.6-3.9-3.2-5a22,22,0,0,1-1.8-1.4l-0.4.1A14.63,14.63,0,0,0,213.8,59.5Z"/><polygon class="cls-7" points="171.5 68.1 173.2 83.2 159.2 77.2 171.5 68.1"/><rect class="cls-8" x="208.43" y="158.04" width="11.4" height="8.2" transform="translate(-29.3 275.63) rotate(-62.13)"/><rect class="cls-7" x="135.58" y="115.74" width="7.1" height="16.8" transform="translate(-47.13 132.86) rotate(-44.42)"/><polygon class="cls-7" points="255.2 118.7 251.2 138.6 228.4 132.7 232.4 112.8 255.2 118.7"/><polygon class="cls-8" points="221.1 56.2 202.4 64.3 194.2 42.1 212.9 34.1 221.1 56.2"/><polygon class="cls-8" points="184.7 140 187.5 155.1 176.2 146 173.5 130.9 184.7 140"/><polygon class="cls-9" points="220.1 88.1 212.2 101.3 232.9 100.3 220.1 88.1"/><polygon class="cls-9" points="144.4 60.5 146.9 73.8 127.4 65.5 124.8 52.1 144.4 60.5"/><circle class="cls-10" cx="246" cy="84.8" r="4.3"/><circle class="cls-11" cx="127.8" cy="146" r="3"/><circle class="cls-11" cx="227.4" cy="38.2" r="4.8"/><rect class="cls-12" x="151.52" y="32.99" width="10" height="10" transform="translate(58.66 165.92) rotate(-66.23)"/><rect class="cls-11" x="256.6" y="101.3" width="5.9" height="5.9"/><rect class="cls-11" x="139.2" y="162.1" width="3.4" height="3.4"/></svg>