<?xml version="1.0" encoding="utf-8"?>
<!-- Generator: Adobe Illustrator 19.2.1, SVG Export Plug-In . SVG Version: 6.00 Build 0)  -->
<svg version="1.1" id="Layer_1" xmlns="http://www.w3.org/2000/svg" xmlns:xlink="http://www.w3.org/1999/xlink" x="0px" y="0px"
	 viewBox="0 0 144.6 139.1" style="enable-background:new 0 0 144.6 139.1;" xml:space="preserve">
<style type="text/css">
	.st0{fill:#3CCB5A;stroke:#52306C;stroke-width:2;stroke-miterlimit:10;}
	.st1{fill:#FFED43;}
	.st2{fill:#52306C;}
	.st3{opacity:0.4;fill:none;stroke:#FFFFFF;stroke-width:3;stroke-linecap:round;stroke-linejoin:round;enable-background:new    ;}
	.st4{fill:#105B1C;}
	.st5{fill:#7DD376;}
	.st6{opacity:0.4;}
	.st7{fill:#EA4444;}
	.st8{opacity:0.4;fill:#105B1C;enable-background:new    ;}
	.st9{fill:#FFED43;stroke:#52306C;stroke-miterlimit:10;}
	.st10{opacity:0.5;fill:#FF9F9F;enable-background:new    ;}
	.st11{fill:none;}
	.st12{opacity:0.75;fill:#FFEF92;enable-background:new    ;}
	.st13{fill:#97CDF2;stroke:#52306C;stroke-miterlimit:10;}
	.st14{fill:#97CDF2;}
	.st15{opacity:0.5;fill:#CCEDFF;enable-background:new    ;}
</style>
<title>dont-rush-perfection</title>
<path class="st0" d="M21.1,8h93c6.6,0,12,5.4,12,12v93c0,6.6-5.4,12-12,12h-93c-6.6,0-12-5.4-12-12V20C9.1,13.4,14.5,8,21.1,8z"/>
<path class="st1" d="M66,138.1c-0.5,0-1-0.1-1.4-0.3c-3.9-2.4-6-6.4-7.1-8.5c-0.2-0.5-0.4-0.8-0.6-1.1c-2.7-4.5-3.7-9.9-3-15.1V113
	l0.2-0.1c0.4-0.3,9-6.8,14.3-8.3l0.6-0.2v0.6c0.5,9.3,4.1,18.2,10.2,25.2l0.5,0.6L79,131c-2.9,0.9-7.5,3.9-10.3,5.7
	C66.5,138.1,66.3,138.1,66,138.1L66,138.1L66,138.1z"/>
<path class="st2" d="M68.5,105c0.5,9.5,4.1,18.5,10.3,25.6c-4.3,1.3-12.3,7.5-12.8,7.5l0,0c-0.4-0.1-0.8-0.2-1.1-0.5
	c-4.7-2.9-6.6-8.1-7.6-9.6c-2.6-4.4-3.7-9.6-3-14.8C54.3,113.3,63.2,106.5,68.5,105 M69.5,103.7l-1.2,0.4
	c-5.4,1.6-14.1,8.1-14.5,8.4l-0.3,0.2l-0.1,0.4c-0.8,5.3,0.3,10.8,3.1,15.4c0.2,0.2,0.4,0.6,0.6,1.1c1.1,2.2,3.2,6.3,7.3,8.9
	c0.5,0.4,1,0.6,1.6,0.7l0,0L66,139c0.4,0,0.7-0.2,2.9-1.7c2.8-1.9,7.4-5,10.2-5.8l1.5-0.5l-1-1.2c-6.1-6.9-9.6-15.7-10.1-24.9
	L69.5,103.7L69.5,103.7L69.5,103.7z"/>
<path class="st3" d="M17.8,55.1v-3.9"/>
<path class="st4" d="M39.7,71.6c-0.7,0-1.3,0.5-1.3,1.2c0,0.3,0.1,0.6,0.3,0.9l19.6,23c0.2,0.3,0.6,0.4,0.9,0.5h0.2
	c0.3,0,0.6-0.2,0.8-0.5l44-56.4c0.4-0.5,0.3-1.2-0.1-1.7c-0.5-0.4-1.2-0.4-1.7,0L60,77.9c-0.5,0.5-1.3,0.6-2,0.4L40,71.7
	C39.9,71.7,39.8,71.6,39.7,71.6z"/>
<path class="st5" d="M63.5,70.1"/>
<g class="st6">
	<path class="st4" d="M88.6,80.4c7.2-1.5,13.7-5,18.8-10.2L99,62.7c-5.5,3.1-10.9,2.1-16.4,4.4c-0.7,0.2-1.2,0.6-1.7,1.2L88.6,80.4z
		"/>
</g>
<path class="st7" d="M81.4,64.2l0.2-0.3c0.5-0.6,1.2-1,1.9-1.3c2.4-0.9,4.9-1.5,7.4-1.8c3.1-0.5,6-0.9,8.9-2.6l0.3-0.2l9.1,8.1
	l-0.4,0.4c-5.2,5.3-11.9,8.9-19.1,10.4L89.4,77L81.4,64.2z"/>
<path class="st2" d="M100.1,58.7l8.4,7.5c-5.1,5.2-11.7,8.8-18.9,10.2L82,64.2c0.5-0.5,1.1-0.9,1.7-1.2
	C89.2,60.8,94.6,61.8,100.1,58.7 M100.2,57.5l-0.6,0.4c-2.9,1.7-5.7,2.1-8.8,2.5c-2.6,0.3-5.1,0.9-7.5,1.8c-0.8,0.3-1.5,0.8-2.1,1.4
	l-0.5,0.6l0.4,0.6l7.6,12.2l0.4,0.6l0.7-0.1c7.4-1.5,14.1-5.2,19.4-10.5l0.7-0.8l-0.8-0.7l-8.4-7.5L100.2,57.5L100.2,57.5
	L100.2,57.5z"/>
<path class="st3" d="M17.8,43.1V25.2c0-4.7,3.8-8.4,8.5-8.5h29.9"/>
<path class="st8" d="M29.1,45.7c6,3.5,12.7,5.5,19.6,5.8l-2.8-9.8c-5.8-1.5-9.5-5.6-14.8-7.7c-0.6-0.3-1.2-0.4-1.9-0.4L29.1,45.7z"
	/>
<path class="st9" d="M29,41.8c5.6,4.1,12.1,6.8,18.9,7.7l-1.8-10c-5.6-2.1-8.8-6.6-14-9.2c-0.6-0.3-1.2-0.5-1.8-0.6L29,41.8z"/>
<path class="st10" d="M101,72L89.2,61.6l-1.1,0.2l12,10.7L101,72z"/>
<path class="st10" d="M93.1,61l9.9,9.7c0.4-0.3,0.8-0.5,1.2-0.8l-9-9.3C94.5,60.7,93.8,60.9,93.1,61z"/>
<path class="st11" d="M92.2,27.5c0.9,1.4,1.5,2.9,1.8,4.5c2.7-1.2,7.2-0.5,9.8-0.2c0.3-1.9-1.6-3.9-3.2-5c-0.6-0.4-1.2-0.9-1.8-1.4
	l-0.4,0.1C96.2,25.8,94.1,26.5,92.2,27.5z"/>
<path class="st11" d="M112.7,2.4c-2,0.4-5.7,0.1-7.3-0.1c-1.3-0.1-2,1.7-3.1,2.4c-1.8,1.1-2.9,3.1-2.9,5.3c0.1,2.3,1.3,4.3,3.2,5.5
	c-1.9,1.2-6.3,0.9-9.1,2.6c-1.7,1.1-2.8,3-2.7,5.1c1.6-0.6,3.2-1.3,4.8-2c1.2-0.5,2.4-0.9,3.6-1.2c2.1-2.1,4.7-3.5,7.5-4.1
	c0.1-0.7-0.9-1.5-1.4-2c-1.2-1.2-0.4-3.1,0.8-4.3s2.8-2,4.2-3S112.9,4.1,112.7,2.4z"/>
<g class="st6">
	<path class="st4" d="M59.6,25.3c-0.7-5.7,0.6-11.5,3.8-16.3H51.6c-0.3,0.3-0.5,0.6-0.6,1c-2.2,4.6-4.1,9.8-3,14.7L59.6,25.3z"/>
</g>
<path class="st12" d="M63,110.3c1.8-1.5,3.8-2.9,5.6-4.4c0-0.3,0-0.6-0.1-1c-5.3,1.5-14.2,8.2-14.2,8.2c-0.3,1.9-0.3,3.8-0.1,5.6
	C57,115.8,59.9,113,63,110.3z"/>
<path class="st12" d="M58.7,130.5c0.3,0.5,0.6,1,0.9,1.6c4.2-4.1,8.3-8.3,12.3-12.5c-0.3-0.7-0.6-1.3-0.8-2L58.7,130.5z"/>
<g>
	<path class="st7" d="M57.3,24.1c-1.5-0.2-2.8-0.2-4.3-0.2l-1.7,0c-1.3,0-2.8,0-4.4-0.2l-1.7-0.2l-0.1-0.4
		c-0.8-5.8,1.7-12.5,4.3-16.8C52,1.9,55.3,1,55.5,1l0.2,0L55.8,1c1.3,0.6,3.1,1,4.8,1.4c1.7,0.4,3.6,0.9,5,1.5l0.7,0.3l-0.6,0.5
		c-5.2,4.9-8.1,11.8-7.9,18.9l0,0.6L57.3,24.1z"/>
	<path class="st2" d="M55.6,1.5c2.7,1.1,7,1.8,9.8,2.9c-5.3,5-8.3,12-8,19.3c-1.6-0.2-3-0.2-4.4-0.2c-0.6,0-1.1,0-1.7,0
		c-1.4,0-2.7,0-4.3-0.2l-1.3-0.1c-0.7-5.4,1.5-11.9,4.2-16.5C52.4,2.3,55.6,1.5,55.6,1.5 M55.7,0.4l-0.3,0.1c-0.1,0-3.6,1-6.3,5.5
		c-2.6,4.4-5.2,11.3-4.4,17.2l0.1,0.8l0.8,0.1l1.3,0.1c1.6,0.2,3.1,0.2,4.4,0.2l0.9,0l0.8,0c1.5,0,2.8,0,4.3,0.2l1.2,0.1l0-1.2
		c-0.2-7,2.6-13.8,7.7-18.5L67.2,4l-1.4-0.6c-1.4-0.6-3.3-1.1-5-1.5C59,1.5,57.3,1.1,56,0.5L55.7,0.4L55.7,0.4z"/>
</g>
<path class="st10" d="M49.7,6.8c-0.5,0.8-1,1.7-1.4,2.6c3,0,6,0.1,8.9,0.4c1.2,0.1,2.4,0.3,3.5,0.4c0.2-0.3,0.3-0.5,0.5-0.8
	C58,8.5,53.3,7.1,49.7,6.8z"/>
<path class="st8" d="M13.8,81.5c3.8,3,8,6.3,8.8,11.1c-1.1,0.6-3.2,1.6-4.3,2.2c-0.3-3-1.9-5.7-4.5-7.4c-2.6-1.7-5.5-2.9-7.9-4.9
	c-2-1.8-3.7-3.8-5.1-6.1c-0.4-0.4-0.4-1-0.1-1.4c0,0,0.1-0.1,0.1-0.1c0.5-0.7,2.7-4.3,3.5-4.3c1.3,0,1.7,2.6,2.3,3.6
	C8.4,77.1,11.1,79.4,13.8,81.5z"/>
<path class="st13" d="M13.8,79.5c3.8,3,8,6.5,8.8,11.3l-3.3,1.8c-0.4-3.1-2.8-5.5-5.5-7.2s-5.5-2.9-7.9-4.9c-2-1.8-3.7-3.8-5.1-6.1
	c-0.4-0.4-0.4-1-0.1-1.4c0,0,0.1-0.1,0.1-0.1c0.5-0.7,2.7-4.3,3.5-4.3c1.3,0,1.7,2.6,2.3,3.6C8.4,75.1,11.1,77.4,13.8,79.5z"/>
<polygon class="st8" points="119.9,61 116.2,61.5 122.7,69.6 125.1,69.4 125.1,61.1 "/>
<path class="st9" d="M124,68.2c5-0.2,14.9-5.1,19.8-10.9l-10.3-4.1c-4.2,3.9-9.6,6.5-15.3,7.4l-0.4,0.1L124,68.2z"/>
<path class="st8" d="M110.8,9.1c0,0-3.6,1.5-4.1,2.9s1.8,2,1.8,3.5s-3.2,2.5-5.5,4.2c-1.7,1.2-2.7,2.2-1.8,3.5
	c1.3,2.1,3.9,1.7,4.7,4.3s0,7.4,0,7.4s-6.8-2.2-9.4-1.3c-1.5-1.6-3.3-6.7-3.4-9s6-6.1,8.8-7.5s-0.7-3.4,0-4.4
	c0.7-1.2,1.3-2.4,1.9-3.7L110.8,9.1L110.8,9.1z"/>
<path class="st8" d="M28.1,58.8c-0.4,3.9,0.5,7.8,2.3,11.2L27,70.7c-0.7,0.2-1.5,0.2-2.2-0.1c-0.5-0.4-0.8-0.8-0.9-1.4
	c-1.2-3.1-1.5-6.4-0.9-9.7C23.6,59.6,26.9,58.8,28.1,58.8z"/>
<path class="st14" d="M93.5,32.1c-0.3-1.4-0.8-2.8-1.6-4c-0.8-1.3-1.4-2.8-1.7-4.3c-0.3-2.4,0.9-4.8,3-6.1c1.7-0.9,3.5-1.4,5.4-1.6
	c1-0.1,2-0.4,3-0.7C100,14.1,99,12.1,99,10c0-2.3,1.2-4.5,3.2-5.7c0.4-0.3,0.8-0.6,1.1-1c0.5-0.8,1.3-1.3,2.2-1.5h0.1
	c0.9,0.1,2.9,0.3,4.8,0.3l0,0c0.8,0,1.6,0,2.4-0.2l0.5-0.1l0.1,0.5c0.3,2.4-1.8,4.1-2.7,4.7c-0.5,0.3-1,0.6-1.5,1
	c-1,0.5-1.9,1.2-2.6,1.9c-1,1-1.7,2.6-0.8,3.6c0.1,0.1,0.3,0.2,0.4,0.4c0.5,0.3,0.9,0.7,1.1,1.3c0.2,0.6-0.2,1.1-0.7,1.3
	c-3.5,1.2-5.8,2.5-7.4,4.3c-0.4,0.4-0.8,0.9-1,1.5c-0.4,1.6,1.3,3.1,2.8,4.1c1.8,1.2,3.8,3.3,3.5,5.5l-0.1,0.5l-1.1-0.1
	c-1.6-0.2-3.3-0.4-4.9-0.4c-1.4-0.1-2.7,0.2-4,0.7l-0.6,0.3L93.5,32.1z"/>
<path class="st2" d="M105.3,2.3h0.2c1.6,0.2,3.2,0.3,4.8,0.3c0.8,0,1.7-0.1,2.5-0.2c0.2,1.7-1.1,3.2-2.5,4.2s-3,1.7-4.2,3
	s-1.9,3.1-0.8,4.3c0.4,0.4,1.3,0.8,1.4,1.4c0.1,0.3-0.1,0.6-0.4,0.7c-2.9,0.8-5.5,2.3-7.6,4.4c-0.5,0.5-0.9,1.1-1.1,1.7
	c-0.5,1.9,1.3,3.5,3,4.6s3.5,3.1,3.2,5c-1.9-0.3-3.7-0.5-5.6-0.5c-1.4-0.1-2.9,0.2-4.2,0.7c-0.3-3-2.9-5.3-3.3-8.3
	c-0.2-2.2,0.8-4.4,2.7-5.6c2.7-1.7,7.2-1.4,9.1-2.6c-1.9-1.2-3.1-3.2-3.2-5.5c0-2.2,1.1-4.2,2.9-5.3C103.4,4,104.2,2.3,105.3,2.3
	 M113.6,1.2l-1.1,0.2c-0.7,0.1-1.5,0.2-2.3,0.2c-1.8,0-3.9-0.2-4.7-0.3h-0.2c-1.1,0.1-2,0.7-2.6,1.6c-0.3,0.4-0.6,0.7-1,0.9
	c-2.2,1.3-3.5,3.7-3.4,6.2c0.1,1.9,0.9,3.8,2.2,5.2c-0.6,0.1-1.3,0.3-2,0.4c-1.9,0.2-3.8,0.8-5.6,1.7c-2.2,1.4-3.5,4-3.2,6.6
	c0.3,1.6,0.9,3.1,1.8,4.5c0.8,1.2,1.3,2.5,1.5,3.8l0.2,1.4l1.3-0.6c1.2-0.5,2.5-0.7,3.8-0.6c1.6,0,3.3,0.2,4.9,0.4l0.6,0.1l1,0.1
	l0.1-1c0.3-2.4-1.8-4.7-3.7-6c-1.1-0.7-2.9-2.1-2.5-3.5c0.2-0.5,0.5-0.9,0.8-1.3c1.6-1.7,3.8-3,7.2-4.2c0.8-0.3,1.2-1.1,1-1.9
	c-0.3-0.6-0.7-1.2-1.3-1.5c-0.1-0.1-0.3-0.2-0.4-0.3c-1-1,0.6-2.8,0.8-3c0.8-0.7,1.6-1.3,2.5-1.8c0.5-0.3,1-0.6,1.5-1
	c2.1-1.5,3.1-3.3,2.9-5.2L113.6,1.2L113.6,1.2L113.6,1.2z"/>
<path class="st15" d="M90.8,23.2c0,0.2,0,0.4,0,0.5c0.2,1.3,0.7,2.6,1.5,3.8c1.9-1.1,4-1.8,6.2-2.1l0.4-0.1c-0.9-0.8-1.4-2-1.2-3.2
	c0.2-0.6,0.6-1.2,1.1-1.7c0.1-0.1,0.3-0.3,0.4-0.4c-1.2,0.3-2.4,0.7-3.6,1.2C94,22,92.4,22.6,90.8,23.2z"/>
<path class="st8" d="M101.3,96.7c-2.3,3.6,1.8,7.3,2.1,7.3l4.1-0.5c-1.7-1.4-2.7-3.4-2.8-5.6C103.6,97.4,102.4,97,101.3,96.7z"/>
<path class="st13" d="M102.3,94.7c-2.3,3.6,1.8,7.3,2.1,7.3l4.1-0.5c-1.7-1.4-2.7-3.4-2.8-5.6C104.6,95.4,103.4,95,102.3,94.7z"/>
<path class="st13" d="M29.1,57.8c-0.4,3.9,0.5,7.8,2.3,11.2L28,69.7c-0.7,0.2-1.5,0.2-2.2-0.1c-0.5-0.4-0.8-0.8-0.9-1.4
	c-1.2-3.1-1.5-6.4-0.9-9.7C24.6,58.6,27.9,57.8,29.1,57.8z"/>
</svg>
