<svg id="Layer_1" data-name="Layer 1" xmlns="http://www.w3.org/2000/svg" xmlns:xlink="http://www.w3.org/1999/xlink" viewBox="0 0 380 200"><defs><style>.cls-1,.cls-19,.cls-6,.cls-9{fill:none;}.cls-2{fill:#fafafa;}.cls-14,.cls-3{fill:#fff;}.cls-4{clip-path:url(#clip-path);}.cls-5{fill:#e4daef;}.cls-10,.cls-11,.cls-13,.cls-14,.cls-16,.cls-17,.cls-18,.cls-6,.cls-7,.cls-8,.cls-9{stroke:#52306c;}.cls-10,.cls-11,.cls-13,.cls-14,.cls-17,.cls-18,.cls-19,.cls-6,.cls-7,.cls-8,.cls-9{stroke-miterlimit:10;}.cls-11,.cls-13,.cls-14,.cls-16,.cls-17,.cls-18,.cls-6,.cls-7,.cls-8{stroke-width:2px;}.cls-7{fill:#738ee5;}.cls-8{fill:#b82bed;}.cls-10,.cls-11{fill:#bf977b;}.cls-12{fill:#52306c;}.cls-13{fill:#a47cce;}.cls-15,.cls-16{fill:#fff9eb;}.cls-16{stroke-linecap:square;stroke-linejoin:round;}.cls-17{fill:#ea4444;}.cls-18{fill:#ffed43;}.cls-19{stroke:#fff;stroke-linecap:round;}.cls-20{fill:#aaa;}</style><clipPath id="clip-path"><path class="cls-1" d="M280.12,145a15.58,15.58,0,0,1-4.8-11.3v-65a4.23,4.23,0,0,0-4.1-4.3H107a4.33,4.33,0,0,0-3.7,2.2,4.59,4.59,0,0,0-1,2.5v12.4a15.62,15.62,0,0,1-4.6,11.4l-6.6,6.5h11.3V148c0,2.3,2.5,3.4,4.7,3.4H287Z"/></clipPath></defs><title>getting-feedback-earlier</title><rect class="cls-2" width="380" height="200"/><path id="SVGID" class="cls-3" d="M280.12,145a15.58,15.58,0,0,1-4.8-11.3v-65a4.23,4.23,0,0,0-4.1-4.3H107a4.33,4.33,0,0,0-3.7,2.2,4.59,4.59,0,0,0-1,2.5v12.4a15.62,15.62,0,0,1-4.6,11.4l-6.6,6.5h11.3V148c0,2.3,2.5,3.4,4.7,3.4H287Z"/><g class="cls-4"><path class="cls-5" d="M122,170.77H91V59.47a14.62,14.62,0,0,1,14.6-14.6H122v125.9Z"/></g><path id="SVGID-2" class="cls-6" d="M280.12,145a15.58,15.58,0,0,1-4.8-11.3v-65a4.23,4.23,0,0,0-4.1-4.3H107a4.33,4.33,0,0,0-3.7,2.2,4.59,4.59,0,0,0-1,2.5v12.4a15.62,15.62,0,0,1-4.6,11.4l-6.6,6.5h11.3V148c0,2.3,2.5,3.4,4.7,3.4H287Z"/><circle id="SVGID-3" class="cls-7" cx="53.82" cy="76.57" r="27.3"/><circle id="SVGID-4" class="cls-6" cx="53.82" cy="76.57" r="27.3"/><path class="cls-8" d="M53.82,89.57c-8.7,0-16.4,1.5-20.8,4.7a27.33,27.33,0,0,0,41.6,0C70.22,91.07,62.52,89.57,53.82,89.57Z"/><path class="cls-9" d="M46.42,89.57v3.6c0,2.9,3.3,4.8,7.4,4.8h0c4.1,0,7.4-1.9,7.4-4.8v-3.6"/><path class="cls-10" d="M58,87.17h-8.4v4.2c0,2.3,1.9,2.8,4.2,2.8h0c2.3,0,4.2-.4,4.2-2.8v-4.2Z"/><path class="cls-11" d="M53.82,89.67c-6.8,0-12.2-5.5-14.2-11h-0.3a3.56,3.56,0,0,1-3.3-3.4c-0.2-2.1,1-3.9,2.8-4.1H39a15,15,0,0,1,29.6,0h0a3.15,3.15,0,0,1,2.2,1.4,4.17,4.17,0,0,1,.6,2.7,3.56,3.56,0,0,1-3.3,3.4h-0.2C66,84.17,60.62,89.67,53.82,89.67Z"/><path class="cls-12" d="M53.82,59.17a14.64,14.64,0,0,1,14.4,12.5h0.5a3.29,3.29,0,0,1-.5,6.4h-0.3c-0.1,0-.2,0-0.2-0.1-1.9,6-7.4,11.2-13.9,11.2s-12-5.3-13.8-11.1c-0.1,0-.3.1-0.4,0.1h-0.3a3.11,3.11,0,0,1-2.8-2.9c-0.2-1.8.8-3.4,2.3-3.5h0.6a14.55,14.55,0,0,1,14.4-12.6m0-1a15.52,15.52,0,0,0-15.2,12.6,3.29,3.29,0,0,0-2.4,1.6,4.35,4.35,0,0,0-.7,2.9,3.91,3.91,0,0,0,3.8,3.7h0c2.1,6,7.6,11.1,14.5,11.1s12.4-5.4,14.5-11a4.35,4.35,0,0,0,.7-8.4,15.37,15.37,0,0,0-15.2-12.5h0Z"/><path class="cls-12" d="M62.92,66.17l2.2,5a0.9,0.9,0,0,0,.6.6l2.6,0.7a14.55,14.55,0,0,0-29,.1l2.9-.8a0.9,0.9,0,0,0,.6-0.6l2.2-5,0.5-.8,4-2.2,5.4,1.7Z"/><path class="cls-12" d="M50.82,65.67a9,9,0,0,1,2.1.8,8.94,8.94,0,0,0,5.1.6,6,6,0,0,1,2.3-.2c1.3,0.2,2.2,1.5,3.5,1.8a3.16,3.16,0,0,0,3.4-1.9c0.6-1.3,1.8-3.7,1.9-5.1-1.7.8-4.5-.8-6.1-1.9-2.3-1.6-5.1-1-7.9-1.4a17,17,0,0,0-4.5-.2,4.77,4.77,0,0,0-3.7,2.4,6.7,6.7,0,0,1,0-2,1.47,1.47,0,0,0-1.7.6,1.38,1.38,0,0,0,.3,1.7,3.76,3.76,0,0,0-2.1-.1,1.49,1.49,0,0,0-1.2,1.5,1.23,1.23,0,0,1,1.5.2,4.09,4.09,0,0,0-3.2,2.5,14.48,14.48,0,0,0-1,4.1,18.46,18.46,0,0,1-.4,2.3c-0.1-.4,1.1,0,1.5,0s-0.1.1-.1,0.5c1.3-.1,2.1-1.5,2.5-2.8s0.7-2.7,1.8-3.4,1.9,0.1,3,.2S49.72,65.47,50.82,65.67Z"/><g id="a"><path class="cls-12" d="M47.32,80.57a4.56,4.56,0,0,0,1.2,1.3,10,10,0,0,0,2.4,1.5,8.17,8.17,0,0,0,2.9.7,6.48,6.48,0,0,0,2.9-.7,8.31,8.31,0,0,0,2.4-1.5,6.42,6.42,0,0,0,1.2-1.3c0.1-.4-0.1-0.5-0.4-0.3a12.49,12.49,0,0,1-3.7,1.8,8.75,8.75,0,0,1-2.4.3q-1.5-.15-2.4-0.3a13.77,13.77,0,0,1-3.7-1.8c-0.3-.2-0.5-0.1-0.4.3m4.9-5.4a5.4,5.4,0,0,0-.6-2.7,2.08,2.08,0,0,0-1.6-1.1h0a2.08,2.08,0,0,0-1.6,1.1,4.91,4.91,0,0,0-.6,2.7c0,0.8.2,1,.5,0.6l0.6-.8a1,1,0,0,1,1.1-.6h0a1.08,1.08,0,0,1,1.1.6l0.6,0.8c0.4,0.4.5,0.2,0.5-.6m3.7,0.6,0.6-.8a1,1,0,0,1,1.1-.6h0a1.08,1.08,0,0,1,1.1.6l0.6,0.8c0.3,0.4.5,0.2,0.5-.6a5.4,5.4,0,0,0-.6-2.7,2.08,2.08,0,0,0-1.6-1.1h0a2.08,2.08,0,0,0-1.6,1.1,5.4,5.4,0,0,0-.6,2.7C55.42,76,55.52,76.17,55.92,75.77Z"/></g><circle id="SVGID-5" class="cls-13" cx="316.32" cy="124.57" r="28.4"/><circle id="SVGID-6" class="cls-9" cx="316.32" cy="124.57" r="28.4"/><path class="cls-9" d="M305,139.27c-0.7,3.5,4.7,7,11.5,7s12.1-3.6,11.5-7.1"/><path class="cls-14" d="M316.32,138.17c-9.1,0-17,1.5-21.6,4.8a28.33,28.33,0,0,0,43.2,0C333.32,139.77,325.32,138.17,316.32,138.17Z"/><path class="cls-9" d="M308.62,138.17v3.7c0,3,3.4,5,7.7,5h0c4.2,0,7.7-2,7.7-5v-3.7"/><path class="cls-15" d="M316.32,143.37c-1.34,0-4.9,0-4.9-3.4v-4.8h9.8V140C321.22,143.37,317.82,143.37,316.32,143.37Z"/><path class="cls-12" d="M320.72,135.67V140c0,2.5-2,2.9-4.4,2.9s-4.4-.5-4.4-2.9v-4.3h8.8m1-1h-10.8V140c0,3.9,4.06,3.9,5.4,3.9s5.4,0,5.4-3.9v-5.3h0Z"/><path class="cls-16" d="M331.62,119.57h-0.4a15.13,15.13,0,0,0-7.4-11c1.6-.8,3.1-1.6,3.1-1.6l-5.3.5h-0.1a14.42,14.42,0,0,0,.85-1.67,0.4,0.4,0,0,0-.53-0.52,29.11,29.11,0,0,1-4.42,1.29c-0.4,0-.7-0.1-1.1-0.1a15.09,15.09,0,0,0-14.9,13.1h-0.6c-1.6.2-2.6,1.8-2.4,3.7a3,3,0,0,0,3,3h0.21c0.1,0,.3-0.1.4-0.1,1.9,6.1,7.6,11.5,14.4,11.5s12.4-5.4,14.4-11.5c0.1,0,.2,0,0.2.1a3.1,3.1,0,0,0,3.2-3h0A3.31,3.31,0,0,0,331.62,119.57Z"/><path class="cls-12" d="M328,119.07a0.9,0.9,0,0,0,.6.6l2.7,0.7a15,15,0,0,0-30,.1l3-.8a0.9,0.9,0,0,0,.6-0.6l2.3-5.2h18.6Z"/><g id="a-2"><path class="cls-12" d="M312.72,130.17a3.54,3.54,0,0,0,6,2.5,3.39,3.39,0,0,0,.21-4.79l-0.21-.21a3.62,3.62,0,0,0-5,0,4.17,4.17,0,0,0-1,2.5m0.2-8.5a2.5,2.5,0,0,0,0-3,1.5,1.5,0,0,0-2.4,0,2.5,2.5,0,0,0,0,3,1.56,1.56,0,0,0,1.2.6,1.41,1.41,0,0,0,1.2-.6"/></g><path class="cls-12" d="M322.22,121.67a2.5,2.5,0,0,0,0-3,1.5,1.5,0,0,0-2.4,0,2.5,2.5,0,0,0,0,3,1.56,1.56,0,0,0,1.2.6,1.41,1.41,0,0,0,1.2-.6"/><path class="cls-12" d="M316.32,106.47a27.52,27.52,0,0,0,5.84-1.5,0.29,0.29,0,0,1,.38.35,12.22,12.22,0,0,1-2.12,3.73Z"/><path class="cls-12" d="M320.92,107.57l5.13-.51a0.17,0.17,0,0,1,.1.31c-1.57.8-5.08,2.55-6.23,2.7C318.42,110.27,320.92,107.57,320.92,107.57Z"/><path class="cls-17" d="M26.72,67.57l-0.3-.1a18,18,0,0,1-5.1-1.9c-3.5-2-5.6-4.8-5.9-8.2-0.4-4.2,2.3-6.6,5.2-6.9a5.51,5.51,0,0,1,3.9,1.2,3.45,3.45,0,0,1,.8.9,3.59,3.59,0,0,1,.7-1,5.56,5.56,0,0,1,3.6-1.9c2.9-.3,6,1.6,6.3,5.8,0.3,3.4-1.2,6.5-4.3,9.1a16.8,16.8,0,0,1-4.7,2.8Z"/><path class="cls-17" d="M79.12,56H79a9.58,9.58,0,0,1-2.2-1.6,5.38,5.38,0,0,1-1.8-4.7,3,3,0,0,1,3.35-2.61h0.05a2.45,2.45,0,0,1,1.7,1.1c0.1,0.2.2,0.3,0.3,0.5a2.18,2.18,0,0,1,.5-0.4,2.82,2.82,0,0,1,2-.4,3,3,0,0,1,2.31,3.56v0a5,5,0,0,1-3.3,3.8,8.53,8.53,0,0,1-2.6.7h-0.2Z"/><path class="cls-17" d="M69.22,108.37H69a11.83,11.83,0,0,1-3.1-1.5,6.75,6.75,0,0,1-3.2-5.5,3.71,3.71,0,0,1,3.41-4h0.29a3.1,3.1,0,0,1,2.4,1c0.2,0.2.3,0.4,0.5,0.6a2.65,2.65,0,0,1,.5-0.6,3.49,3.49,0,0,1,2.4-1,3.77,3.77,0,0,1,3.71,3.83q0,0.08,0,.17a6.49,6.49,0,0,1-3.2,5.5,10,10,0,0,1-3.1,1.5h-0.4Z"/><path class="cls-18" d="M347.92,84.07a16.7,16.7,0,1,0,16.7,16.7A16.7,16.7,0,0,0,347.92,84.07Z"/><circle class="cls-12" cx="347.92" cy="108.67" r="2.3"/><path class="cls-12" d="M350.22,102.37a2.33,2.33,0,0,1-2.3,2.3,2.26,2.26,0,0,1-2.3-2.22s0-.05,0-0.08V93a2.33,2.33,0,0,1,2.3-2.3,2.26,2.26,0,0,1,2.3,2.22s0,0.05,0,.08v9.4Z"/><path class="cls-19" d="M347.82,86.87a13.87,13.87,0,0,0-12.1,7m-1.5,3.9a15.53,15.53,0,0,0-.3,3.1"/><path class="cls-12" d="M108.72,74.57h6.8v4.3h-6.8v-4.3Z"/><path class="cls-12" d="M108.72,90.57h6.8v4.3h-6.8v-4.3Z"/><path class="cls-12" d="M108.72,106.57h6.8v4.3h-6.8v-4.3Z"/><path class="cls-12" d="M108.72,122.57h6.8v4.3h-6.8v-4.3Z"/><path class="cls-12" d="M108.72,138.57h6.8v4.3h-6.8v-4.3Z"/><path class="cls-20" d="M132.72,74.57H189v4.3h-56.3v-4.3Z"/><path class="cls-20" d="M201.52,74.57h32.27v4.3H201.52v-4.3Z"/><path class="cls-20" d="M132.72,90.57h37.7v4.3h-37.7v-4.3Z"/><path class="cls-20" d="M145.22,106.57h37.7v4.3h-37.7v-4.3Z"/><path class="cls-20" d="M145.22,122.57h50.2v4.3h-50.2v-4.3Z"/><path class="cls-20" d="M132.72,138.57h37.6v4.3h-37.6v-4.3Z"/><path class="cls-20" d="M182.72,138.57h50.2v4.3h-50.2v-4.3Z"/></svg>