<?xml version="1.0" encoding="utf-8"?>
<!-- Generator: Adobe Illustrator 19.2.1, SVG Export Plug-In . SVG Version: 6.00 Build 0)  -->
<svg version="1.1" id="Layer_1" xmlns="http://www.w3.org/2000/svg" xmlns:xlink="http://www.w3.org/1999/xlink" x="0px" y="0px"
	 viewBox="0 0 380 200" style="enable-background:new 0 0 380 200;" xml:space="preserve">
<style type="text/css">
	.st0{fill:#FAFAFA;}
	.st1{opacity:0.12;clip-path:url(#SVGID_2_);}
	.st2{fill:none;stroke:#30306B;stroke-width:16;stroke-miterlimit:10;}
	.st3{fill:#30306B;}
	.st4{fill:#FFFFFF;stroke:#52306C;stroke-width:2;stroke-miterlimit:10;}
	.st5{fill:#52306C;}
	.st6{fill:#5050AA;}
	.st7{fill:#7D7DCC;}
	.st8{font-family:'BLOKKNeue-Regular';}
	.st9{font-size:8px;}
</style>
<rect class="st0" width="380" height="200"/>
<g>
	<defs>
		<rect id="SVGID_1_" width="380" height="200"/>
	</defs>
	<clipPath id="SVGID_2_">
		<use xlink:href="#SVGID_1_"  style="overflow:visible;"/>
	</clipPath>
	<g class="st1">
		<line class="st2" x1="344.8" y1="-109.9" x2="69.6" y2="217.9"/>
		<path class="st2" d="M278.8,128.5l-16.3,19.5c-16.3,19.8-40.7,31.2-66.3,31.3l-94.6-0.3"/>
		<path class="st3" d="M322,78.6c13.5,11.4,15.3,31.5,3.9,45.1s-31.5,15.3-45.1,3.9s-15.3-31.5-3.9-45.1S308.5,67.2,322,78.6
			 M333.6,64.8c-21.1-17.8-52.7-15-70.4,6.1s-15,52.7,6.1,70.4s52.7,15,70.4-6.1l0,0C357.5,114.1,354.7,82.5,333.6,64.8L333.6,64.8z
			"/>
	</g>
</g>
<g>
	<defs>
		<rect id="SVGID_3_" width="380" height="200"/>
	</defs>
	<clipPath id="SVGID_4_">
		<use xlink:href="#SVGID_3_"  style="overflow:visible;"/>
	</clipPath>
</g>
<path class="st4" d="M256,100l-14-14V35c0-6.6-5.2-11-11.8-11h-90c-6.6,0-12.2,4.4-12.2,11v28.7v32.6V145c0,6.6,5.6,13,12.2,13h90
	c6.6,0,11.8-6.4,11.8-13v-31L256,100z"/>
<ellipse transform="matrix(0.643 -0.7659 0.7659 0.643 28.9697 267.149)" class="st5" cx="301" cy="102.5" rx="20" ry="20"/>
<title>runnable-art</title>
<polygon class="st6" points="149.3,97.5 184.7,117.7 185.3,106.8 149.3,86 "/>
<polygon class="st3" points="185.2,106.3 220.1,85.8 185.2,65 149.7,85.8 "/>
<polygon class="st7" points="220.8,96.8 185,117.7 184.8,106.8 220.8,86 "/>
<path class="st3" d="M185,65l-36,20.8v11.5l36,20.8l36-20.8V85.8L185,65z M184.9,117L184.9,117z M220.1,96.8l-34.6,20v-10.3h-0.9
	v10.3l-34.6-20v-10l35,20l0.5-0.8l-35-20L185,66.1L219.5,86l-35,20l0.5,0.8l35.1-20V96.8L220.1,96.8z"/>
<polygon class="st6" points="149.3,86.5 184.7,106.7 185.3,95.8 149.3,75 "/>
<polygon class="st3" points="185.2,95.3 220.1,74.8 185.2,54 149.7,74.8 "/>
<polygon class="st7" points="220.8,85.8 185,106.7 184.8,95.8 220.8,75 "/>
<path class="st3" d="M185,54l-36,20.8v11.5l36,20.8l36-20.8V74.8L185,54z M184.9,106L184.9,106z M220.1,85.8l-34.6,20V95.5h-0.9
	v10.3l-34.6-20v-10l35,20l0.5-0.8l-35-20L185,55.1L219.5,75l-35,20l0.5,0.8l35.1-20V85.8C220.1,85.8,220.1,85.8,220.1,85.8z"/>
<polygon class="st6" points="149.3,75.5 184.7,95.7 185.3,84.8 149.3,64 "/>
<polygon class="st3" points="185.2,84.3 220.1,63.8 185.2,43 149.7,63.8 "/>
<polygon class="st7" points="220.8,74.8 185,95.7 184.8,84.8 220.8,64 "/>
<path class="st3" d="M185,43l-36,20.8v11.5l36,20.8l36-20.8V63.8L185,43z M184.9,95L184.9,95z M220.1,74.8l-34.6,20V84.5h-0.9v10.3
	l-34.6-20v-10l35,20l0.5-0.8l-35-20L185,44.1L219.5,64l-35,20l0.5,0.8l35.1-20V74.8L220.1,74.8z"/>
<text transform="matrix(1 0 0 1 149 138.667)" class="st5 st8 st9">block name.jpg</text>
</svg>
