<svg id="Layer_1" data-name="Layer 1" xmlns="http://www.w3.org/2000/svg" xmlns:xlink="http://www.w3.org/1999/xlink" viewBox="0 0 380 315.06"><defs><style>.cls-1{fill:none;}.cls-2{fill:#fafafa;}.cls-3{clip-path:url(#clip-path);}.cls-4,.cls-5{fill:#30306b;}.cls-5{opacity:0.2;}.cls-6{fill:#fff;stroke:#52306c;stroke-miterlimit:10;stroke-width:2px;}.cls-7{fill:#52306c;}.cls-8{fill:#5050aa;}.cls-9{fill:#7d7dcc;}</style><clipPath id="clip-path" transform="translate(0 115.06)"><rect class="cls-1" width="380" height="200"/></clipPath></defs><title>isolate-your-environment</title><rect class="cls-2" y="115.06" width="380" height="200"/><g class="cls-3"><polygon class="cls-4" points="338.67 0.02 338.65 0 338.64 0.02 338.67 0.02"/><path class="cls-5" d="M333.6,64.8A50,50,0,0,0,262.94,135l-6.62,7.93a78,78,0,0,1-60.1,28.38l-76.84-.24L263,0H242.07L74.19,200H95.08L106,187l90.25,0.29a93.93,93.93,0,0,0,72.41-34.17l6.37-7.62a50,50,0,0,0,64.65-10.26l0-.05A50,50,0,0,0,333.6,64.8Zm-7.71,58.89a32,32,0,1,1-3.9-45.1h0A32,32,0,0,1,325.89,123.69Z" transform="translate(0 115.06)"/></g><path class="cls-6" d="M256,100L242,86V35c0-6.6-5.2-11-11.8-11h-90c-6.6,0-12.2,4.4-12.2,11V145c0,6.6,5.6,13,12.2,13h90c6.6,0,11.8-6.4,11.8-13V114Z" transform="translate(0 115.06)"/><circle class="cls-7" cx="301.01" cy="102.5" r="20" transform="translate(28.97 382.21) rotate(-49.99)"/><polygon class="cls-8" points="149.3 212.56 184.7 232.76 185.3 221.86 149.3 201.06 149.3 212.56"/><polygon class="cls-4" points="185.2 221.36 220.1 200.86 185.2 180.06 149.7 200.86 185.2 221.36"/><polygon class="cls-9" points="220.8 211.86 185 232.76 184.8 221.86 220.8 201.06 220.8 211.86"/><path class="cls-4" d="M185,65L149,85.8V97.3l36,20.8,36-20.8V85.8Zm-0.1,52h0Zm35.2-20.2-34.6,20V106.5h-0.9v10.3L150,96.8v-10l35,20,0.5-.8-35-20L185,66.1,219.5,86l-35,20,0.5,0.8,35.1-20v10h0Z" transform="translate(0 115.06)"/><polygon class="cls-8" points="149.3 201.56 184.7 221.76 185.3 210.86 149.3 190.06 149.3 201.56"/><polygon class="cls-4" points="185.2 210.36 220.1 189.86 185.2 169.06 149.7 189.86 185.2 210.36"/><polygon class="cls-9" points="220.8 200.86 185 221.76 184.8 210.86 220.8 190.06 220.8 200.86"/><path class="cls-4" d="M185,54L149,74.8V86.3l36,20.8,36-20.8V74.8Zm-0.1,52h0Zm35.2-20.2-34.6,20V95.5h-0.9v10.3L150,85.8v-10l35,20,0.5-.8-35-20L185,55.1,219.5,75l-35,20,0.5,0.8,35.1-20v10h0Z" transform="translate(0 115.06)"/><polygon class="cls-8" points="149.3 190.56 184.7 210.76 185.3 199.86 149.3 179.06 149.3 190.56"/><polygon class="cls-4" points="185.2 199.36 220.1 178.86 185.2 158.06 149.7 178.86 185.2 199.36"/><polygon class="cls-9" points="220.8 189.86 185 210.76 184.8 199.86 220.8 179.06 220.8 189.86"/><path class="cls-4" d="M185,43L149,63.8V75.3l36,20.8,36-20.8V63.8Zm-0.1,52h0Zm35.2-20.2-34.6,20V84.5h-0.9V94.8L150,74.8v-10l35,20,0.5-.8-35-20L185,44.1,219.5,64l-35,20,0.5,0.8,35.1-20v10h0Z" transform="translate(0 115.06)"/><path class="cls-7" d="M149,135.23h25.31v3.44H149v-3.44Z" transform="translate(0 115.06)"/><path class="cls-7" d="M184,135.23h40.16v3.44H184v-3.44Z" transform="translate(0 115.06)"/></svg>