<svg id="Layer_1" data-name="Layer 1" xmlns="http://www.w3.org/2000/svg" xmlns:xlink="http://www.w3.org/1999/xlink" viewBox="0 0 72 83.1"><defs><style>.cls-1{fill:#52306c;}.cls-2{fill:#a47cce;}.cls-3{fill:url(#linear-gradient);}.cls-4{fill:#fff;}</style><linearGradient id="linear-gradient" x1="0.34" y1="34.15" x2="36.34" y2="34.15" gradientTransform="matrix(1, 0, 0, -1, 0, 86)" gradientUnits="userSpaceOnUse"><stop offset="0" stop-color="#834fab"/><stop offset="1" stop-color="#834fab"/></linearGradient></defs><title>one-click-containers</title><polygon class="cls-1" points="36.2 41.3 71.1 20.8 36.2 0 0.7 20.8 36.2 41.3"/><polygon class="cls-2" points="71.8 61.8 36 82.7 35.8 41.8 71.8 21 71.8 61.8"/><polygon class="cls-3" points="0.3 62.5 35.7 82.7 36.3 41.8 0.3 21 0.3 62.5"/><path class="cls-1" d="M36,0L0,20.8V62.3L36,83.1,72,62.3V20.8ZM35.9,82h0ZM71.1,61.8l-34.6,20V41.5H35.6V81.8L1,61.8v-40l35,20,0.5-.8L1.5,21,36,1.1,70.5,21l-35,20L36,41.8l35.1-20v40h0Z"/><rect class="cls-1" x="54.3" y="45.8" width="2" height="4.5"/><rect class="cls-1" x="61.8" y="55.8" width="4.5" height="2"/><rect class="cls-1" x="44.3" y="55.8" width="4.5" height="2"/><rect class="cls-1" x="48.78" y="47.69" width="2" height="4.5" transform="translate(-20.73 49.83) rotate(-45.01)"/><rect class="cls-1" x="59.93" y="48.89" width="4.5" height="2" transform="translate(-17.07 58.55) rotate(-44.98)"/><rect class="cls-1" x="47.57" y="61.18" width="4.5" height="2" transform="translate(-29.37 53.43) rotate(-44.99)"/><polygon class="cls-4" points="60.4 72.2 54.6 77.6 54.5 54.5 70.8 70.9 63 71.2 66.7 79.7 64.1 80.8 60.4 72.2"/><path class="cls-1" d="M55,55.7L69.6,70.4l-7.4.3L66,79.4l-1.6.7-3.8-8.8-5.5,5.1L55,55.7m-1-2.5v2.4l0.1,20.7v2.3L55.8,77l4.4-4.1,3.2,7.5,0.4,0.9,0.9-.4,1.6-.7,0.9-.4L66.9,79l-3.2-7.4,5.9-.2,2.3-.1-1.6-1.6L55.7,55,54,53.2h0Z"/></svg>