<svg id="Layer_1" data-name="Layer 1" xmlns="http://www.w3.org/2000/svg" xmlns:xlink="http://www.w3.org/1999/xlink" viewBox="0 0 380 200"><defs><style>.cls-1{fill:none;}.cls-2{fill:#fafafa;}.cls-3,.cls-6,.cls-9{fill:#52306c;}.cls-4{fill:#a47cce;}.cls-5{fill:url(#linear-gradient);}.cls-6{stroke:#52306c;stroke-miterlimit:10;}.cls-7{fill:#fff;}.cls-8{clip-path:url(#clip-path);}.cls-9{opacity:0.1;isolation:isolate;}</style><linearGradient id="linear-gradient" x1="136.51" y1="-393" x2="190.51" y2="-393" gradientTransform="matrix(1, 0, 0, -1, 0, -272)" gradientUnits="userSpaceOnUse"><stop offset="0" stop-color="#834fab"/><stop offset="1" stop-color="#834fab"/></linearGradient><clipPath id="clip-path"><polygon class="cls-1" points="230.6 151.53 221.9 159.63 221.75 124.97 246.2 149.57 234.5 150.03 240.05 162.78 236.15 164.43 230.6 151.53"/></clipPath></defs><title>one-click-containers [Recovered]</title><rect class="cls-2" width="380" height="200"/><polygon class="cls-3" points="190.3 105.17 242.65 74.42 190.3 43.23 137.05 74.42 190.3 105.17"/><polygon class="cls-4" points="243.7 135.93 190 167.28 189.7 105.92 243.7 74.72 243.7 135.93"/><polygon class="cls-5" points="136.45 136.97 189.55 167.28 190.45 105.92 136.45 74.72 136.45 136.97"/><path class="cls-6" d="M190,43.23l-54,31.2v62.25l54,31.2,54-31.2V74.42Zm-0.15,123h0Zm52.8-30.3-51.9,30V105.48H189.4v60.45l-51.9-30v-60l52.5,30,0.75-1.2-52.5-30L190,44.88l51.75,29.85-52.5,30,0.75,1.2,52.65-30v60h0Z"/><path class="cls-3" d="M210.92,145.65a1,1,0,0,1-.25,0,11.1,11.1,0,0,1-1.52-.5,11.27,11.27,0,0,1-2.36-1.32,1,1,0,0,1,1.18-1.62,9.37,9.37,0,0,0,3.19,1.51A1,1,0,0,1,210.92,145.65Zm5.84-.09a1,1,0,0,1-.25-2,15.77,15.77,0,0,0,3.43-1.35,1,1,0,0,1,.94,1.77,17.78,17.78,0,0,1-3.87,1.52A1,1,0,0,1,216.75,145.56Zm8.44-4.87a1,1,0,0,1-.68-1.74,28.7,28.7,0,0,0,2.62-2.76,1,1,0,0,1,1.54,1.28,30.93,30.93,0,0,1-2.8,2.95A1,1,0,0,1,225.19,140.69Zm-21.53-1.22a1,1,0,0,1-.89-0.55,19,19,0,0,1-1.44-3.89,1,1,0,1,1,1.94-.49,17,17,0,0,0,1.29,3.48A1,1,0,0,1,203.66,139.47Zm27.6-6.48a1,1,0,0,1-.87-1.5,36.92,36.92,0,0,0,1.73-3.42,1,1,0,0,1,1.83.81,39.12,39.12,0,0,1-1.83,3.6A1,1,0,0,1,231.26,133Zm-29.68-3.05a1,1,0,0,1-1-1V128.7a32.31,32.31,0,0,1,.23-3.81,1,1,0,0,1,2,.24,30.14,30.14,0,0,0-.22,3.57v0.23a1,1,0,0,1-1,1h0Zm33.44-6a1,1,0,0,1-1-1.26,34.57,34.57,0,0,0,.79-3.74,1,1,0,1,1,2,.3,36.31,36.31,0,0,1-.83,4A1,1,0,0,1,235,123.92Zm-30.69-8.4a1,1,0,0,1,.55,1.29c-0.35.9-.65,1.81-0.92,2.71a1,1,0,0,1-1,.72,1,1,0,0,1-.28,0A1,1,0,0,1,202,119c0.28-1,.61-1.92,1-2.87a1,1,0,0,1,1.31-.56h0Zm31.83-1.34a1,1,0,0,1-1-1,23.71,23.71,0,0,0-.45-3.75,1,1,0,0,1,2-.4,25.62,25.62,0,0,1,.49,4.06,1,1,0,0,1-1,1h0Zm-29.14-3a1,1,0,0,1-.85-1.52,35.26,35.26,0,0,1,2.31-3.33A1,1,0,0,1,210,107.6a33.52,33.52,0,0,0-2.18,3.14A1,1,0,0,1,207,111.22Zm26.63-6.44a1,1,0,0,1-.86-0.49,11.52,11.52,0,0,0-2.28-2.8,1,1,0,0,1,1.32-1.5,13.52,13.52,0,0,1,2.67,3.28A1,1,0,0,1,233.64,104.77Zm-20.32-1.06a1,1,0,0,1-.65-1.76A24.28,24.28,0,0,1,216,99.56a1,1,0,1,1,1,1.72,22.32,22.32,0,0,0-3.05,2.2A1,1,0,0,1,213.32,103.72ZM222,99.3a1,1,0,0,1-.18-2,15,15,0,0,1,2.36-.21,12,12,0,0,1,1.89.15,1,1,0,0,1-.32,2,10,10,0,0,0-1.57-.12h0a11.35,11.35,0,0,0-2,.18Z"/><path class="cls-3" d="M216,136.08a1,1,0,0,1,0-2,7.73,7.73,0,0,0,3.54-1.09,1,1,0,0,1,1,1.74,9.69,9.69,0,0,1-4.46,1.35h0Zm-5.38-2.78a1,1,0,0,1-.82-0.43,11,11,0,0,1-1.7-4.28,1,1,0,1,1,2-.37,9,9,0,0,0,1.38,3.51A1,1,0,0,1,210.66,133.3Zm14-2.67a1,1,0,0,1-.8-1.6,19.91,19.91,0,0,0,2.06-3.44,1,1,0,1,1,1.81.85,21.83,21.83,0,0,1-2.27,3.79A1,1,0,0,1,224.69,130.62Zm-15.45-7.52-0.19,0a1,1,0,0,1-.79-1.17,22.46,22.46,0,0,1,1.28-4.22,1,1,0,0,1,1.32-.57,1,1,0,0,1,.55,1.28l-0.92-.38,0.91,0.41a20.54,20.54,0,0,0-1.17,3.87A1,1,0,0,1,209.24,123.1ZM228.69,121h-0.14a1,1,0,0,1-.85-1.13,17,17,0,0,0,.18-2.42,14.7,14.7,0,0,0-.08-1.54,1,1,0,1,1,2-.21,16.59,16.59,0,0,1,.09,1.75,19.12,19.12,0,0,1-.2,2.7A1,1,0,0,1,228.69,121Zm-15-7.36A1,1,0,0,1,213,112a16.62,16.62,0,0,1,3.3-3,1,1,0,0,1,1.13,1.65,14.62,14.62,0,0,0-2.9,2.66A1,1,0,0,1,213.74,113.61ZM226.45,111a1,1,0,0,1-.73-0.32,5.19,5.19,0,0,0-1.82-1.29,5,5,0,0,0-1.24-.33,1,1,0,0,1,.27-2,7.07,7.07,0,0,1,1.73.47,7.16,7.16,0,0,1,2.53,1.77A1,1,0,0,1,226.45,111Z"/><polygon class="cls-7" points="230.24 153.22 220.91 161.91 220.74 122.54 248.52 150.49 236 150.97 241.37 163.3 235.63 165.73 230.24 153.22"/><g class="cls-8"><polygon class="cls-9" points="221.75 124.97 238.1 163.6 221.75 171.25 221.75 124.97"/></g><path class="cls-3" d="M221.75,125l24.45,24.6-11.7.45,5.5,12.72-3.9,1.65-5.55-12.9-8.7,8.1L221.75,125m-2-4.87V125l0.15,34.65v4.57l3.34-3.11,6.62-6.17,4.43,10.29L235.1,167l1.83-.77,3.9-1.65,1.86-.79L241.88,162l-4.38-10.07,8.77-.34,4.56-.18-3.21-3.23-24.45-24.6-3.44-3.46h0Z"/></svg>