<?xml version="1.0" encoding="utf-8"?>
<!-- Generator: Adobe Illustrator 19.2.1, SVG Export Plug-In . SVG Version: 6.00 Build 0)  -->
<svg version="1.1" id="Layer_1" xmlns="http://www.w3.org/2000/svg" xmlns:xlink="http://www.w3.org/1999/xlink" x="0px" y="0px"
	 viewBox="0 0 143.9 166.8" style="enable-background:new 0 0 143.9 166.8;" xml:space="preserve">
<style type="text/css">
	.st0{fill:#52306C;}
	.st1{fill:#A47CCE;}
	.st2{fill:url(#SVGID_1_);}
	.st3{fill:#FFFFFF;}
</style>
<title>one-click-containers</title>
<polygon class="st0" points="72.3,83.2 142.1,42.1 72.3,0.6 1.4,42.1 "/>
<polygon class="st1" points="143.6,124.2 72,165.9 71.7,84.1 143.6,42.6 "/>
<linearGradient id="SVGID_1_" gradientUnits="userSpaceOnUse" x1="0.65" y1="104.245" x2="72.65" y2="104.245">
	<stop  offset="0" style="stop-color:#834FAB"/>
	<stop  offset="1" style="stop-color:#834FAB"/>
</linearGradient>
<polygon class="st2" points="0.6,125.6 71.4,165.9 72.7,84.1 0.6,42.6 "/>
<path class="st0" d="M72,0.6L0,42.1v83.1l72,41.6l72-41.6V42.1L72,0.6z M71.8,164.6h0.4l-0.2,0.1L71.8,164.6z M142.1,124.2l-69.2,40
	V83.6H71v80.6l-69.2-40v-80l70.1,40l0.9-1.6l-70-39.9L72,2.7l69.1,39.9l-70,39.9l0.9,1.6l70.2-40L142.1,124.2L142.1,124.2z"/>
<rect x="108.7" y="92.1" class="st0" width="4" height="9"/>
<rect x="123.7" y="112.1" class="st0" width="9" height="4"/>
<rect x="88.7" y="112.1" class="st0" width="9" height="4"/>
<rect x="97.5" y="96" transform="matrix(0.707 -0.7072 0.7072 0.707 -41.9321 99.8347)" class="st0" width="4" height="9"/>
<rect x="119.8" y="98.3" transform="matrix(0.7074 -0.7069 0.7069 0.7074 -34.5442 117.199)" class="st0" width="9" height="4"/>
<rect x="95.1" y="123" transform="matrix(0.7072 -0.707 0.707 0.7072 -59.2386 107.0142)" class="st0" width="9" height="4"/>
<polygon class="st3" points="120.8,144.9 109.2,155.7 109,109.5 141.5,142.3 125.9,142.9 133.3,159.9 128.2,162.1 "/>
<path class="st0" d="M110,111.9l29.1,29.5l-14.8,0.5l7.6,17.4l-3.2,1.4l-7.6-17.5l-10.9,10.2L110,111.9 M108,107.1v4.9l0.2,41.5v4.6
	l3.3-3.1l8.9-8.2l6.5,14.9l0.8,1.8l1.8-0.8l3.2-1.4l1.8-0.8l-0.8-1.8l-6.4-14.7l11.9-0.4l4.6-0.2l-3.2-3.2l-29.1-29.5L108,107.1
	L108,107.1L108,107.1z"/>
</svg>
