<?xml version="1.0" encoding="utf-8"?>
<!-- Generator: Adobe Illustrator 19.2.1, SVG Export Plug-In . SVG Version: 6.00 Build 0)  -->
<svg version="1.1" id="Layer_1" xmlns="http://www.w3.org/2000/svg" xmlns:xlink="http://www.w3.org/1999/xlink" x="0px" y="0px"
	 viewBox="0 0 72 83.1" style="enable-background:new 0 0 72 83.1;" xml:space="preserve">
<style type="text/css">
	.st0{fill:#52306C;}
	.st1{fill:#A47CCE;}
	.st2{fill:url(#SVGID_1_);}
	.st3{fill:#FFFFFF;}
</style>
<title>one-click-containers</title>
<polygon class="st0" points="36.2,41.3 71.1,20.8 36.2,0 0.7,20.8 "/>
<polygon class="st1" points="71.8,61.8 36,82.7 35.8,41.8 71.8,21 "/>
<linearGradient id="SVGID_1_" gradientUnits="userSpaceOnUse" x1="0.34" y1="51.8325" x2="36.34" y2="51.8325">
	<stop  offset="0" style="stop-color:#834FAB"/>
	<stop  offset="1" style="stop-color:#834FAB"/>
</linearGradient>
<polygon class="st2" points="0.3,62.5 35.7,82.7 36.3,41.8 0.3,21 "/>
<path class="st0" d="M36,0L0,20.8v41.5l36,20.8l36-20.8V20.8L36,0z M35.9,82h0.2H35.9L35.9,82z M71.1,61.8l-34.6,20V41.5h-0.9v40.3
	l-34.6-20v-40l35,20l0.5-0.8l-35-20L36,1.1L70.5,21l-35,20l0.5,0.8l35.1-20L71.1,61.8L71.1,61.8z"/>
<rect x="54.3" y="45.8" class="st0" width="2" height="4.5"/>
<rect x="61.8" y="55.8" class="st0" width="4.5" height="2"/>
<rect x="44.3" y="55.8" class="st0" width="4.5" height="2"/>
<rect x="48.8" y="47.7" transform="matrix(0.707 -0.7072 0.7072 0.707 -20.7565 49.843)" class="st0" width="2" height="4.5"/>
<rect x="59.9" y="48.9" transform="matrix(0.7074 -0.7069 0.7069 0.7074 -17.0627 58.5252)" class="st0" width="4.5" height="2"/>
<rect x="47.6" y="61.2" transform="matrix(0.7072 -0.707 0.707 0.7072 -29.4099 53.4328)" class="st0" width="4.5" height="2"/>
<polygon class="st3" points="60.4,72.2 54.6,77.6 54.5,54.5 70.8,70.9 63,71.2 66.7,79.7 64.1,80.8 "/>
<path class="st0" d="M55,55.7l14.6,14.7l-7.4,0.3l3.8,8.7l-1.6,0.7l-3.8-8.8l-5.5,5.1L55,55.7 M54,53.2v2.4l0.1,20.7v2.3l1.7-1.6
	l4.4-4.1l3.2,7.5l0.4,0.9l0.9-0.4l1.6-0.7l0.9-0.4L66.9,79l-3.2-7.4l5.9-0.2l2.3-0.1l-1.6-1.6L55.7,55L54,53.2L54,53.2L54,53.2z"/>
</svg>
