<svg id="Layer_1" data-name="Layer 1" xmlns="http://www.w3.org/2000/svg" viewBox="0 0 436.07 118.99"><defs><style>.cls-1,.cls-3{opacity:0.2;}.cls-2,.cls-3{fill:#52306c;}.cls-4{fill:#3ccb5a;stroke:#52306c;stroke-miterlimit:10;stroke-width:2px;}.cls-5{fill:none;stroke:#fff;stroke-linecap:round;stroke-linejoin:round;stroke-width:3px;opacity:0.4;isolation:isolate;}.cls-6{fill:#fff;}</style></defs><title>platforms</title><g id="layer6" class="cls-1"><path id="path3966" class="cls-2" d="M429.89,1387.39h41.77s-9.27-20.89-6.91-40.21,17.59-28,26.23-29a16,16,0,0,1,13.35,4.44l1.88-2.81s-12.41-12.55-28.11-11.14-26.54,11.78-33.29,24.35-10.68,21.21-13.35,34.4S429.89,1387.39,429.89,1387.39Z" transform="translate(-420.63 -1287.94)"/><path id="path3968" class="cls-2" d="M421.57,1366.65l8.17,0.63-1.41,8.17-7.69-.94Z" transform="translate(-420.63 -1287.94)"/><path id="path3970" class="cls-2" d="M434.45,1349.38l2.2-6.12-7.22-2.83-2.36,6.6Z" transform="translate(-420.63 -1287.94)"/><path id="path3972" class="cls-2" d="M444.66,1328.34l4.24-5-5.5-3.61-4.4,4.87Z" transform="translate(-420.63 -1287.94)"/><path id="path3974" class="cls-2" d="M455.81,1308.86l3.77,4.55,5.18-3-3.77-4.24Z" transform="translate(-420.63 -1287.94)"/><path id="path3976" class="cls-2" d="M474.18,1303.68l0.94,4.55,6.44-.16-0.63-4.08Z" transform="translate(-420.63 -1287.94)"/><path id="path3978" class="cls-2" d="M496,1308.55l-0.16,2.83,4.4,2.36,0.94-1.41Z" transform="translate(-420.63 -1287.94)"/><path id="path3980" class="cls-2" d="M495,1320.64V1323l4,0.47v-1.88Z" transform="translate(-420.63 -1287.94)"/><path id="path3982" class="cls-2" d="M481.56,1322.68l2,3.77,3-2.36-0.63-2.51Z" transform="translate(-420.63 -1287.94)"/><path id="path3984" class="cls-2" d="M475.12,1327.55l3.14,4.71-1.88,3.3-4.55-5Z" transform="translate(-420.63 -1287.94)"/><path id="path3986" class="cls-2" d="M468.84,1340.58l-2,4.08,5.34,4.55,1.26-5.18Z" transform="translate(-420.63 -1287.94)"/><path id="path3988" class="cls-2" d="M466.64,1354.88l-0.31,5.5,6.6,2.83-0.31-5.18Z" transform="translate(-420.63 -1287.94)"/><path id="path3990" class="cls-2" d="M468.53,1374.39l1.57,5.63,8.32,0.48-3-6.11h-6.91Z" transform="translate(-420.63 -1287.94)"/></g><path class="cls-3" d="M833.93,1338.65c0.64,0.71.78,2,.41,3.9a6.86,6.86,0,0,1-2.22,4.28,8.45,8.45,0,0,1-5.13,1.27h-3l2-10.54h3.7C831.87,1337.56,833.28,1337.93,833.93,1338.65Zm-51.7-1.09h-3.7l-2,10.54h3a8.45,8.45,0,0,0,5.13-1.27,6.86,6.86,0,0,0,2.22-4.28c0.36-1.88.23-3.19-.41-3.9S784.37,1337.56,782.23,1337.56Zm74.46,7.34c0,15.4-23.73,27.88-53,27.88s-53-12.48-53-27.88,23.73-27.88,53-27.88S856.69,1329.51,856.69,1344.9Zm-63.84,2.21a13.13,13.13,0,0,0,1.41-3.91c0.68-3.48.14-6.25-1.59-8.23s-4.46-3-8.14-3h-11.7a0.58,0.58,0,0,0-.56.47l-5.43,27.94a0.58,0.58,0,0,0,.56.68h6.09a0.57,0.57,0,0,0,.56-0.47l1.35-7h4.74a19.31,19.31,0,0,0,5.86-.75,11.36,11.36,0,0,0,4.26-2.55A13.1,13.1,0,0,0,792.86,1347.11Zm15.36,6.55h6.13a0.57,0.57,0,0,0,.56-0.47l2.53-13c0.55-2.84.1-5-1.33-6.27s-3.83-1.92-7.39-1.92H804l1.31-6.74a0.57,0.57,0,0,0-.56-0.68h-6a0.58,0.58,0,0,0-.56.47L792.75,1353a0.58,0.58,0,0,0,.56.68h6a0.58,0.58,0,0,0,.56-0.47l3-15.54h4.35c1.8,0,2.41.37,2.61,0.58a3,3,0,0,1,.16,2.38l-2.4,12.36A0.58,0.58,0,0,0,808.22,1353.66Zm32-18.69c-1.72-2-4.46-3-8.14-3h-11.7a0.58,0.58,0,0,0-.56.47l-5.43,27.94a0.58,0.58,0,0,0,.56.68H821a0.58,0.58,0,0,0,.56-0.47l1.35-7h4.74a19.31,19.31,0,0,0,5.86-.75,11.36,11.36,0,0,0,4.26-2.55,12.72,12.72,0,0,0,4-7.16C842.44,1339.72,841.91,1337,840.18,1335Z" transform="translate(-420.63 -1287.94)"/><rect class="cls-4" x="158.87" y="1" width="116.99" height="116.99" rx="12" ry="12"/><path class="cls-5" d="M588.21,1336v-3.9" transform="translate(-420.63 -1287.94)"/><path class="cls-5" d="M588.21,1324v-17.9a8.48,8.48,0,0,1,8.45-8.45h29.9" transform="translate(-420.63 -1287.94)"/><path class="cls-6" d="M638,1386.19a6.24,6.24,0,0,1-3-.78l-9.47-5.63c-1.42-.78-0.71-1.07-0.28-1.21a17.25,17.25,0,0,0,4.27-1.92,0.66,0.66,0,0,1,.71.07l7.26,4.34a0.9,0.9,0,0,0,.85,0l28.41-16.45a0.82,0.82,0,0,0,.43-0.78V1331a0.82,0.82,0,0,0-.43-0.78l-28.41-16.38a0.9,0.9,0,0,0-.85,0l-28.41,16.38a0.89,0.89,0,0,0-.43.78v32.83a0.89,0.89,0,0,0,.43.78l7.76,4.49c4.2,2.14,6.84-.36,6.84-2.85v-32.4a0.87,0.87,0,0,1,.85-0.85h3.63a0.87,0.87,0,0,1,.85.85v32.4c0,5.63-3.06,8.9-8.4,8.9-1.64,0-2.92,0-6.55-1.78l-7.48-4.27a6,6,0,0,1-3-5.2v-32.83a6,6,0,0,1,3-5.2L635,1309.43a6.36,6.36,0,0,1,6,0l28.41,16.45a6,6,0,0,1,3,5.2v32.83a6,6,0,0,1-3,5.2L641,1385.55a7.29,7.29,0,0,1-3,.64h0Zm8.76-22.57c-12.46,0-15-5.7-15-10.54a0.87,0.87,0,0,1,.85-0.85h3.7a0.73,0.73,0,0,1,.78.71c0.57,3.77,2.21,5.63,9.76,5.63,6,0,8.54-1.35,8.54-4.56,0-1.85-.71-3.2-10-4.13-7.76-.78-12.6-2.49-12.6-8.69,0-5.77,4.84-9.19,13-9.19,9.11,0,13.6,3.13,14.17,10a1.15,1.15,0,0,1-.21.64,0.88,0.88,0,0,1-.57.28h-3.7a0.83,0.83,0,0,1-.78-0.64c-0.85-3.92-3.06-5.2-8.9-5.2-6.55,0-7.33,2.28-7.33,4,0,2.06.93,2.71,9.76,3.85s12.89,2.78,12.89,8.9-5.2,9.83-14.24,9.83h0Z" transform="translate(-420.63 -1287.94)"/></svg>