<?xml version="1.0" encoding="utf-8"?>
<!-- Generator: Adobe Illustrator 19.2.1, SVG Export Plug-In . SVG Version: 6.00 Build 0)  -->
<svg version="1.1" id="Layer_1" xmlns="http://www.w3.org/2000/svg" xmlns:xlink="http://www.w3.org/1999/xlink" x="0px" y="0px"
	 viewBox="0 0 436.1 119" style="enable-background:new 0 0 436.1 119;" xml:space="preserve">
<style type="text/css">
	.st0{opacity:0.2;}
	.st1{fill:#52306C;}
	.st2{opacity:0.2;fill:#52306C;enable-background:new    ;}
	.st3{fill:#3CCB5A;stroke:#52306C;stroke-width:2;stroke-miterlimit:10;}
	.st4{opacity:0.4;fill:none;stroke:#FFFFFF;stroke-width:3;stroke-linecap:round;stroke-linejoin:round;enable-background:new    ;}
	.st5{fill:#FFFFFF;}
</style>
<title>platforms</title>
<g id="layer6" class="st0">
	<path id="path3966" class="st1" d="M9.3,99.5H51c0,0-9.3-20.9-6.9-40.2s17.6-28,26.2-29c4.9-0.7,9.8,1,13.4,4.4l1.9-2.8
		c0,0-12.4-12.6-28.1-11.1S30.9,32.5,24.2,45.1S13.5,66.3,10.8,79.5S9.3,99.5,9.3,99.5z"/>
	<path id="path3968" class="st1" d="M0.9,78.7l8.2,0.6l-1.4,8.2L0,86.6L0.9,78.7z"/>
	<path id="path3970" class="st1" d="M13.8,61.4l2.2-6.1l-7.2-2.8l-2.4,6.6L13.8,61.4z"/>
	<path id="path3972" class="st1" d="M24,40.4l4.2-5l-5.5-3.6l-4.4,4.9L24,40.4z"/>
	<path id="path3974" class="st1" d="M35.2,20.9l3.8,4.6l5.2-3l-3.8-4.2L35.2,20.9z"/>
	<path id="path3976" class="st1" d="M53.5,15.7l0.9,4.6l6.4-0.2l-0.6-4.1L53.5,15.7z"/>
	<path id="path3978" class="st1" d="M75.4,20.6l-0.2,2.8l4.4,2.4l0.9-1.4L75.4,20.6z"/>
	<path id="path3980" class="st1" d="M74.4,32.7v2.4l4,0.5v-1.9L74.4,32.7z"/>
	<path id="path3982" class="st1" d="M60.9,34.7l2,3.8l3-2.4l-0.6-2.5L60.9,34.7z"/>
	<path id="path3984" class="st1" d="M54.5,39.6l3.1,4.7l-1.9,3.3l-4.5-5L54.5,39.6z"/>
	<path id="path3986" class="st1" d="M48.2,52.6l-2,4.1l5.3,4.6l1.3-5.2L48.2,52.6z"/>
	<path id="path3988" class="st1" d="M46,66.9l-0.3,5.5l6.6,2.8L52,70.1L46,66.9z"/>
	<path id="path3990" class="st1" d="M47.9,86.5l1.6,5.6l8.3,0.5l-3-6.1H47.9L47.9,86.5z"/>
</g>
<path class="st2" d="M413.3,50.7c0.6,0.7,0.8,2,0.4,3.9c-0.2,1.6-1,3.2-2.2,4.3c-1.5,1-3.3,1.4-5.1,1.3h-3l2-10.5h3.7
	C411.2,49.6,412.7,50,413.3,50.7z M361.6,49.6h-3.7l-2,10.5h3c1.8,0.1,3.6-0.3,5.1-1.3c1.2-1.1,2-2.6,2.2-4.3
	c0.4-1.9,0.2-3.2-0.4-3.9S363.7,49.6,361.6,49.6z M436.1,57c0,15.4-23.7,27.9-53,27.9s-53-12.5-53-27.9s23.7-27.9,53-27.9
	S436.1,41.6,436.1,57z M372.2,59.2c0.7-1.2,1.2-2.5,1.4-3.9c0.7-3.5,0.1-6.2-1.6-8.2s-4.5-3-8.1-3h-11.7c-0.3,0-0.5,0.2-0.6,0.5
	l-5.4,27.9c-0.1,0.3,0.2,0.6,0.5,0.7c0,0,0.1,0,0.1,0h6.1c0.3,0,0.5-0.2,0.6-0.5l1.3-7h4.7c2,0.1,4-0.2,5.9-0.8
	c1.6-0.5,3-1.4,4.3-2.6C370.7,61.4,371.5,60.4,372.2,59.2L372.2,59.2z M387.6,65.7h6.1c0.3,0,0.5-0.2,0.6-0.5l2.5-13
	c0.5-2.8,0.1-5-1.3-6.3s-3.8-1.9-7.4-1.9h-4.7l1.3-6.7c0.1-0.3-0.1-0.6-0.4-0.7c0,0-0.1,0-0.1,0h-6c-0.3,0-0.5,0.2-0.6,0.5l-5.4,28
	c-0.1,0.3,0.2,0.6,0.5,0.7c0,0,0.1,0,0.1,0h6c0.3,0,0.5-0.2,0.6-0.5l3-15.5h4.3c1.8,0,2.4,0.4,2.6,0.6c0.4,0.7,0.4,1.6,0.2,2.4
	L387,65.1c-0.1,0.3,0.2,0.6,0.5,0.7C387.5,65.7,387.5,65.7,387.6,65.7L387.6,65.7z M419.6,47c-1.7-2-4.5-3-8.1-3h-11.7
	c-0.3,0-0.5,0.2-0.6,0.5l-5.4,27.9c-0.1,0.3,0.2,0.6,0.5,0.7c0,0,0.1,0,0.1,0h6.1c0.3,0,0.5-0.2,0.6-0.5l1.3-7h4.7
	c2,0.1,4-0.2,5.9-0.8c1.6-0.5,3-1.4,4.3-2.6c2.1-1.9,3.5-4.4,4-7.2C421.8,51.8,421.3,49.1,419.6,47L419.6,47z"/>
<path class="st3" d="M170.9,1h93c6.6,0,12,5.4,12,12v93c0,6.6-5.4,12-12,12h-93c-6.6,0-12-5.4-12-12V13C158.9,6.4,164.2,1,170.9,1z"
	/>
<path class="st4" d="M167.6,48.1v-3.9"/>
<path class="st4" d="M167.6,36.1V18.2c0-4.7,3.8-8.4,8.5-8.4h29.9"/>
<path class="st5" d="M217.4,98.2c-1,0-2.1-0.3-3-0.8l-9.5-5.6c-1.4-0.8-0.7-1.1-0.3-1.2c1.5-0.4,2.9-1.1,4.3-1.9
	c0.2-0.1,0.5-0.1,0.7,0.1l7.3,4.3c0.3,0.1,0.6,0.1,0.8,0l28.4-16.4c0.3-0.2,0.5-0.5,0.4-0.8V43.1c0-0.3-0.1-0.6-0.4-0.8l-28.4-16.4
	c-0.3-0.1-0.6-0.1-0.8,0l-28.4,16.4c-0.3,0.2-0.4,0.5-0.4,0.8v32.8c0,0.3,0.2,0.6,0.4,0.8l7.8,4.5c4.2,2.1,6.8-0.4,6.8-2.8V45.9
	c0-0.5,0.4-0.8,0.8-0.8h3.6c0.5,0,0.8,0.4,0.8,0.8v32.4c0,5.6-3.1,8.9-8.4,8.9c-1.6,0-2.9,0-6.5-1.8l-7.5-4.3c-1.9-1.1-3-3.1-3-5.2
	V43.1c0-2.1,1.1-4.1,3-5.2l28.4-16.4c1.9-1,4.1-1,6,0l28.4,16.4c1.9,1.1,3,3.1,3,5.2V76c0,2.1-1.1,4.1-3,5.2l-28.4,16.4
	C219.4,98,218.4,98.3,217.4,98.2L217.4,98.2L217.4,98.2z M226.1,75.7c-12.5,0-15-5.7-15-10.5c0-0.5,0.4-0.8,0.8-0.8h3.7
	c0.4,0,0.8,0.3,0.8,0.7c0,0,0,0,0,0c0.6,3.8,2.2,5.6,9.8,5.6c6,0,8.5-1.3,8.5-4.6c0-1.8-0.7-3.2-10-4.1c-7.8-0.8-12.6-2.5-12.6-8.7
	c0-5.8,4.8-9.2,13-9.2c9.1,0,13.6,3.1,14.2,10c0,0.2-0.1,0.5-0.2,0.6c-0.1,0.2-0.4,0.3-0.6,0.3h-3.7c-0.4,0-0.7-0.3-0.8-0.6
	c-0.8-3.9-3.1-5.2-8.9-5.2c-6.5,0-7.3,2.3-7.3,4c0,2.1,0.9,2.7,9.8,3.8s12.9,2.8,12.9,8.9s-5.2,9.8-14.2,9.8l0,0L226.1,75.7z"/>
</svg>
