<svg id="Layer_1" data-name="Layer 1" xmlns="http://www.w3.org/2000/svg" viewBox="0 0 380 200"><defs><style>.cls-1{fill:#fafafa;}.cls-2,.cls-4{opacity:0.2;}.cls-3,.cls-4{fill:#52306c;}.cls-4,.cls-6{isolation:isolate;}.cls-5{fill:#3ccb5a;stroke:#52306c;stroke-miterlimit:10;}.cls-5,.cls-6{stroke-width:2px;}.cls-6{fill:none;stroke:#fff;stroke-linecap:round;stroke-linejoin:round;opacity:0.4;}.cls-7{fill:#fff;}</style></defs><title>platforms</title><rect class="cls-1" width="380" height="200"/><g id="layer6" class="cls-2"><path id="path3966" class="cls-3" d="M37,130.1H70.4S63,113.4,64.9,97.9,79,75.5,85.9,74.7a13.12,13.12,0,0,1,10.7,3.5L98,76s-9.9-10.1-22.5-8.9S54.3,76.5,48.9,86.6s-8.6,17-10.7,27.5S37,130.1,37,130.1Z"/><path id="path3968" class="cls-3" d="M30.3,113.5l6.6,0.5-1.1,6.6-6.2-.7Z"/><path id="path3970" class="cls-3" d="M40.6,99.6l1.8-4.9-5.8-2.2-1.9,5.3Z"/><path id="path3972" class="cls-3" d="M48.8,82.8l3.4-4L47.7,76l-3.5,3.9Z"/><path id="path3974" class="cls-3" d="M57.7,67.2l3,3.7,4.2-2.4-3-3.4Z"/><path id="path3976" class="cls-3" d="M72.4,63.1l0.7,3.7,5.1-.2-0.5-3.3Z"/><path id="path3978" class="cls-3" d="M89.9,67l-0.2,2.2,3.5,1.9L94,70Z"/><path id="path3980" class="cls-3" d="M89.1,76.7v1.9L92.3,79V77.5Z"/><path id="path3982" class="cls-3" d="M78.3,78.3l1.6,3,2.4-1.9-0.5-2Z"/><path id="path3984" class="cls-3" d="M73.2,82.2L75.7,86l-1.5,2.6-3.6-4Z"/><path id="path3986" class="cls-3" d="M68.1,92.6l-1.6,3.3,4.2,3.7,1-4.2Z"/><path id="path3988" class="cls-3" d="M66.4,104l-0.2,4.4,5.3,2.2-0.2-4.1Z"/><path id="path3990" class="cls-3" d="M67.9,119.7l1.3,4.5,6.6,0.4-2.4-4.9H67.9Z"/></g><path class="cls-4" d="M340.3,91c0.5,0.6.6,1.6,0.3,3.1a5.68,5.68,0,0,1-1.8,3.4,6.46,6.46,0,0,1-4.1,1h-2.4l1.6-8.4h3C338.6,90.1,339.8,90.4,340.3,91Zm-41.4-.9h-3l-1.6,8.4h2.4a7.35,7.35,0,0,0,4.1-1,5.68,5.68,0,0,0,1.8-3.4c0.3-1.5.2-2.6-.3-3.1-0.5-.7-1.7-0.9-3.4-0.9h0ZM358.5,96c0,12.3-19,22.3-42.4,22.3s-42.4-10-42.4-22.3,19-22.3,42.4-22.3S358.5,83.7,358.5,96Zm-51.1,1.8a7.24,7.24,0,0,0,1.1-3.1c0.6-2.8.1-5-1.3-6.6s-3.6-2.4-6.5-2.4h-9.4a0.66,0.66,0,0,0-.5.4l-4.3,22.3a0.55,0.55,0,0,0,.4.6h5a0.66,0.66,0,0,0,.5-0.4l1-5.6h3.8a12.43,12.43,0,0,0,4.7-.6,7.52,7.52,0,0,0,3.4-2.1,12.13,12.13,0,0,0,2.1-2.5h0Zm12.3,5.2h4.9a0.66,0.66,0,0,0,.5-0.4l2-10.4c0.4-2.2.1-4-1-5s-3-1.5-5.9-1.5h-3.8l1-5.4a0.54,0.54,0,0,0-.3-0.6h-4.9a0.66,0.66,0,0,0-.5.4l-4.3,22.4a0.55,0.55,0,0,0,.4.6h4.9a0.66,0.66,0,0,0,.5-0.4l2.4-12.4H319a2.91,2.91,0,0,1,2.1.5,2.54,2.54,0,0,1,.2,1.9l-2,9.8a0.39,0.39,0,0,0,.26.48l0.14,0h0Zm25.6-15c-1.4-1.6-3.6-2.4-6.5-2.4h-9.4a0.66,0.66,0,0,0-.5.4l-4.3,22.3a0.55,0.55,0,0,0,.4.6h5a0.66,0.66,0,0,0,.5-0.4l1-5.6h3.8a12.43,12.43,0,0,0,4.7-.6,7.52,7.52,0,0,0,3.4-2.1,9.88,9.88,0,0,0,3.2-5.8,7.33,7.33,0,0,0-1.3-6.4h0Z"/><path class="cls-5" d="M152.2,50.5h76.3a9.82,9.82,0,0,1,9.8,9.8v76.3a9.82,9.82,0,0,1-9.8,9.8H152.2a9.82,9.82,0,0,1-9.8-9.8V60.3A9.82,9.82,0,0,1,152.2,50.5Z"/><path class="cls-6" d="M149.5,89.1V85.9"/><path class="cls-6" d="M149.5,79.3V64.6a6.91,6.91,0,0,1,6.9-6.9H181"/><path class="cls-7" d="M190.4,130.3a4.51,4.51,0,0,1-2.5-.7l-7.8-4.6c-1.1-.7-0.6-0.9-0.2-1a15.76,15.76,0,0,0,3.5-1.6,0.47,0.47,0,0,1,.6.1l6,3.5a0.85,0.85,0,0,0,.7,0L214,112.5a0.61,0.61,0,0,0,.3-0.7V85a0.91,0.91,0,0,0-.3-0.7L190.7,70.8a0.85,0.85,0,0,0-.7,0L166.7,84.3a0.78,0.78,0,0,0-.3.7v27a0.91,0.91,0,0,0,.3.7l6.4,3.7c3.4,1.7,5.6-.3,5.6-2.3V87.3a0.67,0.67,0,0,1,.6-0.7h3a0.67,0.67,0,0,1,.7.6h0v26.6c0,4.6-2.5,7.3-6.9,7.3-1.3,0-2.4,0-5.3-1.5l-6.2-3.5a5,5,0,0,1-2.5-4.3V85a4.84,4.84,0,0,1,2.5-4.3l23.3-13.5a5.3,5.3,0,0,1,4.9,0l23.3,13.5a5,5,0,0,1,2.5,4.3v27a4.84,4.84,0,0,1-2.5,4.3l-23.3,13.5a6.87,6.87,0,0,1-2.4.5h0Zm7.1-18.5c-10.3,0-12.3-4.7-12.3-8.6a0.67,0.67,0,0,1,.6-0.7h3a0.73,0.73,0,0,1,.7.6h0c0.5,3.1,1.8,4.6,8,4.6,4.9,0,7-1.1,7-3.8,0-1.5-.6-2.6-8.2-3.4-6.4-.7-10.3-2.1-10.3-7.1,0-4.8,3.9-7.5,10.7-7.5,7.5,0,11.2,2.5,11.7,8.2a1.06,1.06,0,0,1-.2.5,0.37,0.37,0,0,1-.48.21h-3a0.75,0.75,0,0,1-.7-0.5c-0.7-3.2-2.5-4.3-7.3-4.3-5.3,0-6,1.9-6,3.3,0,1.7.7,2.2,8,3.1s10.6,2.3,10.6,7.3-4.3,8-11.7,8C197.7,111.8,197.5,111.8,197.5,111.8Z"/></svg>