<svg id="Layer_1" data-name="Layer 1" xmlns="http://www.w3.org/2000/svg" viewBox="0 0 436.1 119"><defs><style>.cls-1,.cls-3{opacity:0.2;}.cls-2,.cls-3{fill:#52306c;}.cls-3,.cls-5{isolation:isolate;}.cls-4{fill:#3ccb5a;stroke:#52306c;stroke-miterlimit:10;stroke-width:2px;}.cls-5{fill:none;stroke:#fff;stroke-linecap:round;stroke-linejoin:round;stroke-width:3px;opacity:0.4;}.cls-6{fill:#fff;}</style></defs><title>platforms</title><g id="layer6" class="cls-1"><path id="path3966" class="cls-2" d="M9.3,99.5H51s-9.3-20.9-6.9-40.2,17.6-28,26.2-29a16.22,16.22,0,0,1,13.4,4.4l1.9-2.8S73.2,19.3,57.5,20.8,30.9,32.5,24.2,45.1,13.5,66.3,10.8,79.5,9.3,99.5,9.3,99.5Z"/><path id="path3968" class="cls-2" d="M0.9,78.7l8.2,0.6L7.7,87.5,0,86.6Z"/><path id="path3970" class="cls-2" d="M13.8,61.4L16,55.3,8.8,52.5,6.4,59.1Z"/><path id="path3972" class="cls-2" d="M24,40.4l4.2-5-5.5-3.6-4.4,4.9Z"/><path id="path3974" class="cls-2" d="M35.2,20.9L39,25.5l5.2-3-3.8-4.2Z"/><path id="path3976" class="cls-2" d="M53.5,15.7l0.9,4.6,6.4-.2L60.2,16Z"/><path id="path3978" class="cls-2" d="M75.4,20.6l-0.2,2.8,4.4,2.4,0.9-1.4Z"/><path id="path3980" class="cls-2" d="M74.4,32.7v2.4l4,0.5V33.7Z"/><path id="path3982" class="cls-2" d="M60.9,34.7l2,3.8,3-2.4-0.6-2.5Z"/><path id="path3984" class="cls-2" d="M54.5,39.6l3.1,4.7-1.9,3.3-4.5-5Z"/><path id="path3986" class="cls-2" d="M48.2,52.6l-2,4.1,5.3,4.6,1.3-5.2Z"/><path id="path3988" class="cls-2" d="M46,66.9l-0.3,5.5,6.6,2.8L52,70.1Z"/><path id="path3990" class="cls-2" d="M47.9,86.5l1.6,5.6,8.3,0.5-3-6.1H47.9Z"/></g><path class="cls-3" d="M413.3,50.7c0.6,0.7.8,2,.4,3.9a7.17,7.17,0,0,1-2.2,4.3,8.31,8.31,0,0,1-5.1,1.3h-3l2-10.5h3.7C411.2,49.6,412.7,50,413.3,50.7Zm-51.7-1.1h-3.7l-2,10.5h3a8.31,8.31,0,0,0,5.1-1.3,6.9,6.9,0,0,0,2.2-4.3c0.4-1.9.2-3.2-.4-3.9S363.7,49.6,361.6,49.6ZM436.1,57c0,15.4-23.7,27.9-53,27.9s-53-12.5-53-27.9,23.7-27.9,53-27.9S436.1,41.6,436.1,57Zm-63.9,2.2a10.74,10.74,0,0,0,1.4-3.9c0.7-3.5.1-6.2-1.6-8.2s-4.5-3-8.1-3H352.2a0.63,0.63,0,0,0-.6.5l-5.4,27.9a0.64,0.64,0,0,0,.5.7h6.2a0.63,0.63,0,0,0,.6-0.5l1.3-7h4.7a16.84,16.84,0,0,0,5.9-.8,11.3,11.3,0,0,0,4.3-2.6,12.61,12.61,0,0,0,2.5-3.1h0Zm15.4,6.5h6.1a0.63,0.63,0,0,0,.6-0.5l2.5-13c0.5-2.8.1-5-1.3-6.3s-3.8-1.9-7.4-1.9h-4.7l1.3-6.7a0.57,0.57,0,0,0-.4-0.7h-6.1a0.63,0.63,0,0,0-.6.5l-5.4,28a0.64,0.64,0,0,0,.5.7h6.1a0.63,0.63,0,0,0,.6-0.5l3-15.5h4.3c1.8,0,2.4.4,2.6,0.6a3.3,3.3,0,0,1,.2,2.4L387,65.1a0.64,0.64,0,0,0,.5.7c0-.1,0-0.1.1-0.1h0Zm32-18.7c-1.7-2-4.5-3-8.1-3H399.8a0.63,0.63,0,0,0-.6.5l-5.4,27.9a0.64,0.64,0,0,0,.5.7h6.2a0.63,0.63,0,0,0,.6-0.5l1.3-7h4.7a16.84,16.84,0,0,0,5.9-.8,11.3,11.3,0,0,0,4.3-2.6,12.66,12.66,0,0,0,4-7.2c0.5-3.2,0-5.9-1.7-8h0Z"/><path class="cls-4" d="M170.9,1h93a12,12,0,0,1,12,12v93a12,12,0,0,1-12,12h-93a12,12,0,0,1-12-12V13A12,12,0,0,1,170.9,1Z"/><path class="cls-5" d="M167.6,48.1V44.2"/><path class="cls-5" d="M167.6,36.1V18.2a8.41,8.41,0,0,1,8.5-8.4H206"/><path class="cls-6" d="M217.4,98.2a6.41,6.41,0,0,1-3-.8l-9.5-5.6c-1.4-.8-0.7-1.1-0.3-1.2a18.21,18.21,0,0,0,4.3-1.9,0.62,0.62,0,0,1,.7.1l7.3,4.3a1.1,1.1,0,0,0,.8,0l28.4-16.4a0.74,0.74,0,0,0,.4-0.8V43.1a0.91,0.91,0,0,0-.4-0.8L217.7,25.9a1.1,1.1,0,0,0-.8,0L188.5,42.3a0.91,0.91,0,0,0-.4.8V75.9a1.23,1.23,0,0,0,.4.8l7.8,4.5c4.2,2.1,6.8-.4,6.8-2.8V45.9a0.79,0.79,0,0,1,.8-0.8h3.6a0.79,0.79,0,0,1,.8.8V78.3c0,5.6-3.1,8.9-8.4,8.9-1.6,0-2.9,0-6.5-1.8l-7.5-4.3a6,6,0,0,1-3-5.2V43.1a6,6,0,0,1,3-5.2l28.4-16.4a6.37,6.37,0,0,1,6,0l28.4,16.4a6,6,0,0,1,3,5.2V76a6,6,0,0,1-3,5.2L220.3,97.6a5.83,5.83,0,0,1-2.9.6h0Zm8.7-22.5c-12.5,0-15-5.7-15-10.5a0.79,0.79,0,0,1,.8-0.8h3.7a0.77,0.77,0,0,1,.8.7h0c0.6,3.8,2.2,5.6,9.8,5.6,6,0,8.5-1.3,8.5-4.6,0-1.8-.7-3.2-10-4.1-7.8-.8-12.6-2.5-12.6-8.7,0-5.8,4.8-9.2,13-9.2,9.1,0,13.6,3.1,14.2,10a1.07,1.07,0,0,1-.2.6,0.71,0.71,0,0,1-.6.3h-3.7a0.87,0.87,0,0,1-.8-0.6c-0.8-3.9-3.1-5.2-8.9-5.2-6.5,0-7.3,2.3-7.3,4,0,2.1.9,2.7,9.8,3.8s12.9,2.8,12.9,8.9-5.2,9.8-14.2,9.8h-0.2Z"/></svg>