<?xml version="1.0" encoding="utf-8"?>
<!-- Generator: Adobe Illustrator 19.2.1, SVG Export Plug-In . SVG Version: 6.00 Build 0)  -->
<svg version="1.1" id="Layer_1" xmlns="http://www.w3.org/2000/svg" xmlns:xlink="http://www.w3.org/1999/xlink" x="0px" y="0px"
	 viewBox="0 0 380 200" style="enable-background:new 0 0 380 200;" xml:space="preserve">
<style type="text/css">
	.st0{fill:#FAFAFA;}
	.st1{opacity:0.2;}
	.st2{fill:#52306C;}
	.st3{opacity:0.2;fill:#52306C;enable-background:new    ;}
	.st4{fill:#3CCB5A;stroke:#52306C;stroke-width:2;stroke-miterlimit:10;}
	.st5{opacity:0.4;fill:none;stroke:#FFFFFF;stroke-width:2;stroke-linecap:round;stroke-linejoin:round;enable-background:new    ;}
	.st6{fill:#FFFFFF;}
</style>
<rect class="st0" width="380" height="200"/>
<title>platforms</title>
<g id="layer6" class="st1">
	<path id="path3966" class="st2" d="M37,130.1h33.4c0,0-7.4-16.7-5.5-32.2c1.9-15.4,14.1-22.4,21-23.2c3.9-0.5,7.9,0.8,10.7,3.5
		L98,76c0,0-9.9-10.1-22.5-8.9C63,68.4,54.3,76.5,48.9,86.6s-8.6,17-10.7,27.5S37,130.1,37,130.1z"/>
	<path id="path3968" class="st2" d="M30.3,113.5l6.6,0.5l-1.1,6.6l-6.2-0.7L30.3,113.5z"/>
	<path id="path3970" class="st2" d="M40.6,99.6l1.8-4.9l-5.8-2.2l-1.9,5.3L40.6,99.6z"/>
	<path id="path3972" class="st2" d="M48.8,82.8l3.4-4L47.7,76l-3.5,3.9L48.8,82.8z"/>
	<path id="path3974" class="st2" d="M57.7,67.2l3,3.7l4.2-2.4l-3-3.4L57.7,67.2z"/>
	<path id="path3976" class="st2" d="M72.4,63.1l0.7,3.7l5.1-0.2l-0.5-3.3L72.4,63.1z"/>
	<path id="path3978" class="st2" d="M89.9,67l-0.2,2.2l3.5,1.9L94,70L89.9,67z"/>
	<path id="path3980" class="st2" d="M89.1,76.7v1.9l3.2,0.4v-1.5L89.1,76.7z"/>
	<path id="path3982" class="st2" d="M78.3,78.3l1.6,3l2.4-1.9l-0.5-2L78.3,78.3z"/>
	<path id="path3984" class="st2" d="M73.2,82.2l2.5,3.8l-1.5,2.6l-3.6-4L73.2,82.2z"/>
	<path id="path3986" class="st2" d="M68.1,92.6l-1.6,3.3l4.2,3.7l1-4.2L68.1,92.6z"/>
	<path id="path3988" class="st2" d="M66.4,104l-0.2,4.4l5.3,2.2l-0.2-4.1L66.4,104z"/>
	<path id="path3990" class="st2" d="M67.9,119.7l1.3,4.5l6.6,0.4l-2.4-4.9H67.9z"/>
</g>
<path class="st3" d="M340.3,91c0.5,0.6,0.6,1.6,0.3,3.1c-0.2,1.3-0.8,2.5-1.8,3.4c-1.2,0.8-2.6,1.1-4.1,1h-2.4l1.6-8.4h3
	C338.6,90.1,339.8,90.4,340.3,91z M298.9,90.1h-3l-1.6,8.4h2.4c1.4,0.1,2.9-0.3,4.1-1c1-0.9,1.6-2.1,1.8-3.4
	c0.3-1.5,0.2-2.6-0.3-3.1C301.8,90.3,300.6,90.1,298.9,90.1L298.9,90.1z M358.5,96c0,12.3-19,22.3-42.4,22.3s-42.4-10-42.4-22.3
	s19-22.3,42.4-22.3S358.5,83.7,358.5,96z M307.4,97.8c0.6-1,1-2,1.1-3.1c0.6-2.8,0.1-5-1.3-6.6c-1.4-1.6-3.6-2.4-6.5-2.4h-9.4
	c-0.2,0-0.4,0.2-0.5,0.4l-4.3,22.3c0,0.3,0.1,0.5,0.4,0.6h5c0.2,0,0.4-0.2,0.5-0.4l1-5.6h3.8c1.6,0.1,3.2-0.1,4.7-0.6
	c1.3-0.4,2.5-1.1,3.4-2.1C306.2,99.5,306.8,98.7,307.4,97.8C307.4,97.8,307.4,97.8,307.4,97.8z M319.7,103h4.9
	c0.2,0,0.4-0.2,0.5-0.4l2-10.4c0.4-2.2,0.1-4-1-5c-1.1-1-3-1.5-5.9-1.5h-3.8l1-5.4c0.1-0.2-0.1-0.5-0.3-0.6c0,0,0,0,0,0h-4.9
	c-0.2,0-0.4,0.2-0.5,0.4l-4.3,22.4c0,0.3,0.1,0.5,0.4,0.6h4.9c0.2,0,0.4-0.2,0.5-0.4l2.4-12.4h3.4c1.4,0,1.9,0.3,2.1,0.5
	c0.3,0.6,0.4,1.3,0.2,1.9l-2,9.8C319.2,102.7,319.4,103,319.7,103C319.6,103,319.6,103,319.7,103L319.7,103z M345.3,88
	c-1.4-1.6-3.6-2.4-6.5-2.4h-9.4c-0.2,0-0.4,0.2-0.5,0.4l-4.3,22.3c0,0.3,0.1,0.5,0.4,0.6h5c0.2,0,0.4-0.2,0.5-0.4l1-5.6h3.8
	c1.6,0.1,3.2-0.1,4.7-0.6c1.3-0.4,2.5-1.1,3.4-2.1c1.7-1.5,2.8-3.5,3.2-5.8C347.1,91.8,346.7,89.7,345.3,88L345.3,88L345.3,88z"/>
<path class="st4" d="M152.2,50.5h76.3c5.4,0,9.8,4.4,9.8,9.8v76.3c0,5.4-4.4,9.8-9.8,9.8h-76.3c-5.4,0-9.8-4.4-9.8-9.8V60.3
	C142.4,54.9,146.8,50.5,152.2,50.5z"/>
<path class="st5" d="M149.5,89.1v-3.2"/>
<path class="st5" d="M149.5,79.3V64.6c0-3.8,3.1-6.9,6.9-6.9c0,0,0,0,0.1,0H181"/>
<path class="st6" d="M190.4,130.3c-0.9,0-1.7-0.2-2.5-0.7l-7.8-4.6c-1.1-0.7-0.6-0.9-0.2-1c1.2-0.4,2.4-0.9,3.5-1.6
	c0.2-0.1,0.4-0.1,0.6,0.1l6,3.5c0.2,0.1,0.4,0.1,0.7,0l23.3-13.5c0.2-0.1,0.4-0.4,0.3-0.7V85c0-0.3-0.1-0.5-0.3-0.7l-23.3-13.5
	c-0.2-0.1-0.4-0.1-0.7,0l-23.3,13.5c-0.2,0.1-0.3,0.4-0.3,0.7V112c0,0.3,0.1,0.5,0.3,0.7l6.4,3.7c3.4,1.7,5.6-0.3,5.6-2.3V87.3
	c0-0.4,0.3-0.7,0.6-0.7c0,0,0,0,0,0h3c0.4,0,0.7,0.3,0.7,0.6c0,0,0,0,0,0v26.6c0,4.6-2.5,7.3-6.9,7.3c-1.3,0-2.4,0-5.3-1.5l-6.2-3.5
	c-1.5-0.9-2.5-2.5-2.5-4.3V85c0-1.8,0.9-3.4,2.5-4.3l23.3-13.5c1.5-0.8,3.4-0.8,4.9,0l23.3,13.5c1.5,0.9,2.5,2.5,2.5,4.3v27
	c0,1.8-0.9,3.4-2.5,4.3l-23.3,13.5C192,130.1,191.2,130.3,190.4,130.3L190.4,130.3L190.4,130.3z M197.5,111.8
	c-10.3,0-12.3-4.7-12.3-8.6c0-0.4,0.3-0.7,0.6-0.7c0,0,0,0,0,0h3c0.3,0,0.6,0.2,0.7,0.6l0,0c0.5,3.1,1.8,4.6,8,4.6
	c4.9,0,7-1.1,7-3.8c0-1.5-0.6-2.6-8.2-3.4c-6.4-0.7-10.3-2.1-10.3-7.1c0-4.8,3.9-7.5,10.7-7.5c7.5,0,11.2,2.5,11.7,8.2
	c0,0.2-0.1,0.3-0.2,0.5c-0.1,0.2-0.3,0.3-0.5,0.2h-3c-0.3,0-0.6-0.2-0.7-0.5c-0.7-3.2-2.5-4.3-7.3-4.3c-5.3,0-6,1.9-6,3.3
	c0,1.7,0.7,2.2,8,3.1c7.3,0.9,10.6,2.3,10.6,7.3s-4.3,8-11.7,8C197.7,111.8,197.5,111.8,197.5,111.8z"/>
</svg>
