<svg id="Layer_1" data-name="Layer 1" xmlns="http://www.w3.org/2000/svg" viewBox="0 0 123.99 123.96"><defs><style>.cls-1{fill:#0ca6f2;stroke:#52306c;stroke-linecap:round;stroke-linejoin:round;stroke-width:2px;}.cls-2{fill:#52306c;}.cls-3{fill:#48cbff;}.cls-4{fill:#0083c4;}</style></defs><title>puzzle-piece</title><path class="cls-1" d="M91.21,38.61H18.08v32H19.5A13,13,0,0,1,32.2,83.33c0.15,6.86-5.28,13.28-12.15,13.28h-2v32h32v2.83c0,6.86,6.14,12.42,13,12.42s13-5.56,13-12.42v-2.83h32V53.44C108.08,44.4,100.24,38.61,91.21,38.61Z" transform="translate(0 -23.28)"/><path class="cls-2" d="M118,47.61l2.93,0a3.07,3.07,0,1,0,0-6.14l-2.93,0A3.07,3.07,0,1,0,118,47.61Z" transform="translate(0 -23.28)"/><path class="cls-2" d="M120.79,26.41a3.07,3.07,0,0,0-4.34,0l-4.73,4.81a3.07,3.07,0,0,0,4.38,4.3l4.73-4.81A3.07,3.07,0,0,0,120.79,26.41Z" transform="translate(0 -23.28)"/><path class="cls-2" d="M99.66,29.26a3.07,3.07,0,1,0,6.14,0l0-2.93a3.07,3.07,0,1,0-6.14,0Z" transform="translate(0 -23.28)"/><path class="cls-2" d="M6,122.91l-2.93,0a3.07,3.07,0,0,0,0,6.14L6,129A3.07,3.07,0,0,0,6,122.91Z" transform="translate(0 -23.28)"/><path class="cls-2" d="M12.24,134.93a3.07,3.07,0,0,0-4.34,0l-4.73,4.81a3.07,3.07,0,1,0,4.38,4.3l4.73-4.81A3.07,3.07,0,0,0,12.24,134.93Z" transform="translate(0 -23.28)"/><path class="cls-2" d="M24.33,141.26a3.07,3.07,0,1,0-6.14,0l0,2.93a3.07,3.07,0,1,0,6.14,0Z" transform="translate(0 -23.28)"/><path class="cls-3" d="M64.41,86.56h35.2v3.7H64.41v-3.7Z" transform="translate(0 -23.28)"/><path class="cls-4" d="M29.11,50.56h27v3.7h-27v-3.7Z" transform="translate(0 -23.28)"/><path class="cls-4" d="M65.51,50.56h34.1v3.7H65.51v-3.7Z" transform="translate(0 -23.28)"/><path class="cls-4" d="M28.91,62.56H42v3.7H28.91v-3.7Z" transform="translate(0 -23.28)"/><path class="cls-4" d="M38.31,74.56h13.1v3.7H38.31v-3.7Z" transform="translate(0 -23.28)"/><path class="cls-3" d="M38.11,86.56H56.95v3.7H38.11v-3.7Z" transform="translate(0 -23.28)"/><path class="cls-3" d="M38.11,99.26h22.1v3H38.11v-3Z" transform="translate(0 -23.28)"/><path class="cls-4" d="M29.11,111.26h12.8v3H29.11v-3Z" transform="translate(0 -23.28)"/><path class="cls-4" d="M51.61,111.26H100v3H51.61v-3Z" transform="translate(0 -23.28)"/><path class="cls-4" d="M67.11,99.26h30v3h-30v-3Z" transform="translate(0 -23.28)"/></svg>