<?xml version="1.0" encoding="utf-8"?>
<!-- Generator: Adobe Illustrator 19.2.1, SVG Export Plug-In . SVG Version: 6.00 Build 0)  -->
<svg version="1.1" id="Layer_1" xmlns="http://www.w3.org/2000/svg" xmlns:xlink="http://www.w3.org/1999/xlink" x="0px" y="0px"
	 viewBox="0 0 350.7 126" style="enable-background:new 0 0 350.7 126;" xml:space="preserve">
<style type="text/css">
	.st0{clip-path:url(#SVGID_2_);fill:#E4DAEF;}
	.st1{fill:#B82BED;stroke:#52306C;stroke-miterlimit:10;}
	.st2{fill:none;stroke:#52306C;stroke-miterlimit:10;}
	.st3{fill:#BF977B;stroke:#52306C;stroke-miterlimit:10;}
	.st4{fill:#BF977B;}
	.st5{fill:#52306C;}
	.st6{fill:#FFFFFF;stroke:#52306C;stroke-miterlimit:10;}
	.st7{fill:#FFF9EB;stroke:#52306C;stroke-miterlimit:10;}
	.st8{fill:#0E1530;}
	.st9{fill:#EA4444;stroke:#52306C;stroke-miterlimit:10;}
	.st10{fill:#FFED43;stroke:#52306C;stroke-miterlimit:10;}
	.st11{fill:none;stroke:#FFFFFF;stroke-linecap:round;stroke-miterlimit:10;}
	.st12{fill:#AAAAAA;}
</style>
<title>reviewing-together</title>
<g>
	<defs>
		<path id="SVGID_1_" d="M265.3,100c-3.1-3.1-4.8-6.9-4.8-11.3v-65c0-2.3-1.8-4.3-4.1-4.3H92.2c-1.5,0-3,0.9-3.7,2.2
			c-0.5,0.7-1,1.6-1,2.5v12.4c0,4.4-1.5,8.3-4.6,11.4l-6.6,6.5h11.7h-0.4v48.6c0,2.3,2.5,3.4,4.7,3.4h162.4h5.8h11.7L265.3,100z"/>
	</defs>
	<use xlink:href="#SVGID_1_"  style="overflow:visible;fill:#FFFFFF;"/>
	<clipPath id="SVGID_2_">
		<use xlink:href="#SVGID_1_"  style="overflow:visible;"/>
	</clipPath>
	<path class="st0" d="M107.2,125.8h-31V14.5c0-8,6.5-14.6,14.6-14.6h16.4V125.8z"/>
	<use xlink:href="#SVGID_1_"  style="overflow:visible;fill:none;stroke:#52306C;stroke-miterlimit:10;"/>
</g>
<g>
	<g>
		<defs>
			<circle id="SVGID_3_" cx="39" cy="31.6" r="27.3"/>
		</defs>
		<use xlink:href="#SVGID_3_"  style="overflow:visible;fill:#738EE5;"/>
		<clipPath id="SVGID_4_">
			<use xlink:href="#SVGID_3_"  style="overflow:visible;"/>
		</clipPath>
		<use xlink:href="#SVGID_3_"  style="overflow:visible;fill:none;stroke:#52306C;stroke-miterlimit:10;"/>
	</g>
</g>
<path class="st1" d="M39,44.6c-8.7,0-16.4,1.5-20.8,4.7c5,5.9,12.4,9.6,20.8,9.6s15.8-3.7,20.8-9.6C55.4,46.1,47.7,44.6,39,44.6z"/>
<path class="st2" d="M31.6,44.6v3.6c0,2.9,3.3,4.8,7.4,4.8h0c4.1,0,7.4-1.9,7.4-4.8v-3.6"/>
<path class="st3" d="M43.2,42.2h-8.4v4.2c0,2.3,1.9,2.8,4.2,2.8h0c2.3,0,4.2-0.4,4.2-2.8V42.2z"/>
<g>
	<path class="st4" d="M39,44.7c-6.8,0-12.2-5.5-14.2-11c0,0,0,0,0,0c-0.1,0-0.2,0-0.3,0c-1.7,0-3.1-1.5-3.3-3.4
		c-0.2-2.1,1-3.9,2.8-4.1c0.1,0,0.2,0,0.2,0C25.4,19,31.7,13.7,39,13.7c7.3,0,13.6,5.4,14.8,12.5c0,0,0,0,0,0
		c0.9,0.1,1.6,0.6,2.2,1.4c0.5,0.8,0.7,1.7,0.6,2.7c-0.2,1.9-1.6,3.4-3.3,3.4c0,0-0.1,0-0.2,0C51.2,39.2,45.8,44.7,39,44.7z"/>
	<path class="st5" d="M39,14.2c7.3,0,13.4,5.5,14.4,12.5c0.1,0,0.2,0,0.3,0c0.1,0,0.1,0,0.2,0c1.5,0.2,2.5,1.8,2.3,3.5
		c-0.2,1.7-1.4,2.9-2.8,2.9c-0.1,0-0.2,0-0.3,0c-0.1,0-0.2,0-0.2-0.1C51,39,45.5,44.2,39,44.2c-6.5,0-12-5.3-13.8-11.1
		c-0.1,0-0.3,0.1-0.4,0.1c-0.1,0-0.2,0-0.3,0c-1.4,0-2.6-1.3-2.8-2.9c-0.2-1.8,0.8-3.4,2.3-3.5c0.1,0,0.2,0,0.2,0c0.1,0,0.3,0,0.4,0
		C25.6,19.6,31.7,14.2,39,14.2 M39,13.2c-7.4,0-13.8,5.3-15.2,12.6c-1,0.1-1.8,0.7-2.4,1.6c-0.6,0.9-0.8,1.9-0.7,2.9
		c0.2,2.2,1.9,3.7,3.8,3.7c0,0,0,0,0,0c2.1,6,7.6,11.1,14.5,11.1c6.9,0,12.4-5.4,14.5-11c1.8-0.1,3.4-1.7,3.6-3.8
		c0.2-2.2-1-4.2-2.9-4.6C52.9,18.5,46.5,13.2,39,13.2L39,13.2z"/>
</g>
<g>
	<path class="st5" d="M48.1,21.2l2.2,5c0.1,0.3,0.3,0.5,0.6,0.6l2.6,0.7C52.9,20,46.6,14.2,39,14.2c-7.6,0-13.9,5.9-14.5,13.4
		l2.9-0.8c0.3-0.1,0.5-0.3,0.6-0.6l2.2-5l0.5-0.8l4-2.2l5.4,1.7L48.1,21.2z"/>
</g>
<path class="st5" d="M36,20.7c0.7,0.1,1.4,0.5,2.1,0.8c1.6,0.7,3.4,0.9,5.1,0.6c0.8-0.1,1.5-0.4,2.3-0.2c1.3,0.2,2.2,1.5,3.5,1.8
	c1.4,0.3,2.8-0.6,3.4-1.9s1.8-3.7,1.9-5.1c-1.7,0.8-4.5-0.8-6.1-1.9c-2.3-1.6-5.1-1-7.9-1.4c-1.5-0.2-3-0.4-4.5-0.2s-3,1-3.7,2.4
	c-0.1-0.7-0.1-1.3,0-2c-0.6-0.2-1.3,0-1.7,0.6c-0.3,0.5-0.2,1.3,0.3,1.7c-0.7-0.2-1.4-0.3-2.1-0.1c-0.7,0.2-1.3,0.8-1.2,1.5
	c0.4-0.3,1.1-0.2,1.5,0.2c-1.4,0.1-2.6,1.2-3.2,2.5s-0.8,2.7-1,4.1c-0.1,1-0.2,1.3-0.4,2.3c-0.1-0.4,1.1,0,1.5,0
	c0.4,0-0.1,0.1-0.1,0.5c1.3-0.1,2.1-1.5,2.5-2.8c0.4-1.3,0.7-2.7,1.8-3.4c1.2-0.7,1.9,0.1,3,0.2C34,21.1,34.9,20.5,36,20.7z"/>
<g transform="matrix( 1, 0, 0, 1, 0,0) ">
	<g>
		<g>
			<g id="a_8_">
				<path class="st5" d="M32.5,35.6c0.2,0.4,0.6,0.8,1.2,1.3c0.5,0.5,1.4,1,2.4,1.5c1,0.4,2,0.7,2.9,0.7c0.9,0,1.9-0.2,2.9-0.7
					c1.1-0.5,1.9-1,2.4-1.5c0.6-0.5,1-1,1.2-1.3c0.1-0.4-0.1-0.5-0.4-0.3c-1.3,0.9-2.6,1.5-3.7,1.8c-0.7,0.2-1.5,0.3-2.4,0.3
					c-1-0.1-1.8-0.2-2.4-0.3c-1.1-0.3-2.3-0.9-3.7-1.8C32.6,35.1,32.4,35.2,32.5,35.6 M37.4,30.2c0-1.1-0.2-2-0.6-2.7
					c-0.5-0.7-1-1.1-1.6-1.1h0c-0.6,0-1.1,0.4-1.6,1.1C33.2,28.1,33,29,33,30.2c0,0.8,0.2,1,0.5,0.6l0.6-0.8
					c0.3-0.5,0.7-0.7,1.1-0.6h0c0.5-0.1,0.8,0.2,1.1,0.6l0.6,0.8C37.3,31.2,37.4,31,37.4,30.2 M41.1,30.8l0.6-0.8
					c0.3-0.5,0.7-0.7,1.1-0.6h0c0.5-0.1,0.8,0.2,1.1,0.6l0.6,0.8c0.3,0.4,0.5,0.2,0.5-0.6c0-1.1-0.2-2-0.6-2.7
					c-0.5-0.7-1-1.1-1.6-1.1h0c-0.6,0-1.1,0.4-1.6,1.1c-0.4,0.7-0.6,1.6-0.6,2.7C40.6,31,40.7,31.2,41.1,30.8z"/>
			</g>
		</g>
	</g>
</g>
<g>
	<g>
		<defs>
			<circle id="SVGID_5_" cx="301.5" cy="79.6" r="28.4"/>
		</defs>
		<use xlink:href="#SVGID_5_"  style="overflow:visible;fill:#A47CCE;"/>
		<clipPath id="SVGID_6_">
			<use xlink:href="#SVGID_5_"  style="overflow:visible;"/>
		</clipPath>
		<use xlink:href="#SVGID_5_"  style="overflow:visible;fill:none;stroke:#52306C;stroke-miterlimit:10;"/>
	</g>
</g>
<path class="st2" d="M290.2,94.3c-0.7,3.5,4.7,7,11.5,7c6.7,0,12.1-3.6,11.5-7.1"/>
<path class="st6" d="M301.5,93.2c-9.1,0-17,1.5-21.6,4.8c5.2,6.1,12.9,10,21.6,10s16.4-3.9,21.6-10
	C318.5,94.8,310.5,93.2,301.5,93.2z"/>
<path class="st2" d="M293.8,93.2v3.7c0,3,3.4,5,7.7,5h0c4.2,0,7.7-2,7.7-5v-3.7"/>
<path class="st7" d="M305.8,90.7h-8.7V95c0,2.4,2,2.9,4.4,2.9l0,0c2.4,0,4.4-0.4,4.4-2.9V90.7z"/>
<path class="st7" d="M316.8,74.6c-0.1,0-0.3,0-0.4,0c-0.6-4.7-3.5-8.7-7.4-11c1.6-0.8,3.1-1.6,3.1-1.6l-5.3,0.5c0,0,0,0-0.1,0
	c0.4-0.7,0.9-1.6,1.2-2.7c-0.9,0.8-4.4,1.6-5.3,1.8c-0.4,0-0.7-0.1-1.1-0.1c-7.6,0-13.9,5.7-14.9,13.1c-0.2,0-0.4,0-0.6,0
	c-1.6,0.2-2.6,1.8-2.4,3.7c0.2,1.9,1.6,3.2,3.2,3c0.1,0,0.3-0.1,0.4-0.1c1.9,6.1,7.6,11.5,14.4,11.5c6.7,0,12.4-5.4,14.4-11.5
	c0.1,0,0.2,0,0.2,0.1c1.6,0.2,3-1.2,3.2-3C319.5,76.4,318.4,74.8,316.8,74.6z"/>
<g>
	<path class="st8" d="M313.2,74.1c0.1,0.3,0.3,0.5,0.6,0.6l2.7,0.7c-0.6-7.8-7.1-13.9-15-13.9c-7.9,0-14.4,6.2-15,14l3-0.8
		c0.3-0.1,0.5-0.3,0.6-0.6l2.3-5.2h18.6L313.2,74.1z"/>
</g>
<g transform="matrix( 1, 0, 0, 1, 0,0) ">
	<g>
		<g id="a_9_">
			<path class="st5" d="M297.9,85.2c0,1,0.3,1.8,1,2.5c0.7,0.7,1.5,1,2.5,1c1,0,1.8-0.3,2.5-1c0.7-0.7,1.1-1.5,1.1-2.5
				c0-1-0.4-1.8-1.1-2.5c-0.7-0.7-1.5-1-2.5-1c-1,0-1.8,0.3-2.5,1C298.3,83.5,297.9,84.3,297.9,85.2 M298.1,76.7
				c0.3-0.4,0.5-0.9,0.5-1.5s-0.2-1.1-0.5-1.5c-0.3-0.4-0.8-0.6-1.2-0.6s-0.9,0.2-1.2,0.6c-0.3,0.4-0.5,0.9-0.5,1.5s0.2,1.1,0.5,1.5
				c0.3,0.4,0.8,0.6,1.2,0.6S297.7,77.2,298.1,76.7"/>
		</g>
	</g>
	<path class="st5" d="M307.4,76.7c0.3-0.4,0.5-0.9,0.5-1.5s-0.2-1.1-0.5-1.5c-0.3-0.4-0.8-0.6-1.2-0.6s-0.9,0.2-1.2,0.6
		c-0.3,0.4-0.5,0.9-0.5,1.5s0.2,1.1,0.5,1.5c0.3,0.4,0.8,0.6,1.2,0.6S307,77.2,307.4,76.7"/>
</g>
<path class="st8" d="M302.4,61.6c0,0,4.4-0.9,5.5-1.8c-0.7,2.5-2.3,4.3-2.3,4.3L302.4,61.6z"/>
<path class="st8" d="M306.1,62.6l6-0.6c0,0-5.5,2.9-7,3.1C303.6,65.3,306.1,62.6,306.1,62.6z"/>
<path class="st9" d="M11.9,22.6l-0.3-0.1c-0.1,0-2.6-0.5-5.1-1.9c-3.5-2-5.6-4.8-5.9-8.2C0.2,8.2,2.9,5.8,5.8,5.5
	c1.4-0.1,2.8,0.3,3.9,1.2C10,7,10.3,7.2,10.5,7.6c0.2-0.4,0.4-0.7,0.7-1c0.9-1.1,2.2-1.7,3.6-1.9c2.9-0.3,6,1.6,6.3,5.8
	c0.3,3.4-1.2,6.5-4.3,9.1c-2.3,1.9-4.6,2.8-4.7,2.8L11.9,22.6z"/>
<path class="st9" d="M64.3,11L64.2,11c0,0-1.2-0.6-2.2-1.6c-1.4-1.4-2.1-3.1-1.8-4.7c0.4-2,2-2.9,3.4-2.6c0.7,0.1,1.3,0.5,1.7,1.1
	c0.1,0.2,0.2,0.3,0.3,0.5c0.1-0.1,0.3-0.3,0.5-0.4c0.6-0.4,1.3-0.5,2-0.4c1.4,0.3,2.7,1.6,2.3,3.6c-0.3,1.7-1.4,3-3.3,3.8
	c-1.3,0.6-2.6,0.7-2.6,0.7L64.3,11z"/>
<path class="st9" d="M54.4,63.4l-0.2,0c-0.1,0-1.6-0.5-3.1-1.5c-2.1-1.5-3.2-3.4-3.2-5.5c0-2.6,1.8-4,3.7-4c0.9,0,1.8,0.3,2.4,1
	c0.2,0.2,0.3,0.4,0.5,0.6c0.1-0.2,0.3-0.4,0.5-0.6c0.6-0.6,1.5-1,2.4-1c1.8,0,3.7,1.4,3.7,4c0,2.2-1.1,4.1-3.2,5.5
	c-1.5,1.1-3.1,1.5-3.1,1.5L54.4,63.4z"/>
<path class="st10" d="M333.1,39.1c-9.2,0-16.7,7.5-16.7,16.7s7.5,16.7,16.7,16.7s16.7-7.5,16.7-16.7S342.3,39.1,333.1,39.1z"/>
<circle class="st5" cx="333.1" cy="63.7" r="2.3"/>
<path class="st5" d="M335.4,57.4c0,1.2-1,2.3-2.3,2.3s-2.3-1-2.3-2.3V48c0-1.2,1-2.3,2.3-2.3s2.3,1,2.3,2.3V57.4z"/>
<path class="st11" d="M333,41.9c-5.2,0-9.7,2.8-12.1,7 M319.4,52.8c-0.2,1-0.3,2-0.3,3.1"/>
<g>
	<g>
		<g>
			<path class="st5" d="M93.9,29.6h6.8v4.3h-6.8V29.6z"/>
			<path class="st5" d="M93.9,45.6h6.8v4.3h-6.8V45.6z"/>
			<path class="st5" d="M93.9,61.6h6.8v4.3h-6.8V61.6z"/>
			<path class="st5" d="M93.9,77.6h6.8v4.3h-6.8V77.6z"/>
			<path class="st5" d="M93.9,93.6h6.8v4.3h-6.8V93.6z"/>
		</g>
	</g>
</g>
<g>
	<path class="st12" d="M117.9,29.6h6.4v4.3h-6.4V29.6z"/>
	<path class="st12" d="M124.1,29.6h6.4v4.3h-6.4V29.6z"/>
	<path class="st12" d="M130.4,29.6h6.4v4.3h-6.4V29.6z"/>
	<path class="st12" d="M136.6,29.6h6.4v4.3h-6.4V29.6z"/>
	<path class="st12" d="M142.9,29.6h6.4v4.3h-6.4V29.6z"/>
	<path class="st12" d="M149.1,29.6h6.4v4.3h-6.4V29.6z"/>
	<path class="st12" d="M155.4,29.6h6.4v4.3h-6.4V29.6z"/>
	<path class="st12" d="M161.6,29.6h6.4v4.3h-6.4V29.6z"/>
	<path class="st12" d="M167.9,29.6h6.4v4.3h-6.4V29.6z"/>
	<path class="st12" d="M186.7,29.6h6.4v4.3h-6.4V29.6z"/>
	<path class="st12" d="M192.9,29.6h6.4v4.3h-6.4V29.6z"/>
	<path class="st12" d="M199.2,29.6h6.4v4.3h-6.4V29.6z"/>
	<path class="st12" d="M205.4,29.6h6.4v4.3h-6.4V29.6z"/>
	<path class="st12" d="M211.7,29.6h6.4v4.3h-6.4V29.6z"/>
	<path class="st12" d="M117.9,45.6h6.4v4.3h-6.4V45.6z"/>
	<path class="st12" d="M124.1,45.6h6.4v4.3h-6.4V45.6z"/>
	<path class="st12" d="M130.4,45.6h6.4v4.3h-6.4V45.6z"/>
	<path class="st12" d="M136.6,45.6h6.4v4.3h-6.4V45.6z"/>
	<path class="st12" d="M142.9,45.6h6.4v4.3h-6.4V45.6z"/>
	<path class="st12" d="M149.1,45.6h6.4v4.3h-6.4V45.6z"/>
	<path class="st12" d="M130.4,61.6h6.4v4.3h-6.4V61.6z"/>
	<path class="st12" d="M136.7,61.6h6.4v4.3h-6.4V61.6z"/>
	<path class="st12" d="M142.9,61.6h6.4v4.3h-6.4V61.6z"/>
	<path class="st12" d="M149.2,61.6h6.4v4.3h-6.4V61.6z"/>
	<path class="st12" d="M155.4,61.6h6.4v4.3h-6.4V61.6z"/>
	<path class="st12" d="M161.7,61.6h6.4v4.3h-6.4V61.6z"/>
	<path class="st12" d="M130.4,77.6h6.4v4.3h-6.4V77.6z"/>
	<path class="st12" d="M136.7,77.6h6.4v4.3h-6.4V77.6z"/>
	<path class="st12" d="M142.9,77.6h6.4v4.3h-6.4V77.6z"/>
	<path class="st12" d="M149.2,77.6h6.4v4.3h-6.4V77.6z"/>
	<path class="st12" d="M155.4,77.6h6.4v4.3h-6.4V77.6z"/>
	<path class="st12" d="M161.7,77.6h6.4v4.3h-6.4V77.6z"/>
	<path class="st12" d="M167.9,77.6h6.4v4.3h-6.4V77.6z"/>
	<path class="st12" d="M174.2,77.6h6.4v4.3h-6.4V77.6z"/>
	<path class="st12" d="M117.9,93.6h6.4v4.3h-6.4V93.6z"/>
	<path class="st12" d="M124.1,93.6h6.4v4.3h-6.4V93.6z"/>
	<path class="st12" d="M130.4,93.6h6.4v4.3h-6.4V93.6z"/>
	<path class="st12" d="M136.6,93.6h6.4v4.3h-6.4V93.6z"/>
	<path class="st12" d="M142.9,93.6h6.4v4.3h-6.4V93.6z"/>
	<path class="st12" d="M149.1,93.6h6.4v4.3h-6.4V93.6z"/>
	<path class="st12" d="M167.9,93.6h6.4v4.3h-6.4V93.6z"/>
	<path class="st12" d="M174.2,93.6h6.4v4.3h-6.4V93.6z"/>
	<path class="st12" d="M180.4,93.6h6.4v4.3h-6.4V93.6z"/>
	<path class="st12" d="M186.7,93.6h6.4v4.3h-6.4V93.6z"/>
	<path class="st12" d="M192.9,93.6h6.4v4.3h-6.4V93.6z"/>
	<path class="st12" d="M199.2,93.6h6.4v4.3h-6.4V93.6z"/>
	<path class="st12" d="M205.4,93.6h6.4v4.3h-6.4V93.6z"/>
	<path class="st12" d="M211.7,93.6h6.4v4.3h-6.4V93.6z"/>
</g>
</svg>
