<svg id="Layer_1" data-name="Layer 1" xmlns="http://www.w3.org/2000/svg" xmlns:xlink="http://www.w3.org/1999/xlink" viewBox="0 0 111 97.1"><defs><style>.cls-1{fill:#5050aa;}.cls-2{fill:#30306b;}.cls-3{fill:#7d7dcc;}.cls-4{fill:#52306c;}.cls-5{fill:#a47cce;}.cls-6{fill:url(#linear-gradient);}</style><linearGradient id="linear-gradient" x1="40.34" y1="555.85" x2="76.34" y2="555.85" gradientTransform="translate(-1 -490)" gradientUnits="userSpaceOnUse"><stop offset="0" stop-color="#834fab"/><stop offset="1" stop-color="#834fab"/></linearGradient></defs><title>one-click-containers</title><polygon class="cls-1" points="0.3 54.5 35.7 74.7 36.3 63.8 0.3 43 0.3 54.5"/><polygon class="cls-2" points="36.2 63.3 71.1 42.8 36.2 22 0.7 42.8 36.2 63.3"/><polygon class="cls-3" points="71.8 53.8 36 74.7 35.8 63.8 71.8 43 71.8 53.8"/><path class="cls-2" d="M37,38L1,58.8V70.3L37,91.1,73,70.3V58.8ZM36.9,90h0ZM72.1,69.8l-34.6,20V79.5H36.6V89.8L2,69.8v-10l35,20,0.5-.8L2.5,59,37,39.1,71.5,59l-35,20L37,79.8l35.1-20v10h0Z" transform="translate(-1 -16)"/><polygon class="cls-1" points="0.3 43.5 35.7 63.7 36.3 52.8 0.3 32 0.3 43.5"/><polygon class="cls-2" points="36.2 52.3 71.1 31.8 36.2 11 0.7 31.8 36.2 52.3"/><polygon class="cls-3" points="71.8 42.8 36 63.7 35.8 52.8 71.8 32 71.8 42.8"/><path class="cls-2" d="M37,27L1,47.8V59.3L37,80.1,73,59.3V47.8ZM36.9,79h0ZM72.1,58.8l-34.6,20V68.5H36.6V78.8L2,58.8v-10l35,20,0.5-.8L2.5,48,37,28.1,71.5,48l-35,20L37,68.8l35.1-20v10h0Z" transform="translate(-1 -16)"/><polygon class="cls-1" points="0.3 32.5 35.7 52.7 36.3 41.8 0.3 21 0.3 32.5"/><polygon class="cls-2" points="36.2 41.3 71.1 20.8 36.2 0 0.7 20.8 36.2 41.3"/><polygon class="cls-3" points="71.8 31.8 36 52.7 35.8 41.8 71.8 21 71.8 31.8"/><path class="cls-2" d="M37,16L1,36.8V48.3L37,69.1,73,48.3V36.8ZM36.9,68h0ZM72.1,47.8l-34.6,20V57.5H36.6V67.8L2,47.8v-10l35,20,0.5-.8L2.5,37,37,17.1,71.5,37l-35,20L37,57.8l35.1-20v10h0Z" transform="translate(-1 -16)"/><polygon class="cls-4" points="75.2 55.3 110.1 34.8 75.2 14 39.7 34.8 75.2 55.3"/><polygon class="cls-5" points="110.8 75.8 75 96.7 74.8 55.8 110.8 35 110.8 75.8"/><polygon class="cls-6" points="39.3 76.5 74.7 96.7 75.3 55.8 39.3 35 39.3 76.5"/><path class="cls-4" d="M76,30L40,50.8V92.3l36,20.8,36-20.8V50.8Zm-0.1,82h0Zm35.2-20.2-34.6,20V71.5H75.6v40.3L41,91.8v-40l35,20,0.5-.8-35-20L76,31.1,110.5,51l-35,20L76,71.8l35.1-20v40h0Z" transform="translate(-1 -16)"/></svg>