<svg id="Layer_1" data-name="Layer 1" xmlns="http://www.w3.org/2000/svg" xmlns:xlink="http://www.w3.org/1999/xlink" viewBox="0 0 380 200"><defs><style>.cls-1{fill:#fafafa;}.cls-2{fill:#5050aa;}.cls-3,.cls-5{fill:#30306b;}.cls-4{fill:#7d7dcc;}.cls-5{stroke:#30306b;}.cls-5,.cls-9{stroke-miterlimit:10;stroke-width:0.5px;}.cls-6,.cls-9{fill:#52306c;}.cls-7{fill:#a47cce;}.cls-8{fill:url(#linear-gradient);}.cls-9{stroke:#52306c;}</style><linearGradient id="linear-gradient" x1="167.26" y1="1331.3" x2="221.26" y2="1331.3" gradientTransform="translate(-1 -1208.2)" gradientUnits="userSpaceOnUse"><stop offset="0" stop-color="#834fab"/><stop offset="1" stop-color="#834fab"/></linearGradient></defs><title>self-managed-container</title><rect class="cls-1" width="380" height="200"/><polygon class="cls-2" points="107.7 106.1 160.8 136.4 161.7 120 107.7 88.8 107.7 106.1"/><polygon class="cls-3" points="161.6 119.3 213.9 88.5 161.6 57.3 108.3 88.5 161.6 119.3"/><polygon class="cls-4" points="215 105 161.2 136.4 160.9 120 215 88.8 215 105"/><path class="cls-5" d="M161.2,57.3l-54,31.2v17.3l54,31.2,54-31.2V88.5Zm-0.1,78h0ZM213.9,105L162,135V119.5h-1.4V135l-51.9-30V90l52.5,30,0.8-1.2-52.5-30L161.2,59,213,88.8l-52.5,30,0.8,1.2,52.6-30v15h0Z"/><polygon class="cls-2" points="107.7 89.6 160.8 119.9 161.7 103.5 107.7 72.3 107.7 89.6"/><polygon class="cls-3" points="161.6 102.8 213.9 72 161.6 40.8 108.3 72 161.6 102.8"/><polygon class="cls-4" points="215 88.5 161.2 119.9 160.9 103.5 215 72.3 215 88.5"/><path class="cls-5" d="M161.2,40.8L107.2,72V89.2l54,31.2,54-31.2V72Zm-0.1,78h0Zm52.8-30.3-51.9,30V103h-1.4v15.5l-51.9-30v-15l52.5,30,0.8-1.2-52.5-30,51.8-29.9L213,72.3l-52.5,30,0.8,1.2,52.6-30v15h0Z"/><polygon class="cls-2" points="107.7 73.1 160.8 103.4 161.7 87 107.7 55.8 107.7 73.1"/><polygon class="cls-3" points="161.6 86.3 213.9 55.5 161.6 24.3 108.3 55.5 161.6 86.3"/><polygon class="cls-4" points="215 72 161.2 103.4 160.9 87 215 55.8 215 72"/><path class="cls-5" d="M161.2,24.3l-54,31.2V72.7l54,31.2,54-31.2V55.5Zm-0.1,78h0ZM213.9,72L162,102V86.6h-1.4V102L108.7,72V57l52.5,30,0.8-1.2-52.5-30L161.2,26,213,55.8l-52.5,30,0.8,1.2,52.6-30V72h0Z"/><polygon class="cls-6" points="220 107.3 272.4 76.5 220 45.3 166.8 76.5 220 107.3"/><polygon class="cls-7" points="273.5 138 219.8 169.4 219.5 108 273.5 76.8 273.5 138"/><polygon class="cls-8" points="166.2 139.1 219.3 169.4 220.2 108 166.2 76.8 166.2 139.1"/><path class="cls-9" d="M219.8,45.3l-54,31.2v62.3l54,31.2,54-31.2V76.5Zm-0.2,123h0ZM272.4,138l-51.9,30V107.5h-1.4V168l-51.9-30V78l52.5,30,0.8-1.2L168,76.8,219.8,47l51.8,29.9-52.5,30,0.8,1.2,52.6-30L272.4,138h0Z"/></svg>