<svg id="Layer_1" data-name="Layer 1" xmlns="http://www.w3.org/2000/svg" viewBox="0 0 380 200"><defs><style>.cls-1{fill:#fafafa;}.cls-2{fill:#853cbe;}.cls-10,.cls-11,.cls-2,.cls-4,.cls-5,.cls-6,.cls-9{stroke:#44275e;}.cls-10,.cls-11,.cls-12,.cls-2,.cls-4,.cls-5,.cls-6,.cls-7,.cls-9{stroke-linecap:round;stroke-linejoin:round;}.cls-10,.cls-11,.cls-12,.cls-13,.cls-2,.cls-4,.cls-5,.cls-6,.cls-7,.cls-9{stroke-width:2px;}.cls-3{fill:#44275e;}.cls-4{fill:#d1d3d4;}.cls-12,.cls-5,.cls-6,.cls-7{fill:none;}.cls-6{opacity:0.15;}.cls-13,.cls-6{isolation:isolate;}.cls-7{stroke:#2f1244;}.cls-8{fill:#2f1244;}.cls-16,.cls-9{fill:#2ab0f6;}.cls-10{fill:#bcbec0;}.cls-11,.cls-15{fill:#ccadd2;}.cls-12{stroke:#fff;}.cls-13{fill:#231f20;stroke:#231f20;stroke-miterlimit:10;opacity:0.25;}.cls-14{fill:#52306c;}</style></defs><title>setting-up-runnabot</title><rect class="cls-1" width="380" height="200"/><g id="Floaty_Head_2" data-name="Floaty Head 2"><path class="cls-2" d="M306.26,84.26c-5.2-13.45,14.48-11.92,13.8-23.12-0.38-6.23-10.16-11.7-15.76-10.4-9.22,2.21-10.07,14.64-10.8,22.37"/><path class="cls-3" d="M299.55,70.27s1.8-8.5,8.17-10.26c4.26-1.18,6.71,1.8,6.3,4-0.61,3.31-10.09,7.78-11.46,10.1"/><path class="cls-4" d="M231.21,50.09c-0.77-.73-4.66,2.08-8.71,6.3s-6.73,8.17-6,8.91l14.13,16,17.1-17.7Z"/><path class="cls-5" d="M230.44,54.27a37.4,37.4,0,0,1-4.45,5.4A33.74,33.74,0,0,1,220.74,64"/><path class="cls-5" d="M231.21,50.09c-0.77-.73-4.66,2.08-8.71,6.3s-6.73,8.17-6,8.91l14.13,16,17.1-17.7Z"/><path class="cls-2" d="M311.32,106.42V102c-1.44-14.93-3.66-33.18-10.86-37.86-6.52-4.28-14.25-5.26-23.54-6.08a14.46,14.46,0,0,1,2.44-3.19c-2.85.07-4-.33-6.61,1.39,0.94-.9,1.85-2.38,2.84-3.28-4.5-.76-9,1.66-12.6,4.81-10.7.63-18.83,2.37-24.93,7.2-6.63,5.26-8.82,22.1-10.4,37.68v3.71c0,23.67,29.25,42.87,41.81,42.87S311.32,130.1,311.32,106.42Z"/><path class="cls-6" d="M237.64,79.87s4.43-7.2,13.14-7.2"/><path class="cls-7" d="M237.64,77.81s4.43-7.2,13.14-7.2"/><circle class="cls-8" cx="245.63" cy="81.96" r="3.23"/><path class="cls-7" d="M302.39,77.81s-4.43-7.2-13.14-7.2"/><circle class="cls-8" cx="294.42" cy="82.49" r="3.96"/><path class="cls-6" d="M237.64,79.75s4.43-7.2,13.14-7.2"/><path class="cls-7" d="M237.64,77.71s4.43-7.2,13.14-7.2"/><circle class="cls-8" cx="245.62" cy="81.86" r="3.23"/><path class="cls-4" d="M238.6,65c-6.66,5.26-9.17,21.46-10.8,37,16.53-5.32,38-7.27,38-7.27l-1.5-37.26-0.12.1C253.13,58.27,244.81,60,238.6,65Z"/><path class="cls-9" d="M246.44,82a145.55,145.55,0,0,0-1.92,15.66"/><path class="cls-9" d="M238.18,78.27s2.23,5.83,8.32,5.83,9.21-6.35,9.21-6.35"/><path class="cls-10" d="M265,77.3s-17,.27-33.3,1"/><path class="cls-11" d="M256.93,84.84c7.71-11.05,41.19-7.81,27.49,27.59-2,5.16-4.32,10.22-6.56,15.3-0.23.28-.41-1.08-0.9-0.9-2.36,3.87-5.27,2.1-7.74-1.44-0.68.77-5.57,2.16-6.3,2.93C255.59,119.39,249.21,95.9,256.93,84.84Z"/><line class="cls-5" x1="269.25" y1="112.17" x2="271.53" y2="112.17"/><path class="cls-3" d="M280.12,88.94c-1.32-1.37-5.4-2.06-9.72-2.09s-8.42.72-9.72,2.09c-3.09,3.19,4.11,10.48,9.72,10.93C276,99.41,283.21,92.12,280.12,88.94Z"/><line class="cls-5" x1="270.41" y1="112.17" x2="270.41" y2="99.87"/><path class="cls-12" d="M276.4,90.33c-1.49-.62-10.52-0.63-12,0"/><path class="cls-13" d="M269.5,137.84c-16.69,0-38.17-16.84-41.46-38.42-0.12,1.08-.23,2.2-0.34,3.29v3.71c0,23.67,29.25,42.87,41.81,42.87s41.81-19.19,41.81-42.87V102c-0.09-1-.2-2-0.29-3C308,120.83,286.19,137.84,269.5,137.84Z"/><path class="cls-2" d="M67.27,149.47a7.37,7.37,0,0,1-7.36-7.35V60.56a7.37,7.37,0,0,1,7.36-7.34h42.49a5.25,5.25,0,0,1,3.6,1.5l23.12,23.12a4.86,4.86,0,0,1,1.5,3.6v60.48a7.37,7.37,0,0,1-7.35,7.39h0Z"/><rect class="cls-3" x="65.92" y="119" width="16.2" height="2.16"/><rect class="cls-3" x="84.82" y="119" width="8.1" height="2.16"/><rect class="cls-3" x="65.92" y="124.4" width="8.1" height="2.16"/><rect class="cls-3" x="65.92" y="129.8" width="16.2" height="2.16"/><rect class="cls-14" x="95.08" y="77.36" width="8.1" height="2.16"/><rect class="cls-3" x="76.72" y="124.4" width="7.56" height="2.16"/><rect class="cls-3" x="87.52" y="124.4" width="7.56" height="2.16"/><rect class="cls-3" x="65.92" y="135.2" width="32.4" height="2.16"/><rect class="cls-3" x="65.92" y="140.6" width="12.86" height="2.16"/><rect class="cls-3" x="82.12" y="140.6" width="12.86" height="2.16"/><rect class="cls-3" x="98.32" y="140.6" width="16.2" height="2.16"/><path class="cls-6" d="M87.63,87.37s4.61-7.45,13.67-7.45"/><path class="cls-7" d="M87.63,85.23s4.61-7.45,13.67-7.45"/><circle class="cls-8" cx="95.93" cy="89.54" r="3.37"/><path class="cls-4" d="M88.6,72c-6.89,5.46-9.5,22.32-11.23,38.54C94.55,105,116.86,103,116.86,103l-1.56-38.7-0.12.1C103.75,65,95.08,66.86,88.6,72Z"/><path class="cls-9" d="M96.78,89.72a151.86,151.86,0,0,0-2,16.3"/><path class="cls-9" d="M88.2,85.82s2.33,6,8.64,6,9.54-6.62,9.54-6.62"/><path class="cls-10" d="M116.05,84.81c-29.31.46-5.8-.23-34.66,1"/><path class="cls-3" d="M138.7,81.15H113.8a3.49,3.49,0,0,1-3.45-3.45V53l1.47,0.18L138,79Z"/><path class="cls-15" d="M167,102.82a2.33,2.33,0,0,1-1.47-.54L153.8,93a3,3,0,0,1-1.18-2.37,3.06,3.06,0,0,1,1.18-2.39l11.4-9.1a2.33,2.33,0,0,1,1.47-.54A2.38,2.38,0,0,1,169,80.9l0.08,6.3h10.56a3.78,3.78,0,0,1,0,7.56H169.3v5.66a2.33,2.33,0,0,1-.68,1.68A2.39,2.39,0,0,1,167,102.82Z"/><path class="cls-3" d="M166.71,79.65A1.28,1.28,0,0,1,168,80.91l0.09,7.36h11.61a2.7,2.7,0,1,1,0,5.4H168.16l0.09,6.79a1.28,1.28,0,0,1-1.25,1.3h0a1.26,1.26,0,0,1-.79-0.28l-11.7-9.33a1.89,1.89,0,0,1,0-3.06L165.91,80a1.26,1.26,0,0,1,.79-0.28m0-2.16a3.4,3.4,0,0,0-2.16.76l-11.39,9.09a4,4,0,0,0,0,6.44l11.7,9.33a3.4,3.4,0,0,0,2.16.76,3.48,3.48,0,0,0,2.47-1,3.41,3.41,0,0,0,1-2.46l-0.06-4.6h9.32a4.86,4.86,0,0,0,0-9.72H170.2l-0.08-5.2a3.46,3.46,0,0,0-3.41-3.41h0v0.05Z"/><path class="cls-16" d="M200.23,123.37a2.38,2.38,0,0,1-2.37-2.33l-0.09-6.3H187.24a3.78,3.78,0,0,1,0-7.56h10.44l-0.07-5.69a2.34,2.34,0,0,1,.67-1.68A2.39,2.39,0,0,1,200,99.1a2.33,2.33,0,0,1,1.47.54l11.7,9.33a3,3,0,0,1,1.18,2.36,3.06,3.06,0,0,1-1.18,2.39l-11.45,9.13a2.33,2.33,0,0,1-1.47.54h0v0Z"/><path class="cls-3" d="M200,100.23a1.26,1.26,0,0,1,.79.28l11.7,9.33a1.89,1.89,0,0,1,0,3.06L201.06,122a1.26,1.26,0,0,1-.79.28,1.28,1.28,0,0,1-1.29-1.26l-0.1-7.33H187.27a2.7,2.7,0,1,1,0-5.4h11.51l-0.09-6.79a1.28,1.28,0,0,1,1.25-1.3h0m0-2.16a3.48,3.48,0,0,0-2.44,1,3.41,3.41,0,0,0-1,2.46l0.06,4.6h-9.35a4.86,4.86,0,0,0,0,9.72h9.49L196.8,121a3.46,3.46,0,0,0,3.45,3.39,3.4,3.4,0,0,0,2.16-.76l11.4-9.13a4,4,0,0,0,0-6.44l-11.7-9.31A3.4,3.4,0,0,0,200,98h0v0Z"/></g></svg>