<svg xmlns="http://www.w3.org/2000/svg" viewBox="0 0 486.7 189.11"><defs><style>.cls-1{isolation:isolate;}.cls-2{fill:#853cbe;}.cls-10,.cls-11,.cls-15,.cls-16,.cls-17,.cls-2,.cls-4,.cls-5,.cls-6,.cls-9{stroke:#44275e;}.cls-10,.cls-11,.cls-12,.cls-15,.cls-16,.cls-17,.cls-2,.cls-4,.cls-5,.cls-6,.cls-7,.cls-9{stroke-linecap:round;stroke-linejoin:round;}.cls-10,.cls-11,.cls-13,.cls-2,.cls-4,.cls-5,.cls-6,.cls-7,.cls-9{stroke-width:4.89px;}.cls-3{fill:#44275e;}.cls-15,.cls-4{fill:#d1d3d4;}.cls-12,.cls-5,.cls-6,.cls-7{fill:none;}.cls-6{opacity:0.15;}.cls-13,.cls-6{mix-blend-mode:multiply;}.cls-7{stroke:#2f1244;}.cls-8{fill:#2f1244;}.cls-16,.cls-19,.cls-9{fill:#2ab0f6;}.cls-10,.cls-17{fill:#bcbec0;}.cls-11,.cls-18{fill:#ccadd2;}.cls-12{stroke:#fff;stroke-width:4.17px;}.cls-13{fill:#231f20;stroke:#231f20;stroke-miterlimit:10;opacity:0.25;}.cls-14{fill:#52306c;}.cls-15,.cls-16,.cls-17{stroke-width:4px;}</style></defs><title>setting-up-runnabot</title><g class="cls-1"><g id="Floaty_Head_2" data-name="Floaty Head 2"><path class="cls-2" d="M460.08,71.53c-9.64-24.9,26.81-22.09,25.55-42.81C484.93,17.18,466.82,7,456.45,9.46c-17.07,4.1-18.65,27.11-20,41.42" transform="translate(-1.42 -5.6)"/><path class="cls-3" d="M447.64,45.6s3.38-15.74,15.13-19c7.89-2.18,12.41,3.3,11.66,7.34-1.13,6.13-18.69,14.4-21.21,18.7" transform="translate(-1.42 -5.6)"/><path class="cls-4" d="M321.1,8.26c-1.41-1.35-8.64,3.85-16.14,11.61S292.5,35,293.9,36.37l26.16,29.7,31.72-32.79Z" transform="translate(-1.42 -5.6)"/><path class="cls-5" d="M319.67,16a69.27,69.27,0,0,1-8.24,10,62.48,62.48,0,0,1-9.73,8" transform="translate(-1.42 -5.6)"/><path class="cls-5" d="M321.1,8.26c-1.41-1.35-8.64,3.85-16.14,11.61S292.5,35,293.9,36.37l26.16,29.7,31.72-32.79Z" transform="translate(-1.42 -5.6)"/><path class="cls-2" d="M469.44,112.56v-8.11C466.77,76.8,462.65,43,449.33,34.33c-12.09-7.91-26.39-9.75-43.6-11.27a26.79,26.79,0,0,1,4.52-5.9c-5.28.13-7.41-.62-12.23,2.56,1.75-1.65,3.43-4.4,5.26-6.07-8.37-1.4-16.65,3.09-23.27,8.92-19.82,1.17-34.87,4.38-46.17,13.33-12.28,9.73-16.33,40.94-19.25,69.79v6.87c0,43.84,54.16,79.39,77.43,79.39S469.44,156.41,469.44,112.56Z" transform="translate(-1.42 -5.6)"/><path class="cls-6" d="M333,63.39s8.2-13.27,24.33-13.27" transform="translate(-1.42 -5.6)"/><path class="cls-7" d="M333,59.6s8.2-13.27,24.33-13.27" transform="translate(-1.42 -5.6)"/><circle class="cls-8" cx="346.37" cy="61.67" r="5.99"/><path class="cls-7" d="M452.91,59.6s-8.2-13.27-24.33-13.27" transform="translate(-1.42 -5.6)"/><circle class="cls-8" cx="436.73" cy="62.65" r="7.34"/><path class="cls-6" d="M333,63.18s8.2-13.27,24.33-13.27" transform="translate(-1.42 -5.6)"/><path class="cls-7" d="M333,59.39s8.2-13.27,24.33-13.27" transform="translate(-1.42 -5.6)"/><circle class="cls-8" cx="346.35" cy="61.47" r="5.99"/><path class="cls-4" d="M334.7,35.87c-12.25,9.71-16.91,39.73-20,68.59C345.31,94.61,385,91,385,91l-2.78-69-0.21.18C361.7,23.4,346.28,26.69,334.7,35.87Z" transform="translate(-1.42 -5.6)"/><path class="cls-9" d="M349.29,67.38s-3.2,18.12-3.55,29" transform="translate(-1.42 -5.6)"/><path class="cls-9" d="M334,60.45s4.14,10.8,15.4,10.8,17-11.78,17-11.78" transform="translate(-1.42 -5.6)"/><path class="cls-10" d="M383.61,58.65s-31.54.5-61.69,1.8" transform="translate(-1.42 -5.6)"/><path class="cls-11" d="M368.72,72.61C383,52.14,445,58.15,419.63,123.69c-3.68,9.55-8,18.94-12.15,28.31-0.44.51-.76-2-1.67-1.75-4.37,7.17-9.77,3.88-14.33-2.67-1.27,1.42-10.32,4-11.64,5.43C366.25,136.57,354.43,93.09,368.72,72.61Z" transform="translate(-1.42 -5.6)"/><line class="cls-5" x1="390.13" y1="117.61" x2="394.34" y2="117.61"/><path class="cls-3" d="M411.68,80.2c-2.45-2.53-10-3.82-18-3.87s-15.58,1.33-18,3.87c-5.71,5.9,7.61,19.4,18,20.24C404.07,99.6,417.39,86.1,411.68,80.2Z" transform="translate(-1.42 -5.6)"/><line class="cls-5" x1="392.28" y1="117.61" x2="392.28" y2="94.84"/><path class="cls-12" d="M404.81,82.78c-2.77-1.15-19.48-1.16-22.24,0" transform="translate(-1.42 -5.6)"/><path class="cls-13" d="M392,170.76c-30.9,0-70.68-31.18-76.79-71.15-0.22,2-.43,4.07-0.63,6.09v6.87c0,43.84,54.16,79.39,77.43,79.39s77.43-35.54,77.43-79.39v-8.11c-0.17-1.81-.36-3.64-0.54-5.49C463.21,139.24,422.91,170.76,392,170.76Z" transform="translate(-1.42 -5.6)"/><path class="cls-2" d="M17.49,192.27A13.65,13.65,0,0,1,3.86,178.65v-151A13.65,13.65,0,0,1,17.49,14.06H96.17a9.71,9.71,0,0,1,6.67,2.78l42.81,42.81a9,9,0,0,1,2.78,6.67v112A13.65,13.65,0,0,1,134.81,192Z" transform="translate(-1.42 -5.6)"/><rect class="cls-3" x="13.57" y="130.26" width="30" height="4"/><rect class="cls-3" x="48.57" y="130.26" width="15" height="4"/><rect class="cls-3" x="13.57" y="140.26" width="15" height="4"/><rect class="cls-3" x="13.57" y="150.26" width="30" height="4"/><rect class="cls-14" x="67.57" y="53.14" width="15" height="4"/><rect class="cls-3" x="33.57" y="140.26" width="14" height="4"/><rect class="cls-3" x="53.57" y="140.26" width="14" height="4"/><rect class="cls-3" x="13.57" y="160.26" width="60" height="4"/><rect class="cls-3" x="13.57" y="170.26" width="23.82" height="4"/><rect class="cls-3" x="43.57" y="170.26" width="23.82" height="4"/><rect class="cls-3" x="73.57" y="170.26" width="30" height="4"/><path class="cls-6" d="M55.21,77.27s8.53-13.8,25.31-13.8" transform="translate(-1.42 -5.6)"/><path class="cls-7" d="M55.21,73.33s8.53-13.8,25.31-13.8" transform="translate(-1.42 -5.6)"/><circle class="cls-8" cx="69.15" cy="75.71" r="6.23"/><path class="cls-15" d="M57,48.85c-12.75,10.1-17.59,41.33-20.8,71.36,31.84-10.25,73.13-14,73.13-14l-2.89-71.74-0.22.18C85.06,35.89,69,39.31,57,48.85Z" transform="translate(-1.42 -5.6)"/><path class="cls-16" d="M72.14,81.64s-3.33,18.85-3.7,30.19" transform="translate(-1.42 -5.6)"/><path class="cls-16" d="M56.26,74.43s4.31,11.23,16,11.23S89.93,73.4,89.93,73.4" transform="translate(-1.42 -5.6)"/><path class="cls-17" d="M107.85,72.55c-54.28.85-10.74-.44-64.18,1.88" transform="translate(-1.42 -5.6)"/><path class="cls-3" d="M149.82,65.77H103.67a6.47,6.47,0,0,1-6.39-6.39V13.73L100,14.06l48.44,47.82Z" transform="translate(-1.42 -5.6)"/><path class="cls-18" d="M202.12,105.89a4.32,4.32,0,0,1-2.72-1L177.8,87.64a5.55,5.55,0,0,1-2.19-4.38,5.66,5.66,0,0,1,2.19-4.41L198.92,62a4.31,4.31,0,0,1,2.72-1A4.4,4.4,0,0,1,206,65.32l0.15,11.6H225.7a7,7,0,0,1,0,14H206.37l0.14,10.54a4.32,4.32,0,0,1-1.25,3.12A4.43,4.43,0,0,1,202.12,105.89Z" transform="translate(-1.42 -5.6)"/><path class="cls-3" d="M201.64,63A2.37,2.37,0,0,1,204,65.34l0.18,13.57h21.5a5,5,0,0,1,0,10H204.34l0.17,12.57a2.37,2.37,0,0,1-2.38,2.41,2.33,2.33,0,0,1-1.47-.52L179,86.08a3.5,3.5,0,0,1,0-5.66l21.12-16.9a2.34,2.34,0,0,1,1.47-.52m0-4a6.3,6.3,0,0,0-4,1.4L176.55,77.3a7.49,7.49,0,0,0,0,11.91l21.61,17.28a6.3,6.3,0,0,0,4,1.4,6.45,6.45,0,0,0,4.56-1.91,6.31,6.31,0,0,0,1.82-4.55l-0.11-8.51H225.7a9,9,0,0,0,0-18H208.15L208,65.29A6.41,6.41,0,0,0,201.64,59h0Z" transform="translate(-1.42 -5.6)"/><path class="cls-19" d="M263.73,144a4.4,4.4,0,0,1-4.38-4.32l-0.16-11.6H239.67a7,7,0,0,1,0-14H259l-0.14-10.54a4.33,4.33,0,0,1,1.25-3.12,4.44,4.44,0,0,1,3.14-1.31,4.31,4.31,0,0,1,2.72,1l21.61,17.29a5.55,5.55,0,0,1,2.19,4.37,5.66,5.66,0,0,1-2.19,4.41L266.45,143a4.32,4.32,0,0,1-2.72,1h0Z" transform="translate(-1.42 -5.6)"/><path class="cls-3" d="M263.25,101.11a2.34,2.34,0,0,1,1.47.52l21.61,17.28a3.5,3.5,0,0,1,0,5.66l-21.12,16.9a2.34,2.34,0,0,1-1.47.52,2.37,2.37,0,0,1-2.38-2.34l-0.18-13.57h-21.5a5,5,0,0,1,0-10H261l-0.17-12.57a2.37,2.37,0,0,1,2.38-2.41m0-4A6.45,6.45,0,0,0,258.69,99a6.31,6.31,0,0,0-1.82,4.55l0.11,8.51H239.67a9,9,0,1,0,0,18h17.55l0.13,9.62a6.41,6.41,0,0,0,6.38,6.29,6.3,6.3,0,0,0,4-1.4l21.12-16.9a7.49,7.49,0,0,0,0-11.91L267.22,98.51a6.3,6.3,0,0,0-4-1.4h0Z" transform="translate(-1.42 -5.6)"/></g></g></svg>