<svg id="Layer_1" data-name="Layer 1" xmlns="http://www.w3.org/2000/svg" viewBox="0 0 163.48 163.48"><defs><style>.cls-1{fill:#8080e5;}.cls-1,.cls-2,.cls-3,.cls-4{stroke:#52306c;stroke-linejoin:round;stroke-width:2px;}.cls-2{fill:#ccadd2;}.cls-3{fill:#2ab0f6;}.cls-4{fill:#e5e9ea;}.cls-5{fill:#3ccb5a;}.cls-6{fill:#52306c;}.cls-7{fill:#105b1c;}</style></defs><title>takeaway-puzzle</title><path class="cls-1" d="M73.9,5.11a11.47,11.47,0,0,1,16.19,0l33.22,33.22L110.07,51.58a10.85,10.85,0,0,0-1.73-2.25A11,11,0,1,0,95.06,66.58L82,79.64,64.14,61.78,63.36,65.4A6.93,6.93,0,1,1,51.69,59a7,7,0,0,1,3.43-1.87l3.62-.78L40.69,38.33Z" transform="translate(-0.26 -0.76)"/><path class="cls-2" d="M126.17,123.81l-13.25-13.25a11,11,0,1,0-15-15L84.86,82.5l17.86-17.86-3.62-.78A6.85,6.85,0,0,1,95.67,62a6.93,6.93,0,1,1,9.8-9.8,6.84,6.84,0,0,1,1.87,3.43l0.78,3.62,18.05-18.05L159.39,74.4a11.46,11.46,0,0,1,0,16.19Z" transform="translate(-0.26 -0.76)"/><path class="cls-3" d="M55.88,105.76L37.83,123.81,4.61,90.6a11.47,11.47,0,0,1,0-16.19L37.83,41.18,51.09,54.44a11,11,0,1,0,15,15L79.14,82.5,61.28,100.36l3.63,0.79A6.83,6.83,0,0,1,68.33,103a6.93,6.93,0,1,1-9.8,9.8,6.82,6.82,0,0,1-1.86-3.42Z" transform="translate(-0.26 -0.76)"/><path class="cls-4" d="M90.1,159.89a11.46,11.46,0,0,1-16.19,0L40.69,126.67l13.25-13.25a11,11,0,1,0,15-15L82,85.36l17.86,17.86,0.78-3.62a7,7,0,0,1,1.87-3.43,6.93,6.93,0,1,1,6.37,11.67l-3.62.78,18.05,18.05Z" transform="translate(-0.26 -0.76)"/><path class="cls-5" d="M130.76,158.89A27.88,27.88,0,1,1,158.64,131,27.92,27.92,0,0,1,130.76,158.89Z" transform="translate(-0.26 -0.76)"/><path class="cls-6" d="M130.76,104.12A26.88,26.88,0,1,1,103.87,131a26.91,26.91,0,0,1,26.88-26.88m0-2A28.88,28.88,0,1,0,159.64,131a28.88,28.88,0,0,0-28.88-28.88h0Z" transform="translate(-0.26 -0.76)"/><path class="cls-7" d="M115.81,133a0.58,0.58,0,0,0-.61.55h0a0.76,0.76,0,0,0,.14.42l9.22,10.82a0.76,0.76,0,0,0,.42.24h0.09a0.47,0.47,0,0,0,.38-0.24l20.7-26.53a0.58,0.58,0,0,0-.85-0.8L125.36,136a0.94,0.94,0,0,1-.94.19L116,133A0.23,0.23,0,0,0,115.81,133Z" transform="translate(-0.26 -0.76)"/></svg>