<svg id="Layer_1" data-name="Layer 1" xmlns="http://www.w3.org/2000/svg" viewBox="0 0 380 200"><defs><style>.cls-1{fill:#fafafa;}.cls-2{fill:#8080e5;}.cls-2,.cls-3,.cls-4,.cls-5{stroke:#52306c;stroke-linejoin:round;stroke-width:2px;}.cls-3{fill:#ccadd2;}.cls-4{fill:#2ab0f6;}.cls-5{fill:#e5e9ea;}.cls-6{fill:#3ccb5a;}.cls-7{fill:#52306c;}.cls-8{fill:#105b1c;}</style></defs><title>takeaway-puzzle</title><rect class="cls-1" width="380" height="200"/><path class="cls-2" d="M184.64,22.35a11.47,11.47,0,0,1,16.19,0l33.22,33.22L220.81,68.82a10.85,10.85,0,0,0-1.73-2.25A11,11,0,1,0,205.8,83.82L192.74,96.88,174.88,79l-0.78,3.62a6.93,6.93,0,1,1-11.67-6.4,7,7,0,0,1,3.43-1.87l3.62-.78-18-18Z"/><path class="cls-3" d="M236.91,141L223.66,127.8a11,11,0,1,0-15-15L195.6,99.74l17.86-17.86-3.62-.78a6.85,6.85,0,0,1-3.43-1.86,6.93,6.93,0,0,1,9.7-9.9l0.1,0.1a6.84,6.84,0,0,1,1.87,3.43l0.78,3.62,18-18,33.22,33.2a11.46,11.46,0,0,1,0,16.19Z"/><path class="cls-4" d="M166.62,123l-18,18-33.22-33.21a11.47,11.47,0,0,1,0-16.19l33.22-33.23,13.26,13.26a11,11,0,1,0,15,15l13.05,13.06L172,117.6l3.63,0.79a6.83,6.83,0,0,1,3.42,1.85,6.93,6.93,0,1,1-9.7,9.9l-0.1-.1a6.82,6.82,0,0,1-1.86-3.42Z"/><path class="cls-5" d="M200.84,177.13a11.46,11.46,0,0,1-16.19,0l-33.22-33.22,13.25-13.25a11,11,0,1,0,15-15l13.06-13.06,17.86,17.86,0.78-3.62a7,7,0,0,1,1.87-3.43,6.93,6.93,0,1,1,6.37,11.67l-3.62.78,18,18.05Z"/><path class="cls-6" d="M241.5,176.13a27.88,27.88,0,1,1,27.88-27.89A27.88,27.88,0,0,1,241.5,176.13Z"/><path class="cls-7" d="M241.5,121.36a26.88,26.88,0,1,1-26.89,26.88,26.88,26.88,0,0,1,26.89-26.88m0-2a28.88,28.88,0,1,0,28.89,28.88,28.88,28.88,0,0,0-28.89-28.88h0Z"/><path class="cls-8" d="M226.55,150.24a0.58,0.58,0,0,0-.61.55h0a0.76,0.76,0,0,0,.14.42L235.3,162a0.76,0.76,0,0,0,.42.24h0.09a0.47,0.47,0,0,0,.38-0.24l20.7-26.53a0.58,0.58,0,0,0-.85-0.8L236.1,153.24a0.94,0.94,0,0,1-.94.19l-8.42-3.19A0.23,0.23,0,0,0,226.55,150.24Z"/></svg>