<?xml version="1.0" encoding="utf-8"?>
<!-- Generator: Adobe Illustrator 19.2.1, SVG Export Plug-In . SVG Version: 6.00 Build 0)  -->
<svg version="1.1" id="Layer_1" xmlns="http://www.w3.org/2000/svg" xmlns:xlink="http://www.w3.org/1999/xlink" x="0px" y="0px"
	 viewBox="0 0 142.4 163.2" style="enable-background:new 0 0 142.4 163.2;" xml:space="preserve">
<style type="text/css">
	.st0{fill:#FFE2C0;}
	.st1{fill:none;stroke:#52306C;stroke-miterlimit:10;}
	.st2{fill:#738EE5;stroke:#52306C;stroke-miterlimit:10;}
	.st3{fill:#BF977B;stroke:#52306C;stroke-miterlimit:10;}
	.st4{fill:#BF977B;}
	.st5{fill:#52306C;}
	.st6{opacity:0.5;fill:none;stroke:#A47CCE;stroke-linecap:round;stroke-miterlimit:10;enable-background:new    ;}
	.st7{fill:#CCADD2;stroke:#52306C;stroke-width:2;stroke-linecap:round;stroke-linejoin:round;}
	.st8{fill:#FFFFFF;stroke:#52306C;stroke-miterlimit:10;}
	.st9{fill:#FFE2C0;stroke:#52306C;stroke-linejoin:round;}
	.st10{fill:none;stroke:#52306C;stroke-width:2;stroke-miterlimit:10;}
	.st11{fill:#0CA6F2;}
	.st12{fill:#F5A11B;stroke:#52306C;stroke-linecap:round;stroke-linejoin:round;}
	.st13{fill:#738EE5;stroke:#52306C;stroke-width:2;stroke-linecap:round;stroke-linejoin:round;}
	.st14{fill:#CCADD2;}
	.st15{fill:#738EE5;}
	.st16{clip-path:url(#SVGID_2_);}
</style>
<title>team-knowledge</title>
<circle id="SVGID" class="st0" cx="26.1" cy="123.8" r="25.2"/>
<circle id="SVGID-2" class="st1" cx="26.1" cy="123.8" r="25.2"/>
<path class="st1" d="M16.1,136.8c-0.6,3.1,4.2,6.2,10.2,6.2s10.7-3.2,10.2-6.2"/>
<path class="st2" d="M26.2,135.8c-8,0-15.1,1.4-19.1,4.3C16,150.7,31.8,152,42.4,143c1.1-0.9,2-1.9,2.9-2.9
	C41.3,137.2,34.2,135.8,26.2,135.8z"/>
<path class="st1" d="M19.3,135.8v3.2c0,2.7,3,4.4,6.8,4.4l0,0c3.8,0,6.8-1.7,6.8-4.4v-3.3"/>
<path class="st3" d="M30,133.6h-7.8v3.9c0,2.1,1.7,2.6,3.9,2.6l0,0c2.1,0,3.9-0.4,3.9-2.6L30,133.6L30,133.6L30,133.6z"/>
<path class="st4" d="M26.2,135.5c-6.3,0-11.2-4.9-13-10h-0.4c-1.6-0.1-2.8-1.4-2.9-3c-0.2-1.8,0.9-3.6,2.4-3.8
	c0.1-0.1,0.2-0.2,0.3-0.2h0.1c1.3-7.5,8.3-12.5,15.8-11.2c5.8,1,10.4,5.6,11.3,11.5c0.1,0,0.1,0.1,0.1,0.1c1.7,0.3,2.8,2,2.4,3.7
	c-0.1,1.6-1.3,2.9-2.9,3.1h-0.2C37.4,130.6,32.5,135.5,26.2,135.5z"/>
<path class="st5" d="M26.2,107.7c6.7,0,12.3,5,13.3,11.6h0.4c1.5,0.3,2.5,1.7,2.2,3.2c0,0,0,0,0,0c-0.1,1.4-1.2,2.6-2.6,2.7h-0.2
	c-0.1,0-0.2,0-0.2-0.1c-1.7,5.4-6.8,10-12.8,10s-11-4.6-12.8-10.1c-0.1,0.1-0.3,0.1-0.4,0.1h-0.2c-1.4-0.1-2.5-1.3-2.6-2.7
	c-0.3-1.5,0.6-2.9,2.1-3.3c0,0,0,0,0,0h0.5C13.9,112.6,19.5,107.7,26.2,107.7 M26.2,107c-6.8,0-12.6,4.9-13.8,11.6h-0.1
	c-0.9,0.1-1.7,0.6-2.1,1.4c-0.5,0.8-0.7,1.7-0.6,2.6c0.1,1.8,1.5,3.2,3.3,3.3h0.1c2.1,5.8,7.6,9.9,13.2,9.9s11.1-4.2,13.3-9.9
	c1.8-0.1,3.2-1.6,3.3-3.3c0.3-1.8-0.9-3.5-2.6-4C38.8,111.9,33,107,26.2,107L26.2,107L26.2,107z"/>
<path class="st5" d="M34.6,114.2l2,4.6c0.1,0.3,0.3,0.5,0.5,0.6l2.4,0.7c-0.5-7.5-7-13.1-14.5-12.6c-6.8,0.5-12.2,5.9-12.6,12.7
	l2.7-0.7c0.3-0.1,0.5-0.3,0.5-0.6l2-4.6"/>
<g id="a">
	<path class="st5" d="M30.1,123.5c0.5-0.1,1,0,1.4,0.2c0.8,0.2,1.2,0,1.3-0.6c-0.1-0.5-0.5-0.9-1-1c-1.1-0.2-2.1-0.2-3.2-0.1
		c-0.5,0.1-0.9,0.5-0.9,1c-0.1,0.4,0.1,0.6,0.6,0.7C28.9,123.7,29.5,123.6,30.1,123.5 M23,128c-0.7-0.3-0.9-0.3-0.7,0.3
		c0.5,0.9,1.2,1.6,2,2.1c1.1,0.6,2.5,0.5,3.5-0.3c0.7-0.6,1.3-1.3,1.7-2.1c0.1-0.5-0.1-0.5-0.7-0.1c-0.9,0.7-2.1,1-3.2,0.8
		C24.7,128.7,23.8,128.5,23,128 M22.3,120.3c-0.4,0-0.8,0.3-1,0.6c-0.6,0.9-0.6,2,0,2.9c0.2,0.4,0.6,0.6,1,0.6c0.4,0,0.8-0.2,1-0.6
		c0.6-0.9,0.6-2,0-2.9C23.1,120.5,22.7,120.3,22.3,120.3 M22,116.6c0.2-0.3,0.1-0.5-0.4-0.7c-0.2-0.1-0.4-0.1-0.6,0
		c-0.1,0-0.1,0-0.1,0.1c-1.7,0.5-3,1.9-3.5,3.6c-0.1,0.2-0.1,0.4,0,0.6c0.1,0.4,0.4,0.4,0.7,0.1c0.5-0.8,1.1-1.5,1.7-2.2
		c0.4-0.5,1-0.8,1.6-1c0.1,0,0.1-0.1,0.1-0.1C21.8,116.9,21.9,116.8,22,116.6 M34,121c0.9,0.3,1,0.1,0.5-0.6c-0.8-0.8-1.9-1.4-3-1.5
		c-0.9-0.1-1.8,0.1-2.6,0.6c-0.6,0.6-0.4,0.9,0.4,0.8c1.2-0.2,2.3-0.1,3.5,0.2L34,121z"/>
</g>
<line class="st1" x1="11.4" y1="137.8" x2="11.4" y2="144"/>
<line class="st1" x1="41.2" y1="137.8" x2="41.2" y2="144"/>
<path class="st6" d="M16.4,113.7l-0.7,0.9"/>
<path class="st6" d="M24.2,108.9c-2.3,0.4-4.5,1.4-6.2,3"/>
<circle id="SVGID-3" class="st7" cx="116.2" cy="122.9" r="25.2"/>
<circle id="SVGID-4" class="st1" cx="116.2" cy="122.9" r="25.2"/>
<path class="st1" d="M106.2,135.9c-0.6,3.1,4.2,6.2,10.2,6.2s10.7-3.2,10.2-6.2"/>
<path class="st8" d="M116.2,134.9c-8,0-15.1,1.4-19.1,4.3c8.9,10.6,24.8,11.9,35.3,2.9c1.1-0.9,2-1.9,2.9-2.9
	C131.4,136.3,124.3,134.9,116.2,134.9z"/>
<path class="st1" d="M109.4,134.9v3.3c0,2.7,3,4.4,6.8,4.4l0,0c3.8,0,6.8-1.7,6.8-4.4v-3.3"/>
<path class="st9" d="M120.2,132.7h-7.8v3.9c0,2.1,1.7,2.6,3.9,2.6l0,0c2.2,0,3.9-0.4,3.9-2.6L120.2,132.7L120.2,132.7L120.2,132.7z"
	/>
<path class="st9" d="M116.2,134.6c-6.3,0-11.2-4.9-13-10h-0.4c-1.6-0.1-2.8-1.4-2.9-3c-0.2-1.8,0.9-3.6,2.4-3.8
	c0.1-0.1,0.2-0.2,0.3-0.2h0.1c1.3-7.5,8.3-12.5,15.8-11.2c5.8,1,10.4,5.6,11.3,11.5c0.1,0,0.1,0.1,0.1,0.1c1.7,0.3,2.8,2,2.4,3.7
	c-0.1,1.6-1.3,2.9-2.9,3.1h-0.2C127.5,129.7,122.5,134.6,116.2,134.6z"/>
<path class="st5" d="M124.7,113.4l2,4.6c0.1,0.3,0.3,0.5,0.5,0.6l2.4,0.7c-0.5-7.5-7-13.1-14.5-12.6c-6.8,0.5-12.2,5.9-12.6,12.7
	l2.7-0.7c0.3-0.1,0.5-0.3,0.5-0.6l2-4.6L124.7,113.4z"/>
<line class="st1" x1="101.5" y1="136.9" x2="101.5" y2="143.2"/>
<line class="st1" x1="131.3" y1="136.9" x2="131.3" y2="143.2"/>
<path class="st6" d="M106.5,112.8l-0.7,0.9"/>
<path class="st6" d="M114.3,108.1c-2.3,0.4-4.5,1.4-6.2,3"/>
<g id="a-2">
	<path class="st5" d="M112.4,128.9c0,0.3,0.2,0.4,0.6,0.4c1.8,0.1,3.6,0,5.4-0.3c1.2,0,2.2-1,2.2-2.2c0-0.1,0-0.1,0-0.2
		c-0.1-1.3-0.5-1.3-1.1,0c-0.2,0.5-0.7,0.9-1.2,1.2c-0.5,0.2-0.9,0.3-1.3,0.4c-0.4,0.1-0.9,0.2-1.5,0.2c-0.8,0.1-1.7,0.1-2.5,0.1
		C112.6,128.5,112.4,128.6,112.4,128.9 M112.7,121.7c-1-0.2-2.1,0-3,0.5c-0.3,0.2-0.7,0.4-1,0.6c-0.2,0.3-0.1,0.4,0.5,0.2
		c1.4-0.4,2.2-0.3,2.3,0.2c0.1,0.6,0.7,1.1,1.3,1c0,0,0,0,0,0c0.6-0.1,1-0.5,1.1-1.1C114,122.4,113.5,121.8,112.7,121.7
		 M107.2,120.6c0,0.6,0.1,0.7,0.3,0.2c1-1.5,2.8-2.1,4.5-1.6c0.8,0.2,1,0.1,0.6-0.4c-0.9-0.9-2.2-1.1-3.3-0.4
		C108.2,118.8,107.5,119.6,107.2,120.6 M118.3,122.8c-0.2,0.3-0.1,0.3,0.5,0.2c1.4-0.4,2.2-0.3,2.3,0.2c0.1,0.6,0.7,1.1,1.3,1
		c0,0,0,0,0.1,0c0.6-0.1,1-0.5,1.1-1.1c0-0.7-0.5-1.3-1.2-1.4c-1-0.2-2.1,0-3,0.5C119,122.4,118.6,122.6,118.3,122.8 M124.9,120.8
		c0.3,0.4,0.4,0.3,0.3-0.2c-0.3-1-1.1-1.8-2.1-2.2c-1.1-0.6-2.4-0.4-3.3,0.4c-0.4,0.5-0.2,0.7,0.6,0.4
		C122.2,118.7,123.9,119.4,124.9,120.8L124.9,120.8z"/>
</g>
<circle id="SVGID-5" class="st1" cx="26.1" cy="123.8" r="25.2"/>
<circle id="SVGID-6" class="st10" cx="26.1" cy="123.8" r="25.2"/>
<circle id="SVGID-7" class="st11" cx="71" cy="133.1" r="29.2"/>
<path class="st12" d="M71.1,147c-9.3,0-17.5,1.6-22.2,5c10.5,12.3,28.9,13.7,41.2,3.3c1.2-1,2.3-2.1,3.3-3.3
	C88.6,148.6,80.4,147,71.1,147z"/>
<path class="st3" d="M75.6,144.4h-9v4.5c0,2.5,2,3,4.5,3l0,0c2.5,0,4.5-0.4,4.5-3L75.6,144.4L75.6,144.4z"/>
<path class="st4" d="M71.1,147.1c-7.3,0-13-5.9-15.2-11.8h-0.3c-1.9-0.1-3.4-1.7-3.5-3.6c-0.2-2.2,1.1-4.2,3-4.4h0.2
	c1.4-8.7,9.5-14.7,18.3-13.4c6.9,1.1,12.3,6.5,13.4,13.4l0,0c1.9,0.2,3.2,2.1,3,4.4c-0.1,1.9-1.6,3.5-3.5,3.6h-0.2
	C84.2,141.2,78.4,147.1,71.1,147.1z"/>
<path class="st5" d="M71.1,114.5c7.7,0,14.2,5.7,15.4,13.3H87c1.9,0.6,2.9,2.5,2.4,4.4c-0.4,1.3-1.5,2.3-2.9,2.5h-0.3
	c-0.1,0-0.2,0-0.2-0.1c-2,6.2-7.8,11.9-14.7,11.9s-12.8-5.7-14.7-11.9c-0.1,0-0.3,0.1-0.4,0.1h-0.3c-1.6-0.2-2.9-1.5-3-3.1
	c-0.2-1.9,0.9-3.6,2.5-3.7h0.6C56.8,120.2,63.4,114.4,71.1,114.5 M71.1,113.4c-7.9,0-14.7,5.7-16.2,13.5c-1.1,0.1-2,0.8-2.6,1.7
	c-0.6,0.9-0.9,2.1-0.8,3.2c0.1,2.2,1.9,4,4.1,4.1l0,0c2.2,6.4,8.1,11.8,15.5,11.8s13.2-5.8,15.5-11.8c2.1-0.2,3.7-2,3.9-4.1
	c0.2-2.4-1.1-4.5-3.1-4.9C85.9,119.1,79,113.4,71.1,113.4L71.1,113.4z"/>
<path class="st5" d="M80.8,122l2.4,5.3c0.1,0.3,0.3,0.5,0.6,0.6l2.8,0.8c-0.6-8.6-8.1-15-16.6-14.4c-7.7,0.6-13.8,6.7-14.4,14.4
	l3.1-0.8c0.3-0.1,0.5-0.3,0.6-0.6l2.4-5.3l0.5-0.8l4.3-2.3l5.8,1.8L80.8,122z"/>
<path class="st5" d="M67.8,121.4c0.8,0.2,1.5,0.5,2.2,0.8c1.7,0.7,3.6,1,5.5,0.6c0.8-0.2,1.6-0.3,2.5-0.2c1.4,0.2,2.4,1.6,3.7,1.9
	c1.5,0.2,3-0.6,3.6-2c1-1.7,1.7-3.5,2-5.4c-1.8,0.8-4.8-0.8-6.5-2c-2.5-1.7-5.5-1.1-8.4-1.5c-1.6-0.3-3.2-0.4-4.8-0.2
	c-1.7,0.1-3.2,1.1-4,2.6c-0.1-0.7-0.1-1.4,0-2.1c-0.7-0.2-1.4,0-1.8,0.6c-0.3,0.6-0.2,1.4,0.3,1.8c-0.7-0.2-1.5-0.3-2.2-0.1
	c-0.8,0.2-1.3,0.8-1.3,1.6c0.5-0.3,1.2-0.2,1.6,0.2c-1.5,0.2-2.8,1.2-3.4,2.7c-0.6,1.4-0.9,2.9-1.1,4.4c-0.1,0.8-0.2,1.6-0.4,2.5
	c-0.1-0.4,1.2,0,1.6,0s-0.1,0.1-0.1,0.5c1.4-0.1,2.2-1.6,2.7-3s0.8-2.9,1.9-3.6s2,0.1,3.2,0.2C65.7,121.8,66.7,121.2,67.8,121.4z"/>
<g id="a-3">
	<path class="st5" d="M64.2,137.3c0.3,0.5,0.8,1,1.3,1.4c0.8,0.7,1.6,1.2,2.6,1.6c1,0.4,2,0.7,3.1,0.8c1.1,0,2.1-0.3,3.1-0.8
		c0.9-0.4,1.8-0.9,2.6-1.6c0.5-0.4,0.9-0.9,1.3-1.4c0.1-0.4-0.1-0.5-0.4-0.3c-1.2,0.9-2.6,1.5-4,1.9c-0.8,0.2-1.7,0.3-2.6,0.3
		c-1.1-0.1-1.9-0.2-2.6-0.3c-1.4-0.4-2.8-1.1-4-1.9C64.1,136.8,64,136.9,64.2,137.3 M69.3,131.5c0-1-0.2-2-0.6-2.9
		c-0.3-0.7-1-1.1-1.7-1.2l0,0c-0.7,0.1-1.4,0.5-1.7,1.2c-0.5,0.9-0.7,1.9-0.6,2.9c0,0.9,0.2,1.1,0.5,0.6l0.6-0.9
		c0.2-0.5,0.7-0.7,1.2-0.6l0,0c0.5-0.1,1,0.2,1.2,0.6l0.6,0.9C69.1,132.6,69.3,132.4,69.3,131.5 M73.1,132.2l0.6-0.9
		c0.2-0.5,0.7-0.7,1.2-0.6l0,0c0.5-0.1,1,0.2,1.2,0.6l0.6,0.9c0.3,0.4,0.5,0.2,0.5-0.6c0-1-0.2-2-0.6-2.9c-0.3-0.7-1-1.1-1.7-1.2
		l0,0c-0.7,0.1-1.4,0.5-1.7,1.2c-0.5,0.9-0.7,1.9-0.6,2.9C72.8,132.4,72.9,132.6,73.1,132.2L73.1,132.2z"/>
</g>
<polyline class="st1" points="70.8,151.8 63.3,151.8 63.3,157.9 63.3,161.2 "/>
<circle class="st5" cx="67.9" cy="156.5" r="1.5"/>
<circle id="SVGID-8" class="st10" cx="71.1" cy="133.1" r="29.2"/>
<path class="st13" d="M109.7,73.6c12.7-22.3,4.8-50.7-17.5-63.3S41.6,5.4,28.9,27.8c-8.4,14.8-8,33.1,1,47.5l-2.1,7.8l-2.4,8.9
	l8.9-2.4l7-1.9c6.3,4.8,13.8,7.8,21.7,8.9l4,6.9l4.6,8l4.6-8l4.6-7.9c6.4-1.6,12.4-4.6,17.5-8.8l7.1,1.9l8.9,2.4l-2.4-8.9
	L109.7,73.6z"/>
<path class="st11" d="M70.8,74.4v-7.9H70c-1.6-0.2-2.8-1.8-2.5-3.4c0.2-1.3,1.2-2.4,2.5-2.5h0.8v-7.9h21.8v17.9
	c0,2.2-1.8,3.9-3.9,3.9l0,0L70.8,74.4L70.8,74.4z"/>
<path class="st5" d="M91.8,53.4v17.1c0,1.7-1.4,3.2-3.2,3.2l0,0H71.5v-7.9H70c-1.2-0.1-2.1-1.1-2.1-2.4c0.1-1.1,1-2,2.1-2.1h1.5
	v-7.9H91.8 M93.3,51.9H70v7.9c-2.1,0-3.7,1.7-3.7,3.7c0,2.1,1.7,3.7,3.7,3.7v7.9h18.6c2.6,0,4.7-2.1,4.7-4.7l0,0L93.3,51.9
	L93.3,51.9L93.3,51.9z"/>
<path class="st14" d="M81.7,56.3c-1.7,0-3-1.3-3-3v-0.7h-7.9V30.8h17.9c2.2,0,3.9,1.8,3.9,3.9v0l0,0v17.9h-7.9v0.8
	C84.6,55,83.3,56.3,81.7,56.3z"/>
<path class="st5" d="M88.7,31.5c1.7,0,3.2,1.4,3.2,3.2v0l0,0v17.1h-7.9v1.5c-0.1,1.2-1.1,2.1-2.4,2.1c-1.1-0.1-2-1-2.1-2.1v-1.5
	h-7.9V31.5H88.7 M88.7,30H70v23.3h7.9c0,2.1,1.7,3.7,3.7,3.7s3.7-1.7,3.7-3.7h7.9V34.7C93.3,32.1,91.3,30,88.7,30
	C88.7,30,88.7,30,88.7,30L88.7,30L88.7,30z"/>
<path class="st15" d="M49,52.6V34.7c0-2.2,1.8-3.9,3.9-3.9l0,0h17.9v7.9h0.8c1.6-0.3,3.2,0.8,3.4,2.5c0.3,1.6-0.8,3.2-2.5,3.4
	c-0.3,0-0.6,0.1-0.8,0h-0.9v7.9C70.8,52.6,49,52.6,49,52.6z"/>
<path class="st5" d="M70,31.5v7.9h1.5c1.2,0.1,2.1,1.1,2.1,2.4c-0.1,1.1-1,2-2.1,2.1H70v7.9H49.7V34.7c0-1.7,1.4-3.2,3.2-3.2l0,0
	L70,31.5 M71.5,30H52.9c-2.6,0-4.7,2.1-4.7,4.7v0v18.6h23.3v-7.9c2.1,0,3.7-1.7,3.7-3.7c0-2.1-1.7-3.7-3.7-3.7L71.5,30L71.5,30
	L71.5,30z"/>
<path class="st0" d="M52.9,74.4c-2.2,0-3.9-1.8-3.9-3.9v0l0,0V52.6h7.9v-0.8c0.2-1.6,1.8-2.8,3.4-2.5c1.3,0.2,2.4,1.2,2.5,2.5v0.8
	h7.9v21.8L52.9,74.4L52.9,74.4z"/>
<path class="st5" d="M59.9,49.7c1.2,0,2.2,1,2.2,2.2c0,0,0,0,0,0v1.5H70v20.3H52.9c-1.7,0-3.2-1.4-3.2-3.2v0l0,0V53.4h7.9v-1.5
	C57.6,50.7,58.6,49.7,59.9,49.7L59.9,49.7 M59.9,48.2c-2,0-3.7,1.7-3.7,3.7h-7.9v18.6c0,2.6,2.1,4.7,4.7,4.7h18.6V51.9h-7.9
	C63.6,49.8,61.9,48.2,59.9,48.2L59.9,48.2L59.9,48.2L59.9,48.2z"/>
<g>
	<defs>
		<rect id="SVGID_1_" x="66.3" y="51.9" width="7.5" height="23.3"/>
	</defs>
	<clipPath id="SVGID_2_">
		<use xlink:href="#SVGID_1_"  style="overflow:visible;"/>
	</clipPath>
	<g class="st16">
		<path class="st11" d="M70.8,74.4v-7.9H70c-1.6,0.3-3.2-0.8-3.4-2.5c-0.3-1.6,0.8-3.2,2.5-3.4c0.3,0,0.6-0.1,0.8,0h0.9v-7.9h21.8
			v17.9c0,2.2-1.8,3.9-3.9,3.9l0,0L70.8,74.4L70.8,74.4z"/>
		<path class="st5" d="M91.8,53.4v17.1c0,1.7-1.4,3.2-3.2,3.2l0,0H71.5v-7.9H70c-1.2-0.1-2.1-1.1-2.1-2.4c0.1-1.1,1-2,2.1-2.1h1.5
			v-7.9H91.8 M93.3,51.9H70v7.9c-2.1,0-3.7,1.7-3.7,3.7c0,2.1,1.7,3.7,3.7,3.7v7.9h18.6c2.6,0,4.7-2.1,4.7-4.7l0,0V51.9L93.3,51.9z"
			/>
	</g>
</g>
<path class="st7" d="M189.2,97.8"/>
</svg>
