<svg id="Layer_1" data-name="Layer 1" xmlns="http://www.w3.org/2000/svg" xmlns:xlink="http://www.w3.org/1999/xlink" viewBox="0 0 550.25 163.23"><defs><style>.cls-1,.cls-12,.cls-15,.cls-6,.cls-8{fill:none;}.cls-2{fill:#dbdbdb;}.cls-22,.cls-3{fill:#ccadd2;}.cls-10,.cls-13,.cls-14,.cls-15,.cls-16,.cls-20,.cls-21,.cls-3,.cls-5,.cls-8,.cls-9{stroke:#52306c;}.cls-12,.cls-16,.cls-20,.cls-21,.cls-3,.cls-6{stroke-linecap:round;}.cls-14,.cls-16,.cls-20,.cls-21,.cls-3{stroke-linejoin:round;}.cls-15,.cls-16,.cls-21,.cls-3,.cls-5{stroke-width:2px;}.cls-4{fill:#52306c;}.cls-14,.cls-5,.cls-7{fill:#ffe2c0;}.cls-10,.cls-12,.cls-13,.cls-15,.cls-5,.cls-6,.cls-8,.cls-9{stroke-miterlimit:10;}.cls-6{stroke:#dbdbdb;stroke-width:4px;}.cls-21,.cls-23,.cls-9{fill:#738ee5;}.cls-10,.cls-11{fill:#bf977b;}.cls-12{stroke:#a47cce;opacity:0.5;isolation:isolate;}.cls-13{fill:#fff;}.cls-16,.cls-19{fill:#0ca6f2;}.cls-17{fill:#48cbff;}.cls-18{fill:#0083c4;}.cls-20{fill:#f5a11b;}.cls-24{clip-path:url(#clip-path);}</style><clipPath id="clip-path"><rect class="cls-1" x="474.12" y="51.88" width="7.47" height="23.25"/></clipPath></defs><title>team-knowledge</title><path class="cls-2" d="M236,59.19a3.25,3.25,0,0,1,2.19.91l23.1,23.1a2.88,2.88,0,0,1,.91,2.19v60.45a5.36,5.36,0,0,1-5.35,5.35h-63.3a2,2,0,0,0-.66.11,5.36,5.36,0,0,1-4.69-5.31V64.53a5.36,5.36,0,0,1,5.35-5.35H236m0-2H193.51a7.36,7.36,0,0,0-7.35,7.35V146a7.36,7.36,0,0,0,7.35,7.35v-0.15h63.3a7.36,7.36,0,0,0,7.35-7.35V85.38a4.88,4.88,0,0,0-1.5-3.6l-23.1-23.1a5.24,5.24,0,0,0-3.6-1.5h0Z"/><path class="cls-3" d="M213.51,133.34a7.36,7.36,0,0,1-7.35-7.35V44.54a7.36,7.36,0,0,1,7.35-7.35H256a5.24,5.24,0,0,1,3.6,1.5l23.1,23.1a4.88,4.88,0,0,1,1.5,3.6v60.45a7.36,7.36,0,0,1-7.35,7.35Z"/><path class="cls-4" d="M256.56,37.34v24.3A3.49,3.49,0,0,0,260,65.09h24.9"/><path class="cls-5" d="M243.51,103.34A7.36,7.36,0,0,1,236.16,96V14.54a7.36,7.36,0,0,1,7.35-7.35H286a5.24,5.24,0,0,1,3.6,1.5l23.1,23.1a4.88,4.88,0,0,1,1.5,3.6V95.84a7.36,7.36,0,0,1-7.35,7.35Z"/><path class="cls-4" d="M286.56,7V31.63A3.49,3.49,0,0,0,290,35.09h24.9"/><path class="cls-6" d="M206.16,26V14.54a7.36,7.36,0,0,1,7.35-7.35H226"/><path class="cls-2" d="M221.3,13.86a0.85,0.85,0,0,0,1.39.65l7.6-6.08a1.26,1.26,0,0,0,0-2l-7.77-6.22a0.85,0.85,0,0,0-1.39.68Z"/><path class="cls-6" d="M312.66,115.23v11.45a7.36,7.36,0,0,1-7.35,7.35H292.86"/><path class="cls-2" d="M297.51,127.35a0.85,0.85,0,0,0-1.39-.65l-7.6,6.08a1.26,1.26,0,0,0,0,2L296.3,141a0.85,0.85,0,0,0,1.39-.68Z"/><circle id="SVGID" class="cls-7" cx="433.98" cy="123.78" r="25.18"/><circle id="SVGID-2" data-name="SVGID" class="cls-8" cx="433.98" cy="123.78" r="25.18"/><path class="cls-8" d="M423.92,136.75c-0.62,3.12,4.16,6.17,10.2,6.17s10.68-3.19,10.2-6.24"/><path class="cls-9" d="M434,135.78c-8,0-15.12,1.39-19.15,4.3a25.08,25.08,0,0,0,38.29,0C449.11,137.17,442,135.78,434,135.78Z"/><path class="cls-8" d="M427.18,135.78V139c0,2.71,3.05,4.44,6.8,4.44h0c3.75,0,6.8-1.73,6.8-4.44v-3.26"/><path class="cls-10" d="M437.87,133.56H430.1v3.88c0,2.15,1.73,2.57,3.88,2.57h0c2.15,0,3.88-.42,3.88-2.57v-3.88h0Z"/><path class="cls-11" d="M434,135.5c-6.31,0-11.24-4.93-13-10h-0.42a3.14,3.14,0,0,1-2.91-3c-0.21-1.8.9-3.61,2.43-3.82a1,1,0,0,1,.28-0.21h0.07a13.7,13.7,0,0,1,27.06.28c0.07,0,.07.07,0.14,0.07a3.12,3.12,0,0,1,2.43,3.68,3.21,3.21,0,0,1-2.91,3.05H447C445.22,130.58,440.3,135.5,434,135.5Z"/><path class="cls-4" d="M434,107.68a13.4,13.4,0,0,1,13.25,11.59h0.35a2.74,2.74,0,0,1,2.15,3.26,2.89,2.89,0,0,1-2.57,2.71H447a0.25,0.25,0,0,1-.21-0.07c-1.73,5.41-6.8,10-12.76,10s-11-4.65-12.76-10.06a0.88,0.88,0,0,1-.42.07h-0.21a2.84,2.84,0,0,1-2.57-2.71,2.74,2.74,0,0,1,2.15-3.26h0.55A13.39,13.39,0,0,1,434,107.68m0-.69a14.06,14.06,0,0,0-13.81,11.59h-0.07A2.68,2.68,0,0,0,418,120a4.27,4.27,0,0,0-.62,2.64,3.51,3.51,0,0,0,3.26,3.33h0.14c2.08,5.76,7.56,9.92,13.25,9.92s11.1-4.16,13.25-9.92a3.51,3.51,0,0,0,3.26-3.33,3.57,3.57,0,0,0-2.64-4A14.19,14.19,0,0,0,434,107h0Z"/><path class="cls-4" d="M442.45,114.21l2,4.58a0.75,0.75,0,0,0,.55.55l2.43,0.69a13.56,13.56,0,0,0-27.06.07l2.71-.69a0.75,0.75,0,0,0,.55-0.55l2-4.58"/><g id="a"><path class="cls-4" d="M437.94,123.5a2.19,2.19,0,0,1,1.39.21q1.14,0.31,1.25-.62a1.25,1.25,0,0,0-1-1,9.86,9.86,0,0,0-3.19-.07,1.11,1.11,0,0,0-.9,1c-0.07.42,0.14,0.62,0.62,0.69a4.88,4.88,0,0,0,1.8-.28m-7.08,4.58c-0.69-.35-0.9-0.28-0.69.28a5.9,5.9,0,0,0,2,2.15,3.16,3.16,0,0,0,3.54-.28,5.18,5.18,0,0,0,1.66-2.15c0.07-.49-0.14-0.49-0.69-0.14a4.39,4.39,0,0,1-3.19.83,5.17,5.17,0,0,1-2.64-.69m-0.69-7.7a1.22,1.22,0,0,0-1,.62,2.76,2.76,0,0,0,0,2.91,1.22,1.22,0,0,0,1,.62,1,1,0,0,0,1-.62,2.76,2.76,0,0,0,0-2.91,1,1,0,0,0-1-.62m-0.28-3.75c0.21-.28.07-0.49-0.35-0.69a1,1,0,0,0-.62,0,0.24,0.24,0,0,0-.14.07,5.32,5.32,0,0,0-3.47,3.61,0.77,0.77,0,0,0,0,.55c0.14,0.42.35,0.42,0.69,0.07a9.44,9.44,0,0,1,1.73-2.15,3.9,3.9,0,0,1,1.6-1c0.07,0,.07-0.07.14-0.07a1.1,1.1,0,0,0,.42-0.35M441.82,121c0.9,0.35,1,.14.49-0.62a5,5,0,0,0-3-1.53,4.16,4.16,0,0,0-2.57.55q-0.83.94,0.42,0.83a7.2,7.2,0,0,1,3.47.21Z"/></g><line class="cls-8" x1="419.21" y1="137.79" x2="419.21" y2="144.04"/><line class="cls-8" x1="449.04" y1="137.79" x2="449.04" y2="144.04"/><path class="cls-12" d="M424.2,113.65l-0.69.9"/><path class="cls-12" d="M432,108.93a11.87,11.87,0,0,0-6.21,3"/><circle id="SVGID-3" data-name="SVGID" class="cls-3" cx="524.07" cy="122.93" r="25.18"/><circle id="SVGID-4" data-name="SVGID" class="cls-8" cx="524.07" cy="122.93" r="25.18"/><path class="cls-8" d="M514,135.9c-0.62,3.12,4.16,6.17,10.2,6.17s10.68-3.19,10.2-6.24"/><path class="cls-13" d="M524.07,134.93c-8,0-15.12,1.39-19.15,4.3a25.08,25.08,0,0,0,38.29,0C539.19,136.32,532.11,134.93,524.07,134.93Z"/><path class="cls-8" d="M517.27,134.93v3.26c0,2.71,3.05,4.44,6.8,4.44h0c3.75,0,6.8-1.73,6.8-4.44v-3.26"/><path class="cls-14" d="M528,132.71h-7.77v3.88c0,2.15,1.73,2.57,3.88,2.57h0c2.15,0,3.88-.42,3.88-2.57v-3.88h0Z"/><path class="cls-14" d="M524.07,134.65c-6.31,0-11.24-4.93-13-10h-0.42a3.14,3.14,0,0,1-2.91-3c-0.21-1.8.9-3.61,2.43-3.82a1,1,0,0,1,.28-0.21h0.07a13.7,13.7,0,0,1,27.06.28c0.07,0,.07.07,0.14,0.07a3.12,3.12,0,0,1,2.43,3.68,3.21,3.21,0,0,1-2.91,3.05H537C535.31,129.73,530.38,134.65,524.07,134.65Z"/><path class="cls-4" d="M532.53,113.36l2,4.58a0.75,0.75,0,0,0,.55.55l2.43,0.69a13.56,13.56,0,0,0-27.06.07l2.71-.69a0.75,0.75,0,0,0,.55-0.55l2-4.58Z"/><line class="cls-8" x1="509.29" y1="136.94" x2="509.29" y2="143.19"/><line class="cls-8" x1="539.12" y1="136.94" x2="539.12" y2="143.19"/><path class="cls-12" d="M514.29,112.8l-0.69.9"/><path class="cls-12" d="M522.12,108.08a11.87,11.87,0,0,0-6.21,3"/><g id="a-2" data-name="a"><path class="cls-4" d="M520.27,128.87q0,0.44.64,0.45a21.06,21.06,0,0,0,5.41-.29,2.17,2.17,0,0,0,2.16-2.36q-0.16-1.89-1.14,0a2.47,2.47,0,0,1-1.16,1.15q-0.69.25-1.27,0.41t-1.51.25a20.24,20.24,0,0,1-2.48.05q-0.66-.1-0.66.33m0.32-7.19a4.35,4.35,0,0,0-3,.53,7.33,7.33,0,0,0-1,.62q-0.36.41,0.49,0.23,2.1-.6,2.3.21a1.15,1.15,0,0,0,1.34.95,1.23,1.23,0,0,0,1.06-1.1,1.4,1.4,0,0,0-1.16-1.44M515,120.6q-0.05.86,0.33,0.23a3.92,3.92,0,0,1,4.45-1.6q1.16,0.36.58-.45a2.71,2.71,0,0,0-3.3-.45A3.69,3.69,0,0,0,515,120.6m11.13,2.23q-0.36.41,0.48,0.23,2.11-.6,2.3.21a1.14,1.14,0,0,0,1.36.95,1.26,1.26,0,0,0,1.06-1.1,1.42,1.42,0,0,0-1.18-1.44,4.32,4.32,0,0,0-3,.53,5.62,5.62,0,0,0-1,.62m6.63-2q0.41,0.62.34-.25a3.65,3.65,0,0,0-2.07-2.25,2.69,2.69,0,0,0-3.27.45q-0.59.81,0.56,0.45A3.9,3.9,0,0,1,532.73,120.82Z"/></g><circle id="SVGID-5" data-name="SVGID" class="cls-8" cx="433.98" cy="123.78" r="25.18"/><circle id="SVGID-6" data-name="SVGID" class="cls-15" cx="433.98" cy="123.78" r="25.18"/><path class="cls-16" d="M91.21,38.61H18.08v32H19.5A13,13,0,0,1,32.2,83.33c0.15,6.86-5.28,13.28-12.15,13.28h-2v32h32v2.83c0,6.86,6.14,12.42,13,12.42s13-5.56,13-12.42v-2.83h32V53.44C108.08,44.4,100.24,38.61,91.21,38.61Z"/><path class="cls-4" d="M118,47.61l2.93,0a3.07,3.07,0,1,0,0-6.14l-2.93,0A3.07,3.07,0,1,0,118,47.61Z"/><path class="cls-4" d="M120.79,26.41a3.07,3.07,0,0,0-4.34,0l-4.73,4.81a3.07,3.07,0,0,0,4.38,4.3l4.73-4.81A3.07,3.07,0,0,0,120.79,26.41Z"/><path class="cls-4" d="M99.66,29.26a3.07,3.07,0,1,0,6.14,0l0-2.93a3.07,3.07,0,1,0-6.14,0Z"/><path class="cls-4" d="M6,122.91l-2.93,0a3.07,3.07,0,0,0,0,6.14L6,129A3.07,3.07,0,0,0,6,122.91Z"/><path class="cls-4" d="M12.24,134.93a3.07,3.07,0,0,0-4.34,0l-4.73,4.81a3.07,3.07,0,1,0,4.38,4.3l4.73-4.81A3.07,3.07,0,0,0,12.24,134.93Z"/><path class="cls-4" d="M24.33,141.26a3.07,3.07,0,1,0-6.14,0l0,2.93a3.07,3.07,0,1,0,6.14,0Z"/><path class="cls-17" d="M64.41,86.56h35.2v3.7H64.41v-3.7Z"/><path class="cls-18" d="M29.11,50.56h27v3.7h-27v-3.7Z"/><path class="cls-18" d="M65.51,50.56h34.1v3.7H65.51v-3.7Z"/><path class="cls-18" d="M28.91,62.56H42v3.7H28.91v-3.7Z"/><path class="cls-18" d="M38.31,74.56h13.1v3.7H38.31v-3.7Z"/><path class="cls-17" d="M38.11,86.56H56.95v3.7H38.11v-3.7Z"/><path class="cls-17" d="M38.11,99.26h22.1v3H38.11v-3Z"/><path class="cls-18" d="M29.11,111.26h12.8v3H29.11v-3Z"/><path class="cls-18" d="M51.61,111.26H100v3H51.61v-3Z"/><path class="cls-18" d="M67.11,99.26h30v3h-30v-3Z"/><circle id="SVGID-7" data-name="SVGID" class="cls-19" cx="478.82" cy="133.06" r="29.16"/><path class="cls-20" d="M478.92,147c-9.29,0-17.52,1.6-22.22,5a29.2,29.2,0,0,0,44.44,0C496.44,148.55,488.22,147,478.92,147Z"/><path class="cls-10" d="M483.41,144.39h-9v4.49c0,2.46,2,3,4.49,3h0c2.46,0,4.49-.43,4.49-3v-4.49Z"/><path class="cls-11" d="M478.92,147.06c-7.26,0-13-5.88-15.17-11.75h-0.32a3.81,3.81,0,0,1-3.53-3.63c-0.21-2.24,1.07-4.17,3-4.38h0.21a16,16,0,0,1,31.62,0h0c1.92,0.21,3.2,2.14,3,4.38a3.81,3.81,0,0,1-3.53,3.63H494C492,141.18,486.19,147.06,478.92,147.06Z"/><path class="cls-4" d="M478.92,114.48a15.64,15.64,0,0,1,15.38,13.35h0.53a3.51,3.51,0,0,1-.53,6.84H494c-0.11,0-.21,0-0.21-0.11-2,6.2-7.8,11.86-14.74,11.86s-12.82-5.66-14.74-11.86c-0.11,0-.32.11-0.43,0.11h-0.32a3.32,3.32,0,0,1-3-3.1c-0.21-1.92.85-3.63,2.46-3.74h0.64a15.27,15.27,0,0,1,15.28-13.35m0-1.07a16.58,16.58,0,0,0-16.24,13.46,3.51,3.51,0,0,0-2.56,1.71,4.79,4.79,0,0,0-.75,3.2,4.27,4.27,0,0,0,4.06,4.06h0c2.24,6.41,8.12,11.75,15.49,11.75s13.25-5.77,15.49-11.75a4.35,4.35,0,0,0,3.85-4.06c0.21-2.35-1.07-4.49-3.1-4.91a16.58,16.58,0,0,0-16.24-13.46h0Z"/><path class="cls-4" d="M488.65,122L491,127.3a1,1,0,0,0,.64.64l2.78,0.75a15.54,15.54,0,0,0-31,0l3.1-.85a1,1,0,0,0,.64-0.64l2.35-5.34,0.53-.85,4.27-2.35,5.77,1.82Z"/><path class="cls-4" d="M475.61,121.42a9.65,9.65,0,0,1,2.24.85,9.55,9.55,0,0,0,5.45.64,6.41,6.41,0,0,1,2.46-.21c1.39,0.21,2.35,1.6,3.74,1.92a3.38,3.38,0,0,0,3.63-2,16.81,16.81,0,0,0,2-5.45c-1.82.85-4.81-.85-6.52-2-2.46-1.71-5.45-1.07-8.44-1.5a18.16,18.16,0,0,0-4.81-.21,5.09,5.09,0,0,0-4,2.56,7.16,7.16,0,0,1,0-2.14,1.57,1.57,0,0,0-1.82.64,1.48,1.48,0,0,0,.32,1.82,4,4,0,0,0-2.24-.11,1.59,1.59,0,0,0-1.28,1.6,1.31,1.31,0,0,1,1.6.21,4.37,4.37,0,0,0-3.42,2.67,15.46,15.46,0,0,0-1.07,4.38,19.72,19.72,0,0,1-.43,2.46c-0.11-.43,1.18,0,1.6,0s-0.11.11-.11,0.53c1.39-.11,2.24-1.6,2.67-3s0.75-2.88,1.92-3.63,2,0.11,3.2.21S474.54,121.21,475.61,121.42Z"/><g id="a-3" data-name="a"><path class="cls-4" d="M472,137.34a4.87,4.87,0,0,0,1.28,1.39,10.68,10.68,0,0,0,2.56,1.6,8.73,8.73,0,0,0,3.1.75,6.92,6.92,0,0,0,3.1-.75,8.87,8.87,0,0,0,2.56-1.6,6.85,6.85,0,0,0,1.28-1.39c0.11-.43-0.11-0.53-0.43-0.32a13.34,13.34,0,0,1-4,1.92,9.35,9.35,0,0,1-2.56.32q-1.6-.16-2.56-0.32a14.71,14.71,0,0,1-4-1.92c-0.43-.21-0.53-0.11-0.43.32m5.23-5.88a5.77,5.77,0,0,0-.64-2.88,2.22,2.22,0,0,0-1.71-1.18h0a2.22,2.22,0,0,0-1.71,1.18,5.77,5.77,0,0,0-.64,2.88c0,0.85.21,1.07,0.53,0.64l0.64-.85a1.08,1.08,0,0,1,1.18-.64h0a1.15,1.15,0,0,1,1.18.64l0.64,0.85c0.32,0.53.53,0.32,0.53-.64m3.85,0.75,0.64-.85a1.08,1.08,0,0,1,1.18-.64h0a1.15,1.15,0,0,1,1.18.64l0.64,0.85c0.32,0.43.53,0.21,0.53-.64a5.77,5.77,0,0,0-.64-2.88,2.22,2.22,0,0,0-1.71-1.18h0a2.22,2.22,0,0,0-1.71,1.18,5.77,5.77,0,0,0-.64,2.88C480.63,132.42,480.74,132.64,481.06,132.21Z"/></g><polyline class="cls-8" points="478.6 151.76 471.13 151.76 471.13 157.85 471.13 161.16"/><circle class="cls-4" cx="475.72" cy="156.46" r="1.5"/><circle id="SVGID-8" data-name="SVGID" class="cls-15" cx="478.92" cy="133.06" r="29.16"/><path class="cls-21" d="M517.55,73.58a46.44,46.44,0,1,0-79.77,1.71l-2.1,7.85-2.39,8.92,8.92-2.39,7-1.89a46.37,46.37,0,0,0,21.69,8.91l4,6.87,4.62,8,4.62-8,4.57-7.91a46.25,46.25,0,0,0,17.51-8.75l7.15,1.91,8.92,2.39-2.39-8.92Z"/><path class="cls-19" d="M478.6,74.41V66.49h-0.75a3,3,0,0,1,0-5.94h0.75V52.63h21.79V70.51a3.91,3.91,0,0,1-3.91,3.91H478.6Z"/><path class="cls-4" d="M499.64,53.38V70.51a3.16,3.16,0,0,1-3.16,3.16H479.36V65.74h-1.5a2.22,2.22,0,0,1,0-4.43h1.5V53.38h20.29m1.5-1.5H477.85V59.8a3.72,3.72,0,0,0,0,7.44v7.92h18.63a4.66,4.66,0,0,0,4.66-4.66h0V51.88h0Z"/><path class="cls-22" d="M489.5,56.3a3,3,0,0,1-3-3V52.58H478.6V30.8h17.88a3.91,3.91,0,0,1,3.91,3.91h0V52.58h-7.92v0.75A3,3,0,0,1,489.5,56.3Z"/><path class="cls-4" d="M496.49,31.55a3.16,3.16,0,0,1,3.16,3.16h0V51.83h-7.92v1.5a2.22,2.22,0,0,1-4.43,0v-1.5h-7.93V31.55h17.13m0-1.5H477.85V53.34h7.92a3.72,3.72,0,0,0,7.44,0h7.93V34.7A4.66,4.66,0,0,0,496.49,30h0Z"/><path class="cls-23" d="M456.82,52.58V34.7a3.91,3.91,0,0,1,3.91-3.91H478.6v7.92h0.75a3,3,0,1,1,.13,5.94H478.6v7.93H456.82Z"/><path class="cls-4" d="M477.85,31.55v7.92h1.5a2.22,2.22,0,0,1,0,4.43h-1.5v7.93H457.57V34.7a3.16,3.16,0,0,1,3.16-3.16h17.13m1.5-1.5H460.72a4.66,4.66,0,0,0-4.66,4.66V53.34h23.29V45.41a3.72,3.72,0,0,0,0-7.44V30h0Z"/><path class="cls-7" d="M460.72,74.41a3.91,3.91,0,0,1-3.91-3.91h0V52.63h7.92V51.88a3,3,0,0,1,5.94,0v0.75h7.93V74.42H460.72Z"/><path class="cls-4" d="M467.71,49.66a2.22,2.22,0,0,1,2.22,2.22v1.5h7.93V73.67H460.72a3.16,3.16,0,0,1-3.16-3.16h0V53.38h7.92v-1.5a2.22,2.22,0,0,1,2.22-2.22m0-1.5A3.72,3.72,0,0,0,464,51.88h-7.92V70.51a4.66,4.66,0,0,0,4.66,4.66h18.63V51.88h-7.93a3.72,3.72,0,0,0-3.72-3.72h0Z"/><g class="cls-24"><path class="cls-19" d="M478.59,74.41V66.49h-0.75a3,3,0,1,1-.13-5.94h0.88V52.63h21.79V70.51a3.91,3.91,0,0,1-3.91,3.91H478.59Z"/><path class="cls-4" d="M499.63,53.38V70.51a3.16,3.16,0,0,1-3.16,3.16H479.34V65.74h-1.5a2.22,2.22,0,0,1,0-4.43h1.5V53.38h20.29m1.5-1.5H477.84V59.8a3.72,3.72,0,0,0,0,7.44v7.92h18.63a4.66,4.66,0,0,0,4.66-4.66h0V51.88h0Z"/></g><path class="cls-3" d="M597.08,97.75"/></svg>