<svg id="Layer_1" data-name="Layer 1" xmlns="http://www.w3.org/2000/svg" viewBox="0 0 380 200"><defs><style>.cls-1{fill:#fafafa;}.cls-12,.cls-2,.cls-8{fill:none;stroke-miterlimit:10;}.cls-2,.cls-8{stroke:#52306c;}.cls-2{stroke-width:4px;}.cls-3{fill:#3ccb5a;}.cls-11,.cls-4{fill:#52306c;}.cls-5{opacity:0.4;}.cls-6{fill:#481689;}.cls-6,.cls-7{opacity:0.2;}.cls-7{fill:#f5ccff;}.cls-9{fill:#fff;}.cls-10{fill:#a47cce;}.cls-11{opacity:0.1;}.cls-12{stroke:#80f98c;stroke-linecap:round;stroke-width:2px;}</style></defs><title>runnable-art</title><rect class="cls-1" width="380" height="200"/><line class="cls-2" x1="240" y1="106" x2="160" y2="106"/><rect class="cls-3" x="79" y="61" width="82" height="82" rx="11" ry="11"/><path class="cls-4" d="M149,62a10,10,0,0,1,10,10v60a9.79,9.79,0,0,1-9.75,10H89.69A9.74,9.74,0,0,1,80,132V72a9.74,9.74,0,0,1,9.69-10H149m0.25-2H89.69A11.75,11.75,0,0,0,78,72v60a11.75,11.75,0,0,0,11.69,12h59.56A11.8,11.8,0,0,0,161,132V72a11.91,11.91,0,0,0-11.87-12h0.13Z"/><g class="cls-5"><path class="cls-6" d="M119,62h30.25A9.75,9.75,0,0,1,159,71.75V102a0,0,0,0,1,0,0H119a0,0,0,0,1,0,0V62A0,0,0,0,1,119,62Z"/><rect class="cls-7" x="100" y="82" width="39" height="40"/><path class="cls-7" d="M80,102h39a0,0,0,0,1,0,0v40a0,0,0,0,1,0,0H89.69A9.69,9.69,0,0,1,80,132.31V102A0,0,0,0,1,80,102Z"/><line class="cls-8" x1="99.5" y1="142" x2="99.5" y2="62"/><line class="cls-8" x1="139.5" y1="62" x2="139.5" y2="142"/><line class="cls-8" x1="80" y1="82.5" x2="159" y2="82.5"/><line class="cls-8" x1="119.5" y1="142" x2="119.5" y2="62"/><line class="cls-8" x1="79" y1="102.5" x2="161" y2="102.5"/><line class="cls-8" x1="159" y1="122.5" x2="80" y2="122.5"/><rect class="cls-7" x="100" y="62" width="19" height="60"/></g><rect class="cls-9" x="169" y="41" width="132" height="122" rx="7" ry="7"/><path class="cls-4" d="M294,42a6,6,0,0,1,6,6V156a6,6,0,0,1-6,6H176a6,6,0,0,1-6-6V48a6,6,0,0,1,6-6H294m0-2H176a8,8,0,0,0-8,8V156a8,8,0,0,0,8,8H294a8,8,0,0,0,8-8V48a8,8,0,0,0-8-8h0Z"/><path class="cls-10" d="M176,42H294a6,6,0,0,1,6,6V62a0,0,0,0,1,0,0H170a0,0,0,0,1,0,0V48A6,6,0,0,1,176,42Z"/><path class="cls-4" d="M175.76,41H250a0,0,0,0,1,0,0V62a0,0,0,0,1,0,0H169a0,0,0,0,1,0,0V47.76A6.76,6.76,0,0,1,175.76,41Z"/><rect class="cls-11" x="170" y="62" width="130" height="20"/><rect class="cls-11" x="170" y="102" width="130" height="20"/><path class="cls-11" d="M170,142H300a0,0,0,0,1,0,0v14a6,6,0,0,1-6,6H176a6,6,0,0,1-6-6V142A0,0,0,0,1,170,142Z"/><path class="cls-12" d="M83,78V73.66C83,69.43,86.93,66,91.16,66H109"/><path class="cls-4" d="M216.54,70.2H223v4.3h-6.45V70.2Z"/><path class="cls-4" d="M222.79,70.2h6.45v4.3h-6.45V70.2Z"/><path class="cls-4" d="M229,70.2h6.45v4.3H229V70.2Z"/><path class="cls-4" d="M235.29,70.2h6.45v4.3h-6.45V70.2Z"/><path class="cls-4" d="M241.54,70.2H248v4.3h-6.45V70.2Z"/><path class="cls-4" d="M247.79,70.2h6.45v4.3h-6.45V70.2Z"/><path class="cls-4" d="M254,70.2h6.45v4.3H254V70.2Z"/><path class="cls-4" d="M241.54,90.2H248v4.3h-6.45V90.2Z"/><path class="cls-4" d="M216.54,110.2H223v4.3h-6.45v-4.3Z"/><path class="cls-4" d="M235.33,150.2h6.45v4.3h-6.45v-4.3Z"/><path class="cls-9" d="M179,49.2h49.64v4.3H179V49.2Z"/><path class="cls-9" d="M119.58,80.94a20.79,20.79,0,0,0-12.73,4.27l-0.25.19a1,1,0,0,0-.2,1.4l0.38,0.51a1,1,0,0,0,.66.39h0.14a1,1,0,0,0,.6-0.2l0.25-.19a18,18,0,0,1,11.14-3.73,18.47,18.47,0,0,1,18.26,16l-3.52-3a1,1,0,0,0-1.4.1l-0.44.51a1,1,0,0,0,.1,1.42l6,5.08a1,1,0,0,0,1.38-.08l5.65-6.09a1,1,0,0,0,0-1.39l-0.44-.62A1.24,1.24,0,0,0,144.4,95h0a1.22,1.22,0,0,0-.71.5l-3.21,3.56a21.12,21.12,0,0,0-20.87-18.11h0Z"/><path class="cls-9" d="M100,101.56l0.19,0.13H99.84Z"/><path class="cls-9" d="M99.91,99.54a1,1,0,0,0-.73.32L93.53,106a1,1,0,0,0,0,1.39L94,107.75a1,1,0,0,0,.71.25h0a1,1,0,0,0,.71-0.27l3.23-3.38A21.1,21.1,0,0,0,132,119.05l0.27-.2a1,1,0,0,0,.2-1.4l-0.38-.51a1,1,0,0,0-1.25-.29l-0.25.13-0.14.08a18.46,18.46,0,0,1-29.16-13l3.52,3a1,1,0,0,0,1.4-.1l0.44-.51a1,1,0,0,0-.1-1.42l-6-5.08a1,1,0,0,0-.65-0.24h0Z"/><line class="cls-12" x1="83" y1="90" x2="83" y2="84"/><path class="cls-4" d="M179,70.2h25.2v4.3H179V70.2Z"/><path class="cls-4" d="M179,90.2h50v4.3H179V90.2Z"/><path class="cls-4" d="M179,110.2h25.2v4.3H179v-4.3Z"/><path class="cls-4" d="M235.33,110.2H260v4.3H235.33v-4.3Z"/><path class="cls-4" d="M179,130.2h18.95v4.3H179v-4.3Z"/><path class="cls-4" d="M210.29,130.2h25.45v4.3H210.29v-4.3Z"/><path class="cls-4" d="M179,150.2h18.95v4.3H179v-4.3Z"/><path class="cls-4" d="M210.29,150.2H223v4.3H210.29v-4.3Z"/></svg>