<svg id="Layer_1" data-name="Layer 1" xmlns="http://www.w3.org/2000/svg" viewBox="0 0 129 153.34"><defs><style>.cls-1{fill:#dbdbdb;}.cls-2{fill:#ccadd2;stroke-linejoin:round;}.cls-2,.cls-4{stroke:#52306c;stroke-width:2px;}.cls-2,.cls-5{stroke-linecap:round;}.cls-3{fill:#52306c;}.cls-4{fill:#ffe2c0;}.cls-4,.cls-5{stroke-miterlimit:10;}.cls-5{fill:none;stroke:#dbdbdb;stroke-width:4px;}</style></defs><title>versioning</title><path class="cls-1" d="M236,59.19a3.25,3.25,0,0,1,2.19.91l23.1,23.1a2.88,2.88,0,0,1,.91,2.19v60.45a5.36,5.36,0,0,1-5.35,5.35h-63.3a2,2,0,0,0-.66.11,5.36,5.36,0,0,1-4.69-5.31V64.53a5.36,5.36,0,0,1,5.35-5.35H236m0-2H193.51a7.36,7.36,0,0,0-7.35,7.35V146a7.36,7.36,0,0,0,7.35,7.35v-0.15h63.3a7.36,7.36,0,0,0,7.35-7.35V85.38a4.88,4.88,0,0,0-1.5-3.6l-23.1-23.1a5.24,5.24,0,0,0-3.6-1.5h0Z" transform="translate(-186.16)"/><path class="cls-2" d="M213.51,133.34a7.36,7.36,0,0,1-7.35-7.35V44.54a7.36,7.36,0,0,1,7.35-7.35H256a5.24,5.24,0,0,1,3.6,1.5l23.1,23.1a4.88,4.88,0,0,1,1.5,3.6v60.45a7.36,7.36,0,0,1-7.35,7.35Z" transform="translate(-186.16)"/><path class="cls-3" d="M256.56,37.34v24.3A3.49,3.49,0,0,0,260,65.09h24.9" transform="translate(-186.16)"/><path class="cls-4" d="M243.51,103.34A7.36,7.36,0,0,1,236.16,96V14.54a7.36,7.36,0,0,1,7.35-7.35H286a5.24,5.24,0,0,1,3.6,1.5l23.1,23.1a4.88,4.88,0,0,1,1.5,3.6V95.84a7.36,7.36,0,0,1-7.35,7.35Z" transform="translate(-186.16)"/><path class="cls-3" d="M286.56,7V31.63A3.49,3.49,0,0,0,290,35.09h24.9" transform="translate(-186.16)"/><path class="cls-5" d="M206.16,26V14.54a7.36,7.36,0,0,1,7.35-7.35H226" transform="translate(-186.16)"/><path class="cls-1" d="M221.3,13.86a0.85,0.85,0,0,0,1.39.65l7.6-6.08a1.26,1.26,0,0,0,0-2l-7.77-6.22a0.85,0.85,0,0,0-1.39.68Z" transform="translate(-186.16)"/><path class="cls-5" d="M312.66,115.23v11.45a7.36,7.36,0,0,1-7.35,7.35H292.86" transform="translate(-186.16)"/><path class="cls-1" d="M297.51,127.35a0.85,0.85,0,0,0-1.39-.65l-7.6,6.08a1.26,1.26,0,0,0,0,2L296.3,141a0.85,0.85,0,0,0,1.39-.68Z" transform="translate(-186.16)"/></svg>