<?xml version="1.0" encoding="utf-8"?>
<!-- Generator: Adobe Illustrator 19.2.1, SVG Export Plug-In . SVG Version: 6.00 Build 0)  -->
<svg version="1.1" id="Layer_1" xmlns="http://www.w3.org/2000/svg" xmlns:xlink="http://www.w3.org/1999/xlink" x="0px" y="0px"
	 viewBox="0 0 128.7 153.4" style="enable-background:new 0 0 128.7 153.4;" xml:space="preserve">
<style type="text/css">
	.st0{fill:#DBDBDB;}
	.st1{fill:#CCADD2;stroke:#52306C;stroke-width:2;stroke-linecap:round;stroke-linejoin:round;}
	.st2{fill:#52306C;}
	.st3{fill:#FFE2C0;stroke:#52306C;stroke-width:2;stroke-miterlimit:10;}
	.st4{fill:none;stroke:#DBDBDB;stroke-width:4;stroke-linecap:round;stroke-miterlimit:10;}
</style>
<title>versioning</title>
<path class="st0" d="M49.8,59.2c0.8,0,1.6,0.3,2.2,0.9l23.1,23.1c0.6,0.6,0.9,1.4,0.9,2.2v60.4c0,3-2.4,5.3-5.4,5.4H7.4
	c-0.2,0-0.4,0-0.7,0.1C4.1,151,2,148.7,2,146V64.5c0-3,2.4-5.3,5.4-5.3L49.8,59.2 M49.8,57.2H7.4c-4.1,0-7.3,3.3-7.4,7.3V146
	c0,4.1,3.3,7.3,7.4,7.4v-0.1h63.3c4.1,0,7.3-3.3,7.4-7.4V85.4c0-1.4-0.5-2.7-1.5-3.6L53.4,58.7C52.4,57.7,51.1,57.2,49.8,57.2
	L49.8,57.2L49.8,57.2z"/>
<path class="st1" d="M27.4,133.3c-4.1,0-7.3-3.3-7.4-7.3V44.5c0-4.1,3.3-7.3,7.4-7.3h42.5c1.3,0,2.6,0.6,3.6,1.5l23.1,23.1
	c1,0.9,1.5,2.2,1.5,3.6v60.4c0,4.1-3.3,7.3-7.4,7.4L27.4,133.3z"/>
<path class="st2" d="M70.4,37.3v24.3c0,1.9,1.5,3.4,3.4,3.4h24.9"/>
<path class="st3" d="M57.4,103.3c-4.1,0-7.3-3.3-7.3-7.3V14.5c0-4.1,3.3-7.3,7.4-7.3h42.5c1.3,0,2.6,0.6,3.6,1.5l23.1,23.1
	c1,0.9,1.5,2.2,1.5,3.6v60.4c0,4.1-3.3,7.3-7.4,7.3L57.4,103.3z"/>
<path class="st2" d="M100.4,7v24.6c0,1.9,1.5,3.4,3.4,3.5h24.9"/>
<path class="st4" d="M20,26V14.5c0-4.1,3.3-7.3,7.4-7.3h12.5"/>
<path class="st0" d="M35.1,13.9c0,0.5,0.4,0.8,0.9,0.8c0.2,0,0.4-0.1,0.5-0.2l7.6-6.1c0.6-0.4,0.7-1.2,0.2-1.8
	c-0.1-0.1-0.1-0.2-0.2-0.2l-7.8-6.2C36-0.1,35.5,0,35.2,0.3C35,0.5,35,0.7,35,0.9L35.1,13.9z"/>
<path class="st4" d="M126.5,115.2v11.4c0,4.1-3.3,7.3-7.4,7.3h-12.5"/>
<path class="st0" d="M111.4,127.3c0-0.5-0.4-0.8-0.9-0.8c-0.2,0-0.4,0.1-0.5,0.2l-7.6,6.1c-0.6,0.4-0.7,1.2-0.2,1.8
	c0.1,0.1,0.1,0.2,0.2,0.2l7.8,6.2c0.4,0.3,0.9,0.2,1.2-0.1c0.1-0.2,0.2-0.4,0.2-0.6L111.4,127.3z"/>
<path class="st1" d="M410.9,97.8"/>
<path class="st2" d="M78.3,45.5c2.7-3,6.6-4.7,10.7-4.7c8,0,14.5,6.5,14.5,14.6c0,0.2,0,0.4,0,0.7l0.3,0.8l1.5,1.5
	c0.4,0.4,1,0.4,1.4,0c0.2-0.2,0.3-0.4,0.3-0.6c0.2-1.3,0.2-2.7,0.1-4c-0.9-9.2-8.5-16.3-17.7-16.5c-5.2-0.1-10.1,2-13.6,5.8
	L78.3,45.5z"/>
<path class="st2" d="M99.3,65.4c-2.7,2.8-6.4,4.4-10.3,4.3c-8,0-14.5-6.5-14.5-14.6c0-0.2,0-0.5,0-0.7l-0.3-0.8l-1.5-1.5
	c-0.4-0.4-1-0.4-1.4,0c-0.2,0.2-0.3,0.3-0.3,0.6c-0.3,2-0.2,4,0.2,5.9c1.4,7.2,7,12.8,14.1,14.3c6,1.2,12.2-0.7,16.5-5.1L99.3,65.4z
	"/>
<path class="st2" d="M84.1,47.3l-8.5,0.7c-0.6,0-1-0.4-1.1-0.9c0,0,0-0.1,0-0.1l0.6-8.5c0-0.6,0.5-1,1.1-0.9c0.2,0,0.5,0.1,0.6,0.3
	l7.8,7.8c0.4,0.4,0.4,1,0,1.4C84.6,47.1,84.3,47.3,84.1,47.3z"/>
<path class="st2" d="M93.8,63.2l8.5-0.7c0.6,0,1,0.4,1.1,0.9c0,0,0,0.1,0,0.1l-0.6,8.4c0,0.6-0.5,1-1.1,0.9c-0.2,0-0.5-0.1-0.6-0.3
	l-7.8-7.8c-0.4-0.4-0.4-1,0-1.4C93.4,63.4,93.6,63.3,93.8,63.2z"/>
</svg>
