<svg id="Layer_1" data-name="Layer 1" xmlns="http://www.w3.org/2000/svg" viewBox="0 0 207.43 217.5"><defs><style>.cls-1{fill:#a47cce;}.cls-12,.cls-2,.cls-4{fill:none;}.cls-11,.cls-2,.cls-4,.cls-6,.cls-7{stroke:#52306c;}.cls-11,.cls-12,.cls-2,.cls-4,.cls-6,.cls-7{stroke-miterlimit:10;}.cls-2{stroke-width:2px;}.cls-11,.cls-3{fill:#b82bed;}.cls-5{fill:#97cdf2;}.cls-13,.cls-6{fill:#fff;}.cls-7,.cls-8{fill:#bf977b;}.cls-9{fill:#52306c;}.cls-10{fill:#738ee5;}.cls-12{stroke:#a47cce;stroke-linecap:round;opacity:0.5;isolation:isolate;}</style></defs><title>working-together</title><path class="cls-1" d="M191,100.6V179a20.63,20.63,0,0,0,5.9,14.7l8.4,8.7H91.6a5.52,5.52,0,0,1-5.6-5.2V100.6c0-2.9,2.8-5.2,5.6-5.2h93.8C188.3,95.4,191,97.8,191,100.6Z" transform="translate(-0.22 -0.3)"/><path class="cls-2" d="M191,100.6V179a20.63,20.63,0,0,0,5.9,14.7l8.4,8.7H91.6a5.52,5.52,0,0,1-5.6-5.2V100.6c0-2.9,2.8-5.2,5.6-5.2h93.8C188.3,95.4,191,97.8,191,100.6Z" transform="translate(-0.22 -0.3)"/><circle id="SVGID" class="cls-3" cx="138.38" cy="147.6" r="36.3"/><circle id="SVGID-2" data-name="SVGID" class="cls-4" cx="138.38" cy="147.6" r="36.3"/><path class="cls-5" d="M17,42.3V98a21,21,0,0,1-5.9,14.8l-8.5,8.7h98a5.32,5.32,0,0,0,5.3-5.2v-74a5.06,5.06,0,0,0-5.3-4.9H22.5C19.7,37.4,17,39.4,17,42.3Z" transform="translate(-0.22 -0.3)"/><path class="cls-2" d="M17,42.3V98a21,21,0,0,1-5.9,14.8l-8.5,8.7h98a5.32,5.32,0,0,0,5.3-5.2v-74a5.06,5.06,0,0,0-5.3-4.9H22.5C19.7,37.4,17,39.4,17,42.3Z" transform="translate(-0.22 -0.3)"/><path class="cls-4" d="M124.1,166.6c-0.9,4.5,6,8.9,14.7,8.9s15.4-4.6,14.7-9" transform="translate(-0.22 -0.3)"/><path class="cls-6" d="M138.6,165.2c-11.6,0-21.8,2-27.6,6.2a36.16,36.16,0,0,0,55.2,0C160.4,167.2,150.2,165.2,138.6,165.2Z" transform="translate(-0.22 -0.3)"/><path class="cls-4" d="M128.8,165.2v4.7c0,3.9,4.4,6.4,9.8,6.4h0c5.4,0,9.8-2.5,9.8-6.4v-4.7" transform="translate(-0.22 -0.3)"/><path class="cls-7" d="M144.2,162H133v5.6c0,3.1,2.5,3.7,5.6,3.7h0c3.1,0,5.6-.6,5.6-3.7V162h0Z" transform="translate(-0.22 -0.3)"/><path class="cls-8" d="M138.6,164.8c-9.1,0-16.2-7.1-18.7-14.4h-0.6a4.53,4.53,0,0,1-4.2-4.3c-0.3-2.6,1.3-5.2,3.5-5.5a1.38,1.38,0,0,1,.4-0.3h0.1a19.75,19.75,0,0,1,39,.4c0.1,0,.1.1,0.2,0.1,2.3,0.3,3.8,2.6,3.5,5.3-0.3,2.5-2.1,4.4-4.2,4.4h-0.3C154.8,157.7,147.7,164.8,138.6,164.8Z" transform="translate(-0.22 -0.3)"/><path class="cls-9" d="M138.6,124.7a19.31,19.31,0,0,1,19.1,16.7h0.5c2,0.2,3.4,2.3,3.1,4.7-0.3,2.2-1.9,3.9-3.7,3.9h-0.3a0.37,0.37,0,0,1-.3-0.1c-2.5,7.8-9.8,14.4-18.4,14.4s-15.9-6.7-18.4-14.5a1.27,1.27,0,0,1-.6.1h-0.3a4.09,4.09,0,0,1-3.7-3.9c-0.3-2.4,1.1-4.5,3.1-4.7h0.8a19.31,19.31,0,0,1,19.1-16.6m0-1a20.27,20.27,0,0,0-19.9,16.7h-0.1a3.86,3.86,0,0,0-3.1,2,6.15,6.15,0,0,0-.9,3.8c0.3,2.7,2.3,4.8,4.7,4.8h0.2c3,8.3,10.9,14.3,19.1,14.3s16-6,19.1-14.3c2.4,0,4.4-2.1,4.7-4.8s-1.4-5.4-3.8-5.8a20.45,20.45,0,0,0-20-16.7h0Z" transform="translate(-0.22 -0.3)"/><path class="cls-9" d="M150.8,134.1l2.9,6.6a1.09,1.09,0,0,0,.8.8l3.5,1a19.54,19.54,0,0,0-39,.1l3.9-1a1.09,1.09,0,0,0,.8-0.8l2.9-6.6" transform="translate(-0.22 -0.3)"/><g id="a"><path class="cls-9" d="M144.3,147.5a3.16,3.16,0,0,1,2,.3q1.65,0.45,1.8-.9a1.8,1.8,0,0,0-1.4-1.4,14.21,14.21,0,0,0-4.6-.1,1.6,1.6,0,0,0-1.3,1.5c-0.1.6,0.2,0.9,0.9,1a7,7,0,0,0,2.6-.4m-10.2,6.6c-1-.5-1.3-0.4-1,0.4a8.51,8.51,0,0,0,2.9,3.1,4.56,4.56,0,0,0,5.1-.4,7.47,7.47,0,0,0,2.4-3.1c0.1-.7-0.2-0.7-1-0.2a6.33,6.33,0,0,1-4.6,1.2,7.46,7.46,0,0,1-3.8-1m-1-11.1a1.76,1.76,0,0,0-1.5.9,4,4,0,0,0,0,4.2,1.76,1.76,0,0,0,1.5.9,1.51,1.51,0,0,0,1.4-.9,4,4,0,0,0,0-4.2,1.51,1.51,0,0,0-1.4-.9m-0.4-5.4c0.3-.4.1-0.7-0.5-1a1.39,1.39,0,0,0-.9,0,0.35,0.35,0,0,0-.2.1,7.67,7.67,0,0,0-5,5.2,1.1,1.1,0,0,0,0,.8c0.2,0.6.5,0.6,1,.1a13.61,13.61,0,0,1,2.5-3.1,5.63,5.63,0,0,1,2.3-1.5c0.1,0,.1-0.1.2-0.1a1.58,1.58,0,0,0,.6-0.5m17.2,6.3c1.3,0.5,1.5.2,0.7-.9a7.17,7.17,0,0,0-4.3-2.2,6,6,0,0,0-3.7.8q-1.2,1.35.6,1.2a10.38,10.38,0,0,1,5,.3Z" transform="translate(-0.22 -0.3)"/></g><circle id="SVGID-3" data-name="SVGID" class="cls-10" cx="61.38" cy="78.6" r="27.3"/><circle id="SVGID-4" data-name="SVGID" class="cls-4" cx="61.38" cy="78.6" r="27.3"/><path class="cls-11" d="M61.6,91.9c-8.7,0-16.4,1.5-20.8,4.7a27.33,27.33,0,0,0,41.6,0C78,93.4,70.3,91.9,61.6,91.9Z" transform="translate(-0.22 -0.3)"/><path class="cls-7" d="M65.8,89.5H57.4v4.2c0,2.3,1.9,2.8,4.2,2.8h0c2.3,0,4.2-.4,4.2-2.8V89.5Z" transform="translate(-0.22 -0.3)"/><path class="cls-8" d="M61.6,92c-6.8,0-12.2-5.5-14.2-11H47.1a3.56,3.56,0,0,1-3.3-3.4c-0.2-2.1,1-3.9,2.8-4.1h0.2a15,15,0,0,1,29.6,0h0c1.8,0.2,3,2,2.8,4.1A3.56,3.56,0,0,1,75.9,81H75.7C73.8,86.5,68.4,92,61.6,92Z" transform="translate(-0.22 -0.3)"/><path class="cls-9" d="M61.6,61.5A14.64,14.64,0,0,1,76,74h0.5a3.29,3.29,0,0,1-.5,6.4H75.7c-0.1,0-.2,0-0.2-0.1-1.9,5.8-7.3,11.1-13.8,11.1s-12-5.3-13.8-11.1c-0.1,0-.3.1-0.4,0.1H47.2a3.11,3.11,0,0,1-2.8-2.9c-0.2-1.8.8-3.4,2.3-3.5h0.6A14.3,14.3,0,0,1,61.6,61.5m0-1A15.52,15.52,0,0,0,46.4,73.1,3.29,3.29,0,0,0,44,74.7a4.49,4.49,0,0,0-.7,3,4,4,0,0,0,3.8,3.8h0c2.1,6,7.6,11,14.5,11s12.4-5.4,14.5-11a4.35,4.35,0,0,0,.7-8.4A15.52,15.52,0,0,0,61.6,60.5h0Z" transform="translate(-0.22 -0.3)"/><path class="cls-9" d="M70.7,68.5l2.2,5a0.9,0.9,0,0,0,.6.6l2.6,0.7a14.55,14.55,0,0,0-29,0L50,74a0.9,0.9,0,0,0,.6-0.6l2.2-5,0.5-.8,4-2.2,5.4,1.7Z" transform="translate(-0.22 -0.3)"/><path class="cls-9" d="M58.5,68a9,9,0,0,1,2.1.8,8.94,8.94,0,0,0,5.1.6,6,6,0,0,1,2.3-.2c1.3,0.2,2.2,1.5,3.5,1.8a3.16,3.16,0,0,0,3.4-1.9A15.74,15.74,0,0,0,76.8,64c-1.7.8-4.5-.8-6.1-1.9-2.3-1.6-5.1-1-7.9-1.4a17,17,0,0,0-4.5-.2,4.77,4.77,0,0,0-3.7,2.4,6.7,6.7,0,0,1,0-2,1.47,1.47,0,0,0-1.7.6,1.38,1.38,0,0,0,.3,1.7,3.76,3.76,0,0,0-2.1-.1,1.49,1.49,0,0,0-1.2,1.5,1.23,1.23,0,0,1,1.5.2,4.09,4.09,0,0,0-3.2,2.5,14.48,14.48,0,0,0-1,4.1,18.46,18.46,0,0,1-.4,2.3c-0.1-.4,1.1,0,1.5,0s-0.1.1-.1,0.5c1.3-.1,2.1-1.5,2.5-2.8s0.7-2.7,1.8-3.4,1.9,0.1,3,.2S57.5,67.8,58.5,68Z" transform="translate(-0.22 -0.3)"/><g id="a-2" data-name="a"><path class="cls-9" d="M55.1,82.9a4.56,4.56,0,0,0,1.2,1.3,10,10,0,0,0,2.4,1.5,8.17,8.17,0,0,0,2.9.7,6.48,6.48,0,0,0,2.9-.7,8.31,8.31,0,0,0,2.4-1.5,6.42,6.42,0,0,0,1.2-1.3c0.1-.4-0.1-0.5-0.4-0.3A12.49,12.49,0,0,1,64,84.4a8.75,8.75,0,0,1-2.4.3q-1.5-.15-2.4-0.3a13.77,13.77,0,0,1-3.7-1.8c-0.4-.2-0.5-0.1-0.4.3M60,77.4a5.4,5.4,0,0,0-.6-2.7,2.08,2.08,0,0,0-1.6-1.1h0a2.08,2.08,0,0,0-1.6,1.1,5.4,5.4,0,0,0-.6,2.7c0,0.8.2,1,.5,0.6l0.6-.8a1,1,0,0,1,1.1-.6h0a1.08,1.08,0,0,1,1.1.6L59.5,78c0.3,0.5.5,0.3,0.5-.6m3.6,0.7,0.6-.8a1,1,0,0,1,1.1-.6h0a1.08,1.08,0,0,1,1.1.6L67,78.1c0.3,0.4.5,0.2,0.5-.6a5.4,5.4,0,0,0-.6-2.7,2.08,2.08,0,0,0-1.6-1.1h0a2.08,2.08,0,0,0-1.6,1.1,5.4,5.4,0,0,0-.6,2.7C63.2,78.3,63.3,78.5,63.6,78.1Z" transform="translate(-0.22 -0.3)"/></g><polygon class="cls-9" points="107.17 27.3 111.88 32.1 136.18 14.3 128.47 5.3 107.17 27.3"/><polygon class="cls-9" points="114.17 37.3 135.88 25.3 140.57 34.1 116.67 41.9 114.17 37.3"/><polygon class="cls-9" points="102.08 26.3 96.08 23.3 107.17 0 117.17 5.3 102.08 26.3"/><polyline class="cls-4" points="61.08 96.1 54.08 96.1 54.08 101.8 54.08 104.9"/><circle class="cls-9" cx="58.38" cy="100.5" r="1.4"/><line class="cls-4" x1="117.08" y1="167.8" x2="117.08" y2="176.8"/><line class="cls-4" x1="160.08" y1="167.8" x2="160.08" y2="176.8"/><path class="cls-12" d="M124.5,133.3c-0.3.4-.7,0.9-1,1.3" transform="translate(-0.22 -0.3)"/><path class="cls-12" d="M135.8,126.5a17.55,17.55,0,0,0-10.3,5.7" transform="translate(-0.22 -0.3)"/><path class="cls-13" d="M57.1,216.7a4.91,4.91,0,0,1-4.9-4.9V157.5a4.91,4.91,0,0,1,4.9-4.9H85.4a3.49,3.49,0,0,1,2.4,1L103.2,169a3.25,3.25,0,0,1,1,2.4v40.3a4.91,4.91,0,0,1-4.9,4.9H57.1v0.1Z" transform="translate(-0.22 -0.3)"/><path class="cls-9" d="M85.4,153.7a2.41,2.41,0,0,1,1.7.7l15.4,15.4a2.34,2.34,0,0,1,.7,1.7v40.3a3.9,3.9,0,0,1-3.9,3.9H57.1a3.9,3.9,0,0,1-3.9-3.9V157.5a3.9,3.9,0,0,1,3.9-3.9H85.4m0-1.9H57.1a5.91,5.91,0,0,0-5.9,5.9v54.3a5.91,5.91,0,0,0,5.9,5.9H99.4a5.91,5.91,0,0,0,5.9-5.9V171.6a4.39,4.39,0,0,0-1.3-3.1L88.6,153a4.22,4.22,0,0,0-3.2-1.3h0Z" transform="translate(-0.22 -0.3)"/><path class="cls-9" d="M85.8,152.7v16.2a2.33,2.33,0,0,0,2.3,2.3h16.6" transform="translate(-0.22 -0.3)"/></svg>