<?xml version="1.0" encoding="utf-8"?>
<!-- Generator: Adobe Illustrator 19.2.1, SVG Export Plug-In . SVG Version: 6.00 Build 0)  -->
<svg version="1.1" id="Layer_1" xmlns="http://www.w3.org/2000/svg" xmlns:xlink="http://www.w3.org/1999/xlink" x="0px" y="0px"
	 viewBox="0 0 207.5 217.4" style="enable-background:new 0 0 207.5 217.4;" xml:space="preserve">
<style type="text/css">
	.st0{fill:#A47CCE;}
	.st1{fill:none;stroke:#52306C;stroke-width:2;stroke-miterlimit:10;}
	.st2{fill:#97CDF2;}
	.st3{fill:none;stroke:#52306C;stroke-miterlimit:10;}
	.st4{fill:#FFFFFF;stroke:#52306C;stroke-miterlimit:10;}
	.st5{fill:#BF977B;stroke:#52306C;stroke-miterlimit:10;}
	.st6{fill:#BF977B;}
	.st7{fill:#52306C;}
	.st8{fill:#B82BED;stroke:#52306C;stroke-miterlimit:10;}
	.st9{opacity:0.5;fill:none;stroke:#A47CCE;stroke-linecap:round;stroke-miterlimit:10;enable-background:new    ;}
	.st10{fill:#FFFFFF;}
</style>
<title>working-together</title>
<path class="st0" d="M190,100.3v78.4c0.1,5.6,2.3,10.9,6.3,14.9l8.8,8.8H91.4c-2.9-0.1-5.3-2.5-5.3-5.5v-96.6c0.1-2.8,2.4-5.1,5.3-5
	c0,0,0,0,0.1,0h93.8c2.6-0.1,4.8,2,4.9,4.6C190,100,190,100.2,190,100.3z"/>
<path class="st1" d="M190,100.3v78.4c0.1,5.6,2.3,10.9,6.3,14.9l8.8,8.8H91.4c-2.9-0.1-5.3-2.5-5.3-5.5v-96.6c0.1-2.8,2.4-5.1,5.3-5
	c0,0,0,0,0.1,0h93.8c2.6-0.1,4.8,2,4.9,4.6C190,100,190,100.2,190,100.3z"/>
<path class="st2" d="M17,41.9v55.7c0,5.6-2.2,10.9-6.1,14.9l-8.6,8.8h98c3-0.1,5.4-2.5,5.6-5.5V41.9c-0.2-3-2.6-5.4-5.6-5.6H22.3
	C19.4,36.3,17,39.1,17,41.9z"/>
<path class="st1" d="M17,41.9v55.7c0,5.6-2.2,10.9-6.1,14.9l-8.6,8.8h98c3-0.1,5.4-2.5,5.6-5.5V41.9c-0.2-3-2.6-5.4-5.6-5.6H22.3
	C19.4,36.3,17,39.1,17,41.9z"/>
<path class="st3" d="M123.9,166.3c-0.9,4.5,6,8.9,14.7,8.9s15.4-4.6,14.7-9"/>
<path class="st4" d="M138.3,164.9c-11.6,0-21.8,2-27.6,6.2c13,15.2,35.9,17.1,51.1,4.1c1.5-1.3,2.9-2.6,4.1-4.1
	C160.1,166.9,149.9,164.9,138.3,164.9z"/>
<path class="st3" d="M128.5,164.9v4.7c0,3.9,4.4,6.4,9.8,6.4l0,0c5.4,0,9.8-2.5,9.8-6.4v-4.7"/>
<path class="st5" d="M143.9,161.6h-11.2v5.6c0,3.1,2.5,3.7,5.6,3.7l0,0c3.1,0,5.6-0.6,5.6-3.7L143.9,161.6L143.9,161.6z"/>
<path class="st6" d="M138.3,164.5c-9.1,0-16.2-7.1-18.7-14.4h-0.2H119c-2.3-0.2-4.1-2-4.2-4.4c-0.3-2.6,1.3-5.1,3.5-5.4
	c0.1,0,0.2-0.1,0.4-0.1h0.1c1.8-9.5,9.9-16.4,19.5-16.6c9.7,0.1,18,7.1,19.5,16.7c0.1,0,0.1,0,0.2,0c2.3,0.3,3.7,2.6,3.4,5.3
	c-0.2,2.3-2.1,4.2-4.4,4.4h-0.2C154.4,157.3,147.4,164.5,138.3,164.5z"/>
<path class="st7" d="M138.3,124.4c9.6,0,17.8,7.1,19.1,16.7h0.5c2,0.2,3.4,2.3,3.1,4.7c-0.1,2.1-1.7,3.7-3.7,3.9H157
	c-0.1,0-0.2,0-0.3-0.1c-2.5,7.8-9.8,14.4-18.4,14.4s-15.9-6.6-18.4-14.4c-0.2,0.1-0.4,0.1-0.5,0.1H119c-2-0.2-3.6-1.9-3.7-3.9
	c-0.3-2.4,1.1-4.5,3.1-4.7h0.3c0.2,0,0.3,0,0.5,0C120.5,131.5,128.7,124.4,138.3,124.4 M138.3,123.4c-9.8,0-18.2,7-20,16.7h-0.1
	c-1.3,0.2-2.4,0.9-3.1,2c-0.7,1.1-1,2.5-0.9,3.8c0.1,2.6,2.2,4.6,4.7,4.8h0.2c3,8.3,10.9,14.3,19.1,14.3s16-6,19-14.3
	c2.5-0.2,4.6-2.2,4.7-4.8c0.2-1.3-0.1-2.7-0.9-3.8c-0.6-1.1-1.7-1.8-2.9-2C156.5,130.4,148.1,123.4,138.3,123.4L138.3,123.4
	L138.3,123.4z"/>
<path class="st7" d="M150.4,133.8l2.9,6.6c0.1,0.4,0.4,0.7,0.8,0.8l3.4,1c-0.8-10.6-10.1-18.8-20.7-18c-9.5,0.7-17,8.6-17.7,18.1
	l3.9-1c0.4-0.1,0.7-0.4,0.8-0.8l2.9-6.6"/>
<g id="a">
	<path class="st7" d="M144,147.2c0.7-0.1,1.4,0,2,0.3c1.1,0.3,1.7,0,1.8-0.9c-0.1-0.7-0.7-1.3-1.4-1.4c-1.5-0.3-3.1-0.3-4.6-0.1
		c-0.7,0.2-1.3,0.8-1.3,1.5c-0.1,0.5,0.3,0.9,0.8,1c0,0,0.1,0,0.1,0C142.2,147.6,143.1,147.4,144,147.2 M133.8,153.8
		c-1-0.5-1.3-0.4-1,0.4c0.7,1.3,1.7,2.3,2.9,3.1c1.6,1,3.6,0.8,5.1-0.4c1.1-0.8,1.9-1.9,2.4-3.1c0.1-0.7-0.2-0.7-1-0.1
		c-1.3,0.9-2.9,1.4-4.5,1.2C136.3,154.8,135,154.4,133.8,153.8 M132.9,142.6c-0.6,0-1.2,0.3-1.5,0.9c-0.4,0.6-0.6,1.3-0.6,2.1
		c0,0.7,0.2,1.4,0.6,2.1c0.3,0.5,0.9,0.8,1.5,0.9c0.6,0,1.1-0.3,1.4-0.9c0.4-0.6,0.6-1.3,0.6-2.1c0-0.7-0.2-1.5-0.6-2.1
		C134,143,133.5,142.6,132.9,142.6 M132.5,137.3c0.3-0.4,0.1-0.7-0.5-1c-0.3-0.1-0.6-0.1-0.9,0c-0.1,0-0.2,0.1-0.2,0.1
		c-2.4,0.8-4.2,2.7-5,5.1c-0.1,0.2-0.1,0.5,0,0.8c0.2,0.6,0.5,0.6,1,0.1c0.7-1.2,1.5-2.2,2.5-3.1c0.7-0.6,1.4-1.2,2.3-1.6l0.2-0.1
		C132.1,137.6,132.4,137.5,132.5,137.3 M149.7,143.5c1.3,0.5,1.6,0.2,0.7-0.9c-1.1-1.2-2.6-2-4.3-2.2c-1.3-0.1-2.6,0.1-3.7,0.8
		c-0.8,0.9-0.6,1.3,0.6,1.2c1.7-0.4,3.4-0.3,5,0.3L149.7,143.5z"/>
</g>
<path class="st8" d="M61.3,91.6c-8.7,0-16.4,1.5-20.8,4.6c9.8,11.5,27,12.9,38.4,3.1c1.1-1,2.2-2,3.1-3.1
	C77.7,93.1,70,91.6,61.3,91.6z"/>
<path class="st5" d="M65.5,89.1h-8.4v4.2c0,2.3,1.9,2.8,4.2,2.8l0,0c2.3,0,4.2-0.4,4.2-2.8L65.5,89.1L65.5,89.1z"/>
<path class="st6" d="M61.3,91.6c-6.8,0-12.2-5.5-14.2-11l0,0h-0.3c-1.8-0.1-3.2-1.6-3.3-3.4c-0.3-1.9,0.9-3.7,2.8-4.1h0.2
	C48,65,55.7,59.5,63.9,60.9c6.3,1.1,11.2,6,12.3,12.3l0,0c1.9,0.4,3.1,2.2,2.8,4.1c-0.1,1.8-1.5,3.3-3.3,3.4h-0.2
	C73.5,86.2,68.1,91.6,61.3,91.6z"/>
<path class="st7" d="M61.3,61.1c7.2,0,13.4,5.4,14.4,12.5h0.4c1.6,0.3,2.7,1.9,2.3,3.5c0,0,0,0,0,0c-0.1,1.5-1.3,2.8-2.8,2.9h-0.3
	l-0.2-0.1c-1.9,5.8-7.3,11.1-13.8,11.1s-12-5.2-13.8-11.1c-0.1,0-0.3,0.1-0.4,0.1h-0.3c-1.5-0.1-2.7-1.4-2.8-2.9
	c-0.3-1.6,0.7-3.2,2.3-3.5c0,0,0,0,0,0h0.2c0.1,0,0.3,0,0.4,0C47.9,66.5,54.1,61.1,61.3,61.1 M61.3,60.1c-7.4,0-13.8,5.3-15.2,12.6
	c-1,0.2-1.9,0.7-2.4,1.6c-0.6,0.9-0.8,2-0.7,3.1c0.1,2.1,1.7,3.7,3.8,3.9l0,0c2.1,5,7.6,10.9,14.5,10.9s12.4-5.5,14.5-11.1
	c2-0.3,3.5-1.9,3.6-3.8c0.1-1-0.1-2.1-0.7-3c-0.5-0.8-1.3-1.3-2.2-1.6C75.1,65.5,68.8,60.2,61.3,60.1L61.3,60.1L61.3,60.1z"/>
<path class="st7" d="M70.4,68.2l2.2,5c0.1,0.3,0.3,0.5,0.6,0.6l2.6,0.7c-0.6-8-7.6-13.9-15.6-13.3c-7.1,0.6-12.7,6.2-13.3,13.3
	l2.9-0.8c0.3-0.1,0.5-0.3,0.6-0.6l2.2-5l0.5-0.8l4-2.2l5.4,1.7L70.4,68.2z"/>
<path class="st7" d="M58.3,67.6c0.7,0.2,1.4,0.5,2.1,0.8c1.6,0.7,3.4,0.9,5.2,0.6c0.7-0.2,1.5-0.3,2.3-0.2c1.3,0.2,2.2,1.5,3.5,1.8
	c1.4,0.2,2.8-0.6,3.5-1.9c0.9-1.6,1.5-3.3,1.9-5.1c-1.7,0.8-4.5-0.8-6.1-1.9c-2.3-1.6-5.1-1-7.9-1.4c-1.5-0.3-3-0.4-4.5-0.2
	c-1.5,0.2-2.9,1.1-3.7,2.4c-0.1-0.7-0.1-1.3,0-2c-0.7-0.3-1.5,0.1-1.8,0.8c-0.2,0.5,0,1.1,0.4,1.5c-0.7-0.2-1.4-0.2-2.1-0.1
	c-0.7,0.2-1.2,0.8-1.2,1.5c0.5-0.3,1.1-0.2,1.5,0.2c-1.4,0.2-2.6,1.2-3.2,2.5c-0.6,1.3-0.9,2.7-1,4.1c-0.1,1-0.2,1.3-0.4,2.3
	c-0.1-0.4,1.1,0,1.5,0s-0.1,0.1-0.2,0.5c1.3-0.1,2.1-1.5,2.5-2.8s0.7-2.7,1.8-3.4s1.9,0.1,3,0.2S57.2,67.5,58.3,67.6z"/>
<g id="a-2">
	<path class="st7" d="M54.8,82.5c0.3,0.5,0.7,1,1.2,1.4c0.7,0.6,1.5,1.1,2.4,1.5c1.8,0.9,4,0.9,5.8,0c0.9-0.3,1.7-0.9,2.4-1.5
		c0.4-0.4,0.8-0.9,1.2-1.4c0.1-0.4-0.1-0.5-0.4-0.3c-1.1,0.8-2.4,1.4-3.7,1.8c-0.8,0.2-1.6,0.3-2.4,0.3c-0.8,0-1.6-0.1-2.4-0.3
		c-1.3-0.4-2.6-1-3.7-1.8C54.9,82.1,54.8,82.2,54.8,82.5 M59.8,77.1c0-0.9-0.2-1.9-0.6-2.7c-0.3-0.6-0.9-1-1.6-1.1l0,0
		c-0.7,0.1-1.3,0.5-1.6,1.1c-0.4,0.8-0.7,1.8-0.6,2.7c0,0.8,0.2,1,0.5,0.6l0.6-0.8c0.2-0.4,0.7-0.7,1.1-0.6l0,0
		c0.5,0,0.9,0.2,1.1,0.6l0.6,0.8C59.6,78.1,59.8,77.9,59.8,77.1 M63.4,77.7l0.6-0.8c0.2-0.4,0.7-0.7,1.1-0.6l0,0
		c0.5,0,0.9,0.2,1.1,0.6l0.6,0.8c0.3,0.4,0.5,0.2,0.5-0.6c0-0.9-0.2-1.9-0.6-2.7c-0.3-0.6-0.9-1-1.6-1.1l0,0
		c-0.7,0.1-1.3,0.5-1.6,1.1c-0.4,0.8-0.7,1.8-0.6,2.7C62.9,77.9,63.1,78.1,63.4,77.7L63.4,77.7z"/>
</g>
<polygon class="st7" points="107.1,27.2 111.8,32 136.2,14.2 128.4,5.2 "/>
<polygon class="st7" points="114.2,37.2 135.8,25.2 140.5,34 116.6,41.8 "/>
<polygon class="st7" points="102,26.2 96,23.2 107.1,0 117.2,5.2 "/>
<polyline class="st3" points="61,96.1 54,96.1 54,101.7 54,104.9 "/>
<circle class="st7" cx="58.3" cy="100.5" r="1.4"/>
<line class="st3" x1="117" y1="167.7" x2="117" y2="176.7"/>
<line class="st3" x1="160" y1="167.7" x2="160" y2="176.7"/>
<path class="st9" d="M124.3,133c-0.3,0.4-0.7,0.9-1,1.3"/>
<path class="st9" d="M135.6,126.2c-4,0.7-7.6,2.7-10.3,5.7"/>
<path class="st10" d="M56.9,216.3c-2.7,0-4.8-2.2-4.8-4.9v-54.3c0-2.7,2.2-4.8,4.8-4.9h28.3c0.9,0,1.8,0.4,2.4,1l15.4,15.4
	c0.6,0.6,1,1.5,1,2.4v40.3c0,2.7-2.2,4.8-4.8,4.9L56.9,216.3L56.9,216.3z"/>
<path class="st7" d="M85.2,153.3c0.6,0,1.3,0.3,1.7,0.7l15.4,15.4c0.5,0.5,0.7,1.1,0.7,1.7v40.3c0,2.1-1.7,3.8-3.8,3.9H56.9
	c-2.1,0-3.8-1.7-3.8-3.9v-54.3c0-2.1,1.7-3.8,3.8-3.9L85.2,153.3 M85.2,151.3H56.9c-3.2,0-5.8,2.6-5.8,5.9l0,0v54.3
	c0,3.2,2.6,5.9,5.8,5.9h0h42.3c3.2,0,5.8-2.6,5.8-5.9l0,0v-40.3c0-1.2-0.5-2.3-1.3-3.1l-15.4-15.4C87.5,151.8,86.4,151.3,85.2,151.3
	L85.2,151.3L85.2,151.3z"/>
<path class="st7" d="M85.5,152.4v16.2c0,1.2,1,2.3,2.3,2.3l0,0h16.5"/>
</svg>
