<svg id="Layer_1" data-name="Layer 1" xmlns="http://www.w3.org/2000/svg" xmlns:xlink="http://www.w3.org/1999/xlink" viewBox="0 0 380 200"><defs><style>.cls-1,.cls-12,.cls-7{fill:none;}.cls-2{fill:#fafafa;}.cls-3{fill:#a47cce;}.cls-14,.cls-4{fill:#52306c;}.cls-5{fill:#b82bed;}.cls-6{fill:#97cdf2;}.cls-15,.cls-7,.cls-9{stroke:#52306c;}.cls-12,.cls-15,.cls-7,.cls-9{stroke-miterlimit:10;}.cls-15,.cls-8{fill:#fff;}.cls-10,.cls-9{fill:#bf977b;}.cls-11{fill:#738ee5;}.cls-12{stroke:#a47cce;stroke-linecap:round;opacity:0.5;isolation:isolate;}.cls-13{clip-path:url(#clip-path);}.cls-14{opacity:0.15;}.cls-15{stroke-width:2px;}</style><clipPath id="clip-path"><path class="cls-1" d="M256,91.21V150a15.47,15.47,0,0,0,4.42,11l6.3,6.52H181.49a4.14,4.14,0,0,1-4.2-3.9V91.21a4.19,4.19,0,0,1,4.2-3.9h70.35A4.19,4.19,0,0,1,256,91.21Z"/></clipPath></defs><title>working-together</title><rect class="cls-2" width="380" height="200"/><path class="cls-3" d="M256,91.21V150a15.47,15.47,0,0,0,4.42,11l6.3,6.52H181.49a4.14,4.14,0,0,1-4.2-3.9V91.21a4.19,4.19,0,0,1,4.2-3.9h70.35A4.19,4.19,0,0,1,256,91.21Z"/><path class="cls-4" d="M251.84,87.31a4.19,4.19,0,0,1,4.2,3.9V150a15.47,15.47,0,0,0,4.42,11l6.3,6.53H181.42a4.14,4.14,0,0,1-4.13-3.9V91.21a4.19,4.19,0,0,1,4.2-3.9h70.35m0-2H181.49a6.21,6.21,0,0,0-6.2,5.9v72.57a6.14,6.14,0,0,0,6.13,5.78h90.05l-3.27-3.39-6.3-6.52A13.57,13.57,0,0,1,258,150V91.21a6.21,6.21,0,0,0-6.2-5.9h0Z"/><circle id="SVGID" class="cls-5" cx="216.74" cy="126.69" r="27.23"/><g id="SVGID-2"><path class="cls-4" d="M216.74,99.46a27.22,27.22,0,1,1-27.22,27.22,27.22,27.22,0,0,1,27.22-27.22m0-2A29.22,29.22,0,1,0,246,126.69a29.26,29.26,0,0,0-29.23-29.22h0Z"/></g><path class="cls-6" d="M125.54,47.49V89.26a15.75,15.75,0,0,1-4.42,11.1l-6.37,6.52h73.5a4,4,0,0,0,4-3.9V47.49a3.79,3.79,0,0,0-3.91-3.68H129.66A3.93,3.93,0,0,0,125.54,47.49Z"/><path class="cls-4" d="M188.42,43.81a3.8,3.8,0,0,1,3.79,3.68V103a4,4,0,0,1-4,3.9h-73.5l6.38-6.53a15.75,15.75,0,0,0,4.42-11.1V47.49a3.93,3.93,0,0,1,4.13-3.68h58.76m0-2H129.66a5.92,5.92,0,0,0-6.13,5.68V89.26A13.68,13.68,0,0,1,119.67,99l-6.37,6.52-3.32,3.4h78.25a6,6,0,0,0,6-5.85V47.43a5.77,5.77,0,0,0-5.79-5.62h0Z"/><path class="cls-7" d="M205.86,140.71c-0.68,3.38,4.5,6.67,11,6.67s11.55-3.45,11-6.75"/><path class="cls-8" d="M216.75,154.41a27.59,27.59,0,0,1-21.1-9.78l-0.35-.41,0.44-.32c4.22-3.06,11.68-4.75,21-4.75s16.77,1.69,21,4.75l0.44,0.32-0.35.41a27.62,27.62,0,0,1-21.07,9.78h0Z"/><path class="cls-4" d="M216.74,139.66c8.7,0,16.35,1.5,20.7,4.65a27.12,27.12,0,0,1-41.4,0c4.35-3.15,12-4.65,20.7-4.65m0-1c-9.42,0-17,1.72-21.29,4.84l-0.87.63,0.7,0.82a28.12,28.12,0,0,0,42.93,0l0.7-.82L238,143.5c-4.31-3.12-11.87-4.84-21.29-4.84h0Z"/><path class="cls-7" d="M209.39,139.66v3.52c0,2.92,3.3,4.8,7.35,4.8h0c4,0,7.35-1.87,7.35-4.8v-3.52"/><path class="cls-9" d="M220.94,137.26h-8.4v4.2c0,2.33,1.88,2.77,4.2,2.77h0c2.33,0,4.2-.45,4.2-2.77v-4.2h0Z"/><path class="cls-10" d="M216.74,139.36c-6.83,0-12.15-5.33-14-10.8h-0.45a3.4,3.4,0,0,1-3.15-3.23c-0.23-2,1-3.9,2.63-4.12A1,1,0,0,1,202,121h0.07a14.81,14.81,0,0,1,29.25.3c0.08,0,.08.08,0.15,0.08,1.73,0.23,2.85,2,2.63,4a3.47,3.47,0,0,1-3.15,3.3h-0.23C228.89,134,223.56,139.36,216.74,139.36Z"/><path class="cls-4" d="M216.74,109.29a14.48,14.48,0,0,1,14.33,12.52h0.38a3,3,0,0,1,2.33,3.52,3.13,3.13,0,0,1-2.77,2.92h-0.23a0.28,0.28,0,0,1-.23-0.08c-1.87,5.85-7.35,10.8-13.8,10.8s-11.93-5-13.8-10.87a1,1,0,0,1-.45.08h-0.23a3.07,3.07,0,0,1-2.77-2.92,3,3,0,0,1,2.32-3.52h0.6a14.48,14.48,0,0,1,14.32-12.45m0-.75a15.2,15.2,0,0,0-14.93,12.53h-0.07a2.9,2.9,0,0,0-2.32,1.5,4.61,4.61,0,0,0-.68,2.85,3.8,3.8,0,0,0,3.52,3.6h0.15c2.25,6.23,8.17,10.73,14.33,10.73s12-4.5,14.33-10.73a3.8,3.8,0,0,0,3.52-3.6,3.9,3.9,0,0,0-2.85-4.35,15.34,15.34,0,0,0-15-12.52h0Z"/><path class="cls-4" d="M225.89,116.34l2.17,5a0.82,0.82,0,0,0,.6.6l2.63,0.75a14.66,14.66,0,0,0-29.25.08L205,122a0.82,0.82,0,0,0,.6-0.6l2.18-5"/><g id="a"><path class="cls-4" d="M221,126.39a2.37,2.37,0,0,1,1.5.23q1.24,0.34,1.35-.67a1.35,1.35,0,0,0-1-1,10.66,10.66,0,0,0-3.45-.08,1.2,1.2,0,0,0-1,1.13c-0.08.45,0.15,0.67,0.67,0.75a5.25,5.25,0,0,0,2-.3m-7.65,5c-0.75-.37-1-0.3-0.75.3a6.38,6.38,0,0,0,2.17,2.33,3.42,3.42,0,0,0,3.83-.3,5.6,5.6,0,0,0,1.8-2.33c0.08-.52-0.15-0.52-0.75-0.15a4.75,4.75,0,0,1-3.45.9,5.6,5.6,0,0,1-2.85-.75M212.61,123a1.32,1.32,0,0,0-1.12.67,3,3,0,0,0,0,3.15,1.32,1.32,0,0,0,1.13.67,1.13,1.13,0,0,0,1-.67,3,3,0,0,0,0-3.15,1.13,1.13,0,0,0-1-.67m-0.3-4c0.23-.3.08-0.52-0.37-0.75a1,1,0,0,0-.67,0,0.26,0.26,0,0,0-.15.08,5.75,5.75,0,0,0-3.75,3.9,0.82,0.82,0,0,0,0,.6c0.15,0.45.38,0.45,0.75,0.08a10.21,10.21,0,0,1,1.88-2.33,4.22,4.22,0,0,1,1.73-1.12c0.08,0,.08-0.08.15-0.08a1.19,1.19,0,0,0,.45-0.37m12.9,4.73c1,0.38,1.13.15,0.52-.67a5.38,5.38,0,0,0-3.23-1.65,4.5,4.5,0,0,0-2.77.6q-0.9,1,.45.9a7.78,7.78,0,0,1,3.75.23Z"/></g><circle id="SVGID-3" class="cls-11" cx="158.99" cy="74.94" r="20.47"/><g id="SVGID-4"><path class="cls-4" d="M159,54.46a20.47,20.47,0,1,1-20.47,20.47A20.47,20.47,0,0,1,159,54.46m0-2a22.47,22.47,0,1,0,22.47,22.47A22.5,22.5,0,0,0,159,52.46h0Z"/></g><path class="cls-5" d="M159,95.91a21,21,0,0,1-16-7.38l-0.35-.41,0.44-.32c3.21-2.33,8.85-3.62,15.89-3.62s12.68,1.29,15.89,3.62l0.44,0.32-0.35.41a21,21,0,0,1-16,7.38h0Z"/><path class="cls-4" d="M159,84.69c6.53,0,12.3,1.13,15.6,3.52a20.5,20.5,0,0,1-31.2,0c3.3-2.4,9.07-3.52,15.6-3.52m0-1c-7.14,0-12.89,1.32-16.19,3.72l-0.87.64,0.7,0.82a21.5,21.5,0,0,0,32.72,0L176,88l-0.87-.64c-3.3-2.4-9-3.72-16.19-3.72h0Z"/><path class="cls-9" d="M162.14,82.89h-6.3V86c0,1.73,1.43,2.1,3.15,2.1h0c1.72,0,3.15-.3,3.15-2.1V82.89Z"/><path class="cls-10" d="M159,84.76c-5.1,0-9.15-4.12-10.65-8.25h-0.22A2.67,2.67,0,0,1,145.64,74a2.64,2.64,0,0,1,2.1-3.07h0.15a11.25,11.25,0,0,1,22.2,0h0a2.64,2.64,0,0,1,2.1,3.07,2.67,2.67,0,0,1-2.48,2.55h-0.15C168.14,80.64,164.09,84.76,159,84.76Z"/><path class="cls-4" d="M159,61.89a11,11,0,0,1,10.8,9.38h0.38a2.47,2.47,0,0,1-.37,4.8h-0.23c-0.07,0-.15,0-0.15-0.07-1.43,4.35-5.48,8.32-10.35,8.32s-9-4-10.35-8.32c-0.07,0-.22.07-0.3,0.07h-0.22a2.33,2.33,0,0,1-2.1-2.18,2.18,2.18,0,0,1,1.72-2.62h0.45A10.73,10.73,0,0,1,159,61.89m0-.75a11.64,11.64,0,0,0-11.4,9.45,2.47,2.47,0,0,0-1.8,1.2,3.37,3.37,0,0,0-.53,2.25,3,3,0,0,0,2.85,2.85h0c1.57,4.5,5.7,8.25,10.88,8.25s9.3-4.05,10.88-8.25a3.26,3.26,0,0,0,.52-6.3A11.64,11.64,0,0,0,159,61.14h0Z"/><path class="cls-4" d="M165.81,67.14l1.65,3.75a0.68,0.68,0,0,0,.45.45l1.95,0.52a10.91,10.91,0,0,0-21.75,0l2.18-.6a0.68,0.68,0,0,0,.45-0.45l1.65-3.75,0.38-.6,3-1.65,4.05,1.27Z"/><path class="cls-4" d="M156.66,66.76a6.75,6.75,0,0,1,1.57.6,6.71,6.71,0,0,0,3.82.45,4.5,4.5,0,0,1,1.73-.15c1,0.15,1.65,1.13,2.63,1.35A2.37,2.37,0,0,0,169,67.59a11.81,11.81,0,0,0,1.43-3.83c-1.27.6-3.37-.6-4.57-1.43-1.73-1.2-3.82-.75-5.93-1.05a12.75,12.75,0,0,0-3.37-.15,3.58,3.58,0,0,0-2.78,1.8,5,5,0,0,1,0-1.5,1.1,1.1,0,0,0-1.28.45,1,1,0,0,0,.22,1.28,2.82,2.82,0,0,0-1.57-.07,1.12,1.12,0,0,0-.9,1.13,0.92,0.92,0,0,1,1.13.15,3.07,3.07,0,0,0-2.4,1.88,10.86,10.86,0,0,0-.75,3.07,13.85,13.85,0,0,1-.3,1.73c-0.07-.3.82,0,1.13,0s-0.07.07-.07,0.38c1-.07,1.57-1.12,1.88-2.1a4.23,4.23,0,0,1,1.35-2.55c0.82-.53,1.43.07,2.25,0.15S155.91,66.61,156.66,66.76Z"/><g id="a-2"><path class="cls-4" d="M154.11,77.94a3.42,3.42,0,0,0,.9,1,7.5,7.5,0,0,0,1.8,1.13,6.13,6.13,0,0,0,2.18.52,4.86,4.86,0,0,0,2.17-.52,6.23,6.23,0,0,0,1.8-1.12,4.82,4.82,0,0,0,.9-1c0.07-.3-0.07-0.37-0.3-0.23a9.37,9.37,0,0,1-2.77,1.35,6.56,6.56,0,0,1-1.8.23q-1.13-.11-1.8-0.23a10.33,10.33,0,0,1-2.78-1.35c-0.3-.15-0.37-0.07-0.3.23m3.68-4.12a4.05,4.05,0,0,0-.45-2,1.56,1.56,0,0,0-1.2-.82h0a1.56,1.56,0,0,0-1.2.82,4.05,4.05,0,0,0-.45,2c0,0.6.15,0.75,0.38,0.45l0.45-.6a0.75,0.75,0,0,1,.82-0.45h0a0.81,0.81,0,0,1,.82.45l0.45,0.6c0.22,0.38.38,0.23,0.38-.45m2.7,0.52,0.45-.6a0.75,0.75,0,0,1,.82-0.45h0a0.81,0.81,0,0,1,.82.45l0.45,0.6c0.23,0.3.38,0.15,0.38-.45a4,4,0,0,0-.45-2,1.56,1.56,0,0,0-1.2-.82h0a1.56,1.56,0,0,0-1.2.82,4.05,4.05,0,0,0-.45,2C160.19,74.49,160.26,74.64,160.49,74.34Z"/></g><polygon class="cls-4" points="193.33 36.46 196.86 40.06 215.09 26.71 209.31 19.96 193.33 36.46"/><polygon class="cls-4" points="198.58 43.96 214.86 34.96 218.38 41.56 200.46 47.41 198.58 43.96"/><polygon class="cls-4" points="189.51 35.71 185.01 33.46 193.33 15.99 200.83 19.96 189.51 35.71"/><polyline class="cls-7" points="158.76 88.06 153.51 88.06 153.51 92.34 153.51 94.66"/><circle class="cls-4" cx="156.74" cy="91.36" r="1.05"/><line class="cls-7" x1="200.76" y1="141.84" x2="200.76" y2="148.59"/><line class="cls-7" x1="233.01" y1="141.84" x2="233.01" y2="148.59"/><path class="cls-12" d="M206.16,115.74l-0.75,1"/><path class="cls-12" d="M214.64,110.64a13.16,13.16,0,0,0-7,3.54"/><g class="cls-13"><path class="cls-14" d="M178.84,134.54H157.61a4.43,4.43,0,0,0-4.43,4.42v40.73a4.43,4.43,0,0,0,4.43,4.42h31.73a4.43,4.43,0,0,0,4.43-4.42V149.46a3.29,3.29,0,0,0-1-2.33l-11.55-11.62a3.17,3.17,0,0,0-2.4-1h0Z"/></g><path class="cls-15" d="M155.61,178.29a3.68,3.68,0,0,1-3.68-3.67V133.89a3.68,3.68,0,0,1,3.68-3.67h21.23a2.62,2.62,0,0,1,1.8.75l11.55,11.55a2.44,2.44,0,0,1,.75,1.8v30.23a3.68,3.68,0,0,1-3.68,3.67H155.61v0.08Z"/><path class="cls-4" d="M177.14,130.29v12.15a1.75,1.75,0,0,0,1.73,1.73h12.45"/></svg>