<?xml version="1.0" encoding="utf-8"?>
<!-- Generator: Adobe Illustrator 19.2.1, SVG Export Plug-In . SVG Version: 6.00 Build 0)  -->
<svg version="1.1" id="Layer_1" xmlns="http://www.w3.org/2000/svg" xmlns:xlink="http://www.w3.org/1999/xlink" x="0px" y="0px"
	 viewBox="0 0 207.5 217.4" style="enable-background:new 0 0 207.5 217.4;" xml:space="preserve">
<style type="text/css">
	.st0{fill:#A47CCE;}
	.st1{fill:none;stroke:#52306C;stroke-width:2;stroke-miterlimit:10;}
	.st2{fill:#97CDF2;}
	.st3{fill:none;stroke:#52306C;stroke-miterlimit:10;}
	.st4{fill:#FFFFFF;stroke:#52306C;stroke-miterlimit:10;}
	.st5{fill:#BF977B;stroke:#52306C;stroke-miterlimit:10;}
	.st6{fill:#BF977B;}
	.st7{fill:#52306C;}
	.st8{fill:#B82BED;stroke:#52306C;stroke-miterlimit:10;}
	.st9{opacity:0.5;fill:none;stroke:#A47CCE;stroke-linecap:round;stroke-miterlimit:10;}
	.st10{fill:#FFFFFF;}
</style>
<title>working-together</title>
<g>
	<g>
		<g>
			<g>
				<g>
					<path class="st0" d="M191,100.6V179c0,5.5,2,10.8,5.9,14.7l8.4,8.7h-14.7h-7.4H91.6c-2.9,0-5.6-2.3-5.6-5.2v-96.6
						c0-2.9,2.8-5.2,5.6-5.2h93.8C188.3,95.4,191,97.8,191,100.6z"/>
					<path class="st1" d="M191,100.6V179c0,5.5,2,10.8,5.9,14.7l8.4,8.7h-14.7h-7.4H91.6c-2.9,0-5.6-2.3-5.6-5.2v-96.6
						c0-2.9,2.8-5.2,5.6-5.2h93.8C188.3,95.4,191,97.8,191,100.6z"/>
				</g>
			</g>
		</g>
	</g>
	<g>
		<g>
			<defs>
				<circle id="SVGID_1_" cx="138.6" cy="147.9" r="36.3"/>
			</defs>
			<use xlink:href="#SVGID_1_"  style="overflow:visible;fill:#B82BED;"/>
			<clipPath id="SVGID_2_">
				<use xlink:href="#SVGID_1_"  style="overflow:visible;"/>
			</clipPath>
			<use xlink:href="#SVGID_1_"  style="overflow:visible;fill:none;stroke:#52306C;stroke-miterlimit:10;"/>
		</g>
	</g>
	<g>
		<g>
			<g>
				<path class="st2" d="M17,42.3V98c0,5.5-2,10.8-5.9,14.8l-8.5,8.7h14.7h7.4h75.9c2.9,0,5.3-2.4,5.3-5.2V42.3
					c0-2.9-2.5-4.9-5.3-4.9H22.5C19.7,37.4,17,39.4,17,42.3z"/>
				<path class="st1" d="M17,42.3V98c0,5.5-2,10.8-5.9,14.8l-8.5,8.7h14.7h7.4h75.9c2.9,0,5.3-2.4,5.3-5.2V42.3
					c0-2.9-2.5-4.9-5.3-4.9H22.5C19.7,37.4,17,39.4,17,42.3z"/>
			</g>
		</g>
	</g>
	<path class="st3" d="M124.1,166.6c-0.9,4.5,6,8.9,14.7,8.9c8.6,0,15.4-4.6,14.7-9"/>
	<path class="st4" d="M138.6,165.2c-11.6,0-21.8,2-27.6,6.2c6.7,7.8,16.5,12.8,27.6,12.8s21-5,27.6-12.8
		C160.4,167.2,150.2,165.2,138.6,165.2z"/>
	<path class="st3" d="M128.8,165.2v4.7c0,3.9,4.4,6.4,9.8,6.4h0c5.4,0,9.8-2.5,9.8-6.4v-4.7"/>
	<path class="st5" d="M144.2,162H133v5.6c0,3.1,2.5,3.7,5.6,3.7h0c3.1,0,5.6-0.6,5.6-3.7V162z"/>
	<g>
		<path class="st6" d="M138.6,164.8c-9.1,0-16.2-7.1-18.7-14.4c-0.1,0-0.1,0-0.2,0c-0.1,0-0.3,0-0.4,0c-2.1,0-4-1.9-4.2-4.3
			c-0.3-2.6,1.3-5.2,3.5-5.5c0.1,0,0.2-0.3,0.4-0.3c0,0,0.1,0,0.1,0c1.5-9,9.8-16.4,19.5-16.4c9.7,0,18,7.3,19.5,16.8
			c0.1,0,0.1,0.1,0.2,0.1c2.3,0.3,3.8,2.6,3.5,5.3c-0.3,2.5-2.1,4.4-4.2,4.4l0,0c-0.1,0-0.2,0-0.3,0
			C154.8,157.7,147.7,164.8,138.6,164.8z"/>
		<path class="st7" d="M138.6,124.7c9.8,0,17.8,7.3,19.1,16.7c0.1,0,0.2,0,0.3,0c0.1,0,0.1,0,0.2,0c2,0.2,3.4,2.3,3.1,4.7
			c-0.3,2.2-1.9,3.9-3.7,3.9c-0.1,0-0.2,0-0.3,0c-0.1,0-0.2,0-0.3-0.1c-2.5,7.8-9.8,14.4-18.4,14.4c-8.6,0-15.9-6.7-18.4-14.5
			c-0.2,0.1-0.4,0.1-0.6,0.1c-0.1,0-0.2,0-0.3,0c-1.8,0-3.5-1.7-3.7-3.9c-0.3-2.4,1.1-4.5,3.1-4.7c0.1,0,0.2,0,0.3,0
			c0.2,0,0.3,0,0.5,0C120.8,132,128.8,124.7,138.6,124.7 M138.6,123.7c-9.8,0-18.2,7.1-19.9,16.7c0,0-0.1,0-0.1,0
			c-1.3,0.1-2.4,0.8-3.1,2c-0.7,1.1-1,2.4-0.9,3.8c0.3,2.7,2.3,4.8,4.7,4.8c0.1,0,0.2,0,0.2,0c3,8.3,10.9,14.3,19.1,14.3
			c8.1,0,16-6,19.1-14.3c2.4,0,4.4-2.1,4.7-4.8c0.3-2.8-1.4-5.4-3.8-5.8C156.8,130.8,148.4,123.7,138.6,123.7L138.6,123.7z"/>
	</g>
	<g>
		<path class="st7" d="M150.8,134.1l2.9,6.6c0.1,0.4,0.4,0.7,0.8,0.8l3.5,1c-0.8-9.9-9.2-18.2-19.5-18.2c-10.3,0-18.7,8.3-19.5,18.3
			l3.9-1c0.4-0.1,0.7-0.4,0.8-0.8l2.9-6.6"/>
	</g>
	<g transform="matrix( 1, 0, 0, 1, 0,0) ">
		<g>
			<g>
				<g id="a_11_">
					<path class="st7" d="M144.3,147.5c0.8-0.1,1.5,0,2,0.3c1.1,0.3,1.7,0,1.8-0.9c-0.1-0.6-0.5-1.1-1.4-1.4
						c-1.5-0.3-3.1-0.3-4.6-0.1c-0.8,0.2-1.2,0.7-1.3,1.5c-0.1,0.6,0.2,0.9,0.9,1C141.8,148,142.7,147.9,144.3,147.5 M134.1,154.1
						c-1-0.5-1.3-0.4-1,0.4c0.6,1.2,1.6,2.2,2.9,3.1c1.7,0.9,3.4,0.8,5.1-0.4c1.2-1,2-2,2.4-3.1c0.1-0.7-0.2-0.7-1-0.2
						c-1,0.9-2.6,1.3-4.6,1.2C136.6,155.1,135.3,154.8,134.1,154.1 M133.1,143c-0.6,0-1.1,0.3-1.5,0.9c-0.4,0.6-0.6,1.3-0.6,2.1
						c0,0.8,0.2,1.5,0.6,2.1c0.4,0.6,0.9,0.9,1.5,0.9s1.1-0.3,1.4-0.9c0.4-0.6,0.6-1.3,0.6-2.1c0-0.8-0.2-1.5-0.6-2.1
						C134.2,143.3,133.7,143,133.1,143 M132.7,137.6c0.3-0.4,0.1-0.7-0.5-1c-0.3-0.1-0.6-0.1-0.9,0c-0.1,0-0.2,0.1-0.2,0.1
						c-2.5,0.9-4.2,2.6-5,5.2c-0.1,0.3-0.1,0.5,0,0.8c0.2,0.6,0.5,0.6,1,0.1c0.6-1,1.4-2.1,2.5-3.1c0.8-0.8,1.6-1.3,2.3-1.5
						c0.1,0,0.1-0.1,0.2-0.1C132.4,137.9,132.6,137.8,132.7,137.6 M149.9,143.9c1.3,0.5,1.5,0.2,0.7-0.9c-1.3-1.3-2.7-2-4.3-2.2
						c-1.5-0.1-2.8,0.2-3.7,0.8c-0.8,0.9-0.6,1.3,0.6,1.2c1.8-0.3,3.5-0.2,5,0.3L149.9,143.9z"/>
				</g>
			</g>
		</g>
	</g>
	<g>
		<g>
			<defs>
				<circle id="SVGID_3_" cx="61.6" cy="78.9" r="27.3"/>
			</defs>
			<use xlink:href="#SVGID_3_"  style="overflow:visible;fill:#738EE5;"/>
			<clipPath id="SVGID_4_">
				<use xlink:href="#SVGID_3_"  style="overflow:visible;"/>
			</clipPath>
			<use xlink:href="#SVGID_3_"  style="overflow:visible;fill:none;stroke:#52306C;stroke-miterlimit:10;"/>
		</g>
	</g>
	<path class="st8" d="M61.6,91.9c-8.7,0-16.4,1.5-20.8,4.7c5,5.9,12.4,9.6,20.8,9.6s15.8-3.7,20.8-9.6C78,93.4,70.3,91.9,61.6,91.9z
		"/>
	<path class="st5" d="M65.8,89.5h-8.4v4.2c0,2.3,1.9,2.8,4.2,2.8h0c2.3,0,4.2-0.4,4.2-2.8V89.5z"/>
	<g>
		<path class="st6" d="M61.6,92c-6.8,0-12.2-5.5-14.2-11c0,0,0,0,0,0c-0.1,0-0.2,0-0.3,0c-1.7,0-3.1-1.5-3.3-3.4
			c-0.2-2.1,1-3.9,2.8-4.1c0.1,0,0.2,0,0.2,0C48,66.3,54.3,61,61.6,61c7.3,0,13.6,5.4,14.8,12.5c0,0,0,0,0,0c1.8,0.2,3,2,2.8,4.1
			C79,79.5,77.6,81,75.9,81c0,0-0.1,0-0.2,0C73.8,86.5,68.4,92,61.6,92z"/>
		<path class="st7" d="M61.6,61.5c7.3,0,13.4,5.5,14.4,12.5c0.1,0,0.2,0,0.3,0c0.1,0,0.1,0,0.2,0c1.5,0.2,2.5,1.8,2.3,3.5
			c-0.2,1.7-1.4,2.9-2.8,2.9c-0.1,0-0.2,0-0.3,0c-0.1,0-0.2,0-0.2-0.1c-1.9,5.8-7.3,11.1-13.8,11.1c-6.5,0-12-5.3-13.8-11.1
			c-0.1,0-0.3,0.1-0.4,0.1c-0.1,0-0.2,0-0.3,0c-1.4,0-2.6-1.3-2.8-2.9c-0.2-1.8,0.8-3.4,2.3-3.5c0.1,0,0.2,0,0.2,0
			c0.1,0,0.3,0,0.4,0C48.2,66.9,54.2,61.5,61.6,61.5 M61.6,60.5c-7.4,0-13.8,5.3-15.2,12.6c-1,0.1-1.8,0.7-2.4,1.6
			c-0.6,0.9-0.8,1.9-0.7,3c0.2,2.2,1.9,3.8,3.8,3.8c0,0,0,0,0,0c2.1,6,7.6,11,14.5,11c6.9,0,12.4-5.4,14.5-11
			c1.8-0.1,3.4-1.7,3.6-3.8c0.2-2.2-1-4.2-2.9-4.6C75.4,65.8,69,60.5,61.6,60.5L61.6,60.5z"/>
	</g>
	<g>
		<path class="st7" d="M70.7,68.5l2.2,5c0.1,0.3,0.3,0.5,0.6,0.6l2.6,0.7c-0.6-7.5-6.8-13.4-14.5-13.4c-7.6,0-13.9,5.9-14.5,13.4
			l2.9-0.8c0.3-0.1,0.5-0.3,0.6-0.6l2.2-5l0.5-0.8l4-2.2l5.4,1.7L70.7,68.5z"/>
	</g>
	<path class="st7" d="M58.5,68c0.7,0.1,1.4,0.5,2.1,0.8c1.6,0.7,3.4,0.9,5.1,0.6c0.8-0.1,1.5-0.4,2.3-0.2c1.3,0.2,2.2,1.5,3.5,1.8
		c1.4,0.3,2.8-0.6,3.4-1.9c0.7-1.2,1.8-3.7,1.9-5.1c-1.7,0.8-4.5-0.8-6.1-1.9c-2.3-1.6-5.1-1-7.9-1.4c-1.5-0.2-3-0.4-4.5-0.2
		s-3,1-3.7,2.4c-0.1-0.7-0.1-1.3,0-2c-0.6-0.2-1.3,0-1.7,0.6c-0.3,0.5-0.2,1.3,0.3,1.7c-0.7-0.2-1.4-0.3-2.1-0.1
		c-0.7,0.2-1.3,0.8-1.2,1.5c0.4-0.3,1.1-0.2,1.5,0.2c-1.4,0.1-2.6,1.2-3.2,2.5s-0.8,2.7-1,4.1c-0.1,1-0.2,1.3-0.4,2.3
		c-0.1-0.4,1.1,0,1.5,0c0.4,0-0.1,0.1-0.1,0.5c1.3-0.1,2.1-1.5,2.5-2.8c0.4-1.3,0.7-2.7,1.8-3.4c1.2-0.7,1.9,0.1,3,0.2
		C56.5,68.4,57.5,67.8,58.5,68z"/>
	<g transform="matrix( 1, 0, 0, 1, 0,0) ">
		<g>
			<g>
				<g id="a_10_">
					<path class="st7" d="M55.1,82.9c0.2,0.4,0.6,0.8,1.2,1.3c0.5,0.5,1.4,1,2.4,1.5c1,0.4,2,0.7,2.9,0.7c0.9,0,1.9-0.2,2.9-0.7
						c1.1-0.5,1.9-1,2.4-1.5c0.6-0.5,1-1,1.2-1.3c0.1-0.4-0.1-0.5-0.4-0.3c-1.3,0.9-2.6,1.5-3.7,1.8c-0.7,0.2-1.5,0.3-2.4,0.3
						c-1-0.1-1.8-0.2-2.4-0.3c-1.1-0.3-2.3-0.9-3.7-1.8C55.1,82.4,55,82.5,55.1,82.9 M60,77.4c0-1.1-0.2-2-0.6-2.7
						c-0.5-0.7-1-1.1-1.6-1.1h0c-0.6,0-1.1,0.4-1.6,1.1c-0.4,0.7-0.6,1.6-0.6,2.7c0,0.8,0.2,1,0.5,0.6l0.6-0.8
						c0.3-0.5,0.7-0.7,1.1-0.6h0c0.5-0.1,0.8,0.2,1.1,0.6l0.6,0.8C59.8,78.5,60,78.3,60,77.4 M63.6,78.1l0.6-0.8
						c0.3-0.5,0.7-0.7,1.1-0.6h0c0.5-0.1,0.8,0.2,1.1,0.6l0.6,0.8c0.3,0.4,0.5,0.2,0.5-0.6c0-1.1-0.2-2-0.6-2.7
						c-0.5-0.7-1-1.1-1.6-1.1h0c-0.6,0-1.1,0.4-1.6,1.1c-0.4,0.7-0.6,1.6-0.6,2.7C63.2,78.3,63.3,78.5,63.6,78.1z"/>
				</g>
			</g>
		</g>
	</g>
	<polygon class="st7" points="107.4,27.6 112.1,32.4 136.4,14.6 128.7,5.6 	"/>
	<polygon class="st7" points="114.4,37.6 136.1,25.6 140.8,34.4 116.9,42.2 	"/>
	<polygon class="st7" points="102.3,26.6 96.3,23.6 107.4,0.3 117.4,5.6 	"/>
	<polyline class="st3" points="61.3,96.4 54.3,96.4 54.3,102.1 54.3,105.2 	"/>
	<circle class="st7" cx="58.6" cy="100.8" r="1.4"/>
	<line class="st3" x1="117.3" y1="168.1" x2="117.3" y2="177.1"/>
	<line class="st3" x1="160.3" y1="168.1" x2="160.3" y2="177.1"/>
	<path class="st9" d="M124.5,133.3c-0.3,0.4-0.7,0.9-1,1.3"/>
	<path class="st9" d="M135.8,126.5c0,0-5.5,0.5-10.3,5.7"/>
	<g>
		<path class="st10" d="M57.1,216.7c-2.7,0-4.9-2.2-4.9-4.9v-54.3c0-2.7,2.2-4.9,4.9-4.9h28.3c0.9,0,1.8,0.4,2.4,1l15.4,15.4
			c0.7,0.7,1,1.5,1,2.4v40.3c0,2.7-2.2,4.9-4.9,4.9H57.1z"/>
		<path class="st7" d="M85.4,153.7c0.7,0,1.3,0.3,1.7,0.7l15.4,15.4c0.5,0.5,0.7,1.1,0.7,1.7v40.3c0,2.1-1.7,3.9-3.9,3.9H57.1
			c-2.1,0-3.9-1.7-3.9-3.9v-54.3c0-2.1,1.7-3.9,3.9-3.9H85.4 M85.4,151.7H57.1c-3.2,0-5.9,2.6-5.9,5.9v54.3c0,3.2,2.6,5.9,5.9,5.9
			h42.3c3.2,0,5.9-2.6,5.9-5.9v-40.3c0-1.2-0.5-2.3-1.3-3.1L88.6,153C87.8,152.1,86.6,151.7,85.4,151.7L85.4,151.7z"/>
	</g>
	<path class="st7" d="M85.8,152.7v16.2c0,1.2,1,2.3,2.3,2.3h16.6"/>
</g>
</svg>
